%TF.GenerationSoftware,KiCad,Pcbnew,(5.99.0-11177-g6c67dfa032)*%
%TF.CreationDate,2021-09-16T00:44:04+03:00*%
%TF.ProjectId,Charon_32U4_Solder,43686172-6f6e-45f3-9332-55345f536f6c,rev?*%
%TF.SameCoordinates,Original*%
%TF.FileFunction,Copper,L1,Top*%
%TF.FilePolarity,Positive*%
%FSLAX46Y46*%
G04 Gerber Fmt 4.6, Leading zero omitted, Abs format (unit mm)*
G04 Created by KiCad (PCBNEW (5.99.0-11177-g6c67dfa032)) date 2021-09-16 00:44:04*
%MOMM*%
%LPD*%
G01*
G04 APERTURE LIST*
%TA.AperFunction,ComponentPad*%
%ADD10C,2.200000*%
%TD*%
%TA.AperFunction,ComponentPad*%
%ADD11O,1.000000X2.100000*%
%TD*%
%TA.AperFunction,ComponentPad*%
%ADD12O,1.000000X1.600000*%
%TD*%
%TA.AperFunction,ComponentPad*%
%ADD13R,1.700000X1.700000*%
%TD*%
%TA.AperFunction,ComponentPad*%
%ADD14O,1.700000X1.700000*%
%TD*%
%TA.AperFunction,ViaPad*%
%ADD15C,0.800000*%
%TD*%
%TA.AperFunction,Conductor*%
%ADD16C,0.350000*%
%TD*%
%TA.AperFunction,Conductor*%
%ADD17C,0.300000*%
%TD*%
%TA.AperFunction,Conductor*%
%ADD18C,2.200000*%
%TD*%
G04 APERTURE END LIST*
D10*
%TO.P,K70,1,1*%
%TO.N,/col14*%
X347821250Y-129460625D03*
%TO.P,K70,2,2*%
%TO.N,Net-(K70-Pad2)*%
X341471250Y-132000625D03*
%TD*%
%TO.P,K57,1,1*%
%TO.N,Net-(K57-Pad1)*%
X302577500Y-110410625D03*
%TO.P,K57,2,2*%
%TO.N,/col12*%
X296227500Y-112950625D03*
%TD*%
%TO.P,K58,1,1*%
%TO.N,/col13*%
X328771250Y-110410625D03*
%TO.P,K58,2,2*%
%TO.N,Net-(K58-Pad2)*%
X322421250Y-112950625D03*
%TD*%
%TO.P,K31,1,1*%
%TO.N,Net-(K31-Pad1)*%
X69215000Y-91360625D03*
%TO.P,K31,2,2*%
%TO.N,/col0*%
X62865000Y-93900625D03*
%TD*%
%TO.P,K43a1,1,1*%
%TO.N,Net-(K43-Pad1)*%
X304958750Y-91360625D03*
%TO.P,K43a1,2,2*%
%TO.N,/col12*%
X298608750Y-93900625D03*
%TD*%
%TO.P,K7,1,1*%
%TO.N,Net-(K7-Pad1)*%
X176371250Y-53260625D03*
%TO.P,K7,2,2*%
%TO.N,/col6*%
X170021250Y-55800625D03*
%TD*%
%TO.P,K49,1,1*%
%TO.N,Net-(K49-Pad1)*%
X143033750Y-110410625D03*
%TO.P,K49,2,2*%
%TO.N,/col4*%
X136683750Y-112950625D03*
%TD*%
%TO.P,K64a1,1,1*%
%TO.N,Net-(K64-Pad1)*%
X195421250Y-129460625D03*
%TO.P,K64a1,2,2*%
%TO.N,/col5*%
X189071250Y-132000625D03*
%TD*%
%TO.P,K34,1,1*%
%TO.N,/col3*%
X133508750Y-91360625D03*
%TO.P,K34,2,2*%
%TO.N,Net-(K34-Pad2)*%
X127158750Y-93900625D03*
%TD*%
%TO.P,K9,1,1*%
%TO.N,Net-(K9-Pad1)*%
X214471250Y-53260625D03*
%TO.P,K9,2,2*%
%TO.N,/col8*%
X208121250Y-55800625D03*
%TD*%
%TO.P,K33,1,1*%
%TO.N,Net-(K33-Pad1)*%
X114458750Y-91360625D03*
%TO.P,K33,2,2*%
%TO.N,/col2*%
X108108750Y-93900625D03*
%TD*%
%TO.P,K56,1,1*%
%TO.N,/col11*%
X276383750Y-110410625D03*
%TO.P,K56,2,2*%
%TO.N,Net-(K56-Pad2)*%
X270033750Y-112950625D03*
%TD*%
%TO.P,K54,1,1*%
%TO.N,/col9*%
X238283750Y-110410625D03*
%TO.P,K54,2,2*%
%TO.N,Net-(K54-Pad2)*%
X231933750Y-112950625D03*
%TD*%
%TO.P,K8,1,1*%
%TO.N,/col7*%
X195421250Y-53260625D03*
%TO.P,K8,2,2*%
%TO.N,Net-(K8-Pad2)*%
X189071250Y-55800625D03*
%TD*%
%TO.P,K24,1,1*%
%TO.N,Net-(K24-Pad1)*%
X223996250Y-72310625D03*
%TO.P,K24,2,2*%
%TO.N,/col8*%
X217646250Y-74850625D03*
%TD*%
%TO.P,K40,1,1*%
%TO.N,/col9*%
X247808750Y-91360625D03*
%TO.P,K40,2,2*%
%TO.N,Net-(K40-Pad2)*%
X241458750Y-93900625D03*
%TD*%
%TO.P,K11,1,1*%
%TO.N,Net-(K11-Pad1)*%
X252571250Y-53260625D03*
%TO.P,K11,2,2*%
%TO.N,/col10*%
X246221250Y-55800625D03*
%TD*%
%TO.P,K31a1,1,1*%
%TO.N,Net-(K31-Pad1)*%
X64452500Y-91360625D03*
%TO.P,K31a1,2,2*%
%TO.N,/col0*%
X58102500Y-93900625D03*
%TD*%
%TO.P,K15,1,1*%
%TO.N,Net-(K15-Pad1)*%
X328771250Y-53260625D03*
%TO.P,K15,2,2*%
%TO.N,/col14*%
X322421250Y-55800625D03*
%TD*%
%TO.P,K52,1,1*%
%TO.N,/col7*%
X200183750Y-110410625D03*
%TO.P,K52,2,2*%
%TO.N,Net-(K52-Pad2)*%
X193833750Y-112950625D03*
%TD*%
%TO.P,K53,1,1*%
%TO.N,Net-(K53-Pad1)*%
X219233750Y-110410625D03*
%TO.P,K53,2,2*%
%TO.N,/col8*%
X212883750Y-112950625D03*
%TD*%
%TO.P,K10,1,1*%
%TO.N,/col9*%
X233521250Y-53260625D03*
%TO.P,K10,2,2*%
%TO.N,Net-(K10-Pad2)*%
X227171250Y-55800625D03*
%TD*%
%TO.P,K63,1,1*%
%TO.N,/col3*%
X138271250Y-129460625D03*
%TO.P,K63,2,2*%
%TO.N,Net-(K63-Pad2)*%
X131921250Y-132000625D03*
%TD*%
%TO.P,K27,1,1*%
%TO.N,/col11*%
X281146250Y-72310625D03*
%TO.P,K27,2,2*%
%TO.N,Net-(K27-Pad2)*%
X274796250Y-74850625D03*
%TD*%
%TO.P,K51,1,1*%
%TO.N,Net-(K51-Pad1)*%
X181133750Y-110410625D03*
%TO.P,K51,2,2*%
%TO.N,/col6*%
X174783750Y-112950625D03*
%TD*%
%TO.P,K5,1,1*%
%TO.N,Net-(K5-Pad1)*%
X138271250Y-53260625D03*
%TO.P,K5,2,2*%
%TO.N,/col4*%
X131921250Y-55800625D03*
%TD*%
%TO.P,K50,1,1*%
%TO.N,/col5*%
X162083750Y-110410625D03*
%TO.P,K50,2,2*%
%TO.N,Net-(K50-Pad2)*%
X155733750Y-112950625D03*
%TD*%
%TO.P,K41,1,1*%
%TO.N,Net-(K41-Pad1)*%
X266858750Y-91360625D03*
%TO.P,K41,2,2*%
%TO.N,/col10*%
X260508750Y-93900625D03*
%TD*%
%TO.P,K17,1,1*%
%TO.N,/col1*%
X90646250Y-72310625D03*
%TO.P,K17,2,2*%
%TO.N,Net-(K17-Pad2)*%
X84296250Y-74850625D03*
%TD*%
%TO.P,K38,1,1*%
%TO.N,/col7*%
X209708750Y-91360625D03*
%TO.P,K38,2,2*%
%TO.N,Net-(K38-Pad2)*%
X203358750Y-93900625D03*
%TD*%
%TO.P,K64,1,1*%
%TO.N,Net-(K64-Pad1)*%
X169227500Y-129460625D03*
%TO.P,K64,2,2*%
%TO.N,/col5*%
X162877500Y-132000625D03*
%TD*%
%TO.P,K19,1,1*%
%TO.N,/col3*%
X128746250Y-72310625D03*
%TO.P,K19,2,2*%
%TO.N,Net-(K19-Pad2)*%
X122396250Y-74850625D03*
%TD*%
%TO.P,K29a1,1,1*%
%TO.N,/col13*%
X326390000Y-81835625D03*
%TO.P,K29a1,2,2*%
%TO.N,Net-(K29-Pad1)*%
X320040000Y-84375625D03*
%TD*%
%TO.P,K3,1,1*%
%TO.N,Net-(K3-Pad1)*%
X100171250Y-53260625D03*
%TO.P,K3,2,2*%
%TO.N,/col2*%
X93821250Y-55800625D03*
%TD*%
%TO.P,K29,1,1*%
%TO.N,Net-(K29-Pad1)*%
X318928750Y-82470625D03*
%TO.P,K29,2,2*%
%TO.N,/col13*%
X325278750Y-79930625D03*
%TD*%
%TO.P,K4,1,1*%
%TO.N,/col3*%
X119221250Y-53260625D03*
%TO.P,K4,2,2*%
%TO.N,Net-(K4-Pad2)*%
X112871250Y-55800625D03*
%TD*%
%TO.P,K37,1,1*%
%TO.N,Net-(K37-Pad1)*%
X190658750Y-91360625D03*
%TO.P,K37,2,2*%
%TO.N,/col6*%
X184308750Y-93900625D03*
%TD*%
%TO.P,K23,1,1*%
%TO.N,/col7*%
X204946250Y-72310625D03*
%TO.P,K23,2,2*%
%TO.N,Net-(K23-Pad2)*%
X198596250Y-74850625D03*
%TD*%
%TO.P,K32,1,1*%
%TO.N,/col1*%
X95408750Y-91360625D03*
%TO.P,K32,2,2*%
%TO.N,Net-(K32-Pad2)*%
X89058750Y-93900625D03*
%TD*%
%TO.P,K26,1,1*%
%TO.N,Net-(K26-Pad1)*%
X262096250Y-72310625D03*
%TO.P,K26,2,2*%
%TO.N,/col10*%
X255746250Y-74850625D03*
%TD*%
%TO.P,K18,1,1*%
%TO.N,Net-(K18-Pad1)*%
X109696250Y-72310625D03*
%TO.P,K18,2,2*%
%TO.N,/col2*%
X103346250Y-74850625D03*
%TD*%
%TO.P,K22,1,1*%
%TO.N,Net-(K22-Pad1)*%
X185896250Y-72310625D03*
%TO.P,K22,2,2*%
%TO.N,/col6*%
X179546250Y-74850625D03*
%TD*%
%TO.P,K6,1,1*%
%TO.N,/col5*%
X157321250Y-53260625D03*
%TO.P,K6,2,2*%
%TO.N,Net-(K6-Pad2)*%
X150971250Y-55800625D03*
%TD*%
%TO.P,K42,1,1*%
%TO.N,/col11*%
X285908750Y-91360625D03*
%TO.P,K42,2,2*%
%TO.N,Net-(K42-Pad2)*%
X279558750Y-93900625D03*
%TD*%
%TO.P,K65,1,1*%
%TO.N,/col8*%
X216852500Y-129460625D03*
%TO.P,K65,2,2*%
%TO.N,Net-(K65-Pad2)*%
X210502500Y-132000625D03*
%TD*%
%TO.P,K30,1,1*%
%TO.N,/col14*%
X347821250Y-72310625D03*
%TO.P,K30,2,2*%
%TO.N,Net-(K30-Pad2)*%
X341471250Y-74850625D03*
%TD*%
%TO.P,K12,1,1*%
%TO.N,/col11*%
X271621250Y-53260625D03*
%TO.P,K12,2,2*%
%TO.N,Net-(K12-Pad2)*%
X265271250Y-55800625D03*
%TD*%
%TO.P,K20,1,1*%
%TO.N,Net-(K20-Pad1)*%
X147796250Y-72310625D03*
%TO.P,K20,2,2*%
%TO.N,/col4*%
X141446250Y-74850625D03*
%TD*%
%TO.P,K48,1,1*%
%TO.N,/col3*%
X123983750Y-110410625D03*
%TO.P,K48,2,2*%
%TO.N,Net-(K48-Pad2)*%
X117633750Y-112950625D03*
%TD*%
%TO.P,K69,1,1*%
%TO.N,/col13*%
X328771250Y-129460625D03*
%TO.P,K69,2,2*%
%TO.N,Net-(K69-Pad2)*%
X322421250Y-132000625D03*
%TD*%
%TO.P,K45,1,1*%
%TO.N,Net-(K45-Pad1)*%
X64452500Y-110410625D03*
%TO.P,K45,2,2*%
%TO.N,/col0*%
X58102500Y-112950625D03*
%TD*%
%TO.P,K13,1,1*%
%TO.N,Net-(K13-Pad1)*%
X290671250Y-53260625D03*
%TO.P,K13,2,2*%
%TO.N,/col12*%
X284321250Y-55800625D03*
%TD*%
%TO.P,K61,1,1*%
%TO.N,/col1*%
X90646250Y-129460625D03*
%TO.P,K61,2,2*%
%TO.N,Net-(K61-Pad2)*%
X84296250Y-132000625D03*
%TD*%
%TO.P,K43,1,1*%
%TO.N,Net-(K43-Pad1)*%
X316865000Y-91360625D03*
%TO.P,K43,2,2*%
%TO.N,/col12*%
X310515000Y-93900625D03*
%TD*%
%TO.P,K47,1,1*%
%TO.N,Net-(K47-Pad1)*%
X104933750Y-110410625D03*
%TO.P,K47,2,2*%
%TO.N,/col2*%
X98583750Y-112950625D03*
%TD*%
%TO.P,K28,1,1*%
%TO.N,Net-(K28-Pad1)*%
X300196250Y-72310625D03*
%TO.P,K28,2,2*%
%TO.N,/col12*%
X293846250Y-74850625D03*
%TD*%
%TO.P,K36,1,1*%
%TO.N,/col5*%
X171608750Y-91360625D03*
%TO.P,K36,2,2*%
%TO.N,Net-(K36-Pad2)*%
X165258750Y-93900625D03*
%TD*%
%TO.P,K39,1,1*%
%TO.N,Net-(K39-Pad1)*%
X228758750Y-91360625D03*
%TO.P,K39,2,2*%
%TO.N,/col8*%
X222408750Y-93900625D03*
%TD*%
%TO.P,K62,1,1*%
%TO.N,Net-(K62-Pad1)*%
X114458750Y-129460625D03*
%TO.P,K62,2,2*%
%TO.N,/col2*%
X108108750Y-132000625D03*
%TD*%
%TO.P,K59,1,1*%
%TO.N,/col14*%
X347821250Y-110410625D03*
%TO.P,K59,2,2*%
%TO.N,Net-(K59-Pad2)*%
X341471250Y-112950625D03*
%TD*%
%TO.P,K60,1,1*%
%TO.N,Net-(K60-Pad1)*%
X66833750Y-129460625D03*
%TO.P,K60,2,2*%
%TO.N,/col0*%
X60483750Y-132000625D03*
%TD*%
%TO.P,K67,1,1*%
%TO.N,/col11*%
X276383750Y-129460625D03*
%TO.P,K67,2,2*%
%TO.N,Net-(K67-Pad2)*%
X270033750Y-132000625D03*
%TD*%
%TO.P,K44,1,1*%
%TO.N,/col13*%
X347821250Y-91360625D03*
%TO.P,K44,2,2*%
%TO.N,Net-(K44-Pad2)*%
X341471250Y-93900625D03*
%TD*%
%TO.P,K1,1,1*%
%TO.N,Net-(K1-Pad1)*%
X62071250Y-53260625D03*
%TO.P,K1,2,2*%
%TO.N,/col0*%
X55721250Y-55800625D03*
%TD*%
%TO.P,K46,1,1*%
%TO.N,/col1*%
X85883750Y-110410625D03*
%TO.P,K46,2,2*%
%TO.N,Net-(K46-Pad2)*%
X79533750Y-112950625D03*
%TD*%
%TO.P,K55,1,1*%
%TO.N,Net-(K55-Pad1)*%
X257333750Y-110410625D03*
%TO.P,K55,2,2*%
%TO.N,/col10*%
X250983750Y-112950625D03*
%TD*%
%TO.P,K21,1,1*%
%TO.N,/col5*%
X166846250Y-72310625D03*
%TO.P,K21,2,2*%
%TO.N,Net-(K21-Pad2)*%
X160496250Y-74850625D03*
%TD*%
%TO.P,K68,1,1*%
%TO.N,Net-(K68-Pad1)*%
X309721250Y-129460625D03*
%TO.P,K68,2,2*%
%TO.N,/col12*%
X303371250Y-132000625D03*
%TD*%
%TO.P,K66,1,1*%
%TO.N,Net-(K66-Pad1)*%
X252571250Y-129460625D03*
%TO.P,K66,2,2*%
%TO.N,/col10*%
X246221250Y-132000625D03*
%TD*%
%TO.P,K16,1,1*%
%TO.N,Net-(K16-Pad1)*%
X66833750Y-72310625D03*
%TO.P,K16,2,2*%
%TO.N,/col0*%
X60483750Y-74850625D03*
%TD*%
%TO.P,K2,1,1*%
%TO.N,/col1*%
X81121250Y-53260625D03*
%TO.P,K2,2,2*%
%TO.N,Net-(K2-Pad2)*%
X74771250Y-55800625D03*
%TD*%
%TO.P,K45a1,1,1*%
%TO.N,Net-(K45-Pad1)*%
X73977500Y-110410625D03*
%TO.P,K45a1,2,2*%
%TO.N,/col0*%
X67627500Y-112950625D03*
%TD*%
%TO.P,K35,1,1*%
%TO.N,Net-(K35-Pad1)*%
X152558750Y-91360625D03*
%TO.P,K35,2,2*%
%TO.N,/col4*%
X146208750Y-93900625D03*
%TD*%
%TO.P,K14,1,1*%
%TO.N,/col13*%
X309721250Y-53260625D03*
%TO.P,K14,2,2*%
%TO.N,Net-(K14-Pad2)*%
X303371250Y-55800625D03*
%TD*%
%TO.P,K14a1,1,1*%
%TO.N,/col13*%
X319246250Y-53260625D03*
%TO.P,K14a1,2,2*%
%TO.N,Net-(K14-Pad2)*%
X312896250Y-55800625D03*
%TD*%
%TO.P,K25,1,1*%
%TO.N,/col9*%
X243046250Y-72310625D03*
%TO.P,K25,2,2*%
%TO.N,Net-(K25-Pad2)*%
X236696250Y-74850625D03*
%TD*%
D11*
%TO.P,J1,S1,SHIELD*%
%TO.N,Net-(FB1-Pad1)*%
X198086250Y-51270000D03*
D12*
X198086250Y-47090000D03*
D11*
X206726250Y-51270000D03*
D12*
X206726250Y-47090000D03*
%TD*%
D13*
%TO.P,LED1,1,K*%
%TO.N,Earth*%
X60622500Y-101520625D03*
D14*
%TO.P,LED1,2,A*%
%TO.N,Net-(R6-Pad2)*%
X63162500Y-101520625D03*
%TD*%
D13*
%TO.P,ISP1,1,Pin_1*%
%TO.N,/MISO*%
X285591250Y-117268625D03*
D14*
%TO.P,ISP1,2,Pin_2*%
%TO.N,+5V*%
X288131250Y-117268625D03*
%TO.P,ISP1,3,Pin_3*%
%TO.N,/SCL*%
X285591250Y-114728625D03*
%TO.P,ISP1,4,Pin_4*%
%TO.N,/MOSI*%
X288131250Y-114728625D03*
%TO.P,ISP1,5,Pin_5*%
%TO.N,/RES*%
X285591250Y-112188625D03*
%TO.P,ISP1,6,Pin_6*%
%TO.N,Earth*%
X288131250Y-112188625D03*
%TD*%
D13*
%TO.P,LED1a1,1,K*%
%TO.N,Earth*%
X65385000Y-101520625D03*
D14*
%TO.P,LED1a1,2,A*%
%TO.N,Net-(R6-Pad2)*%
X67925000Y-101520625D03*
%TD*%
D15*
%TO.N,+5V*%
X282543250Y-119827375D03*
%TO.N,Earth*%
X290417250Y-136318625D03*
X290417250Y-123110625D03*
X285845250Y-129460625D03*
X296513250Y-123999625D03*
X214217250Y-104695625D03*
X296386250Y-118919625D03*
X301593250Y-122983625D03*
X197510400Y-55219600D03*
X301593250Y-121459625D03*
X301593250Y-118284625D03*
X278733250Y-123872625D03*
X298206250Y-128315625D03*
X292449250Y-124692771D03*
X289147250Y-132762625D03*
X301593250Y-119935625D03*
X282289250Y-128444625D03*
X289655250Y-126412625D03*
X290417250Y-119554625D03*
X205656250Y-55219600D03*
X301593250Y-124634625D03*
X292703250Y-129460625D03*
X201481750Y-58899425D03*
X296386250Y-120697625D03*
X219077847Y-104661028D03*
%TO.N,/MISO*%
X250031250Y-117395625D03*
X290290250Y-117141625D03*
X294227250Y-101203125D03*
X246221250Y-121205625D03*
%TO.N,/SCL*%
X208121250Y-81200625D03*
X292703250Y-81200625D03*
X215741250Y-81200625D03*
%TO.N,/MOSI*%
X212883750Y-100250625D03*
X220503750Y-100250625D03*
X286861250Y-119808625D03*
X293465250Y-100250625D03*
%TO.N,/col0*%
X208121250Y-82978625D03*
X295751250Y-106346625D03*
X294989250Y-99361625D03*
X215741250Y-82978625D03*
X61055250Y-82978625D03*
%TO.N,/col1*%
X214344250Y-82089625D03*
X296259250Y-99361625D03*
X90646250Y-82089625D03*
X209518250Y-82089625D03*
X297275250Y-106346625D03*
%TO.N,/col2*%
X273907250Y-121459625D03*
X220440250Y-103806625D03*
X262985250Y-105965625D03*
X107664250Y-103806625D03*
X299299504Y-136950195D03*
X278606250Y-121459625D03*
X212947250Y-103806625D03*
%TO.N,/col3*%
X274669250Y-120570625D03*
X219170250Y-102917625D03*
X263861750Y-105330625D03*
X214217250Y-102917625D03*
X131445000Y-102949375D03*
X277844250Y-120570625D03*
X299946717Y-136069901D03*
%TO.N,/col4*%
X220440250Y-102028625D03*
X146907250Y-102028625D03*
X273907250Y-119681625D03*
X264623750Y-104568625D03*
X278606250Y-119681625D03*
X212947250Y-102028625D03*
X299300802Y-135175625D03*
%TO.N,/col5*%
X299942250Y-134286625D03*
X274669250Y-118792625D03*
X214217250Y-101139625D03*
X171291250Y-101139625D03*
X265398250Y-103933625D03*
X277844250Y-118792625D03*
X219170250Y-101139625D03*
%TO.N,/col6*%
X281146250Y-139468225D03*
%TO.N,/col7*%
X281146250Y-138350625D03*
%TO.N,/col8*%
X281146250Y-137207625D03*
%TO.N,/col9*%
X281146250Y-136064625D03*
%TO.N,/col10*%
X281146250Y-134921625D03*
%TO.N,/col11*%
X281146250Y-133778625D03*
%TO.N,/col12*%
X299942250Y-137842625D03*
%TO.N,/col13*%
X299296150Y-138731625D03*
%TO.N,/col14*%
X299942250Y-139620625D03*
%TO.N,/row0*%
X198596250Y-62150625D03*
X278606250Y-62150625D03*
X206216250Y-62150625D03*
X283432250Y-117776625D03*
%TO.N,Net-(K57-Pad1)*%
X311626250Y-110410625D03*
%TD*%
D16*
%TO.N,+5V*%
X288131250Y-120062625D02*
X288131250Y-117268625D01*
X284302500Y-121586625D02*
X286607250Y-121586625D01*
X282543250Y-119827375D02*
X284302500Y-121586625D01*
X286607250Y-121586625D02*
X288131250Y-120062625D01*
%TO.N,Earth*%
X201974450Y-58899425D02*
X205654275Y-55219600D01*
X205654275Y-55219600D02*
X205656250Y-55219600D01*
X201481750Y-58899425D02*
X201974450Y-58899425D01*
X219077847Y-104661028D02*
X219043250Y-104695625D01*
X219043250Y-104695625D02*
X214217250Y-104695625D01*
X197510400Y-55219600D02*
X205656250Y-55219600D01*
D17*
%TO.N,/MISO*%
X294227250Y-103044625D02*
X290290250Y-106981625D01*
X290290250Y-106981625D02*
X290290250Y-117141625D01*
X294227250Y-101203125D02*
X294227250Y-103044625D01*
D16*
X250031250Y-117395625D02*
X246221250Y-121205625D01*
D17*
%TO.N,/SCL*%
X284067250Y-113204625D02*
X285591250Y-114728625D01*
X292703250Y-81200625D02*
X292703250Y-102409625D01*
D16*
X208121250Y-81200625D02*
X215741250Y-81200625D01*
D17*
X284067250Y-111045625D02*
X284067250Y-113204625D01*
X292703250Y-102409625D02*
X284067250Y-111045625D01*
%TO.N,/MOSI*%
X289528250Y-106727625D02*
X289528250Y-113331625D01*
X289528250Y-113331625D02*
X288131250Y-114728625D01*
X293465250Y-102790625D02*
X289528250Y-106727625D01*
X286861250Y-115998625D02*
X288131250Y-114728625D01*
D16*
X220503750Y-100250625D02*
X212883750Y-100250625D01*
D17*
X286861250Y-119808625D02*
X286861250Y-115998625D01*
X293465250Y-100250625D02*
X293465250Y-102790625D01*
D16*
%TO.N,/col0*%
X58578750Y-113426875D02*
X58578750Y-117871875D01*
X55245000Y-106515959D02*
X58578750Y-103182209D01*
X295001761Y-105597136D02*
X295751250Y-106346625D01*
X55245000Y-126761875D02*
X60483750Y-132000625D01*
X58578750Y-103182209D02*
X58578750Y-94376875D01*
X55245000Y-121205625D02*
X55245000Y-126761875D01*
X58578750Y-94376875D02*
X58102500Y-93900625D01*
X58102500Y-112950625D02*
X58578750Y-113426875D01*
X55721250Y-55800625D02*
X56371250Y-56450625D01*
X58102500Y-112950625D02*
X55245000Y-110093125D01*
X60483750Y-74850625D02*
X61055250Y-75422125D01*
X56371250Y-63562625D02*
X60483750Y-67675125D01*
X56371250Y-56450625D02*
X56371250Y-63562625D01*
X208121250Y-82978625D02*
X215741250Y-82978625D01*
X60483750Y-67675125D02*
X60483750Y-74850625D01*
X61055250Y-90947875D02*
X58102500Y-93900625D01*
X58578750Y-117871875D02*
X55245000Y-121205625D01*
X61055250Y-75422125D02*
X61055250Y-82978625D01*
X295001761Y-104200136D02*
X295001761Y-105597136D01*
X61055250Y-82978625D02*
X61055250Y-90947875D01*
X55245000Y-110093125D02*
X55245000Y-106515959D01*
X294989250Y-99361625D02*
X295001761Y-99374136D01*
X295001761Y-99374136D02*
X295001761Y-104200136D01*
%TO.N,/col1*%
X95408750Y-91360625D02*
X95408750Y-100885625D01*
X297275250Y-106346625D02*
X296259250Y-105330625D01*
X81121250Y-62785625D02*
X90646250Y-72310625D01*
X90646250Y-125650625D02*
X90646250Y-129460625D01*
X209518250Y-82089625D02*
X214344250Y-82089625D01*
X91503500Y-104790875D02*
X85883750Y-110410625D01*
X90646250Y-82089625D02*
X90646250Y-86598125D01*
X85883750Y-110410625D02*
X85883750Y-120888125D01*
X296259250Y-105330625D02*
X296259250Y-99361625D01*
X95408750Y-100885625D02*
X91503500Y-104790875D01*
X85883750Y-120888125D02*
X90646250Y-125650625D01*
X90646250Y-72310625D02*
X90646250Y-82089625D01*
X90646250Y-86598125D02*
X95408750Y-91360625D01*
X81121250Y-53260625D02*
X81121250Y-62785625D01*
%TO.N,/col2*%
X107664250Y-103870125D02*
X98583750Y-112950625D01*
X93821250Y-55800625D02*
X94329250Y-56308625D01*
X103981250Y-89773125D02*
X108108750Y-93900625D01*
X212947250Y-103806625D02*
X220440250Y-103806625D01*
X103981250Y-75485625D02*
X103981250Y-89773125D01*
X103346250Y-74850625D02*
X103981250Y-75485625D01*
X94329250Y-65833625D02*
X103346250Y-74850625D01*
X279749250Y-121459625D02*
X295239820Y-136950195D01*
X262985250Y-105965625D02*
X262985250Y-115490625D01*
X99155250Y-113522125D02*
X99155250Y-123047125D01*
X107664250Y-103806625D02*
X108807250Y-102663625D01*
X99155250Y-123047125D02*
X108108750Y-132000625D01*
X278606250Y-121459625D02*
X279749250Y-121459625D01*
X98583750Y-112950625D02*
X99155250Y-113522125D01*
X94329250Y-56308625D02*
X94329250Y-65833625D01*
X262985250Y-115490625D02*
X268954250Y-121459625D01*
X107664250Y-103806625D02*
X107664250Y-103870125D01*
X108807250Y-102663625D02*
X108807250Y-94599125D01*
X295239820Y-136950195D02*
X299299504Y-136950195D01*
X268954250Y-121459625D02*
X273907250Y-121459625D01*
X108807250Y-94599125D02*
X108108750Y-93900625D01*
%TO.N,/col3*%
X131445000Y-102949375D02*
X123983750Y-110410625D01*
X119221250Y-53260625D02*
X119221250Y-62785625D01*
X295248526Y-136069901D02*
X299946717Y-136069901D01*
X123983750Y-122793125D02*
X130651250Y-129460625D01*
X128746250Y-86598125D02*
X133508750Y-91360625D01*
X277844250Y-120570625D02*
X279749250Y-120570625D01*
X263874250Y-105343125D02*
X263874250Y-115236625D01*
X263861750Y-105330625D02*
X263874250Y-105343125D01*
X269208250Y-120570625D02*
X274669250Y-120570625D01*
X133508750Y-100885625D02*
X131445000Y-102949375D01*
X133508750Y-91360625D02*
X133508750Y-100885625D01*
X279749250Y-120570625D02*
X295248526Y-136069901D01*
X214217250Y-102917625D02*
X219170250Y-102917625D01*
X128746250Y-72310625D02*
X128746250Y-86598125D01*
X130651250Y-129460625D02*
X138271250Y-129460625D01*
X119221250Y-62785625D02*
X128746250Y-72310625D01*
X263874250Y-115236625D02*
X269208250Y-120570625D01*
X123983750Y-110410625D02*
X123983750Y-122793125D01*
%TO.N,/col4*%
X132429250Y-56308625D02*
X132429250Y-65833625D01*
X269462250Y-119681625D02*
X273907250Y-119681625D01*
X279876250Y-119681625D02*
X295370250Y-135175625D01*
X264636250Y-114855625D02*
X269462250Y-119681625D01*
X142081250Y-89773125D02*
X146208750Y-93900625D01*
X146907250Y-94599125D02*
X146208750Y-93900625D01*
X278606250Y-119681625D02*
X279876250Y-119681625D01*
X141446250Y-74850625D02*
X142081250Y-75485625D01*
X146907250Y-102727125D02*
X136683750Y-112950625D01*
X132429250Y-65833625D02*
X141446250Y-74850625D01*
X146907250Y-102028625D02*
X146907250Y-102727125D01*
X131921250Y-55800625D02*
X132429250Y-56308625D01*
X146907250Y-102028625D02*
X146907250Y-94599125D01*
X295370250Y-135175625D02*
X299300802Y-135175625D01*
X212947250Y-102028625D02*
X220440250Y-102028625D01*
X264636250Y-104581125D02*
X264636250Y-114855625D01*
X142081250Y-75485625D02*
X142081250Y-89773125D01*
X264623750Y-104568625D02*
X264636250Y-104581125D01*
%TO.N,/col5*%
X214217250Y-101139625D02*
X219170250Y-101139625D01*
X269716250Y-118792625D02*
X274669250Y-118792625D01*
X166846250Y-72310625D02*
X166846250Y-86598125D01*
X166846250Y-86598125D02*
X171608750Y-91360625D01*
X162655250Y-110982125D02*
X162655250Y-131778375D01*
X157321250Y-62785625D02*
X166846250Y-72310625D01*
X279876250Y-118792625D02*
X295370250Y-134286625D01*
X171608750Y-100822125D02*
X171608750Y-91360625D01*
X162655250Y-131778375D02*
X162877500Y-132000625D01*
X265398250Y-103933625D02*
X265398250Y-114474625D01*
X162083750Y-110410625D02*
X162655250Y-110982125D01*
X265398250Y-114474625D02*
X269716250Y-118792625D01*
X295370250Y-134286625D02*
X299942250Y-134286625D01*
X171291250Y-101139625D02*
X171608750Y-100822125D01*
X277844250Y-118792625D02*
X279876250Y-118792625D01*
X171291250Y-101203125D02*
X162083750Y-110410625D01*
X171291250Y-101139625D02*
X171291250Y-101203125D01*
X157321250Y-53260625D02*
X157321250Y-62785625D01*
%TO.N,/col6*%
X175482250Y-132635625D02*
X175482250Y-113649125D01*
X182314850Y-139468225D02*
X175482250Y-132635625D01*
X281146250Y-139468225D02*
X182314850Y-139468225D01*
X170529250Y-65833625D02*
X179546250Y-74850625D01*
X170529250Y-56308625D02*
X170529250Y-65833625D01*
X170021250Y-55800625D02*
X170529250Y-56308625D01*
X180181250Y-89773125D02*
X184308750Y-93900625D01*
X184308750Y-93900625D02*
X185007250Y-94599125D01*
X179546250Y-74850625D02*
X180181250Y-75485625D01*
X180181250Y-75485625D02*
X180181250Y-89773125D01*
X185007250Y-102727125D02*
X174783750Y-112950625D01*
X175482250Y-113649125D02*
X174783750Y-112950625D01*
X185007250Y-94599125D02*
X185007250Y-102727125D01*
%TO.N,/col7*%
X195421250Y-53260625D02*
X195421250Y-62785625D01*
X281146250Y-138350625D02*
X280587450Y-138909425D01*
X204946250Y-72310625D02*
X204946250Y-86598125D01*
X280587450Y-138909425D02*
X210331050Y-138909425D01*
X204946250Y-86598125D02*
X209708750Y-91360625D01*
X206724250Y-116951125D02*
X200183750Y-110410625D01*
X206724250Y-135302625D02*
X206724250Y-116951125D01*
X209708750Y-100885625D02*
X200183750Y-110410625D01*
X210331050Y-138909425D02*
X206724250Y-135302625D01*
X209708750Y-91360625D02*
X209708750Y-100885625D01*
X195421250Y-62785625D02*
X204946250Y-72310625D01*
%TO.N,/col8*%
X208629250Y-65833625D02*
X217646250Y-74850625D01*
X223107250Y-94599125D02*
X223107250Y-102727125D01*
X208629250Y-56308625D02*
X208629250Y-65833625D01*
X225742500Y-138350625D02*
X216852500Y-129460625D01*
X218281250Y-89773125D02*
X222408750Y-93900625D01*
X218281250Y-75485625D02*
X218281250Y-89773125D01*
X280003250Y-138350625D02*
X225742500Y-138350625D01*
X217646250Y-74850625D02*
X218281250Y-75485625D01*
X281146250Y-137207625D02*
X280003250Y-138350625D01*
X222408750Y-93900625D02*
X223107250Y-94599125D01*
X213455250Y-113522125D02*
X213455250Y-126063375D01*
X208121250Y-55800625D02*
X208629250Y-56308625D01*
X212883750Y-112950625D02*
X213455250Y-113522125D01*
X213455250Y-126063375D02*
X216852500Y-129460625D01*
X223107250Y-102727125D02*
X212883750Y-112950625D01*
%TO.N,/col9*%
X281146250Y-136064625D02*
X279419050Y-137791825D01*
X247808750Y-100885625D02*
X238283750Y-110410625D01*
X233521250Y-62785625D02*
X243046250Y-72310625D01*
X242233450Y-137791825D02*
X238283750Y-133842125D01*
X243046250Y-86598125D02*
X247808750Y-91360625D01*
X233521250Y-53260625D02*
X233521250Y-62785625D01*
X243046250Y-72310625D02*
X243046250Y-86598125D01*
X279419050Y-137791825D02*
X242233450Y-137791825D01*
X247808750Y-91360625D02*
X247808750Y-100885625D01*
X238283750Y-133842125D02*
X238283750Y-110410625D01*
%TO.N,/col10*%
X250983750Y-112950625D02*
X251555250Y-113522125D01*
X246729250Y-56308625D02*
X246729250Y-65833625D01*
X248024650Y-137233025D02*
X246856250Y-136064625D01*
X246856250Y-132635625D02*
X246221250Y-132000625D01*
X246856250Y-136064625D02*
X246856250Y-132635625D01*
X260508750Y-93900625D02*
X261207250Y-94599125D01*
X251555250Y-113522125D02*
X251555250Y-119681625D01*
X251555250Y-119681625D02*
X246221250Y-125015625D01*
X281146250Y-134921625D02*
X278834850Y-137233025D01*
X261207250Y-102727125D02*
X250983750Y-112950625D01*
X246221250Y-55800625D02*
X246729250Y-56308625D01*
X255746250Y-74850625D02*
X256381250Y-75485625D01*
X256381250Y-75485625D02*
X256381250Y-89773125D01*
X246729250Y-65833625D02*
X255746250Y-74850625D01*
X256381250Y-89773125D02*
X260508750Y-93900625D01*
X278834850Y-137233025D02*
X248024650Y-137233025D01*
X246221250Y-125015625D02*
X246221250Y-132000625D01*
X261207250Y-94599125D02*
X261207250Y-102727125D01*
%TO.N,/col11*%
X276383750Y-110410625D02*
X276383750Y-129460625D01*
X276828250Y-129460625D02*
X276383750Y-129460625D01*
X281146250Y-72310625D02*
X281146250Y-86598125D01*
X271621250Y-62785625D02*
X281146250Y-72310625D01*
X281146250Y-86598125D02*
X285908750Y-91360625D01*
X281146250Y-133778625D02*
X276828250Y-129460625D01*
X271621250Y-53260625D02*
X271621250Y-62785625D01*
X285908750Y-91360625D02*
X285908750Y-100885625D01*
X285908750Y-100885625D02*
X276383750Y-110410625D01*
%TO.N,/col12*%
X303371250Y-113934875D02*
X303371250Y-132000625D01*
X304006250Y-135302625D02*
X304006250Y-132635625D01*
X299307250Y-109870875D02*
X303371250Y-113934875D01*
X299307250Y-109870875D02*
X296227500Y-112950625D01*
X299942250Y-137842625D02*
X301466250Y-137842625D01*
X301466250Y-137842625D02*
X304006250Y-135302625D01*
X284829250Y-65833625D02*
X293846250Y-74850625D01*
X299307250Y-94599125D02*
X299307250Y-109870875D01*
X294481250Y-75485625D02*
X294481250Y-89773125D01*
X298608750Y-93900625D02*
X299307250Y-94599125D01*
X304006250Y-132635625D02*
X303371250Y-132000625D01*
X293846250Y-74850625D02*
X294481250Y-75485625D01*
X284829250Y-56308625D02*
X284829250Y-65833625D01*
X294481250Y-89773125D02*
X298608750Y-93900625D01*
X284321250Y-55800625D02*
X284829250Y-56308625D01*
D18*
%TO.N,/col13*%
X326390000Y-81835625D02*
X325278750Y-79930625D01*
D16*
X337661250Y-110410625D02*
X328771250Y-110410625D01*
X347821250Y-100250625D02*
X337661250Y-110410625D01*
X328771250Y-129460625D02*
X328771250Y-110410625D01*
X343376250Y-86915625D02*
X331470000Y-86915625D01*
X347821250Y-91360625D02*
X343376250Y-86915625D01*
X324707250Y-79359125D02*
X325278750Y-79930625D01*
X324707250Y-70786625D02*
X324707250Y-79359125D01*
X347821250Y-91360625D02*
X347821250Y-100250625D01*
X299296150Y-138731625D02*
X325850250Y-138731625D01*
X328771250Y-135810625D02*
X328771250Y-129460625D01*
X325850250Y-138731625D02*
X328771250Y-135810625D01*
X331470000Y-86915625D02*
X326390000Y-81835625D01*
X319246250Y-53260625D02*
X319246250Y-65325625D01*
X319246250Y-65325625D02*
X324707250Y-70786625D01*
%TO.N,/col14*%
X347821250Y-110410625D02*
X352393250Y-105838625D01*
X334803750Y-67865625D02*
X339248750Y-72310625D01*
X347821250Y-136699625D02*
X347821250Y-129460625D01*
X339248750Y-72310625D02*
X347821250Y-72310625D01*
X344900250Y-139620625D02*
X347821250Y-136699625D01*
X322421250Y-55800625D02*
X333216250Y-55800625D01*
X333216250Y-55800625D02*
X334803750Y-57388125D01*
X347821250Y-129460625D02*
X347821250Y-110410625D01*
X299942250Y-139620625D02*
X344900250Y-139620625D01*
X352393250Y-105838625D02*
X352393250Y-76882625D01*
X352393250Y-76882625D02*
X347821250Y-72310625D01*
X334803750Y-57388125D02*
X334803750Y-67865625D01*
D18*
%TO.N,Net-(K29-Pad1)*%
X318928750Y-82470625D02*
X320040000Y-84375625D01*
D16*
%TO.N,/row0*%
X288131250Y-71675625D02*
X278606250Y-62150625D01*
X283432250Y-117776625D02*
X283432250Y-110664625D01*
X283432250Y-110664625D02*
X292068250Y-102028625D01*
X288131250Y-79168625D02*
X288131250Y-71675625D01*
X206216250Y-62150625D02*
X198596250Y-62150625D01*
X292068250Y-83105625D02*
X288131250Y-79168625D01*
X292068250Y-102028625D02*
X292068250Y-83105625D01*
%TO.N,Net-(K57-Pad1)*%
X302577500Y-110410625D02*
X311626250Y-110410625D01*
%TD*%
%TA.AperFunction,Conductor*%
%TO.N,Net-(FB1-Pad1)*%
G36*
X205664372Y-46743627D02*
G01*
X205710865Y-46797283D01*
X205717147Y-46814128D01*
X205722725Y-46833124D01*
X205724115Y-46834329D01*
X205731798Y-46836000D01*
X206672250Y-46836000D01*
X206740371Y-46856002D01*
X206786864Y-46909658D01*
X206798250Y-46962000D01*
X206798250Y-47762417D01*
X206796504Y-47783322D01*
X206793179Y-47803085D01*
X206793026Y-47815624D01*
X206792217Y-47815614D01*
X206791807Y-47817444D01*
X206793283Y-47817417D01*
X206795422Y-47934529D01*
X206832623Y-48169411D01*
X206906110Y-48395582D01*
X206908356Y-48399989D01*
X206908358Y-48399995D01*
X206948303Y-48478391D01*
X207014073Y-48607472D01*
X207153855Y-48799864D01*
X207322011Y-48968020D01*
X207514403Y-49107802D01*
X207518820Y-49110052D01*
X207518819Y-49110052D01*
X207721880Y-49213517D01*
X207721886Y-49213519D01*
X207726293Y-49215765D01*
X207731002Y-49217295D01*
X207744187Y-49221579D01*
X207802793Y-49261653D01*
X207830429Y-49327050D01*
X207831250Y-49341412D01*
X207831250Y-50145399D01*
X207811248Y-50213520D01*
X207757592Y-50260013D01*
X207687318Y-50270117D01*
X207622738Y-50240623D01*
X207593998Y-50204552D01*
X207572888Y-50164849D01*
X207566106Y-50154640D01*
X207448940Y-50010981D01*
X207440296Y-50002277D01*
X207297462Y-49884114D01*
X207287291Y-49877254D01*
X207124219Y-49789082D01*
X207112920Y-49784332D01*
X206997557Y-49748620D01*
X206983455Y-49748414D01*
X206980250Y-49755170D01*
X206980250Y-51398000D01*
X206960248Y-51466121D01*
X206906592Y-51512614D01*
X206854250Y-51524000D01*
X206598250Y-51524000D01*
X206530129Y-51503998D01*
X206483636Y-51450342D01*
X206472250Y-51398000D01*
X206472250Y-49761948D01*
X206468277Y-49748417D01*
X206460482Y-49747297D01*
X206352693Y-49779021D01*
X206341309Y-49783620D01*
X206177028Y-49869504D01*
X206166767Y-49876218D01*
X206022291Y-49992380D01*
X206013530Y-50000959D01*
X205969202Y-50053787D01*
X205910093Y-50093113D01*
X205839105Y-50094239D01*
X205798620Y-50074731D01*
X205798263Y-50074471D01*
X205715296Y-50014192D01*
X205709268Y-50011508D01*
X205709266Y-50011507D01*
X205561265Y-49945613D01*
X205561264Y-49945613D01*
X205555234Y-49942928D01*
X205469544Y-49924714D01*
X205390311Y-49907872D01*
X205390307Y-49907872D01*
X205383854Y-49906500D01*
X205208646Y-49906500D01*
X205202193Y-49907872D01*
X205202189Y-49907872D01*
X205122956Y-49924714D01*
X205037266Y-49942928D01*
X205031237Y-49945613D01*
X205031235Y-49945613D01*
X204883235Y-50011507D01*
X204883233Y-50011508D01*
X204877205Y-50014192D01*
X204871864Y-50018072D01*
X204871863Y-50018073D01*
X204761399Y-50098330D01*
X204735458Y-50117177D01*
X204731045Y-50122079D01*
X204731043Y-50122080D01*
X204627118Y-50237500D01*
X204618220Y-50247382D01*
X204614920Y-50253098D01*
X204614917Y-50253102D01*
X204605094Y-50270117D01*
X204530616Y-50399118D01*
X204476473Y-50565751D01*
X204458159Y-50740000D01*
X204476473Y-50914249D01*
X204530616Y-51080882D01*
X204533919Y-51086603D01*
X204614917Y-51226898D01*
X204614920Y-51226902D01*
X204618220Y-51232618D01*
X204735458Y-51362823D01*
X204877204Y-51465808D01*
X204883232Y-51468492D01*
X204883234Y-51468493D01*
X205026067Y-51532086D01*
X205037266Y-51537072D01*
X205122956Y-51555286D01*
X205202189Y-51572128D01*
X205202193Y-51572128D01*
X205208646Y-51573500D01*
X205383854Y-51573500D01*
X205390307Y-51572128D01*
X205390311Y-51572128D01*
X205475093Y-51554107D01*
X205555234Y-51537072D01*
X205555610Y-51536905D01*
X205624285Y-51534944D01*
X205685082Y-51571608D01*
X205716405Y-51635321D01*
X205718250Y-51656804D01*
X205718250Y-51814625D01*
X205698248Y-51882746D01*
X205644592Y-51929239D01*
X205592250Y-51940625D01*
X199220250Y-51940625D01*
X199152129Y-51920623D01*
X199105636Y-51866967D01*
X199094250Y-51814625D01*
X199094250Y-51656804D01*
X199114252Y-51588683D01*
X199167908Y-51542190D01*
X199238182Y-51532086D01*
X199254690Y-51535925D01*
X199257266Y-51537072D01*
X199337407Y-51554107D01*
X199422189Y-51572128D01*
X199422193Y-51572128D01*
X199428646Y-51573500D01*
X199603854Y-51573500D01*
X199610307Y-51572128D01*
X199610311Y-51572128D01*
X199689544Y-51555286D01*
X199775234Y-51537072D01*
X199786433Y-51532086D01*
X199929266Y-51468493D01*
X199929268Y-51468492D01*
X199935296Y-51465808D01*
X200077042Y-51362823D01*
X200194280Y-51232618D01*
X200197580Y-51226902D01*
X200197583Y-51226898D01*
X200278581Y-51086603D01*
X200281884Y-51080882D01*
X200336027Y-50914249D01*
X200354341Y-50740000D01*
X200336027Y-50565751D01*
X200281884Y-50399118D01*
X200207406Y-50270117D01*
X200197583Y-50253102D01*
X200197580Y-50253098D01*
X200194280Y-50247382D01*
X200185382Y-50237500D01*
X200081457Y-50122080D01*
X200081455Y-50122079D01*
X200077042Y-50117177D01*
X199935296Y-50014192D01*
X199929268Y-50011508D01*
X199929266Y-50011507D01*
X199781265Y-49945613D01*
X199781264Y-49945613D01*
X199775234Y-49942928D01*
X199689544Y-49924714D01*
X199610311Y-49907872D01*
X199610307Y-49907872D01*
X199603854Y-49906500D01*
X199428646Y-49906500D01*
X199422193Y-49907872D01*
X199422189Y-49907872D01*
X199342956Y-49924714D01*
X199257266Y-49942928D01*
X199251237Y-49945613D01*
X199251235Y-49945613D01*
X199103235Y-50011507D01*
X199103233Y-50011508D01*
X199097205Y-50014192D01*
X199091864Y-50018072D01*
X199091863Y-50018073D01*
X199014238Y-50074471D01*
X198947370Y-50098330D01*
X198878219Y-50082249D01*
X198842535Y-50052172D01*
X198808941Y-50010983D01*
X198800296Y-50002277D01*
X198657462Y-49884114D01*
X198647291Y-49877254D01*
X198484219Y-49789082D01*
X198472920Y-49784332D01*
X198357557Y-49748620D01*
X198343455Y-49748414D01*
X198340250Y-49755170D01*
X198340250Y-51398000D01*
X198320248Y-51466121D01*
X198266592Y-51512614D01*
X198214250Y-51524000D01*
X197958250Y-51524000D01*
X197890129Y-51503998D01*
X197843636Y-51450342D01*
X197832250Y-51398000D01*
X197832250Y-49761948D01*
X197828277Y-49748417D01*
X197820482Y-49747297D01*
X197712693Y-49779021D01*
X197701309Y-49783620D01*
X197537028Y-49869504D01*
X197526767Y-49876218D01*
X197382291Y-49992380D01*
X197373531Y-50000958D01*
X197254369Y-50142970D01*
X197247443Y-50153084D01*
X197167665Y-50298201D01*
X197117319Y-50348259D01*
X197047903Y-50363153D01*
X196981453Y-50338152D01*
X196939069Y-50281195D01*
X196931250Y-50237500D01*
X196931250Y-49357658D01*
X196951252Y-49289537D01*
X197004908Y-49243044D01*
X197018313Y-49237825D01*
X197081498Y-49217295D01*
X197086207Y-49215765D01*
X197090614Y-49213519D01*
X197090620Y-49213517D01*
X197293681Y-49110052D01*
X197293680Y-49110052D01*
X197298097Y-49107802D01*
X197490489Y-48968020D01*
X197658645Y-48799864D01*
X197798427Y-48607472D01*
X197864197Y-48478391D01*
X197904142Y-48399995D01*
X197904144Y-48399989D01*
X197906390Y-48395582D01*
X197979877Y-48169411D01*
X198017078Y-47934529D01*
X198018958Y-47831566D01*
X198019058Y-47829726D01*
X198019321Y-47828163D01*
X198019387Y-47822720D01*
X198019415Y-47820483D01*
X198019415Y-47820479D01*
X198019474Y-47815624D01*
X198015523Y-47788036D01*
X198014250Y-47770173D01*
X198014250Y-47357548D01*
X198340250Y-47357548D01*
X198340250Y-48348052D01*
X198344223Y-48361583D01*
X198352018Y-48362703D01*
X198459807Y-48330979D01*
X198471191Y-48326380D01*
X198635472Y-48240496D01*
X198645733Y-48233782D01*
X198790209Y-48117620D01*
X198798969Y-48109042D01*
X198918131Y-47967030D01*
X198925057Y-47956916D01*
X199014368Y-47794458D01*
X199019196Y-47783194D01*
X199075252Y-47606484D01*
X199077800Y-47594497D01*
X199093857Y-47451339D01*
X199094250Y-47444315D01*
X199094250Y-47362115D01*
X199092909Y-47357548D01*
X205718250Y-47357548D01*
X205718250Y-47437912D01*
X205718551Y-47444060D01*
X205731941Y-47580626D01*
X205734324Y-47592661D01*
X205787904Y-47770124D01*
X205792579Y-47781466D01*
X205879607Y-47945144D01*
X205886394Y-47955360D01*
X206003560Y-48099019D01*
X206012204Y-48107723D01*
X206155038Y-48225886D01*
X206165209Y-48232746D01*
X206328281Y-48320918D01*
X206339580Y-48325668D01*
X206454943Y-48361380D01*
X206469045Y-48361586D01*
X206472250Y-48354830D01*
X206472250Y-47362115D01*
X206467775Y-47346876D01*
X206466385Y-47345671D01*
X206458702Y-47344000D01*
X205736365Y-47344000D01*
X205721126Y-47348475D01*
X205719921Y-47349865D01*
X205718250Y-47357548D01*
X199092909Y-47357548D01*
X199089775Y-47346876D01*
X199088385Y-47345671D01*
X199080702Y-47344000D01*
X198358365Y-47344000D01*
X198343126Y-47348475D01*
X198341921Y-47349865D01*
X198340250Y-47357548D01*
X198014250Y-47357548D01*
X198014250Y-46962000D01*
X198034252Y-46893879D01*
X198087908Y-46847386D01*
X198140250Y-46836000D01*
X199076135Y-46836000D01*
X199091374Y-46831525D01*
X199092579Y-46830135D01*
X199094165Y-46822843D01*
X199128190Y-46760530D01*
X199190502Y-46726505D01*
X199217286Y-46723625D01*
X205596251Y-46723625D01*
X205664372Y-46743627D01*
G37*
%TD.AperFunction*%
%TD*%
%TA.AperFunction,Conductor*%
%TO.N,Earth*%
G36*
X197348345Y-52518627D02*
G01*
X197366256Y-52533113D01*
X197367100Y-52534147D01*
X197433546Y-52589116D01*
X197514759Y-52656302D01*
X197514764Y-52656305D01*
X197519508Y-52660230D01*
X197524927Y-52663160D01*
X197524930Y-52663162D01*
X197688085Y-52751379D01*
X197688089Y-52751381D01*
X197693503Y-52754308D01*
X197699383Y-52756128D01*
X197699385Y-52756129D01*
X197718461Y-52762034D01*
X197882458Y-52812800D01*
X197888576Y-52813443D01*
X197888581Y-52813444D01*
X198073045Y-52832831D01*
X198073047Y-52832831D01*
X198079174Y-52833475D01*
X198162024Y-52825935D01*
X198270022Y-52816107D01*
X198270025Y-52816106D01*
X198276161Y-52815548D01*
X198282067Y-52813810D01*
X198282071Y-52813809D01*
X198460005Y-52761440D01*
X198460004Y-52761440D01*
X198465914Y-52759701D01*
X198641205Y-52668061D01*
X198795359Y-52544118D01*
X198799319Y-52539399D01*
X198803723Y-52535086D01*
X198805654Y-52537058D01*
X198854857Y-52504313D01*
X198892287Y-52498625D01*
X205920224Y-52498625D01*
X205988345Y-52518627D01*
X206006256Y-52533113D01*
X206007100Y-52534147D01*
X206073546Y-52589116D01*
X206154759Y-52656302D01*
X206154764Y-52656305D01*
X206159508Y-52660230D01*
X206164927Y-52663160D01*
X206164930Y-52663162D01*
X206328085Y-52751379D01*
X206328089Y-52751381D01*
X206333503Y-52754308D01*
X206339383Y-52756128D01*
X206339385Y-52756129D01*
X206358461Y-52762034D01*
X206522458Y-52812800D01*
X206528576Y-52813443D01*
X206528581Y-52813444D01*
X206713045Y-52832831D01*
X206713047Y-52832831D01*
X206719174Y-52833475D01*
X206802024Y-52825935D01*
X206910022Y-52816107D01*
X206910025Y-52816106D01*
X206916161Y-52815548D01*
X206922067Y-52813810D01*
X206922071Y-52813809D01*
X207100005Y-52761440D01*
X207100004Y-52761440D01*
X207105914Y-52759701D01*
X207281205Y-52668061D01*
X207435359Y-52544118D01*
X207439319Y-52539399D01*
X207443723Y-52535086D01*
X207445654Y-52537058D01*
X207494857Y-52504313D01*
X207532287Y-52498625D01*
X207705250Y-52498625D01*
X207773371Y-52518627D01*
X207819864Y-52572283D01*
X207831250Y-52624625D01*
X207831250Y-54116711D01*
X207811248Y-54184832D01*
X207757592Y-54231325D01*
X207734664Y-54239230D01*
X207685573Y-54251016D01*
X207622659Y-54266120D01*
X207618088Y-54268013D01*
X207618086Y-54268014D01*
X207393322Y-54361114D01*
X207393318Y-54361116D01*
X207388748Y-54363009D01*
X207172874Y-54495297D01*
X206980352Y-54659727D01*
X206815922Y-54852249D01*
X206683634Y-55068123D01*
X206586745Y-55302034D01*
X206527641Y-55548222D01*
X206507776Y-55800625D01*
X206527641Y-56053028D01*
X206586745Y-56299216D01*
X206683634Y-56533127D01*
X206815922Y-56749001D01*
X206819129Y-56752756D01*
X206819132Y-56752760D01*
X206837357Y-56774098D01*
X206866388Y-56838888D01*
X206855783Y-56909088D01*
X206808909Y-56962410D01*
X206756004Y-56979765D01*
X206756161Y-56980790D01*
X206535341Y-57014580D01*
X206323006Y-57083982D01*
X206124857Y-57187132D01*
X206120724Y-57190235D01*
X206120721Y-57190237D01*
X206056786Y-57238241D01*
X205946215Y-57321260D01*
X205791879Y-57482763D01*
X205788965Y-57487035D01*
X205788964Y-57487036D01*
X205780783Y-57499029D01*
X205665993Y-57667305D01*
X205571938Y-57869930D01*
X205512239Y-58085195D01*
X205488501Y-58307320D01*
X205488798Y-58312473D01*
X205488798Y-58312476D01*
X205494261Y-58407215D01*
X205501360Y-58530340D01*
X205502497Y-58535386D01*
X205502498Y-58535392D01*
X205522369Y-58623564D01*
X205550472Y-58748264D01*
X205634516Y-58955241D01*
X205637215Y-58959645D01*
X205751237Y-59145713D01*
X205749681Y-59146667D01*
X205771074Y-59205961D01*
X205755239Y-59275169D01*
X205704500Y-59324830D01*
X205644360Y-59339596D01*
X203331342Y-59322205D01*
X199249547Y-59291514D01*
X199181578Y-59271001D01*
X199135490Y-59216997D01*
X199124688Y-59172507D01*
X199120551Y-59098038D01*
X199133400Y-59035222D01*
X199226386Y-58847078D01*
X199226387Y-58847076D01*
X199228680Y-58842436D01*
X199293620Y-58628694D01*
X199322779Y-58407215D01*
X199324406Y-58340625D01*
X199306102Y-58117986D01*
X199251681Y-57901327D01*
X199162604Y-57696465D01*
X199041264Y-57508902D01*
X199037782Y-57505076D01*
X199037349Y-57504513D01*
X199034363Y-57499029D01*
X199031574Y-57496454D01*
X199031250Y-57490625D01*
X199024349Y-57489783D01*
X199021340Y-57487005D01*
X198894401Y-57347501D01*
X198894398Y-57347498D01*
X198890920Y-57343676D01*
X198886869Y-57340477D01*
X198886865Y-57340473D01*
X198719664Y-57208425D01*
X198719660Y-57208423D01*
X198715609Y-57205223D01*
X198520039Y-57097263D01*
X198515170Y-57095539D01*
X198515166Y-57095537D01*
X198314337Y-57024420D01*
X198314333Y-57024419D01*
X198309462Y-57022694D01*
X198304369Y-57021787D01*
X198304366Y-57021786D01*
X198094623Y-56984425D01*
X198094617Y-56984424D01*
X198089534Y-56983519D01*
X198015702Y-56982617D01*
X197871331Y-56980853D01*
X197871329Y-56980853D01*
X197866161Y-56980790D01*
X197645341Y-57014580D01*
X197433006Y-57083982D01*
X197234857Y-57187132D01*
X197230724Y-57190235D01*
X197230721Y-57190237D01*
X197182903Y-57226140D01*
X197116418Y-57251046D01*
X197047022Y-57236054D01*
X196996749Y-57185923D01*
X196981250Y-57125380D01*
X196981250Y-53667935D01*
X196984731Y-53638521D01*
X197013704Y-53517841D01*
X197013705Y-53517835D01*
X197014859Y-53513028D01*
X197034724Y-53260625D01*
X197014859Y-53008222D01*
X196984731Y-52882729D01*
X196981250Y-52853315D01*
X196981250Y-52624625D01*
X197001252Y-52556504D01*
X197054908Y-52510011D01*
X197107250Y-52498625D01*
X197280224Y-52498625D01*
X197348345Y-52518627D01*
G37*
%TD.AperFunction*%
%TD*%
%TA.AperFunction,Conductor*%
%TO.N,Earth*%
G36*
X280449566Y-123130627D02*
G01*
X280470540Y-123147530D01*
X294736884Y-137413874D01*
X294742738Y-137420140D01*
X294779124Y-137461850D01*
X294785338Y-137466217D01*
X294829453Y-137497222D01*
X294834748Y-137501155D01*
X294883158Y-137539113D01*
X294890077Y-137542237D01*
X294894353Y-137544827D01*
X294903840Y-137550238D01*
X294908257Y-137552606D01*
X294914469Y-137556972D01*
X294962259Y-137575605D01*
X294971781Y-137579317D01*
X294977862Y-137581873D01*
X295033930Y-137607189D01*
X295041398Y-137608573D01*
X295046242Y-137610091D01*
X295056628Y-137613050D01*
X295061524Y-137614307D01*
X295068597Y-137617065D01*
X295076127Y-137618056D01*
X295076130Y-137618057D01*
X295129595Y-137625095D01*
X295136112Y-137626127D01*
X295176945Y-137633695D01*
X295196589Y-137637336D01*
X295204169Y-137636899D01*
X295204170Y-137636899D01*
X295256109Y-137633904D01*
X295263362Y-137633695D01*
X295586565Y-137633695D01*
X295654686Y-137653697D01*
X295701179Y-137707353D01*
X295711283Y-137777627D01*
X295681789Y-137842207D01*
X295674663Y-137849776D01*
X293165855Y-140302833D01*
X293146896Y-140318083D01*
X293098748Y-140349671D01*
X293097358Y-140350583D01*
X293052476Y-140368879D01*
X293017572Y-140375719D01*
X292994338Y-140380273D01*
X292970105Y-140382625D01*
X288755213Y-140382625D01*
X288730632Y-140380204D01*
X288725504Y-140379184D01*
X288671714Y-140368484D01*
X288626294Y-140349671D01*
X288576343Y-140316295D01*
X288557250Y-140300625D01*
X282094183Y-133837558D01*
X282060157Y-133775246D01*
X282057968Y-133761633D01*
X282040482Y-133595260D01*
X282040482Y-133595258D01*
X282039792Y-133588697D01*
X281980777Y-133407069D01*
X281885290Y-133241681D01*
X281795108Y-133141523D01*
X281761925Y-133104670D01*
X281761924Y-133104669D01*
X281757503Y-133099759D01*
X281603002Y-132987507D01*
X281596974Y-132984823D01*
X281596972Y-132984822D01*
X281434569Y-132912516D01*
X281434568Y-132912516D01*
X281428538Y-132909831D01*
X281310763Y-132884797D01*
X281248193Y-132871497D01*
X281248190Y-132871497D01*
X281241737Y-132870125D01*
X281241804Y-132869808D01*
X281179469Y-132844163D01*
X281169200Y-132834960D01*
X280150123Y-131815883D01*
X280116097Y-131753571D01*
X280115639Y-131702207D01*
X280120944Y-131675536D01*
X280139758Y-131630115D01*
X280173134Y-131580164D01*
X280188804Y-131561071D01*
X282289250Y-129460625D01*
X279577250Y-126748625D01*
X279561580Y-126729532D01*
X279528204Y-126679581D01*
X279509390Y-126634160D01*
X279497671Y-126575243D01*
X279495250Y-126550662D01*
X279495250Y-124888625D01*
X277193250Y-124888625D01*
X277125129Y-124868623D01*
X277078636Y-124814967D01*
X277067250Y-124762625D01*
X277067250Y-123236625D01*
X277087252Y-123168504D01*
X277140908Y-123122011D01*
X277193250Y-123110625D01*
X280381445Y-123110625D01*
X280449566Y-123130627D01*
G37*
%TD.AperFunction*%
%TA.AperFunction,Conductor*%
G36*
X294496692Y-116768915D02*
G01*
X294577192Y-116799655D01*
X294582260Y-116800686D01*
X294582263Y-116800687D01*
X294689517Y-116822508D01*
X294796097Y-116844192D01*
X294801272Y-116844382D01*
X294801274Y-116844382D01*
X295014173Y-116852189D01*
X295014177Y-116852189D01*
X295019337Y-116852378D01*
X295024457Y-116851722D01*
X295024459Y-116851722D01*
X295235788Y-116824650D01*
X295235789Y-116824650D01*
X295240916Y-116823993D01*
X295245866Y-116822508D01*
X295434419Y-116765939D01*
X295470627Y-116760625D01*
X297803195Y-116760625D01*
X297871316Y-116780627D01*
X297909580Y-116819111D01*
X297993722Y-116951697D01*
X298004068Y-116968000D01*
X298205267Y-117211207D01*
X298208157Y-117213921D01*
X298208158Y-117213922D01*
X298230473Y-117234877D01*
X298435360Y-117427279D01*
X298690721Y-117612809D01*
X298967321Y-117764872D01*
X298970990Y-117766325D01*
X298970995Y-117766327D01*
X299257128Y-117879615D01*
X299260798Y-117881068D01*
X299566525Y-117959565D01*
X299879679Y-117999125D01*
X300195321Y-117999125D01*
X300508475Y-117959565D01*
X300814202Y-117881068D01*
X300817872Y-117879615D01*
X301104005Y-117766327D01*
X301104010Y-117766325D01*
X301107679Y-117764872D01*
X301384279Y-117612809D01*
X301639640Y-117427279D01*
X301844527Y-117234877D01*
X301866842Y-117213922D01*
X301866843Y-117213921D01*
X301869733Y-117211207D01*
X302070932Y-116968000D01*
X302081279Y-116951697D01*
X302165420Y-116819111D01*
X302218809Y-116772312D01*
X302271805Y-116760625D01*
X302561750Y-116760625D01*
X302629871Y-116780627D01*
X302676364Y-116834283D01*
X302687750Y-116886625D01*
X302687750Y-127556625D01*
X302667748Y-127624746D01*
X302614092Y-127671239D01*
X302561750Y-127682625D01*
X298799250Y-127682625D01*
X298799250Y-133477125D01*
X298779248Y-133545246D01*
X298725592Y-133591739D01*
X298673250Y-133603125D01*
X295705555Y-133603125D01*
X295637434Y-133583123D01*
X295616460Y-133566220D01*
X285325513Y-123275273D01*
X285291487Y-123212961D01*
X285296552Y-123142146D01*
X285321492Y-123110625D01*
X285337250Y-123110625D01*
X286140845Y-122307030D01*
X286203157Y-122273004D01*
X286229940Y-122270125D01*
X286579498Y-122270125D01*
X286588067Y-122270417D01*
X286635707Y-122273665D01*
X286635711Y-122273665D01*
X286643283Y-122274181D01*
X286650760Y-122272876D01*
X286650762Y-122272876D01*
X286688380Y-122266310D01*
X286703890Y-122263603D01*
X286710408Y-122262642D01*
X286771480Y-122255251D01*
X286778584Y-122252567D01*
X286783477Y-122251365D01*
X286793944Y-122248501D01*
X286798769Y-122247044D01*
X286806248Y-122245739D01*
X286813201Y-122242687D01*
X286813204Y-122242686D01*
X286862580Y-122221013D01*
X286868683Y-122218522D01*
X286919119Y-122199463D01*
X286919121Y-122199462D01*
X286926229Y-122196776D01*
X286932494Y-122192470D01*
X286936987Y-122190121D01*
X286946420Y-122184871D01*
X286950766Y-122182301D01*
X286957725Y-122179246D01*
X286964817Y-122173804D01*
X287006535Y-122141794D01*
X287011870Y-122137918D01*
X287056298Y-122107383D01*
X287056304Y-122107378D01*
X287062563Y-122103076D01*
X287102229Y-122058556D01*
X287107209Y-122053281D01*
X288594929Y-120565561D01*
X288601195Y-120559707D01*
X288637178Y-120528317D01*
X288642905Y-120523321D01*
X288678272Y-120472998D01*
X288682198Y-120467713D01*
X288715479Y-120425268D01*
X288715481Y-120425264D01*
X288720168Y-120419287D01*
X288723294Y-120412364D01*
X288725894Y-120408071D01*
X288731293Y-120398605D01*
X288733661Y-120394188D01*
X288738027Y-120387976D01*
X288760372Y-120330664D01*
X288762928Y-120324583D01*
X288765509Y-120318866D01*
X288788244Y-120268515D01*
X288789628Y-120261047D01*
X288791146Y-120256203D01*
X288794105Y-120245817D01*
X288795362Y-120240921D01*
X288798120Y-120233848D01*
X288802699Y-120199069D01*
X288806150Y-120172850D01*
X288807182Y-120166333D01*
X288817007Y-120113323D01*
X288818391Y-120105856D01*
X288814959Y-120046335D01*
X288814750Y-120039083D01*
X288814750Y-119685315D01*
X288834752Y-119617194D01*
X288851655Y-119596220D01*
X290374600Y-118073275D01*
X290437498Y-118039123D01*
X290475235Y-118031101D01*
X290572538Y-118010419D01*
X290597905Y-117999125D01*
X290740972Y-117935428D01*
X290740974Y-117935427D01*
X290747002Y-117932743D01*
X290759269Y-117923831D01*
X290820126Y-117879615D01*
X290901503Y-117820491D01*
X290946573Y-117770436D01*
X291024871Y-117683477D01*
X291024872Y-117683476D01*
X291029290Y-117678569D01*
X291099655Y-117556694D01*
X291121473Y-117518904D01*
X291121474Y-117518903D01*
X291124777Y-117513181D01*
X291183792Y-117331553D01*
X291187052Y-117300533D01*
X291214064Y-117234877D01*
X291223267Y-117224608D01*
X291605250Y-116842625D01*
X291624343Y-116826955D01*
X291630999Y-116822508D01*
X291674294Y-116793579D01*
X291719714Y-116774766D01*
X291778632Y-116763046D01*
X291803213Y-116760625D01*
X294451743Y-116760625D01*
X294496692Y-116768915D01*
G37*
%TD.AperFunction*%
%TD*%
M02*
