M48
; DRILL file {KiCad (5.99.0-11177-g6c67dfa032)} date Thursday, September 16, 2021 at 12:44:02 AM
; FORMAT={-:-/ absolute / inch / decimal}
; #@! TF.CreationDate,2021-09-16T00:44:02+03:00
; #@! TF.GenerationSoftware,Kicad,Pcbnew,(5.99.0-11177-g6c67dfa032)
; #@! TF.FileFunction,Plated,1,2,PTH
FMAT,2
INCH
; #@! TA.AperFunction,Plated,PTH,ViaDrill
T1C0.0157
; #@! TA.AperFunction,Plated,PTH,ComponentDrill
T2C0.0236
; #@! TA.AperFunction,Plated,PTH,ComponentDrill
T3C0.0394
; #@! TA.AperFunction,Plated,PTH,ComponentDrill
T4C0.0591
%
G90
G05
T1
X2.4038Y-3.2669
X3.5688Y-3.2319
X4.2387Y-4.0869
X5.175Y-4.0531
X5.7837Y-4.0169
X6.7437Y-3.9819
X7.776Y-2.174
X7.8187Y-2.4469
X7.9324Y-2.3189
X8.0967Y-2.174
X8.1188Y-2.4469
X8.1937Y-3.1969
X8.1937Y-3.2669
X8.2487Y-3.2319
X8.3812Y-3.9469
X8.3837Y-4.0169
X8.3837Y-4.0869
X8.4337Y-3.9819
X8.4337Y-4.0519
X8.4337Y-4.1219
X8.4388Y-3.2319
X8.4938Y-3.1969
X8.4938Y-3.2669
X8.6251Y-4.1205
X8.6288Y-3.9819
X8.6288Y-4.0519
X8.6787Y-4.0169
X8.6787Y-4.0869
X8.6813Y-3.9469
X9.6937Y-4.7719
X9.8438Y-4.6219
X10.3537Y-4.1719
X10.3883Y-4.1469
X10.4183Y-4.1169
X10.4488Y-4.0919
X10.7837Y-4.7119
X10.7837Y-4.7819
X10.8138Y-4.6769
X10.8138Y-4.7469
X10.9387Y-4.6769
X10.9387Y-4.7469
X10.9688Y-2.4469
X10.9688Y-4.7119
X10.9688Y-4.7819
X10.9737Y-4.8769
X11.0687Y-5.2669
X11.0687Y-5.3119
X11.0687Y-5.3569
X11.0687Y-5.4019
X11.0687Y-5.4469
X11.0687Y-5.4909
X11.1137Y-5.0569
X11.1237Y-4.7176
X11.1587Y-4.6369
X11.2538Y-5.0969
X11.2937Y-4.7169
X11.3837Y-5.2269
X11.4038Y-4.9769
X11.4287Y-4.6119
X11.4337Y-4.7069
X11.4337Y-4.8469
X11.4337Y-5.3669
X11.5137Y-4.9092
X11.5237Y-3.1969
X11.5237Y-5.0969
X11.5537Y-3.9469
X11.5838Y-3.9844
X11.6137Y-3.9119
X11.6437Y-4.1869
X11.6638Y-3.9119
X11.6687Y-4.6819
X11.6687Y-4.7519
X11.6738Y-4.8819
X11.7037Y-4.1869
X11.7404Y-5.0518
X11.7833Y-5.4619
X11.7834Y-5.3917
X11.7835Y-5.3219
X11.8087Y-5.2869
X11.8087Y-5.4269
X11.8087Y-5.4969
X11.8089Y-5.3571
X11.8737Y-4.6569
X11.8737Y-4.7219
X11.8737Y-4.7819
X11.8737Y-4.8419
X11.8737Y-4.9069
X12.2687Y-4.3469
T3
X2.3867Y-3.9969
X2.4867Y-3.9969
X2.5742Y-3.9969
X2.6742Y-3.9969
X11.2438Y-4.4169
X11.2438Y-4.5169
X11.2438Y-4.6169
X11.3438Y-4.4169
X11.3438Y-4.5169
X11.3438Y-4.6169
T4
X2.1938Y-2.1969
X2.2875Y-3.6969
X2.2875Y-4.4469
X2.3813Y-2.9469
X2.3813Y-5.1969
X2.4438Y-2.0969
X2.475Y-3.6969
X2.5375Y-3.5969
X2.5375Y-4.3469
X2.6313Y-2.8469
X2.6313Y-5.0969
X2.6625Y-4.4469
X2.725Y-3.5969
X2.9125Y-4.3469
X2.9438Y-2.1969
X3.1313Y-4.4469
X3.1938Y-2.0969
X3.3188Y-2.9469
X3.3188Y-5.1969
X3.3813Y-4.3469
X3.5063Y-3.6969
X3.5688Y-2.8469
X3.5688Y-5.0969
X3.6938Y-2.1969
X3.7563Y-3.5969
X3.8813Y-4.4469
X3.9438Y-2.0969
X4.0687Y-2.9469
X4.1312Y-4.3469
X4.2562Y-3.6969
X4.2562Y-5.1969
X4.3187Y-2.8469
X4.4437Y-2.1969
X4.5062Y-3.5969
X4.5062Y-5.0969
X4.6312Y-4.4469
X4.6937Y-2.0969
X4.8187Y-2.9469
X4.8812Y-4.3469
X5.0062Y-3.6969
X5.0687Y-2.8469
X5.1937Y-2.1969
X5.1937Y-5.1969
X5.2562Y-3.5969
X5.3812Y-4.4469
X5.4437Y-2.0969
X5.4437Y-5.0969
X5.5687Y-2.9469
X5.6312Y-4.3469
X5.7562Y-3.6969
X5.8187Y-2.8469
X5.9437Y-2.1969
X6.0062Y-3.5969
X6.1312Y-4.4469
X6.1937Y-2.0969
X6.3187Y-2.9469
X6.3812Y-4.3469
X6.4125Y-5.1969
X6.5062Y-3.6969
X6.5687Y-2.8469
X6.6625Y-5.0969
X6.6937Y-2.1969
X6.7562Y-3.5969
X6.8812Y-4.4469
X6.9437Y-2.0969
X7.0687Y-2.9469
X7.1312Y-4.3469
X7.2562Y-3.6969
X7.3187Y-2.8469
X7.4437Y-2.1969
X7.4437Y-5.1969
X7.5062Y-3.5969
X7.6312Y-4.4469
X7.6937Y-2.0969
X7.6937Y-5.0969
X7.8187Y-2.9469
X7.8812Y-4.3469
X8.0062Y-3.6969
X8.0687Y-2.8469
X8.1937Y-2.1969
X8.2562Y-3.5969
X8.2875Y-5.1969
X8.3812Y-4.4469
X8.4437Y-2.0969
X8.5375Y-5.0969
X8.5687Y-2.9469
X8.6312Y-4.3469
X8.7562Y-3.6969
X8.8187Y-2.8469
X8.9437Y-2.1969
X9.0062Y-3.5969
X9.1312Y-4.4469
X9.1937Y-2.0969
X9.3187Y-2.9469
X9.3812Y-4.3469
X9.5062Y-3.6969
X9.5687Y-2.8469
X9.6937Y-2.1969
X9.6937Y-5.1969
X9.7562Y-3.5969
X9.8812Y-4.4469
X9.9437Y-2.0969
X9.9437Y-5.0969
X10.0687Y-2.9469
X10.1312Y-4.3469
X10.2562Y-3.6969
X10.3187Y-2.8469
X10.4437Y-2.1969
X10.5062Y-3.5969
X10.6312Y-4.4469
X10.6312Y-5.1969
X10.6937Y-2.0969
X10.8187Y-2.9469
X10.8812Y-4.3469
X10.8812Y-5.0969
X11.0062Y-3.6969
X11.0687Y-2.8469
X11.1937Y-2.1969
X11.2562Y-3.5969
X11.4437Y-2.0969
X11.5687Y-2.9469
X11.6625Y-4.4469
X11.7562Y-3.6969
X11.8187Y-2.8469
X11.9125Y-4.3469
X11.9437Y-2.1969
X11.9437Y-5.1969
X12.0062Y-3.5969
X12.1937Y-2.0969
X12.1937Y-5.0969
X12.225Y-3.6969
X12.3187Y-2.1969
X12.475Y-3.5969
X12.5563Y-3.2469
X12.5687Y-2.0969
X12.6Y-3.3219
X12.6937Y-2.1969
X12.6937Y-4.4469
X12.6937Y-5.1969
X12.8063Y-3.1469
X12.85Y-3.2219
X12.9437Y-2.0969
X12.9437Y-4.3469
X12.9437Y-5.0969
X13.4437Y-2.9469
X13.4437Y-3.6969
X13.4437Y-4.4469
X13.4437Y-5.1969
X13.6937Y-2.8469
X13.6937Y-3.5969
X13.6937Y-4.3469
X13.6937Y-5.0969
T2
G00X7.7987Y-1.8421
M15
G01X7.7987Y-1.8657
M16
G05
G00X7.7987Y-1.9969
M15
G01X7.7987Y-2.0402
M16
G05
G00X8.1388Y-1.8421
M15
G01X8.1388Y-1.8657
M16
G05
G00X8.1388Y-1.9969
M15
G01X8.1388Y-2.0402
M16
G05
T0
M30
