M48
; DRILL file {KiCad (5.99.0-11177-g6c67dfa032)} date Thursday, September 16, 2021 at 12:44:02 AM
; FORMAT={-:-/ absolute / inch / decimal}
; #@! TF.CreationDate,2021-09-16T00:44:02+03:00
; #@! TF.GenerationSoftware,Kicad,Pcbnew,(5.99.0-11177-g6c67dfa032)
; #@! TF.FileFunction,NonPlated,1,2,NPTH
FMAT,2
INCH
; #@! TA.AperFunction,NonPlated,NPTH,ComponentDrill
T1C0.0256
; #@! TA.AperFunction,NonPlated,NPTH,ComponentDrill
T2C0.0669
; #@! TA.AperFunction,NonPlated,NPTH,ComponentDrill
T3C0.1200
; #@! TA.AperFunction,NonPlated,NPTH,ComponentDrill
T4C0.1201
; #@! TA.AperFunction,NonPlated,NPTH,ComponentDrill
T5C0.1570
; #@! TA.AperFunction,NonPlated,NPTH,ComponentDrill
T6C0.1575
%
G90
G05
T1
X7.855Y-1.9976
X8.0825Y-1.9976
T2
X2.1437Y-2.2969
X2.2375Y-3.7969
X2.2375Y-4.5469
X2.3312Y-3.0469
X2.3312Y-5.2969
X2.425Y-3.7969
X2.5437Y-2.2969
X2.6125Y-4.5469
X2.6375Y-3.7969
X2.6375Y-4.5469
X2.7312Y-3.0469
X2.7312Y-5.2969
X2.825Y-3.7969
X2.8937Y-2.2969
X3.0125Y-4.5469
X3.0812Y-4.5469
X3.2687Y-3.0469
X3.2687Y-5.2969
X3.2937Y-2.2969
X3.4562Y-3.7969
X3.4812Y-4.5469
X3.6437Y-2.2969
X3.6687Y-3.0469
X3.6687Y-5.2969
X3.8312Y-4.5469
X3.8562Y-3.7969
X4.0187Y-3.0469
X4.0438Y-2.2969
X4.2062Y-3.7969
X4.2062Y-5.2969
X4.2313Y-4.5469
X4.3937Y-2.2969
X4.4188Y-3.0469
X4.5812Y-4.5469
X4.6063Y-3.7969
X4.6063Y-5.2969
X4.7687Y-3.0469
X4.7938Y-2.2969
X4.9562Y-3.7969
X4.9813Y-4.5469
X5.1437Y-2.2969
X5.1437Y-5.2969
X5.1688Y-3.0469
X5.3312Y-4.5469
X5.3563Y-3.7969
X5.5187Y-3.0469
X5.5438Y-2.2969
X5.5438Y-5.2969
X5.7062Y-3.7969
X5.7313Y-4.5469
X5.8937Y-2.2969
X5.9188Y-3.0469
X6.0812Y-4.5469
X6.1063Y-3.7969
X6.2687Y-3.0469
X6.2938Y-2.2969
X6.3625Y-5.2969
X6.4562Y-3.7969
X6.4813Y-4.5469
X6.6437Y-2.2969
X6.6688Y-3.0469
X6.7625Y-5.2969
X6.8312Y-4.5469
X6.8563Y-3.7969
X7.0187Y-3.0469
X7.0438Y-2.2969
X7.2062Y-3.7969
X7.2313Y-4.5469
X7.3937Y-2.2969
X7.3937Y-5.2969
X7.4188Y-3.0469
X7.5812Y-4.5469
X7.6063Y-3.7969
X7.7687Y-3.0469
X7.7938Y-2.2969
X7.7938Y-5.2969
X7.9562Y-3.7969
X7.9813Y-4.5469
X8.1437Y-2.2969
X8.1687Y-3.0469
X8.2375Y-5.2969
X8.3312Y-4.5469
X8.3562Y-3.7969
X8.5187Y-3.0469
X8.5437Y-2.2969
X8.6375Y-5.2969
X8.7062Y-3.7969
X8.7312Y-4.5469
X8.8937Y-2.2969
X8.9187Y-3.0469
X9.0812Y-4.5469
X9.1062Y-3.7969
X9.2687Y-3.0469
X9.2937Y-2.2969
X9.4562Y-3.7969
X9.4812Y-4.5469
X9.6437Y-2.2969
X9.6437Y-5.2969
X9.6687Y-3.0469
X9.8312Y-4.5469
X9.8562Y-3.7969
X10.0187Y-3.0469
X10.0437Y-2.2969
X10.0437Y-5.2969
X10.2062Y-3.7969
X10.2312Y-4.5469
X10.3937Y-2.2969
X10.4187Y-3.0469
X10.5812Y-4.5469
X10.5812Y-5.2969
X10.6062Y-3.7969
X10.7687Y-3.0469
X10.7937Y-2.2969
X10.9562Y-3.7969
X10.9812Y-4.5469
X10.9812Y-5.2969
X11.1437Y-2.2969
X11.1687Y-3.0469
X11.3562Y-3.7969
X11.5187Y-3.0469
X11.5437Y-2.2969
X11.6125Y-4.5469
X11.7062Y-3.7969
X11.8937Y-2.2969
X11.8937Y-5.2969
X11.9187Y-3.0469
X12.0125Y-4.5469
X12.1062Y-3.7969
X12.175Y-3.7969
X12.2687Y-2.2969
X12.2937Y-2.2969
X12.2937Y-5.2969
X12.4562Y-3.0469
X12.55Y-3.4219
X12.575Y-3.7969
X12.6437Y-2.2969
X12.6437Y-4.5469
X12.6437Y-5.2969
X12.6687Y-2.2969
X12.8562Y-3.0469
X12.95Y-3.4219
X13.0437Y-2.2969
X13.0437Y-4.5469
X13.0437Y-5.2969
X13.3937Y-3.0469
X13.3937Y-3.7969
X13.3937Y-4.5469
X13.3937Y-5.2969
X13.7937Y-3.0469
X13.7937Y-3.7969
X13.7937Y-4.5469
X13.7937Y-5.2969
T3
X6.0925Y-5.5719
X7.0325Y-5.5719
X7.9675Y-5.5719
X8.9075Y-5.5719
X11.905Y-3.5219
X12.845Y-3.5219
T4
X2.344Y-4.2713
X3.281Y-4.2713
X5.3438Y-5.5725
X9.8438Y-5.5725
X12.0002Y-2.0213
X12.9373Y-2.0213
X13.0256Y-2.9534
X13.0256Y-3.8904
T5
X6.0925Y-4.9719
X7.0325Y-4.9719
X7.9675Y-4.9719
X8.9075Y-4.9719
X11.905Y-4.1219
X12.845Y-4.1219
T6
X2.3438Y-2.2969
X2.344Y-4.8713
X2.4375Y-3.7969
X2.4375Y-4.5469
X2.5312Y-3.0469
X2.5312Y-5.2969
X2.625Y-3.7969
X2.8125Y-4.5469
X3.0938Y-2.2969
X3.281Y-4.8713
X3.2812Y-4.5469
X3.4688Y-3.0469
X3.4688Y-5.2969
X3.6562Y-3.7969
X3.8438Y-2.2969
X4.0312Y-4.5469
X4.2188Y-3.0469
X4.4062Y-3.7969
X4.4062Y-5.2969
X4.5938Y-2.2969
X4.7812Y-4.5469
X4.9688Y-3.0469
X5.1562Y-3.7969
X5.3438Y-2.2969
X5.3438Y-4.9725
X5.3438Y-5.2969
X5.5312Y-4.5469
X5.7188Y-3.0469
X5.9062Y-3.7969
X6.0938Y-2.2969
X6.2812Y-4.5469
X6.4688Y-3.0469
X6.5625Y-5.2969
X6.6562Y-3.7969
X6.8438Y-2.2969
X7.0312Y-4.5469
X7.2188Y-3.0469
X7.4062Y-3.7969
X7.5938Y-2.2969
X7.5938Y-5.2969
X7.7812Y-4.5469
X7.9688Y-3.0469
X8.1562Y-3.7969
X8.3438Y-2.2969
X8.4375Y-5.2969
X8.5312Y-4.5469
X8.7188Y-3.0469
X8.9062Y-3.7969
X9.0938Y-2.2969
X9.2812Y-4.5469
X9.4688Y-3.0469
X9.6562Y-3.7969
X9.8438Y-2.2969
X9.8438Y-4.9725
X9.8438Y-5.2969
X10.0312Y-4.5469
X10.2188Y-3.0469
X10.4062Y-3.7969
X10.5938Y-2.2969
X10.7812Y-4.5469
X10.7812Y-5.2969
X10.9688Y-3.0469
X11.1562Y-3.7969
X11.3438Y-2.2969
X11.7188Y-3.0469
X11.8125Y-4.5469
X11.9062Y-3.7969
X12.0002Y-2.6213
X12.0938Y-2.2969
X12.0938Y-5.2969
X12.375Y-3.7969
X12.4256Y-2.9534
X12.4256Y-3.8904
X12.4688Y-2.2969
X12.6562Y-3.0469
X12.75Y-3.4219
X12.8438Y-2.2969
X12.8438Y-4.5469
X12.8438Y-5.2969
X12.9373Y-2.6213
X13.5938Y-3.0469
X13.5938Y-3.7969
X13.5938Y-4.5469
X13.5938Y-5.2969
T0
M30
