%TF.GenerationSoftware,KiCad,Pcbnew,(5.99.0-11177-g6c67dfa032)*%
%TF.CreationDate,2021-09-16T00:44:05+03:00*%
%TF.ProjectId,Charon_32U4_Solder,43686172-6f6e-45f3-9332-55345f536f6c,rev?*%
%TF.SameCoordinates,Original*%
%TF.FileFunction,Legend,Top*%
%TF.FilePolarity,Positive*%
%FSLAX46Y46*%
G04 Gerber Fmt 4.6, Leading zero omitted, Abs format (unit mm)*
G04 Created by KiCad (PCBNEW (5.99.0-11177-g6c67dfa032)) date 2021-09-16 00:44:05*
%MOMM*%
%LPD*%
G01*
G04 APERTURE LIST*
%ADD10C,0.150000*%
G04 APERTURE END LIST*
D10*
%TO.C,K66*%
X248816964Y-127119005D02*
X248816964Y-126119005D01*
X249388392Y-127119005D02*
X248959821Y-126547577D01*
X249388392Y-126119005D02*
X248816964Y-126690434D01*
X250245535Y-126119005D02*
X250055059Y-126119005D01*
X249959821Y-126166625D01*
X249912202Y-126214244D01*
X249816964Y-126357101D01*
X249769345Y-126547577D01*
X249769345Y-126928529D01*
X249816964Y-127023767D01*
X249864583Y-127071386D01*
X249959821Y-127119005D01*
X250150297Y-127119005D01*
X250245535Y-127071386D01*
X250293154Y-127023767D01*
X250340773Y-126928529D01*
X250340773Y-126690434D01*
X250293154Y-126595196D01*
X250245535Y-126547577D01*
X250150297Y-126499958D01*
X249959821Y-126499958D01*
X249864583Y-126547577D01*
X249816964Y-126595196D01*
X249769345Y-126690434D01*
X251197916Y-126119005D02*
X251007440Y-126119005D01*
X250912202Y-126166625D01*
X250864583Y-126214244D01*
X250769345Y-126357101D01*
X250721726Y-126547577D01*
X250721726Y-126928529D01*
X250769345Y-127023767D01*
X250816964Y-127071386D01*
X250912202Y-127119005D01*
X251102678Y-127119005D01*
X251197916Y-127071386D01*
X251245535Y-127023767D01*
X251293154Y-126928529D01*
X251293154Y-126690434D01*
X251245535Y-126595196D01*
X251197916Y-126547577D01*
X251102678Y-126499958D01*
X250912202Y-126499958D01*
X250816964Y-126547577D01*
X250769345Y-126595196D01*
X250721726Y-126690434D01*
%TO.C,K45a1*%
X69294642Y-108069005D02*
X69294642Y-107069005D01*
X69866071Y-108069005D02*
X69437500Y-107497577D01*
X69866071Y-107069005D02*
X69294642Y-107640434D01*
X70723214Y-107402339D02*
X70723214Y-108069005D01*
X70485119Y-107021386D02*
X70247023Y-107735672D01*
X70866071Y-107735672D01*
X71723214Y-107069005D02*
X71247023Y-107069005D01*
X71199404Y-107545196D01*
X71247023Y-107497577D01*
X71342261Y-107449958D01*
X71580357Y-107449958D01*
X71675595Y-107497577D01*
X71723214Y-107545196D01*
X71770833Y-107640434D01*
X71770833Y-107878529D01*
X71723214Y-107973767D01*
X71675595Y-108021386D01*
X71580357Y-108069005D01*
X71342261Y-108069005D01*
X71247023Y-108021386D01*
X71199404Y-107973767D01*
X72627976Y-108069005D02*
X72627976Y-107545196D01*
X72580357Y-107449958D01*
X72485119Y-107402339D01*
X72294642Y-107402339D01*
X72199404Y-107449958D01*
X72627976Y-108021386D02*
X72532738Y-108069005D01*
X72294642Y-108069005D01*
X72199404Y-108021386D01*
X72151785Y-107926148D01*
X72151785Y-107830910D01*
X72199404Y-107735672D01*
X72294642Y-107688053D01*
X72532738Y-107688053D01*
X72627976Y-107640434D01*
X73627976Y-108069005D02*
X73056547Y-108069005D01*
X73342261Y-108069005D02*
X73342261Y-107069005D01*
X73247023Y-107211863D01*
X73151785Y-107307101D01*
X73056547Y-107354720D01*
%TO.C,G\u002A\u002A\u002A*%
G36*
X354185470Y-135297237D02*
G01*
X354313813Y-135357175D01*
X354685930Y-135533756D01*
X354613330Y-136598881D01*
X354585406Y-137134438D01*
X354588456Y-137479151D01*
X354622896Y-137644723D01*
X354651055Y-137664006D01*
X354751898Y-137576305D01*
X354828914Y-137382352D01*
X354943916Y-137031925D01*
X355089862Y-136756268D01*
X355241529Y-136578740D01*
X355373690Y-136522696D01*
X355461123Y-136611494D01*
X355482217Y-136777407D01*
X355430767Y-137127103D01*
X355295108Y-137573296D01*
X355103277Y-138050049D01*
X354883308Y-138491421D01*
X354663239Y-138831475D01*
X354561204Y-138943559D01*
X354400130Y-139199185D01*
X354355604Y-139435235D01*
X354373874Y-139667483D01*
X354424244Y-140059494D01*
X354500055Y-140569894D01*
X354594648Y-141157308D01*
X354701363Y-141780362D01*
X354813541Y-142397681D01*
X354922900Y-142959889D01*
X354997610Y-143363461D01*
X355051247Y-143719987D01*
X355072520Y-143954101D01*
X355072540Y-143958478D01*
X355072540Y-144218844D01*
X352386034Y-144218844D01*
X352445734Y-143681143D01*
X352473642Y-143371371D01*
X352506476Y-142916228D01*
X352540295Y-142374987D01*
X352571157Y-141806925D01*
X352573445Y-141760780D01*
X352605247Y-141228902D01*
X352644046Y-140753840D01*
X352685326Y-140381990D01*
X352724572Y-140159751D01*
X352731335Y-140138510D01*
X352757187Y-139803351D01*
X352678057Y-139472784D01*
X352615422Y-139186038D01*
X352560585Y-138745553D01*
X352518782Y-138202412D01*
X352497874Y-137715215D01*
X352485638Y-137163006D01*
X352486842Y-136784615D01*
X352504177Y-136549304D01*
X352540337Y-136426334D01*
X352598011Y-136384967D01*
X352614475Y-136383764D01*
X352744451Y-136472094D01*
X352866965Y-136690761D01*
X352885368Y-136742231D01*
X353002632Y-137100699D01*
X353071504Y-136691022D01*
X353150203Y-136237504D01*
X353208627Y-135950061D01*
X353257010Y-135792214D01*
X353305584Y-135727483D01*
X353344439Y-135718038D01*
X353474317Y-135649218D01*
X353663142Y-135480441D01*
X353692654Y-135449316D01*
X353861204Y-135281990D01*
X353995773Y-135235703D01*
X354185470Y-135297237D01*
G37*
G36*
X343033204Y-48994449D02*
G01*
X342963873Y-49187128D01*
X342835878Y-49513285D01*
X342671016Y-49918024D01*
X342575706Y-50146667D01*
X342334587Y-50741020D01*
X342161344Y-51232129D01*
X342032897Y-51700288D01*
X341926162Y-52225788D01*
X341854351Y-52655941D01*
X341751855Y-53167702D01*
X341608210Y-53723342D01*
X341479631Y-54128902D01*
X341339172Y-54571496D01*
X341281902Y-54937247D01*
X341312051Y-55293058D01*
X341433848Y-55705829D01*
X341606571Y-56137262D01*
X341736195Y-56459047D01*
X341814587Y-56722477D01*
X341850253Y-56992842D01*
X341851697Y-57335430D01*
X341827425Y-57815530D01*
X341826724Y-57827181D01*
X341724266Y-58760685D01*
X341536719Y-59698287D01*
X341277783Y-60600293D01*
X340961162Y-61427008D01*
X340600556Y-62138738D01*
X340209668Y-62695788D01*
X340107586Y-62807498D01*
X339856377Y-63090901D01*
X339676762Y-63342186D01*
X339607227Y-63507429D01*
X339607217Y-63508589D01*
X339649456Y-63685905D01*
X339761473Y-63988206D01*
X339921219Y-64357374D01*
X339964057Y-64449141D01*
X340374324Y-65500006D01*
X340664584Y-66639791D01*
X340804222Y-67676481D01*
X340865334Y-68511940D01*
X340415509Y-68739140D01*
X340033369Y-68952450D01*
X339658523Y-69195858D01*
X339332618Y-69438108D01*
X339097301Y-69647949D01*
X338994218Y-69794125D01*
X338992701Y-69806886D01*
X339031930Y-69972353D01*
X339131764Y-70245591D01*
X339201142Y-70409989D01*
X339375907Y-70957608D01*
X339471031Y-71583441D01*
X339478632Y-72199444D01*
X339403802Y-72673842D01*
X339231978Y-73067433D01*
X338940337Y-73506947D01*
X338784111Y-73697430D01*
X338538105Y-74014361D01*
X338342322Y-74360038D01*
X338188769Y-74765384D01*
X338069456Y-75261322D01*
X337976392Y-75878773D01*
X337901585Y-76648661D01*
X337856252Y-77287796D01*
X337785175Y-78240777D01*
X337697428Y-79031004D01*
X337580801Y-79700514D01*
X337423088Y-80291343D01*
X337212081Y-80845528D01*
X336935573Y-81405106D01*
X336581356Y-82012112D01*
X336400463Y-82300766D01*
X336159598Y-82692077D01*
X335967213Y-83028668D01*
X335846752Y-83268031D01*
X335817701Y-83357398D01*
X335876156Y-83523097D01*
X336021667Y-83762307D01*
X336073750Y-83833531D01*
X336281552Y-84241348D01*
X336313437Y-84704304D01*
X336169989Y-85245713D01*
X336112657Y-85382883D01*
X335970277Y-85825844D01*
X335860230Y-86418529D01*
X335811534Y-86855378D01*
X335748997Y-87474895D01*
X335667812Y-87955733D01*
X335545160Y-88364007D01*
X335358224Y-88765835D01*
X335084184Y-89227332D01*
X334888452Y-89529957D01*
X334628722Y-89943808D01*
X334411194Y-90324547D01*
X334262952Y-90622744D01*
X334213790Y-90761183D01*
X334214668Y-91049198D01*
X334292296Y-91421557D01*
X334337955Y-91562469D01*
X334440124Y-91868712D01*
X334467715Y-92060233D01*
X334421803Y-92212669D01*
X334348893Y-92332980D01*
X334100982Y-92609608D01*
X333758394Y-92801042D01*
X333287148Y-92919815D01*
X332653260Y-92978457D01*
X332591491Y-92981043D01*
X332096727Y-92990409D01*
X331742245Y-92967990D01*
X331464918Y-92906124D01*
X331244267Y-92817534D01*
X330935372Y-92627904D01*
X330682538Y-92360140D01*
X330471507Y-91985942D01*
X330288022Y-91477009D01*
X330117824Y-90805039D01*
X330038040Y-90423202D01*
X329915688Y-89755612D01*
X329840521Y-89186184D01*
X329804401Y-88623008D01*
X329799188Y-87974175D01*
X329802235Y-87760298D01*
X329826169Y-86403118D01*
X329401059Y-85532554D01*
X329180850Y-85033183D01*
X328976939Y-84487165D01*
X328826141Y-83995111D01*
X328801401Y-83893844D01*
X328709541Y-83354238D01*
X328638285Y-82666700D01*
X328589425Y-81887271D01*
X328564756Y-81071992D01*
X328566070Y-80276903D01*
X328595162Y-79558046D01*
X328645714Y-79028925D01*
X328700994Y-78595770D01*
X328742626Y-78224167D01*
X328764309Y-77972437D01*
X328765947Y-77916326D01*
X328708960Y-77748863D01*
X328560397Y-77465265D01*
X328347755Y-77116074D01*
X328250379Y-76968560D01*
X327927981Y-76443567D01*
X327738734Y-76011099D01*
X327672617Y-75725515D01*
X327583176Y-75190761D01*
X327457585Y-74596491D01*
X327311769Y-74006651D01*
X327161655Y-73485185D01*
X327023167Y-73096035D01*
X327010385Y-73066439D01*
X326810440Y-72685862D01*
X326563494Y-72305125D01*
X326499697Y-72220762D01*
X326274133Y-71862548D01*
X326205797Y-71523013D01*
X326296502Y-71154937D01*
X326548063Y-70711100D01*
X326558257Y-70695908D01*
X326926232Y-70149496D01*
X326667192Y-69877920D01*
X326436262Y-69584607D01*
X326282049Y-69244137D01*
X326179928Y-68792929D01*
X326142892Y-68524277D01*
X326132413Y-67962145D01*
X326208352Y-67315278D01*
X326354423Y-66666497D01*
X326554338Y-66098620D01*
X326662253Y-65883246D01*
X326910942Y-65447473D01*
X327071425Y-65145253D01*
X327155761Y-64931517D01*
X327176006Y-64761196D01*
X327144218Y-64589218D01*
X327072453Y-64370515D01*
X327069364Y-64361454D01*
X326949683Y-64075852D01*
X326752348Y-63674316D01*
X326507152Y-63215311D01*
X326300838Y-62853301D01*
X326045313Y-62399894D01*
X325820849Y-61967441D01*
X325654649Y-61610390D01*
X325581125Y-61412796D01*
X325534221Y-61191109D01*
X325467340Y-60802512D01*
X325386090Y-60283327D01*
X325296085Y-59669878D01*
X325202935Y-58998487D01*
X325169751Y-58749893D01*
X325071129Y-58046561D01*
X324965698Y-57369731D01*
X324860682Y-56760640D01*
X324763303Y-56260528D01*
X324680784Y-55910635D01*
X324660680Y-55843203D01*
X324498036Y-55121815D01*
X324448763Y-54460542D01*
X324412907Y-53738494D01*
X324315256Y-52947796D01*
X324169629Y-52173919D01*
X323989843Y-51502330D01*
X323952792Y-51392861D01*
X323605643Y-50586436D01*
X323165734Y-49907038D01*
X322705675Y-49395565D01*
X322452555Y-49137784D01*
X322270108Y-48935528D01*
X322196103Y-48830785D01*
X322195927Y-48828900D01*
X322296084Y-48819934D01*
X322587507Y-48811334D01*
X323056624Y-48803185D01*
X323689863Y-48795572D01*
X324473650Y-48788578D01*
X325394414Y-48782289D01*
X326438582Y-48776787D01*
X327592582Y-48772158D01*
X328842841Y-48768485D01*
X330175787Y-48765853D01*
X331577847Y-48764347D01*
X332649603Y-48764006D01*
X343103279Y-48764006D01*
X343033204Y-48994449D01*
G37*
G36*
X271071980Y-135281251D02*
G01*
X271157496Y-135574287D01*
X271208858Y-136064724D01*
X271211692Y-136127835D01*
X271242298Y-136895860D01*
X271435084Y-136332554D01*
X271600506Y-135895072D01*
X271737738Y-135641527D01*
X271857691Y-135554785D01*
X271919629Y-135571581D01*
X271993009Y-135725836D01*
X272001719Y-136023419D01*
X271948404Y-136414194D01*
X271855705Y-136784114D01*
X271751023Y-137153537D01*
X271714771Y-137391870D01*
X271748790Y-137561737D01*
X271854919Y-137725761D01*
X271884455Y-137762753D01*
X272065726Y-137986612D01*
X272344246Y-137767528D01*
X272716839Y-137591102D01*
X272955887Y-137580620D01*
X273232963Y-137653171D01*
X273323303Y-137785045D01*
X273228530Y-137955072D01*
X272950268Y-138142079D01*
X272911335Y-138161421D01*
X272490211Y-138429095D01*
X272058394Y-138808821D01*
X271669225Y-139243656D01*
X271376048Y-139676657D01*
X271266560Y-139917231D01*
X271102617Y-140372379D01*
X270896765Y-140899635D01*
X270636313Y-141529979D01*
X270308570Y-142294387D01*
X270057006Y-142869711D01*
X269486230Y-144167635D01*
X267862283Y-144195933D01*
X267254891Y-144205398D01*
X266825787Y-144207360D01*
X266548473Y-144199040D01*
X266396454Y-144177664D01*
X266343233Y-144140452D01*
X266362312Y-144084630D01*
X266396350Y-144042304D01*
X266806226Y-143553671D01*
X267232347Y-143016889D01*
X267644966Y-142472210D01*
X268014339Y-141959886D01*
X268310722Y-141520171D01*
X268504370Y-141193317D01*
X268510500Y-141181297D01*
X268708303Y-140819501D01*
X268979166Y-140363507D01*
X269278683Y-139886931D01*
X269430038Y-139656873D01*
X269698151Y-139252851D01*
X269866842Y-138976877D01*
X269951712Y-138787502D01*
X269968364Y-138643281D01*
X269932400Y-138502766D01*
X269897312Y-138415557D01*
X269801064Y-138134287D01*
X269757446Y-137906269D01*
X269757217Y-137895131D01*
X269713341Y-137711321D01*
X269598815Y-137413976D01*
X269453173Y-137098091D01*
X269247914Y-136645751D01*
X269157190Y-136336470D01*
X269176090Y-136146900D01*
X269238981Y-136080300D01*
X269352648Y-136079037D01*
X269500498Y-136217556D01*
X269703468Y-136517316D01*
X269764868Y-136619277D01*
X269915616Y-136820037D01*
X270042231Y-136900532D01*
X270066053Y-136894885D01*
X270113399Y-136769788D01*
X270148818Y-136493656D01*
X270166123Y-136120212D01*
X270166895Y-136019251D01*
X270175435Y-135593070D01*
X270204886Y-135338408D01*
X270260994Y-135222505D01*
X270309566Y-135205941D01*
X270438564Y-135255737D01*
X270522953Y-135424798D01*
X270571426Y-135742639D01*
X270591113Y-136161697D01*
X270605654Y-136793441D01*
X270676394Y-136098765D01*
X270754519Y-135594374D01*
X270856091Y-135290513D01*
X270966712Y-135186399D01*
X271071980Y-135281251D01*
G37*
G36*
X255462579Y-48765420D02*
G01*
X256427062Y-48769485D01*
X257308142Y-48775931D01*
X258086931Y-48784487D01*
X258744537Y-48794886D01*
X259262071Y-48806857D01*
X259620644Y-48820131D01*
X259801364Y-48834438D01*
X259819691Y-48840820D01*
X259760972Y-48961136D01*
X259614918Y-49180427D01*
X259516863Y-49314010D01*
X259259450Y-49784376D01*
X259154036Y-50184574D01*
X259074993Y-50557455D01*
X258942062Y-50989257D01*
X258852627Y-51222070D01*
X258742567Y-51546387D01*
X258619982Y-52011213D01*
X258499931Y-52554084D01*
X258398813Y-53104325D01*
X258266448Y-53808226D01*
X258115980Y-54427775D01*
X257960499Y-54911248D01*
X257911495Y-55029509D01*
X257639433Y-55635744D01*
X257860422Y-56028940D01*
X258034279Y-56464693D01*
X258061084Y-56915471D01*
X257934704Y-57406124D01*
X257649008Y-57961499D01*
X257237051Y-58555107D01*
X256896968Y-59088344D01*
X256547644Y-59797790D01*
X256303526Y-60388602D01*
X256086905Y-60912126D01*
X255858603Y-61401749D01*
X255645528Y-61802909D01*
X255485203Y-62048039D01*
X255280006Y-62341441D01*
X255160462Y-62632371D01*
X255093419Y-63010994D01*
X255078739Y-63153543D01*
X255025676Y-63549649D01*
X254951221Y-63899443D01*
X254884240Y-64096589D01*
X254600256Y-64457753D01*
X254190417Y-64697747D01*
X253706826Y-64796841D01*
X253201588Y-64735302D01*
X253199379Y-64734642D01*
X252875223Y-64558689D01*
X252566027Y-64265464D01*
X252344353Y-63930843D01*
X252292288Y-63786152D01*
X252256082Y-63576411D01*
X252211258Y-63234064D01*
X252167108Y-62830558D01*
X252164294Y-62801980D01*
X252089879Y-62040358D01*
X251631723Y-61772634D01*
X251320475Y-61548301D01*
X251061461Y-61289568D01*
X250984637Y-61181417D01*
X250817210Y-60739689D01*
X250734797Y-60165647D01*
X250741888Y-59515324D01*
X250810095Y-59003512D01*
X250864841Y-58684073D01*
X250888069Y-58419548D01*
X250875408Y-58152798D01*
X250822487Y-57826685D01*
X250724935Y-57384071D01*
X250667667Y-57141551D01*
X250510450Y-56563349D01*
X250311824Y-55950027D01*
X250102538Y-55392485D01*
X249984718Y-55122711D01*
X249817136Y-54748447D01*
X249683102Y-54391553D01*
X249576641Y-54018501D01*
X249491777Y-53595767D01*
X249422536Y-53089824D01*
X249362942Y-52467146D01*
X249307020Y-51694207D01*
X249271262Y-51119651D01*
X249232643Y-50514306D01*
X249192997Y-49962671D01*
X249155537Y-49504664D01*
X249123477Y-49180203D01*
X249104318Y-49045659D01*
X249044628Y-48764006D01*
X254433584Y-48764006D01*
X255462579Y-48765420D01*
G37*
G36*
X253709954Y-138220805D02*
G01*
X254217348Y-138437926D01*
X254308533Y-138494037D01*
X254650958Y-138751561D01*
X254796128Y-138958705D01*
X254744946Y-139116976D01*
X254701295Y-139149257D01*
X254654313Y-139285282D01*
X254701295Y-139404617D01*
X254783341Y-139588740D01*
X254755812Y-139681380D01*
X254587499Y-139701648D01*
X254266290Y-139670975D01*
X253775270Y-139678461D01*
X253372803Y-139815431D01*
X253096435Y-140064007D01*
X253003356Y-140272293D01*
X252959044Y-140576351D01*
X253033521Y-140729091D01*
X253247709Y-140747575D01*
X253509082Y-140684666D01*
X253885591Y-140606726D01*
X254191517Y-140608572D01*
X254377635Y-140686711D01*
X254409677Y-140748531D01*
X254433392Y-140932939D01*
X254435282Y-140952857D01*
X254348723Y-141037374D01*
X254108849Y-141145323D01*
X253763764Y-141262878D01*
X253361576Y-141376212D01*
X252950390Y-141471500D01*
X252578312Y-141534914D01*
X252345927Y-141553360D01*
X252005241Y-141570601D01*
X251715562Y-141607109D01*
X251652210Y-141621119D01*
X251489394Y-141726720D01*
X251238719Y-141960405D01*
X250932519Y-142284387D01*
X250603125Y-142660880D01*
X250282873Y-143052097D01*
X250004095Y-143420252D01*
X249799124Y-143727559D01*
X249719552Y-143879717D01*
X249577855Y-144218844D01*
X248350198Y-144218844D01*
X247876019Y-144213658D01*
X247486959Y-144199530D01*
X247222616Y-144178602D01*
X247122593Y-144153019D01*
X247122540Y-144152397D01*
X247191669Y-144022458D01*
X247385785Y-143768859D01*
X247684976Y-143412729D01*
X248069334Y-142975198D01*
X248518948Y-142477395D01*
X249013910Y-141940450D01*
X249534309Y-141385493D01*
X250060235Y-140833654D01*
X250571780Y-140306062D01*
X251049033Y-139823848D01*
X251472085Y-139408139D01*
X251821026Y-139080067D01*
X252075946Y-138860761D01*
X252174735Y-138790618D01*
X252491954Y-138596389D01*
X252777286Y-138411168D01*
X252857933Y-138355336D01*
X253253064Y-138192917D01*
X253709954Y-138220805D01*
G37*
G36*
X165366115Y-75187077D02*
G01*
X165886912Y-75272467D01*
X166328584Y-75431907D01*
X166597880Y-75624553D01*
X166816195Y-75980553D01*
X166980482Y-76516626D01*
X167086945Y-77214260D01*
X167131784Y-78054942D01*
X167133024Y-78233012D01*
X167139987Y-78788675D01*
X167167182Y-79206581D01*
X167224069Y-79553528D01*
X167320110Y-79896313D01*
X167401944Y-80131856D01*
X167513107Y-80466941D01*
X167595244Y-80799038D01*
X167655648Y-81176836D01*
X167701607Y-81649023D01*
X167740412Y-82264287D01*
X167750544Y-82459973D01*
X167798213Y-83138676D01*
X167878096Y-83886567D01*
X167993439Y-84722530D01*
X168147490Y-85665445D01*
X168343494Y-86734193D01*
X168584699Y-87947657D01*
X168874352Y-89324717D01*
X169141869Y-90551102D01*
X169302470Y-91290607D01*
X169419208Y-91864552D01*
X169496922Y-92306344D01*
X169540449Y-92649388D01*
X169554626Y-92927090D01*
X169544291Y-93172857D01*
X169534897Y-93265215D01*
X169499353Y-93651646D01*
X169462324Y-94186159D01*
X169426663Y-94812040D01*
X169395222Y-95472580D01*
X169370856Y-96111066D01*
X169356416Y-96670787D01*
X169354059Y-96859931D01*
X169415542Y-97384993D01*
X169570457Y-97738284D01*
X169696004Y-97978832D01*
X169808981Y-98284240D01*
X169914005Y-98677544D01*
X170015691Y-99181782D01*
X170118654Y-99819989D01*
X170227511Y-100615204D01*
X170346877Y-101590462D01*
X170353366Y-101645746D01*
X170455177Y-102529598D01*
X170530558Y-103238107D01*
X170579188Y-103799100D01*
X170600747Y-104240403D01*
X170594915Y-104589840D01*
X170561372Y-104875239D01*
X170499796Y-105124424D01*
X170409868Y-105365222D01*
X170307943Y-105590339D01*
X170153457Y-105939528D01*
X170043143Y-106232065D01*
X170000767Y-106404892D01*
X170000766Y-106405375D01*
X170067053Y-106573957D01*
X170235134Y-106812525D01*
X170341250Y-106933881D01*
X170537257Y-107175872D01*
X170666594Y-107440055D01*
X170759356Y-107798906D01*
X170802900Y-108045559D01*
X170880786Y-108396566D01*
X171018557Y-108887543D01*
X171200621Y-109468034D01*
X171411386Y-110087583D01*
X171562467Y-110503624D01*
X171809213Y-111174315D01*
X171988203Y-111703391D01*
X172106740Y-112139829D01*
X172172128Y-112532604D01*
X172191668Y-112930694D01*
X172172665Y-113383075D01*
X172122421Y-113938722D01*
X172102878Y-114127807D01*
X172078826Y-114959318D01*
X172194918Y-115766316D01*
X172461979Y-116613056D01*
X172563459Y-116861730D01*
X172712065Y-117221769D01*
X172843496Y-117570511D01*
X172961575Y-117928081D01*
X173070127Y-118314604D01*
X173172977Y-118750207D01*
X173273949Y-119255016D01*
X173376867Y-119849155D01*
X173485556Y-120552751D01*
X173603840Y-121385930D01*
X173735544Y-122368817D01*
X173884492Y-123521538D01*
X173996066Y-124400699D01*
X174161916Y-125659249D01*
X174343209Y-126937877D01*
X174533755Y-128197884D01*
X174727368Y-129400568D01*
X174917859Y-130507229D01*
X175099039Y-131479167D01*
X175230802Y-132122962D01*
X175314121Y-132430487D01*
X175436641Y-132679174D01*
X175638651Y-132931127D01*
X175960440Y-133248452D01*
X175961637Y-133249575D01*
X176467439Y-133782617D01*
X176791936Y-134268789D01*
X176947257Y-134728619D01*
X176965282Y-134948371D01*
X177047119Y-135502890D01*
X177278093Y-136138514D01*
X177636392Y-136823487D01*
X178100210Y-137526056D01*
X178647736Y-138214468D01*
X179257162Y-138856969D01*
X179906678Y-139421804D01*
X180173298Y-139619212D01*
X180635338Y-139915339D01*
X181014605Y-140077234D01*
X181337997Y-140094684D01*
X181632411Y-139957474D01*
X181924747Y-139655393D01*
X182241901Y-139178228D01*
X182490443Y-138739409D01*
X182722696Y-138327413D01*
X182951491Y-137945523D01*
X183137574Y-137658558D01*
X183183465Y-137595017D01*
X183341433Y-137344798D01*
X183537370Y-136975252D01*
X183734029Y-136557579D01*
X183772794Y-136468404D01*
X183985065Y-135987700D01*
X184220266Y-135479073D01*
X184429621Y-135047859D01*
X184441029Y-135025301D01*
X184577832Y-134734975D01*
X184680417Y-134452778D01*
X184759896Y-134129992D01*
X184827385Y-133717899D01*
X184893996Y-133167781D01*
X184919992Y-132925704D01*
X184987451Y-132225282D01*
X185054173Y-131429985D01*
X185111976Y-130643042D01*
X185149264Y-130033764D01*
X185197691Y-129314457D01*
X185264044Y-128732568D01*
X185358499Y-128220822D01*
X185491236Y-127711944D01*
X185510214Y-127647896D01*
X185643415Y-127182916D01*
X185716845Y-126854539D01*
X185737489Y-126605714D01*
X185712333Y-126379390D01*
X185681923Y-126245487D01*
X185565052Y-125516641D01*
X185582383Y-124755177D01*
X185737702Y-123921882D01*
X185983626Y-123120457D01*
X186169667Y-122589599D01*
X186354054Y-122061087D01*
X186513178Y-121602719D01*
X186607780Y-121328118D01*
X186820175Y-120822449D01*
X187065702Y-120493487D01*
X187376371Y-120313102D01*
X187784191Y-120253167D01*
X187831525Y-120252715D01*
X188462793Y-120350625D01*
X189025973Y-120638122D01*
X189446529Y-121036362D01*
X189618821Y-121292928D01*
X189769065Y-121629890D01*
X189904844Y-122074521D01*
X190033736Y-122654094D01*
X190163325Y-123395884D01*
X190237495Y-123881890D01*
X190340924Y-124529132D01*
X190442857Y-125019815D01*
X190557617Y-125401608D01*
X190699525Y-125722179D01*
X190882382Y-126028412D01*
X191076748Y-126419927D01*
X191131929Y-126826056D01*
X191046520Y-127290955D01*
X190824470Y-127847401D01*
X190504712Y-128528781D01*
X190850354Y-129383692D01*
X191026574Y-129852362D01*
X191184302Y-130329505D01*
X191295084Y-130727620D01*
X191311570Y-130801909D01*
X191472891Y-131346653D01*
X191738841Y-131980257D01*
X192077289Y-132639083D01*
X192456105Y-133259492D01*
X192768665Y-133687917D01*
X193076352Y-134086986D01*
X193316105Y-134451275D01*
X193500954Y-134819552D01*
X193643930Y-135230583D01*
X193758064Y-135723134D01*
X193856386Y-136335974D01*
X193951927Y-137107867D01*
X193968951Y-137258783D01*
X194083523Y-138258313D01*
X194184805Y-139073771D01*
X194277334Y-139725143D01*
X194365648Y-140232419D01*
X194454284Y-140615587D01*
X194547780Y-140894635D01*
X194650672Y-141089551D01*
X194767497Y-141220325D01*
X194885945Y-141298484D01*
X195131350Y-141390811D01*
X195313942Y-141401704D01*
X195317791Y-141400329D01*
X195416976Y-141291132D01*
X195576909Y-141037913D01*
X195772512Y-140682641D01*
X195913190Y-140403991D01*
X196373750Y-139459396D01*
X196377566Y-136846177D01*
X196380908Y-135956704D01*
X196391384Y-135242867D01*
X196413990Y-134675473D01*
X196453722Y-134225329D01*
X196515580Y-133863243D01*
X196604558Y-133560022D01*
X196725655Y-133286475D01*
X196883867Y-133013409D01*
X197084191Y-132711631D01*
X197085672Y-132709468D01*
X197372878Y-132282021D01*
X197579031Y-131938651D01*
X197720779Y-131627390D01*
X197814768Y-131296273D01*
X197877647Y-130893331D01*
X197926063Y-130366598D01*
X197952734Y-130002819D01*
X198015513Y-129271278D01*
X198093576Y-128707096D01*
X198197797Y-128272845D01*
X198339052Y-127931091D01*
X198528219Y-127644405D01*
X198691596Y-127459923D01*
X199001883Y-127139308D01*
X198830435Y-126640568D01*
X198715301Y-126034343D01*
X198737288Y-125346917D01*
X198884596Y-124637736D01*
X199145421Y-123966245D01*
X199464395Y-123447269D01*
X199649251Y-123130212D01*
X199736646Y-122764869D01*
X199728477Y-122311493D01*
X199626643Y-121730338D01*
X199559691Y-121451550D01*
X199468964Y-121063133D01*
X199435661Y-120787614D01*
X199458603Y-120541611D01*
X199536615Y-120241743D01*
X199542334Y-120222517D01*
X199684190Y-119878640D01*
X199916502Y-119451964D01*
X200198052Y-119016596D01*
X200264106Y-118924836D01*
X200826799Y-118160262D01*
X200763840Y-117337336D01*
X200742560Y-116951045D01*
X200750143Y-116615714D01*
X200794508Y-116269808D01*
X200883570Y-115851796D01*
X201025249Y-115300142D01*
X201026626Y-115294984D01*
X201166223Y-114794173D01*
X201303072Y-114341084D01*
X201421132Y-113986628D01*
X201502093Y-113786033D01*
X201789554Y-113448561D01*
X202234733Y-113235874D01*
X202830515Y-113151146D01*
X202928588Y-113149672D01*
X203427336Y-113181355D01*
X203798806Y-113295296D01*
X204067765Y-113518048D01*
X204258979Y-113876164D01*
X204397213Y-114396198D01*
X204465028Y-114796989D01*
X204604956Y-115732912D01*
X204722140Y-116489799D01*
X204820807Y-117091666D01*
X204905185Y-117562534D01*
X204979499Y-117926419D01*
X205047977Y-118207341D01*
X205091714Y-118357957D01*
X205165265Y-118701738D01*
X205231750Y-119230469D01*
X205289158Y-119924324D01*
X205335482Y-120763478D01*
X205335541Y-120764812D01*
X205407151Y-122188983D01*
X205492188Y-123546866D01*
X205588457Y-124813441D01*
X205693765Y-125963686D01*
X205805917Y-126972580D01*
X205922721Y-127815099D01*
X205986612Y-128190215D01*
X206089477Y-128781245D01*
X206183936Y-129388248D01*
X206259104Y-129937336D01*
X206302276Y-130332670D01*
X206354454Y-130756009D01*
X206432151Y-131165320D01*
X206522877Y-131512168D01*
X206614141Y-131748119D01*
X206687273Y-131825628D01*
X206790255Y-131789464D01*
X207029308Y-131695397D01*
X207332621Y-131572011D01*
X207873671Y-131401545D01*
X208428084Y-131316499D01*
X208941873Y-131318259D01*
X209361054Y-131408208D01*
X209557633Y-131514950D01*
X209795175Y-131798002D01*
X209949391Y-132217544D01*
X210023854Y-132790830D01*
X210022140Y-133535117D01*
X210012628Y-133711631D01*
X209948202Y-134764593D01*
X210495140Y-135450947D01*
X210767180Y-135822507D01*
X210991482Y-136207843D01*
X211182031Y-136644497D01*
X211352811Y-137170010D01*
X211517808Y-137821922D01*
X211691004Y-138637775D01*
X211701056Y-138688199D01*
X211810564Y-139200053D01*
X211925013Y-139622343D01*
X212067846Y-140018228D01*
X212262502Y-140450867D01*
X212532422Y-140983417D01*
X212602436Y-141116846D01*
X212737368Y-141452700D01*
X212837333Y-141898823D01*
X212911734Y-142499041D01*
X212920997Y-142601927D01*
X212965750Y-143077237D01*
X213012252Y-143503217D01*
X213053730Y-143820746D01*
X213073947Y-143937191D01*
X213135590Y-144218844D01*
X100439815Y-144218844D01*
X100715043Y-143891755D01*
X100881271Y-143678799D01*
X101008281Y-143464748D01*
X101110368Y-143207269D01*
X101201829Y-142864032D01*
X101296958Y-142392703D01*
X101381059Y-141919583D01*
X101537030Y-141138341D01*
X101760877Y-140195576D01*
X102044763Y-139120101D01*
X102380851Y-137940724D01*
X102761302Y-136686256D01*
X103060562Y-135745731D01*
X103329176Y-134880302D01*
X103513285Y-134200394D01*
X103613131Y-133705042D01*
X103633024Y-133470743D01*
X103713251Y-132875573D01*
X103935573Y-132210220D01*
X104272452Y-131519319D01*
X104696350Y-130847505D01*
X105179728Y-130239412D01*
X105695047Y-129739678D01*
X106116693Y-129445124D01*
X106360102Y-129290335D01*
X106471133Y-129141904D01*
X106461329Y-128941895D01*
X106342233Y-128632370D01*
X106298176Y-128534263D01*
X106169642Y-128217443D01*
X106114601Y-127949760D01*
X106139321Y-127676454D01*
X106250071Y-127342761D01*
X106453117Y-126893920D01*
X106496145Y-126804540D01*
X106711377Y-126304925D01*
X106909177Y-125751754D01*
X107051651Y-125252605D01*
X107067019Y-125183817D01*
X107191185Y-124634787D01*
X107305276Y-124241776D01*
X107429843Y-123958269D01*
X107585437Y-123737748D01*
X107792608Y-123533697D01*
X107798199Y-123528780D01*
X108010986Y-123326493D01*
X108093983Y-123168534D01*
X108076920Y-122970727D01*
X108042197Y-122837920D01*
X107941633Y-122200112D01*
X107944343Y-121441045D01*
X108039652Y-120609680D01*
X108216884Y-119754976D01*
X108465365Y-118925893D01*
X108774417Y-118171391D01*
X109133367Y-117540430D01*
X109224868Y-117413983D01*
X109423540Y-117135446D01*
X109564414Y-116875791D01*
X109655459Y-116593411D01*
X109704646Y-116246701D01*
X109719947Y-115794054D01*
X109709333Y-115193864D01*
X109700600Y-114930781D01*
X109682039Y-114331412D01*
X109677835Y-113894401D01*
X109691343Y-113577562D01*
X109725922Y-113338711D01*
X109784926Y-113135661D01*
X109857582Y-112957923D01*
X110158258Y-112506242D01*
X110611067Y-112109605D01*
X111164843Y-111798000D01*
X111768418Y-111601412D01*
X112264965Y-111547070D01*
X112757420Y-111641381D01*
X113170141Y-111921806D01*
X113500244Y-112384581D01*
X113744845Y-113025945D01*
X113874257Y-113646667D01*
X113953797Y-114104230D01*
X114075786Y-114720155D01*
X114231486Y-115454464D01*
X114412160Y-116267177D01*
X114609070Y-117118318D01*
X114813479Y-117967907D01*
X114859203Y-118153118D01*
X115014616Y-118697966D01*
X115221101Y-119265409D01*
X115498006Y-119903159D01*
X115864678Y-120658933D01*
X115918569Y-120765622D01*
X116325305Y-121585520D01*
X116637252Y-122259798D01*
X116865009Y-122818482D01*
X117019179Y-123291599D01*
X117110360Y-123709175D01*
X117149154Y-124101236D01*
X117152379Y-124260446D01*
X117126522Y-124708523D01*
X117031991Y-125060482D01*
X116886466Y-125348544D01*
X116613370Y-125898109D01*
X116506204Y-126366826D01*
X116569415Y-126799868D01*
X116807450Y-127242408D01*
X117109470Y-127614508D01*
X117420232Y-128008973D01*
X117589807Y-128375914D01*
X117632660Y-128779219D01*
X117563255Y-129282776D01*
X117525407Y-129451572D01*
X117444128Y-129846915D01*
X117425628Y-130139026D01*
X117468788Y-130419288D01*
X117511584Y-130578184D01*
X117586373Y-130876248D01*
X117681320Y-131312982D01*
X117783159Y-131824963D01*
X117861907Y-132253062D01*
X117976863Y-132878020D01*
X118076373Y-133340104D01*
X118173583Y-133679273D01*
X118281640Y-133935486D01*
X118413689Y-134148703D01*
X118537042Y-134305224D01*
X118647360Y-134457546D01*
X118753520Y-134658651D01*
X118866350Y-134938346D01*
X118996681Y-135326440D01*
X119155342Y-135852742D01*
X119353162Y-136547060D01*
X119358759Y-136567030D01*
X119507736Y-136963341D01*
X119755365Y-137415387D01*
X120122723Y-137959978D01*
X120276815Y-138170302D01*
X121016787Y-139101714D01*
X121727903Y-139858502D01*
X122437974Y-140462888D01*
X123174814Y-140937090D01*
X123966236Y-141303331D01*
X124381842Y-141449935D01*
X125007795Y-141645309D01*
X125493042Y-141770787D01*
X125890181Y-141824235D01*
X126251812Y-141803520D01*
X126630533Y-141706509D01*
X127078943Y-141531068D01*
X127547943Y-141321528D01*
X128455031Y-140920529D01*
X129246361Y-140602181D01*
X129982624Y-140345095D01*
X130724511Y-140127882D01*
X131435282Y-139951559D01*
X131928440Y-139826223D01*
X132379890Y-139691736D01*
X132732284Y-139566277D01*
X132900261Y-139487135D01*
X133198059Y-139236513D01*
X133480527Y-138845965D01*
X133759821Y-138294818D01*
X134048100Y-137562397D01*
X134072448Y-137493841D01*
X134202576Y-137109578D01*
X134292461Y-136786645D01*
X134350101Y-136469269D01*
X134383492Y-136101673D01*
X134400630Y-135628081D01*
X134407797Y-135154731D01*
X134417293Y-134568851D01*
X134435251Y-134139055D01*
X134468714Y-133816592D01*
X134524727Y-133552711D01*
X134610332Y-133298664D01*
X134711152Y-133055135D01*
X134834397Y-132748036D01*
X134919884Y-132463430D01*
X134976600Y-132147570D01*
X135013531Y-131746708D01*
X135039665Y-131207097D01*
X135045084Y-131057957D01*
X135094241Y-130233408D01*
X135189054Y-129541628D01*
X135346590Y-128912552D01*
X135583915Y-128276115D01*
X135875936Y-127646998D01*
X136253160Y-127004349D01*
X136656424Y-126540713D01*
X137076094Y-126262351D01*
X137502532Y-126175525D01*
X137926101Y-126286497D01*
X137950379Y-126299135D01*
X138206247Y-126538029D01*
X138442290Y-126971570D01*
X138659388Y-127602238D01*
X138858426Y-128432518D01*
X139012193Y-129285314D01*
X139223607Y-130300031D01*
X139515128Y-131166692D01*
X139902610Y-131931740D01*
X139931912Y-131979731D01*
X140247943Y-132491828D01*
X140299153Y-134660043D01*
X140317522Y-135306816D01*
X140339784Y-135883292D01*
X140364257Y-136358383D01*
X140389255Y-136701006D01*
X140413097Y-136880076D01*
X140420363Y-136897920D01*
X140561308Y-136926293D01*
X140722881Y-136757355D01*
X140902349Y-136397293D01*
X141096981Y-135852298D01*
X141304044Y-135128559D01*
X141437018Y-134594679D01*
X141669862Y-133740922D01*
X141967466Y-132892741D01*
X142358228Y-131970125D01*
X142404855Y-131867776D01*
X142646711Y-131334919D01*
X142827143Y-130913236D01*
X142961226Y-130550463D01*
X143064034Y-130194335D01*
X143150640Y-129792585D01*
X143236119Y-129292949D01*
X143335545Y-128643161D01*
X143336273Y-128638312D01*
X143434028Y-127970657D01*
X143500604Y-127457740D01*
X143538539Y-127052253D01*
X143550375Y-126706889D01*
X143538653Y-126374343D01*
X143505913Y-126007306D01*
X143486857Y-125834570D01*
X143435519Y-125329904D01*
X143421271Y-124939083D01*
X143455388Y-124603206D01*
X143549143Y-124263370D01*
X143713812Y-123860675D01*
X143960669Y-123336218D01*
X143967961Y-123321099D01*
X144197988Y-122819485D01*
X144367840Y-122374735D01*
X144493740Y-121925874D01*
X144591908Y-121411925D01*
X144678566Y-120771912D01*
X144703713Y-120555310D01*
X144825199Y-119787239D01*
X145004499Y-119192964D01*
X145257457Y-118745784D01*
X145599917Y-118419001D01*
X146047725Y-118185918D01*
X146127244Y-118156580D01*
X146716749Y-118014178D01*
X147225896Y-118022811D01*
X147631367Y-118177967D01*
X147909847Y-118475135D01*
X147925784Y-118504604D01*
X148005274Y-118748003D01*
X148082368Y-119142522D01*
X148147661Y-119634564D01*
X148174891Y-119924307D01*
X148224872Y-120457448D01*
X148284953Y-120850534D01*
X148370995Y-121168268D01*
X148498859Y-121475354D01*
X148608627Y-121693623D01*
X148754363Y-121984414D01*
X148854520Y-122233736D01*
X148920026Y-122494685D01*
X148961804Y-122820358D01*
X148990781Y-123263852D01*
X149007590Y-123632554D01*
X149036922Y-124214959D01*
X149078839Y-124645882D01*
X149150553Y-124978627D01*
X149269276Y-125266498D01*
X149452218Y-125562799D01*
X149716591Y-125920836D01*
X149768202Y-125988199D01*
X150080189Y-126412683D01*
X150341516Y-126817599D01*
X150575535Y-127248781D01*
X150805595Y-127752064D01*
X151055049Y-128373283D01*
X151255294Y-128907151D01*
X151505322Y-129554634D01*
X151811152Y-130299257D01*
X152136541Y-131055166D01*
X152445249Y-131736506D01*
X152487465Y-131826102D01*
X152770907Y-132437164D01*
X152986757Y-132944368D01*
X153156961Y-133412489D01*
X153303462Y-133906302D01*
X153448205Y-134490580D01*
X153563093Y-135001102D01*
X153753195Y-135837048D01*
X153917455Y-136491195D01*
X154062660Y-136983968D01*
X154195599Y-137335790D01*
X154323058Y-137567087D01*
X154451827Y-137698282D01*
X154461544Y-137704542D01*
X154570275Y-137755582D01*
X154663445Y-137738127D01*
X154759922Y-137625050D01*
X154878574Y-137389226D01*
X155038268Y-137003526D01*
X155153574Y-136709601D01*
X155299867Y-136319130D01*
X155417010Y-135960633D01*
X155508677Y-135603857D01*
X155578538Y-135218551D01*
X155630264Y-134774464D01*
X155667528Y-134241345D01*
X155694001Y-133588943D01*
X155713355Y-132787005D01*
X155726613Y-131988115D01*
X155743893Y-131034070D01*
X155765477Y-130264198D01*
X155792550Y-129657860D01*
X155826295Y-129194413D01*
X155867898Y-128853217D01*
X155918543Y-128613630D01*
X155920728Y-128606026D01*
X155983361Y-128375364D01*
X156015318Y-128178289D01*
X156011452Y-127970239D01*
X155966615Y-127706655D01*
X155875659Y-127342975D01*
X155733437Y-126834638D01*
X155704291Y-126732383D01*
X155691530Y-126323610D01*
X155878998Y-125903519D01*
X156085045Y-125651303D01*
X156275812Y-125440653D01*
X156428615Y-125233412D01*
X156552490Y-124999580D01*
X156656477Y-124709155D01*
X156749614Y-124332138D01*
X156840937Y-123838527D01*
X156939486Y-123198321D01*
X157040974Y-122478189D01*
X157158393Y-121809338D01*
X157310644Y-121289039D01*
X157468222Y-120941898D01*
X157757320Y-120406344D01*
X157727851Y-118559720D01*
X157720192Y-117813910D01*
X157727675Y-117240665D01*
X157755646Y-116807948D01*
X157809449Y-116483719D01*
X157894428Y-116235941D01*
X158015927Y-116032575D01*
X158179292Y-115841583D01*
X158181691Y-115839066D01*
X158400733Y-115508313D01*
X158494753Y-115088739D01*
X158467405Y-114549906D01*
X158387408Y-114126262D01*
X158256853Y-113387445D01*
X158234667Y-112728627D01*
X158325138Y-112068410D01*
X158532556Y-111325395D01*
X158535446Y-111316632D01*
X158672060Y-110871162D01*
X158771383Y-110454816D01*
X158843330Y-110007447D01*
X158897812Y-109468913D01*
X158939642Y-108864261D01*
X158988080Y-108138875D01*
X159040971Y-107581801D01*
X159109199Y-107156612D01*
X159203650Y-106826882D01*
X159335208Y-106556185D01*
X159514761Y-106308094D01*
X159753192Y-106046183D01*
X159794481Y-106003686D01*
X160344781Y-105440048D01*
X160397069Y-104115132D01*
X160431836Y-103465119D01*
X160482163Y-102970041D01*
X160555183Y-102580166D01*
X160658027Y-102245765D01*
X160669559Y-102215201D01*
X160942067Y-101643802D01*
X161334068Y-101010169D01*
X161803562Y-100378081D01*
X162127355Y-100001576D01*
X162370495Y-99697518D01*
X162494690Y-99412929D01*
X162506700Y-99091161D01*
X162413282Y-98675566D01*
X162319891Y-98387859D01*
X162243527Y-98130332D01*
X162184402Y-97835272D01*
X162138935Y-97467535D01*
X162103546Y-96991976D01*
X162074657Y-96373450D01*
X162054832Y-95785736D01*
X161994036Y-93777312D01*
X162374166Y-92445860D01*
X162524915Y-91918268D01*
X162664606Y-91430152D01*
X162778868Y-91031670D01*
X162853334Y-90772979D01*
X162859779Y-90750729D01*
X162898565Y-90557525D01*
X162896743Y-90339123D01*
X162847401Y-90049973D01*
X162743629Y-89644523D01*
X162634468Y-89265648D01*
X162443804Y-88586354D01*
X162315345Y-88017296D01*
X162250821Y-87512207D01*
X162251961Y-87024819D01*
X162320495Y-86508864D01*
X162458154Y-85918074D01*
X162666668Y-85206181D01*
X162802310Y-84777022D01*
X163167467Y-83637796D01*
X163236648Y-80053118D01*
X163258114Y-79010181D01*
X163280522Y-78151681D01*
X163307001Y-77457230D01*
X163340683Y-76906438D01*
X163384697Y-76478915D01*
X163442173Y-76154274D01*
X163516241Y-75912124D01*
X163610033Y-75732076D01*
X163726677Y-75593741D01*
X163869305Y-75476730D01*
X163947565Y-75422387D01*
X164334582Y-75257318D01*
X164828052Y-75180455D01*
X165366115Y-75187077D01*
G37*
G36*
X62294816Y-128290562D02*
G01*
X62713938Y-128446509D01*
X63039678Y-128723302D01*
X63132844Y-128868849D01*
X63232662Y-129153287D01*
X63313450Y-129546461D01*
X63350469Y-129875507D01*
X63387483Y-130360049D01*
X63438091Y-130689465D01*
X63524846Y-130913269D01*
X63670299Y-131080977D01*
X63897002Y-131242105D01*
X64002936Y-131308090D01*
X64399083Y-131607157D01*
X64655235Y-131952319D01*
X64792101Y-132388728D01*
X64830394Y-132961536D01*
X64827764Y-133106344D01*
X64806995Y-133881585D01*
X64797218Y-134488664D01*
X64800967Y-134964082D01*
X64820782Y-135344341D01*
X64859199Y-135665944D01*
X64918754Y-135965392D01*
X65001985Y-136279187D01*
X65062489Y-136483405D01*
X65236401Y-137007892D01*
X65445765Y-137566540D01*
X65650769Y-138054302D01*
X65689528Y-138137870D01*
X65844989Y-138501922D01*
X65969813Y-138888564D01*
X66069350Y-139330457D01*
X66148955Y-139860264D01*
X66213979Y-140510648D01*
X66269775Y-141314271D01*
X66300004Y-141863199D01*
X66330636Y-142406012D01*
X66365493Y-142940510D01*
X66399628Y-143394430D01*
X66420896Y-143629933D01*
X66481256Y-144218844D01*
X56622540Y-144218844D01*
X56622540Y-142989812D01*
X56629260Y-142515359D01*
X56647571Y-142125996D01*
X56674696Y-141861299D01*
X56707859Y-141760844D01*
X56708747Y-141760780D01*
X56803332Y-141660140D01*
X56908430Y-141364516D01*
X57021558Y-140883349D01*
X57140227Y-140226079D01*
X57180744Y-139968441D01*
X57297247Y-139263278D01*
X57410975Y-138716721D01*
X57533784Y-138283060D01*
X57677529Y-137916587D01*
X57754235Y-137757417D01*
X57867848Y-137511609D01*
X57881475Y-137342703D01*
X57791159Y-137146662D01*
X57726965Y-137040481D01*
X57542244Y-136573071D01*
X57538329Y-136059622D01*
X57717524Y-135490854D01*
X58082134Y-134857482D01*
X58363344Y-134477207D01*
X58600468Y-134121629D01*
X58842498Y-133669998D01*
X59029651Y-133238493D01*
X59348261Y-132426969D01*
X59647510Y-131756014D01*
X59918241Y-131244444D01*
X60151295Y-130911073D01*
X60175102Y-130885184D01*
X60325381Y-130688820D01*
X60422423Y-130442589D01*
X60486785Y-130083763D01*
X60511603Y-129858257D01*
X60564909Y-129452933D01*
X60635063Y-129101869D01*
X60707244Y-128878641D01*
X60710007Y-128873332D01*
X60989907Y-128546845D01*
X61381525Y-128340824D01*
X61833587Y-128255365D01*
X62294816Y-128290562D01*
G37*
G36*
X348107159Y-131291912D02*
G01*
X348225583Y-131475978D01*
X348321419Y-131837878D01*
X348398738Y-132389271D01*
X348417555Y-132578465D01*
X348486152Y-133212066D01*
X348574493Y-133800367D01*
X348696153Y-134420112D01*
X348864709Y-135148045D01*
X348891395Y-135257151D01*
X348987406Y-135702905D01*
X349079783Y-136221318D01*
X349133569Y-136588602D01*
X349183652Y-136909381D01*
X349270302Y-137386848D01*
X349385096Y-137977857D01*
X349519613Y-138639258D01*
X349665430Y-139327904D01*
X349693299Y-139456344D01*
X349839104Y-140153651D01*
X349971631Y-140840197D01*
X350082937Y-141470621D01*
X350165080Y-141999560D01*
X350210118Y-142381653D01*
X350213373Y-142426506D01*
X350244533Y-142895543D01*
X350277949Y-143356814D01*
X350306701Y-143715034D01*
X350308232Y-143732352D01*
X350351599Y-144218844D01*
X347907088Y-144218844D01*
X347828830Y-143937191D01*
X347803804Y-143740966D01*
X347783443Y-143366647D01*
X347767904Y-142840928D01*
X347757346Y-142190505D01*
X347751924Y-141442071D01*
X347751797Y-140622322D01*
X347757121Y-139757953D01*
X347768053Y-138875657D01*
X347784751Y-138002131D01*
X347792102Y-137698924D01*
X347834648Y-136043923D01*
X347561629Y-135719458D01*
X347407086Y-135520982D01*
X347304603Y-135330906D01*
X347230654Y-135085505D01*
X347161716Y-134721051D01*
X347136865Y-134568835D01*
X347025145Y-134226003D01*
X346835271Y-133902909D01*
X346815900Y-133879046D01*
X346656100Y-133636168D01*
X346588500Y-133424728D01*
X346590578Y-133389540D01*
X346705693Y-133226468D01*
X346920321Y-133183172D01*
X347165169Y-133263397D01*
X347278635Y-133352359D01*
X347438673Y-133477949D01*
X347528512Y-133486681D01*
X347556767Y-133356590D01*
X347593900Y-133076440D01*
X347632988Y-132700402D01*
X347642561Y-132594247D01*
X347694463Y-132057256D01*
X347745003Y-131690639D01*
X347802467Y-131460156D01*
X347875141Y-131331571D01*
X347962075Y-131274021D01*
X348107159Y-131291912D01*
G37*
G36*
X343771947Y-139075533D02*
G01*
X343939957Y-138706157D01*
X343962963Y-138652405D01*
X344155708Y-138248635D01*
X344328098Y-137983118D01*
X344449765Y-137887719D01*
X344628457Y-137923907D01*
X344689424Y-138113674D01*
X344631098Y-138441883D01*
X344534597Y-138707642D01*
X344421971Y-139001943D01*
X344360393Y-139210198D01*
X344358078Y-139274006D01*
X344432079Y-139218137D01*
X344586688Y-139031822D01*
X344788832Y-138755009D01*
X344794362Y-138747054D01*
X345059068Y-138414630D01*
X345285410Y-138221851D01*
X345452569Y-138178738D01*
X345539726Y-138295311D01*
X345547540Y-138384544D01*
X345494340Y-138619806D01*
X345374222Y-138871036D01*
X345200905Y-139149086D01*
X345507851Y-138867433D01*
X345796024Y-138640574D01*
X345978495Y-138572664D01*
X346053111Y-138645912D01*
X346017717Y-138842529D01*
X345870159Y-139144724D01*
X345608283Y-139534705D01*
X345591376Y-139557215D01*
X345343538Y-139910256D01*
X345241277Y-140123987D01*
X345285067Y-140203677D01*
X345475378Y-140154597D01*
X345637930Y-140077081D01*
X345921172Y-139964884D01*
X346174903Y-139919719D01*
X346337963Y-139948045D01*
X346366895Y-140000075D01*
X346271350Y-140209632D01*
X346005309Y-140430346D01*
X345639417Y-140619425D01*
X345264750Y-140814245D01*
X344900711Y-141059075D01*
X344806542Y-141136167D01*
X344569273Y-141325204D01*
X344384312Y-141438786D01*
X344334195Y-141453522D01*
X344178192Y-141550665D01*
X344070149Y-141829792D01*
X344015795Y-142272449D01*
X344010359Y-142496587D01*
X343998551Y-142955212D01*
X343969241Y-143431143D01*
X343944884Y-143681143D01*
X343880298Y-144218844D01*
X342819161Y-144218844D01*
X342380875Y-144213782D01*
X342030701Y-144200105D01*
X341811234Y-144180074D01*
X341758024Y-144162490D01*
X341785043Y-144017951D01*
X341857190Y-143725003D01*
X341961100Y-143331544D01*
X342083407Y-142885476D01*
X342210744Y-142434698D01*
X342329747Y-142027109D01*
X342427050Y-141710609D01*
X342489286Y-141533099D01*
X342495203Y-141520594D01*
X342533622Y-141302546D01*
X342517366Y-140942893D01*
X342454232Y-140495113D01*
X342352017Y-140012680D01*
X342218518Y-139549072D01*
X342199780Y-139494426D01*
X342114912Y-139179449D01*
X342089058Y-138921508D01*
X342102004Y-138842649D01*
X342172870Y-138726117D01*
X342290890Y-138747238D01*
X342399403Y-138812574D01*
X342595088Y-139001087D01*
X342785131Y-139277559D01*
X342816257Y-139336327D01*
X343019229Y-139619164D01*
X343240432Y-139708028D01*
X343464612Y-139598287D01*
X343512217Y-139547735D01*
X343605348Y-139398466D01*
X345060554Y-139398466D01*
X345074564Y-139405135D01*
X345168030Y-139333033D01*
X345189072Y-139302715D01*
X345215171Y-139206964D01*
X345201161Y-139200296D01*
X345107695Y-139272397D01*
X345086653Y-139302715D01*
X345060554Y-139398466D01*
X343605348Y-139398466D01*
X343619176Y-139376302D01*
X343771947Y-139075533D01*
G37*
G36*
X230608106Y-48764454D02*
G01*
X232169607Y-48765881D01*
X233546019Y-48768406D01*
X234747217Y-48772151D01*
X235783075Y-48777237D01*
X236663467Y-48783784D01*
X237398268Y-48791914D01*
X237997351Y-48801747D01*
X238470591Y-48813404D01*
X238827863Y-48827006D01*
X239079040Y-48842675D01*
X239233996Y-48860530D01*
X239302606Y-48880693D01*
X239307480Y-48892030D01*
X238948382Y-49770310D01*
X238666545Y-50490825D01*
X238452524Y-51081388D01*
X238296873Y-51569817D01*
X238190145Y-51983926D01*
X238122894Y-52351531D01*
X238116221Y-52399893D01*
X238027665Y-52890519D01*
X237889019Y-53466125D01*
X237726342Y-54021534D01*
X237681211Y-54155731D01*
X237354948Y-55092215D01*
X237622972Y-55692021D01*
X237871217Y-56295356D01*
X238019233Y-56803918D01*
X238078609Y-57294560D01*
X238060933Y-57844138D01*
X238012678Y-58276531D01*
X237824683Y-59361673D01*
X237558560Y-60380393D01*
X237226226Y-61301596D01*
X236839596Y-62094186D01*
X236410587Y-62727067D01*
X236230139Y-62928178D01*
X235987418Y-63186689D01*
X235815885Y-63392874D01*
X235753991Y-63498664D01*
X235794535Y-63624495D01*
X235903318Y-63889654D01*
X236061073Y-64248265D01*
X236158379Y-64461462D01*
X236434359Y-65105961D01*
X236644904Y-65721535D01*
X236809574Y-66378144D01*
X236947924Y-67145748D01*
X236992621Y-67445690D01*
X237123114Y-68357617D01*
X236873835Y-68553318D01*
X236661379Y-68706232D01*
X236342637Y-68920058D01*
X235986092Y-69148867D01*
X235981300Y-69151869D01*
X235658927Y-69369057D01*
X235409354Y-69565662D01*
X235282109Y-69702295D01*
X235277986Y-69711230D01*
X235278319Y-69881017D01*
X235335492Y-70181336D01*
X235437363Y-70549845D01*
X235447552Y-70581874D01*
X235605377Y-71235962D01*
X235670585Y-71891654D01*
X235641135Y-72487309D01*
X235525546Y-72936861D01*
X235372610Y-73216257D01*
X235138672Y-73554079D01*
X234959288Y-73777055D01*
X234713361Y-74095693D01*
X234515359Y-74413423D01*
X234432996Y-74594523D01*
X234334682Y-74979468D01*
X234237332Y-75508976D01*
X234148747Y-76122883D01*
X234076728Y-76761028D01*
X234029076Y-77363249D01*
X234013466Y-77829815D01*
X233963091Y-78789295D01*
X233803539Y-79683929D01*
X233520023Y-80559900D01*
X233097757Y-81463392D01*
X232552577Y-82392481D01*
X232279380Y-82837531D01*
X232116994Y-83156667D01*
X232058015Y-83391258D01*
X232095036Y-83582674D01*
X232220655Y-83772285D01*
X232291051Y-83853553D01*
X232506024Y-84231667D01*
X232539204Y-84689028D01*
X232390792Y-85232845D01*
X232333621Y-85365179D01*
X232116030Y-86013008D01*
X232066895Y-86503532D01*
X232040528Y-87103911D01*
X231950217Y-87646198D01*
X231779143Y-88177772D01*
X231510487Y-88746011D01*
X231127431Y-89398294D01*
X230930002Y-89706239D01*
X230709586Y-90047057D01*
X230562986Y-90307342D01*
X230481846Y-90539164D01*
X230457809Y-90794588D01*
X230482518Y-91125682D01*
X230547618Y-91584512D01*
X230587193Y-91842163D01*
X230612394Y-92128514D01*
X230553847Y-92309053D01*
X230380635Y-92475872D01*
X230372237Y-92482499D01*
X229863296Y-92767587D01*
X229242300Y-92937351D01*
X228572327Y-92982715D01*
X227916452Y-92894602D01*
X227778279Y-92855769D01*
X227423530Y-92700903D01*
X227100149Y-92490210D01*
X227036034Y-92434064D01*
X226752136Y-92049168D01*
X226504418Y-91485584D01*
X226298232Y-90767132D01*
X226138929Y-89917631D01*
X226031863Y-88960899D01*
X225982385Y-87920755D01*
X225980065Y-87734570D01*
X225969535Y-86300699D01*
X225590402Y-85532554D01*
X225329601Y-84957153D01*
X225133394Y-84399899D01*
X224988728Y-83806275D01*
X224882551Y-83121763D01*
X224801811Y-82291845D01*
X224795742Y-82213366D01*
X224745021Y-81333718D01*
X224740269Y-80546720D01*
X224784463Y-79763758D01*
X224880575Y-78896216D01*
X224915814Y-78635975D01*
X225027763Y-77833348D01*
X224620206Y-77253314D01*
X224359615Y-76875374D01*
X224175981Y-76576180D01*
X224045703Y-76297178D01*
X223945184Y-75979815D01*
X223850824Y-75565537D01*
X223765288Y-75132121D01*
X223573797Y-74257805D01*
X223364361Y-73548945D01*
X223122871Y-72966196D01*
X222835217Y-72470212D01*
X222784503Y-72397035D01*
X222527005Y-71950125D01*
X222442259Y-71545723D01*
X222530485Y-71133327D01*
X222791904Y-70662437D01*
X222792106Y-70662137D01*
X223144737Y-70138510D01*
X222852230Y-69865268D01*
X222583835Y-69507742D01*
X222418986Y-69022657D01*
X222352787Y-68389429D01*
X222364395Y-67814006D01*
X222451664Y-67064313D01*
X222635979Y-66412487D01*
X222946976Y-65763844D01*
X223073226Y-65549452D01*
X223242185Y-65232677D01*
X223331013Y-64937445D01*
X223332671Y-64629851D01*
X223240120Y-64275989D01*
X223046321Y-63841953D01*
X222744234Y-63293836D01*
X222529905Y-62932334D01*
X222288240Y-62518800D01*
X222071392Y-62126510D01*
X221913766Y-61818516D01*
X221873345Y-61729093D01*
X221815713Y-61522336D01*
X221739405Y-61146945D01*
X221650334Y-60637643D01*
X221554414Y-60029154D01*
X221457560Y-59356202D01*
X221413950Y-59031732D01*
X221315070Y-58317224D01*
X221210595Y-57629281D01*
X221107357Y-57008250D01*
X221012190Y-56494479D01*
X220931924Y-56128318D01*
X220906604Y-56035780D01*
X220817450Y-55657781D01*
X220729633Y-55139407D01*
X220652775Y-54544955D01*
X220600110Y-53987393D01*
X220480713Y-52876333D01*
X220298557Y-51933842D01*
X220042743Y-51130324D01*
X219702375Y-50436184D01*
X219266556Y-49821824D01*
X218931612Y-49455941D01*
X218658979Y-49177172D01*
X218453300Y-48955713D01*
X218349046Y-48829067D01*
X218342701Y-48815215D01*
X218442864Y-48808158D01*
X218734329Y-48801388D01*
X219203560Y-48794972D01*
X219837019Y-48788976D01*
X220621170Y-48783466D01*
X221542476Y-48778507D01*
X222587400Y-48774166D01*
X223742407Y-48770508D01*
X224993959Y-48767600D01*
X226328519Y-48765507D01*
X227732551Y-48764296D01*
X228851643Y-48764006D01*
X230608106Y-48764454D01*
G37*
G36*
X87705155Y-48764096D02*
G01*
X91042930Y-48764364D01*
X94323498Y-48764805D01*
X97541015Y-48765412D01*
X100689638Y-48766182D01*
X103763523Y-48767108D01*
X106756827Y-48768186D01*
X109663707Y-48769410D01*
X112478317Y-48770775D01*
X115194816Y-48772276D01*
X117807360Y-48773908D01*
X120310104Y-48775665D01*
X122697205Y-48777542D01*
X124962819Y-48779534D01*
X127101104Y-48781636D01*
X129106216Y-48783843D01*
X130972310Y-48786149D01*
X132693543Y-48788549D01*
X134264072Y-48791038D01*
X135678053Y-48793611D01*
X136929642Y-48796262D01*
X138012997Y-48798987D01*
X138922272Y-48801780D01*
X139651626Y-48804635D01*
X140195213Y-48807548D01*
X140547191Y-48810514D01*
X140701716Y-48813527D01*
X140708830Y-48814329D01*
X140651721Y-48916743D01*
X140504448Y-49127961D01*
X140362515Y-49318350D01*
X140197099Y-49558320D01*
X140065732Y-49816171D01*
X139956027Y-50132073D01*
X139855597Y-50546199D01*
X139752052Y-51098719D01*
X139680709Y-51529328D01*
X139597521Y-51952736D01*
X139461315Y-52535294D01*
X139281961Y-53241208D01*
X139069329Y-54034681D01*
X138833290Y-54879918D01*
X138583713Y-55741125D01*
X138330470Y-56582505D01*
X138083430Y-57368264D01*
X138000336Y-57623280D01*
X137757257Y-58419532D01*
X137572962Y-59145024D01*
X137459765Y-59749647D01*
X137442052Y-59894681D01*
X137368452Y-60418363D01*
X137251501Y-60842186D01*
X137059316Y-61270806D01*
X136974044Y-61430971D01*
X136461856Y-62272516D01*
X135933555Y-62941489D01*
X135362708Y-63469898D01*
X135175991Y-63608052D01*
X134878679Y-63822778D01*
X134661001Y-63991757D01*
X134565016Y-64082137D01*
X134563669Y-64086321D01*
X134606114Y-64199145D01*
X134712997Y-64425946D01*
X134768508Y-64536586D01*
X134927894Y-64957286D01*
X134954460Y-65373717D01*
X134843978Y-65836890D01*
X134618560Y-66346373D01*
X134424157Y-66790400D01*
X134230766Y-67332520D01*
X134074690Y-67869051D01*
X134050899Y-67967635D01*
X133913315Y-68539751D01*
X133796388Y-68950547D01*
X133682387Y-69239911D01*
X133553580Y-69447731D01*
X133392236Y-69613896D01*
X133278267Y-69705755D01*
X133065575Y-69885003D01*
X132991427Y-70029046D01*
X133024177Y-70216671D01*
X133046471Y-70282815D01*
X133093621Y-70547586D01*
X133116529Y-70981091D01*
X133113916Y-71548516D01*
X133103839Y-71843802D01*
X132995155Y-72982715D01*
X132768070Y-73975466D01*
X132415549Y-74847810D01*
X132162455Y-75290618D01*
X131844990Y-75799194D01*
X131626731Y-76195940D01*
X131491990Y-76538613D01*
X131425080Y-76884967D01*
X131410315Y-77292757D01*
X131432005Y-77819737D01*
X131439748Y-77951355D01*
X131466519Y-78784243D01*
X131432027Y-79449326D01*
X131331073Y-79975815D01*
X131158459Y-80392921D01*
X130954066Y-80680376D01*
X130481517Y-81085729D01*
X129886188Y-81396798D01*
X129241871Y-81576907D01*
X129116570Y-81593669D01*
X128593763Y-81590244D01*
X128167384Y-81446901D01*
X127825380Y-81150490D01*
X127555700Y-80687859D01*
X127346291Y-80045857D01*
X127240434Y-79546417D01*
X127133830Y-78990531D01*
X126998646Y-78336402D01*
X126843320Y-77620148D01*
X126676291Y-76877885D01*
X126505997Y-76145733D01*
X126340879Y-75459807D01*
X126189374Y-74856225D01*
X126059921Y-74371106D01*
X125960959Y-74040566D01*
X125940188Y-73981505D01*
X125818587Y-73691384D01*
X125624933Y-73270705D01*
X125383189Y-72769851D01*
X125117319Y-72239205D01*
X125039026Y-72086747D01*
X124599444Y-71200919D01*
X124274294Y-70454877D01*
X124058830Y-69821802D01*
X123948311Y-69274875D01*
X123937992Y-68787280D01*
X124023131Y-68332198D01*
X124198984Y-67882812D01*
X124270524Y-67741695D01*
X124503490Y-67254560D01*
X124611638Y-66862424D01*
X124587823Y-66512841D01*
X124424902Y-66153364D01*
X124115731Y-65731548D01*
X123973570Y-65561731D01*
X123715392Y-65240381D01*
X123571954Y-64995768D01*
X123511794Y-64761165D01*
X123502379Y-64562456D01*
X123529969Y-64166603D01*
X123598468Y-63741559D01*
X123620693Y-63645328D01*
X123679130Y-63328423D01*
X123675072Y-63021243D01*
X123604777Y-62635438D01*
X123572142Y-62498967D01*
X123473607Y-62066936D01*
X123363472Y-61534207D01*
X123262553Y-61002342D01*
X123244555Y-60900699D01*
X123132801Y-60298208D01*
X123028292Y-59846936D01*
X122913369Y-59494780D01*
X122770370Y-59189640D01*
X122581636Y-58879416D01*
X122536406Y-58811520D01*
X122291134Y-58350688D01*
X122071157Y-57753046D01*
X121977631Y-57418029D01*
X121833173Y-56867456D01*
X121697064Y-56437348D01*
X121541690Y-56072160D01*
X121339434Y-55716345D01*
X121062682Y-55314360D01*
X120683817Y-54810658D01*
X120676713Y-54801389D01*
X119865518Y-53830291D01*
X119054082Y-53043659D01*
X118216103Y-52422787D01*
X117325279Y-51948969D01*
X116355307Y-51603496D01*
X116076975Y-51529930D01*
X115561246Y-51409893D01*
X115180809Y-51350267D01*
X114874199Y-51354501D01*
X114579949Y-51426043D01*
X114236592Y-51568342D01*
X114079798Y-51641999D01*
X112571621Y-52303735D01*
X111100593Y-52836833D01*
X109931814Y-53171485D01*
X109413900Y-53304725D01*
X108948702Y-53433484D01*
X108582706Y-53544273D01*
X108362398Y-53623600D01*
X108344314Y-53632195D01*
X107955510Y-53915697D01*
X107622167Y-54351762D01*
X107389248Y-54807781D01*
X107166799Y-55328306D01*
X107003747Y-55767944D01*
X106888705Y-56180493D01*
X106810283Y-56619748D01*
X106757097Y-57139506D01*
X106717756Y-57793562D01*
X106706549Y-58032957D01*
X106673782Y-58681419D01*
X106638526Y-59165520D01*
X106594927Y-59525711D01*
X106537135Y-59802441D01*
X106459295Y-60036163D01*
X106395369Y-60183764D01*
X106295109Y-60430529D01*
X106220920Y-60701518D01*
X106165908Y-61040611D01*
X106123178Y-61491688D01*
X106085834Y-62098632D01*
X106081546Y-62180941D01*
X106029623Y-62956311D01*
X105960903Y-63557188D01*
X105871363Y-64013520D01*
X105806348Y-64229328D01*
X105566926Y-64831733D01*
X105279940Y-65436210D01*
X104974909Y-65987727D01*
X104681349Y-66431251D01*
X104522217Y-66623465D01*
X104274486Y-66855903D01*
X104049467Y-66965014D01*
X103751170Y-66994409D01*
X103705201Y-66994651D01*
X103368800Y-66948529D01*
X103082799Y-66798877D01*
X102838366Y-66528767D01*
X102626673Y-66121268D01*
X102438887Y-65559452D01*
X102266178Y-64826389D01*
X102102476Y-63922070D01*
X101996764Y-63323495D01*
X101889288Y-62855502D01*
X101757210Y-62444919D01*
X101577694Y-62018576D01*
X101380511Y-61608783D01*
X100867701Y-60575739D01*
X100867701Y-58669046D01*
X100860147Y-57846157D01*
X100836011Y-57212504D01*
X100793087Y-56752989D01*
X100729167Y-56452514D01*
X100642043Y-56295982D01*
X100529508Y-56268294D01*
X100517190Y-56271891D01*
X100411229Y-56393563D01*
X100273005Y-56676383D01*
X100116109Y-57081859D01*
X99954133Y-57571499D01*
X99800667Y-58106811D01*
X99669305Y-58649303D01*
X99656363Y-58709781D01*
X99461194Y-59443689D01*
X99160288Y-60281983D01*
X98782394Y-61167846D01*
X98501840Y-61796612D01*
X98291553Y-62299903D01*
X98134620Y-62735123D01*
X98014128Y-63159674D01*
X97913165Y-63630959D01*
X97814818Y-64206384D01*
X97735644Y-64720644D01*
X97655472Y-65337327D01*
X97612955Y-65913550D01*
X97604962Y-66528103D01*
X97628365Y-67259778D01*
X97631860Y-67333161D01*
X97702620Y-68788638D01*
X97329050Y-69492591D01*
X96948705Y-70285496D01*
X96689398Y-71027884D01*
X96523318Y-71809955D01*
X96459079Y-72314086D01*
X96403538Y-72785679D01*
X96340588Y-73222135D01*
X96280712Y-73553746D01*
X96258853Y-73645537D01*
X96005775Y-74243689D01*
X95613513Y-74693131D01*
X95079299Y-74996062D01*
X94400369Y-75154681D01*
X94354365Y-75159720D01*
X93907015Y-75165264D01*
X93563527Y-75064902D01*
X93309559Y-74839214D01*
X93130768Y-74468779D01*
X93012811Y-73934178D01*
X92943560Y-73249497D01*
X92899222Y-72741315D01*
X92831994Y-72353899D01*
X92720204Y-72003179D01*
X92542180Y-71605084D01*
X92494734Y-71508368D01*
X92328901Y-71164883D01*
X92219111Y-70893983D01*
X92153531Y-70636403D01*
X92120329Y-70332884D01*
X92107675Y-69924161D01*
X92104765Y-69555135D01*
X92097511Y-69011924D01*
X92069336Y-68604480D01*
X92000866Y-68276567D01*
X91872726Y-67971944D01*
X91665541Y-67634376D01*
X91359937Y-67207624D01*
X91240282Y-67045860D01*
X91012069Y-66736031D01*
X90831646Y-66478783D01*
X90681640Y-66238799D01*
X90544678Y-65980762D01*
X90403387Y-65669354D01*
X90240393Y-65269258D01*
X90038324Y-64745156D01*
X89804412Y-64126909D01*
X89554052Y-63483978D01*
X89283262Y-62822531D01*
X89017335Y-62202213D01*
X88781565Y-61682672D01*
X88675180Y-61464006D01*
X88415683Y-60929464D01*
X88198687Y-60427569D01*
X88009620Y-59913939D01*
X87833910Y-59344195D01*
X87656985Y-58673955D01*
X87464274Y-57858840D01*
X87404398Y-57593678D01*
X87207877Y-56769524D01*
X87028614Y-56146355D01*
X86859886Y-55721724D01*
X86694969Y-55493186D01*
X86527139Y-55458295D01*
X86349672Y-55614606D01*
X86155844Y-55959673D01*
X85938931Y-56491050D01*
X85761795Y-56996233D01*
X85672507Y-57285180D01*
X85602032Y-57579273D01*
X85545878Y-57914785D01*
X85499555Y-58327990D01*
X85458571Y-58855163D01*
X85418436Y-59532576D01*
X85397161Y-59941398D01*
X85366396Y-60656625D01*
X85345648Y-61363732D01*
X85335601Y-62015217D01*
X85336941Y-62563581D01*
X85350351Y-62961322D01*
X85353078Y-63000296D01*
X85378360Y-63528719D01*
X85356688Y-63925134D01*
X85283217Y-64257996D01*
X85258836Y-64331747D01*
X85118224Y-64901568D01*
X85130392Y-65425126D01*
X85248750Y-65868038D01*
X85390933Y-66408069D01*
X85385053Y-66851673D01*
X85223639Y-67251392D01*
X85011583Y-67536141D01*
X84771993Y-67841565D01*
X84578906Y-68138032D01*
X84505814Y-68284910D01*
X84437652Y-68529819D01*
X84352609Y-68942442D01*
X84256819Y-69486954D01*
X84156413Y-70127526D01*
X84057527Y-70828333D01*
X84016574Y-71142635D01*
X83931783Y-71517157D01*
X83779636Y-71956559D01*
X83639914Y-72269247D01*
X83328254Y-72883764D01*
X83397774Y-74491319D01*
X83422333Y-75266150D01*
X83417332Y-75870697D01*
X83377759Y-76338039D01*
X83298604Y-76701252D01*
X83174853Y-76993417D01*
X83001495Y-77247611D01*
X82975359Y-77279229D01*
X82772886Y-77542656D01*
X82649175Y-77785946D01*
X82598258Y-78057985D01*
X82614168Y-78407659D01*
X82690937Y-78883854D01*
X82745578Y-79161493D01*
X82859213Y-79802060D01*
X82903978Y-80317903D01*
X82876568Y-80778362D01*
X82773675Y-81252777D01*
X82623507Y-81721344D01*
X82331378Y-82782074D01*
X82161220Y-83906616D01*
X82124959Y-84665958D01*
X82108435Y-85349184D01*
X82048269Y-85879448D01*
X81928572Y-86306737D01*
X81733453Y-86681037D01*
X81447023Y-87052336D01*
X81322407Y-87190673D01*
X80743526Y-87815934D01*
X80682106Y-89157913D01*
X80615792Y-90018052D01*
X80489639Y-90730484D01*
X80282142Y-91348722D01*
X79971795Y-91926280D01*
X79537095Y-92516669D01*
X79155139Y-92957580D01*
X78896169Y-93265772D01*
X78694607Y-93546796D01*
X78591909Y-93742529D01*
X78589812Y-93750226D01*
X78592385Y-93967251D01*
X78657402Y-94295634D01*
X78748299Y-94596667D01*
X78837160Y-94896161D01*
X78908876Y-95255461D01*
X78968086Y-95710496D01*
X79019430Y-96297192D01*
X79067546Y-97051478D01*
X79069306Y-97082736D01*
X79107834Y-97878953D01*
X79119058Y-98526921D01*
X79096021Y-99082217D01*
X79031768Y-99600419D01*
X78919344Y-100137103D01*
X78751791Y-100747845D01*
X78522156Y-101488224D01*
X78515208Y-101509973D01*
X78349792Y-102057047D01*
X78257112Y-102480107D01*
X78237014Y-102846567D01*
X78289342Y-103223844D01*
X78413940Y-103679353D01*
X78509519Y-103976435D01*
X78649197Y-104437205D01*
X78734528Y-104837465D01*
X78777475Y-105259876D01*
X78790000Y-105787097D01*
X78789901Y-105914006D01*
X78783181Y-106368371D01*
X78759375Y-106739390D01*
X78707772Y-107085598D01*
X78617662Y-107465528D01*
X78478332Y-107937715D01*
X78340108Y-108372070D01*
X77893960Y-109754731D01*
X77833049Y-113339409D01*
X77815456Y-114336203D01*
X77797862Y-115149881D01*
X77777190Y-115802141D01*
X77750365Y-116314680D01*
X77714312Y-116709199D01*
X77665956Y-117007395D01*
X77602222Y-117230968D01*
X77520033Y-117401615D01*
X77416315Y-117541036D01*
X77287993Y-117670929D01*
X77208878Y-117743397D01*
X77037342Y-117856640D01*
X76795628Y-117924688D01*
X76429410Y-117959635D01*
X76199804Y-117968039D01*
X75768305Y-117967046D01*
X75372941Y-117945244D01*
X75095443Y-117907282D01*
X75084260Y-117904575D01*
X74774698Y-117796446D01*
X74534154Y-117630438D01*
X74352572Y-117381236D01*
X74219892Y-117023529D01*
X74126056Y-116532002D01*
X74061006Y-115881342D01*
X74023166Y-115234167D01*
X73989104Y-114594103D01*
X73950862Y-114106679D01*
X73900091Y-113719739D01*
X73828443Y-113381126D01*
X73727569Y-113038683D01*
X73623136Y-112735110D01*
X73467818Y-112280114D01*
X73377449Y-111940515D01*
X73340682Y-111641611D01*
X73346170Y-111308698D01*
X73366451Y-111045191D01*
X73378543Y-110228590D01*
X73277567Y-109294044D01*
X73269388Y-109242635D01*
X73157026Y-108583984D01*
X73008850Y-107771999D01*
X72834084Y-106853168D01*
X72641950Y-105873983D01*
X72441672Y-104880936D01*
X72242472Y-103920516D01*
X72053574Y-103039214D01*
X71918207Y-102431747D01*
X71777681Y-101799383D01*
X71681855Y-101316638D01*
X71624849Y-100934634D01*
X71600785Y-100604495D01*
X71603784Y-100277343D01*
X71622567Y-99973683D01*
X71650852Y-99539205D01*
X71667486Y-99156009D01*
X71669799Y-98891075D01*
X71667505Y-98847070D01*
X71650961Y-98546422D01*
X71651566Y-98207386D01*
X71670969Y-97780710D01*
X71710816Y-97217138D01*
X71730125Y-96975642D01*
X71764871Y-96507343D01*
X71772731Y-96183254D01*
X71746306Y-95943673D01*
X71678198Y-95728899D01*
X71561006Y-95479233D01*
X71539340Y-95436275D01*
X71396030Y-95117974D01*
X71270999Y-94754610D01*
X71158606Y-94318409D01*
X71053211Y-93781598D01*
X70949173Y-93116402D01*
X70840850Y-92295049D01*
X70755183Y-91575296D01*
X70654966Y-90712547D01*
X70576490Y-90024696D01*
X70521191Y-89482809D01*
X70490504Y-89057954D01*
X70485863Y-88721198D01*
X70508703Y-88443610D01*
X70560457Y-88196255D01*
X70642562Y-87950202D01*
X70756450Y-87676518D01*
X70903558Y-87346271D01*
X70972595Y-87190555D01*
X71212077Y-86646541D01*
X70825509Y-86319991D01*
X70609771Y-86117761D01*
X70479003Y-85918419D01*
X70398393Y-85649183D01*
X70343479Y-85312245D01*
X70293008Y-85030443D01*
X70209399Y-84688067D01*
X70085496Y-84262812D01*
X69914143Y-83732375D01*
X69688182Y-83074452D01*
X69400456Y-82266740D01*
X69108638Y-81463943D01*
X68947595Y-80767975D01*
X68927668Y-79982814D01*
X69022903Y-79294051D01*
X69075419Y-78678175D01*
X69004257Y-77939362D01*
X68815405Y-77113245D01*
X68514850Y-76235462D01*
X68504657Y-76209915D01*
X68324763Y-75747389D01*
X68163595Y-75308857D01*
X68044528Y-74959036D01*
X68005283Y-74827254D01*
X67922039Y-74451833D01*
X67819538Y-73879934D01*
X67698869Y-73118904D01*
X67561117Y-72176091D01*
X67407369Y-71058841D01*
X67238710Y-69774503D01*
X67119671Y-68838199D01*
X66991631Y-67857241D01*
X66851232Y-66848345D01*
X66702681Y-65836784D01*
X66550184Y-64847832D01*
X66397949Y-63906760D01*
X66250181Y-63038842D01*
X66111089Y-62269351D01*
X65984878Y-61623559D01*
X65875756Y-61126740D01*
X65787930Y-60804166D01*
X65777255Y-60773474D01*
X65555731Y-60374636D01*
X65197121Y-59969045D01*
X65124536Y-59902910D01*
X64662755Y-59435393D01*
X64358499Y-58962922D01*
X64174319Y-58417749D01*
X64111851Y-58071020D01*
X63907130Y-57276681D01*
X63519160Y-56444470D01*
X62960812Y-55595647D01*
X62244954Y-54751473D01*
X61879561Y-54383297D01*
X61321241Y-53880803D01*
X60806259Y-53484689D01*
X60359125Y-53211268D01*
X60004349Y-53076855D01*
X59899999Y-53065618D01*
X59600428Y-53165037D01*
X59267594Y-53458933D01*
X58907605Y-53940761D01*
X58608950Y-54448280D01*
X58368605Y-54875721D01*
X58110473Y-55308212D01*
X57890284Y-55652387D01*
X57889562Y-55653450D01*
X57653344Y-56048105D01*
X57434483Y-56489459D01*
X57356684Y-56677644D01*
X57204434Y-57047219D01*
X56999444Y-57498569D01*
X56788662Y-57928861D01*
X56591760Y-58356163D01*
X56425300Y-58794865D01*
X56324659Y-59151504D01*
X56323420Y-59157893D01*
X56261706Y-59556591D01*
X56195895Y-60110620D01*
X56130221Y-60770642D01*
X56068918Y-61487320D01*
X56016219Y-62211316D01*
X55976359Y-62893291D01*
X55954139Y-63461183D01*
X55914896Y-64135554D01*
X55825637Y-64707907D01*
X55670521Y-65278191D01*
X55661958Y-65304731D01*
X55508204Y-65812039D01*
X55425318Y-66208756D01*
X55407517Y-66574246D01*
X55449016Y-66987873D01*
X55512210Y-67359205D01*
X55576892Y-67892911D01*
X55555710Y-68414208D01*
X55514582Y-68702465D01*
X55430279Y-69079804D01*
X55290084Y-69567460D01*
X55108828Y-70125732D01*
X54901345Y-70714921D01*
X54682465Y-71295327D01*
X54467021Y-71827250D01*
X54269845Y-72270992D01*
X54105768Y-72586852D01*
X54016198Y-72713065D01*
X53705298Y-72896673D01*
X53293237Y-72952080D01*
X52828926Y-72890505D01*
X52361272Y-72723169D01*
X51939185Y-72461291D01*
X51651069Y-72170514D01*
X51457284Y-71814495D01*
X51268507Y-71266887D01*
X51088255Y-70540935D01*
X50920046Y-69649882D01*
X50833942Y-69094247D01*
X50739966Y-68518336D01*
X50638317Y-68081990D01*
X50509936Y-67720253D01*
X50335762Y-67368170D01*
X50318162Y-67336477D01*
X50078985Y-66838851D01*
X49983998Y-66414820D01*
X50031430Y-65994265D01*
X50219509Y-65507069D01*
X50269326Y-65404543D01*
X50425603Y-65071933D01*
X50536453Y-64801561D01*
X50576584Y-64658996D01*
X50539925Y-64505751D01*
X50439985Y-64221462D01*
X50296794Y-63862213D01*
X50265637Y-63788432D01*
X50081977Y-63314314D01*
X49910689Y-62799408D01*
X49796612Y-62385780D01*
X49592147Y-61734535D01*
X49279819Y-61016068D01*
X48897937Y-60306657D01*
X48484814Y-59682579D01*
X48356493Y-59518490D01*
X47942183Y-58953355D01*
X47611455Y-58382773D01*
X47397907Y-57866641D01*
X47367180Y-57754856D01*
X47334834Y-57565723D01*
X47286096Y-57211271D01*
X47225795Y-56729919D01*
X47158764Y-56160084D01*
X47096750Y-55604049D01*
X46987246Y-54631465D01*
X46888253Y-53843398D01*
X46794753Y-53220119D01*
X46701726Y-52741894D01*
X46604154Y-52388995D01*
X46497017Y-52141688D01*
X46375298Y-51980243D01*
X46233978Y-51884929D01*
X46142532Y-51852574D01*
X45897629Y-51803149D01*
X45746314Y-51803510D01*
X45741987Y-51805528D01*
X45666274Y-51908619D01*
X45521502Y-52154233D01*
X45330768Y-52501955D01*
X45179894Y-52789080D01*
X44693112Y-53731344D01*
X44691898Y-56496667D01*
X44690803Y-57325585D01*
X44687059Y-57976758D01*
X44678759Y-58477277D01*
X44663996Y-58854234D01*
X44640863Y-59134719D01*
X44607451Y-59345826D01*
X44561855Y-59514645D01*
X44502167Y-59668268D01*
X44462399Y-59756624D01*
X44262713Y-60134679D01*
X44027848Y-60506025D01*
X43938730Y-60627188D01*
X43702938Y-60945570D01*
X43527845Y-61241277D01*
X43400184Y-61558178D01*
X43306689Y-61940144D01*
X43234093Y-62431047D01*
X43169132Y-63074757D01*
X43157064Y-63212109D01*
X43076380Y-63988316D01*
X42978619Y-64593532D01*
X42853369Y-65061495D01*
X42690222Y-65425943D01*
X42478764Y-65720614D01*
X42338504Y-65864784D01*
X42179836Y-66034003D01*
X42143763Y-66181475D01*
X42214028Y-66402125D01*
X42236990Y-66457600D01*
X42346101Y-66892294D01*
X42379078Y-67442708D01*
X42335584Y-68034262D01*
X42246183Y-68484456D01*
X42078849Y-69010761D01*
X41873783Y-69423378D01*
X41602888Y-69793436D01*
X41413179Y-70177607D01*
X41362986Y-70695745D01*
X41453007Y-71331191D01*
X41527015Y-71609724D01*
X41637980Y-72280392D01*
X41563824Y-72942105D01*
X41299948Y-73609984D01*
X40841754Y-74299145D01*
X40632592Y-74550510D01*
X40500337Y-74712070D01*
X40415930Y-74864298D01*
X40369239Y-75056759D01*
X40350134Y-75339019D01*
X40348483Y-75760644D01*
X40349988Y-75933171D01*
X40345300Y-76463306D01*
X40311645Y-76903703D01*
X40237126Y-77336637D01*
X40109848Y-77844382D01*
X40035661Y-78107151D01*
X39891909Y-78581671D01*
X39751751Y-79001617D01*
X39632824Y-79316464D01*
X39562678Y-79462076D01*
X39265680Y-79749472D01*
X38836752Y-79952930D01*
X38337861Y-80054562D01*
X37830972Y-80036484D01*
X37683953Y-80004331D01*
X37232239Y-79790355D01*
X36917067Y-79426600D01*
X36735815Y-78909570D01*
X36704109Y-78697119D01*
X36647889Y-78271396D01*
X36567445Y-77769061D01*
X36497796Y-77390215D01*
X36412044Y-76922955D01*
X36333922Y-76438277D01*
X36289018Y-76109973D01*
X36227098Y-75716500D01*
X36129569Y-75232962D01*
X36021172Y-74778522D01*
X35931189Y-74354802D01*
X35856919Y-73819201D01*
X35795474Y-73143995D01*
X35743965Y-72301463D01*
X35727753Y-71961989D01*
X35654123Y-70459729D01*
X35576443Y-69134602D01*
X35495162Y-67992499D01*
X35410733Y-67039310D01*
X35323606Y-66280925D01*
X35261067Y-65868038D01*
X35181346Y-65384438D01*
X35089430Y-64788580D01*
X34999116Y-64171389D01*
X34950215Y-63819651D01*
X34841238Y-63043884D01*
X34748131Y-62450268D01*
X34666410Y-62017129D01*
X34591592Y-61722794D01*
X34519193Y-61545590D01*
X34465838Y-61478187D01*
X34298234Y-61443511D01*
X34004822Y-61530736D01*
X33882500Y-61584074D01*
X33461914Y-61725823D01*
X32961103Y-61819840D01*
X32451787Y-61859706D01*
X32005685Y-61839004D01*
X31744573Y-61775380D01*
X31460151Y-61553344D01*
X31240583Y-61173120D01*
X31095380Y-60673739D01*
X31034049Y-60094233D01*
X31066101Y-59473633D01*
X31114223Y-59187976D01*
X31172333Y-58866314D01*
X31177392Y-58620216D01*
X31110234Y-58397294D01*
X30951694Y-58145161D01*
X30682606Y-57811429D01*
X30556171Y-57662616D01*
X30327899Y-57367647D01*
X30135655Y-57047140D01*
X29967616Y-56668247D01*
X29811960Y-56198118D01*
X29656864Y-55603906D01*
X29490506Y-54852763D01*
X29418041Y-54500416D01*
X29273013Y-53844729D01*
X29130746Y-53343581D01*
X28975226Y-52947534D01*
X28820808Y-52656868D01*
X28604941Y-52274231D01*
X28447881Y-51925483D01*
X28334882Y-51557146D01*
X28251194Y-51115742D01*
X28182070Y-50547792D01*
X28150979Y-50227982D01*
X28102847Y-49751314D01*
X28054136Y-49341005D01*
X28011063Y-49045630D01*
X27983885Y-48922135D01*
X27992984Y-48910677D01*
X28032579Y-48899779D01*
X28107595Y-48889428D01*
X28222960Y-48879610D01*
X28383598Y-48870311D01*
X28594437Y-48861517D01*
X28860403Y-48853215D01*
X29186422Y-48845390D01*
X29577421Y-48838028D01*
X30038325Y-48831117D01*
X30574062Y-48824641D01*
X31189557Y-48818588D01*
X31889736Y-48812943D01*
X32679527Y-48807693D01*
X33563856Y-48802823D01*
X34547647Y-48798320D01*
X35635829Y-48794170D01*
X36833328Y-48790360D01*
X38145069Y-48786875D01*
X39575979Y-48783701D01*
X41130984Y-48780825D01*
X42815011Y-48778233D01*
X44632986Y-48775911D01*
X46589835Y-48773845D01*
X48690484Y-48772022D01*
X50939861Y-48770427D01*
X53342890Y-48769048D01*
X55904499Y-48767869D01*
X58629614Y-48766877D01*
X61523161Y-48766058D01*
X64590067Y-48765399D01*
X67835257Y-48764886D01*
X71263658Y-48764504D01*
X74880197Y-48764240D01*
X78689799Y-48764080D01*
X82697392Y-48764011D01*
X84316018Y-48764006D01*
X87705155Y-48764096D01*
G37*
G36*
X76676260Y-132639103D02*
G01*
X77118038Y-132751602D01*
X77461418Y-132955716D01*
X77610392Y-133142389D01*
X77660325Y-133311766D01*
X77724496Y-133639462D01*
X77795050Y-134080153D01*
X77864134Y-134588514D01*
X77871965Y-134652015D01*
X77994696Y-135551620D01*
X78124575Y-136277489D01*
X78268759Y-136860727D01*
X78434406Y-137332435D01*
X78542504Y-137565941D01*
X78640738Y-137783190D01*
X78696979Y-137997690D01*
X78716885Y-138265800D01*
X78706116Y-138643877D01*
X78684805Y-138983168D01*
X78658282Y-139534819D01*
X78675823Y-139976643D01*
X78754151Y-140361039D01*
X78909991Y-140740407D01*
X79160068Y-141167144D01*
X79521107Y-141693650D01*
X79573318Y-141766913D01*
X79884342Y-142219590D01*
X80177221Y-142676351D01*
X80413906Y-143076231D01*
X80532149Y-143303204D01*
X80632665Y-143506229D01*
X80719373Y-143677059D01*
X80777298Y-143818449D01*
X80791463Y-143933154D01*
X80746893Y-144023932D01*
X80628612Y-144093539D01*
X80421642Y-144144730D01*
X80111009Y-144180261D01*
X79681736Y-144202889D01*
X79118848Y-144215369D01*
X78407367Y-144220459D01*
X77532317Y-144220913D01*
X76478724Y-144219488D01*
X75556720Y-144218844D01*
X70319932Y-144218844D01*
X70379979Y-143834772D01*
X70489831Y-143507532D01*
X70735393Y-143199143D01*
X70858975Y-143085384D01*
X71109296Y-142838567D01*
X71268703Y-142585636D01*
X71382754Y-142244397D01*
X71426688Y-142061191D01*
X71529008Y-141726424D01*
X71709545Y-141256460D01*
X71949426Y-140696469D01*
X72229782Y-140091622D01*
X72365128Y-139814812D01*
X72665958Y-139217322D01*
X72906925Y-138764229D01*
X73115468Y-138414626D01*
X73319028Y-138127609D01*
X73545044Y-137862272D01*
X73820957Y-137577708D01*
X73952785Y-137448022D01*
X74381929Y-137004406D01*
X74653109Y-136666865D01*
X74761835Y-136441069D01*
X74763658Y-136423829D01*
X74769241Y-136234519D01*
X74775589Y-135885630D01*
X74782018Y-135422417D01*
X74787839Y-134890133D01*
X74789262Y-134735415D01*
X74800609Y-134105517D01*
X74823641Y-133652608D01*
X74861070Y-133349034D01*
X74915610Y-133167142D01*
X74948145Y-133115557D01*
X75272028Y-132856445D01*
X75702107Y-132691009D01*
X76187233Y-132618733D01*
X76676260Y-132639103D01*
G37*
G36*
X263666767Y-135134626D02*
G01*
X263692168Y-135240679D01*
X263575919Y-135440790D01*
X263311706Y-135754070D01*
X263279193Y-135789849D01*
X263076956Y-136029607D01*
X262990887Y-136172994D01*
X263031859Y-136197109D01*
X263306619Y-136124727D01*
X263643366Y-136074988D01*
X263976259Y-136052387D01*
X264239459Y-136061417D01*
X264366773Y-136105989D01*
X264395379Y-136305985D01*
X264247523Y-136476110D01*
X263951575Y-136584604D01*
X263936896Y-136587241D01*
X263605578Y-136672116D01*
X263316752Y-136788736D01*
X263304798Y-136795260D01*
X263187448Y-136869047D01*
X263191661Y-136904808D01*
X263343677Y-136907698D01*
X263669739Y-136882869D01*
X263725712Y-136877925D01*
X264153853Y-136857962D01*
X264406012Y-136897397D01*
X264504812Y-137005487D01*
X264475523Y-137184682D01*
X264328010Y-137298117D01*
X263991905Y-137383689D01*
X263816386Y-137408016D01*
X263456265Y-137468640D01*
X263159364Y-137551640D01*
X263031089Y-137613044D01*
X262940600Y-137683229D01*
X262918155Y-137739144D01*
X262992425Y-137801004D01*
X263192083Y-137889021D01*
X263545798Y-138023408D01*
X263688871Y-138076769D01*
X263942956Y-138196835D01*
X264009221Y-138313178D01*
X263902043Y-138454864D01*
X263883599Y-138470501D01*
X263729635Y-138529102D01*
X263461127Y-138519328D01*
X263163433Y-138468254D01*
X262581401Y-138351365D01*
X261933886Y-138790463D01*
X261690064Y-138959711D01*
X261500668Y-139111767D01*
X261341236Y-139281079D01*
X261187305Y-139502096D01*
X261014411Y-139809265D01*
X260798091Y-140237035D01*
X260559656Y-140725614D01*
X260252937Y-141337241D01*
X259914208Y-141980251D01*
X259579163Y-142588780D01*
X259283495Y-143096969D01*
X259207658Y-143220256D01*
X258582375Y-144218844D01*
X255711817Y-144218844D01*
X255906134Y-143937191D01*
X256031783Y-143727243D01*
X256215893Y-143385325D01*
X256430199Y-142965041D01*
X256579937Y-142659377D01*
X256800438Y-142220439D01*
X257007848Y-141865940D01*
X257240888Y-141543809D01*
X257538276Y-141201971D01*
X257938732Y-140788353D01*
X258064942Y-140662199D01*
X258743513Y-139958144D01*
X259466563Y-139158963D01*
X260166650Y-138341090D01*
X260725894Y-137646345D01*
X260821389Y-137469660D01*
X260954852Y-137157571D01*
X261105283Y-136767915D01*
X261251688Y-136358531D01*
X261373067Y-135987257D01*
X261448424Y-135711929D01*
X261462818Y-135616460D01*
X261522936Y-135352728D01*
X261681677Y-135253813D01*
X261857902Y-135301390D01*
X262033730Y-135489405D01*
X262075766Y-135741733D01*
X262075766Y-136065478D01*
X262408629Y-135756574D01*
X262858362Y-135386689D01*
X263245083Y-135164920D01*
X263506033Y-135103522D01*
X263666767Y-135134626D01*
G37*
G36*
X161572014Y-49199288D02*
G01*
X161490264Y-49524704D01*
X161311570Y-49795161D01*
X161107739Y-49993038D01*
X160880582Y-50219404D01*
X160719870Y-50463120D01*
X160589402Y-50791095D01*
X160488067Y-51138365D01*
X160363592Y-51514487D01*
X160165542Y-52015286D01*
X159917527Y-52585122D01*
X159643156Y-53168354D01*
X159531998Y-53391591D01*
X159230694Y-53975795D01*
X158984934Y-54419553D01*
X158763772Y-54768103D01*
X158536265Y-55066686D01*
X158271470Y-55360541D01*
X157993504Y-55640842D01*
X157198346Y-56423727D01*
X157188137Y-57945278D01*
X157179837Y-58503462D01*
X157163941Y-59006043D01*
X157142459Y-59409053D01*
X157117399Y-59668525D01*
X157106977Y-59721725D01*
X156977106Y-59944257D01*
X156746815Y-60168990D01*
X156692362Y-60208217D01*
X156305570Y-60371702D01*
X155814710Y-60446576D01*
X155301035Y-60431494D01*
X154845797Y-60325111D01*
X154672612Y-60241657D01*
X154506294Y-60131263D01*
X154388275Y-60011745D01*
X154304493Y-59843605D01*
X154240883Y-59587348D01*
X154183382Y-59203475D01*
X154123218Y-58698683D01*
X153986524Y-57658342D01*
X153837698Y-56818279D01*
X153675842Y-56174242D01*
X153500057Y-55721978D01*
X153490250Y-55703119D01*
X153387148Y-55485351D01*
X153322103Y-55267948D01*
X153288338Y-54998828D01*
X153279078Y-54625914D01*
X153286578Y-54137790D01*
X153289588Y-53526030D01*
X153253864Y-53040593D01*
X153161131Y-52625644D01*
X152993117Y-52225350D01*
X152731550Y-51783878D01*
X152358156Y-51245394D01*
X152324825Y-51199112D01*
X151858289Y-50517310D01*
X151502303Y-49922001D01*
X151266727Y-49431795D01*
X151161424Y-49065301D01*
X151156605Y-48994449D01*
X151155604Y-48764006D01*
X161629349Y-48764006D01*
X161572014Y-49199288D01*
G37*
G36*
X346741881Y-93556359D02*
G01*
X347452176Y-93762146D01*
X347612522Y-93836988D01*
X347918637Y-94032400D01*
X348258739Y-94306168D01*
X348434655Y-94472880D01*
X348929048Y-95109213D01*
X349234593Y-95799766D01*
X349347643Y-96523462D01*
X349264555Y-97259226D01*
X349027062Y-97898415D01*
X348619267Y-98532115D01*
X348088678Y-99083732D01*
X347489732Y-99499706D01*
X347309892Y-99587822D01*
X346850339Y-99722325D01*
X346280471Y-99790894D01*
X345680398Y-99792338D01*
X345130224Y-99725461D01*
X344787938Y-99625385D01*
X344439556Y-99534385D01*
X344212325Y-99597915D01*
X344116265Y-99812340D01*
X344113669Y-99870125D01*
X344149129Y-100057842D01*
X344247984Y-100404155D01*
X344398942Y-100876922D01*
X344590716Y-101443999D01*
X344812014Y-102073245D01*
X345051547Y-102732517D01*
X345298025Y-103389672D01*
X345540159Y-104012568D01*
X345750881Y-104531344D01*
X346670841Y-106980770D01*
X347404667Y-109467009D01*
X347950595Y-111975916D01*
X348306861Y-114493347D01*
X348471702Y-117005157D01*
X348443355Y-119497203D01*
X348220055Y-121955339D01*
X348057797Y-123033113D01*
X347674238Y-125065761D01*
X347239343Y-126918117D01*
X346744388Y-128610245D01*
X346180653Y-130162209D01*
X345539415Y-131594075D01*
X344811952Y-132925906D01*
X343989541Y-134177767D01*
X343063461Y-135369722D01*
X342338094Y-136190793D01*
X341956282Y-136581157D01*
X341494702Y-137020905D01*
X340996755Y-137471766D01*
X340505846Y-137895473D01*
X340065378Y-138253754D01*
X339718754Y-138508342D01*
X339683409Y-138531467D01*
X339401134Y-138712573D01*
X339720965Y-137957846D01*
X340012551Y-137278922D01*
X340251671Y-136751514D01*
X340460873Y-136336528D01*
X340662703Y-135994869D01*
X340879708Y-135687443D01*
X341134436Y-135375157D01*
X341355901Y-135123068D01*
X341718794Y-134737952D01*
X342089313Y-134379465D01*
X342415348Y-134096434D01*
X342583067Y-133973258D01*
X342909161Y-133743032D01*
X343194113Y-133505032D01*
X343400946Y-133294641D01*
X343492685Y-133147241D01*
X343485474Y-133109736D01*
X343377468Y-133128815D01*
X343144714Y-133227026D01*
X342879089Y-133361316D01*
X342443417Y-133570262D01*
X342141415Y-133658519D01*
X341983980Y-133623760D01*
X341962862Y-133557097D01*
X342021235Y-133431891D01*
X342178410Y-133185612D01*
X342407471Y-132858908D01*
X342577379Y-132629020D01*
X342837561Y-132275209D01*
X343043158Y-131979404D01*
X343167415Y-131781036D01*
X343191895Y-131723424D01*
X343141635Y-131590335D01*
X342990934Y-131635625D01*
X342739910Y-131859219D01*
X342410641Y-132234258D01*
X342065511Y-132640110D01*
X341835500Y-132880954D01*
X341720073Y-132960848D01*
X341718696Y-132883851D01*
X341830835Y-132654021D01*
X342055955Y-132275416D01*
X342393523Y-131752095D01*
X342493982Y-131601278D01*
X342689650Y-131301430D01*
X342829797Y-131071985D01*
X342884615Y-130961785D01*
X342884637Y-130961157D01*
X342798821Y-130914379D01*
X342686852Y-130904328D01*
X342512063Y-130996274D01*
X342253207Y-131269609D01*
X341923003Y-131707577D01*
X341552755Y-132216489D01*
X341283592Y-132547579D01*
X341114260Y-132700465D01*
X341043507Y-132674768D01*
X341070078Y-132470106D01*
X341192720Y-132086099D01*
X341399556Y-131548669D01*
X341582343Y-131090030D01*
X341693464Y-130788037D01*
X341739748Y-130610138D01*
X341728024Y-130523778D01*
X341665122Y-130496401D01*
X341620672Y-130494651D01*
X341491119Y-130585958D01*
X341305014Y-130841844D01*
X341078158Y-131235251D01*
X340826353Y-131739124D01*
X340603773Y-132235780D01*
X340360188Y-132789206D01*
X340168294Y-133180720D01*
X340010537Y-133441189D01*
X339869361Y-133601479D01*
X339796243Y-133655757D01*
X339680991Y-133702329D01*
X339584557Y-133650018D01*
X339473438Y-133465265D01*
X339359929Y-133218748D01*
X339150056Y-132836293D01*
X338923973Y-132575985D01*
X338710614Y-132465121D01*
X338586949Y-132489402D01*
X338568914Y-132608739D01*
X338633535Y-132845593D01*
X338689236Y-132980630D01*
X338816487Y-133367863D01*
X338885438Y-133784809D01*
X338889248Y-133874489D01*
X338919807Y-134253430D01*
X338993395Y-134690791D01*
X339039928Y-134888515D01*
X339114614Y-135198886D01*
X339131870Y-135428738D01*
X339083638Y-135661434D01*
X338961858Y-135980341D01*
X338926073Y-136066337D01*
X338796330Y-136356830D01*
X338592835Y-136788262D01*
X338335545Y-137319425D01*
X338044421Y-137909113D01*
X337740476Y-138514039D01*
X336815950Y-140337057D01*
X336193793Y-140651121D01*
X335838145Y-140812434D01*
X335355314Y-141006829D01*
X334814028Y-141207583D01*
X334377796Y-141357206D01*
X333932024Y-141492207D01*
X333384355Y-141640241D01*
X332763825Y-141795267D01*
X332099468Y-141951247D01*
X331420318Y-142102141D01*
X330755409Y-142241908D01*
X330133776Y-142364509D01*
X329584452Y-142463905D01*
X329136472Y-142534054D01*
X328818870Y-142568919D01*
X328660681Y-142562458D01*
X328648346Y-142549066D01*
X328686861Y-142377584D01*
X328790480Y-142063765D01*
X328941319Y-141652548D01*
X329121493Y-141188869D01*
X329313115Y-140717666D01*
X329498302Y-140283878D01*
X329659168Y-139932441D01*
X329777827Y-139708293D01*
X329780918Y-139703426D01*
X329950895Y-139407900D01*
X330060154Y-139159441D01*
X330082217Y-139060016D01*
X330167962Y-138670401D01*
X330400901Y-138234839D01*
X330744589Y-137798136D01*
X331162583Y-137405097D01*
X331618438Y-137100526D01*
X331715483Y-137052039D01*
X332071493Y-136867499D01*
X332234580Y-136741362D01*
X332209132Y-136677018D01*
X331999539Y-136677856D01*
X331610192Y-136747268D01*
X331388064Y-136799174D01*
X331190254Y-136827128D01*
X331126382Y-136773814D01*
X331202734Y-136627522D01*
X331425596Y-136376544D01*
X331801252Y-136009171D01*
X331823346Y-135988303D01*
X332216011Y-135597789D01*
X332459099Y-135312901D01*
X332552919Y-135140420D01*
X332497778Y-135087126D01*
X332293983Y-135159800D01*
X331941841Y-135365221D01*
X331799351Y-135459105D01*
X331518527Y-135638023D01*
X331311686Y-135750736D01*
X331229878Y-135773225D01*
X331217515Y-135631363D01*
X331303832Y-135386890D01*
X331459847Y-135097388D01*
X331656580Y-134820440D01*
X331774066Y-134691974D01*
X331982473Y-134474344D01*
X332110876Y-134310142D01*
X332130604Y-134264076D01*
X332058502Y-134184108D01*
X331875404Y-134218977D01*
X331631123Y-134356639D01*
X331575716Y-134398262D01*
X331357247Y-134532927D01*
X331235360Y-134541577D01*
X331241927Y-134435629D01*
X331330450Y-134310400D01*
X331496255Y-134070281D01*
X331561240Y-133875643D01*
X331511423Y-133776234D01*
X331481755Y-133772070D01*
X331291445Y-133858952D01*
X331042165Y-134096590D01*
X330762319Y-134450470D01*
X330480313Y-134886080D01*
X330309447Y-135196433D01*
X330056921Y-135626160D01*
X329798948Y-135958189D01*
X329561080Y-136167510D01*
X329368868Y-136229114D01*
X329292607Y-136191713D01*
X329242149Y-136053395D01*
X329192655Y-135775428D01*
X329160443Y-135479173D01*
X329126148Y-135132327D01*
X329079513Y-134942875D01*
X328997592Y-134863649D01*
X328857444Y-134847478D01*
X328853185Y-134847473D01*
X328674052Y-134876303D01*
X328616787Y-135004556D01*
X328621205Y-135154731D01*
X328638931Y-135458166D01*
X328649525Y-135844055D01*
X328653314Y-136345395D01*
X328650623Y-136995183D01*
X328644994Y-137561586D01*
X328635960Y-138078025D01*
X328615511Y-138446089D01*
X328572469Y-138722245D01*
X328495653Y-138962957D01*
X328373882Y-139224689D01*
X328279962Y-139405135D01*
X328056318Y-139773053D01*
X327741076Y-140220284D01*
X327384223Y-140678116D01*
X327171887Y-140928239D01*
X326817245Y-141349490D01*
X326475244Y-141789252D01*
X326194502Y-142183457D01*
X326072303Y-142377274D01*
X325843582Y-142726261D01*
X325612650Y-142939827D01*
X325319298Y-143049944D01*
X324903319Y-143088585D01*
X324728085Y-143091104D01*
X324443711Y-143092231D01*
X324796151Y-142568888D01*
X324974416Y-142293089D01*
X325075237Y-142077894D01*
X325115144Y-141850438D01*
X325110667Y-141537856D01*
X325092400Y-141263041D01*
X325042975Y-140772442D01*
X324969627Y-140459016D01*
X324858008Y-140295320D01*
X324693767Y-140253911D01*
X324574980Y-140273525D01*
X324333069Y-140280799D01*
X324194159Y-140225364D01*
X324032608Y-140175640D01*
X323922302Y-140247754D01*
X323726816Y-140387021D01*
X323501774Y-140505141D01*
X323301809Y-140624749D01*
X323220121Y-140734390D01*
X323137736Y-140828425D01*
X323073807Y-140839006D01*
X322877987Y-140881158D01*
X322742290Y-141025249D01*
X322657720Y-141297732D01*
X322615280Y-141725059D01*
X322605604Y-142215582D01*
X322605604Y-143270268D01*
X322221532Y-143333752D01*
X321695013Y-143396092D01*
X321345542Y-143377687D01*
X321161393Y-143277313D01*
X321133129Y-143220256D01*
X321098124Y-143050877D01*
X321042827Y-142726968D01*
X320975161Y-142296881D01*
X320910839Y-141863199D01*
X320850550Y-141430216D01*
X320811262Y-141075218D01*
X320794917Y-140755196D01*
X320803456Y-140427143D01*
X320838822Y-140048051D01*
X320902956Y-139574912D01*
X320997799Y-138964718D01*
X321058799Y-138585780D01*
X321127391Y-138114978D01*
X321171142Y-137718209D01*
X321186204Y-137438883D01*
X321170791Y-137322219D01*
X321103745Y-137281392D01*
X321041347Y-137344709D01*
X320966476Y-137544418D01*
X320866955Y-137894449D01*
X320761474Y-138226200D01*
X320680553Y-138359492D01*
X320626534Y-138299496D01*
X320601760Y-138051384D01*
X320608575Y-137620327D01*
X320623308Y-137356747D01*
X320648628Y-136834846D01*
X320642818Y-136502788D01*
X320605329Y-136347872D01*
X320578888Y-136332554D01*
X320501585Y-136424185D01*
X320429963Y-136657354D01*
X320401808Y-136819046D01*
X320330524Y-137274996D01*
X320267981Y-137531764D01*
X320216759Y-137588278D01*
X320179438Y-137443463D01*
X320158597Y-137096247D01*
X320155626Y-136921465D01*
X320143617Y-136467421D01*
X320114202Y-136187494D01*
X320062377Y-136051340D01*
X320007832Y-136025296D01*
X319905959Y-136122649D01*
X319823795Y-136395474D01*
X319766533Y-136814918D01*
X319739369Y-137352130D01*
X319737862Y-137524671D01*
X319721833Y-137828687D01*
X319680579Y-138028058D01*
X319642704Y-138073683D01*
X319578543Y-138004019D01*
X319503988Y-137784282D01*
X319414917Y-137398357D01*
X319307207Y-136830126D01*
X319269348Y-136614207D01*
X319184594Y-136351742D01*
X319071330Y-136233258D01*
X318969669Y-136270487D01*
X318919724Y-136475157D01*
X318919111Y-136511788D01*
X318934434Y-136733218D01*
X318975102Y-137096851D01*
X319034002Y-137542637D01*
X319072740Y-137808711D01*
X319151255Y-138342370D01*
X319198394Y-138712683D01*
X319215636Y-138958490D01*
X319204462Y-139118629D01*
X319166354Y-139231942D01*
X319129446Y-139296353D01*
X319043915Y-139367944D01*
X318905125Y-139335155D01*
X318663072Y-139184932D01*
X318639017Y-139168329D01*
X318310771Y-138977924D01*
X318055500Y-138893931D01*
X317899493Y-138907122D01*
X317869038Y-139008269D01*
X317990425Y-139188142D01*
X318156618Y-139337669D01*
X318401881Y-139560980D01*
X318707504Y-139877244D01*
X319007513Y-140218176D01*
X319008785Y-140219703D01*
X319185576Y-140435557D01*
X319321122Y-140623430D01*
X319424599Y-140816458D01*
X319505180Y-141047780D01*
X319572042Y-141350533D01*
X319634359Y-141757854D01*
X319701305Y-142302882D01*
X319780901Y-143008412D01*
X319834443Y-143487899D01*
X319299661Y-143545201D01*
X318946016Y-143574530D01*
X318472854Y-143602435D01*
X317965467Y-143624123D01*
X317807871Y-143629021D01*
X316850864Y-143655538D01*
X316593276Y-142989812D01*
X316254022Y-142023455D01*
X316043773Y-141208181D01*
X315961570Y-140536742D01*
X316006452Y-140001893D01*
X316149800Y-139639299D01*
X316331567Y-139255650D01*
X316481952Y-138778951D01*
X316592510Y-138262890D01*
X316654794Y-137761152D01*
X316660361Y-137327426D01*
X316600763Y-137015397D01*
X316571631Y-136957751D01*
X316409094Y-136865716D01*
X316303507Y-136882957D01*
X316195293Y-136963970D01*
X316162925Y-137130870D01*
X316188180Y-137405522D01*
X316208195Y-137690215D01*
X316186161Y-137879385D01*
X316164303Y-137913183D01*
X316022840Y-137901963D01*
X315885836Y-137720177D01*
X315769995Y-137401729D01*
X315692023Y-136980527D01*
X315688309Y-136947070D01*
X315609501Y-136467218D01*
X315486485Y-136014299D01*
X315337913Y-135641612D01*
X315182437Y-135402458D01*
X315133783Y-135362531D01*
X315001244Y-135318774D01*
X314968400Y-135423126D01*
X315033474Y-135689764D01*
X315076688Y-135817358D01*
X315179381Y-136150124D01*
X315218574Y-136365804D01*
X315197518Y-136442834D01*
X315119462Y-136359649D01*
X315022975Y-136173748D01*
X314863597Y-135880520D01*
X314692063Y-135642765D01*
X314539539Y-135493013D01*
X314437187Y-135463797D01*
X314412056Y-135536027D01*
X314449919Y-135729575D01*
X314543257Y-136005350D01*
X314565685Y-136060708D01*
X314669676Y-136402770D01*
X314715908Y-136740146D01*
X314716054Y-136764547D01*
X314712794Y-137100699D01*
X314207217Y-136537393D01*
X313927457Y-136245454D01*
X313763873Y-136121716D01*
X313716830Y-136165422D01*
X313786689Y-136375816D01*
X313973815Y-136752142D01*
X314042904Y-136879219D01*
X314309770Y-137392448D01*
X314454363Y-137742319D01*
X314476651Y-137929838D01*
X314376606Y-137956012D01*
X314154196Y-137821845D01*
X314017915Y-137712572D01*
X313787188Y-137547902D01*
X313677105Y-137531752D01*
X313688240Y-137646686D01*
X313821164Y-137875267D01*
X314004705Y-138115132D01*
X314246825Y-138447387D01*
X314443709Y-138786701D01*
X314524448Y-138977851D01*
X314562230Y-139193112D01*
X314599718Y-139577327D01*
X314634595Y-140094621D01*
X314664545Y-140709120D01*
X314687252Y-141384949D01*
X314691754Y-141569413D01*
X314741458Y-143784902D01*
X313219701Y-143847325D01*
X312613353Y-143870981D01*
X311868623Y-143898153D01*
X311051885Y-143926528D01*
X310229513Y-143953794D01*
X309557329Y-143974928D01*
X307416715Y-144040107D01*
X307488580Y-143694193D01*
X307595164Y-143037435D01*
X307616911Y-142436572D01*
X307554737Y-141789697D01*
X307508257Y-141504731D01*
X307386792Y-140853192D01*
X307282487Y-140381865D01*
X307187999Y-140067599D01*
X307095982Y-139887237D01*
X306999094Y-139817627D01*
X306972250Y-139814812D01*
X306820617Y-139728924D01*
X306760744Y-139611747D01*
X306636783Y-139427928D01*
X306408912Y-139259843D01*
X306394409Y-139252421D01*
X306127705Y-139154712D01*
X305897546Y-139181575D01*
X305802547Y-139219494D01*
X305622438Y-139359361D01*
X305500312Y-139610235D01*
X305428762Y-139999983D01*
X305400377Y-140556470D01*
X305399153Y-140736586D01*
X305385617Y-141153395D01*
X305349801Y-141554671D01*
X305298892Y-141890464D01*
X305240078Y-142110828D01*
X305192818Y-142170457D01*
X305105900Y-142086055D01*
X304996911Y-141880716D01*
X304987854Y-141859285D01*
X304799990Y-141565368D01*
X304557166Y-141397777D01*
X304312177Y-141392581D01*
X304218098Y-141459144D01*
X304250895Y-141584613D01*
X304308765Y-141682121D01*
X304439003Y-141939353D01*
X304563523Y-142259186D01*
X304575223Y-142295140D01*
X304748475Y-142623695D01*
X305053025Y-142988270D01*
X305201154Y-143130141D01*
X305489429Y-143422636D01*
X305666429Y-143672335D01*
X305706411Y-143799208D01*
X305701954Y-143861243D01*
X305673920Y-143910012D01*
X305600314Y-143947111D01*
X305459142Y-143974136D01*
X305228410Y-143992683D01*
X304886122Y-144004346D01*
X304410284Y-144010723D01*
X303778902Y-144013409D01*
X302969980Y-144013998D01*
X302745836Y-144014006D01*
X299785261Y-144014006D01*
X299894475Y-143658154D01*
X299985943Y-143456053D01*
X300151298Y-143261123D01*
X300427110Y-143038298D01*
X300816046Y-142774491D01*
X301263484Y-142508649D01*
X301705057Y-142288669D01*
X302069958Y-142149026D01*
X302136226Y-142131754D01*
X302430135Y-142058666D01*
X302558568Y-141994421D01*
X302556936Y-141907816D01*
X302495738Y-141814959D01*
X302404985Y-141712923D01*
X302289489Y-141664685D01*
X302096922Y-141665760D01*
X301774954Y-141711660D01*
X301611995Y-141739202D01*
X301239726Y-141793435D01*
X300945534Y-141818579D01*
X300788056Y-141809844D01*
X300782213Y-141807003D01*
X300705210Y-141646750D01*
X300693265Y-141321012D01*
X300743851Y-140857669D01*
X300854438Y-140284603D01*
X300958647Y-139861395D01*
X301104557Y-139295569D01*
X301193952Y-138898083D01*
X301229592Y-138641204D01*
X301214237Y-138497197D01*
X301150645Y-138438327D01*
X301100840Y-138432151D01*
X300986148Y-138528846D01*
X300832797Y-138807433D01*
X300650102Y-139250659D01*
X300630818Y-139302715D01*
X300438450Y-139789225D01*
X300286634Y-140079918D01*
X300170073Y-140173148D01*
X300083465Y-140067271D01*
X300021514Y-139760642D01*
X299978919Y-139251615D01*
X299970927Y-139097876D01*
X299941708Y-138601368D01*
X299906632Y-138278291D01*
X299859758Y-138097239D01*
X299795144Y-138026805D01*
X299767491Y-138022473D01*
X299694488Y-138027373D01*
X299643155Y-138064903D01*
X299606103Y-138169314D01*
X299575938Y-138374853D01*
X299545270Y-138715770D01*
X299506707Y-139226313D01*
X299506198Y-139233171D01*
X299470195Y-139625148D01*
X299429992Y-139916510D01*
X299392048Y-140065374D01*
X299376527Y-140073906D01*
X299336928Y-139950142D01*
X299284762Y-139673171D01*
X299228991Y-139293491D01*
X299207093Y-139119257D01*
X299143671Y-138664830D01*
X299079671Y-138385318D01*
X299006406Y-138250956D01*
X298946733Y-138227312D01*
X298876578Y-138260281D01*
X298830940Y-138381234D01*
X298805095Y-138623237D01*
X298794320Y-139019358D01*
X298793104Y-139302715D01*
X298781243Y-139855018D01*
X298740400Y-140208770D01*
X298662690Y-140369170D01*
X298540227Y-140341416D01*
X298365124Y-140130708D01*
X298129495Y-139742243D01*
X298128643Y-139740734D01*
X297934680Y-139426344D01*
X297762190Y-139197785D01*
X297646371Y-139101245D01*
X297640887Y-139100613D01*
X297554107Y-139117966D01*
X297526459Y-139195878D01*
X297564940Y-139365821D01*
X297676549Y-139659264D01*
X297861227Y-140091504D01*
X298200357Y-141105628D01*
X298337179Y-141841396D01*
X298394892Y-142315946D01*
X298415056Y-142657965D01*
X298395126Y-142936748D01*
X298332560Y-143221590D01*
X298279857Y-143403291D01*
X298094947Y-144014006D01*
X295896949Y-144014006D01*
X295829196Y-143652848D01*
X295763810Y-143377634D01*
X295654420Y-142987846D01*
X295523390Y-142562702D01*
X295508423Y-142516588D01*
X295383291Y-142117473D01*
X295318990Y-141828965D01*
X295309993Y-141567877D01*
X295350777Y-141251023D01*
X295404864Y-140957383D01*
X295499909Y-140518962D01*
X295608621Y-140106946D01*
X295708337Y-139806763D01*
X295713323Y-139794686D01*
X295801107Y-139499181D01*
X295775512Y-139343774D01*
X295666364Y-139322099D01*
X295503486Y-139427789D01*
X295316704Y-139654479D01*
X295174292Y-139909742D01*
X295025841Y-140151460D01*
X294873446Y-140292922D01*
X294842959Y-140303828D01*
X294593599Y-140251547D01*
X294331463Y-140016742D01*
X294074053Y-139619479D01*
X293887110Y-139207953D01*
X293723865Y-138838245D01*
X293574642Y-138583773D01*
X293462568Y-138483617D01*
X293458247Y-138483360D01*
X293339516Y-138539394D01*
X293333471Y-138719821D01*
X293441579Y-139043129D01*
X293516258Y-139214716D01*
X293661939Y-139590807D01*
X293718322Y-139865923D01*
X293680369Y-140007573D01*
X293641089Y-140019651D01*
X293546254Y-139941817D01*
X293372195Y-139736468D01*
X293154343Y-139445831D01*
X293125463Y-139405135D01*
X292893851Y-139105084D01*
X292686769Y-138886234D01*
X292545479Y-138791599D01*
X292535950Y-138790618D01*
X292420870Y-138829684D01*
X292420654Y-138867433D01*
X292489998Y-138987639D01*
X292634787Y-139233043D01*
X292825198Y-139553125D01*
X292847440Y-139590374D01*
X293052362Y-139959605D01*
X293153422Y-140198869D01*
X293151073Y-140296330D01*
X293045767Y-140240149D01*
X292837956Y-140018491D01*
X292831386Y-140010650D01*
X292511819Y-139631323D01*
X292296847Y-139386674D01*
X292161746Y-139252529D01*
X292081791Y-139204710D01*
X292032256Y-139219041D01*
X292026925Y-139224046D01*
X292036508Y-139348049D01*
X292181148Y-139608890D01*
X292463395Y-140010693D01*
X292724493Y-140352792D01*
X292871996Y-140603832D01*
X292851976Y-140749076D01*
X292676372Y-140781480D01*
X292357125Y-140694002D01*
X292233317Y-140642529D01*
X291950722Y-140529035D01*
X291753412Y-140471269D01*
X291700085Y-140472481D01*
X291699465Y-140593471D01*
X291874449Y-140753446D01*
X292203919Y-140934298D01*
X292277088Y-140967271D01*
X292634144Y-141154758D01*
X293030216Y-141407598D01*
X293241429Y-141563172D01*
X293514509Y-141774144D01*
X293725472Y-141927954D01*
X293815232Y-141984213D01*
X293858374Y-142093909D01*
X293905409Y-142361065D01*
X293949001Y-142738610D01*
X293967966Y-142964207D01*
X294037964Y-143911586D01*
X292975075Y-143911586D01*
X292442069Y-143906085D01*
X291789452Y-143891132D01*
X291102113Y-143869050D01*
X290499084Y-143843815D01*
X289935168Y-143813864D01*
X289551683Y-143784938D01*
X289324277Y-143753148D01*
X289228600Y-143714603D01*
X289240304Y-143665413D01*
X289263304Y-143646383D01*
X289478967Y-143544642D01*
X289783597Y-143459870D01*
X289845303Y-143448352D01*
X290095189Y-143393806D01*
X290175645Y-143328618D01*
X290122504Y-143226382D01*
X290002849Y-143142461D01*
X289796993Y-143112642D01*
X289453645Y-143131313D01*
X289349913Y-143141869D01*
X288704798Y-143210955D01*
X288704798Y-142818404D01*
X288733726Y-142516749D01*
X288809373Y-142110749D01*
X288909637Y-141709570D01*
X289011372Y-141328815D01*
X289084691Y-141006714D01*
X289114407Y-140810323D01*
X289114475Y-140805192D01*
X289081067Y-140651011D01*
X288992899Y-140668508D01*
X288868058Y-140837909D01*
X288724632Y-141139444D01*
X288664516Y-141297061D01*
X288500511Y-141705006D01*
X288372408Y-141911768D01*
X288279273Y-141917078D01*
X288220176Y-141720666D01*
X288194183Y-141322265D01*
X288192701Y-141160843D01*
X288179670Y-140748656D01*
X288144439Y-140439286D01*
X288092799Y-140279883D01*
X288083468Y-140271488D01*
X287994732Y-140234330D01*
X287933498Y-140275876D01*
X287889175Y-140429090D01*
X287851171Y-140726937D01*
X287817561Y-141099052D01*
X287768398Y-141488204D01*
X287709596Y-141690089D01*
X287652072Y-141700887D01*
X287606747Y-141516780D01*
X287585384Y-141180245D01*
X287561069Y-140896764D01*
X287516018Y-140693753D01*
X287424468Y-140537304D01*
X287349049Y-140579644D01*
X287291936Y-140815201D01*
X287255303Y-141238400D01*
X287249464Y-141376707D01*
X287219717Y-142221667D01*
X287014879Y-142007263D01*
X286824077Y-141768248D01*
X286633056Y-141472504D01*
X286616986Y-141443957D01*
X286476968Y-141231320D01*
X286397124Y-141189103D01*
X286379049Y-141291441D01*
X286424336Y-141512472D01*
X286534579Y-141826331D01*
X286585982Y-141946984D01*
X286747209Y-142389502D01*
X286874716Y-142879948D01*
X286917881Y-143133691D01*
X286991233Y-143738457D01*
X285825233Y-143673777D01*
X285267823Y-143644627D01*
X284587787Y-143611737D01*
X283867198Y-143578944D01*
X283188130Y-143550086D01*
X283122943Y-143547454D01*
X282576065Y-143523392D01*
X282098038Y-143498377D01*
X281728116Y-143474770D01*
X281505553Y-143454929D01*
X281463415Y-143447702D01*
X281441999Y-143343253D01*
X281481277Y-143098081D01*
X281566050Y-142761720D01*
X281681118Y-142383707D01*
X281811280Y-142013578D01*
X281941337Y-141700867D01*
X282056088Y-141495112D01*
X282066695Y-141481651D01*
X282213357Y-141370985D01*
X282496003Y-141206659D01*
X282863229Y-141017744D01*
X283016413Y-140944548D01*
X283514578Y-140687578D01*
X283948300Y-140418629D01*
X284289112Y-140160073D01*
X284508549Y-139934282D01*
X284578145Y-139763628D01*
X284565769Y-139726881D01*
X284408510Y-139650951D01*
X284140490Y-139721430D01*
X283786285Y-139930968D01*
X283718961Y-139980120D01*
X283499734Y-140129541D01*
X283366086Y-140158240D01*
X283247609Y-140078262D01*
X283232470Y-140063336D01*
X283069374Y-139776772D01*
X283074982Y-139451489D01*
X283228096Y-139125565D01*
X283507524Y-138837081D01*
X283892070Y-138624114D01*
X284063439Y-138570381D01*
X284332040Y-138488998D01*
X284430203Y-138411883D01*
X284392671Y-138317062D01*
X284188551Y-138207729D01*
X283884182Y-138181998D01*
X283567503Y-138242576D01*
X283462828Y-138288467D01*
X283311362Y-138350208D01*
X283290820Y-138286928D01*
X283297955Y-138262862D01*
X283417418Y-138163401D01*
X283669458Y-138067547D01*
X283824551Y-138030418D01*
X284097270Y-137956951D01*
X284255169Y-137875123D01*
X284272522Y-137835323D01*
X284162158Y-137748568D01*
X283921471Y-137644791D01*
X283783382Y-137599683D01*
X283259258Y-137524994D01*
X282806077Y-137622986D01*
X282452430Y-137887083D01*
X282249251Y-138124893D01*
X282313127Y-137843239D01*
X282331055Y-137630856D01*
X282242619Y-137562035D01*
X282228549Y-137561586D01*
X282075540Y-137654592D01*
X281898133Y-137905671D01*
X281716269Y-138272910D01*
X281549889Y-138714400D01*
X281418931Y-139188230D01*
X281391225Y-139321518D01*
X281236987Y-139905161D01*
X281011681Y-140494537D01*
X280890217Y-140743012D01*
X280677663Y-141160893D01*
X280477846Y-141592572D01*
X280349602Y-141904514D01*
X280164163Y-142406717D01*
X279614722Y-141816426D01*
X279282655Y-141441957D01*
X278904140Y-140988440D01*
X278551907Y-140543426D01*
X278495304Y-140468852D01*
X278210177Y-140071465D01*
X278041012Y-139756955D01*
X277989153Y-139476010D01*
X278055943Y-139179315D01*
X278242726Y-138817556D01*
X278550846Y-138341418D01*
X278553381Y-138337643D01*
X279056412Y-137588845D01*
X279002252Y-136679046D01*
X278961298Y-136136692D01*
X278905171Y-135769922D01*
X278819700Y-135549484D01*
X278690711Y-135446126D01*
X278504032Y-135430596D01*
X278403615Y-135443454D01*
X278154537Y-135456229D01*
X278005044Y-135412926D01*
X277997808Y-135404036D01*
X277839524Y-135311775D01*
X277621964Y-135344555D01*
X277433816Y-135485768D01*
X277414900Y-135513199D01*
X277222776Y-135676238D01*
X277059168Y-135718038D01*
X276832365Y-135797766D01*
X276728038Y-135911095D01*
X276552550Y-136084551D01*
X276365967Y-136169095D01*
X276172880Y-136251324D01*
X276107217Y-136334505D01*
X276074460Y-136445992D01*
X275975418Y-136371544D01*
X275808939Y-136109437D01*
X275573869Y-135657946D01*
X275369412Y-135231546D01*
X274982900Y-134393054D01*
X274692346Y-133732639D01*
X274496794Y-133247916D01*
X274395284Y-132936500D01*
X274386860Y-132796008D01*
X274389696Y-132792549D01*
X274503254Y-132781138D01*
X274796194Y-132777505D01*
X275243224Y-132781239D01*
X275819051Y-132791931D01*
X276498383Y-132809171D01*
X277255927Y-132832548D01*
X277608626Y-132844713D01*
X279744533Y-132918139D01*
X281767898Y-132981985D01*
X283721666Y-133037200D01*
X285648785Y-133084732D01*
X287592198Y-133125532D01*
X289594853Y-133160549D01*
X291699694Y-133190732D01*
X293949666Y-133217030D01*
X294875564Y-133226437D01*
X301712056Y-133293289D01*
X301712056Y-129968486D01*
X301709229Y-129125438D01*
X301701164Y-128363466D01*
X301688485Y-127705233D01*
X301671818Y-127173400D01*
X301651786Y-126790629D01*
X301629013Y-126579583D01*
X301617768Y-126546385D01*
X301588105Y-126402376D01*
X301590118Y-126082467D01*
X301622846Y-125612978D01*
X301668063Y-125168844D01*
X301713602Y-124722200D01*
X301768614Y-124112688D01*
X301829729Y-123381876D01*
X301893579Y-122571332D01*
X301956795Y-121722624D01*
X302016008Y-120877320D01*
X302016690Y-120867231D01*
X302075704Y-120048131D01*
X302140136Y-119248609D01*
X302206554Y-118504899D01*
X302271527Y-117853232D01*
X302331624Y-117329840D01*
X302383414Y-116970955D01*
X302388153Y-116944702D01*
X302458040Y-116541063D01*
X302503861Y-116220932D01*
X302519231Y-116032005D01*
X302514279Y-116002250D01*
X302405488Y-116013388D01*
X302145776Y-116076663D01*
X301778965Y-116180699D01*
X301508665Y-116263288D01*
X300969358Y-116426115D01*
X300591644Y-116521678D01*
X300344880Y-116553444D01*
X300198419Y-116524882D01*
X300121616Y-116439459D01*
X300113888Y-116421122D01*
X300110716Y-116288250D01*
X300126627Y-115976771D01*
X300159237Y-115511791D01*
X300206164Y-114918412D01*
X300265026Y-114221740D01*
X300333438Y-113446879D01*
X300409019Y-112618933D01*
X300489386Y-111763006D01*
X300572155Y-110904202D01*
X300654943Y-110067627D01*
X300735369Y-109278384D01*
X300811049Y-108561578D01*
X300879599Y-107942313D01*
X300938638Y-107445693D01*
X300985783Y-107096822D01*
X301013992Y-106938199D01*
X301252596Y-106265244D01*
X301632853Y-105566987D01*
X302114800Y-104897350D01*
X302658472Y-104310255D01*
X303223906Y-103859624D01*
X303354818Y-103779816D01*
X303633014Y-103605583D01*
X303758528Y-103473398D01*
X303765774Y-103341923D01*
X303752354Y-103302298D01*
X303700226Y-103071751D01*
X303668513Y-102748830D01*
X303665222Y-102650523D01*
X303672347Y-102427081D01*
X303720808Y-102244295D01*
X303838686Y-102054484D01*
X304054063Y-101809966D01*
X304320583Y-101537747D01*
X304622198Y-101220662D01*
X304867079Y-100937180D01*
X305017942Y-100731602D01*
X305045009Y-100676995D01*
X305031978Y-100509030D01*
X304884384Y-100284962D01*
X304645051Y-100033226D01*
X304333394Y-99685220D01*
X304166748Y-99372145D01*
X304123082Y-99190122D01*
X304001186Y-98495496D01*
X303863905Y-97941882D01*
X303693956Y-97465464D01*
X303597380Y-97249008D01*
X303450506Y-96913891D01*
X303392671Y-96688080D01*
X303412209Y-96502510D01*
X303452424Y-96390844D01*
X303707151Y-96024790D01*
X304119959Y-95720140D01*
X304648113Y-95497881D01*
X305248882Y-95379004D01*
X305541444Y-95364812D01*
X305791344Y-95378965D01*
X306029088Y-95434446D01*
X306302749Y-95550787D01*
X306660401Y-95747523D01*
X307027200Y-95968491D01*
X307489297Y-96246479D01*
X307949195Y-96513606D01*
X308342861Y-96733127D01*
X308538444Y-96835661D01*
X308973882Y-97102706D01*
X309296787Y-97400625D01*
X309473223Y-97694341D01*
X309495927Y-97825342D01*
X309434221Y-98032220D01*
X309300280Y-98246636D01*
X309104634Y-98488249D01*
X309607538Y-99019996D01*
X309901426Y-99350641D01*
X310057280Y-99598175D01*
X310091305Y-99814286D01*
X310019704Y-100050661D01*
X309965476Y-100161772D01*
X309894847Y-100327675D01*
X309893244Y-100478232D01*
X309975546Y-100673911D01*
X310156633Y-100975176D01*
X310171410Y-100998638D01*
X310487215Y-101564336D01*
X310732960Y-102133509D01*
X310887029Y-102649261D01*
X310929798Y-102994768D01*
X310966183Y-103246862D01*
X311101041Y-103477679D01*
X311348767Y-103732911D01*
X311585834Y-103991551D01*
X311877975Y-104367395D01*
X312179274Y-104799435D01*
X312334703Y-105042885D01*
X312701930Y-105619213D01*
X313037721Y-106105961D01*
X313325602Y-106481877D01*
X313549096Y-106725708D01*
X313691728Y-106816201D01*
X313708016Y-106814411D01*
X313781258Y-106716214D01*
X313925667Y-106463598D01*
X314124862Y-106087332D01*
X314362460Y-105618186D01*
X314567701Y-105199731D01*
X314855791Y-104596441D01*
X315062599Y-104139305D01*
X315200965Y-103792543D01*
X315283730Y-103520376D01*
X315323735Y-103287024D01*
X315333830Y-103064960D01*
X315349444Y-102719161D01*
X315419085Y-102488179D01*
X315576952Y-102282955D01*
X315669409Y-102191062D01*
X315956626Y-101946623D01*
X316252399Y-101740981D01*
X316318329Y-101703616D01*
X316631670Y-101538791D01*
X316498912Y-100781842D01*
X316398034Y-100082101D01*
X316373349Y-99556605D01*
X316424973Y-99189414D01*
X316511709Y-99011106D01*
X316644646Y-98880497D01*
X316774926Y-98915796D01*
X316831575Y-98959897D01*
X317019455Y-99189742D01*
X317175063Y-99553467D01*
X317307980Y-100077891D01*
X317385744Y-100511385D01*
X317512740Y-101305135D01*
X317848550Y-101305135D01*
X318163445Y-101399136D01*
X318461065Y-101648033D01*
X318713407Y-102002163D01*
X318892465Y-102411863D01*
X318970237Y-102827471D01*
X318918719Y-103199326D01*
X318917890Y-103201516D01*
X318849170Y-103487654D01*
X318816516Y-103830946D01*
X318816088Y-103868722D01*
X318766305Y-104208791D01*
X318590243Y-104518884D01*
X318494574Y-104634352D01*
X318173060Y-105000537D01*
X320029608Y-115059086D01*
X320293388Y-116489830D01*
X320549179Y-117880379D01*
X320794184Y-119215350D01*
X321025604Y-120479359D01*
X321240641Y-121657023D01*
X321436498Y-122732959D01*
X321610377Y-123691782D01*
X321759478Y-124518109D01*
X321881006Y-125196557D01*
X321972160Y-125711742D01*
X322030145Y-126048281D01*
X322045370Y-126141828D01*
X322115454Y-126670380D01*
X322174357Y-127265652D01*
X322221427Y-127898255D01*
X322256010Y-128538798D01*
X322277455Y-129157892D01*
X322285108Y-129726145D01*
X322278316Y-130214170D01*
X322256428Y-130592574D01*
X322218789Y-130831969D01*
X322164747Y-130902964D01*
X322150907Y-130893382D01*
X322127779Y-130789580D01*
X322069970Y-130496258D01*
X321979711Y-130025383D01*
X321859231Y-129388922D01*
X321710759Y-128598841D01*
X321536523Y-127667107D01*
X321338753Y-126605687D01*
X321119679Y-125426546D01*
X320881529Y-124141651D01*
X320626533Y-122762970D01*
X320356919Y-121302468D01*
X320074917Y-119772113D01*
X319782756Y-118183870D01*
X319739461Y-117948280D01*
X319445636Y-116350216D01*
X319161490Y-114806745D01*
X318889271Y-113329975D01*
X318631225Y-111932011D01*
X318389599Y-110624959D01*
X318166640Y-109420926D01*
X317964594Y-108332019D01*
X317785707Y-107370343D01*
X317632227Y-106548005D01*
X317506400Y-105877112D01*
X317410473Y-105369769D01*
X317346693Y-105038083D01*
X317317305Y-104894160D01*
X317316108Y-104889812D01*
X317253735Y-104831165D01*
X317152394Y-104951415D01*
X317108031Y-105031138D01*
X317026032Y-105252844D01*
X316991601Y-105548345D01*
X317000102Y-105972119D01*
X317012140Y-106157751D01*
X317082167Y-107197916D01*
X317126487Y-108062948D01*
X317142921Y-108781198D01*
X317129285Y-109381019D01*
X317083399Y-109890760D01*
X317003080Y-110338773D01*
X316886148Y-110753408D01*
X316730421Y-111163018D01*
X316605357Y-111444317D01*
X316365034Y-111917356D01*
X316143771Y-112211758D01*
X315900089Y-112344577D01*
X315592508Y-112332863D01*
X315179550Y-112193670D01*
X314985186Y-112110376D01*
X314519810Y-111926518D01*
X314180304Y-111860844D01*
X313920252Y-111920743D01*
X313693235Y-112113607D01*
X313521120Y-112343461D01*
X313148368Y-112971354D01*
X312937528Y-113524064D01*
X312875766Y-114000866D01*
X312890156Y-114207671D01*
X312931392Y-114596115D01*
X312996577Y-115145170D01*
X313082811Y-115833805D01*
X313187194Y-116640994D01*
X313306827Y-117545707D01*
X313438811Y-118526916D01*
X313580248Y-119563591D01*
X313728237Y-120634705D01*
X313879880Y-121719229D01*
X314032277Y-122796134D01*
X314182530Y-123844392D01*
X314327739Y-124842974D01*
X314465005Y-125770851D01*
X314591428Y-126606995D01*
X314704111Y-127330377D01*
X314768478Y-127729328D01*
X314896107Y-128514561D01*
X315019856Y-129291291D01*
X315133449Y-130018957D01*
X315230609Y-130656999D01*
X315305059Y-131164857D01*
X315343007Y-131442030D01*
X315404913Y-131864913D01*
X315467959Y-132199046D01*
X315523122Y-132400921D01*
X315550095Y-132440618D01*
X315742551Y-132420730D01*
X316102866Y-132365175D01*
X316598376Y-132280120D01*
X317196419Y-132171730D01*
X317864329Y-132046171D01*
X318569445Y-131909609D01*
X319279103Y-131768210D01*
X319960640Y-131628140D01*
X320581392Y-131495565D01*
X320730361Y-131462737D01*
X323516974Y-130787711D01*
X326133082Y-130038629D01*
X328576442Y-129216862D01*
X330844812Y-128323783D01*
X332935950Y-127360761D01*
X334847612Y-126329170D01*
X336577557Y-125230380D01*
X338123541Y-124065763D01*
X339483323Y-122836689D01*
X340654660Y-121544532D01*
X341635310Y-120190662D01*
X342423029Y-118776450D01*
X342768812Y-117984574D01*
X343018381Y-117281203D01*
X343202498Y-116577989D01*
X343328151Y-115828756D01*
X343402329Y-114987326D01*
X343432022Y-114007522D01*
X343433116Y-113595457D01*
X343395718Y-112277448D01*
X343287415Y-111001279D01*
X343100550Y-109722533D01*
X342827467Y-108396791D01*
X342460509Y-106979636D01*
X342064486Y-105655427D01*
X341774502Y-104714900D01*
X341547455Y-103926064D01*
X341376106Y-103248170D01*
X341253218Y-102640467D01*
X341171550Y-102062205D01*
X341123864Y-101472633D01*
X341102920Y-100831001D01*
X341100661Y-100229731D01*
X341118562Y-99337663D01*
X341169615Y-98598256D01*
X341264041Y-97960620D01*
X341412063Y-97373866D01*
X341623901Y-96787104D01*
X341909778Y-96149444D01*
X341927729Y-96112141D01*
X342303643Y-95460214D01*
X342764440Y-94860649D01*
X343273053Y-94351591D01*
X343792417Y-93971184D01*
X344188114Y-93785987D01*
X345068703Y-93567667D01*
X345933674Y-93491328D01*
X346741881Y-93556359D01*
G37*
G36*
X273856057Y-140992635D02*
G01*
X276312056Y-140992635D01*
X276363266Y-141043844D01*
X276414475Y-140992635D01*
X276363266Y-140941425D01*
X276312056Y-140992635D01*
X273856057Y-140992635D01*
X274067396Y-140583791D01*
X274194923Y-140376222D01*
X274434793Y-140003143D01*
X274670695Y-139615272D01*
X274776733Y-139430739D01*
X274995700Y-139134056D01*
X275197077Y-139010698D01*
X275344393Y-139045300D01*
X275401180Y-139222498D01*
X275330969Y-139526929D01*
X275278924Y-139642311D01*
X275286072Y-139688658D01*
X275407921Y-139604063D01*
X275618945Y-139406904D01*
X275651512Y-139374050D01*
X275995432Y-139064997D01*
X276258933Y-138914993D01*
X276351781Y-138902787D01*
X276619871Y-138883820D01*
X276747338Y-138846099D01*
X276975851Y-138807735D01*
X277151162Y-138873473D01*
X277205977Y-139013131D01*
X277196461Y-139047530D01*
X277189540Y-139179144D01*
X277226087Y-139200296D01*
X277359752Y-139272535D01*
X277365030Y-139468579D01*
X277247665Y-139757415D01*
X277072362Y-140030330D01*
X276875037Y-140318871D01*
X276806258Y-140478390D01*
X276856776Y-140531427D01*
X276866640Y-140531747D01*
X276993834Y-140598098D01*
X277019031Y-140808165D01*
X276943545Y-141178469D01*
X276923670Y-141248683D01*
X276759849Y-141558594D01*
X276485589Y-141851923D01*
X276165163Y-142073928D01*
X275862850Y-142169868D01*
X275841344Y-142170457D01*
X275417938Y-142238698D01*
X275105655Y-142459255D01*
X274871062Y-142855879D01*
X274868762Y-142861373D01*
X274693898Y-143258219D01*
X274500541Y-143665788D01*
X274441194Y-143783562D01*
X274216737Y-144218844D01*
X271591937Y-144218844D01*
X272178892Y-143476304D01*
X272494335Y-143085156D01*
X272814753Y-142700833D01*
X273083408Y-142391057D01*
X273144226Y-142324086D01*
X273405600Y-141973344D01*
X273625421Y-141564319D01*
X273688655Y-141400416D01*
X273771028Y-141197473D01*
X276209637Y-141197473D01*
X276260846Y-141248683D01*
X276312056Y-141197473D01*
X276260846Y-141146264D01*
X276209637Y-141197473D01*
X273771028Y-141197473D01*
X273847277Y-141009620D01*
X273856057Y-140992635D01*
G37*
G36*
X246598778Y-135413338D02*
G01*
X246653045Y-135446796D01*
X246832385Y-135656083D01*
X246897857Y-135846877D01*
X246929222Y-136106110D01*
X247445850Y-135758445D01*
X247757902Y-135582752D01*
X248074073Y-135458844D01*
X248344273Y-135399357D01*
X248518415Y-135416928D01*
X248556411Y-135478278D01*
X248486591Y-135577160D01*
X248304307Y-135768884D01*
X248071348Y-135991112D01*
X247586285Y-136436448D01*
X248387801Y-136368695D01*
X249189316Y-136300942D01*
X249154517Y-136547192D01*
X249052867Y-136756000D01*
X248863669Y-136824754D01*
X248587716Y-136880267D01*
X248267426Y-136972218D01*
X248249153Y-136978383D01*
X247890685Y-137100699D01*
X248505201Y-137151909D01*
X248851089Y-137190003D01*
X249037851Y-137243415D01*
X249111170Y-137331004D01*
X249119717Y-137405629D01*
X249089188Y-137519944D01*
X248969577Y-137601467D01*
X248718850Y-137669404D01*
X248428252Y-137721557D01*
X247963070Y-137813468D01*
X247700056Y-137906786D01*
X247636580Y-138006969D01*
X247770011Y-138119472D01*
X248097718Y-138249750D01*
X248163281Y-138271103D01*
X248441800Y-138400351D01*
X248593548Y-138551441D01*
X248594186Y-138689139D01*
X248498378Y-138756199D01*
X248318209Y-138768335D01*
X248013615Y-138737663D01*
X247737366Y-138688265D01*
X247133352Y-138560084D01*
X246458950Y-138954593D01*
X246178754Y-139123965D01*
X245966719Y-139277669D01*
X245790034Y-139454812D01*
X245615886Y-139694501D01*
X245411464Y-140035844D01*
X245143957Y-140517949D01*
X245137715Y-140529336D01*
X244363231Y-141836360D01*
X243460210Y-143158238D01*
X242996844Y-143779685D01*
X242667298Y-144211090D01*
X241147075Y-144214967D01*
X239626853Y-144218844D01*
X240030088Y-143732352D01*
X240284345Y-143388684D01*
X240565127Y-142953091D01*
X240812140Y-142519179D01*
X240814653Y-142514364D01*
X241248221Y-141830615D01*
X241811923Y-141158668D01*
X242440535Y-140571927D01*
X242742687Y-140344513D01*
X242958675Y-140168516D01*
X243278784Y-139873100D01*
X243669650Y-139490688D01*
X244097905Y-139053703D01*
X244408782Y-138725507D01*
X244854330Y-138245450D01*
X245185281Y-137876471D01*
X245427682Y-137580726D01*
X245607578Y-137320368D01*
X245751015Y-137057552D01*
X245884042Y-136754433D01*
X246032702Y-136373164D01*
X246038885Y-136356952D01*
X246215864Y-135899021D01*
X246340963Y-135604414D01*
X246433562Y-135444411D01*
X246513040Y-135390293D01*
X246598778Y-135413338D01*
G37*
%TD*%
M02*
