%TF.GenerationSoftware,KiCad,Pcbnew,(5.99.0-11177-g6c67dfa032)*%
%TF.CreationDate,2021-09-16T00:44:05+03:00*%
%TF.ProjectId,Charon_32U4_Solder,43686172-6f6e-45f3-9332-55345f536f6c,rev?*%
%TF.SameCoordinates,Original*%
%TF.FileFunction,Soldermask,Bot*%
%TF.FilePolarity,Negative*%
%FSLAX46Y46*%
G04 Gerber Fmt 4.6, Leading zero omitted, Abs format (unit mm)*
G04 Created by KiCad (PCBNEW (5.99.0-11177-g6c67dfa032)) date 2021-09-16 00:44:05*
%MOMM*%
%LPD*%
G01*
G04 APERTURE LIST*
G04 Aperture macros list*
%AMRoundRect*
0 Rectangle with rounded corners*
0 $1 Rounding radius*
0 $2 $3 $4 $5 $6 $7 $8 $9 X,Y pos of 4 corners*
0 Add a 4 corners polygon primitive as box body*
4,1,4,$2,$3,$4,$5,$6,$7,$8,$9,$2,$3,0*
0 Add four circle primitives for the rounded corners*
1,1,$1+$1,$2,$3*
1,1,$1+$1,$4,$5*
1,1,$1+$1,$6,$7*
1,1,$1+$1,$8,$9*
0 Add four rect primitives between the rounded corners*
20,1,$1+$1,$2,$3,$4,$5,0*
20,1,$1+$1,$4,$5,$6,$7,0*
20,1,$1+$1,$6,$7,$8,$9,0*
20,1,$1+$1,$8,$9,$2,$3,0*%
%AMRotRect*
0 Rectangle, with rotation*
0 The origin of the aperture is its center*
0 $1 length*
0 $2 width*
0 $3 Rotation angle, in degrees counterclockwise*
0 Add horizontal line*
21,1,$1,$2,0,0,$3*%
G04 Aperture macros list end*
%ADD10C,1.700000*%
%ADD11C,4.000000*%
%ADD12C,2.200000*%
%ADD13C,3.048000*%
%ADD14C,3.987800*%
%ADD15C,3.050000*%
%ADD16R,1.200000X1.400000*%
%ADD17C,0.650000*%
%ADD18R,0.600000X1.450000*%
%ADD19R,0.300000X1.450000*%
%ADD20O,1.000000X2.100000*%
%ADD21O,1.000000X1.600000*%
%ADD22RoundRect,0.150000X-0.150000X0.587500X-0.150000X-0.587500X0.150000X-0.587500X0.150000X0.587500X0*%
%ADD23R,1.000000X1.700000*%
%ADD24RoundRect,0.200000X-0.200000X-0.275000X0.200000X-0.275000X0.200000X0.275000X-0.200000X0.275000X0*%
%ADD25RoundRect,0.225000X-0.250000X0.225000X-0.250000X-0.225000X0.250000X-0.225000X0.250000X0.225000X0*%
%ADD26RotRect,1.500000X0.550000X315.000000*%
%ADD27RotRect,1.500000X0.550000X225.000000*%
%ADD28RoundRect,0.218750X-0.218750X-0.381250X0.218750X-0.381250X0.218750X0.381250X-0.218750X0.381250X0*%
%ADD29RoundRect,0.200000X-0.275000X0.200000X-0.275000X-0.200000X0.275000X-0.200000X0.275000X0.200000X0*%
%ADD30RoundRect,0.243750X-0.456250X0.243750X-0.456250X-0.243750X0.456250X-0.243750X0.456250X0.243750X0*%
%ADD31R,1.700000X1.700000*%
%ADD32O,1.700000X1.700000*%
%ADD33RoundRect,0.225000X0.017678X-0.335876X0.335876X-0.017678X-0.017678X0.335876X-0.335876X0.017678X0*%
%ADD34RoundRect,0.200000X-0.335876X-0.053033X-0.053033X-0.335876X0.335876X0.053033X0.053033X0.335876X0*%
%ADD35RoundRect,0.225000X0.225000X0.250000X-0.225000X0.250000X-0.225000X-0.250000X0.225000X-0.250000X0*%
%ADD36RoundRect,0.225000X-0.017678X0.335876X-0.335876X0.017678X0.017678X-0.335876X0.335876X-0.017678X0*%
%ADD37RoundRect,0.200000X0.275000X-0.200000X0.275000X0.200000X-0.275000X0.200000X-0.275000X-0.200000X0*%
%ADD38RoundRect,0.225000X-0.225000X-0.250000X0.225000X-0.250000X0.225000X0.250000X-0.225000X0.250000X0*%
%ADD39R,0.375000X0.500000*%
%ADD40R,0.300000X0.650000*%
G04 APERTURE END LIST*
%TO.C,G\u002A\u002A\u002A*%
G36*
X285835786Y-69839577D02*
G01*
X285837299Y-69896513D01*
X285840266Y-69970669D01*
X285844463Y-70020998D01*
X285850744Y-70053136D01*
X285859959Y-70072719D01*
X285872962Y-70085384D01*
X285875684Y-70087298D01*
X285925082Y-70105911D01*
X285978269Y-70104345D01*
X286020240Y-70082857D01*
X286030240Y-70067969D01*
X286037974Y-70040609D01*
X286042802Y-69996576D01*
X286045288Y-69930510D01*
X286045992Y-69837051D01*
X286045992Y-69616995D01*
X286247024Y-69616995D01*
X286238850Y-69866899D01*
X286237887Y-69894775D01*
X286232599Y-70002405D01*
X286224882Y-70083101D01*
X286213514Y-70141634D01*
X286197272Y-70182776D01*
X286174931Y-70211300D01*
X286145269Y-70231978D01*
X286084762Y-70252253D01*
X286010974Y-70256730D01*
X285936803Y-70245657D01*
X285872699Y-70220644D01*
X285829113Y-70183300D01*
X285821128Y-70180862D01*
X285816823Y-70202834D01*
X285816139Y-70214945D01*
X285807860Y-70231184D01*
X285783460Y-70238196D01*
X285734637Y-70239705D01*
X285652701Y-70239705D01*
X285652701Y-69616995D01*
X285830420Y-69616995D01*
X285835786Y-69839577D01*
G37*
G36*
X271723669Y-70239705D02*
G01*
X271527024Y-70239705D01*
X271527024Y-70043060D01*
X271723669Y-70043060D01*
X271723669Y-70239705D01*
G37*
G36*
X282042351Y-70038340D02*
G01*
X282010538Y-70111579D01*
X281958744Y-70173127D01*
X281943498Y-70184989D01*
X281883913Y-70210473D01*
X281810691Y-70222272D01*
X281736314Y-70219206D01*
X281673264Y-70200096D01*
X281621475Y-70173315D01*
X281621475Y-70221082D01*
X281629066Y-70261833D01*
X281652138Y-70306716D01*
X281684454Y-70332309D01*
X281737836Y-70345941D01*
X281792578Y-70337757D01*
X281835830Y-70307690D01*
X281843640Y-70298667D01*
X281867227Y-70281459D01*
X281901225Y-70274785D01*
X281956647Y-70275735D01*
X282047591Y-70280673D01*
X282018888Y-70336863D01*
X281983357Y-70390061D01*
X281920138Y-70438880D01*
X281834483Y-70465814D01*
X281773679Y-70471840D01*
X281683944Y-70467315D01*
X281601453Y-70449073D01*
X281538202Y-70419011D01*
X281518305Y-70403880D01*
X281492324Y-70378125D01*
X281472869Y-70346619D01*
X281459017Y-70304859D01*
X281449847Y-70248345D01*
X281444439Y-70172575D01*
X281441869Y-70073048D01*
X281441217Y-69945264D01*
X281441217Y-69942902D01*
X281622414Y-69942902D01*
X281625149Y-69981922D01*
X281638871Y-70010780D01*
X281667406Y-70042350D01*
X281673008Y-70047897D01*
X281710434Y-70078907D01*
X281743647Y-70088626D01*
X281786257Y-70081539D01*
X281808678Y-70068579D01*
X281838368Y-70027890D01*
X281859336Y-69970096D01*
X281867282Y-69904593D01*
X281867127Y-69896128D01*
X281853264Y-69829321D01*
X281820944Y-69780486D01*
X281775836Y-69753257D01*
X281723608Y-69751266D01*
X281669929Y-69778144D01*
X281650462Y-69798983D01*
X281634059Y-69838403D01*
X281625176Y-69900337D01*
X281622414Y-69942902D01*
X281441217Y-69942902D01*
X281441217Y-69616995D01*
X281531346Y-69616995D01*
X281532652Y-69616996D01*
X281586233Y-69619230D01*
X281613724Y-69626963D01*
X281621475Y-69641954D01*
X281622253Y-69652702D01*
X281631520Y-69658107D01*
X281658346Y-69643562D01*
X281708082Y-69618672D01*
X281787690Y-69603492D01*
X281864146Y-69615504D01*
X281933374Y-69651392D01*
X281991295Y-69707838D01*
X282033833Y-69781527D01*
X282056911Y-69869142D01*
X282056745Y-69904593D01*
X282056452Y-69967368D01*
X282042351Y-70038340D01*
G37*
G36*
X281037990Y-69619942D02*
G01*
X281095951Y-69646338D01*
X281109044Y-69655969D01*
X281134849Y-69672795D01*
X281144683Y-69670692D01*
X281146250Y-69650260D01*
X281147260Y-69638180D01*
X281157237Y-69624493D01*
X281184345Y-69618390D01*
X281236379Y-69616995D01*
X281326508Y-69616995D01*
X281326508Y-70239705D01*
X281129863Y-70239705D01*
X281129863Y-70041983D01*
X281128566Y-69964835D01*
X281124847Y-69894004D01*
X281119289Y-69840394D01*
X281112479Y-69811779D01*
X281085691Y-69780796D01*
X281041051Y-69761377D01*
X280992844Y-69761685D01*
X280951297Y-69781284D01*
X280926636Y-69819735D01*
X280923242Y-69845381D01*
X280920093Y-69897837D01*
X280917918Y-69967775D01*
X280917054Y-70047157D01*
X280916830Y-70239705D01*
X280736572Y-70239705D01*
X280736572Y-70004538D01*
X280736574Y-69998972D01*
X280737874Y-69888399D01*
X280742324Y-69805175D01*
X280751016Y-69744164D01*
X280765044Y-69700229D01*
X280785501Y-69668232D01*
X280813478Y-69643037D01*
X280827602Y-69634188D01*
X280890579Y-69613712D01*
X280965120Y-69609015D01*
X281037990Y-69619942D01*
G37*
G36*
X267837615Y-69987090D02*
G01*
X267814209Y-70085133D01*
X267765906Y-70162471D01*
X267693098Y-70218357D01*
X267650227Y-70237281D01*
X267559781Y-70257143D01*
X267469029Y-70254327D01*
X267385138Y-70230395D01*
X267315273Y-70186908D01*
X267266599Y-70125428D01*
X267257576Y-70107402D01*
X267240416Y-70070625D01*
X267233604Y-70051906D01*
X267238415Y-70048881D01*
X267267086Y-70044700D01*
X267313000Y-70043060D01*
X267333760Y-70043501D01*
X267387093Y-70052299D01*
X267420722Y-70074360D01*
X267446689Y-70095898D01*
X267499417Y-70114332D01*
X267555635Y-70112118D01*
X267606735Y-70091715D01*
X267644108Y-70055585D01*
X267659148Y-70006189D01*
X267657979Y-69997453D01*
X267649412Y-69988530D01*
X267628208Y-69982728D01*
X267589335Y-69979394D01*
X267527757Y-69977873D01*
X267438443Y-69977512D01*
X267352342Y-69977628D01*
X267287158Y-69976233D01*
X267246158Y-69970463D01*
X267224901Y-69957450D01*
X267218945Y-69934325D01*
X267223848Y-69898221D01*
X267234654Y-69848625D01*
X267413863Y-69848625D01*
X267414400Y-69849951D01*
X267434563Y-69856475D01*
X267478020Y-69861066D01*
X267536766Y-69862802D01*
X267590607Y-69861855D01*
X267637352Y-69856348D01*
X267655996Y-69843827D01*
X267649155Y-69821935D01*
X267619446Y-69788315D01*
X267600967Y-69772406D01*
X267547063Y-69749277D01*
X267493615Y-69755607D01*
X267447826Y-69791270D01*
X267445697Y-69794004D01*
X267423143Y-69827113D01*
X267413863Y-69848625D01*
X267234654Y-69848625D01*
X267235167Y-69846269D01*
X267268889Y-69758949D01*
X267325993Y-69687126D01*
X267400322Y-69635307D01*
X267485773Y-69607745D01*
X267576246Y-69608688D01*
X267636845Y-69624716D01*
X267723426Y-69671326D01*
X267787141Y-69740530D01*
X267826479Y-69830433D01*
X267828136Y-69843827D01*
X267839927Y-69939140D01*
X267837615Y-69987090D01*
G37*
G36*
X275182569Y-65928665D02*
G01*
X275155569Y-65962635D01*
X275109575Y-66018277D01*
X275046007Y-66093932D01*
X274966285Y-66187941D01*
X274871830Y-66298642D01*
X274764060Y-66424377D01*
X274644398Y-66563485D01*
X274514262Y-66714308D01*
X274375073Y-66875185D01*
X274228252Y-67044456D01*
X274075217Y-67220462D01*
X272960895Y-68500523D01*
X272878959Y-68500500D01*
X272797024Y-68500476D01*
X271682701Y-67216612D01*
X271556055Y-67070604D01*
X271408222Y-66899930D01*
X271267753Y-66737497D01*
X271136063Y-66584955D01*
X271014567Y-66443952D01*
X270904680Y-66316135D01*
X270807816Y-66203154D01*
X270725392Y-66106656D01*
X270658821Y-66028290D01*
X270609519Y-65969705D01*
X270584944Y-65939883D01*
X271597926Y-65939883D01*
X271600582Y-65948967D01*
X271605897Y-65957036D01*
X271616954Y-65970772D01*
X271648140Y-66008487D01*
X271696893Y-66066986D01*
X271761244Y-66143919D01*
X271839224Y-66236940D01*
X271928864Y-66343698D01*
X272028195Y-66461848D01*
X272135249Y-66589039D01*
X272248056Y-66722924D01*
X272344139Y-66836757D01*
X272450965Y-66962966D01*
X272549950Y-67079536D01*
X272639201Y-67184259D01*
X272716828Y-67274927D01*
X272780940Y-67349332D01*
X272829646Y-67405267D01*
X272861053Y-67440522D01*
X272873272Y-67452889D01*
X272873509Y-67452817D01*
X272887410Y-67438848D01*
X272920471Y-67402171D01*
X272970841Y-67344925D01*
X273036673Y-67269250D01*
X273116117Y-67177284D01*
X273207326Y-67071168D01*
X273308450Y-66953041D01*
X273417641Y-66825042D01*
X273533050Y-66689310D01*
X273641292Y-66561710D01*
X273760164Y-66421222D01*
X273860306Y-66302304D01*
X273943179Y-66203113D01*
X274010242Y-66121806D01*
X274062957Y-66056541D01*
X274102783Y-66005475D01*
X274131182Y-65966765D01*
X274149614Y-65938569D01*
X274159539Y-65919043D01*
X274162418Y-65906345D01*
X274159711Y-65898633D01*
X274148170Y-65885107D01*
X274116737Y-65848201D01*
X274067713Y-65790611D01*
X274003040Y-65714620D01*
X273924661Y-65622512D01*
X273834521Y-65516571D01*
X273734562Y-65399082D01*
X273626729Y-65272327D01*
X273512964Y-65138590D01*
X273410676Y-65018503D01*
X273302966Y-64892412D01*
X273203199Y-64775996D01*
X273113266Y-64671445D01*
X273035061Y-64580948D01*
X272970476Y-64506694D01*
X272921404Y-64450874D01*
X272889738Y-64415676D01*
X272877369Y-64403291D01*
X272877243Y-64403309D01*
X272863930Y-64416403D01*
X272831417Y-64452281D01*
X272781560Y-64508797D01*
X272716216Y-64583803D01*
X272637242Y-64675151D01*
X272546495Y-64780695D01*
X272445831Y-64898286D01*
X272337107Y-65025779D01*
X272222180Y-65161025D01*
X272174118Y-65217684D01*
X272048316Y-65366074D01*
X271941707Y-65492092D01*
X271852789Y-65597681D01*
X271780058Y-65684780D01*
X271722011Y-65755333D01*
X271677146Y-65811280D01*
X271643958Y-65854563D01*
X271620946Y-65887124D01*
X271606605Y-65910903D01*
X271599433Y-65927842D01*
X271597926Y-65939883D01*
X270584944Y-65939883D01*
X270578899Y-65932547D01*
X270568379Y-65918467D01*
X270575149Y-65909155D01*
X270601953Y-65876618D01*
X270647806Y-65822404D01*
X270711283Y-65748158D01*
X270790960Y-65655527D01*
X270885413Y-65546159D01*
X270993215Y-65421699D01*
X271112943Y-65283794D01*
X271243173Y-65134090D01*
X271382479Y-64974235D01*
X271529436Y-64805874D01*
X271682621Y-64630655D01*
X272796864Y-63357125D01*
X272961231Y-63357125D01*
X274075385Y-64626533D01*
X274195949Y-64764027D01*
X274344553Y-64933869D01*
X274485793Y-65095701D01*
X274618237Y-65247865D01*
X274740456Y-65388703D01*
X274851020Y-65516558D01*
X274948497Y-65629770D01*
X275031459Y-65726683D01*
X275098474Y-65805637D01*
X275148113Y-65864975D01*
X275178945Y-65903039D01*
X275181260Y-65906345D01*
X275189540Y-65918171D01*
X275182569Y-65928665D01*
G37*
G36*
X268200443Y-69528245D02*
G01*
X268201319Y-69579174D01*
X268206871Y-69605564D01*
X268221500Y-69615482D01*
X268249604Y-69616995D01*
X268260161Y-69617099D01*
X268286304Y-69621830D01*
X268296824Y-69640514D01*
X268298766Y-69682544D01*
X268298688Y-69696619D01*
X268295140Y-69731477D01*
X268281127Y-69745504D01*
X268249604Y-69748092D01*
X268200443Y-69748092D01*
X268200443Y-69949285D01*
X268199957Y-70010186D01*
X268196100Y-70094161D01*
X268187045Y-70153808D01*
X268171189Y-70194433D01*
X268146927Y-70221343D01*
X268112658Y-70239843D01*
X268091527Y-70245439D01*
X268041879Y-70252049D01*
X267983314Y-70255054D01*
X267889088Y-70256092D01*
X267889088Y-70182350D01*
X267889359Y-70154969D01*
X267893642Y-70123286D01*
X267907794Y-70110796D01*
X267937673Y-70108608D01*
X267938321Y-70108607D01*
X267972678Y-70103151D01*
X267996211Y-70083935D01*
X268010751Y-70046250D01*
X268018132Y-69985392D01*
X268020185Y-69896653D01*
X268020185Y-69748092D01*
X267889088Y-69748092D01*
X267889088Y-69616995D01*
X268020185Y-69616995D01*
X268020185Y-69436737D01*
X268200443Y-69436737D01*
X268200443Y-69528245D01*
G37*
G36*
X283667550Y-69987090D02*
G01*
X283644144Y-70085133D01*
X283595841Y-70162471D01*
X283523034Y-70218357D01*
X283480163Y-70237281D01*
X283389716Y-70257143D01*
X283298965Y-70254327D01*
X283215074Y-70230395D01*
X283145208Y-70186908D01*
X283096535Y-70125428D01*
X283087511Y-70107402D01*
X283070352Y-70070625D01*
X283063540Y-70051906D01*
X283068350Y-70048881D01*
X283097021Y-70044700D01*
X283142936Y-70043060D01*
X283163695Y-70043501D01*
X283217029Y-70052299D01*
X283250658Y-70074360D01*
X283276625Y-70095898D01*
X283329353Y-70114332D01*
X283385570Y-70112118D01*
X283436670Y-70091715D01*
X283474044Y-70055585D01*
X283489083Y-70006189D01*
X283487914Y-69997453D01*
X283479347Y-69988530D01*
X283458144Y-69982728D01*
X283419270Y-69979394D01*
X283357693Y-69977873D01*
X283268379Y-69977512D01*
X283182278Y-69977628D01*
X283117093Y-69976233D01*
X283076093Y-69970463D01*
X283054837Y-69957450D01*
X283048881Y-69934325D01*
X283053783Y-69898221D01*
X283064589Y-69848625D01*
X283243798Y-69848625D01*
X283244336Y-69849951D01*
X283264498Y-69856475D01*
X283307956Y-69861066D01*
X283366701Y-69862802D01*
X283420542Y-69861855D01*
X283467288Y-69856348D01*
X283485932Y-69843827D01*
X283479091Y-69821935D01*
X283449382Y-69788315D01*
X283430903Y-69772406D01*
X283376998Y-69749277D01*
X283323550Y-69755607D01*
X283277762Y-69791270D01*
X283275633Y-69794004D01*
X283253079Y-69827113D01*
X283243798Y-69848625D01*
X283064589Y-69848625D01*
X283065102Y-69846269D01*
X283098824Y-69758949D01*
X283155928Y-69687126D01*
X283230257Y-69635307D01*
X283315709Y-69607745D01*
X283406182Y-69608688D01*
X283466781Y-69624716D01*
X283553362Y-69671326D01*
X283617077Y-69740530D01*
X283656414Y-69830433D01*
X283658071Y-69843827D01*
X283669863Y-69939140D01*
X283667550Y-69987090D01*
G37*
G36*
X277885217Y-68387963D02*
G01*
X277884508Y-67884060D01*
X277883798Y-67380157D01*
X277585443Y-67158086D01*
X277287088Y-66936014D01*
X276593149Y-67720489D01*
X276569312Y-67747425D01*
X276414629Y-67921593D01*
X276278680Y-68073517D01*
X276161822Y-68202810D01*
X276064414Y-68309084D01*
X275986814Y-68391950D01*
X275929381Y-68451022D01*
X275892472Y-68485911D01*
X275876447Y-68496229D01*
X275872867Y-68494406D01*
X275846469Y-68475620D01*
X275802371Y-68440595D01*
X275744858Y-68393057D01*
X275678216Y-68336730D01*
X275606730Y-68275339D01*
X275534686Y-68212608D01*
X275466369Y-68152263D01*
X275406066Y-68098027D01*
X275358062Y-68053625D01*
X275326642Y-68022783D01*
X275316092Y-68009224D01*
X275316154Y-68009090D01*
X275328504Y-67993784D01*
X275360627Y-67956208D01*
X275410636Y-67898517D01*
X275476648Y-67822860D01*
X275556777Y-67731392D01*
X275649136Y-67626264D01*
X275751842Y-67509629D01*
X275863007Y-67383639D01*
X275980748Y-67250447D01*
X275986726Y-67243690D01*
X276104054Y-67110852D01*
X276214568Y-66985315D01*
X276316399Y-66869231D01*
X276407679Y-66764749D01*
X276486537Y-66674020D01*
X276551105Y-66599193D01*
X276599514Y-66542418D01*
X276629895Y-66505846D01*
X276640379Y-66491626D01*
X276631000Y-66482791D01*
X276597413Y-66456486D01*
X276541968Y-66414844D01*
X276467320Y-66359808D01*
X276376125Y-66293322D01*
X276271038Y-66217331D01*
X276154715Y-66133779D01*
X276029809Y-66044608D01*
X275923764Y-65968854D01*
X275806079Y-65884106D01*
X275699311Y-65806489D01*
X275606104Y-65737963D01*
X275529104Y-65680488D01*
X275470953Y-65636023D01*
X275434297Y-65606528D01*
X275421780Y-65593963D01*
X275429902Y-65583783D01*
X276698380Y-65583783D01*
X276705238Y-65592606D01*
X276734946Y-65619641D01*
X276785392Y-65662302D01*
X276853668Y-65718216D01*
X276936868Y-65785007D01*
X277032085Y-65860297D01*
X277136410Y-65941713D01*
X277198913Y-65990183D01*
X277311934Y-66077817D01*
X277421335Y-66162630D01*
X277522662Y-66241169D01*
X277611458Y-66309982D01*
X277683268Y-66365615D01*
X277733637Y-66404613D01*
X277885217Y-66521907D01*
X277885217Y-65618613D01*
X277885107Y-65435640D01*
X277884697Y-65261780D01*
X277883938Y-65116662D01*
X277882780Y-64998162D01*
X277881174Y-64904160D01*
X277879073Y-64832534D01*
X277876427Y-64781162D01*
X277873188Y-64747923D01*
X277869306Y-64730696D01*
X277864734Y-64727358D01*
X277848954Y-64737980D01*
X277809368Y-64766046D01*
X277750227Y-64808623D01*
X277674821Y-64863296D01*
X277586437Y-64927649D01*
X277488367Y-64999268D01*
X277383897Y-65075738D01*
X277276317Y-65154643D01*
X277168916Y-65233570D01*
X277064982Y-65310102D01*
X276967806Y-65381825D01*
X276880674Y-65446324D01*
X276806877Y-65501185D01*
X276749703Y-65543991D01*
X276712441Y-65572329D01*
X276698380Y-65583783D01*
X275429902Y-65583783D01*
X275431445Y-65581849D01*
X275463084Y-65553849D01*
X275511376Y-65515400D01*
X275570796Y-65471060D01*
X275618158Y-65436720D01*
X275715486Y-65366098D01*
X275821629Y-65289024D01*
X275932658Y-65208352D01*
X276044649Y-65126940D01*
X276153674Y-65047644D01*
X276255807Y-64973319D01*
X276347122Y-64906822D01*
X276423693Y-64851008D01*
X276481592Y-64808735D01*
X276516895Y-64782857D01*
X276529047Y-64773901D01*
X276692111Y-64653873D01*
X276834448Y-64549427D01*
X276961224Y-64456787D01*
X277077607Y-64372174D01*
X277188766Y-64291813D01*
X277250442Y-64247335D01*
X277318266Y-64198347D01*
X277377856Y-64155160D01*
X277434979Y-64113563D01*
X277495401Y-64069344D01*
X277564888Y-64018289D01*
X277649206Y-63956189D01*
X277754121Y-63878829D01*
X277759673Y-63874735D01*
X277942574Y-63740832D01*
X278148197Y-63592059D01*
X278378822Y-63426770D01*
X278430202Y-63391838D01*
X278473294Y-63369530D01*
X278514466Y-63359470D01*
X278565898Y-63357125D01*
X278655411Y-63357125D01*
X278655411Y-68387963D01*
X277885217Y-68387963D01*
G37*
G36*
X273163119Y-65084949D02*
G01*
X273137204Y-65141303D01*
X273090300Y-65186303D01*
X273017263Y-65228397D01*
X272924415Y-65263229D01*
X272832888Y-65271168D01*
X272751146Y-65247900D01*
X272693745Y-65214790D01*
X272612677Y-65147677D01*
X272559109Y-65073379D01*
X272539021Y-65012820D01*
X272721355Y-65012820D01*
X272736142Y-65075287D01*
X272771183Y-65128191D01*
X272807204Y-65156659D01*
X272865422Y-65177044D01*
X272921267Y-65169184D01*
X272967899Y-65132915D01*
X272972704Y-65126379D01*
X272996941Y-65069125D01*
X273003667Y-65000879D01*
X272994749Y-64930186D01*
X272972052Y-64865593D01*
X272937442Y-64815645D01*
X272892785Y-64788888D01*
X272869306Y-64785627D01*
X272817932Y-64797945D01*
X272775110Y-64833354D01*
X272743180Y-64885324D01*
X272724481Y-64947322D01*
X272721355Y-65012820D01*
X272539021Y-65012820D01*
X272533309Y-64995602D01*
X272535547Y-64918053D01*
X272566091Y-64844439D01*
X272625209Y-64778467D01*
X272713171Y-64723844D01*
X272736910Y-64713642D01*
X272841890Y-64688336D01*
X272944178Y-64694791D01*
X273040043Y-64732316D01*
X273125757Y-64800220D01*
X273132636Y-64807499D01*
X273155078Y-64835491D01*
X273167495Y-64865183D01*
X273172806Y-64906924D01*
X273173927Y-64971065D01*
X273173341Y-65000879D01*
X273173186Y-65008796D01*
X273163119Y-65084949D01*
G37*
G36*
X282779618Y-69613457D02*
G01*
X282869629Y-69632194D01*
X282933263Y-69669467D01*
X282971327Y-69725857D01*
X282984628Y-69801947D01*
X282984452Y-69813701D01*
X282970199Y-69871735D01*
X282931505Y-69918166D01*
X282865709Y-69955268D01*
X282770151Y-69985318D01*
X282697628Y-70005891D01*
X282642568Y-70030111D01*
X282616053Y-70056243D01*
X282615826Y-70085757D01*
X282642734Y-70117346D01*
X282686439Y-70131239D01*
X282736464Y-70127575D01*
X282782574Y-70107129D01*
X282814531Y-70070678D01*
X282819825Y-70060405D01*
X282837898Y-70038510D01*
X282866602Y-70028844D01*
X282916950Y-70026673D01*
X282954385Y-70027156D01*
X282984270Y-70031859D01*
X282995976Y-70045709D01*
X282997992Y-70073624D01*
X282997277Y-70085425D01*
X282976855Y-70142454D01*
X282934006Y-70194962D01*
X282876478Y-70232799D01*
X282840371Y-70243061D01*
X282780523Y-70251834D01*
X282714788Y-70255451D01*
X282643327Y-70252522D01*
X282552846Y-70233738D01*
X282488122Y-70196703D01*
X282447605Y-70140375D01*
X282429745Y-70063710D01*
X282428865Y-70030661D01*
X282441813Y-69970034D01*
X282477799Y-69923935D01*
X282539927Y-69889272D01*
X282631302Y-69862954D01*
X282690483Y-69848800D01*
X282754103Y-69827598D01*
X282790043Y-69805154D01*
X282801346Y-69779983D01*
X282796025Y-69762196D01*
X282768949Y-69742847D01*
X282728041Y-69735367D01*
X282683607Y-69739602D01*
X282645952Y-69755400D01*
X282625382Y-69782605D01*
X282623941Y-69787329D01*
X282611058Y-69803734D01*
X282582201Y-69811611D01*
X282529048Y-69813641D01*
X282523817Y-69813624D01*
X282468684Y-69809261D01*
X282442910Y-69794138D01*
X282443832Y-69763856D01*
X282468788Y-69714014D01*
X282476292Y-69702410D01*
X282532061Y-69651680D01*
X282613272Y-69621087D01*
X282719411Y-69610842D01*
X282779618Y-69613457D01*
G37*
G36*
X285552066Y-69987090D02*
G01*
X285528661Y-70085133D01*
X285480357Y-70162471D01*
X285407550Y-70218357D01*
X285364679Y-70237281D01*
X285274232Y-70257143D01*
X285183481Y-70254327D01*
X285099590Y-70230395D01*
X285029725Y-70186908D01*
X284981051Y-70125428D01*
X284972028Y-70107402D01*
X284954868Y-70070625D01*
X284948056Y-70051906D01*
X284952866Y-70048881D01*
X284981537Y-70044700D01*
X285027452Y-70043060D01*
X285048211Y-70043501D01*
X285101545Y-70052299D01*
X285135174Y-70074360D01*
X285161141Y-70095898D01*
X285213869Y-70114332D01*
X285270086Y-70112118D01*
X285321186Y-70091715D01*
X285358560Y-70055585D01*
X285373599Y-70006189D01*
X285372430Y-69997453D01*
X285363864Y-69988530D01*
X285342660Y-69982728D01*
X285303786Y-69979394D01*
X285242209Y-69977873D01*
X285152895Y-69977512D01*
X285066794Y-69977628D01*
X285001609Y-69976233D01*
X284960610Y-69970463D01*
X284939353Y-69957450D01*
X284933397Y-69934325D01*
X284938299Y-69898221D01*
X284949105Y-69848625D01*
X285128314Y-69848625D01*
X285128852Y-69849951D01*
X285149014Y-69856475D01*
X285192472Y-69861066D01*
X285251217Y-69862802D01*
X285305058Y-69861855D01*
X285351804Y-69856348D01*
X285370448Y-69843827D01*
X285363607Y-69821935D01*
X285333898Y-69788315D01*
X285315419Y-69772406D01*
X285261515Y-69749277D01*
X285208066Y-69755607D01*
X285162278Y-69791270D01*
X285160149Y-69794004D01*
X285137595Y-69827113D01*
X285128314Y-69848625D01*
X284949105Y-69848625D01*
X284949618Y-69846269D01*
X284983340Y-69758949D01*
X285040444Y-69687126D01*
X285114773Y-69635307D01*
X285200225Y-69607745D01*
X285290698Y-69608688D01*
X285351297Y-69624716D01*
X285437878Y-69671326D01*
X285501593Y-69740530D01*
X285540930Y-69830433D01*
X285542587Y-69843827D01*
X285554379Y-69939140D01*
X285552066Y-69987090D01*
G37*
G36*
X288077992Y-70239705D02*
G01*
X287881346Y-70239705D01*
X287881346Y-70041983D01*
X287880050Y-69964835D01*
X287876330Y-69894004D01*
X287870772Y-69840394D01*
X287863963Y-69811779D01*
X287837175Y-69780796D01*
X287792534Y-69761377D01*
X287744328Y-69761685D01*
X287702781Y-69781284D01*
X287678120Y-69819735D01*
X287674726Y-69845381D01*
X287671577Y-69897837D01*
X287669402Y-69967775D01*
X287668538Y-70047157D01*
X287668314Y-70239705D01*
X287488056Y-70239705D01*
X287488056Y-70003159D01*
X287488179Y-69974090D01*
X287489990Y-69887636D01*
X287493629Y-69812103D01*
X287498664Y-69754773D01*
X287504665Y-69722929D01*
X287525430Y-69684458D01*
X287577507Y-69637183D01*
X287646234Y-69611269D01*
X287725003Y-69608715D01*
X287807204Y-69631517D01*
X287881346Y-69664314D01*
X287881346Y-69387576D01*
X288077992Y-69387576D01*
X288077992Y-70239705D01*
G37*
G36*
X273848554Y-66169354D02*
G01*
X273815500Y-66241311D01*
X273784065Y-66290400D01*
X273765304Y-66315547D01*
X273755669Y-66336462D01*
X273745935Y-66353348D01*
X273717452Y-66387076D01*
X273676011Y-66430925D01*
X273627462Y-66478723D01*
X273577653Y-66524300D01*
X273548435Y-66547353D01*
X273476562Y-66594116D01*
X273390183Y-66641797D01*
X273300135Y-66684609D01*
X273217256Y-66716764D01*
X273194841Y-66723567D01*
X273142568Y-66735000D01*
X273079349Y-66742453D01*
X272997927Y-66746627D01*
X272891042Y-66748222D01*
X272844265Y-66748159D01*
X272718712Y-66743952D01*
X272613185Y-66732223D01*
X272518363Y-66711076D01*
X272424919Y-66678619D01*
X272323530Y-66632958D01*
X272311644Y-66626884D01*
X272254814Y-66592437D01*
X272191203Y-66547247D01*
X272126470Y-66496162D01*
X272066272Y-66444025D01*
X272016268Y-66395683D01*
X271982117Y-66355981D01*
X271969475Y-66329764D01*
X271968304Y-66320017D01*
X271957157Y-66306802D01*
X271952095Y-66304095D01*
X271933118Y-66278308D01*
X271906491Y-66229666D01*
X271875053Y-66163608D01*
X271841648Y-66085576D01*
X271838894Y-66078543D01*
X271835477Y-66066956D01*
X272009964Y-66066956D01*
X272019517Y-66113965D01*
X272037280Y-66158215D01*
X272078134Y-66227510D01*
X272132956Y-66301883D01*
X272195177Y-66372610D01*
X272258226Y-66430967D01*
X272296089Y-66461805D01*
X272330139Y-66490444D01*
X272346379Y-66505329D01*
X272356107Y-66514912D01*
X272398563Y-66543031D01*
X272459769Y-66574097D01*
X272530545Y-66604085D01*
X272601712Y-66628967D01*
X272664091Y-66644715D01*
X272816648Y-66661011D01*
X272980246Y-66655133D01*
X273136617Y-66626100D01*
X273279389Y-66575131D01*
X273402188Y-66503447D01*
X273426025Y-66484083D01*
X273468605Y-66445385D01*
X273515950Y-66399346D01*
X273560785Y-66353289D01*
X273595835Y-66314537D01*
X273613824Y-66290415D01*
X273625067Y-66268514D01*
X273656257Y-66214701D01*
X273684771Y-66173356D01*
X273685308Y-66172674D01*
X273701178Y-66140833D01*
X273714427Y-66096429D01*
X273726131Y-66041733D01*
X273679448Y-66070777D01*
X273638294Y-66098624D01*
X273599992Y-66128343D01*
X273595305Y-66132334D01*
X273518503Y-66182916D01*
X273416413Y-66229956D01*
X273295971Y-66271060D01*
X273164112Y-66303833D01*
X273027772Y-66325882D01*
X273008308Y-66327958D01*
X272892732Y-66333935D01*
X272769672Y-66331320D01*
X272649082Y-66320913D01*
X272540915Y-66303511D01*
X272455121Y-66279914D01*
X272417467Y-66265598D01*
X272313752Y-66222539D01*
X272218381Y-66177917D01*
X272137049Y-66134685D01*
X272075453Y-66095799D01*
X272039290Y-66064214D01*
X272030083Y-66053804D01*
X272013725Y-66046299D01*
X272009964Y-66066956D01*
X271835477Y-66066956D01*
X271819372Y-66012350D01*
X271803866Y-65932852D01*
X271793802Y-65851198D01*
X271790606Y-65778542D01*
X271795702Y-65726035D01*
X271816060Y-65692995D01*
X271854801Y-65684439D01*
X271909101Y-65702603D01*
X271910538Y-65703396D01*
X271937232Y-65723710D01*
X271980501Y-65761947D01*
X272034677Y-65812932D01*
X272094095Y-65871494D01*
X272096227Y-65873641D01*
X272209662Y-65981450D01*
X272312832Y-66065211D01*
X272411639Y-66129253D01*
X272511984Y-66177901D01*
X272536941Y-66187605D01*
X272575321Y-66199274D01*
X272618425Y-66207087D01*
X272673263Y-66211827D01*
X272746846Y-66214277D01*
X272846185Y-66215219D01*
X272893159Y-66215185D01*
X273013794Y-66212341D01*
X273101920Y-66205375D01*
X273157540Y-66194286D01*
X273212611Y-66174178D01*
X273276820Y-66147711D01*
X273339297Y-66119509D01*
X273392839Y-66092979D01*
X273430245Y-66071530D01*
X273444314Y-66058570D01*
X273445104Y-66054487D01*
X273462312Y-66044608D01*
X273477884Y-66036312D01*
X273512579Y-66006946D01*
X273560789Y-65960411D01*
X273618304Y-65900953D01*
X273680912Y-65832816D01*
X273744404Y-65760245D01*
X273767138Y-65734212D01*
X273807576Y-65693872D01*
X273839905Y-65673399D01*
X273871092Y-65667705D01*
X273897390Y-65671447D01*
X273920176Y-65689332D01*
X273932248Y-65726012D01*
X273934852Y-65785895D01*
X273929234Y-65873391D01*
X273924245Y-65911586D01*
X273906245Y-65994960D01*
X273892419Y-66041733D01*
X273879908Y-66084059D01*
X273848554Y-66169354D01*
G37*
G36*
X284273165Y-70239705D02*
G01*
X284201100Y-70239477D01*
X284120922Y-70238026D01*
X284062631Y-70234640D01*
X284019813Y-70228643D01*
X283986052Y-70219358D01*
X283954933Y-70206106D01*
X283888438Y-70163427D01*
X283822766Y-70087426D01*
X283778888Y-69987221D01*
X283756639Y-69862534D01*
X283754822Y-69819340D01*
X283960908Y-69819340D01*
X283961830Y-69861386D01*
X283978032Y-69949419D01*
X284014541Y-70012754D01*
X284071908Y-70052544D01*
X284095827Y-70060342D01*
X284155144Y-70071465D01*
X284218304Y-70075834D01*
X284308959Y-70075834D01*
X284308959Y-69567834D01*
X284209823Y-69567834D01*
X284122986Y-69575043D01*
X284049931Y-69601499D01*
X284000046Y-69649539D01*
X283971111Y-69721405D01*
X283960908Y-69819340D01*
X283754822Y-69819340D01*
X283754270Y-69806204D01*
X283767508Y-69684982D01*
X283806095Y-69580531D01*
X283868853Y-69495415D01*
X283954601Y-69432197D01*
X283976631Y-69421432D01*
X284008262Y-69410207D01*
X284047275Y-69402333D01*
X284100019Y-69396976D01*
X284172840Y-69393302D01*
X284272088Y-69390477D01*
X284521992Y-69384635D01*
X284521992Y-70239705D01*
X284273165Y-70239705D01*
G37*
G36*
X269291767Y-69650039D02*
G01*
X269307361Y-69714415D01*
X269327368Y-69791439D01*
X269344562Y-69851336D01*
X269357497Y-69889155D01*
X269364727Y-69899942D01*
X269368251Y-69892252D01*
X269379475Y-69857021D01*
X269395802Y-69798978D01*
X269415636Y-69723879D01*
X269437386Y-69637479D01*
X269498873Y-69387576D01*
X269687820Y-69387576D01*
X269749307Y-69637479D01*
X269761953Y-69688200D01*
X269782795Y-69768804D01*
X269800804Y-69834798D01*
X269814389Y-69880425D01*
X269821954Y-69899931D01*
X269824590Y-69898712D01*
X269834595Y-69875083D01*
X269849265Y-69827059D01*
X269867075Y-69759860D01*
X269886505Y-69678705D01*
X269894148Y-69645308D01*
X269913117Y-69563013D01*
X269929435Y-69493041D01*
X269941568Y-69441939D01*
X269947983Y-69416254D01*
X269949960Y-69410749D01*
X269964490Y-69396490D01*
X269996390Y-69389458D01*
X270053289Y-69387576D01*
X270094044Y-69388936D01*
X270135283Y-69395031D01*
X270150508Y-69404941D01*
X270147790Y-69419045D01*
X270137639Y-69461532D01*
X270121046Y-69527577D01*
X270099149Y-69612719D01*
X270073084Y-69712498D01*
X270043992Y-69822453D01*
X270019782Y-69913623D01*
X269993166Y-70014432D01*
X269970497Y-70100926D01*
X269952905Y-70168769D01*
X269941521Y-70213623D01*
X269937475Y-70231152D01*
X269924243Y-70235300D01*
X269886443Y-70238486D01*
X269832687Y-70239705D01*
X269727900Y-70239705D01*
X269665255Y-69985705D01*
X269651206Y-69929747D01*
X269630522Y-69851125D01*
X269612827Y-69788345D01*
X269599653Y-69746756D01*
X269592530Y-69731705D01*
X269592136Y-69731834D01*
X269584317Y-69749413D01*
X269571372Y-69792376D01*
X269555009Y-69854633D01*
X269536934Y-69930096D01*
X269518558Y-70009344D01*
X269500579Y-70085288D01*
X269485730Y-70146393D01*
X269476064Y-70184096D01*
X269460709Y-70239705D01*
X269256785Y-70239705D01*
X269146192Y-69825931D01*
X269118745Y-69722821D01*
X269091827Y-69620786D01*
X269068967Y-69533165D01*
X269051281Y-69464266D01*
X269039884Y-69418397D01*
X269035892Y-69399866D01*
X269046334Y-69394366D01*
X269081588Y-69389464D01*
X269133082Y-69387576D01*
X269229978Y-69387576D01*
X269291767Y-69650039D01*
G37*
G36*
X273444314Y-70239705D02*
G01*
X273264056Y-70239705D01*
X273264056Y-69616995D01*
X273444314Y-69616995D01*
X273444314Y-70239705D01*
G37*
G36*
X271723669Y-69830028D02*
G01*
X271527024Y-69830028D01*
X271527024Y-69633383D01*
X271723669Y-69633383D01*
X271723669Y-69830028D01*
G37*
G36*
X271068185Y-70239705D02*
G01*
X270855153Y-70239705D01*
X270855153Y-69387576D01*
X271068185Y-69387576D01*
X271068185Y-70239705D01*
G37*
G36*
X287855152Y-63374740D02*
G01*
X287888444Y-63404431D01*
X287942024Y-63453367D01*
X288014051Y-63519810D01*
X288102681Y-63602028D01*
X288206072Y-63698285D01*
X288322381Y-63806847D01*
X288449766Y-63925978D01*
X288586384Y-64053944D01*
X288730393Y-64189011D01*
X288879949Y-64329443D01*
X289033211Y-64473506D01*
X289188335Y-64619465D01*
X289343479Y-64765586D01*
X289496801Y-64910133D01*
X289646457Y-65051372D01*
X289790606Y-65187569D01*
X289927404Y-65316988D01*
X290055009Y-65437895D01*
X290171578Y-65548555D01*
X290275269Y-65647234D01*
X290364238Y-65732196D01*
X290436645Y-65801707D01*
X290490645Y-65854032D01*
X290524396Y-65887437D01*
X290536056Y-65900187D01*
X290533944Y-65902856D01*
X290512724Y-65924627D01*
X290469899Y-65966975D01*
X290406953Y-66028471D01*
X290325371Y-66107681D01*
X290226638Y-66203176D01*
X290112240Y-66313523D01*
X289983661Y-66437291D01*
X289842385Y-66573049D01*
X289689899Y-66719364D01*
X289527687Y-66874807D01*
X289357233Y-67037944D01*
X289180024Y-67207346D01*
X289104333Y-67279627D01*
X288929516Y-67446322D01*
X288761810Y-67605893D01*
X288602721Y-67756927D01*
X288453752Y-67898010D01*
X288316407Y-68027726D01*
X288192191Y-68144662D01*
X288082607Y-68247402D01*
X287989160Y-68334534D01*
X287913354Y-68404641D01*
X287856693Y-68456309D01*
X287820681Y-68488125D01*
X287806823Y-68498673D01*
X287806458Y-68498532D01*
X287790583Y-68484471D01*
X287756775Y-68450509D01*
X287708714Y-68400617D01*
X287650082Y-68338764D01*
X287584561Y-68268921D01*
X287515832Y-68195058D01*
X287447577Y-68121146D01*
X287383476Y-68051154D01*
X287327212Y-67989054D01*
X287282465Y-67938815D01*
X287252917Y-67904407D01*
X287242250Y-67889801D01*
X287253945Y-67878275D01*
X287288254Y-67846330D01*
X287343458Y-67795541D01*
X287417836Y-67727473D01*
X287509666Y-67643695D01*
X287617227Y-67545771D01*
X287738799Y-67435270D01*
X287872660Y-67313759D01*
X288017090Y-67182803D01*
X288170366Y-67043970D01*
X288330769Y-66898826D01*
X288488471Y-66756123D01*
X288642345Y-66616738D01*
X288787569Y-66485043D01*
X288922402Y-66362625D01*
X289045102Y-66251068D01*
X289153927Y-66151960D01*
X289247137Y-66066886D01*
X289322988Y-65997433D01*
X289379740Y-65945187D01*
X289415650Y-65911734D01*
X289428978Y-65898659D01*
X289428260Y-65884035D01*
X289408097Y-65861375D01*
X289396403Y-65852370D01*
X289360632Y-65822602D01*
X289311568Y-65780271D01*
X289256242Y-65731397D01*
X289249383Y-65725278D01*
X289207581Y-65688163D01*
X289144771Y-65632566D01*
X289063829Y-65561025D01*
X288967625Y-65476075D01*
X288859034Y-65380254D01*
X288740929Y-65276097D01*
X288616183Y-65166142D01*
X288487669Y-65052923D01*
X288453901Y-65023181D01*
X288326443Y-64910906D01*
X288203718Y-64802780D01*
X288088563Y-64701304D01*
X287983817Y-64608980D01*
X287892316Y-64528309D01*
X287816899Y-64461793D01*
X287760404Y-64411933D01*
X287725669Y-64381231D01*
X287673288Y-64334872D01*
X287600432Y-64270447D01*
X287521743Y-64200906D01*
X287447088Y-64134975D01*
X287433596Y-64122989D01*
X287374712Y-64068797D01*
X287326951Y-64021816D01*
X287294918Y-63986733D01*
X287283217Y-63968233D01*
X287292614Y-63951057D01*
X287321127Y-63914199D01*
X287365094Y-63862126D01*
X287420805Y-63798818D01*
X287484552Y-63728261D01*
X287552624Y-63654436D01*
X287621313Y-63581327D01*
X287686908Y-63512917D01*
X287745701Y-63453188D01*
X287793981Y-63406125D01*
X287828040Y-63375708D01*
X287844167Y-63365922D01*
X287855152Y-63374740D01*
G37*
G36*
X288685225Y-69396091D02*
G01*
X288749908Y-69424671D01*
X288837415Y-69489799D01*
X288900790Y-69576612D01*
X288939435Y-69684180D01*
X288952749Y-69811573D01*
X288949637Y-69896114D01*
X288933790Y-69986028D01*
X288902020Y-70060478D01*
X288851536Y-70128198D01*
X288796191Y-70181650D01*
X288721100Y-70227930D01*
X288629804Y-70255540D01*
X288543777Y-70262921D01*
X288448436Y-70254624D01*
X288364766Y-70231788D01*
X288324317Y-70210714D01*
X288253478Y-70149089D01*
X288199323Y-70067237D01*
X288167702Y-69972849D01*
X288156280Y-69911963D01*
X288255155Y-69911963D01*
X288270439Y-69911975D01*
X288319060Y-69913421D01*
X288346217Y-69920448D01*
X288361094Y-69937510D01*
X288372875Y-69969062D01*
X288392117Y-70010702D01*
X288440396Y-70061952D01*
X288503397Y-70088458D01*
X288574836Y-70088167D01*
X288648429Y-70059027D01*
X288657636Y-70053047D01*
X288709233Y-69998668D01*
X288739790Y-69920827D01*
X288749837Y-69818264D01*
X288745677Y-69757623D01*
X288721632Y-69671118D01*
X288678445Y-69605094D01*
X288618711Y-69562971D01*
X288545024Y-69548170D01*
X288481154Y-69560176D01*
X288421275Y-69595377D01*
X288381364Y-69646958D01*
X288373119Y-69661382D01*
X288354621Y-69674901D01*
X288320951Y-69681074D01*
X288263341Y-69682544D01*
X288161495Y-69682544D01*
X288184525Y-69604705D01*
X288185969Y-69599976D01*
X288228341Y-69516462D01*
X288294391Y-69449702D01*
X288378612Y-69401990D01*
X288475497Y-69375621D01*
X288579537Y-69372890D01*
X288685225Y-69396091D01*
G37*
G36*
X273160545Y-70038340D02*
G01*
X273128731Y-70111579D01*
X273076937Y-70173127D01*
X273061692Y-70184989D01*
X273002106Y-70210473D01*
X272928884Y-70222272D01*
X272854508Y-70219206D01*
X272791458Y-70200096D01*
X272739669Y-70173315D01*
X272739669Y-70221082D01*
X272747260Y-70261833D01*
X272770332Y-70306716D01*
X272802648Y-70332309D01*
X272856030Y-70345941D01*
X272910771Y-70337757D01*
X272954024Y-70307690D01*
X272961834Y-70298667D01*
X272985420Y-70281459D01*
X273019419Y-70274785D01*
X273074841Y-70275735D01*
X273165784Y-70280673D01*
X273137081Y-70336863D01*
X273101550Y-70390061D01*
X273038331Y-70438880D01*
X272952677Y-70465814D01*
X272891872Y-70471840D01*
X272802137Y-70467315D01*
X272719647Y-70449073D01*
X272656396Y-70419011D01*
X272636498Y-70403880D01*
X272610518Y-70378125D01*
X272591062Y-70346619D01*
X272577211Y-70304859D01*
X272568041Y-70248345D01*
X272562632Y-70172575D01*
X272560063Y-70073048D01*
X272559411Y-69945264D01*
X272559411Y-69942902D01*
X272740607Y-69942902D01*
X272743343Y-69981922D01*
X272757064Y-70010780D01*
X272785599Y-70042350D01*
X272791201Y-70047897D01*
X272828627Y-70078907D01*
X272861841Y-70088626D01*
X272904451Y-70081539D01*
X272926872Y-70068579D01*
X272956562Y-70027890D01*
X272977530Y-69970096D01*
X272985475Y-69904593D01*
X272985321Y-69896128D01*
X272971458Y-69829321D01*
X272939138Y-69780486D01*
X272894029Y-69753257D01*
X272841801Y-69751266D01*
X272788123Y-69778144D01*
X272768656Y-69798983D01*
X272752252Y-69838403D01*
X272743369Y-69900337D01*
X272740607Y-69942902D01*
X272559411Y-69942902D01*
X272559411Y-69616995D01*
X272649540Y-69616995D01*
X272650846Y-69616996D01*
X272704427Y-69619230D01*
X272731917Y-69626963D01*
X272739669Y-69641954D01*
X272740447Y-69652702D01*
X272749714Y-69658107D01*
X272776540Y-69643562D01*
X272826276Y-69618672D01*
X272905884Y-69603492D01*
X272982340Y-69615504D01*
X273051567Y-69651392D01*
X273109489Y-69707838D01*
X273152027Y-69781527D01*
X273175105Y-69869142D01*
X273174939Y-69904593D01*
X273174646Y-69967368D01*
X273160545Y-70038340D01*
G37*
G36*
X268528185Y-70239705D02*
G01*
X268347927Y-70239705D01*
X268347927Y-69616995D01*
X268528185Y-69616995D01*
X268528185Y-70239705D01*
G37*
G36*
X270724056Y-70239705D02*
G01*
X270101346Y-70239705D01*
X270101346Y-70075834D01*
X270511024Y-70075834D01*
X270511024Y-69387576D01*
X270724056Y-69387576D01*
X270724056Y-70239705D01*
G37*
G36*
X282509560Y-67196895D02*
G01*
X282586172Y-67401054D01*
X282656233Y-67587898D01*
X282719118Y-67755758D01*
X282774199Y-67902966D01*
X282820852Y-68027851D01*
X282858451Y-68128745D01*
X282886369Y-68203978D01*
X282903982Y-68251882D01*
X282910663Y-68270785D01*
X282911153Y-68272731D01*
X282910860Y-68294479D01*
X282892196Y-68309365D01*
X282848146Y-68323281D01*
X282811652Y-68333170D01*
X282749002Y-68350609D01*
X282667487Y-68373561D01*
X282573543Y-68400215D01*
X282473604Y-68428759D01*
X282468096Y-68430336D01*
X282372712Y-68457144D01*
X282287471Y-68480206D01*
X282217698Y-68498150D01*
X282168720Y-68509603D01*
X282145863Y-68513194D01*
X282136107Y-68503559D01*
X282117777Y-68468039D01*
X282091801Y-68405370D01*
X282057762Y-68314482D01*
X282015248Y-68194307D01*
X281963842Y-68043776D01*
X281806403Y-67576802D01*
X280262851Y-67568288D01*
X280146362Y-67933061D01*
X280130835Y-67981674D01*
X280095816Y-68091237D01*
X280062950Y-68193976D01*
X280034188Y-68283792D01*
X280011484Y-68354584D01*
X279996790Y-68400254D01*
X279978484Y-68450729D01*
X279960833Y-68488310D01*
X279948402Y-68502673D01*
X279937342Y-68501015D01*
X279898071Y-68492587D01*
X279836610Y-68478239D01*
X279758363Y-68459337D01*
X279668734Y-68437243D01*
X279573128Y-68413323D01*
X279476948Y-68388941D01*
X279385598Y-68365460D01*
X279304483Y-68344245D01*
X279239007Y-68326660D01*
X279194574Y-68314070D01*
X279176588Y-68307839D01*
X279177692Y-68301979D01*
X279187980Y-68268446D01*
X279208372Y-68206666D01*
X279238291Y-68118296D01*
X279277159Y-68004988D01*
X279324398Y-67868398D01*
X279379428Y-67710179D01*
X279441671Y-67531987D01*
X279510550Y-67335476D01*
X279585486Y-67122299D01*
X279665900Y-66894113D01*
X279688125Y-66831189D01*
X280492755Y-66831189D01*
X281554352Y-66831189D01*
X281280656Y-66021483D01*
X281259690Y-65959488D01*
X281208307Y-65807818D01*
X281160520Y-65667140D01*
X281117312Y-65540320D01*
X281079663Y-65430224D01*
X281048556Y-65339719D01*
X281024972Y-65271672D01*
X281009893Y-65228950D01*
X281004300Y-65214418D01*
X280999247Y-65229366D01*
X280985327Y-65272603D01*
X280963520Y-65341063D01*
X280934796Y-65431681D01*
X280900124Y-65541395D01*
X280860473Y-65667141D01*
X280816812Y-65805857D01*
X280770111Y-65954479D01*
X280727427Y-66090373D01*
X280681866Y-66235299D01*
X280639598Y-66369617D01*
X280601710Y-66489882D01*
X280569287Y-66592652D01*
X280543416Y-66674481D01*
X280525181Y-66731927D01*
X280515669Y-66761544D01*
X280492755Y-66831189D01*
X279688125Y-66831189D01*
X279751215Y-66652570D01*
X279840851Y-66399326D01*
X279934230Y-66136034D01*
X280030775Y-65864350D01*
X280896365Y-63430866D01*
X281088895Y-63421658D01*
X281995347Y-65829273D01*
X282050135Y-65974816D01*
X282150116Y-66240506D01*
X282246674Y-66497228D01*
X282339185Y-66743313D01*
X282372202Y-66831189D01*
X282427022Y-66977092D01*
X282509560Y-67196895D01*
G37*
G36*
X268528185Y-69551447D02*
G01*
X268347927Y-69551447D01*
X268347927Y-69387576D01*
X268528185Y-69387576D01*
X268528185Y-69551447D01*
G37*
G36*
X273444314Y-69551447D02*
G01*
X273264056Y-69551447D01*
X273264056Y-69387576D01*
X273444314Y-69387576D01*
X273444314Y-69551447D01*
G37*
G36*
X276377078Y-70239705D02*
G01*
X276316069Y-70239482D01*
X276214704Y-70237243D01*
X276138013Y-70231654D01*
X276080604Y-70221563D01*
X276037088Y-70205818D01*
X276002074Y-70183267D01*
X275970173Y-70152759D01*
X275942653Y-70114250D01*
X275917546Y-70040545D01*
X275916494Y-69974344D01*
X276115662Y-69974344D01*
X276119471Y-70013273D01*
X276140402Y-70049607D01*
X276186456Y-70074809D01*
X276212370Y-70081661D01*
X276267681Y-70089264D01*
X276329510Y-70092221D01*
X276426766Y-70092221D01*
X276426766Y-69879189D01*
X276307509Y-69879189D01*
X276302527Y-69879201D01*
X276216244Y-69884789D01*
X276158255Y-69901559D01*
X276125686Y-69930935D01*
X276115662Y-69974344D01*
X275916494Y-69974344D01*
X275916289Y-69961432D01*
X275938481Y-69886612D01*
X275983720Y-69825785D01*
X276035360Y-69779644D01*
X275991698Y-69727754D01*
X275981144Y-69714788D01*
X275960497Y-69681047D01*
X275953125Y-69643534D01*
X275953202Y-69641576D01*
X276148185Y-69641576D01*
X276156522Y-69672511D01*
X276184606Y-69706195D01*
X276191957Y-69710669D01*
X276244934Y-69726308D01*
X276323896Y-69731705D01*
X276426766Y-69731705D01*
X276426766Y-69551447D01*
X276323896Y-69551447D01*
X276277374Y-69553246D01*
X276205433Y-69567855D01*
X276162454Y-69597255D01*
X276148185Y-69641576D01*
X275953202Y-69641576D01*
X275955321Y-69588011D01*
X275959449Y-69555985D01*
X275985644Y-69483139D01*
X276034823Y-69432915D01*
X276108734Y-69403210D01*
X276115967Y-69401781D01*
X276162789Y-69396476D01*
X276232206Y-69392128D01*
X276316083Y-69389153D01*
X276406282Y-69387967D01*
X276639798Y-69387576D01*
X276639798Y-70239705D01*
X276377078Y-70239705D01*
G37*
G36*
X290511475Y-70239705D02*
G01*
X290498346Y-70239641D01*
X290450868Y-70236906D01*
X290427552Y-70228594D01*
X290421346Y-70212585D01*
X290420964Y-70201859D01*
X290414273Y-70194319D01*
X290392669Y-70210446D01*
X290371561Y-70226546D01*
X290339411Y-70244467D01*
X290326450Y-70247547D01*
X290284531Y-70252344D01*
X290231221Y-70254799D01*
X290174135Y-70250318D01*
X290093989Y-70220565D01*
X290031604Y-70164605D01*
X289988781Y-70084301D01*
X289967317Y-69981516D01*
X289967650Y-69917458D01*
X290153250Y-69917458D01*
X290157496Y-69983085D01*
X290179065Y-70043510D01*
X290219282Y-70091476D01*
X290227076Y-70097487D01*
X290267490Y-70120712D01*
X290302409Y-70118668D01*
X290345000Y-70091343D01*
X290385259Y-70044224D01*
X290407880Y-69983715D01*
X290412814Y-69918076D01*
X290401379Y-69854500D01*
X290374895Y-69800181D01*
X290334681Y-69762313D01*
X290282056Y-69748092D01*
X290231172Y-69761949D01*
X290191414Y-69799632D01*
X290164998Y-69853888D01*
X290153250Y-69917458D01*
X289967650Y-69917458D01*
X289967853Y-69878278D01*
X289993840Y-69775470D01*
X290046630Y-69690751D01*
X290054336Y-69682382D01*
X290123667Y-69632191D01*
X290204662Y-69608170D01*
X290288932Y-69611550D01*
X290368088Y-69643562D01*
X290404959Y-69666912D01*
X290404959Y-69387576D01*
X290601604Y-69387576D01*
X290601604Y-70239705D01*
X290511475Y-70239705D01*
G37*
G36*
X272156183Y-69619942D02*
G01*
X272214145Y-69646338D01*
X272227238Y-69655969D01*
X272253043Y-69672795D01*
X272262877Y-69670692D01*
X272264443Y-69650260D01*
X272265454Y-69638180D01*
X272275431Y-69624493D01*
X272302538Y-69618390D01*
X272354572Y-69616995D01*
X272444701Y-69616995D01*
X272444701Y-70239705D01*
X272248056Y-70239705D01*
X272248056Y-70041983D01*
X272246760Y-69964835D01*
X272243040Y-69894004D01*
X272237482Y-69840394D01*
X272230673Y-69811779D01*
X272203884Y-69780796D01*
X272159244Y-69761377D01*
X272111038Y-69761685D01*
X272069491Y-69781284D01*
X272044830Y-69819735D01*
X272041436Y-69845381D01*
X272038287Y-69897837D01*
X272036111Y-69967775D01*
X272035248Y-70047157D01*
X272035024Y-70239705D01*
X271854766Y-70239705D01*
X271854766Y-70004538D01*
X271854768Y-69998972D01*
X271856068Y-69888399D01*
X271860517Y-69805175D01*
X271869210Y-69744164D01*
X271883238Y-69700229D01*
X271903694Y-69668232D01*
X271931672Y-69643037D01*
X271945796Y-69634188D01*
X272008772Y-69613712D01*
X272083314Y-69609015D01*
X272156183Y-69619942D01*
G37*
G36*
X289908974Y-69617665D02*
G01*
X289947623Y-69619929D01*
X289962508Y-69623238D01*
X289962502Y-69623316D01*
X289956734Y-69640772D01*
X289941321Y-69683906D01*
X289918036Y-69747845D01*
X289888653Y-69827717D01*
X289854946Y-69918650D01*
X289826109Y-69998108D01*
X289794833Y-70089788D01*
X289771118Y-70166079D01*
X289756504Y-70221967D01*
X289752527Y-70252440D01*
X289753195Y-70257776D01*
X289761373Y-70283856D01*
X289782831Y-70296474D01*
X289827314Y-70302099D01*
X289896959Y-70307138D01*
X289896959Y-70378849D01*
X289896839Y-70395578D01*
X289893148Y-70432625D01*
X289880053Y-70449686D01*
X289851895Y-70456515D01*
X289799235Y-70460254D01*
X289710639Y-70448211D01*
X289640862Y-70411733D01*
X289592477Y-70351860D01*
X289579652Y-70323176D01*
X289558209Y-70270473D01*
X289530455Y-70199707D01*
X289498410Y-70116280D01*
X289464089Y-70025595D01*
X289429512Y-69933053D01*
X289396697Y-69844057D01*
X289367661Y-69764008D01*
X289344423Y-69698310D01*
X289329000Y-69652364D01*
X289323411Y-69631571D01*
X289330974Y-69625256D01*
X289364293Y-69620093D01*
X289417284Y-69620274D01*
X289511156Y-69625189D01*
X289567688Y-69809544D01*
X289590077Y-69880083D01*
X289610333Y-69939217D01*
X289625753Y-69979204D01*
X289634123Y-69993899D01*
X289634274Y-69993879D01*
X289643211Y-69978253D01*
X289659684Y-69937627D01*
X289681396Y-69878018D01*
X289706049Y-69805447D01*
X289768073Y-69616995D01*
X289865290Y-69616995D01*
X289908974Y-69617665D01*
G37*
G36*
X273897812Y-69613457D02*
G01*
X273987823Y-69632194D01*
X274051457Y-69669467D01*
X274089521Y-69725857D01*
X274102822Y-69801947D01*
X274102645Y-69813701D01*
X274088392Y-69871735D01*
X274049698Y-69918166D01*
X273983903Y-69955268D01*
X273888344Y-69985318D01*
X273815822Y-70005891D01*
X273760761Y-70030111D01*
X273734247Y-70056243D01*
X273734020Y-70085757D01*
X273760928Y-70117346D01*
X273804633Y-70131239D01*
X273854658Y-70127575D01*
X273900767Y-70107129D01*
X273932724Y-70070678D01*
X273938018Y-70060405D01*
X273956091Y-70038510D01*
X273984795Y-70028844D01*
X274035144Y-70026673D01*
X274072579Y-70027156D01*
X274102464Y-70031859D01*
X274114170Y-70045709D01*
X274116185Y-70073624D01*
X274115471Y-70085425D01*
X274095049Y-70142454D01*
X274052200Y-70194962D01*
X273994672Y-70232799D01*
X273958564Y-70243061D01*
X273898716Y-70251834D01*
X273832981Y-70255451D01*
X273761521Y-70252522D01*
X273671039Y-70233738D01*
X273606315Y-70196703D01*
X273565798Y-70140375D01*
X273547938Y-70063710D01*
X273547059Y-70030661D01*
X273560006Y-69970034D01*
X273595992Y-69923935D01*
X273658121Y-69889272D01*
X273749496Y-69862954D01*
X273808676Y-69848800D01*
X273872297Y-69827598D01*
X273908237Y-69805154D01*
X273919540Y-69779983D01*
X273914218Y-69762196D01*
X273887142Y-69742847D01*
X273846235Y-69735367D01*
X273801801Y-69739602D01*
X273764146Y-69755400D01*
X273743575Y-69782605D01*
X273742135Y-69787329D01*
X273729251Y-69803734D01*
X273700395Y-69811611D01*
X273647242Y-69813641D01*
X273642010Y-69813624D01*
X273586878Y-69809261D01*
X273561104Y-69794138D01*
X273562025Y-69763856D01*
X273586981Y-69714014D01*
X273594486Y-69702410D01*
X273650255Y-69651680D01*
X273731466Y-69621087D01*
X273837604Y-69610842D01*
X273897812Y-69613457D01*
G37*
G36*
X284227024Y-65487447D02*
G01*
X285964056Y-65487447D01*
X285964056Y-63471834D01*
X286734250Y-63471834D01*
X286734250Y-68371576D01*
X285964056Y-68371576D01*
X285964056Y-66241254D01*
X284227024Y-66241254D01*
X284227024Y-68371576D01*
X283440443Y-68371576D01*
X283440443Y-63471834D01*
X284227024Y-63471834D01*
X284227024Y-65487447D01*
G37*
G36*
X277263419Y-69396091D02*
G01*
X277328102Y-69424671D01*
X277415608Y-69489799D01*
X277478984Y-69576612D01*
X277517628Y-69684180D01*
X277530943Y-69811573D01*
X277527831Y-69896114D01*
X277511983Y-69986028D01*
X277480214Y-70060478D01*
X277429729Y-70128198D01*
X277374385Y-70181650D01*
X277299293Y-70227930D01*
X277207998Y-70255540D01*
X277121970Y-70262921D01*
X277026630Y-70254624D01*
X276942959Y-70231788D01*
X276902511Y-70210714D01*
X276831672Y-70149089D01*
X276777516Y-70067237D01*
X276745895Y-69972849D01*
X276734473Y-69911963D01*
X276833349Y-69911963D01*
X276848632Y-69911975D01*
X276897254Y-69913421D01*
X276924411Y-69920448D01*
X276939288Y-69937510D01*
X276951068Y-69969062D01*
X276970311Y-70010702D01*
X277018589Y-70061952D01*
X277081591Y-70088458D01*
X277153030Y-70088167D01*
X277226623Y-70059027D01*
X277235829Y-70053047D01*
X277287426Y-69998668D01*
X277317983Y-69920827D01*
X277328031Y-69818264D01*
X277323870Y-69757623D01*
X277299825Y-69671118D01*
X277256639Y-69605094D01*
X277196905Y-69562971D01*
X277123217Y-69548170D01*
X277059348Y-69560176D01*
X276999469Y-69595377D01*
X276959557Y-69646958D01*
X276951313Y-69661382D01*
X276932814Y-69674901D01*
X276899145Y-69681074D01*
X276841535Y-69682544D01*
X276739688Y-69682544D01*
X276762718Y-69604705D01*
X276764162Y-69599976D01*
X276806534Y-69516462D01*
X276872585Y-69449702D01*
X276956806Y-69401990D01*
X277053690Y-69375621D01*
X277157730Y-69372890D01*
X277263419Y-69396091D01*
G37*
G36*
X268696177Y-69619522D02*
G01*
X268745481Y-69641397D01*
X268784500Y-69668332D01*
X268823153Y-69704644D01*
X268823153Y-69660820D01*
X268824702Y-69637482D01*
X268834872Y-69623492D01*
X268861717Y-69617967D01*
X268913282Y-69616995D01*
X269003411Y-69616995D01*
X269003411Y-70239705D01*
X268806766Y-70239705D01*
X268806766Y-70060704D01*
X268806728Y-70030768D01*
X268805757Y-69960335D01*
X268802419Y-69912668D01*
X268795328Y-69880269D01*
X268783098Y-69855640D01*
X268764341Y-69831285D01*
X268746156Y-69811488D01*
X268708309Y-69787148D01*
X268657825Y-69780866D01*
X268593734Y-69780866D01*
X268593734Y-69699898D01*
X268594688Y-69671968D01*
X268600522Y-69629854D01*
X268609900Y-69608938D01*
X268614000Y-69607037D01*
X268648409Y-69606729D01*
X268696177Y-69619522D01*
G37*
G36*
X286394241Y-69619522D02*
G01*
X286443545Y-69641397D01*
X286482565Y-69668332D01*
X286521217Y-69704644D01*
X286521217Y-69660820D01*
X286522766Y-69637482D01*
X286532937Y-69623492D01*
X286559781Y-69617967D01*
X286611346Y-69616995D01*
X286701475Y-69616995D01*
X286701475Y-70239705D01*
X286504830Y-70239705D01*
X286504830Y-70060704D01*
X286504793Y-70030768D01*
X286503821Y-69960335D01*
X286500483Y-69912668D01*
X286493392Y-69880269D01*
X286481162Y-69855640D01*
X286462406Y-69831285D01*
X286444220Y-69811488D01*
X286406374Y-69787148D01*
X286355890Y-69780866D01*
X286291798Y-69780866D01*
X286291798Y-69699898D01*
X286292752Y-69671968D01*
X286298586Y-69629854D01*
X286307965Y-69608938D01*
X286312064Y-69607037D01*
X286346474Y-69606729D01*
X286394241Y-69619522D01*
G37*
G36*
X270035798Y-68371576D02*
G01*
X269265788Y-68371576D01*
X269261599Y-66966876D01*
X269257411Y-65562176D01*
X268233217Y-66998971D01*
X267209024Y-68435765D01*
X266987798Y-68437125D01*
X266987798Y-63471834D01*
X267757809Y-63471834D01*
X267761997Y-64874779D01*
X267766185Y-66277723D01*
X268790379Y-64850562D01*
X269814572Y-63423400D01*
X269925185Y-63423037D01*
X270035798Y-63422673D01*
X270035798Y-68371576D01*
G37*
G36*
X282326121Y-69551447D02*
G01*
X282145863Y-69551447D01*
X282145863Y-69387576D01*
X282326121Y-69387576D01*
X282326121Y-69551447D01*
G37*
G36*
X266949682Y-69613457D02*
G01*
X267039694Y-69632194D01*
X267103328Y-69669467D01*
X267141392Y-69725857D01*
X267154693Y-69801947D01*
X267154516Y-69813701D01*
X267140263Y-69871735D01*
X267101569Y-69918166D01*
X267035774Y-69955268D01*
X266940215Y-69985318D01*
X266867693Y-70005891D01*
X266812632Y-70030111D01*
X266786118Y-70056243D01*
X266785891Y-70085757D01*
X266812799Y-70117346D01*
X266856504Y-70131239D01*
X266906529Y-70127575D01*
X266952638Y-70107129D01*
X266984595Y-70070678D01*
X266989889Y-70060405D01*
X267007962Y-70038510D01*
X267036666Y-70028844D01*
X267087015Y-70026673D01*
X267124450Y-70027156D01*
X267154335Y-70031859D01*
X267166041Y-70045709D01*
X267168056Y-70073624D01*
X267167342Y-70085425D01*
X267146920Y-70142454D01*
X267104070Y-70194962D01*
X267046543Y-70232799D01*
X267010435Y-70243061D01*
X266950587Y-70251834D01*
X266884852Y-70255451D01*
X266813392Y-70252522D01*
X266722910Y-70233738D01*
X266658186Y-70196703D01*
X266617669Y-70140375D01*
X266599809Y-70063710D01*
X266598930Y-70030661D01*
X266611877Y-69970034D01*
X266647863Y-69923935D01*
X266709992Y-69889272D01*
X266801367Y-69862954D01*
X266860547Y-69848800D01*
X266924168Y-69827598D01*
X266960108Y-69805154D01*
X266971411Y-69779983D01*
X266966089Y-69762196D01*
X266939013Y-69742847D01*
X266898106Y-69735367D01*
X266853672Y-69739602D01*
X266816017Y-69755400D01*
X266795446Y-69782605D01*
X266794006Y-69787329D01*
X266781122Y-69803734D01*
X266752266Y-69811611D01*
X266699113Y-69813641D01*
X266693881Y-69813624D01*
X266638749Y-69809261D01*
X266612975Y-69794138D01*
X266613896Y-69763856D01*
X266638852Y-69714014D01*
X266646357Y-69702410D01*
X266702126Y-69651680D01*
X266783337Y-69621087D01*
X266889475Y-69610842D01*
X266949682Y-69613457D01*
G37*
G36*
X278081863Y-70239705D02*
G01*
X278081863Y-69944737D01*
X277945150Y-69944737D01*
X277908865Y-69943984D01*
X277798027Y-69929137D01*
X277713149Y-69894827D01*
X277653467Y-69840430D01*
X277618217Y-69765325D01*
X277609897Y-69696038D01*
X277805598Y-69696038D01*
X277814237Y-69730312D01*
X277838835Y-69754749D01*
X277843812Y-69757934D01*
X277897319Y-69775057D01*
X277978993Y-69780866D01*
X278081863Y-69780866D01*
X278081863Y-69551447D01*
X277987637Y-69551689D01*
X277969260Y-69551904D01*
X277894259Y-69558745D01*
X277845292Y-69577289D01*
X277817622Y-69610390D01*
X277806512Y-69660907D01*
X277805598Y-69696038D01*
X277609897Y-69696038D01*
X277606637Y-69668889D01*
X277606749Y-69657815D01*
X277619558Y-69565438D01*
X277655232Y-69493374D01*
X277716074Y-69436737D01*
X277727546Y-69429109D01*
X277751528Y-69415646D01*
X277778511Y-69406132D01*
X277814451Y-69399700D01*
X277865301Y-69395484D01*
X277937015Y-69392618D01*
X278035547Y-69390233D01*
X278294895Y-69384697D01*
X278294895Y-70239705D01*
X278081863Y-70239705D01*
G37*
G36*
X274785744Y-69987090D02*
G01*
X274762338Y-70085133D01*
X274714035Y-70162471D01*
X274641227Y-70218357D01*
X274598356Y-70237281D01*
X274507910Y-70257143D01*
X274417158Y-70254327D01*
X274333267Y-70230395D01*
X274263402Y-70186908D01*
X274214728Y-70125428D01*
X274205705Y-70107402D01*
X274188545Y-70070625D01*
X274181734Y-70051906D01*
X274186544Y-70048881D01*
X274215215Y-70044700D01*
X274261129Y-70043060D01*
X274281889Y-70043501D01*
X274335222Y-70052299D01*
X274368851Y-70074360D01*
X274394818Y-70095898D01*
X274447546Y-70114332D01*
X274503764Y-70112118D01*
X274554864Y-70091715D01*
X274592237Y-70055585D01*
X274607277Y-70006189D01*
X274606108Y-69997453D01*
X274597541Y-69988530D01*
X274576337Y-69982728D01*
X274537464Y-69979394D01*
X274475886Y-69977873D01*
X274386572Y-69977512D01*
X274300471Y-69977628D01*
X274235287Y-69976233D01*
X274194287Y-69970463D01*
X274173030Y-69957450D01*
X274167074Y-69934325D01*
X274171977Y-69898221D01*
X274182783Y-69848625D01*
X274361992Y-69848625D01*
X274362529Y-69849951D01*
X274382692Y-69856475D01*
X274426149Y-69861066D01*
X274484895Y-69862802D01*
X274538736Y-69861855D01*
X274585482Y-69856348D01*
X274604125Y-69843827D01*
X274597284Y-69821935D01*
X274567575Y-69788315D01*
X274549096Y-69772406D01*
X274495192Y-69749277D01*
X274441744Y-69755607D01*
X274395955Y-69791270D01*
X274393826Y-69794004D01*
X274371272Y-69827113D01*
X274361992Y-69848625D01*
X274182783Y-69848625D01*
X274183296Y-69846269D01*
X274217018Y-69758949D01*
X274274122Y-69687126D01*
X274348451Y-69635307D01*
X274433902Y-69607745D01*
X274524375Y-69608688D01*
X274584974Y-69624716D01*
X274671556Y-69671326D01*
X274735270Y-69740530D01*
X274774608Y-69830433D01*
X274776265Y-69843827D01*
X274788056Y-69939140D01*
X274785744Y-69987090D01*
G37*
G36*
X287374862Y-70141996D02*
G01*
X287344346Y-70199817D01*
X287300912Y-70237336D01*
X287274106Y-70246058D01*
X287213599Y-70253641D01*
X287143523Y-70253561D01*
X287077545Y-70246108D01*
X287029334Y-70231572D01*
X286993130Y-70218028D01*
X286971825Y-70223378D01*
X286962190Y-70229359D01*
X286926770Y-70236808D01*
X286876670Y-70239728D01*
X286791604Y-70239751D01*
X286795886Y-70022599D01*
X286796969Y-69972928D01*
X286984152Y-69972928D01*
X286984357Y-69996973D01*
X286996897Y-70045680D01*
X287000915Y-70058840D01*
X287024330Y-70100177D01*
X287064799Y-70123519D01*
X287091325Y-70132518D01*
X287124057Y-70139625D01*
X287147878Y-70133180D01*
X287176968Y-70111688D01*
X287203314Y-70081955D01*
X287206046Y-70048237D01*
X287177933Y-70017871D01*
X287120010Y-69991870D01*
X287033314Y-69971247D01*
X286999635Y-69966688D01*
X286984152Y-69972928D01*
X286796969Y-69972928D01*
X286797224Y-69961233D01*
X286800310Y-69867299D01*
X286804830Y-69798298D01*
X286811629Y-69749097D01*
X286821553Y-69714564D01*
X286835448Y-69689565D01*
X286854160Y-69668969D01*
X286864027Y-69660939D01*
X286917748Y-69634733D01*
X286989745Y-69616101D01*
X287068859Y-69607293D01*
X287143927Y-69610558D01*
X287198090Y-69621327D01*
X287281539Y-69655531D01*
X287337753Y-69707634D01*
X287367007Y-69777845D01*
X287377443Y-69830028D01*
X287287896Y-69830028D01*
X287257444Y-69829657D01*
X287217095Y-69825352D01*
X287194538Y-69813207D01*
X287179889Y-69789512D01*
X287168191Y-69770838D01*
X287131496Y-69744235D01*
X287086548Y-69734993D01*
X287042773Y-69742368D01*
X287009597Y-69765615D01*
X286996443Y-69803991D01*
X286996443Y-69804235D01*
X286998833Y-69826866D01*
X287009918Y-69842743D01*
X287035648Y-69854625D01*
X287081973Y-69865270D01*
X287154842Y-69877436D01*
X287172004Y-69880308D01*
X287266158Y-69904062D01*
X287334111Y-69936616D01*
X287372861Y-69976604D01*
X287385062Y-70009216D01*
X287387666Y-70048237D01*
X287389440Y-70074815D01*
X287374862Y-70141996D01*
G37*
G36*
X282326121Y-70239705D02*
G01*
X282145863Y-70239705D01*
X282145863Y-69616995D01*
X282326121Y-69616995D01*
X282326121Y-70239705D01*
G37*
G36*
X275503805Y-69983100D02*
G01*
X275483143Y-70083193D01*
X275442174Y-70160491D01*
X275378779Y-70219166D01*
X275363404Y-70228320D01*
X275296421Y-70251166D01*
X275220919Y-70257835D01*
X275149165Y-70248198D01*
X275093427Y-70222129D01*
X275071464Y-70205890D01*
X275054452Y-70199726D01*
X275050250Y-70213935D01*
X275050198Y-70215715D01*
X275041655Y-70230314D01*
X275013852Y-70237675D01*
X274960121Y-70239705D01*
X274869992Y-70239705D01*
X274869992Y-69966814D01*
X275057751Y-69966814D01*
X275073897Y-70032926D01*
X275108172Y-70086085D01*
X275120047Y-70097119D01*
X275165235Y-70121443D01*
X275211961Y-70115463D01*
X275265129Y-70078958D01*
X275302461Y-70032486D01*
X275323843Y-69972865D01*
X275326366Y-69910484D01*
X275312379Y-69851208D01*
X275284231Y-69800900D01*
X275244272Y-69765427D01*
X275194852Y-69750650D01*
X275138319Y-69762436D01*
X275109556Y-69782443D01*
X275076435Y-69832402D01*
X275058882Y-69896916D01*
X275057751Y-69966814D01*
X274869992Y-69966814D01*
X274869992Y-69387576D01*
X275066637Y-69387576D01*
X275066637Y-69666912D01*
X275103508Y-69643562D01*
X275112986Y-69637871D01*
X275193076Y-69609692D01*
X275277366Y-69609743D01*
X275357200Y-69636780D01*
X275423921Y-69689560D01*
X275432815Y-69700026D01*
X275480596Y-69776921D01*
X275503908Y-69864742D01*
X275504333Y-69910484D01*
X275504895Y-69970937D01*
X275503805Y-69983100D01*
G37*
G36*
X345897090Y-54889321D02*
G01*
X345900612Y-54890747D01*
X345906512Y-54893611D01*
X345914963Y-54898014D01*
X345926139Y-54904057D01*
X345940212Y-54911841D01*
X345957357Y-54921467D01*
X345977745Y-54933036D01*
X346001552Y-54946649D01*
X346028949Y-54962407D01*
X346060110Y-54980411D01*
X346095209Y-55000762D01*
X346134418Y-55023560D01*
X346177912Y-55048907D01*
X346225863Y-55076904D01*
X346278444Y-55107652D01*
X346335829Y-55141252D01*
X346398191Y-55177804D01*
X346465704Y-55217410D01*
X346538541Y-55260171D01*
X346616874Y-55306188D01*
X346700878Y-55355561D01*
X346790725Y-55408391D01*
X346886589Y-55464781D01*
X346988643Y-55524829D01*
X347097060Y-55588639D01*
X347212014Y-55656310D01*
X347293250Y-55704142D01*
X347419821Y-55778695D01*
X347539664Y-55849319D01*
X347652777Y-55916015D01*
X347759161Y-55978782D01*
X347858816Y-56037619D01*
X347951742Y-56092528D01*
X348037939Y-56143508D01*
X348117406Y-56190559D01*
X348190144Y-56233681D01*
X348256153Y-56272874D01*
X348315433Y-56308138D01*
X348367983Y-56339473D01*
X348413804Y-56366879D01*
X348452895Y-56390356D01*
X348485257Y-56409904D01*
X348510890Y-56425523D01*
X348529793Y-56437213D01*
X348541967Y-56444974D01*
X348547411Y-56448805D01*
X348549661Y-56450870D01*
X348567351Y-56471123D01*
X348582478Y-56496788D01*
X348597150Y-56526460D01*
X348598336Y-56637723D01*
X348598339Y-56637958D01*
X348598439Y-56654815D01*
X348598466Y-56678677D01*
X348598421Y-56709235D01*
X348598308Y-56746181D01*
X348598130Y-56789208D01*
X348597888Y-56838006D01*
X348597587Y-56892267D01*
X348597228Y-56951683D01*
X348596815Y-57015946D01*
X348596350Y-57084748D01*
X348595836Y-57157780D01*
X348595277Y-57234734D01*
X348594674Y-57315301D01*
X348594030Y-57399174D01*
X348593349Y-57486045D01*
X348592633Y-57575604D01*
X348591885Y-57667544D01*
X348591107Y-57761556D01*
X348590303Y-57857332D01*
X348589475Y-57954564D01*
X348588627Y-58052943D01*
X348587760Y-58152162D01*
X348586878Y-58251912D01*
X348585983Y-58351884D01*
X348585078Y-58451771D01*
X348584166Y-58551264D01*
X348583251Y-58650055D01*
X348582334Y-58747836D01*
X348581418Y-58844298D01*
X348580506Y-58939133D01*
X348579601Y-59032032D01*
X348578706Y-59122689D01*
X348577824Y-59210793D01*
X348576957Y-59296038D01*
X348576108Y-59378114D01*
X348575280Y-59456714D01*
X348574476Y-59531529D01*
X348573698Y-59602251D01*
X348572950Y-59668571D01*
X348572234Y-59730182D01*
X348571552Y-59786775D01*
X348570908Y-59838041D01*
X348570305Y-59883674D01*
X348569745Y-59923363D01*
X348569231Y-59956802D01*
X348568766Y-59983681D01*
X348568352Y-60003692D01*
X348567993Y-60016528D01*
X348567691Y-60021880D01*
X348560605Y-60048770D01*
X348545267Y-60081107D01*
X348523542Y-60109365D01*
X348495935Y-60132763D01*
X348495024Y-60133331D01*
X348488018Y-60137437D01*
X348474630Y-60145149D01*
X348455156Y-60156299D01*
X348429892Y-60170721D01*
X348399132Y-60188248D01*
X348363172Y-60208712D01*
X348322307Y-60231946D01*
X348276832Y-60257783D01*
X348227042Y-60286056D01*
X348173232Y-60316599D01*
X348115698Y-60349243D01*
X348054735Y-60383822D01*
X347990638Y-60420169D01*
X347923702Y-60458116D01*
X347854223Y-60497497D01*
X347782494Y-60538144D01*
X347708813Y-60579891D01*
X347633473Y-60622570D01*
X347556771Y-60666014D01*
X347479001Y-60710056D01*
X347400458Y-60754529D01*
X347321437Y-60799266D01*
X347242235Y-60844100D01*
X347163145Y-60888863D01*
X347084464Y-60933389D01*
X347006486Y-60977510D01*
X346929506Y-61021060D01*
X346853820Y-61063871D01*
X346779723Y-61105776D01*
X346707510Y-61146609D01*
X346637476Y-61186201D01*
X346569916Y-61224386D01*
X346505126Y-61260997D01*
X346443401Y-61295867D01*
X346385036Y-61328829D01*
X346330326Y-61359714D01*
X346279566Y-61388358D01*
X346233052Y-61414591D01*
X346191078Y-61438248D01*
X346153940Y-61459161D01*
X346121933Y-61477164D01*
X346095352Y-61492088D01*
X346074493Y-61503767D01*
X346059650Y-61512033D01*
X346051119Y-61516721D01*
X346037612Y-61523962D01*
X346020517Y-61533019D01*
X346006835Y-61540138D01*
X345997711Y-61544725D01*
X345994290Y-61546187D01*
X345994317Y-61544202D01*
X345994801Y-61535485D01*
X345995742Y-61520815D01*
X345997070Y-61501266D01*
X345998714Y-61477911D01*
X346000600Y-61451823D01*
X346001629Y-61437599D01*
X346004054Y-61403161D01*
X346006686Y-61364731D01*
X346009352Y-61324876D01*
X346011880Y-61286164D01*
X346014097Y-61251163D01*
X346014271Y-61248371D01*
X346016013Y-61220608D01*
X346017609Y-61195642D01*
X346018994Y-61174471D01*
X346020102Y-61158088D01*
X346020866Y-61147492D01*
X346021221Y-61143678D01*
X346021359Y-61143598D01*
X346026038Y-61140947D01*
X346037132Y-61134667D01*
X346054335Y-61124932D01*
X346077340Y-61111916D01*
X346105839Y-61095793D01*
X346139527Y-61076736D01*
X346178096Y-61054918D01*
X346221238Y-61030513D01*
X346268648Y-61003696D01*
X346320019Y-60974638D01*
X346375042Y-60943515D01*
X346433412Y-60910500D01*
X346494822Y-60875765D01*
X346558964Y-60839485D01*
X346625531Y-60801834D01*
X346694218Y-60762985D01*
X346764716Y-60723111D01*
X346836719Y-60682386D01*
X346909920Y-60640985D01*
X346984012Y-60599079D01*
X347058688Y-60556843D01*
X347133641Y-60514451D01*
X347208564Y-60472076D01*
X347283151Y-60429892D01*
X347357094Y-60388072D01*
X347430087Y-60346790D01*
X347501821Y-60306219D01*
X347571992Y-60266534D01*
X347640291Y-60227907D01*
X347706412Y-60190512D01*
X347770048Y-60154523D01*
X347830891Y-60120114D01*
X347888636Y-60087458D01*
X347942974Y-60056728D01*
X347993600Y-60028098D01*
X348040206Y-60001743D01*
X348082485Y-59977834D01*
X348120130Y-59956547D01*
X348152835Y-59938054D01*
X348180292Y-59922530D01*
X348202194Y-59910147D01*
X348218236Y-59901079D01*
X348228109Y-59895501D01*
X348231506Y-59893585D01*
X348231546Y-59892053D01*
X348231662Y-59883428D01*
X348231840Y-59867427D01*
X348232079Y-59844309D01*
X348232376Y-59814328D01*
X348232729Y-59777742D01*
X348233136Y-59734808D01*
X348233593Y-59685781D01*
X348234100Y-59630919D01*
X348234653Y-59570478D01*
X348235250Y-59504715D01*
X348235889Y-59433885D01*
X348236568Y-59358247D01*
X348237285Y-59278056D01*
X348238036Y-59193569D01*
X348238820Y-59105042D01*
X348239634Y-59012733D01*
X348240477Y-58916897D01*
X348241345Y-58817791D01*
X348242237Y-58715672D01*
X348243151Y-58610797D01*
X348244083Y-58503421D01*
X348245031Y-58393802D01*
X348245994Y-58282196D01*
X348246741Y-58195296D01*
X348247886Y-58061202D01*
X348248957Y-57934602D01*
X348249955Y-57815313D01*
X348250881Y-57703151D01*
X348251736Y-57597932D01*
X348252521Y-57499473D01*
X348253237Y-57407589D01*
X348253885Y-57322097D01*
X348254466Y-57242814D01*
X348254981Y-57169554D01*
X348255432Y-57102135D01*
X348255819Y-57040373D01*
X348256143Y-56984083D01*
X348256406Y-56933083D01*
X348256608Y-56887188D01*
X348256750Y-56846214D01*
X348256834Y-56809979D01*
X348256860Y-56778297D01*
X348256830Y-56750985D01*
X348256745Y-56727860D01*
X348256605Y-56708737D01*
X348256412Y-56693433D01*
X348256166Y-56681764D01*
X348255869Y-56673546D01*
X348255522Y-56668596D01*
X348255126Y-56666729D01*
X348251730Y-56664607D01*
X348241857Y-56658671D01*
X348225782Y-56649087D01*
X348203769Y-56636012D01*
X348176080Y-56619600D01*
X348142979Y-56600007D01*
X348104730Y-56577388D01*
X348061595Y-56551900D01*
X348013838Y-56523696D01*
X347961722Y-56492934D01*
X347905511Y-56459767D01*
X347845468Y-56424352D01*
X347781856Y-56386844D01*
X347714939Y-56347397D01*
X347644980Y-56306169D01*
X347572242Y-56263314D01*
X347496988Y-56218987D01*
X347419483Y-56173344D01*
X347339989Y-56126541D01*
X347258770Y-56078732D01*
X347210072Y-56050070D01*
X347127118Y-56001244D01*
X347045036Y-55952932D01*
X346964150Y-55905324D01*
X346884787Y-55858610D01*
X346807269Y-55812983D01*
X346731923Y-55768634D01*
X346659072Y-55725752D01*
X346589040Y-55684531D01*
X346522154Y-55645159D01*
X346458737Y-55607830D01*
X346399114Y-55572733D01*
X346343610Y-55540060D01*
X346292549Y-55510002D01*
X346246256Y-55482750D01*
X346205055Y-55458495D01*
X346169272Y-55437429D01*
X346139230Y-55419742D01*
X346115255Y-55405625D01*
X346097672Y-55395270D01*
X345928182Y-55295443D01*
X345925467Y-55272176D01*
X345925201Y-55269759D01*
X345923976Y-55256912D01*
X345922379Y-55238284D01*
X345920535Y-55215424D01*
X345918570Y-55189877D01*
X345916609Y-55163190D01*
X345914292Y-55131899D01*
X345911466Y-55095423D01*
X345908396Y-55057117D01*
X345905323Y-55019965D01*
X345902485Y-54986952D01*
X345901197Y-54972055D01*
X345899160Y-54947130D01*
X345897516Y-54925199D01*
X345896346Y-54907452D01*
X345895732Y-54895082D01*
X345895758Y-54889279D01*
X345895773Y-54889232D01*
X345897090Y-54889321D01*
G37*
G36*
X351790282Y-55130147D02*
G01*
X351790104Y-55169910D01*
X351789924Y-55212849D01*
X351789741Y-55259086D01*
X351789557Y-55308741D01*
X351789369Y-55361937D01*
X351789179Y-55418795D01*
X351788985Y-55479436D01*
X351788787Y-55543983D01*
X351788585Y-55612555D01*
X351788379Y-55685276D01*
X351788167Y-55762266D01*
X351787951Y-55843647D01*
X351787729Y-55929540D01*
X351787501Y-56020068D01*
X351787267Y-56115350D01*
X351787026Y-56215510D01*
X351786778Y-56320667D01*
X351786523Y-56430945D01*
X351786261Y-56546464D01*
X351785990Y-56667346D01*
X351785711Y-56793712D01*
X351785424Y-56925684D01*
X351785127Y-57063383D01*
X351784821Y-57206931D01*
X351784505Y-57356449D01*
X351784179Y-57512059D01*
X351783843Y-57673882D01*
X351783496Y-57842039D01*
X351783138Y-58016654D01*
X351782768Y-58197845D01*
X351782387Y-58385736D01*
X351781993Y-58580448D01*
X351781587Y-58782102D01*
X351781168Y-58990819D01*
X351780736Y-59206722D01*
X351780290Y-59429931D01*
X351779831Y-59660568D01*
X351779357Y-59898755D01*
X351778868Y-60144613D01*
X351778782Y-60188260D01*
X351778502Y-60328311D01*
X351778234Y-60460843D01*
X351777977Y-60586063D01*
X351777730Y-60704181D01*
X351777492Y-60815407D01*
X351777261Y-60919951D01*
X351777036Y-61018020D01*
X351776816Y-61109825D01*
X351776599Y-61195575D01*
X351776386Y-61275480D01*
X351776174Y-61349747D01*
X351775962Y-61418588D01*
X351775749Y-61482211D01*
X351775534Y-61540826D01*
X351775316Y-61594641D01*
X351775093Y-61643867D01*
X351774865Y-61688712D01*
X351774629Y-61729386D01*
X351774386Y-61766098D01*
X351774133Y-61799057D01*
X351773870Y-61828473D01*
X351773595Y-61854556D01*
X351773307Y-61877513D01*
X351773006Y-61897556D01*
X351772689Y-61914892D01*
X351772355Y-61929732D01*
X351772005Y-61942285D01*
X351771635Y-61952759D01*
X351771476Y-61956268D01*
X351771245Y-61961365D01*
X351770835Y-61968311D01*
X351770402Y-61973808D01*
X351769945Y-61978064D01*
X351769464Y-61981288D01*
X351768957Y-61983690D01*
X351768422Y-61985479D01*
X351758679Y-62004314D01*
X351743551Y-62022494D01*
X351743277Y-62022757D01*
X351738433Y-62026637D01*
X351730073Y-62032427D01*
X351717946Y-62040275D01*
X351701799Y-62050329D01*
X351681383Y-62062737D01*
X351656444Y-62077647D01*
X351626732Y-62095207D01*
X351591996Y-62115565D01*
X351551984Y-62138869D01*
X351506444Y-62165267D01*
X351455125Y-62194906D01*
X351397777Y-62227936D01*
X351334147Y-62264503D01*
X351263984Y-62304756D01*
X351232913Y-62322572D01*
X351178492Y-62353798D01*
X351126113Y-62383875D01*
X351076172Y-62412577D01*
X351029060Y-62439677D01*
X350985171Y-62464948D01*
X350944898Y-62488163D01*
X350908636Y-62509095D01*
X350876776Y-62527517D01*
X350849713Y-62543203D01*
X350827839Y-62555925D01*
X350811548Y-62565456D01*
X350801234Y-62571569D01*
X350797289Y-62574038D01*
X350796119Y-62575663D01*
X350796291Y-62579862D01*
X350799803Y-62586704D01*
X350807262Y-62597254D01*
X350819275Y-62612576D01*
X350856585Y-62657528D01*
X350934219Y-62742502D01*
X351017575Y-62823307D01*
X351105699Y-62899097D01*
X351197636Y-62969024D01*
X351292431Y-63032241D01*
X351318783Y-63048420D01*
X351382306Y-63085676D01*
X351444625Y-63119519D01*
X351507528Y-63150813D01*
X351572804Y-63180425D01*
X351642240Y-63209221D01*
X351717627Y-63238066D01*
X351725286Y-63240926D01*
X351750877Y-63251178D01*
X351770430Y-63260486D01*
X351785167Y-63269576D01*
X351796306Y-63279170D01*
X351805068Y-63289995D01*
X351809271Y-63296555D01*
X351821388Y-63323670D01*
X351826258Y-63351700D01*
X351823933Y-63379578D01*
X351814469Y-63406234D01*
X351797920Y-63430598D01*
X351796076Y-63432645D01*
X351778998Y-63447256D01*
X351757808Y-63457961D01*
X351730816Y-63465641D01*
X351719818Y-63468492D01*
X351701442Y-63474166D01*
X351678077Y-63482000D01*
X351650914Y-63491573D01*
X351621143Y-63502466D01*
X351589955Y-63514257D01*
X351558541Y-63526525D01*
X351535858Y-63535859D01*
X351492853Y-63554926D01*
X351446155Y-63577105D01*
X351397461Y-63601537D01*
X351348468Y-63627360D01*
X351300875Y-63653713D01*
X351256377Y-63679736D01*
X351242512Y-63688177D01*
X351139332Y-63756048D01*
X351041453Y-63829584D01*
X350949006Y-63908641D01*
X350862122Y-63993073D01*
X350780934Y-64082738D01*
X350705574Y-64177490D01*
X350636173Y-64277185D01*
X350572864Y-64381678D01*
X350515778Y-64490825D01*
X350503739Y-64516302D01*
X350473751Y-64585413D01*
X350444883Y-64660413D01*
X350416762Y-64742251D01*
X350411344Y-64758441D01*
X350401455Y-64784847D01*
X350391774Y-64805365D01*
X350381467Y-64821162D01*
X350369702Y-64833405D01*
X350355644Y-64843262D01*
X350338461Y-64851898D01*
X350331598Y-64854529D01*
X350308419Y-64859332D01*
X350283624Y-64859626D01*
X350260858Y-64855254D01*
X350248061Y-64850238D01*
X350230079Y-64839544D01*
X350212875Y-64824131D01*
X350194787Y-64802676D01*
X350189454Y-64795582D01*
X350182462Y-64785458D01*
X350176495Y-64775189D01*
X350170887Y-64763314D01*
X350164973Y-64748374D01*
X350158088Y-64728909D01*
X350149566Y-64703460D01*
X350143178Y-64684318D01*
X350125702Y-64634165D01*
X350108561Y-64588655D01*
X350090859Y-64545572D01*
X350071699Y-64502699D01*
X350050184Y-64457821D01*
X350035461Y-64428566D01*
X349979573Y-64327356D01*
X349918440Y-64231373D01*
X349851495Y-64139826D01*
X349778171Y-64051924D01*
X349697899Y-63966876D01*
X349691531Y-63960541D01*
X349615007Y-63888862D01*
X349535079Y-63822166D01*
X349450927Y-63759878D01*
X349361734Y-63701425D01*
X349266678Y-63646233D01*
X349164941Y-63593728D01*
X349152252Y-63587565D01*
X349129370Y-63576644D01*
X349112091Y-63568775D01*
X349099509Y-63563604D01*
X349090720Y-63560774D01*
X349084819Y-63559931D01*
X349080900Y-63560718D01*
X349078535Y-63562033D01*
X349069630Y-63567094D01*
X349054320Y-63575841D01*
X349032800Y-63588160D01*
X349005269Y-63603937D01*
X348971924Y-63623058D01*
X348932962Y-63645411D01*
X348888581Y-63670881D01*
X348838979Y-63699357D01*
X348784352Y-63730723D01*
X348724898Y-63764867D01*
X348660814Y-63801675D01*
X348592298Y-63841034D01*
X348519548Y-63882830D01*
X348442760Y-63926951D01*
X348362132Y-63973282D01*
X348277862Y-64021710D01*
X348190147Y-64072122D01*
X348099184Y-64124404D01*
X348005170Y-64178443D01*
X347908304Y-64234125D01*
X347808782Y-64291338D01*
X347706803Y-64349967D01*
X347602562Y-64409900D01*
X347496259Y-64471022D01*
X347388089Y-64533221D01*
X347278251Y-64596383D01*
X347195228Y-64644121D01*
X347086540Y-64706599D01*
X346979637Y-64768032D01*
X346874720Y-64828304D01*
X346771987Y-64887303D01*
X346671636Y-64944915D01*
X346573867Y-65001027D01*
X346478877Y-65055524D01*
X346386865Y-65108293D01*
X346298031Y-65159220D01*
X346212572Y-65208191D01*
X346130688Y-65255094D01*
X346052577Y-65299813D01*
X345978438Y-65342236D01*
X345908470Y-65382249D01*
X345842871Y-65419738D01*
X345781839Y-65454590D01*
X345725575Y-65486690D01*
X345674275Y-65515925D01*
X345628140Y-65542182D01*
X345587367Y-65565347D01*
X345552155Y-65585305D01*
X345522704Y-65601944D01*
X345499211Y-65615150D01*
X345481875Y-65624809D01*
X345470895Y-65630807D01*
X345466471Y-65633031D01*
X345463493Y-65633837D01*
X345452384Y-65636389D01*
X345441904Y-65637644D01*
X345431243Y-65637301D01*
X345419588Y-65635056D01*
X345406127Y-65630607D01*
X345390050Y-65623650D01*
X345370545Y-65613883D01*
X345346800Y-65601003D01*
X345318004Y-65584707D01*
X345283344Y-65564692D01*
X345281545Y-65563647D01*
X345270403Y-65557184D01*
X345252762Y-65546953D01*
X345228816Y-65533067D01*
X345198757Y-65515637D01*
X345162778Y-65494775D01*
X345121073Y-65470593D01*
X345073834Y-65443204D01*
X345021255Y-65412719D01*
X344963528Y-65379249D01*
X344900846Y-65342907D01*
X344833404Y-65303806D01*
X344761392Y-65262055D01*
X344685006Y-65217769D01*
X344604437Y-65171057D01*
X344519879Y-65122033D01*
X344431524Y-65070809D01*
X344339566Y-65017495D01*
X344244199Y-64962205D01*
X344145613Y-64905050D01*
X344044004Y-64846141D01*
X343939564Y-64785592D01*
X343832485Y-64723513D01*
X343722961Y-64660017D01*
X343611186Y-64595215D01*
X343497351Y-64529219D01*
X343381651Y-64462143D01*
X343264277Y-64394096D01*
X343145424Y-64325191D01*
X343025283Y-64255541D01*
X342904049Y-64185256D01*
X342781914Y-64114450D01*
X342659072Y-64043233D01*
X342535714Y-63971718D01*
X342412035Y-63900017D01*
X342288227Y-63828241D01*
X342164484Y-63756502D01*
X342040998Y-63684913D01*
X341917962Y-63613585D01*
X341795570Y-63542630D01*
X341674014Y-63472160D01*
X341553488Y-63402288D01*
X341434184Y-63333124D01*
X341316296Y-63264781D01*
X341200016Y-63197370D01*
X341085538Y-63131004D01*
X340973055Y-63065795D01*
X340862760Y-63001854D01*
X340754845Y-62939294D01*
X340649504Y-62878225D01*
X340546930Y-62818761D01*
X340447316Y-62761013D01*
X340350854Y-62705093D01*
X340257738Y-62651112D01*
X340168162Y-62599184D01*
X340082317Y-62549419D01*
X340000397Y-62501929D01*
X339922596Y-62456827D01*
X339849105Y-62414225D01*
X339780119Y-62374234D01*
X339715829Y-62336966D01*
X339656430Y-62302533D01*
X339602114Y-62271047D01*
X339553074Y-62242620D01*
X339509503Y-62217364D01*
X339471595Y-62195391D01*
X339439542Y-62176812D01*
X339413537Y-62161740D01*
X339393774Y-62150287D01*
X339380445Y-62142564D01*
X339361226Y-62131428D01*
X339321095Y-62108175D01*
X339286984Y-62088428D01*
X339258384Y-62071915D01*
X339234783Y-62058364D01*
X339215672Y-62047505D01*
X339200541Y-62039065D01*
X339188879Y-62032774D01*
X339180175Y-62028360D01*
X339173921Y-62025551D01*
X339169605Y-62024075D01*
X339166717Y-62023662D01*
X339164746Y-62024040D01*
X339163184Y-62024937D01*
X339161519Y-62026081D01*
X339158733Y-62027665D01*
X339155237Y-62027478D01*
X339154459Y-62020852D01*
X339154102Y-62018080D01*
X339150005Y-62008214D01*
X339142802Y-61997936D01*
X339134570Y-61987138D01*
X339124947Y-61970418D01*
X339118186Y-61953728D01*
X339115582Y-61939835D01*
X339113730Y-61931164D01*
X339110977Y-61926634D01*
X339442568Y-61926634D01*
X339453392Y-61933318D01*
X339453932Y-61933638D01*
X339459991Y-61937171D01*
X339472534Y-61944463D01*
X339491367Y-61955400D01*
X339516295Y-61969870D01*
X339547123Y-61987760D01*
X339583656Y-62008956D01*
X339625700Y-62033346D01*
X339673060Y-62060817D01*
X339725542Y-62091257D01*
X339782951Y-62124552D01*
X339845091Y-62160589D01*
X339911769Y-62199256D01*
X339982790Y-62240440D01*
X340057959Y-62284028D01*
X340137082Y-62329907D01*
X340219963Y-62377964D01*
X340306408Y-62428087D01*
X340396223Y-62480162D01*
X340489212Y-62534077D01*
X340585182Y-62589719D01*
X340683937Y-62646975D01*
X340785282Y-62705732D01*
X340889024Y-62765877D01*
X340994967Y-62827298D01*
X341102917Y-62889882D01*
X341212678Y-62953515D01*
X341324058Y-63018085D01*
X341436859Y-63083479D01*
X341550889Y-63149584D01*
X341665952Y-63216288D01*
X341781854Y-63283477D01*
X341898400Y-63351038D01*
X342015395Y-63418860D01*
X342132645Y-63486828D01*
X342249955Y-63554830D01*
X342367130Y-63622754D01*
X342483976Y-63690486D01*
X342600297Y-63757913D01*
X342715900Y-63824923D01*
X342830590Y-63891403D01*
X342944172Y-63957240D01*
X343056450Y-64022321D01*
X343167232Y-64086533D01*
X343276321Y-64149764D01*
X343383524Y-64211900D01*
X343488645Y-64272829D01*
X343591490Y-64332437D01*
X343691864Y-64390613D01*
X343789573Y-64447243D01*
X343884422Y-64502213D01*
X343976216Y-64555413D01*
X344064760Y-64606728D01*
X344149860Y-64656045D01*
X344231322Y-64703253D01*
X344308950Y-64748237D01*
X344382550Y-64790886D01*
X344451927Y-64831086D01*
X344516887Y-64868724D01*
X344577234Y-64903688D01*
X344632775Y-64935864D01*
X344683314Y-64965141D01*
X344715300Y-64983669D01*
X344777774Y-65019852D01*
X344838321Y-65054915D01*
X344896599Y-65088659D01*
X344952262Y-65120884D01*
X345004967Y-65151392D01*
X345054370Y-65179984D01*
X345100127Y-65206460D01*
X345141894Y-65230622D01*
X345179326Y-65252270D01*
X345212080Y-65271206D01*
X345239811Y-65287230D01*
X345262177Y-65300143D01*
X345278831Y-65309747D01*
X345289431Y-65315842D01*
X345293633Y-65318229D01*
X345301974Y-65322618D01*
X345304365Y-64219081D01*
X345304428Y-64190206D01*
X345304643Y-64096729D01*
X345304868Y-64004594D01*
X345305103Y-63914157D01*
X345305347Y-63825777D01*
X345305598Y-63739814D01*
X345305855Y-63656625D01*
X345306116Y-63576568D01*
X345306379Y-63500003D01*
X345306645Y-63427287D01*
X345306910Y-63358780D01*
X345307175Y-63294839D01*
X345307436Y-63235823D01*
X345307694Y-63182091D01*
X345307947Y-63134000D01*
X345308193Y-63091910D01*
X345308431Y-63056179D01*
X345308659Y-63027165D01*
X345308876Y-63005227D01*
X345309082Y-62990723D01*
X345311246Y-62874520D01*
X345558034Y-62874520D01*
X345558388Y-63047632D01*
X345558419Y-63061510D01*
X345558483Y-63086255D01*
X345558571Y-63118104D01*
X345558682Y-63156667D01*
X345558815Y-63201553D01*
X345558969Y-63252373D01*
X345559142Y-63308736D01*
X345559334Y-63370252D01*
X345559542Y-63436530D01*
X345559766Y-63507181D01*
X345560004Y-63581813D01*
X345560256Y-63660038D01*
X345560520Y-63741464D01*
X345560794Y-63825701D01*
X345561078Y-63912359D01*
X345561370Y-64001048D01*
X345561670Y-64091378D01*
X345561975Y-64182958D01*
X345562284Y-64275397D01*
X345565826Y-65330050D01*
X347208118Y-64385632D01*
X347272975Y-64348335D01*
X347376961Y-64288539D01*
X347479125Y-64229793D01*
X347579261Y-64172214D01*
X347677164Y-64115922D01*
X347772628Y-64061033D01*
X347865447Y-64007668D01*
X347955417Y-63955942D01*
X348042331Y-63905975D01*
X348125984Y-63857885D01*
X348206171Y-63811790D01*
X348282686Y-63767807D01*
X348355323Y-63726056D01*
X348423876Y-63686654D01*
X348488142Y-63649720D01*
X348547913Y-63615371D01*
X348602984Y-63583725D01*
X348653150Y-63554902D01*
X348698205Y-63529018D01*
X348737944Y-63506193D01*
X348772161Y-63486544D01*
X348800651Y-63470189D01*
X348823207Y-63457246D01*
X348839625Y-63447835D01*
X348849699Y-63442072D01*
X348853224Y-63440075D01*
X348853809Y-63438700D01*
X348852951Y-63431834D01*
X348849912Y-63421404D01*
X348848226Y-63416060D01*
X348844620Y-63390015D01*
X348847781Y-63363866D01*
X348857037Y-63339017D01*
X348871715Y-63316871D01*
X348891144Y-63298831D01*
X348914650Y-63286301D01*
X348919582Y-63284352D01*
X348931591Y-63278584D01*
X348940025Y-63273151D01*
X348945333Y-63269005D01*
X348952271Y-63264646D01*
X348961530Y-63259903D01*
X348974114Y-63254332D01*
X348991029Y-63247489D01*
X349013279Y-63238932D01*
X349041869Y-63228216D01*
X349137588Y-63190217D01*
X349233605Y-63146724D01*
X349326984Y-63098573D01*
X349419464Y-63044864D01*
X349512781Y-62984700D01*
X349554213Y-62955839D01*
X349646639Y-62884779D01*
X349734884Y-62807481D01*
X349818547Y-62724412D01*
X349897226Y-62636041D01*
X349970517Y-62542834D01*
X350038020Y-62445259D01*
X350099331Y-62343784D01*
X350154050Y-62238876D01*
X350167234Y-62211026D01*
X350184118Y-62173488D01*
X350199656Y-62136305D01*
X350214638Y-62097492D01*
X350229851Y-62055068D01*
X350246082Y-62007046D01*
X350247217Y-62003622D01*
X350255398Y-61979727D01*
X350263373Y-61957659D01*
X350270607Y-61938820D01*
X350276564Y-61924608D01*
X350280709Y-61916427D01*
X350284983Y-61910501D01*
X350302994Y-61893057D01*
X350325671Y-61879207D01*
X350350852Y-61870073D01*
X350376373Y-61866779D01*
X350393099Y-61868915D01*
X350414294Y-61875761D01*
X350434963Y-61886096D01*
X350452103Y-61898653D01*
X350468550Y-61917630D01*
X350480948Y-61942041D01*
X350488472Y-61971784D01*
X350488683Y-61973046D01*
X350492820Y-61991409D01*
X350499716Y-62015517D01*
X350508917Y-62044135D01*
X350519973Y-62076029D01*
X350532431Y-62109966D01*
X350545840Y-62144711D01*
X350559747Y-62179031D01*
X350573700Y-62211693D01*
X350587248Y-62241461D01*
X350594568Y-62256628D01*
X350605123Y-62277734D01*
X350616539Y-62299902D01*
X350628195Y-62321987D01*
X350639468Y-62342840D01*
X350649738Y-62361315D01*
X350658382Y-62376265D01*
X350664778Y-62386541D01*
X350668305Y-62390999D01*
X350669176Y-62390942D01*
X350675734Y-62388237D01*
X350687817Y-62382206D01*
X350704569Y-62373307D01*
X350725137Y-62362001D01*
X350748666Y-62348747D01*
X350774300Y-62334005D01*
X350775462Y-62333330D01*
X350840813Y-62295366D01*
X350904372Y-62258426D01*
X350965808Y-62222702D01*
X351024793Y-62188386D01*
X351080995Y-62155670D01*
X351134086Y-62124748D01*
X351183735Y-62095812D01*
X351229612Y-62069053D01*
X351271388Y-62044666D01*
X351308732Y-62022841D01*
X351341316Y-62003772D01*
X351368808Y-61987651D01*
X351390879Y-61974671D01*
X351407200Y-61965023D01*
X351417440Y-61958901D01*
X351421269Y-61956498D01*
X351421301Y-61956268D01*
X351417550Y-61952761D01*
X351407493Y-61945482D01*
X351391442Y-61934632D01*
X351369713Y-61920409D01*
X351342618Y-61903011D01*
X351310471Y-61882639D01*
X351273586Y-61859491D01*
X351232277Y-61833766D01*
X351186857Y-61805663D01*
X351137640Y-61775380D01*
X351084940Y-61743118D01*
X351083381Y-61742166D01*
X351062341Y-61729290D01*
X351035644Y-61712918D01*
X351004184Y-61693598D01*
X350968854Y-61671882D01*
X350930548Y-61648318D01*
X350890161Y-61623456D01*
X350848585Y-61597847D01*
X350806714Y-61572040D01*
X350765443Y-61546584D01*
X350749880Y-61536984D01*
X350689398Y-61499703D01*
X350627022Y-61461299D01*
X350563200Y-61422047D01*
X350498381Y-61382222D01*
X350433015Y-61342096D01*
X350367549Y-61301945D01*
X350302434Y-61262043D01*
X350238117Y-61222664D01*
X350175048Y-61184082D01*
X350113676Y-61146571D01*
X350054449Y-61110407D01*
X349997816Y-61075862D01*
X349944226Y-61043212D01*
X349894129Y-61012730D01*
X349847972Y-60984691D01*
X349806205Y-60959369D01*
X349769276Y-60937038D01*
X349737635Y-60917973D01*
X349711731Y-60902447D01*
X349692011Y-60890736D01*
X349690526Y-60889860D01*
X349673176Y-60879561D01*
X349650435Y-60865979D01*
X349623450Y-60849801D01*
X349593369Y-60831718D01*
X349561338Y-60812419D01*
X349528504Y-60792593D01*
X349496013Y-60772929D01*
X349358459Y-60689574D01*
X349266131Y-60742494D01*
X349260206Y-60745894D01*
X349246378Y-60753835D01*
X349226156Y-60765453D01*
X349199748Y-60780628D01*
X349167364Y-60799239D01*
X349129213Y-60821167D01*
X349085503Y-60846291D01*
X349036445Y-60874492D01*
X348982245Y-60905648D01*
X348923115Y-60939640D01*
X348859262Y-60976348D01*
X348790896Y-61015652D01*
X348718226Y-61057431D01*
X348641460Y-61101565D01*
X348560808Y-61147934D01*
X348476478Y-61196419D01*
X348388680Y-61246898D01*
X348297623Y-61299251D01*
X348203515Y-61353360D01*
X348106566Y-61409102D01*
X348006984Y-61466359D01*
X347904980Y-61525009D01*
X347800760Y-61584934D01*
X347694535Y-61646012D01*
X347586514Y-61708124D01*
X347476905Y-61771149D01*
X347365918Y-61834968D01*
X345573023Y-62865901D01*
X345558034Y-62874520D01*
X345311246Y-62874520D01*
X345311407Y-62865901D01*
X345230165Y-62818880D01*
X345226836Y-62816953D01*
X345215179Y-62810200D01*
X345197093Y-62799720D01*
X345172787Y-62785634D01*
X345142471Y-62768063D01*
X345106353Y-62747128D01*
X345064643Y-62722952D01*
X345017549Y-62695654D01*
X344965281Y-62665356D01*
X344908048Y-62632180D01*
X344846059Y-62596247D01*
X344779523Y-62557677D01*
X344708649Y-62516593D01*
X344633646Y-62473114D01*
X344554724Y-62427363D01*
X344472092Y-62379461D01*
X344385958Y-62329529D01*
X344296532Y-62277688D01*
X344204023Y-62224060D01*
X344108640Y-62168765D01*
X344010592Y-62111925D01*
X343910088Y-62053661D01*
X343807338Y-61994094D01*
X343702550Y-61933346D01*
X343595934Y-61871537D01*
X343487698Y-61808789D01*
X343378052Y-61745224D01*
X343319431Y-61711239D01*
X343210759Y-61648239D01*
X343103689Y-61586167D01*
X342998425Y-61525143D01*
X342895175Y-61465287D01*
X342794143Y-61406716D01*
X342695535Y-61349552D01*
X342599556Y-61293912D01*
X342506412Y-61239916D01*
X342416310Y-61187683D01*
X342329453Y-61137332D01*
X342246049Y-61088983D01*
X342166302Y-61042755D01*
X342090418Y-60998766D01*
X342018603Y-60957137D01*
X341951062Y-60917985D01*
X341888001Y-60881431D01*
X341829626Y-60847594D01*
X341776142Y-60816592D01*
X341727754Y-60788545D01*
X341684669Y-60763573D01*
X341647092Y-60741793D01*
X341615229Y-60723327D01*
X341589285Y-60708291D01*
X341569465Y-60696807D01*
X341555976Y-60688993D01*
X341549023Y-60684968D01*
X341490864Y-60651349D01*
X341476941Y-60659717D01*
X341472930Y-60662159D01*
X341461145Y-60669431D01*
X341443592Y-60680329D01*
X341420798Y-60694524D01*
X341393285Y-60711689D01*
X341361579Y-60731496D01*
X341326204Y-60753616D01*
X341287684Y-60777721D01*
X341246543Y-60803483D01*
X341203306Y-60830574D01*
X341158497Y-60858665D01*
X341112641Y-60887429D01*
X341066262Y-60916536D01*
X341019885Y-60945660D01*
X340974033Y-60974471D01*
X340969896Y-60977071D01*
X340922184Y-61007025D01*
X340868807Y-61040480D01*
X340810412Y-61077034D01*
X340747644Y-61116285D01*
X340681148Y-61157832D01*
X340611570Y-61201271D01*
X340539557Y-61246202D01*
X340465753Y-61292221D01*
X340390804Y-61338928D01*
X340315356Y-61385919D01*
X340240055Y-61432794D01*
X340165546Y-61479149D01*
X340092476Y-61524582D01*
X340021489Y-61568693D01*
X339953231Y-61611078D01*
X339888348Y-61651336D01*
X339827486Y-61689065D01*
X339771290Y-61723861D01*
X339720407Y-61755325D01*
X339675481Y-61783053D01*
X339442568Y-61926634D01*
X339110977Y-61926634D01*
X339107828Y-61921452D01*
X339103667Y-61916997D01*
X339102563Y-61913254D01*
X339106854Y-61910037D01*
X339107706Y-61909289D01*
X339108571Y-61907630D01*
X339109350Y-61904730D01*
X339110047Y-61900205D01*
X339110668Y-61893669D01*
X339111218Y-61884736D01*
X339111703Y-61873021D01*
X339112128Y-61858138D01*
X339112499Y-61839703D01*
X339112822Y-61817329D01*
X339113100Y-61790632D01*
X339113341Y-61759225D01*
X339113550Y-61722724D01*
X339113732Y-61680742D01*
X339113892Y-61632896D01*
X339114036Y-61578798D01*
X339114169Y-61518064D01*
X339114298Y-61450308D01*
X339114426Y-61375145D01*
X339114479Y-61343726D01*
X339114557Y-61298453D01*
X339114650Y-61245992D01*
X339114756Y-61186679D01*
X339114875Y-61120845D01*
X339115006Y-61048825D01*
X339115150Y-60970952D01*
X339115304Y-60887559D01*
X339115469Y-60798979D01*
X339115644Y-60705547D01*
X339115722Y-60664206D01*
X339334040Y-60664206D01*
X339334050Y-60781937D01*
X339334095Y-60891983D01*
X339334174Y-60994351D01*
X339334288Y-61089050D01*
X339334437Y-61176086D01*
X339334620Y-61255466D01*
X339334838Y-61327200D01*
X339335091Y-61391293D01*
X339335379Y-61447753D01*
X339335701Y-61496588D01*
X339336058Y-61537805D01*
X339336450Y-61571412D01*
X339336877Y-61597416D01*
X339337338Y-61615824D01*
X339337834Y-61626644D01*
X339338365Y-61629884D01*
X339338733Y-61629520D01*
X339343946Y-61625799D01*
X339347173Y-61627555D01*
X339348816Y-61635547D01*
X339349275Y-61650534D01*
X339349657Y-61663004D01*
X339350709Y-61672255D01*
X339352197Y-61675750D01*
X339353595Y-61675102D01*
X339360781Y-61670949D01*
X339373282Y-61663378D01*
X339390293Y-61652889D01*
X339411006Y-61639979D01*
X339434617Y-61625148D01*
X339460319Y-61608894D01*
X339480061Y-61596381D01*
X339523944Y-61568639D01*
X339573710Y-61537258D01*
X339628868Y-61502547D01*
X339688925Y-61464812D01*
X339753388Y-61424362D01*
X339821764Y-61381503D01*
X339893560Y-61336545D01*
X339968283Y-61289794D01*
X340045441Y-61241558D01*
X340124540Y-61192146D01*
X340205088Y-61141864D01*
X340286592Y-61091020D01*
X340368559Y-61039923D01*
X340450497Y-60988880D01*
X340531912Y-60938198D01*
X340612311Y-60888185D01*
X340691202Y-60839149D01*
X340768092Y-60791398D01*
X340842487Y-60745240D01*
X340913896Y-60700981D01*
X340981826Y-60658931D01*
X341007614Y-60642976D01*
X341049571Y-60617012D01*
X341090912Y-60591420D01*
X341130885Y-60566668D01*
X341168739Y-60543220D01*
X341203723Y-60521543D01*
X341235084Y-60502101D01*
X341262073Y-60485361D01*
X341283936Y-60471787D01*
X341299922Y-60461846D01*
X341330701Y-60442680D01*
X341627743Y-60442680D01*
X342877917Y-61167304D01*
X342886212Y-61172112D01*
X342985207Y-61229491D01*
X343085888Y-61287847D01*
X343187831Y-61346935D01*
X343290615Y-61406510D01*
X343393820Y-61466329D01*
X343497024Y-61526148D01*
X343599806Y-61585721D01*
X343701744Y-61644806D01*
X343802418Y-61703157D01*
X343901405Y-61760531D01*
X343998285Y-61816683D01*
X344092635Y-61871369D01*
X344184036Y-61924346D01*
X344272065Y-61975368D01*
X344356302Y-62024191D01*
X344436324Y-62070572D01*
X344511711Y-62114267D01*
X344582041Y-62155030D01*
X344646894Y-62192618D01*
X344705847Y-62226787D01*
X344758479Y-62257292D01*
X344811887Y-62288243D01*
X344875688Y-62325207D01*
X344937618Y-62361077D01*
X344997328Y-62395651D01*
X345054471Y-62428729D01*
X345108698Y-62460109D01*
X345159663Y-62489590D01*
X345207018Y-62516971D01*
X345250413Y-62542051D01*
X345289503Y-62564629D01*
X345323938Y-62584504D01*
X345353372Y-62601475D01*
X345377455Y-62615341D01*
X345395841Y-62625900D01*
X345408182Y-62632952D01*
X345414130Y-62636296D01*
X345415520Y-62637043D01*
X345428336Y-62643538D01*
X345438587Y-62648088D01*
X345444165Y-62649748D01*
X345446246Y-62649073D01*
X345454434Y-62645187D01*
X345467345Y-62638434D01*
X345483710Y-62629487D01*
X345502257Y-62619018D01*
X345502765Y-62618726D01*
X345510263Y-62614422D01*
X345524289Y-62606364D01*
X345544641Y-62594668D01*
X345571120Y-62579449D01*
X345603525Y-62560822D01*
X345641656Y-62538903D01*
X345685311Y-62513807D01*
X345734291Y-62485648D01*
X345788396Y-62454544D01*
X345847424Y-62420607D01*
X345911175Y-62383955D01*
X345979449Y-62344702D01*
X346052045Y-62302963D01*
X346128763Y-62258853D01*
X346209403Y-62212489D01*
X346293763Y-62163985D01*
X346381644Y-62113456D01*
X346472845Y-62061018D01*
X346567165Y-62006785D01*
X346664405Y-61950874D01*
X346764363Y-61893400D01*
X346866839Y-61834477D01*
X346971633Y-61774220D01*
X347078544Y-61712747D01*
X347187372Y-61650170D01*
X347297916Y-61586606D01*
X347409976Y-61522171D01*
X349185667Y-60501125D01*
X349513880Y-60501125D01*
X349589309Y-60547611D01*
X349602817Y-60555958D01*
X349628106Y-60571653D01*
X349657623Y-60590039D01*
X349689942Y-60610222D01*
X349723633Y-60631310D01*
X349757268Y-60652410D01*
X349789419Y-60672630D01*
X349812447Y-60687118D01*
X349876820Y-60727459D01*
X349947785Y-60771722D01*
X350025266Y-60819859D01*
X350109188Y-60871825D01*
X350199475Y-60927572D01*
X350296052Y-60987054D01*
X350398843Y-61050225D01*
X350507773Y-61117039D01*
X350622767Y-61187448D01*
X350743749Y-61261406D01*
X350870643Y-61338867D01*
X350913584Y-61365068D01*
X350957006Y-61391573D01*
X350999528Y-61417540D01*
X351040430Y-61442529D01*
X351078995Y-61466099D01*
X351114502Y-61487812D01*
X351146232Y-61507227D01*
X351173466Y-61523906D01*
X351195485Y-61537407D01*
X351211569Y-61547292D01*
X351225508Y-61555859D01*
X351251492Y-61571773D01*
X351281737Y-61590245D01*
X351314782Y-61610386D01*
X351349169Y-61631307D01*
X351383436Y-61652117D01*
X351416125Y-61671927D01*
X351419394Y-61673905D01*
X351447943Y-61691168D01*
X351474551Y-61707228D01*
X351498431Y-61721614D01*
X351518797Y-61733852D01*
X351534860Y-61743470D01*
X351545834Y-61749993D01*
X351550931Y-61752950D01*
X351559108Y-61757325D01*
X351561888Y-60065534D01*
X351561966Y-60018365D01*
X351562194Y-59881297D01*
X351562436Y-59737446D01*
X351562692Y-59587540D01*
X351562959Y-59432308D01*
X351563237Y-59272479D01*
X351563523Y-59108782D01*
X351563818Y-58941945D01*
X351564119Y-58772697D01*
X351564424Y-58601768D01*
X351564734Y-58429885D01*
X351565046Y-58257778D01*
X351565360Y-58086176D01*
X351565673Y-57915807D01*
X351565985Y-57747400D01*
X351566294Y-57581684D01*
X351566598Y-57419388D01*
X351566898Y-57261241D01*
X351567190Y-57107970D01*
X351567475Y-56960306D01*
X351567750Y-56818977D01*
X351568014Y-56684712D01*
X351568057Y-56662907D01*
X351568279Y-56548957D01*
X351568492Y-56437031D01*
X351568696Y-56327382D01*
X351568890Y-56220259D01*
X351569074Y-56115913D01*
X351569248Y-56014595D01*
X351569410Y-55916556D01*
X351569562Y-55822047D01*
X351569703Y-55731318D01*
X351569832Y-55644620D01*
X351569948Y-55562204D01*
X351570053Y-55484320D01*
X351570145Y-55411220D01*
X351570223Y-55343155D01*
X351570289Y-55280374D01*
X351570341Y-55223129D01*
X351570378Y-55171670D01*
X351570402Y-55126249D01*
X351570411Y-55087115D01*
X351570405Y-55054520D01*
X351570383Y-55028715D01*
X351570346Y-55009950D01*
X351570293Y-54998477D01*
X351570224Y-54994545D01*
X351569871Y-54994354D01*
X351567962Y-54994533D01*
X351564141Y-54995866D01*
X351557856Y-54998633D01*
X351548557Y-55003114D01*
X351535693Y-55009589D01*
X351518711Y-55018338D01*
X351497062Y-55029640D01*
X351470193Y-55043775D01*
X351437553Y-55061023D01*
X351398592Y-55081663D01*
X351352553Y-55106004D01*
X351291831Y-55137941D01*
X351225470Y-55172688D01*
X351154193Y-55209875D01*
X351078722Y-55249129D01*
X350999780Y-55290079D01*
X350918088Y-55332354D01*
X350834368Y-55375583D01*
X350749343Y-55419394D01*
X350663735Y-55463416D01*
X350578266Y-55507278D01*
X350493658Y-55550609D01*
X350410634Y-55593036D01*
X350329915Y-55634190D01*
X350252224Y-55673698D01*
X350178283Y-55711189D01*
X350108815Y-55746292D01*
X350044540Y-55778636D01*
X349986182Y-55807849D01*
X349970679Y-55815593D01*
X349928024Y-55836967D01*
X349882425Y-55859899D01*
X349835536Y-55883555D01*
X349789012Y-55907096D01*
X349744507Y-55929686D01*
X349703675Y-55950489D01*
X349668171Y-55968668D01*
X349523545Y-56042969D01*
X349523543Y-56043754D01*
X349521088Y-57122638D01*
X349520912Y-57200209D01*
X349520665Y-57309627D01*
X349520406Y-57425371D01*
X349520137Y-57546605D01*
X349519858Y-57672492D01*
X349519573Y-57802196D01*
X349519282Y-57934879D01*
X349518988Y-58069705D01*
X349518692Y-58205837D01*
X349518396Y-58342438D01*
X349518102Y-58478672D01*
X349517813Y-58613700D01*
X349517528Y-58746688D01*
X349517252Y-58876797D01*
X349516984Y-59003191D01*
X349516728Y-59125033D01*
X349516484Y-59241487D01*
X349516256Y-59351716D01*
X349513880Y-60501125D01*
X349185667Y-60501125D01*
X349264376Y-60455866D01*
X349266816Y-59494679D01*
X349267013Y-59415837D01*
X349267241Y-59321709D01*
X349267479Y-59221092D01*
X349267726Y-59114674D01*
X349267978Y-59003141D01*
X349268236Y-58887177D01*
X349268498Y-58767470D01*
X349268762Y-58644705D01*
X349269028Y-58519568D01*
X349269292Y-58392744D01*
X349269555Y-58264920D01*
X349269814Y-58136782D01*
X349270068Y-58009015D01*
X349270317Y-57882305D01*
X349270557Y-57757339D01*
X349270789Y-57634801D01*
X349271010Y-57515379D01*
X349271219Y-57399758D01*
X349271414Y-57288623D01*
X349273573Y-56043754D01*
X348711324Y-55718493D01*
X348706536Y-55715723D01*
X348660535Y-55689106D01*
X348608206Y-55658819D01*
X348549918Y-55625076D01*
X348486043Y-55588093D01*
X348416950Y-55548083D01*
X348343011Y-55505262D01*
X348264597Y-55459845D01*
X348182077Y-55412045D01*
X348095822Y-55362079D01*
X348006203Y-55310160D01*
X347913591Y-55256503D01*
X347818355Y-55201323D01*
X347720867Y-55144834D01*
X347621497Y-55087252D01*
X347520615Y-55028790D01*
X347418593Y-54969665D01*
X347315801Y-54910090D01*
X347212609Y-54850279D01*
X347109388Y-54790449D01*
X347006508Y-54730813D01*
X346904340Y-54671586D01*
X346803255Y-54612984D01*
X345457435Y-53832735D01*
X345445394Y-53840034D01*
X345444057Y-53840814D01*
X345436471Y-53845197D01*
X345422424Y-53853293D01*
X345402108Y-53864993D01*
X345375716Y-53880186D01*
X345343439Y-53898761D01*
X345305470Y-53920607D01*
X345262002Y-53945614D01*
X345213226Y-53973671D01*
X345159335Y-54004668D01*
X345100521Y-54038494D01*
X345036978Y-54075039D01*
X344968896Y-54114191D01*
X344896469Y-54155841D01*
X344819888Y-54199877D01*
X344739347Y-54246190D01*
X344655036Y-54294668D01*
X344567150Y-54345200D01*
X344475879Y-54397677D01*
X344381417Y-54451988D01*
X344283956Y-54508022D01*
X344183688Y-54565668D01*
X344080805Y-54624816D01*
X343975500Y-54685355D01*
X343867965Y-54747175D01*
X343758393Y-54810165D01*
X343646975Y-54874215D01*
X343533904Y-54939213D01*
X343471459Y-54975109D01*
X343359393Y-55039530D01*
X343249121Y-55102920D01*
X343140836Y-55165169D01*
X343034727Y-55226166D01*
X342930987Y-55285803D01*
X342829805Y-55343970D01*
X342731372Y-55400557D01*
X342635879Y-55455454D01*
X342543517Y-55508552D01*
X342454477Y-55559741D01*
X342368949Y-55608911D01*
X342287125Y-55655953D01*
X342209195Y-55700757D01*
X342135349Y-55743213D01*
X342065780Y-55783211D01*
X342000676Y-55820642D01*
X341940230Y-55855397D01*
X341884632Y-55887364D01*
X341834073Y-55916436D01*
X341788743Y-55942501D01*
X341748834Y-55965451D01*
X341714536Y-55985176D01*
X341686040Y-56001566D01*
X341663537Y-56014510D01*
X341647217Y-56023901D01*
X341637272Y-56029627D01*
X341633892Y-56031580D01*
X341633869Y-56033193D01*
X341633825Y-56041967D01*
X341633821Y-56043049D01*
X341633772Y-56058173D01*
X341633710Y-56081592D01*
X341633640Y-56112006D01*
X341633562Y-56149193D01*
X341633477Y-56192937D01*
X341633385Y-56243016D01*
X341633285Y-56299211D01*
X341633179Y-56361304D01*
X341633067Y-56429075D01*
X341632949Y-56502304D01*
X341632826Y-56580773D01*
X341632697Y-56664261D01*
X341632564Y-56752550D01*
X341632426Y-56845421D01*
X341632283Y-56942653D01*
X341632137Y-57044028D01*
X341631987Y-57149327D01*
X341631834Y-57258329D01*
X341631679Y-57370816D01*
X341631520Y-57486569D01*
X341631360Y-57605367D01*
X341631197Y-57726992D01*
X341631033Y-57851225D01*
X341630868Y-57977845D01*
X341630702Y-58106634D01*
X341630536Y-58237373D01*
X341627743Y-60442680D01*
X341330701Y-60442680D01*
X341374500Y-60415406D01*
X341376757Y-60392029D01*
X341376804Y-60391093D01*
X341376947Y-60383211D01*
X341377096Y-60367839D01*
X341377252Y-60345199D01*
X341377413Y-60315518D01*
X341377580Y-60279019D01*
X341377752Y-60235928D01*
X341377928Y-60186468D01*
X341378108Y-60130865D01*
X341378292Y-60069342D01*
X341378478Y-60002126D01*
X341378667Y-59929439D01*
X341378858Y-59851508D01*
X341379050Y-59768556D01*
X341379243Y-59680808D01*
X341379436Y-59588488D01*
X341379630Y-59491822D01*
X341379823Y-59391034D01*
X341380014Y-59286348D01*
X341380204Y-59177990D01*
X341380392Y-59066183D01*
X341380578Y-58951152D01*
X341380760Y-58833123D01*
X341380939Y-58712319D01*
X341381114Y-58588965D01*
X341381284Y-58463285D01*
X341381449Y-58335506D01*
X341381608Y-58205850D01*
X341384202Y-56043049D01*
X341347633Y-56023392D01*
X341345358Y-56022173D01*
X341332991Y-56015587D01*
X341314765Y-56005924D01*
X341291493Y-55993614D01*
X341263990Y-55979087D01*
X341233069Y-55962772D01*
X341199544Y-55945099D01*
X341164229Y-55926498D01*
X341127937Y-55907398D01*
X341127354Y-55907091D01*
X341094380Y-55889744D01*
X341064982Y-55874275D01*
X341038506Y-55860335D01*
X341014300Y-55847578D01*
X340991711Y-55835656D01*
X340970087Y-55824222D01*
X340948773Y-55812928D01*
X340927119Y-55801427D01*
X340904471Y-55789371D01*
X340880177Y-55776413D01*
X340853583Y-55762205D01*
X340824038Y-55746401D01*
X340790888Y-55728652D01*
X340753480Y-55708611D01*
X340711163Y-55685931D01*
X340663283Y-55660264D01*
X340609188Y-55631263D01*
X340596046Y-55624223D01*
X340558073Y-55603937D01*
X340522253Y-55584883D01*
X340489175Y-55567371D01*
X340459426Y-55551707D01*
X340433595Y-55538201D01*
X340412271Y-55527160D01*
X340396042Y-55518893D01*
X340385496Y-55513706D01*
X340381221Y-55511909D01*
X340380984Y-55511929D01*
X340375260Y-55514761D01*
X340364484Y-55521944D01*
X340349474Y-55532847D01*
X340331049Y-55546839D01*
X340310028Y-55563289D01*
X340287231Y-55581565D01*
X340263475Y-55601037D01*
X340239580Y-55621072D01*
X340239284Y-55621323D01*
X340126703Y-55721871D01*
X340020392Y-55827045D01*
X339920336Y-55936865D01*
X339826522Y-56051347D01*
X339738936Y-56170509D01*
X339657565Y-56294369D01*
X339582395Y-56422944D01*
X339513412Y-56556252D01*
X339510348Y-56562582D01*
X339491012Y-56603624D01*
X339472611Y-56644781D01*
X339454733Y-56687112D01*
X339436965Y-56731680D01*
X339418893Y-56779545D01*
X339400103Y-56831770D01*
X339380183Y-56889415D01*
X339358719Y-56953541D01*
X339340055Y-57010037D01*
X339337283Y-58328936D01*
X339337071Y-58430993D01*
X339336629Y-58649305D01*
X339336223Y-58859835D01*
X339335851Y-59062591D01*
X339335514Y-59257580D01*
X339335211Y-59444810D01*
X339334943Y-59624288D01*
X339334710Y-59796022D01*
X339334512Y-59960018D01*
X339334348Y-60116285D01*
X339334219Y-60264830D01*
X339334125Y-60405660D01*
X339334065Y-60538783D01*
X339334040Y-60664206D01*
X339115722Y-60664206D01*
X339115828Y-60607596D01*
X339116021Y-60505458D01*
X339116222Y-60399468D01*
X339116430Y-60289959D01*
X339116644Y-60177264D01*
X339116865Y-60061716D01*
X339117092Y-59943650D01*
X339117323Y-59823398D01*
X339117558Y-59701294D01*
X339117797Y-59577672D01*
X339118039Y-59452864D01*
X339118283Y-59327204D01*
X339118529Y-59201026D01*
X339118776Y-59074663D01*
X339119023Y-58948448D01*
X339122741Y-57052897D01*
X339112071Y-57041208D01*
X339106575Y-57035025D01*
X339100154Y-57027335D01*
X339092259Y-57017356D01*
X339081842Y-57003760D01*
X339067852Y-56985218D01*
X339065920Y-56982268D01*
X339059771Y-56969843D01*
X339052092Y-56950973D01*
X339043190Y-56926445D01*
X339033372Y-56897045D01*
X339006961Y-56818138D01*
X338967097Y-56709936D01*
X338924561Y-56607108D01*
X338878725Y-56508328D01*
X338828964Y-56412265D01*
X338774649Y-56317594D01*
X338715154Y-56222984D01*
X338703548Y-56205398D01*
X338649020Y-56126023D01*
X338593908Y-56051422D01*
X338536905Y-55980005D01*
X338476705Y-55910184D01*
X338411999Y-55840371D01*
X338341481Y-55768979D01*
X338321035Y-55749013D01*
X338247943Y-55680467D01*
X338175656Y-55617352D01*
X338102472Y-55558281D01*
X338026689Y-55501865D01*
X337946606Y-55446714D01*
X337901215Y-55417070D01*
X337781974Y-55344018D01*
X337661843Y-55277551D01*
X337539304Y-55216901D01*
X337412843Y-55161301D01*
X337280943Y-55109985D01*
X337253460Y-55099857D01*
X337228026Y-55090218D01*
X337208066Y-55082201D01*
X337192569Y-55075323D01*
X337180522Y-55069097D01*
X337170914Y-55063036D01*
X337162734Y-55056655D01*
X337154970Y-55049469D01*
X337137298Y-55028113D01*
X337123431Y-55001051D01*
X337116059Y-54972055D01*
X337115201Y-54942340D01*
X337120878Y-54913126D01*
X337133109Y-54885629D01*
X337151914Y-54861068D01*
X337160198Y-54853375D01*
X337175723Y-54841673D01*
X337192191Y-54831769D01*
X337207449Y-54824900D01*
X337219347Y-54822301D01*
X337223841Y-54820943D01*
X337233068Y-54815486D01*
X337243560Y-54807283D01*
X337247583Y-54803819D01*
X337251826Y-54800519D01*
X337256782Y-54797253D01*
X337263108Y-54793741D01*
X337271464Y-54789707D01*
X337282506Y-54784872D01*
X337296893Y-54778959D01*
X337315284Y-54771689D01*
X337338335Y-54762786D01*
X337366705Y-54751970D01*
X337401052Y-54738966D01*
X337442034Y-54723493D01*
X337525611Y-54690004D01*
X337618145Y-54648818D01*
X337712407Y-54602911D01*
X337807042Y-54553052D01*
X337900694Y-54500011D01*
X337992006Y-54444559D01*
X338079623Y-54387465D01*
X338162188Y-54329498D01*
X338238345Y-54271430D01*
X338292789Y-54225981D01*
X340349329Y-54225981D01*
X340350228Y-54228176D01*
X340356149Y-54234614D01*
X340366582Y-54244319D01*
X340380601Y-54256441D01*
X340397279Y-54270125D01*
X340423706Y-54290970D01*
X340510794Y-54355598D01*
X340603792Y-54418970D01*
X340701304Y-54480297D01*
X340801938Y-54538791D01*
X340904300Y-54593663D01*
X341006995Y-54644124D01*
X341108630Y-54689386D01*
X341207811Y-54728660D01*
X341247515Y-54743387D01*
X341281746Y-54756274D01*
X341310021Y-54767234D01*
X341333045Y-54776616D01*
X341351519Y-54784771D01*
X341366145Y-54792050D01*
X341377625Y-54798801D01*
X341386661Y-54805375D01*
X341393956Y-54812123D01*
X341400211Y-54819393D01*
X341406129Y-54827537D01*
X341415259Y-54842664D01*
X341426520Y-54871573D01*
X341430907Y-54900990D01*
X341428856Y-54929979D01*
X341420804Y-54957606D01*
X341407185Y-54982939D01*
X341388436Y-55005042D01*
X341364992Y-55022982D01*
X341337289Y-55035824D01*
X341305763Y-55042636D01*
X341292847Y-55044552D01*
X341277520Y-55048112D01*
X341266256Y-55052162D01*
X341263172Y-55053571D01*
X341252318Y-55058050D01*
X341236024Y-55064457D01*
X341215529Y-55072316D01*
X341192074Y-55081146D01*
X341166900Y-55090471D01*
X341143820Y-55098995D01*
X341093539Y-55117981D01*
X341048144Y-55135837D01*
X341005823Y-55153345D01*
X340964763Y-55171291D01*
X340923152Y-55190455D01*
X340879175Y-55211622D01*
X340831022Y-55235575D01*
X340823865Y-55239202D01*
X340801425Y-55250799D01*
X340776832Y-55263785D01*
X340750992Y-55277657D01*
X340724807Y-55291910D01*
X340699182Y-55306041D01*
X340675019Y-55319547D01*
X340653223Y-55331922D01*
X340634698Y-55342663D01*
X340620346Y-55351267D01*
X340611073Y-55357229D01*
X340607781Y-55360046D01*
X340609111Y-55361012D01*
X340616459Y-55365308D01*
X340629686Y-55372695D01*
X340648171Y-55382838D01*
X340671292Y-55395399D01*
X340698430Y-55410040D01*
X340728962Y-55426426D01*
X340762267Y-55444219D01*
X340797725Y-55463082D01*
X340825795Y-55478004D01*
X340869054Y-55501060D01*
X340916837Y-55526583D01*
X340967803Y-55553854D01*
X341020609Y-55582153D01*
X341073913Y-55610762D01*
X341126374Y-55638961D01*
X341176649Y-55666030D01*
X341223396Y-55691251D01*
X341246764Y-55703871D01*
X341285703Y-55724895D01*
X341322517Y-55744763D01*
X341356615Y-55763156D01*
X341387404Y-55779756D01*
X341414295Y-55794245D01*
X341436696Y-55806303D01*
X341454015Y-55815612D01*
X341465662Y-55821854D01*
X341471044Y-55824709D01*
X341482965Y-55830839D01*
X342690587Y-55136512D01*
X342742031Y-55106934D01*
X342841620Y-55049675D01*
X342943210Y-54991265D01*
X343046341Y-54931970D01*
X343150551Y-54872053D01*
X343255380Y-54811780D01*
X343360367Y-54751417D01*
X343465051Y-54691227D01*
X343568971Y-54631477D01*
X343671667Y-54572431D01*
X343772676Y-54514354D01*
X343871539Y-54457511D01*
X343967794Y-54402167D01*
X344060981Y-54348587D01*
X344150639Y-54297037D01*
X344236306Y-54247780D01*
X344317523Y-54201083D01*
X344393827Y-54157210D01*
X344464758Y-54116426D01*
X344529856Y-54078996D01*
X344588659Y-54045185D01*
X344630343Y-54021210D01*
X344697026Y-53982829D01*
X344761682Y-53945580D01*
X344823997Y-53909647D01*
X344883655Y-53875211D01*
X344940340Y-53842456D01*
X344993737Y-53811566D01*
X345043530Y-53782723D01*
X345089403Y-53756110D01*
X345131042Y-53731911D01*
X345168131Y-53710308D01*
X345200354Y-53691486D01*
X345227395Y-53675626D01*
X345248939Y-53662912D01*
X345264672Y-53653527D01*
X345274276Y-53647655D01*
X345277436Y-53645477D01*
X345277661Y-53644346D01*
X345282497Y-53640424D01*
X345291639Y-53635612D01*
X345307514Y-53628454D01*
X345305551Y-53589814D01*
X345560845Y-53589814D01*
X345560846Y-53600850D01*
X345560963Y-53604767D01*
X345561020Y-53604802D01*
X345565230Y-53607253D01*
X345575965Y-53613485D01*
X345593031Y-53623387D01*
X345601766Y-53628454D01*
X345616235Y-53636847D01*
X345645383Y-53653751D01*
X345680283Y-53673989D01*
X345720740Y-53697448D01*
X345766561Y-53724016D01*
X345817553Y-53753581D01*
X345873522Y-53786030D01*
X345934275Y-53821251D01*
X345999617Y-53859133D01*
X346069357Y-53899563D01*
X346143300Y-53942429D01*
X346221253Y-53987619D01*
X346303022Y-54035020D01*
X346388415Y-54084521D01*
X346477236Y-54136009D01*
X346569294Y-54189372D01*
X346664394Y-54244498D01*
X346762344Y-54301275D01*
X346862949Y-54359591D01*
X346966016Y-54419334D01*
X347071352Y-54480391D01*
X347178763Y-54542650D01*
X347288056Y-54605999D01*
X347399037Y-54670327D01*
X347508860Y-54733982D01*
X347619189Y-54797932D01*
X347727916Y-54860954D01*
X347834833Y-54922927D01*
X347939735Y-54983732D01*
X348042418Y-55043252D01*
X348142674Y-55101365D01*
X348240299Y-55157954D01*
X348335088Y-55212899D01*
X348426834Y-55266081D01*
X348515332Y-55317381D01*
X348600377Y-55366680D01*
X348681763Y-55413858D01*
X348759284Y-55458796D01*
X348832735Y-55501376D01*
X348901911Y-55541478D01*
X348966605Y-55578983D01*
X349026613Y-55613771D01*
X349081729Y-55645724D01*
X349131747Y-55674723D01*
X349176462Y-55700648D01*
X349215668Y-55723380D01*
X349249160Y-55742800D01*
X349276731Y-55758789D01*
X349298178Y-55771228D01*
X349313293Y-55779998D01*
X349321872Y-55784979D01*
X349341376Y-55796284D01*
X349363394Y-55808968D01*
X349382584Y-55819937D01*
X349397971Y-55828637D01*
X349408580Y-55834513D01*
X349413435Y-55837011D01*
X349414539Y-55837036D01*
X349421886Y-55834654D01*
X349435588Y-55828654D01*
X349455693Y-55819013D01*
X349482248Y-55805705D01*
X349515300Y-55788707D01*
X349554896Y-55767992D01*
X349601085Y-55743538D01*
X349653913Y-55715320D01*
X349713428Y-55683312D01*
X349779678Y-55647491D01*
X349796582Y-55638334D01*
X349834273Y-55617942D01*
X349872786Y-55597136D01*
X349910842Y-55576605D01*
X349947164Y-55557038D01*
X349980472Y-55539124D01*
X350009490Y-55523551D01*
X350032938Y-55511009D01*
X350095362Y-55477726D01*
X350198772Y-55422688D01*
X350301582Y-55368091D01*
X350403345Y-55314167D01*
X350503615Y-55261151D01*
X350601946Y-55209276D01*
X350697891Y-55158777D01*
X350791004Y-55109887D01*
X350880838Y-55062841D01*
X350966947Y-55017872D01*
X351048885Y-54975215D01*
X351126204Y-54935104D01*
X351198460Y-54897771D01*
X351265205Y-54863453D01*
X351325993Y-54832381D01*
X351380377Y-54804791D01*
X351463465Y-54762832D01*
X351448562Y-54754058D01*
X351448007Y-54753734D01*
X351441779Y-54750115D01*
X351429015Y-54742705D01*
X351409872Y-54731599D01*
X351384512Y-54716888D01*
X351353092Y-54698664D01*
X351315773Y-54677020D01*
X351272715Y-54652048D01*
X351224075Y-54623842D01*
X351170015Y-54592492D01*
X351110692Y-54558092D01*
X351046268Y-54520734D01*
X350902748Y-54437514D01*
X350823973Y-54391837D01*
X350740732Y-54343572D01*
X350653186Y-54292810D01*
X350561494Y-54239645D01*
X350465815Y-54184169D01*
X350366309Y-54126474D01*
X350263135Y-54066653D01*
X350156453Y-54004799D01*
X350046421Y-53941002D01*
X349933200Y-53875357D01*
X349816949Y-53807955D01*
X349697826Y-53738890D01*
X349575992Y-53668252D01*
X349451606Y-53596135D01*
X349324827Y-53522631D01*
X349195815Y-53447833D01*
X349064729Y-53371832D01*
X348931728Y-53294722D01*
X348796972Y-53216595D01*
X348660620Y-53137542D01*
X348522832Y-53057658D01*
X348383767Y-52977033D01*
X348243584Y-52895761D01*
X348102443Y-52813933D01*
X347960504Y-52731643D01*
X347817924Y-52648982D01*
X347674865Y-52566044D01*
X347531485Y-52482920D01*
X347387944Y-52399702D01*
X347244401Y-52316485D01*
X347101016Y-52233358D01*
X346957948Y-52150416D01*
X346815355Y-52067751D01*
X346779460Y-52046942D01*
X346688632Y-51994301D01*
X346599618Y-51942726D01*
X346512653Y-51892354D01*
X346427972Y-51843320D01*
X346345808Y-51795759D01*
X346266397Y-51749808D01*
X346189973Y-51705600D01*
X346116771Y-51663272D01*
X346047025Y-51622959D01*
X345980969Y-51584797D01*
X345918839Y-51548920D01*
X345860869Y-51515465D01*
X345807293Y-51484567D01*
X345758346Y-51456361D01*
X345714262Y-51430982D01*
X345675277Y-51408567D01*
X345641624Y-51389250D01*
X345613539Y-51373167D01*
X345591255Y-51360453D01*
X345575008Y-51351244D01*
X345565032Y-51345676D01*
X345561561Y-51343882D01*
X345561492Y-51344117D01*
X345561261Y-51349758D01*
X345561204Y-51362331D01*
X345561308Y-51381125D01*
X345561561Y-51405428D01*
X345561950Y-51434529D01*
X345562462Y-51467714D01*
X345563086Y-51504273D01*
X345563808Y-51543493D01*
X345564615Y-51584663D01*
X345565497Y-51627070D01*
X345566439Y-51670003D01*
X345567429Y-51712750D01*
X345568455Y-51754598D01*
X345569505Y-51794836D01*
X345570020Y-51817649D01*
X345570186Y-51838458D01*
X345569838Y-51851900D01*
X345568972Y-51858201D01*
X345567579Y-51857585D01*
X345564675Y-51851696D01*
X345562589Y-51849792D01*
X345562492Y-51853040D01*
X345562417Y-51863691D01*
X345562378Y-51881360D01*
X345562372Y-51905639D01*
X345562398Y-51936119D01*
X345562456Y-51972394D01*
X345562544Y-52014055D01*
X345562662Y-52060694D01*
X345562808Y-52111902D01*
X345562982Y-52167273D01*
X345563181Y-52226397D01*
X345563406Y-52288868D01*
X345563655Y-52354276D01*
X345563928Y-52422214D01*
X345564222Y-52492274D01*
X345564310Y-52513145D01*
X345564586Y-52587939D01*
X345564808Y-52663155D01*
X345564978Y-52738161D01*
X345565094Y-52812324D01*
X345565159Y-52885013D01*
X345565172Y-52955596D01*
X345565135Y-53023441D01*
X345565046Y-53087916D01*
X345564908Y-53148390D01*
X345564721Y-53204231D01*
X345564484Y-53254807D01*
X345564199Y-53299485D01*
X345563867Y-53337635D01*
X345563487Y-53368624D01*
X345563468Y-53369861D01*
X345562862Y-53411856D01*
X345562321Y-53451450D01*
X345561852Y-53487968D01*
X345561463Y-53520738D01*
X345561161Y-53549084D01*
X345560952Y-53572334D01*
X345560845Y-53589814D01*
X345305551Y-53589814D01*
X345305227Y-53583443D01*
X345305050Y-53579703D01*
X345304344Y-53559454D01*
X345303689Y-53531948D01*
X345303085Y-53497618D01*
X345302532Y-53456895D01*
X345302032Y-53410212D01*
X345301585Y-53357999D01*
X345301192Y-53300691D01*
X345300853Y-53238717D01*
X345300569Y-53172510D01*
X345300341Y-53102503D01*
X345300170Y-53029127D01*
X345300056Y-52952814D01*
X345300000Y-52873997D01*
X345300002Y-52793106D01*
X345300064Y-52710574D01*
X345300186Y-52626834D01*
X345300368Y-52542316D01*
X345300612Y-52457454D01*
X345300918Y-52372678D01*
X345301286Y-52288422D01*
X345301718Y-52205116D01*
X345302214Y-52123193D01*
X345302775Y-52043085D01*
X345302847Y-52033435D01*
X345303362Y-51962489D01*
X345303835Y-51893704D01*
X345304264Y-51827484D01*
X345304647Y-51764229D01*
X345304983Y-51704342D01*
X345305270Y-51648225D01*
X345305507Y-51596281D01*
X345305692Y-51548912D01*
X345305823Y-51506520D01*
X345305899Y-51469507D01*
X345305919Y-51438275D01*
X345305880Y-51413226D01*
X345305781Y-51394763D01*
X345305621Y-51383289D01*
X345305397Y-51379204D01*
X345304646Y-51379137D01*
X345298496Y-51381398D01*
X345287360Y-51386750D01*
X345272508Y-51394562D01*
X345255210Y-51404201D01*
X345252167Y-51405941D01*
X345235615Y-51415418D01*
X345212927Y-51428426D01*
X345184310Y-51444846D01*
X345149966Y-51464561D01*
X345110101Y-51487453D01*
X345064919Y-51513404D01*
X345014625Y-51542297D01*
X344959423Y-51574015D01*
X344899519Y-51608439D01*
X344835116Y-51645451D01*
X344766419Y-51684935D01*
X344693634Y-51726772D01*
X344616964Y-51770844D01*
X344536614Y-51817035D01*
X344452789Y-51865225D01*
X344365694Y-51915299D01*
X344275532Y-51967137D01*
X344182509Y-52020622D01*
X344086830Y-52075637D01*
X343988698Y-52132064D01*
X343888318Y-52189785D01*
X343785896Y-52248682D01*
X343681636Y-52308638D01*
X343575741Y-52369535D01*
X343468418Y-52431255D01*
X343359870Y-52493681D01*
X343250303Y-52556695D01*
X343139920Y-52620180D01*
X343028926Y-52684017D01*
X342917527Y-52748088D01*
X342805926Y-52812277D01*
X342694329Y-52876466D01*
X342582939Y-52940536D01*
X342471962Y-53004371D01*
X342361602Y-53067852D01*
X342252063Y-53130861D01*
X342143551Y-53193282D01*
X342036270Y-53254996D01*
X341930424Y-53315886D01*
X341826218Y-53375834D01*
X341723858Y-53434722D01*
X341623546Y-53492432D01*
X341525489Y-53548848D01*
X341429890Y-53603851D01*
X341336954Y-53657323D01*
X341246887Y-53709147D01*
X341159891Y-53759206D01*
X341076173Y-53807381D01*
X340995937Y-53853554D01*
X340919387Y-53897609D01*
X340846727Y-53939427D01*
X340778164Y-53978891D01*
X340713900Y-54015883D01*
X340654141Y-54050285D01*
X340599092Y-54081979D01*
X340548956Y-54110849D01*
X340503939Y-54136776D01*
X340464245Y-54159642D01*
X340430080Y-54179331D01*
X340401646Y-54195723D01*
X340379150Y-54208702D01*
X340362795Y-54218150D01*
X340352787Y-54223949D01*
X340349329Y-54225981D01*
X338292789Y-54225981D01*
X338338755Y-54187610D01*
X338448941Y-54086300D01*
X338553167Y-53979982D01*
X338651403Y-53868691D01*
X338743619Y-53752459D01*
X338829786Y-53631322D01*
X338909874Y-53505313D01*
X338954864Y-53427941D01*
X338996384Y-53351223D01*
X339034456Y-53274731D01*
X339069808Y-53196860D01*
X339103167Y-53116008D01*
X339135261Y-53030573D01*
X339166815Y-52938950D01*
X339167740Y-52936159D01*
X339176956Y-52908587D01*
X339185639Y-52883038D01*
X339193410Y-52860589D01*
X339199895Y-52842318D01*
X339204716Y-52829301D01*
X339207496Y-52822615D01*
X339207579Y-52822456D01*
X339218337Y-52807030D01*
X339233998Y-52791004D01*
X339252200Y-52776510D01*
X339270583Y-52765678D01*
X339274377Y-52763936D01*
X339285849Y-52759447D01*
X339297140Y-52756818D01*
X339310903Y-52755583D01*
X339329793Y-52755274D01*
X339336038Y-52755296D01*
X339353144Y-52755829D01*
X339365905Y-52757426D01*
X339376974Y-52760554D01*
X339389003Y-52765678D01*
X339402314Y-52772797D01*
X339427701Y-52792545D01*
X339447713Y-52817523D01*
X339461860Y-52847037D01*
X339469655Y-52880392D01*
X339472106Y-52893793D01*
X339477518Y-52915390D01*
X339485363Y-52942429D01*
X339495317Y-52973973D01*
X339507058Y-53009084D01*
X339520265Y-53046822D01*
X339534613Y-53086251D01*
X339549782Y-53126432D01*
X339565449Y-53166427D01*
X339581292Y-53205297D01*
X339584280Y-53212346D01*
X339596102Y-53238739D01*
X339610877Y-53270044D01*
X339627889Y-53304862D01*
X339646421Y-53341794D01*
X339665759Y-53379442D01*
X339685185Y-53416407D01*
X339703984Y-53451289D01*
X339721440Y-53482689D01*
X339736836Y-53509209D01*
X339766017Y-53556957D01*
X339820428Y-53641121D01*
X339876919Y-53722668D01*
X339934309Y-53799918D01*
X339991417Y-53871194D01*
X340009448Y-53892472D01*
X340031455Y-53917844D01*
X340054927Y-53944405D01*
X340078784Y-53970962D01*
X340101947Y-53996324D01*
X340123334Y-54019298D01*
X340141865Y-54038692D01*
X340156461Y-54053315D01*
X340177239Y-54073368D01*
X340601936Y-53828973D01*
X340657598Y-53796944D01*
X340723940Y-53758773D01*
X340794575Y-53718136D01*
X340869302Y-53675148D01*
X340947921Y-53629925D01*
X341030231Y-53582581D01*
X341116030Y-53533233D01*
X341205118Y-53481996D01*
X341297294Y-53428986D01*
X341392358Y-53374317D01*
X341490107Y-53318105D01*
X341590341Y-53260467D01*
X341692860Y-53201517D01*
X341797463Y-53141370D01*
X341903948Y-53080143D01*
X342012115Y-53017951D01*
X342121763Y-52954908D01*
X342232691Y-52891132D01*
X342344698Y-52826736D01*
X342457583Y-52761837D01*
X342571145Y-52696550D01*
X342685184Y-52630991D01*
X342799498Y-52565275D01*
X342913887Y-52499517D01*
X343028150Y-52433833D01*
X343142086Y-52368338D01*
X343255494Y-52303149D01*
X343368173Y-52238379D01*
X343479922Y-52174146D01*
X343590540Y-52110564D01*
X343699827Y-52047748D01*
X343807582Y-51985815D01*
X343913603Y-51924879D01*
X344017690Y-51865057D01*
X344119642Y-51806463D01*
X344219258Y-51749214D01*
X344316337Y-51693423D01*
X344410678Y-51639208D01*
X344502081Y-51586684D01*
X344590345Y-51535965D01*
X344675268Y-51487168D01*
X344756649Y-51440408D01*
X344834289Y-51395800D01*
X344907985Y-51353460D01*
X344977538Y-51313503D01*
X345042745Y-51276045D01*
X345103407Y-51241201D01*
X345159323Y-51209088D01*
X345210291Y-51179819D01*
X345256110Y-51153511D01*
X345296580Y-51130279D01*
X345331501Y-51110238D01*
X345360670Y-51093505D01*
X345383887Y-51080194D01*
X345400952Y-51070422D01*
X345411662Y-51064302D01*
X345415819Y-51061952D01*
X345421621Y-51059109D01*
X345432984Y-51055189D01*
X345446323Y-51053222D01*
X345464522Y-51052657D01*
X345469992Y-51052665D01*
X345484971Y-51053219D01*
X345496320Y-51055199D01*
X345507263Y-51059404D01*
X345521019Y-51066628D01*
X345525528Y-51069209D01*
X345536771Y-51075693D01*
X345554666Y-51086035D01*
X345579167Y-51100207D01*
X345610229Y-51118185D01*
X345647807Y-51139940D01*
X345691854Y-51165447D01*
X345742326Y-51194680D01*
X345799178Y-51227612D01*
X345862363Y-51264217D01*
X345931836Y-51304468D01*
X346007553Y-51348340D01*
X346089467Y-51395806D01*
X346177533Y-51446839D01*
X346271706Y-51501414D01*
X346371940Y-51559503D01*
X346478190Y-51621081D01*
X346590411Y-51686122D01*
X346708557Y-51754599D01*
X346832582Y-51826485D01*
X346962442Y-51901755D01*
X347098090Y-51980381D01*
X347239482Y-52062339D01*
X347386572Y-52147601D01*
X347539315Y-52236141D01*
X347697664Y-52327932D01*
X347861576Y-52422949D01*
X348031004Y-52521166D01*
X348205903Y-52622555D01*
X348386227Y-52727090D01*
X348571931Y-52834745D01*
X348762970Y-52945495D01*
X348959299Y-53059312D01*
X349160871Y-53176170D01*
X349367642Y-53296043D01*
X349579566Y-53418904D01*
X349796598Y-53544727D01*
X350018691Y-53673487D01*
X350245802Y-53805156D01*
X350477884Y-53939708D01*
X350714892Y-54077117D01*
X350956780Y-54217357D01*
X351203504Y-54360401D01*
X351455018Y-54506222D01*
X351487123Y-54524862D01*
X351529816Y-54549727D01*
X351570372Y-54573438D01*
X351608278Y-54595690D01*
X351643021Y-54616179D01*
X351674089Y-54634601D01*
X351700970Y-54650652D01*
X351723151Y-54664026D01*
X351740118Y-54674421D01*
X351751360Y-54681532D01*
X351756364Y-54685055D01*
X351765781Y-54695636D01*
X351775194Y-54711361D01*
X351783204Y-54731819D01*
X351790524Y-54758540D01*
X351791059Y-54760804D01*
X351791493Y-54762832D01*
X351794738Y-54777994D01*
X351796360Y-54790773D01*
X351796102Y-54801888D01*
X351794144Y-54814085D01*
X351794026Y-54814757D01*
X351793809Y-54816512D01*
X351793597Y-54819014D01*
X351793390Y-54822383D01*
X351793188Y-54826742D01*
X351792989Y-54832211D01*
X351792795Y-54838913D01*
X351792604Y-54846968D01*
X351792416Y-54856498D01*
X351792231Y-54867625D01*
X351792049Y-54880471D01*
X351791868Y-54895155D01*
X351791690Y-54911801D01*
X351791512Y-54930530D01*
X351791336Y-54951462D01*
X351791161Y-54974721D01*
X351790986Y-55000426D01*
X351790811Y-55028700D01*
X351790635Y-55059664D01*
X351790492Y-55087115D01*
X351790459Y-55093439D01*
X351790282Y-55130147D01*
G37*
G36*
X338972750Y-57244322D02*
G01*
X338963707Y-57267657D01*
X338949061Y-57287903D01*
X338929346Y-57303863D01*
X338905096Y-57314334D01*
X338893980Y-57317737D01*
X338873375Y-57324870D01*
X338848650Y-57334083D01*
X338821541Y-57344682D01*
X338793779Y-57355969D01*
X338767099Y-57367251D01*
X338743234Y-57377832D01*
X338723918Y-57387015D01*
X338668774Y-57416150D01*
X338610913Y-57449645D01*
X338554198Y-57485290D01*
X338500768Y-57521740D01*
X338452761Y-57557650D01*
X338434589Y-57572779D01*
X338411127Y-57593762D01*
X338384916Y-57618344D01*
X338357160Y-57645315D01*
X338329063Y-57673466D01*
X338301832Y-57701590D01*
X338276669Y-57728478D01*
X338254780Y-57752922D01*
X338237370Y-57773713D01*
X338235050Y-57776637D01*
X338172468Y-57861945D01*
X338115899Y-57952057D01*
X338065668Y-58046454D01*
X338049760Y-58079974D01*
X338032608Y-58118916D01*
X338017207Y-58157684D01*
X338002529Y-58198895D01*
X337987543Y-58245166D01*
X337984365Y-58255287D01*
X337977647Y-58276233D01*
X337971478Y-58294902D01*
X337966434Y-58309569D01*
X337963089Y-58318509D01*
X337959645Y-58325101D01*
X337948669Y-58339404D01*
X337934275Y-58353286D01*
X337918838Y-58364601D01*
X337904733Y-58371207D01*
X337892531Y-58373781D01*
X337865866Y-58373972D01*
X337840148Y-58367171D01*
X337816815Y-58353868D01*
X337797301Y-58334554D01*
X337792846Y-58328668D01*
X337786281Y-58319202D01*
X337780443Y-58309264D01*
X337774833Y-58297691D01*
X337768953Y-58283319D01*
X337762304Y-58264982D01*
X337754388Y-58241518D01*
X337744705Y-58211761D01*
X337737867Y-58191002D01*
X337728817Y-58164602D01*
X337719810Y-58139356D01*
X337711599Y-58117362D01*
X337704934Y-58100717D01*
X337666851Y-58018891D01*
X337618455Y-57930956D01*
X337563641Y-57845651D01*
X337503122Y-57764166D01*
X337495355Y-57754711D01*
X337476229Y-57732868D01*
X337453239Y-57708000D01*
X337427661Y-57681385D01*
X337400773Y-57654300D01*
X337373852Y-57628020D01*
X337348176Y-57603823D01*
X337325020Y-57582986D01*
X337305664Y-57566784D01*
X337222487Y-57505518D01*
X337132203Y-57448339D01*
X337038474Y-57398139D01*
X336941359Y-57354951D01*
X336927996Y-57349479D01*
X336907610Y-57340727D01*
X336889846Y-57332622D01*
X336876257Y-57325880D01*
X336868390Y-57321218D01*
X336852846Y-57305987D01*
X336840662Y-57285218D01*
X336834125Y-57262062D01*
X336833402Y-57244705D01*
X337186174Y-57244705D01*
X337218644Y-57263298D01*
X337280596Y-57300998D01*
X337364914Y-57359756D01*
X337445992Y-57425037D01*
X337523297Y-57496309D01*
X337596301Y-57573041D01*
X337664473Y-57654700D01*
X337727283Y-57740755D01*
X337784200Y-57830674D01*
X337788774Y-57838617D01*
X337798251Y-57855708D01*
X337808887Y-57875501D01*
X337820074Y-57896802D01*
X337831206Y-57918415D01*
X337841675Y-57939145D01*
X337850874Y-57957797D01*
X337858197Y-57973175D01*
X337863035Y-57984085D01*
X337864783Y-57989330D01*
X337864879Y-57990312D01*
X337868456Y-57995664D01*
X337869558Y-57995197D01*
X337873889Y-57989548D01*
X337880526Y-57978591D01*
X337888792Y-57963478D01*
X337898010Y-57945362D01*
X337911514Y-57918546D01*
X337964853Y-57822789D01*
X338024099Y-57730991D01*
X338088857Y-57643570D01*
X338158734Y-57560941D01*
X338233334Y-57483521D01*
X338312266Y-57411726D01*
X338395134Y-57345971D01*
X338481544Y-57286674D01*
X338571104Y-57234250D01*
X338609208Y-57213796D01*
X338576750Y-57195185D01*
X338522520Y-57162376D01*
X338438022Y-57104119D01*
X338356860Y-57039264D01*
X338279451Y-56968259D01*
X338206213Y-56891551D01*
X338137562Y-56809587D01*
X338073914Y-56722815D01*
X338015687Y-56631682D01*
X337963298Y-56536637D01*
X337952952Y-56516435D01*
X337943797Y-56498771D01*
X337936447Y-56484813D01*
X337931472Y-56475644D01*
X337929442Y-56472348D01*
X337927896Y-56474738D01*
X337923281Y-56483037D01*
X337916208Y-56496211D01*
X337907274Y-56513150D01*
X337897075Y-56532740D01*
X337892039Y-56542397D01*
X337837226Y-56639050D01*
X337776786Y-56731314D01*
X337711069Y-56818830D01*
X337640421Y-56901240D01*
X337565191Y-56978186D01*
X337485727Y-57049310D01*
X337402377Y-57114252D01*
X337315489Y-57172655D01*
X337225412Y-57224161D01*
X337186174Y-57244705D01*
X336833402Y-57244705D01*
X336833119Y-57237922D01*
X336837524Y-57214200D01*
X336847222Y-57192299D01*
X336862094Y-57173621D01*
X336882024Y-57159568D01*
X336888453Y-57156183D01*
X336900290Y-57149226D01*
X336908538Y-57143442D01*
X336913840Y-57140253D01*
X336925416Y-57134576D01*
X336941721Y-57127210D01*
X336961430Y-57118751D01*
X336983217Y-57109796D01*
X337011271Y-57098199D01*
X337108418Y-57052918D01*
X337200713Y-57001681D01*
X337288015Y-56944603D01*
X337370181Y-56881798D01*
X337447070Y-56813380D01*
X337518540Y-56739465D01*
X337584449Y-56660167D01*
X337644655Y-56575600D01*
X337648540Y-56569673D01*
X337681582Y-56517508D01*
X337710478Y-56468156D01*
X337736061Y-56419857D01*
X337759169Y-56370852D01*
X337780635Y-56319382D01*
X337801295Y-56263686D01*
X337821984Y-56202005D01*
X337825496Y-56191165D01*
X337834951Y-56163277D01*
X337843271Y-56141513D01*
X337851085Y-56124814D01*
X337859021Y-56112119D01*
X337867707Y-56102366D01*
X337877772Y-56094497D01*
X337889843Y-56087450D01*
X337890038Y-56087348D01*
X337908665Y-56081099D01*
X337930678Y-56078866D01*
X337952803Y-56080682D01*
X337971764Y-56086583D01*
X337983000Y-56093202D01*
X338000885Y-56108869D01*
X338015302Y-56128043D01*
X338024925Y-56148790D01*
X338028428Y-56169176D01*
X338029203Y-56174398D01*
X338032343Y-56186720D01*
X338037494Y-56204086D01*
X338044223Y-56225224D01*
X338052097Y-56248864D01*
X338060684Y-56273737D01*
X338069550Y-56298572D01*
X338078264Y-56322099D01*
X338086391Y-56343048D01*
X338093500Y-56360148D01*
X338134355Y-56445871D01*
X338186164Y-56537963D01*
X338244209Y-56625840D01*
X338308039Y-56708769D01*
X338329276Y-56733249D01*
X338354661Y-56760710D01*
X338382633Y-56789592D01*
X338411688Y-56818403D01*
X338440322Y-56845653D01*
X338467033Y-56869851D01*
X338490316Y-56889506D01*
X338522937Y-56914863D01*
X338606182Y-56973215D01*
X338693998Y-57026351D01*
X338784902Y-57073412D01*
X338877409Y-57113541D01*
X338899240Y-57122437D01*
X338920907Y-57132536D01*
X338937211Y-57142222D01*
X338949365Y-57152370D01*
X338958580Y-57163855D01*
X338966068Y-57177550D01*
X338971881Y-57193193D01*
X338974881Y-57213796D01*
X338975653Y-57219101D01*
X338972750Y-57244322D01*
G37*
G36*
X345341789Y-61711248D02*
G01*
X345317663Y-61722915D01*
X345292181Y-61734978D01*
X345271752Y-61743920D01*
X345255261Y-61749864D01*
X345241593Y-61752932D01*
X345229631Y-61753247D01*
X345218259Y-61750932D01*
X345206362Y-61746110D01*
X345192825Y-61738903D01*
X345176530Y-61729435D01*
X345175994Y-61729120D01*
X345168881Y-61724941D01*
X345155381Y-61716999D01*
X345135772Y-61705458D01*
X345110337Y-61690484D01*
X345079354Y-61672242D01*
X345043105Y-61650897D01*
X345001869Y-61626614D01*
X344955927Y-61599559D01*
X344905560Y-61569896D01*
X344851046Y-61537791D01*
X344792668Y-61503409D01*
X344730704Y-61466914D01*
X344665436Y-61428472D01*
X344597144Y-61388249D01*
X344526108Y-61346408D01*
X344452607Y-61303116D01*
X344376924Y-61258537D01*
X344299337Y-61212837D01*
X344220128Y-61166180D01*
X344139576Y-61118732D01*
X344057962Y-61070657D01*
X343975566Y-61022122D01*
X343892668Y-60973291D01*
X343809549Y-60924329D01*
X343726489Y-60875401D01*
X343643768Y-60826673D01*
X343561667Y-60778309D01*
X343480466Y-60730475D01*
X343400445Y-60683335D01*
X343321884Y-60637055D01*
X343245065Y-60591801D01*
X343170266Y-60547736D01*
X343097769Y-60505027D01*
X343027854Y-60463838D01*
X342960800Y-60424334D01*
X342896889Y-60386681D01*
X342836401Y-60351044D01*
X342779615Y-60317587D01*
X342726813Y-60286476D01*
X342678274Y-60257876D01*
X342634279Y-60231953D01*
X342595109Y-60208870D01*
X342561042Y-60188794D01*
X342532361Y-60171889D01*
X342509344Y-60158321D01*
X342492273Y-60148255D01*
X342476909Y-60139159D01*
X342439296Y-60116527D01*
X342408538Y-60097418D01*
X342384585Y-60081798D01*
X342367383Y-60069635D01*
X342356880Y-60060894D01*
X342354590Y-60058588D01*
X342335237Y-60033961D01*
X342319998Y-60005142D01*
X342310449Y-59975048D01*
X342309874Y-59970188D01*
X342309383Y-59961354D01*
X342308981Y-59948303D01*
X342308667Y-59930779D01*
X342308443Y-59908528D01*
X342308308Y-59881294D01*
X342308264Y-59848821D01*
X342308286Y-59830381D01*
X342649427Y-59830381D01*
X342649471Y-59841827D01*
X342649581Y-59845797D01*
X342649948Y-59846024D01*
X342655447Y-59849298D01*
X342667353Y-59856344D01*
X342685433Y-59867023D01*
X342709452Y-59881197D01*
X342739175Y-59898729D01*
X342774368Y-59919480D01*
X342814796Y-59943311D01*
X342860225Y-59970085D01*
X342910421Y-59999664D01*
X342965148Y-60031909D01*
X343024173Y-60066683D01*
X343087260Y-60103846D01*
X343154176Y-60143262D01*
X343224685Y-60184791D01*
X343298553Y-60228296D01*
X343375546Y-60273638D01*
X343455430Y-60320679D01*
X343537968Y-60369282D01*
X343622928Y-60419307D01*
X343710075Y-60470618D01*
X343799174Y-60523075D01*
X343889990Y-60576540D01*
X343918653Y-60593414D01*
X344008946Y-60646567D01*
X344097446Y-60698659D01*
X344183918Y-60749555D01*
X344268129Y-60799114D01*
X344349844Y-60847201D01*
X344428829Y-60893676D01*
X344504848Y-60938402D01*
X344577669Y-60981242D01*
X344647056Y-61022057D01*
X344712775Y-61060710D01*
X344774592Y-61097063D01*
X344832271Y-61130978D01*
X344885580Y-61162316D01*
X344934284Y-61190942D01*
X344978147Y-61216715D01*
X345016937Y-61239500D01*
X345050417Y-61259157D01*
X345078355Y-61275549D01*
X345100515Y-61288538D01*
X345116664Y-61297987D01*
X345126566Y-61303758D01*
X345129988Y-61305712D01*
X345130019Y-61304959D01*
X345130090Y-61297722D01*
X345130159Y-61282962D01*
X345130228Y-61260864D01*
X345130295Y-61231617D01*
X345130362Y-61195407D01*
X345130426Y-61152421D01*
X345130490Y-61102846D01*
X345130552Y-61046868D01*
X345130613Y-60984674D01*
X345130672Y-60916451D01*
X345130729Y-60842387D01*
X345130785Y-60762667D01*
X345130838Y-60677479D01*
X345130890Y-60587009D01*
X345130940Y-60491445D01*
X345130987Y-60390973D01*
X345131033Y-60285780D01*
X345131076Y-60176052D01*
X345131116Y-60061978D01*
X345131155Y-59943742D01*
X345131190Y-59821533D01*
X345131223Y-59695538D01*
X345131253Y-59565942D01*
X345131281Y-59432933D01*
X345131305Y-59296698D01*
X345131327Y-59157423D01*
X345131345Y-59015295D01*
X345131361Y-58870502D01*
X345131373Y-58723229D01*
X345131381Y-58573665D01*
X345131387Y-58421995D01*
X345131388Y-58268406D01*
X345131388Y-55231101D01*
X345122622Y-55235752D01*
X345120704Y-55236822D01*
X345112331Y-55241538D01*
X345097584Y-55249861D01*
X345076710Y-55261653D01*
X345049954Y-55276774D01*
X345017562Y-55295086D01*
X344979779Y-55316449D01*
X344936852Y-55340725D01*
X344889026Y-55367774D01*
X344836546Y-55397458D01*
X344779659Y-55429637D01*
X344718610Y-55464172D01*
X344653645Y-55500926D01*
X344585010Y-55539757D01*
X344512950Y-55580529D01*
X344437711Y-55623100D01*
X344359538Y-55667333D01*
X344278678Y-55713089D01*
X344195376Y-55760229D01*
X344109878Y-55808612D01*
X344022429Y-55858102D01*
X343933275Y-55908558D01*
X343879127Y-55939203D01*
X343790557Y-55989328D01*
X343703694Y-56038486D01*
X343618791Y-56086532D01*
X343536103Y-56133324D01*
X343455883Y-56178717D01*
X343378386Y-56222569D01*
X343303864Y-56264736D01*
X343232571Y-56305073D01*
X343164761Y-56343439D01*
X343100689Y-56379688D01*
X343040607Y-56413678D01*
X342984769Y-56445265D01*
X342933429Y-56474306D01*
X342886841Y-56500656D01*
X342845259Y-56524173D01*
X342808936Y-56544712D01*
X342778126Y-56562131D01*
X342753083Y-56576285D01*
X342734060Y-56587032D01*
X342721311Y-56594227D01*
X342715091Y-56597728D01*
X342677486Y-56618743D01*
X342675289Y-56666331D01*
X342675094Y-56673462D01*
X342674839Y-56688084D01*
X342674533Y-56709729D01*
X342674179Y-56738083D01*
X342673779Y-56772830D01*
X342673336Y-56813655D01*
X342672852Y-56860243D01*
X342672330Y-56912279D01*
X342671772Y-56969447D01*
X342671182Y-57031432D01*
X342670561Y-57097919D01*
X342669912Y-57168593D01*
X342669238Y-57243138D01*
X342668541Y-57321239D01*
X342667824Y-57402581D01*
X342667089Y-57486849D01*
X342666338Y-57573728D01*
X342665576Y-57662901D01*
X342664803Y-57754055D01*
X342664022Y-57846873D01*
X342663237Y-57941041D01*
X342662449Y-58036243D01*
X342661662Y-58132165D01*
X342660877Y-58228490D01*
X342660097Y-58324903D01*
X342659325Y-58421091D01*
X342658564Y-58516736D01*
X342657815Y-58611524D01*
X342657082Y-58705139D01*
X342656367Y-58797268D01*
X342655672Y-58887593D01*
X342655000Y-58975800D01*
X342654354Y-59061574D01*
X342653736Y-59144599D01*
X342653149Y-59224561D01*
X342652595Y-59301144D01*
X342652077Y-59374032D01*
X342651597Y-59442911D01*
X342651158Y-59507465D01*
X342650763Y-59567380D01*
X342650414Y-59622339D01*
X342650113Y-59672027D01*
X342649863Y-59716130D01*
X342649667Y-59754332D01*
X342649527Y-59786318D01*
X342649446Y-59811773D01*
X342649427Y-59830381D01*
X342308286Y-59830381D01*
X342308310Y-59810854D01*
X342308448Y-59767139D01*
X342308678Y-59717419D01*
X342309001Y-59661439D01*
X342309417Y-59598943D01*
X342309927Y-59529677D01*
X342310532Y-59453386D01*
X342311231Y-59369812D01*
X342312026Y-59278703D01*
X342312218Y-59256974D01*
X342312836Y-59186490D01*
X342313505Y-59109123D01*
X342314221Y-59025554D01*
X342314977Y-58936467D01*
X342315768Y-58842544D01*
X342316588Y-58744467D01*
X342317432Y-58642919D01*
X342318294Y-58538583D01*
X342319169Y-58432141D01*
X342320050Y-58324275D01*
X342320933Y-58215669D01*
X342321811Y-58107004D01*
X342322680Y-57998963D01*
X342323533Y-57892228D01*
X342324364Y-57787483D01*
X342325169Y-57685410D01*
X342325942Y-57586690D01*
X342326415Y-57526673D01*
X342327130Y-57438667D01*
X342327853Y-57352610D01*
X342328582Y-57268846D01*
X342329311Y-57187718D01*
X342330038Y-57109571D01*
X342330758Y-57034748D01*
X342331468Y-56963592D01*
X342332164Y-56896448D01*
X342332842Y-56833659D01*
X342333499Y-56775570D01*
X342334131Y-56722522D01*
X342334735Y-56674861D01*
X342335305Y-56632930D01*
X342335839Y-56597073D01*
X342336333Y-56567634D01*
X342336784Y-56544955D01*
X342337186Y-56529382D01*
X342337538Y-56521257D01*
X342338118Y-56513775D01*
X342339895Y-56494531D01*
X342341984Y-56480180D01*
X342344889Y-56468526D01*
X342349114Y-56457372D01*
X342355165Y-56444523D01*
X342357325Y-56440232D01*
X342363024Y-56429903D01*
X342369342Y-56420398D01*
X342376902Y-56411259D01*
X342386324Y-56402030D01*
X342398231Y-56392255D01*
X342413244Y-56381476D01*
X342431984Y-56369238D01*
X342455074Y-56355085D01*
X342483134Y-56338558D01*
X342516787Y-56319203D01*
X342556653Y-56296563D01*
X342565835Y-56291368D01*
X342584737Y-56280671D01*
X342609949Y-56266405D01*
X342641192Y-56248726D01*
X342678185Y-56227793D01*
X342720649Y-56203765D01*
X342768303Y-56176800D01*
X342820868Y-56147055D01*
X342878065Y-56114690D01*
X342939613Y-56079863D01*
X343005233Y-56042732D01*
X343074644Y-56003456D01*
X343147567Y-55962192D01*
X343223723Y-55919099D01*
X343302830Y-55874336D01*
X343384610Y-55828061D01*
X343468783Y-55780432D01*
X343555068Y-55731607D01*
X343643187Y-55681746D01*
X343732858Y-55631005D01*
X343823803Y-55579544D01*
X343915742Y-55527521D01*
X344003175Y-55478042D01*
X344091907Y-55427818D01*
X344178689Y-55378687D01*
X344263280Y-55330786D01*
X344345439Y-55284253D01*
X344424923Y-55239224D01*
X344501491Y-55195836D01*
X344574902Y-55154228D01*
X344644913Y-55114535D01*
X344711283Y-55076895D01*
X344773770Y-55041445D01*
X344832132Y-55008323D01*
X344886128Y-54977665D01*
X344935517Y-54949609D01*
X344980055Y-54924292D01*
X345019503Y-54901850D01*
X345053617Y-54882421D01*
X345082157Y-54866143D01*
X345104881Y-54853151D01*
X345121546Y-54843585D01*
X345131912Y-54837579D01*
X345135736Y-54835273D01*
X345136401Y-54834745D01*
X345143454Y-54830330D01*
X345155647Y-54823530D01*
X345171644Y-54815017D01*
X345190109Y-54805461D01*
X345209707Y-54795534D01*
X345229101Y-54785906D01*
X345246957Y-54777250D01*
X345261939Y-54770235D01*
X345272710Y-54765535D01*
X345277934Y-54763819D01*
X345278349Y-54763855D01*
X345284792Y-54765513D01*
X345297150Y-54769347D01*
X345314212Y-54774960D01*
X345334766Y-54781955D01*
X345357598Y-54789934D01*
X345431408Y-54816049D01*
X345430432Y-58242430D01*
X345430425Y-58268406D01*
X345429456Y-61668810D01*
X345341789Y-61711248D01*
G37*
%TD*%
D10*
%TO.C,K70*%
X350361250Y-134540625D03*
X340201250Y-134540625D03*
D11*
X345281250Y-134540625D03*
D12*
X347821250Y-129460625D03*
X341471250Y-132000625D03*
%TD*%
D11*
%TO.C,K57*%
X300037500Y-115490625D03*
D10*
X305117500Y-115490625D03*
X294957500Y-115490625D03*
D12*
X302577500Y-110410625D03*
X296227500Y-112950625D03*
%TD*%
D10*
%TO.C,K58*%
X331311250Y-115490625D03*
X321151250Y-115490625D03*
D11*
X326231250Y-115490625D03*
D12*
X328771250Y-110410625D03*
X322421250Y-112950625D03*
%TD*%
D13*
%TO.C,>NAME*%
X302387000Y-89455625D03*
X326263000Y-89455625D03*
D14*
X302387000Y-104695625D03*
X326263000Y-104695625D03*
%TD*%
D11*
%TO.C,K31*%
X66675000Y-96440625D03*
D10*
X71755000Y-96440625D03*
X61595000Y-96440625D03*
D12*
X69215000Y-91360625D03*
X62865000Y-93900625D03*
%TD*%
D10*
%TO.C,K43a1*%
X297338750Y-96440625D03*
D11*
X302418750Y-96440625D03*
D10*
X307498750Y-96440625D03*
D12*
X304958750Y-91360625D03*
X298608750Y-93900625D03*
%TD*%
D10*
%TO.C,K7*%
X168751250Y-58340625D03*
D11*
X173831250Y-58340625D03*
D10*
X178911250Y-58340625D03*
D12*
X176371250Y-53260625D03*
X170021250Y-55800625D03*
%TD*%
D11*
%TO.C,K49*%
X140493750Y-115490625D03*
D10*
X135413750Y-115490625D03*
X145573750Y-115490625D03*
D12*
X143033750Y-110410625D03*
X136683750Y-112950625D03*
%TD*%
D10*
%TO.C,K64a1*%
X197961250Y-134540625D03*
X187801250Y-134540625D03*
D11*
X192881250Y-134540625D03*
D12*
X195421250Y-129460625D03*
X189071250Y-132000625D03*
%TD*%
D10*
%TO.C,K34*%
X136048750Y-96440625D03*
X125888750Y-96440625D03*
D11*
X130968750Y-96440625D03*
D12*
X133508750Y-91360625D03*
X127158750Y-93900625D03*
%TD*%
D10*
%TO.C,K9*%
X217011250Y-58340625D03*
X206851250Y-58340625D03*
D11*
X211931250Y-58340625D03*
D12*
X214471250Y-53260625D03*
X208121250Y-55800625D03*
%TD*%
D10*
%TO.C,K33*%
X106838750Y-96440625D03*
X116998750Y-96440625D03*
D11*
X111918750Y-96440625D03*
D12*
X114458750Y-91360625D03*
X108108750Y-93900625D03*
%TD*%
D11*
%TO.C,K56*%
X273843750Y-115490625D03*
D10*
X278923750Y-115490625D03*
X268763750Y-115490625D03*
D12*
X276383750Y-110410625D03*
X270033750Y-112950625D03*
%TD*%
D11*
%TO.C,K54*%
X235743750Y-115490625D03*
D10*
X240823750Y-115490625D03*
X230663750Y-115490625D03*
D12*
X238283750Y-110410625D03*
X231933750Y-112950625D03*
%TD*%
D11*
%TO.C,K8*%
X192881250Y-58340625D03*
D10*
X187801250Y-58340625D03*
X197961250Y-58340625D03*
D12*
X195421250Y-53260625D03*
X189071250Y-55800625D03*
%TD*%
D13*
%TO.C,>NAME*%
X202374500Y-141525625D03*
D14*
X226250500Y-126285625D03*
D13*
X226250500Y-141525625D03*
D14*
X202374500Y-126285625D03*
%TD*%
D10*
%TO.C,K24*%
X216376250Y-77390625D03*
X226536250Y-77390625D03*
D11*
X221456250Y-77390625D03*
D12*
X223996250Y-72310625D03*
X217646250Y-74850625D03*
%TD*%
D10*
%TO.C,K40*%
X250348750Y-96440625D03*
X240188750Y-96440625D03*
D11*
X245268750Y-96440625D03*
D12*
X247808750Y-91360625D03*
X241458750Y-93900625D03*
%TD*%
D11*
%TO.C,K11*%
X250031250Y-58340625D03*
D10*
X255111250Y-58340625D03*
X244951250Y-58340625D03*
D12*
X252571250Y-53260625D03*
X246221250Y-55800625D03*
%TD*%
D11*
%TO.C,K31a1*%
X61912500Y-96440625D03*
D10*
X66992500Y-96440625D03*
X56832500Y-96440625D03*
D12*
X64452500Y-91360625D03*
X58102500Y-93900625D03*
%TD*%
D10*
%TO.C,K15*%
X331311250Y-58340625D03*
X321151250Y-58340625D03*
D11*
X326231250Y-58340625D03*
D12*
X328771250Y-53260625D03*
X322421250Y-55800625D03*
%TD*%
D11*
%TO.C,K52*%
X197643750Y-115490625D03*
D10*
X202723750Y-115490625D03*
X192563750Y-115490625D03*
D12*
X200183750Y-110410625D03*
X193833750Y-112950625D03*
%TD*%
D11*
%TO.C,K53*%
X216693750Y-115490625D03*
D10*
X221773750Y-115490625D03*
X211613750Y-115490625D03*
D12*
X219233750Y-110410625D03*
X212883750Y-112950625D03*
%TD*%
D10*
%TO.C,K10*%
X236061250Y-58340625D03*
X225901250Y-58340625D03*
D11*
X230981250Y-58340625D03*
D12*
X233521250Y-53260625D03*
X227171250Y-55800625D03*
%TD*%
D10*
%TO.C,K63*%
X130651250Y-134540625D03*
X140811250Y-134540625D03*
D11*
X135731250Y-134540625D03*
D12*
X138271250Y-129460625D03*
X131921250Y-132000625D03*
%TD*%
D11*
%TO.C,K27*%
X278606250Y-77390625D03*
D10*
X283686250Y-77390625D03*
X273526250Y-77390625D03*
D12*
X281146250Y-72310625D03*
X274796250Y-74850625D03*
%TD*%
D10*
%TO.C,K51*%
X183673750Y-115490625D03*
D11*
X178593750Y-115490625D03*
D10*
X173513750Y-115490625D03*
D12*
X181133750Y-110410625D03*
X174783750Y-112950625D03*
%TD*%
D10*
%TO.C,K5*%
X130651250Y-58340625D03*
X140811250Y-58340625D03*
D11*
X135731250Y-58340625D03*
D12*
X138271250Y-53260625D03*
X131921250Y-55800625D03*
%TD*%
D10*
%TO.C,K50*%
X154463750Y-115490625D03*
X164623750Y-115490625D03*
D11*
X159543750Y-115490625D03*
D12*
X162083750Y-110410625D03*
X155733750Y-112950625D03*
%TD*%
D10*
%TO.C,K41*%
X269398750Y-96440625D03*
D11*
X264318750Y-96440625D03*
D10*
X259238750Y-96440625D03*
D12*
X266858750Y-91360625D03*
X260508750Y-93900625D03*
%TD*%
D11*
%TO.C,K17*%
X88106250Y-77390625D03*
D10*
X93186250Y-77390625D03*
X83026250Y-77390625D03*
D12*
X90646250Y-72310625D03*
X84296250Y-74850625D03*
%TD*%
D10*
%TO.C,K38*%
X202088750Y-96440625D03*
X212248750Y-96440625D03*
D11*
X207168750Y-96440625D03*
D12*
X209708750Y-91360625D03*
X203358750Y-93900625D03*
%TD*%
D10*
%TO.C,K64*%
X171767500Y-134540625D03*
X161607500Y-134540625D03*
D11*
X166687500Y-134540625D03*
D12*
X169227500Y-129460625D03*
X162877500Y-132000625D03*
%TD*%
D10*
%TO.C,K19*%
X121126250Y-77390625D03*
D11*
X126206250Y-77390625D03*
D10*
X131286250Y-77390625D03*
D12*
X128746250Y-72310625D03*
X122396250Y-74850625D03*
%TD*%
D11*
%TO.C,K29a1*%
X323850000Y-86915625D03*
D10*
X328930000Y-86915625D03*
X318770000Y-86915625D03*
D12*
X326390000Y-81835625D03*
X320040000Y-84375625D03*
%TD*%
D11*
%TO.C,K3*%
X97631250Y-58340625D03*
D10*
X102711250Y-58340625D03*
X92551250Y-58340625D03*
D12*
X100171250Y-53260625D03*
X93821250Y-55800625D03*
%TD*%
D10*
%TO.C,K29*%
X316388750Y-77390625D03*
D11*
X321468750Y-77390625D03*
D10*
X326548750Y-77390625D03*
D12*
X318928750Y-82470625D03*
X325278750Y-79930625D03*
%TD*%
D11*
%TO.C,K4*%
X116681250Y-58340625D03*
D10*
X121761250Y-58340625D03*
X111601250Y-58340625D03*
D12*
X119221250Y-53260625D03*
X112871250Y-55800625D03*
%TD*%
D10*
%TO.C,K37*%
X183038750Y-96440625D03*
X193198750Y-96440625D03*
D11*
X188118750Y-96440625D03*
D12*
X190658750Y-91360625D03*
X184308750Y-93900625D03*
%TD*%
D15*
%TO.C,REF\u002A\u002A*%
X330850000Y-98815625D03*
D11*
X315610000Y-98815625D03*
D15*
X330850000Y-75015625D03*
D11*
X315610000Y-75015625D03*
%TD*%
%TO.C,REF\u002A\u002A*%
X250031250Y-126300625D03*
D15*
X135731250Y-141540625D03*
D11*
X135731250Y-126300625D03*
D15*
X250031250Y-141540625D03*
%TD*%
D10*
%TO.C,K23*%
X207486250Y-77390625D03*
D11*
X202406250Y-77390625D03*
D10*
X197326250Y-77390625D03*
D12*
X204946250Y-72310625D03*
X198596250Y-74850625D03*
%TD*%
D10*
%TO.C,K32*%
X97948750Y-96440625D03*
D11*
X92868750Y-96440625D03*
D10*
X87788750Y-96440625D03*
D12*
X95408750Y-91360625D03*
X89058750Y-93900625D03*
%TD*%
D11*
%TO.C,K26*%
X259556250Y-77390625D03*
D10*
X264636250Y-77390625D03*
X254476250Y-77390625D03*
D12*
X262096250Y-72310625D03*
X255746250Y-74850625D03*
%TD*%
D13*
%TO.C,>NAME*%
X178625500Y-141525625D03*
D14*
X178625500Y-126285625D03*
D13*
X154749500Y-141525625D03*
D14*
X154749500Y-126285625D03*
%TD*%
D11*
%TO.C,K18*%
X107156250Y-77390625D03*
D10*
X102076250Y-77390625D03*
X112236250Y-77390625D03*
D12*
X109696250Y-72310625D03*
X103346250Y-74850625D03*
%TD*%
D11*
%TO.C,K22*%
X183356250Y-77390625D03*
D10*
X178276250Y-77390625D03*
X188436250Y-77390625D03*
D12*
X185896250Y-72310625D03*
X179546250Y-74850625D03*
%TD*%
D11*
%TO.C,K6*%
X154781250Y-58340625D03*
D10*
X159861250Y-58340625D03*
X149701250Y-58340625D03*
D12*
X157321250Y-53260625D03*
X150971250Y-55800625D03*
%TD*%
D10*
%TO.C,K42*%
X278288750Y-96440625D03*
X288448750Y-96440625D03*
D11*
X283368750Y-96440625D03*
D12*
X285908750Y-91360625D03*
X279558750Y-93900625D03*
%TD*%
D10*
%TO.C,K65*%
X209232500Y-134540625D03*
X219392500Y-134540625D03*
D11*
X214312500Y-134540625D03*
D12*
X216852500Y-129460625D03*
X210502500Y-132000625D03*
%TD*%
D10*
%TO.C,K30*%
X340201250Y-77390625D03*
D11*
X345281250Y-77390625D03*
D10*
X350361250Y-77390625D03*
D12*
X347821250Y-72310625D03*
X341471250Y-74850625D03*
%TD*%
D10*
%TO.C,K12*%
X274161250Y-58340625D03*
X264001250Y-58340625D03*
D11*
X269081250Y-58340625D03*
D12*
X271621250Y-53260625D03*
X265271250Y-55800625D03*
%TD*%
D10*
%TO.C,K20*%
X150336250Y-77390625D03*
X140176250Y-77390625D03*
D11*
X145256250Y-77390625D03*
D12*
X147796250Y-72310625D03*
X141446250Y-74850625D03*
%TD*%
D10*
%TO.C,K48*%
X116363750Y-115490625D03*
D11*
X121443750Y-115490625D03*
D10*
X126523750Y-115490625D03*
D12*
X123983750Y-110410625D03*
X117633750Y-112950625D03*
%TD*%
D10*
%TO.C,K69*%
X321151250Y-134540625D03*
X331311250Y-134540625D03*
D11*
X326231250Y-134540625D03*
D12*
X328771250Y-129460625D03*
X322421250Y-132000625D03*
%TD*%
D11*
%TO.C,K45*%
X61912500Y-115490625D03*
D10*
X66992500Y-115490625D03*
X56832500Y-115490625D03*
D12*
X64452500Y-110410625D03*
X58102500Y-112950625D03*
%TD*%
D11*
%TO.C,K13*%
X288131250Y-58340625D03*
D10*
X293211250Y-58340625D03*
X283051250Y-58340625D03*
D12*
X290671250Y-53260625D03*
X284321250Y-55800625D03*
%TD*%
D10*
%TO.C,K61*%
X83026250Y-134540625D03*
D11*
X88106250Y-134540625D03*
D10*
X93186250Y-134540625D03*
D12*
X90646250Y-129460625D03*
X84296250Y-132000625D03*
%TD*%
D10*
%TO.C,K43*%
X309245000Y-96440625D03*
X319405000Y-96440625D03*
D11*
X314325000Y-96440625D03*
D12*
X316865000Y-91360625D03*
X310515000Y-93900625D03*
%TD*%
D10*
%TO.C,K47*%
X107473750Y-115490625D03*
X97313750Y-115490625D03*
D11*
X102393750Y-115490625D03*
D12*
X104933750Y-110410625D03*
X98583750Y-112950625D03*
%TD*%
D10*
%TO.C,K28*%
X302736250Y-77390625D03*
D11*
X297656250Y-77390625D03*
D10*
X292576250Y-77390625D03*
D12*
X300196250Y-72310625D03*
X293846250Y-74850625D03*
%TD*%
D10*
%TO.C,K36*%
X174148750Y-96440625D03*
D11*
X169068750Y-96440625D03*
D10*
X163988750Y-96440625D03*
D12*
X171608750Y-91360625D03*
X165258750Y-93900625D03*
%TD*%
D10*
%TO.C,K39*%
X231298750Y-96440625D03*
X221138750Y-96440625D03*
D11*
X226218750Y-96440625D03*
D12*
X228758750Y-91360625D03*
X222408750Y-93900625D03*
%TD*%
D10*
%TO.C,K62*%
X106838750Y-134540625D03*
X116998750Y-134540625D03*
D11*
X111918750Y-134540625D03*
D12*
X114458750Y-129460625D03*
X108108750Y-132000625D03*
%TD*%
D11*
%TO.C,K59*%
X345281250Y-115490625D03*
D10*
X350361250Y-115490625D03*
X340201250Y-115490625D03*
D12*
X347821250Y-110410625D03*
X341471250Y-112950625D03*
%TD*%
D10*
%TO.C,K60*%
X69373750Y-134540625D03*
D11*
X64293750Y-134540625D03*
D10*
X59213750Y-134540625D03*
D12*
X66833750Y-129460625D03*
X60483750Y-132000625D03*
%TD*%
D10*
%TO.C,K67*%
X268763750Y-134540625D03*
X278923750Y-134540625D03*
D11*
X273843750Y-134540625D03*
D12*
X276383750Y-129460625D03*
X270033750Y-132000625D03*
%TD*%
D10*
%TO.C,K44*%
X340201250Y-96440625D03*
D11*
X345281250Y-96440625D03*
D10*
X350361250Y-96440625D03*
D12*
X347821250Y-91360625D03*
X341471250Y-93900625D03*
%TD*%
D10*
%TO.C,K1*%
X54451250Y-58340625D03*
X64611250Y-58340625D03*
D11*
X59531250Y-58340625D03*
D12*
X62071250Y-53260625D03*
X55721250Y-55800625D03*
%TD*%
D10*
%TO.C,K46*%
X88423750Y-115490625D03*
X78263750Y-115490625D03*
D11*
X83343750Y-115490625D03*
D12*
X85883750Y-110410625D03*
X79533750Y-112950625D03*
%TD*%
D10*
%TO.C,K55*%
X259873750Y-115490625D03*
D11*
X254793750Y-115490625D03*
D10*
X249713750Y-115490625D03*
D12*
X257333750Y-110410625D03*
X250983750Y-112950625D03*
%TD*%
D10*
%TO.C,K21*%
X169386250Y-77390625D03*
X159226250Y-77390625D03*
D11*
X164306250Y-77390625D03*
D12*
X166846250Y-72310625D03*
X160496250Y-74850625D03*
%TD*%
D10*
%TO.C,K68*%
X312261250Y-134540625D03*
X302101250Y-134540625D03*
D11*
X307181250Y-134540625D03*
D12*
X309721250Y-129460625D03*
X303371250Y-132000625D03*
%TD*%
D10*
%TO.C,K66*%
X244951250Y-134540625D03*
X255111250Y-134540625D03*
D11*
X250031250Y-134540625D03*
D12*
X252571250Y-129460625D03*
X246221250Y-132000625D03*
%TD*%
D11*
%TO.C,K16*%
X64293750Y-77390625D03*
D10*
X69373750Y-77390625D03*
X59213750Y-77390625D03*
D12*
X66833750Y-72310625D03*
X60483750Y-74850625D03*
%TD*%
D11*
%TO.C,K2*%
X78581250Y-58340625D03*
D10*
X73501250Y-58340625D03*
X83661250Y-58340625D03*
D12*
X81121250Y-53260625D03*
X74771250Y-55800625D03*
%TD*%
D11*
%TO.C,K45a1*%
X59537500Y-123730625D03*
X83337500Y-123730625D03*
X71437500Y-115490625D03*
D15*
X59537500Y-108490625D03*
D10*
X76517500Y-115490625D03*
X66357500Y-115490625D03*
D15*
X83337500Y-108490625D03*
D12*
X73977500Y-110410625D03*
X67627500Y-112950625D03*
%TD*%
D11*
%TO.C,K35*%
X150018750Y-96440625D03*
D10*
X144938750Y-96440625D03*
X155098750Y-96440625D03*
D12*
X152558750Y-91360625D03*
X146208750Y-93900625D03*
%TD*%
D10*
%TO.C,K14*%
X302101250Y-58340625D03*
D11*
X307181250Y-58340625D03*
D10*
X312261250Y-58340625D03*
D12*
X309721250Y-53260625D03*
X303371250Y-55800625D03*
%TD*%
D11*
%TO.C,K14a1*%
X304806250Y-66580625D03*
X328606250Y-66580625D03*
X316706250Y-58340625D03*
D10*
X311626250Y-58340625D03*
D15*
X304806250Y-51340625D03*
D10*
X321786250Y-58340625D03*
D15*
X328606250Y-51340625D03*
D12*
X319246250Y-53260625D03*
X312896250Y-55800625D03*
%TD*%
D10*
%TO.C,K25*%
X245586250Y-77390625D03*
X235426250Y-77390625D03*
D11*
X240506250Y-77390625D03*
D12*
X243046250Y-72310625D03*
X236696250Y-74850625D03*
%TD*%
D16*
%TO.C,Y1*%
X299649250Y-120740625D03*
X299649250Y-122940625D03*
X297949250Y-122940625D03*
X297949250Y-120740625D03*
%TD*%
D17*
%TO.C,J1*%
X205296250Y-50740000D03*
X199516250Y-50740000D03*
D18*
X199156250Y-52185000D03*
X199956250Y-52185000D03*
D19*
X201156250Y-52185000D03*
X202156250Y-52185000D03*
X202656250Y-52185000D03*
X203656250Y-52185000D03*
D18*
X204856250Y-52185000D03*
X205656250Y-52185000D03*
X205656250Y-52185000D03*
X204856250Y-52185000D03*
D19*
X204156250Y-52185000D03*
X203156250Y-52185000D03*
X201656250Y-52185000D03*
X200656250Y-52185000D03*
D18*
X199956250Y-52185000D03*
X199156250Y-52185000D03*
D20*
X198086250Y-51270000D03*
D21*
X198086250Y-47090000D03*
D20*
X206726250Y-51270000D03*
D21*
X206726250Y-47090000D03*
%TD*%
D22*
%TO.C,KD25*%
X110968750Y-116934375D03*
X112868750Y-116934375D03*
X111918750Y-118809375D03*
%TD*%
%TO.C,KD1*%
X68106250Y-59784375D03*
X70006250Y-59784375D03*
X69056250Y-61659375D03*
%TD*%
D23*
%TO.C,SW1*%
X288766250Y-109130625D03*
X288766250Y-102830625D03*
X284966250Y-109130625D03*
X284966250Y-102830625D03*
%TD*%
D22*
%TO.C,KD31*%
X334806250Y-116934375D03*
X336706250Y-116934375D03*
X335756250Y-118809375D03*
%TD*%
%TO.C,KD27*%
X187168750Y-116934375D03*
X189068750Y-116934375D03*
X188118750Y-118809375D03*
%TD*%
%TO.C,KD4*%
X182406250Y-59784375D03*
X184306250Y-59784375D03*
X183356250Y-61659375D03*
%TD*%
D24*
%TO.C,R4*%
X266383000Y-124221875D03*
X268033000Y-124221875D03*
%TD*%
D25*
%TO.C,C2*%
X297783250Y-131860625D03*
X297783250Y-133410625D03*
%TD*%
D22*
%TO.C,KD19*%
X158593750Y-97884375D03*
X160493750Y-97884375D03*
X159543750Y-99759375D03*
%TD*%
%TO.C,KD23*%
X324328750Y-97884375D03*
X326228750Y-97884375D03*
X325278750Y-99759375D03*
%TD*%
%TO.C,KD12*%
X191931250Y-78834375D03*
X193831250Y-78834375D03*
X192881250Y-80709375D03*
%TD*%
D26*
%TO.C,U2*%
X283558314Y-127115543D03*
X284124000Y-126549858D03*
X284689685Y-125984173D03*
X285255370Y-125418487D03*
X285821056Y-124852802D03*
X286386741Y-124287116D03*
X286952427Y-123721431D03*
X287518112Y-123155745D03*
X288083798Y-122590060D03*
X288649483Y-122024375D03*
X289215168Y-121458689D03*
D27*
X291619332Y-121458689D03*
X292185017Y-122024375D03*
X292750702Y-122590060D03*
X293316388Y-123155745D03*
X293882073Y-123721431D03*
X294447759Y-124287116D03*
X295013444Y-124852802D03*
X295579130Y-125418487D03*
X296144815Y-125984173D03*
X296710500Y-126549858D03*
X297276186Y-127115543D03*
D26*
X297276186Y-129519707D03*
X296710500Y-130085392D03*
X296144815Y-130651077D03*
X295579130Y-131216763D03*
X295013444Y-131782448D03*
X294447759Y-132348134D03*
X293882073Y-132913819D03*
X293316388Y-133479505D03*
X292750702Y-134045190D03*
X292185017Y-134610875D03*
X291619332Y-135176561D03*
D27*
X289215168Y-135176561D03*
X288649483Y-134610875D03*
X288083798Y-134045190D03*
X287518112Y-133479505D03*
X286952427Y-132913819D03*
X286386741Y-132348134D03*
X285821056Y-131782448D03*
X285255370Y-131216763D03*
X284689685Y-130651077D03*
X284124000Y-130085392D03*
X283558314Y-129519707D03*
%TD*%
D22*
%TO.C,KD36*%
X315756250Y-135984375D03*
X317656250Y-135984375D03*
X316706250Y-137859375D03*
%TD*%
%TO.C,KD11*%
X153831250Y-78834375D03*
X155731250Y-78834375D03*
X154781250Y-80709375D03*
%TD*%
D28*
%TO.C,FB1*%
X208455750Y-51228625D03*
X210580750Y-51228625D03*
%TD*%
D22*
%TO.C,KD32*%
X77631250Y-135984375D03*
X79531250Y-135984375D03*
X78581250Y-137859375D03*
%TD*%
D29*
%TO.C,R2*%
X204266800Y-55729735D03*
X204266800Y-57379735D03*
%TD*%
D22*
%TO.C,KD24*%
X91918750Y-116934375D03*
X93818750Y-116934375D03*
X92868750Y-118809375D03*
%TD*%
%TO.C,KD28*%
X225268750Y-116934375D03*
X227168750Y-116934375D03*
X226218750Y-118809375D03*
%TD*%
%TO.C,KD3*%
X144306250Y-59784375D03*
X146206250Y-59784375D03*
X145256250Y-61659375D03*
%TD*%
%TO.C,KD26*%
X149068750Y-116934375D03*
X150968750Y-116934375D03*
X150018750Y-118809375D03*
%TD*%
D24*
%TO.C,R5*%
X266383000Y-125745875D03*
X268033000Y-125745875D03*
%TD*%
D22*
%TO.C,KD37*%
X334806250Y-135984375D03*
X336706250Y-135984375D03*
X335756250Y-137859375D03*
%TD*%
D30*
%TO.C,F1*%
X198831200Y-54383700D03*
X198831200Y-56258700D03*
%TD*%
D31*
%TO.C,LED1*%
X60622500Y-101520625D03*
D32*
X63162500Y-101520625D03*
%TD*%
D22*
%TO.C,KD5*%
X220506250Y-59784375D03*
X222406250Y-59784375D03*
X221456250Y-61659375D03*
%TD*%
D33*
%TO.C,C1*%
X294100250Y-121459625D03*
X295196266Y-120363609D03*
%TD*%
D22*
%TO.C,KD2*%
X106206250Y-59784375D03*
X108106250Y-59784375D03*
X107156250Y-61659375D03*
%TD*%
D34*
%TO.C,R7*%
X292754887Y-136497262D03*
X293921613Y-137663988D03*
%TD*%
D29*
%TO.C,R1*%
X200558400Y-55729735D03*
X200558400Y-57379735D03*
%TD*%
D31*
%TO.C,ISP1*%
X285591250Y-117268625D03*
D32*
X288131250Y-117268625D03*
X285591250Y-114728625D03*
X288131250Y-114728625D03*
X285591250Y-112188625D03*
X288131250Y-112188625D03*
%TD*%
D22*
%TO.C,KD10*%
X115731250Y-78834375D03*
X117631250Y-78834375D03*
X116681250Y-80709375D03*
%TD*%
D35*
%TO.C,C6*%
X299574250Y-124761625D03*
X298024250Y-124761625D03*
%TD*%
%TO.C,C5*%
X284524750Y-121808875D03*
X282974750Y-121808875D03*
%TD*%
D22*
%TO.C,KD17*%
X82393750Y-97884375D03*
X84293750Y-97884375D03*
X83343750Y-99759375D03*
%TD*%
D35*
%TO.C,C7*%
X299574250Y-118919625D03*
X298024250Y-118919625D03*
%TD*%
D22*
%TO.C,KD21*%
X234793750Y-97884375D03*
X236693750Y-97884375D03*
X235743750Y-99759375D03*
%TD*%
%TO.C,KD33*%
X125256250Y-135984375D03*
X127156250Y-135984375D03*
X126206250Y-137859375D03*
%TD*%
%TO.C,KD14*%
X268131250Y-78834375D03*
X270031250Y-78834375D03*
X269081250Y-80709375D03*
%TD*%
%TO.C,KD6*%
X258606250Y-59784375D03*
X260506250Y-59784375D03*
X259556250Y-61659375D03*
%TD*%
%TO.C,KD16*%
X334806250Y-78834375D03*
X336706250Y-78834375D03*
X335756250Y-80709375D03*
%TD*%
%TO.C,KD18*%
X120493750Y-97884375D03*
X122393750Y-97884375D03*
X121443750Y-99759375D03*
%TD*%
%TO.C,KD35*%
X258606250Y-135984375D03*
X260506250Y-135984375D03*
X259556250Y-137859375D03*
%TD*%
%TO.C,KD8*%
X334806250Y-59784375D03*
X336706250Y-59784375D03*
X335756250Y-61659375D03*
%TD*%
%TO.C,KD30*%
X315756250Y-116934375D03*
X317656250Y-116934375D03*
X316706250Y-118809375D03*
%TD*%
D36*
%TO.C,C3*%
X288044258Y-136532617D03*
X286948242Y-137628633D03*
%TD*%
D22*
%TO.C,KD13*%
X230031250Y-78834375D03*
X231931250Y-78834375D03*
X230981250Y-80709375D03*
%TD*%
D37*
%TO.C,R6*%
X67925000Y-105520625D03*
X67925000Y-103870625D03*
%TD*%
D22*
%TO.C,KD9*%
X77631250Y-78834375D03*
X79531250Y-78834375D03*
X78581250Y-80709375D03*
%TD*%
D37*
%TO.C,R3*%
X282543250Y-116315625D03*
X282543250Y-114665625D03*
%TD*%
D22*
%TO.C,KD34*%
X201456250Y-135984375D03*
X203356250Y-135984375D03*
X202406250Y-137859375D03*
%TD*%
%TO.C,KD22*%
X272893750Y-97884375D03*
X274793750Y-97884375D03*
X273843750Y-99759375D03*
%TD*%
%TO.C,KD20*%
X196693750Y-97884375D03*
X198593750Y-97884375D03*
X197643750Y-99759375D03*
%TD*%
D38*
%TO.C,C8*%
X282974750Y-123317000D03*
X284524750Y-123317000D03*
%TD*%
D31*
%TO.C,LED1a1*%
X65385000Y-101520625D03*
D32*
X67925000Y-101520625D03*
%TD*%
D22*
%TO.C,KD7*%
X296706250Y-59784375D03*
X298606250Y-59784375D03*
X297656250Y-61659375D03*
%TD*%
%TO.C,KD15*%
X306231250Y-78834375D03*
X308131250Y-78834375D03*
X307181250Y-80709375D03*
%TD*%
D39*
%TO.C,U1*%
X201868920Y-55704735D03*
D40*
X202406420Y-55629735D03*
D39*
X202943920Y-55704735D03*
X202943920Y-57404735D03*
D40*
X202406420Y-57479735D03*
D39*
X201868920Y-57404735D03*
%TD*%
D22*
%TO.C,KD29*%
X263368750Y-116934375D03*
X265268750Y-116934375D03*
X264318750Y-118809375D03*
%TD*%
D36*
%TO.C,C4*%
X282154633Y-130627117D03*
X281058617Y-131723133D03*
%TD*%
M02*
