%TF.GenerationSoftware,KiCad,Pcbnew,(5.99.0-11177-g6c67dfa032)*%
%TF.CreationDate,2021-09-16T00:44:05+03:00*%
%TF.ProjectId,Charon_32U4_Solder,43686172-6f6e-45f3-9332-55345f536f6c,rev?*%
%TF.SameCoordinates,Original*%
%TF.FileFunction,Legend,Bot*%
%TF.FilePolarity,Positive*%
%FSLAX46Y46*%
G04 Gerber Fmt 4.6, Leading zero omitted, Abs format (unit mm)*
G04 Created by KiCad (PCBNEW (5.99.0-11177-g6c67dfa032)) date 2021-09-16 00:44:05*
%MOMM*%
%LPD*%
G01*
G04 APERTURE LIST*
%ADD10C,0.150000*%
%ADD11C,0.120000*%
G04 APERTURE END LIST*
D10*
%TO.C,K70*%
X346495535Y-127119005D02*
X346495535Y-126119005D01*
X345924107Y-127119005D02*
X346352678Y-126547577D01*
X345924107Y-126119005D02*
X346495535Y-126690434D01*
X345590773Y-126119005D02*
X344924107Y-126119005D01*
X345352678Y-127119005D01*
X344352678Y-126119005D02*
X344257440Y-126119005D01*
X344162202Y-126166625D01*
X344114583Y-126214244D01*
X344066964Y-126309482D01*
X344019345Y-126499958D01*
X344019345Y-126738053D01*
X344066964Y-126928529D01*
X344114583Y-127023767D01*
X344162202Y-127071386D01*
X344257440Y-127119005D01*
X344352678Y-127119005D01*
X344447916Y-127071386D01*
X344495535Y-127023767D01*
X344543154Y-126928529D01*
X344590773Y-126738053D01*
X344590773Y-126499958D01*
X344543154Y-126309482D01*
X344495535Y-126214244D01*
X344447916Y-126166625D01*
X344352678Y-126119005D01*
%TO.C,K57*%
X301251785Y-108069005D02*
X301251785Y-107069005D01*
X300680357Y-108069005D02*
X301108928Y-107497577D01*
X300680357Y-107069005D02*
X301251785Y-107640434D01*
X299775595Y-107069005D02*
X300251785Y-107069005D01*
X300299404Y-107545196D01*
X300251785Y-107497577D01*
X300156547Y-107449958D01*
X299918452Y-107449958D01*
X299823214Y-107497577D01*
X299775595Y-107545196D01*
X299727976Y-107640434D01*
X299727976Y-107878529D01*
X299775595Y-107973767D01*
X299823214Y-108021386D01*
X299918452Y-108069005D01*
X300156547Y-108069005D01*
X300251785Y-108021386D01*
X300299404Y-107973767D01*
X299394642Y-107069005D02*
X298727976Y-107069005D01*
X299156547Y-108069005D01*
%TO.C,K58*%
X327445535Y-108069005D02*
X327445535Y-107069005D01*
X326874107Y-108069005D02*
X327302678Y-107497577D01*
X326874107Y-107069005D02*
X327445535Y-107640434D01*
X325969345Y-107069005D02*
X326445535Y-107069005D01*
X326493154Y-107545196D01*
X326445535Y-107497577D01*
X326350297Y-107449958D01*
X326112202Y-107449958D01*
X326016964Y-107497577D01*
X325969345Y-107545196D01*
X325921726Y-107640434D01*
X325921726Y-107878529D01*
X325969345Y-107973767D01*
X326016964Y-108021386D01*
X326112202Y-108069005D01*
X326350297Y-108069005D01*
X326445535Y-108021386D01*
X326493154Y-107973767D01*
X325350297Y-107497577D02*
X325445535Y-107449958D01*
X325493154Y-107402339D01*
X325540773Y-107307101D01*
X325540773Y-107259482D01*
X325493154Y-107164244D01*
X325445535Y-107116625D01*
X325350297Y-107069005D01*
X325159821Y-107069005D01*
X325064583Y-107116625D01*
X325016964Y-107164244D01*
X324969345Y-107259482D01*
X324969345Y-107307101D01*
X325016964Y-107402339D01*
X325064583Y-107449958D01*
X325159821Y-107497577D01*
X325350297Y-107497577D01*
X325445535Y-107545196D01*
X325493154Y-107592815D01*
X325540773Y-107688053D01*
X325540773Y-107878529D01*
X325493154Y-107973767D01*
X325445535Y-108021386D01*
X325350297Y-108069005D01*
X325159821Y-108069005D01*
X325064583Y-108021386D01*
X325016964Y-107973767D01*
X324969345Y-107878529D01*
X324969345Y-107688053D01*
X325016964Y-107592815D01*
X325064583Y-107545196D01*
X325159821Y-107497577D01*
%TO.C,K31*%
X67889285Y-89019005D02*
X67889285Y-88019005D01*
X67317857Y-89019005D02*
X67746428Y-88447577D01*
X67317857Y-88019005D02*
X67889285Y-88590434D01*
X66984523Y-88019005D02*
X66365476Y-88019005D01*
X66698809Y-88399958D01*
X66555952Y-88399958D01*
X66460714Y-88447577D01*
X66413095Y-88495196D01*
X66365476Y-88590434D01*
X66365476Y-88828529D01*
X66413095Y-88923767D01*
X66460714Y-88971386D01*
X66555952Y-89019005D01*
X66841666Y-89019005D01*
X66936904Y-88971386D01*
X66984523Y-88923767D01*
X65413095Y-89019005D02*
X65984523Y-89019005D01*
X65698809Y-89019005D02*
X65698809Y-88019005D01*
X65794047Y-88161863D01*
X65889285Y-88257101D01*
X65984523Y-88304720D01*
%TO.C,K43a1*%
X300307107Y-89019005D02*
X300307107Y-88019005D01*
X299735678Y-89019005D02*
X300164250Y-88447577D01*
X299735678Y-88019005D02*
X300307107Y-88590434D01*
X298878535Y-88352339D02*
X298878535Y-89019005D01*
X299116630Y-87971386D02*
X299354726Y-88685672D01*
X298735678Y-88685672D01*
X298449964Y-88019005D02*
X297830916Y-88019005D01*
X298164250Y-88399958D01*
X298021392Y-88399958D01*
X297926154Y-88447577D01*
X297878535Y-88495196D01*
X297830916Y-88590434D01*
X297830916Y-88828529D01*
X297878535Y-88923767D01*
X297926154Y-88971386D01*
X298021392Y-89019005D01*
X298307107Y-89019005D01*
X298402345Y-88971386D01*
X298449964Y-88923767D01*
X296973773Y-89019005D02*
X296973773Y-88495196D01*
X297021392Y-88399958D01*
X297116630Y-88352339D01*
X297307107Y-88352339D01*
X297402345Y-88399958D01*
X296973773Y-88971386D02*
X297069011Y-89019005D01*
X297307107Y-89019005D01*
X297402345Y-88971386D01*
X297449964Y-88876148D01*
X297449964Y-88780910D01*
X297402345Y-88685672D01*
X297307107Y-88638053D01*
X297069011Y-88638053D01*
X296973773Y-88590434D01*
X295973773Y-89019005D02*
X296545202Y-89019005D01*
X296259488Y-89019005D02*
X296259488Y-88019005D01*
X296354726Y-88161863D01*
X296449964Y-88257101D01*
X296545202Y-88304720D01*
%TO.C,K7*%
X174569345Y-50919005D02*
X174569345Y-49919005D01*
X173997916Y-50919005D02*
X174426488Y-50347577D01*
X173997916Y-49919005D02*
X174569345Y-50490434D01*
X173664583Y-49919005D02*
X172997916Y-49919005D01*
X173426488Y-50919005D01*
%TO.C,K49*%
X141708035Y-108069005D02*
X141708035Y-107069005D01*
X141136607Y-108069005D02*
X141565178Y-107497577D01*
X141136607Y-107069005D02*
X141708035Y-107640434D01*
X140279464Y-107402339D02*
X140279464Y-108069005D01*
X140517559Y-107021386D02*
X140755654Y-107735672D01*
X140136607Y-107735672D01*
X139708035Y-108069005D02*
X139517559Y-108069005D01*
X139422321Y-108021386D01*
X139374702Y-107973767D01*
X139279464Y-107830910D01*
X139231845Y-107640434D01*
X139231845Y-107259482D01*
X139279464Y-107164244D01*
X139327083Y-107116625D01*
X139422321Y-107069005D01*
X139612797Y-107069005D01*
X139708035Y-107116625D01*
X139755654Y-107164244D01*
X139803273Y-107259482D01*
X139803273Y-107497577D01*
X139755654Y-107592815D01*
X139708035Y-107640434D01*
X139612797Y-107688053D01*
X139422321Y-107688053D01*
X139327083Y-107640434D01*
X139279464Y-107592815D01*
X139231845Y-107497577D01*
%TO.C,K64a1*%
X195024107Y-127119005D02*
X195024107Y-126119005D01*
X194452678Y-127119005D02*
X194881250Y-126547577D01*
X194452678Y-126119005D02*
X195024107Y-126690434D01*
X193595535Y-126119005D02*
X193786011Y-126119005D01*
X193881250Y-126166625D01*
X193928869Y-126214244D01*
X194024107Y-126357101D01*
X194071726Y-126547577D01*
X194071726Y-126928529D01*
X194024107Y-127023767D01*
X193976488Y-127071386D01*
X193881250Y-127119005D01*
X193690773Y-127119005D01*
X193595535Y-127071386D01*
X193547916Y-127023767D01*
X193500297Y-126928529D01*
X193500297Y-126690434D01*
X193547916Y-126595196D01*
X193595535Y-126547577D01*
X193690773Y-126499958D01*
X193881250Y-126499958D01*
X193976488Y-126547577D01*
X194024107Y-126595196D01*
X194071726Y-126690434D01*
X192643154Y-126452339D02*
X192643154Y-127119005D01*
X192881250Y-126071386D02*
X193119345Y-126785672D01*
X192500297Y-126785672D01*
X191690773Y-127119005D02*
X191690773Y-126595196D01*
X191738392Y-126499958D01*
X191833630Y-126452339D01*
X192024107Y-126452339D01*
X192119345Y-126499958D01*
X191690773Y-127071386D02*
X191786011Y-127119005D01*
X192024107Y-127119005D01*
X192119345Y-127071386D01*
X192166964Y-126976148D01*
X192166964Y-126880910D01*
X192119345Y-126785672D01*
X192024107Y-126738053D01*
X191786011Y-126738053D01*
X191690773Y-126690434D01*
X190690773Y-127119005D02*
X191262202Y-127119005D01*
X190976488Y-127119005D02*
X190976488Y-126119005D01*
X191071726Y-126261863D01*
X191166964Y-126357101D01*
X191262202Y-126404720D01*
%TO.C,K34*%
X132183035Y-89019005D02*
X132183035Y-88019005D01*
X131611607Y-89019005D02*
X132040178Y-88447577D01*
X131611607Y-88019005D02*
X132183035Y-88590434D01*
X131278273Y-88019005D02*
X130659226Y-88019005D01*
X130992559Y-88399958D01*
X130849702Y-88399958D01*
X130754464Y-88447577D01*
X130706845Y-88495196D01*
X130659226Y-88590434D01*
X130659226Y-88828529D01*
X130706845Y-88923767D01*
X130754464Y-88971386D01*
X130849702Y-89019005D01*
X131135416Y-89019005D01*
X131230654Y-88971386D01*
X131278273Y-88923767D01*
X129802083Y-88352339D02*
X129802083Y-89019005D01*
X130040178Y-87971386D02*
X130278273Y-88685672D01*
X129659226Y-88685672D01*
%TO.C,K9*%
X215209345Y-50919005D02*
X215209345Y-49919005D01*
X214637916Y-50919005D02*
X215066488Y-50347577D01*
X214637916Y-49919005D02*
X215209345Y-50490434D01*
X214161726Y-50919005D02*
X213971250Y-50919005D01*
X213876011Y-50871386D01*
X213828392Y-50823767D01*
X213733154Y-50680910D01*
X213685535Y-50490434D01*
X213685535Y-50109482D01*
X213733154Y-50014244D01*
X213780773Y-49966625D01*
X213876011Y-49919005D01*
X214066488Y-49919005D01*
X214161726Y-49966625D01*
X214209345Y-50014244D01*
X214256964Y-50109482D01*
X214256964Y-50347577D01*
X214209345Y-50442815D01*
X214161726Y-50490434D01*
X214066488Y-50538053D01*
X213876011Y-50538053D01*
X213780773Y-50490434D01*
X213733154Y-50442815D01*
X213685535Y-50347577D01*
%TO.C,K33*%
X113133035Y-89019005D02*
X113133035Y-88019005D01*
X112561607Y-89019005D02*
X112990178Y-88447577D01*
X112561607Y-88019005D02*
X113133035Y-88590434D01*
X112228273Y-88019005D02*
X111609226Y-88019005D01*
X111942559Y-88399958D01*
X111799702Y-88399958D01*
X111704464Y-88447577D01*
X111656845Y-88495196D01*
X111609226Y-88590434D01*
X111609226Y-88828529D01*
X111656845Y-88923767D01*
X111704464Y-88971386D01*
X111799702Y-89019005D01*
X112085416Y-89019005D01*
X112180654Y-88971386D01*
X112228273Y-88923767D01*
X111275892Y-88019005D02*
X110656845Y-88019005D01*
X110990178Y-88399958D01*
X110847321Y-88399958D01*
X110752083Y-88447577D01*
X110704464Y-88495196D01*
X110656845Y-88590434D01*
X110656845Y-88828529D01*
X110704464Y-88923767D01*
X110752083Y-88971386D01*
X110847321Y-89019005D01*
X111133035Y-89019005D01*
X111228273Y-88971386D01*
X111275892Y-88923767D01*
%TO.C,K56*%
X275058035Y-108069005D02*
X275058035Y-107069005D01*
X274486607Y-108069005D02*
X274915178Y-107497577D01*
X274486607Y-107069005D02*
X275058035Y-107640434D01*
X273581845Y-107069005D02*
X274058035Y-107069005D01*
X274105654Y-107545196D01*
X274058035Y-107497577D01*
X273962797Y-107449958D01*
X273724702Y-107449958D01*
X273629464Y-107497577D01*
X273581845Y-107545196D01*
X273534226Y-107640434D01*
X273534226Y-107878529D01*
X273581845Y-107973767D01*
X273629464Y-108021386D01*
X273724702Y-108069005D01*
X273962797Y-108069005D01*
X274058035Y-108021386D01*
X274105654Y-107973767D01*
X272677083Y-107069005D02*
X272867559Y-107069005D01*
X272962797Y-107116625D01*
X273010416Y-107164244D01*
X273105654Y-107307101D01*
X273153273Y-107497577D01*
X273153273Y-107878529D01*
X273105654Y-107973767D01*
X273058035Y-108021386D01*
X272962797Y-108069005D01*
X272772321Y-108069005D01*
X272677083Y-108021386D01*
X272629464Y-107973767D01*
X272581845Y-107878529D01*
X272581845Y-107640434D01*
X272629464Y-107545196D01*
X272677083Y-107497577D01*
X272772321Y-107449958D01*
X272962797Y-107449958D01*
X273058035Y-107497577D01*
X273105654Y-107545196D01*
X273153273Y-107640434D01*
%TO.C,K54*%
X236958035Y-108069005D02*
X236958035Y-107069005D01*
X236386607Y-108069005D02*
X236815178Y-107497577D01*
X236386607Y-107069005D02*
X236958035Y-107640434D01*
X235481845Y-107069005D02*
X235958035Y-107069005D01*
X236005654Y-107545196D01*
X235958035Y-107497577D01*
X235862797Y-107449958D01*
X235624702Y-107449958D01*
X235529464Y-107497577D01*
X235481845Y-107545196D01*
X235434226Y-107640434D01*
X235434226Y-107878529D01*
X235481845Y-107973767D01*
X235529464Y-108021386D01*
X235624702Y-108069005D01*
X235862797Y-108069005D01*
X235958035Y-108021386D01*
X236005654Y-107973767D01*
X234577083Y-107402339D02*
X234577083Y-108069005D01*
X234815178Y-107021386D02*
X235053273Y-107735672D01*
X234434226Y-107735672D01*
%TO.C,K8*%
X193619345Y-50919005D02*
X193619345Y-49919005D01*
X193047916Y-50919005D02*
X193476488Y-50347577D01*
X193047916Y-49919005D02*
X193619345Y-50490434D01*
X192476488Y-50347577D02*
X192571726Y-50299958D01*
X192619345Y-50252339D01*
X192666964Y-50157101D01*
X192666964Y-50109482D01*
X192619345Y-50014244D01*
X192571726Y-49966625D01*
X192476488Y-49919005D01*
X192286011Y-49919005D01*
X192190773Y-49966625D01*
X192143154Y-50014244D01*
X192095535Y-50109482D01*
X192095535Y-50157101D01*
X192143154Y-50252339D01*
X192190773Y-50299958D01*
X192286011Y-50347577D01*
X192476488Y-50347577D01*
X192571726Y-50395196D01*
X192619345Y-50442815D01*
X192666964Y-50538053D01*
X192666964Y-50728529D01*
X192619345Y-50823767D01*
X192571726Y-50871386D01*
X192476488Y-50919005D01*
X192286011Y-50919005D01*
X192190773Y-50871386D01*
X192143154Y-50823767D01*
X192095535Y-50728529D01*
X192095535Y-50538053D01*
X192143154Y-50442815D01*
X192190773Y-50395196D01*
X192286011Y-50347577D01*
%TO.C,K24*%
X222670535Y-69969005D02*
X222670535Y-68969005D01*
X222099107Y-69969005D02*
X222527678Y-69397577D01*
X222099107Y-68969005D02*
X222670535Y-69540434D01*
X221718154Y-69064244D02*
X221670535Y-69016625D01*
X221575297Y-68969005D01*
X221337202Y-68969005D01*
X221241964Y-69016625D01*
X221194345Y-69064244D01*
X221146726Y-69159482D01*
X221146726Y-69254720D01*
X221194345Y-69397577D01*
X221765773Y-69969005D01*
X221146726Y-69969005D01*
X220289583Y-69302339D02*
X220289583Y-69969005D01*
X220527678Y-68921386D02*
X220765773Y-69635672D01*
X220146726Y-69635672D01*
%TO.C,K40*%
X246483035Y-89019005D02*
X246483035Y-88019005D01*
X245911607Y-89019005D02*
X246340178Y-88447577D01*
X245911607Y-88019005D02*
X246483035Y-88590434D01*
X245054464Y-88352339D02*
X245054464Y-89019005D01*
X245292559Y-87971386D02*
X245530654Y-88685672D01*
X244911607Y-88685672D01*
X244340178Y-88019005D02*
X244244940Y-88019005D01*
X244149702Y-88066625D01*
X244102083Y-88114244D01*
X244054464Y-88209482D01*
X244006845Y-88399958D01*
X244006845Y-88638053D01*
X244054464Y-88828529D01*
X244102083Y-88923767D01*
X244149702Y-88971386D01*
X244244940Y-89019005D01*
X244340178Y-89019005D01*
X244435416Y-88971386D01*
X244483035Y-88923767D01*
X244530654Y-88828529D01*
X244578273Y-88638053D01*
X244578273Y-88399958D01*
X244530654Y-88209482D01*
X244483035Y-88114244D01*
X244435416Y-88066625D01*
X244340178Y-88019005D01*
%TO.C,K11*%
X251245535Y-50919005D02*
X251245535Y-49919005D01*
X250674107Y-50919005D02*
X251102678Y-50347577D01*
X250674107Y-49919005D02*
X251245535Y-50490434D01*
X249721726Y-50919005D02*
X250293154Y-50919005D01*
X250007440Y-50919005D02*
X250007440Y-49919005D01*
X250102678Y-50061863D01*
X250197916Y-50157101D01*
X250293154Y-50204720D01*
X248769345Y-50919005D02*
X249340773Y-50919005D01*
X249055059Y-50919005D02*
X249055059Y-49919005D01*
X249150297Y-50061863D01*
X249245535Y-50157101D01*
X249340773Y-50204720D01*
%TO.C,K31a1*%
X64055357Y-89019005D02*
X64055357Y-88019005D01*
X63483928Y-89019005D02*
X63912500Y-88447577D01*
X63483928Y-88019005D02*
X64055357Y-88590434D01*
X63150595Y-88019005D02*
X62531547Y-88019005D01*
X62864880Y-88399958D01*
X62722023Y-88399958D01*
X62626785Y-88447577D01*
X62579166Y-88495196D01*
X62531547Y-88590434D01*
X62531547Y-88828529D01*
X62579166Y-88923767D01*
X62626785Y-88971386D01*
X62722023Y-89019005D01*
X63007738Y-89019005D01*
X63102976Y-88971386D01*
X63150595Y-88923767D01*
X61579166Y-89019005D02*
X62150595Y-89019005D01*
X61864880Y-89019005D02*
X61864880Y-88019005D01*
X61960119Y-88161863D01*
X62055357Y-88257101D01*
X62150595Y-88304720D01*
X60722023Y-89019005D02*
X60722023Y-88495196D01*
X60769642Y-88399958D01*
X60864880Y-88352339D01*
X61055357Y-88352339D01*
X61150595Y-88399958D01*
X60722023Y-88971386D02*
X60817261Y-89019005D01*
X61055357Y-89019005D01*
X61150595Y-88971386D01*
X61198214Y-88876148D01*
X61198214Y-88780910D01*
X61150595Y-88685672D01*
X61055357Y-88638053D01*
X60817261Y-88638053D01*
X60722023Y-88590434D01*
X59722023Y-89019005D02*
X60293452Y-89019005D01*
X60007738Y-89019005D02*
X60007738Y-88019005D01*
X60102976Y-88161863D01*
X60198214Y-88257101D01*
X60293452Y-88304720D01*
%TO.C,K15*%
X326556535Y-50919005D02*
X326556535Y-49919005D01*
X325985107Y-50919005D02*
X326413678Y-50347577D01*
X325985107Y-49919005D02*
X326556535Y-50490434D01*
X325032726Y-50919005D02*
X325604154Y-50919005D01*
X325318440Y-50919005D02*
X325318440Y-49919005D01*
X325413678Y-50061863D01*
X325508916Y-50157101D01*
X325604154Y-50204720D01*
X324127964Y-49919005D02*
X324604154Y-49919005D01*
X324651773Y-50395196D01*
X324604154Y-50347577D01*
X324508916Y-50299958D01*
X324270821Y-50299958D01*
X324175583Y-50347577D01*
X324127964Y-50395196D01*
X324080345Y-50490434D01*
X324080345Y-50728529D01*
X324127964Y-50823767D01*
X324175583Y-50871386D01*
X324270821Y-50919005D01*
X324508916Y-50919005D01*
X324604154Y-50871386D01*
X324651773Y-50823767D01*
%TO.C,K52*%
X198858035Y-108069005D02*
X198858035Y-107069005D01*
X198286607Y-108069005D02*
X198715178Y-107497577D01*
X198286607Y-107069005D02*
X198858035Y-107640434D01*
X197381845Y-107069005D02*
X197858035Y-107069005D01*
X197905654Y-107545196D01*
X197858035Y-107497577D01*
X197762797Y-107449958D01*
X197524702Y-107449958D01*
X197429464Y-107497577D01*
X197381845Y-107545196D01*
X197334226Y-107640434D01*
X197334226Y-107878529D01*
X197381845Y-107973767D01*
X197429464Y-108021386D01*
X197524702Y-108069005D01*
X197762797Y-108069005D01*
X197858035Y-108021386D01*
X197905654Y-107973767D01*
X196953273Y-107164244D02*
X196905654Y-107116625D01*
X196810416Y-107069005D01*
X196572321Y-107069005D01*
X196477083Y-107116625D01*
X196429464Y-107164244D01*
X196381845Y-107259482D01*
X196381845Y-107354720D01*
X196429464Y-107497577D01*
X197000892Y-108069005D01*
X196381845Y-108069005D01*
%TO.C,K53*%
X217908035Y-108069005D02*
X217908035Y-107069005D01*
X217336607Y-108069005D02*
X217765178Y-107497577D01*
X217336607Y-107069005D02*
X217908035Y-107640434D01*
X216431845Y-107069005D02*
X216908035Y-107069005D01*
X216955654Y-107545196D01*
X216908035Y-107497577D01*
X216812797Y-107449958D01*
X216574702Y-107449958D01*
X216479464Y-107497577D01*
X216431845Y-107545196D01*
X216384226Y-107640434D01*
X216384226Y-107878529D01*
X216431845Y-107973767D01*
X216479464Y-108021386D01*
X216574702Y-108069005D01*
X216812797Y-108069005D01*
X216908035Y-108021386D01*
X216955654Y-107973767D01*
X216050892Y-107069005D02*
X215431845Y-107069005D01*
X215765178Y-107449958D01*
X215622321Y-107449958D01*
X215527083Y-107497577D01*
X215479464Y-107545196D01*
X215431845Y-107640434D01*
X215431845Y-107878529D01*
X215479464Y-107973767D01*
X215527083Y-108021386D01*
X215622321Y-108069005D01*
X215908035Y-108069005D01*
X216003273Y-108021386D01*
X216050892Y-107973767D01*
%TO.C,K10*%
X232195535Y-50919005D02*
X232195535Y-49919005D01*
X231624107Y-50919005D02*
X232052678Y-50347577D01*
X231624107Y-49919005D02*
X232195535Y-50490434D01*
X230671726Y-50919005D02*
X231243154Y-50919005D01*
X230957440Y-50919005D02*
X230957440Y-49919005D01*
X231052678Y-50061863D01*
X231147916Y-50157101D01*
X231243154Y-50204720D01*
X230052678Y-49919005D02*
X229957440Y-49919005D01*
X229862202Y-49966625D01*
X229814583Y-50014244D01*
X229766964Y-50109482D01*
X229719345Y-50299958D01*
X229719345Y-50538053D01*
X229766964Y-50728529D01*
X229814583Y-50823767D01*
X229862202Y-50871386D01*
X229957440Y-50919005D01*
X230052678Y-50919005D01*
X230147916Y-50871386D01*
X230195535Y-50823767D01*
X230243154Y-50728529D01*
X230290773Y-50538053D01*
X230290773Y-50299958D01*
X230243154Y-50109482D01*
X230195535Y-50014244D01*
X230147916Y-49966625D01*
X230052678Y-49919005D01*
%TO.C,K63*%
X133135535Y-127119005D02*
X133135535Y-126119005D01*
X132564107Y-127119005D02*
X132992678Y-126547577D01*
X132564107Y-126119005D02*
X133135535Y-126690434D01*
X131706964Y-126119005D02*
X131897440Y-126119005D01*
X131992678Y-126166625D01*
X132040297Y-126214244D01*
X132135535Y-126357101D01*
X132183154Y-126547577D01*
X132183154Y-126928529D01*
X132135535Y-127023767D01*
X132087916Y-127071386D01*
X131992678Y-127119005D01*
X131802202Y-127119005D01*
X131706964Y-127071386D01*
X131659345Y-127023767D01*
X131611726Y-126928529D01*
X131611726Y-126690434D01*
X131659345Y-126595196D01*
X131706964Y-126547577D01*
X131802202Y-126499958D01*
X131992678Y-126499958D01*
X132087916Y-126547577D01*
X132135535Y-126595196D01*
X132183154Y-126690434D01*
X131278392Y-126119005D02*
X130659345Y-126119005D01*
X130992678Y-126499958D01*
X130849821Y-126499958D01*
X130754583Y-126547577D01*
X130706964Y-126595196D01*
X130659345Y-126690434D01*
X130659345Y-126928529D01*
X130706964Y-127023767D01*
X130754583Y-127071386D01*
X130849821Y-127119005D01*
X131135535Y-127119005D01*
X131230773Y-127071386D01*
X131278392Y-127023767D01*
%TO.C,K27*%
X279820535Y-81653005D02*
X279820535Y-80653005D01*
X279249107Y-81653005D02*
X279677678Y-81081577D01*
X279249107Y-80653005D02*
X279820535Y-81224434D01*
X278868154Y-80748244D02*
X278820535Y-80700625D01*
X278725297Y-80653005D01*
X278487202Y-80653005D01*
X278391964Y-80700625D01*
X278344345Y-80748244D01*
X278296726Y-80843482D01*
X278296726Y-80938720D01*
X278344345Y-81081577D01*
X278915773Y-81653005D01*
X278296726Y-81653005D01*
X277963392Y-80653005D02*
X277296726Y-80653005D01*
X277725297Y-81653005D01*
%TO.C,K51*%
X179808035Y-108069005D02*
X179808035Y-107069005D01*
X179236607Y-108069005D02*
X179665178Y-107497577D01*
X179236607Y-107069005D02*
X179808035Y-107640434D01*
X178331845Y-107069005D02*
X178808035Y-107069005D01*
X178855654Y-107545196D01*
X178808035Y-107497577D01*
X178712797Y-107449958D01*
X178474702Y-107449958D01*
X178379464Y-107497577D01*
X178331845Y-107545196D01*
X178284226Y-107640434D01*
X178284226Y-107878529D01*
X178331845Y-107973767D01*
X178379464Y-108021386D01*
X178474702Y-108069005D01*
X178712797Y-108069005D01*
X178808035Y-108021386D01*
X178855654Y-107973767D01*
X177331845Y-108069005D02*
X177903273Y-108069005D01*
X177617559Y-108069005D02*
X177617559Y-107069005D01*
X177712797Y-107211863D01*
X177808035Y-107307101D01*
X177903273Y-107354720D01*
%TO.C,K5*%
X136469345Y-50919005D02*
X136469345Y-49919005D01*
X135897916Y-50919005D02*
X136326488Y-50347577D01*
X135897916Y-49919005D02*
X136469345Y-50490434D01*
X134993154Y-49919005D02*
X135469345Y-49919005D01*
X135516964Y-50395196D01*
X135469345Y-50347577D01*
X135374107Y-50299958D01*
X135136011Y-50299958D01*
X135040773Y-50347577D01*
X134993154Y-50395196D01*
X134945535Y-50490434D01*
X134945535Y-50728529D01*
X134993154Y-50823767D01*
X135040773Y-50871386D01*
X135136011Y-50919005D01*
X135374107Y-50919005D01*
X135469345Y-50871386D01*
X135516964Y-50823767D01*
%TO.C,K50*%
X160758035Y-108069005D02*
X160758035Y-107069005D01*
X160186607Y-108069005D02*
X160615178Y-107497577D01*
X160186607Y-107069005D02*
X160758035Y-107640434D01*
X159281845Y-107069005D02*
X159758035Y-107069005D01*
X159805654Y-107545196D01*
X159758035Y-107497577D01*
X159662797Y-107449958D01*
X159424702Y-107449958D01*
X159329464Y-107497577D01*
X159281845Y-107545196D01*
X159234226Y-107640434D01*
X159234226Y-107878529D01*
X159281845Y-107973767D01*
X159329464Y-108021386D01*
X159424702Y-108069005D01*
X159662797Y-108069005D01*
X159758035Y-108021386D01*
X159805654Y-107973767D01*
X158615178Y-107069005D02*
X158519940Y-107069005D01*
X158424702Y-107116625D01*
X158377083Y-107164244D01*
X158329464Y-107259482D01*
X158281845Y-107449958D01*
X158281845Y-107688053D01*
X158329464Y-107878529D01*
X158377083Y-107973767D01*
X158424702Y-108021386D01*
X158519940Y-108069005D01*
X158615178Y-108069005D01*
X158710416Y-108021386D01*
X158758035Y-107973767D01*
X158805654Y-107878529D01*
X158853273Y-107688053D01*
X158853273Y-107449958D01*
X158805654Y-107259482D01*
X158758035Y-107164244D01*
X158710416Y-107116625D01*
X158615178Y-107069005D01*
%TO.C,K41*%
X265533035Y-89019005D02*
X265533035Y-88019005D01*
X264961607Y-89019005D02*
X265390178Y-88447577D01*
X264961607Y-88019005D02*
X265533035Y-88590434D01*
X264104464Y-88352339D02*
X264104464Y-89019005D01*
X264342559Y-87971386D02*
X264580654Y-88685672D01*
X263961607Y-88685672D01*
X263056845Y-89019005D02*
X263628273Y-89019005D01*
X263342559Y-89019005D02*
X263342559Y-88019005D01*
X263437797Y-88161863D01*
X263533035Y-88257101D01*
X263628273Y-88304720D01*
%TO.C,K17*%
X89320535Y-69969005D02*
X89320535Y-68969005D01*
X88749107Y-69969005D02*
X89177678Y-69397577D01*
X88749107Y-68969005D02*
X89320535Y-69540434D01*
X87796726Y-69969005D02*
X88368154Y-69969005D01*
X88082440Y-69969005D02*
X88082440Y-68969005D01*
X88177678Y-69111863D01*
X88272916Y-69207101D01*
X88368154Y-69254720D01*
X87463392Y-68969005D02*
X86796726Y-68969005D01*
X87225297Y-69969005D01*
%TO.C,K38*%
X214288535Y-89019005D02*
X214288535Y-88019005D01*
X213717107Y-89019005D02*
X214145678Y-88447577D01*
X213717107Y-88019005D02*
X214288535Y-88590434D01*
X213383773Y-88019005D02*
X212764726Y-88019005D01*
X213098059Y-88399958D01*
X212955202Y-88399958D01*
X212859964Y-88447577D01*
X212812345Y-88495196D01*
X212764726Y-88590434D01*
X212764726Y-88828529D01*
X212812345Y-88923767D01*
X212859964Y-88971386D01*
X212955202Y-89019005D01*
X213240916Y-89019005D01*
X213336154Y-88971386D01*
X213383773Y-88923767D01*
X212193297Y-88447577D02*
X212288535Y-88399958D01*
X212336154Y-88352339D01*
X212383773Y-88257101D01*
X212383773Y-88209482D01*
X212336154Y-88114244D01*
X212288535Y-88066625D01*
X212193297Y-88019005D01*
X212002821Y-88019005D01*
X211907583Y-88066625D01*
X211859964Y-88114244D01*
X211812345Y-88209482D01*
X211812345Y-88257101D01*
X211859964Y-88352339D01*
X211907583Y-88399958D01*
X212002821Y-88447577D01*
X212193297Y-88447577D01*
X212288535Y-88495196D01*
X212336154Y-88542815D01*
X212383773Y-88638053D01*
X212383773Y-88828529D01*
X212336154Y-88923767D01*
X212288535Y-88971386D01*
X212193297Y-89019005D01*
X212002821Y-89019005D01*
X211907583Y-88971386D01*
X211859964Y-88923767D01*
X211812345Y-88828529D01*
X211812345Y-88638053D01*
X211859964Y-88542815D01*
X211907583Y-88495196D01*
X212002821Y-88447577D01*
%TO.C,K64*%
X167901785Y-127119005D02*
X167901785Y-126119005D01*
X167330357Y-127119005D02*
X167758928Y-126547577D01*
X167330357Y-126119005D02*
X167901785Y-126690434D01*
X166473214Y-126119005D02*
X166663690Y-126119005D01*
X166758928Y-126166625D01*
X166806547Y-126214244D01*
X166901785Y-126357101D01*
X166949404Y-126547577D01*
X166949404Y-126928529D01*
X166901785Y-127023767D01*
X166854166Y-127071386D01*
X166758928Y-127119005D01*
X166568452Y-127119005D01*
X166473214Y-127071386D01*
X166425595Y-127023767D01*
X166377976Y-126928529D01*
X166377976Y-126690434D01*
X166425595Y-126595196D01*
X166473214Y-126547577D01*
X166568452Y-126499958D01*
X166758928Y-126499958D01*
X166854166Y-126547577D01*
X166901785Y-126595196D01*
X166949404Y-126690434D01*
X165520833Y-126452339D02*
X165520833Y-127119005D01*
X165758928Y-126071386D02*
X165997023Y-126785672D01*
X165377976Y-126785672D01*
%TO.C,K19*%
X127420535Y-69969005D02*
X127420535Y-68969005D01*
X126849107Y-69969005D02*
X127277678Y-69397577D01*
X126849107Y-68969005D02*
X127420535Y-69540434D01*
X125896726Y-69969005D02*
X126468154Y-69969005D01*
X126182440Y-69969005D02*
X126182440Y-68969005D01*
X126277678Y-69111863D01*
X126372916Y-69207101D01*
X126468154Y-69254720D01*
X125420535Y-69969005D02*
X125230059Y-69969005D01*
X125134821Y-69921386D01*
X125087202Y-69873767D01*
X124991964Y-69730910D01*
X124944345Y-69540434D01*
X124944345Y-69159482D01*
X124991964Y-69064244D01*
X125039583Y-69016625D01*
X125134821Y-68969005D01*
X125325297Y-68969005D01*
X125420535Y-69016625D01*
X125468154Y-69064244D01*
X125515773Y-69159482D01*
X125515773Y-69397577D01*
X125468154Y-69492815D01*
X125420535Y-69540434D01*
X125325297Y-69588053D01*
X125134821Y-69588053D01*
X125039583Y-69540434D01*
X124991964Y-69492815D01*
X124944345Y-69397577D01*
%TO.C,K29a1*%
X333160630Y-84772767D02*
X332160630Y-84772767D01*
X333160630Y-85344196D02*
X332589202Y-84915625D01*
X332160630Y-85344196D02*
X332732059Y-84772767D01*
X332255869Y-85725148D02*
X332208250Y-85772767D01*
X332160630Y-85868005D01*
X332160630Y-86106101D01*
X332208250Y-86201339D01*
X332255869Y-86248958D01*
X332351107Y-86296577D01*
X332446345Y-86296577D01*
X332589202Y-86248958D01*
X333160630Y-85677529D01*
X333160630Y-86296577D01*
X333160630Y-86772767D02*
X333160630Y-86963244D01*
X333113011Y-87058482D01*
X333065392Y-87106101D01*
X332922535Y-87201339D01*
X332732059Y-87248958D01*
X332351107Y-87248958D01*
X332255869Y-87201339D01*
X332208250Y-87153720D01*
X332160630Y-87058482D01*
X332160630Y-86868005D01*
X332208250Y-86772767D01*
X332255869Y-86725148D01*
X332351107Y-86677529D01*
X332589202Y-86677529D01*
X332684440Y-86725148D01*
X332732059Y-86772767D01*
X332779678Y-86868005D01*
X332779678Y-87058482D01*
X332732059Y-87153720D01*
X332684440Y-87201339D01*
X332589202Y-87248958D01*
X333160630Y-88106101D02*
X332636821Y-88106101D01*
X332541583Y-88058482D01*
X332493964Y-87963244D01*
X332493964Y-87772767D01*
X332541583Y-87677529D01*
X333113011Y-88106101D02*
X333160630Y-88010863D01*
X333160630Y-87772767D01*
X333113011Y-87677529D01*
X333017773Y-87629910D01*
X332922535Y-87629910D01*
X332827297Y-87677529D01*
X332779678Y-87772767D01*
X332779678Y-88010863D01*
X332732059Y-88106101D01*
X333160630Y-89106101D02*
X333160630Y-88534672D01*
X333160630Y-88820386D02*
X332160630Y-88820386D01*
X332303488Y-88725148D01*
X332398726Y-88629910D01*
X332446345Y-88534672D01*
%TO.C,K3*%
X98369345Y-50919005D02*
X98369345Y-49919005D01*
X97797916Y-50919005D02*
X98226488Y-50347577D01*
X97797916Y-49919005D02*
X98369345Y-50490434D01*
X97464583Y-49919005D02*
X96845535Y-49919005D01*
X97178869Y-50299958D01*
X97036011Y-50299958D01*
X96940773Y-50347577D01*
X96893154Y-50395196D01*
X96845535Y-50490434D01*
X96845535Y-50728529D01*
X96893154Y-50823767D01*
X96940773Y-50871386D01*
X97036011Y-50919005D01*
X97321726Y-50919005D01*
X97416964Y-50871386D01*
X97464583Y-50823767D01*
%TO.C,K29*%
X322746535Y-69969005D02*
X322746535Y-68969005D01*
X322175107Y-69969005D02*
X322603678Y-69397577D01*
X322175107Y-68969005D02*
X322746535Y-69540434D01*
X321794154Y-69064244D02*
X321746535Y-69016625D01*
X321651297Y-68969005D01*
X321413202Y-68969005D01*
X321317964Y-69016625D01*
X321270345Y-69064244D01*
X321222726Y-69159482D01*
X321222726Y-69254720D01*
X321270345Y-69397577D01*
X321841773Y-69969005D01*
X321222726Y-69969005D01*
X320746535Y-69969005D02*
X320556059Y-69969005D01*
X320460821Y-69921386D01*
X320413202Y-69873767D01*
X320317964Y-69730910D01*
X320270345Y-69540434D01*
X320270345Y-69159482D01*
X320317964Y-69064244D01*
X320365583Y-69016625D01*
X320460821Y-68969005D01*
X320651297Y-68969005D01*
X320746535Y-69016625D01*
X320794154Y-69064244D01*
X320841773Y-69159482D01*
X320841773Y-69397577D01*
X320794154Y-69492815D01*
X320746535Y-69540434D01*
X320651297Y-69588053D01*
X320460821Y-69588053D01*
X320365583Y-69540434D01*
X320317964Y-69492815D01*
X320270345Y-69397577D01*
%TO.C,K4*%
X117419345Y-50919005D02*
X117419345Y-49919005D01*
X116847916Y-50919005D02*
X117276488Y-50347577D01*
X116847916Y-49919005D02*
X117419345Y-50490434D01*
X115990773Y-50252339D02*
X115990773Y-50919005D01*
X116228869Y-49871386D02*
X116466964Y-50585672D01*
X115847916Y-50585672D01*
%TO.C,K37*%
X183935535Y-89019005D02*
X183935535Y-88019005D01*
X183364107Y-89019005D02*
X183792678Y-88447577D01*
X183364107Y-88019005D02*
X183935535Y-88590434D01*
X183030773Y-88019005D02*
X182411726Y-88019005D01*
X182745059Y-88399958D01*
X182602202Y-88399958D01*
X182506964Y-88447577D01*
X182459345Y-88495196D01*
X182411726Y-88590434D01*
X182411726Y-88828529D01*
X182459345Y-88923767D01*
X182506964Y-88971386D01*
X182602202Y-89019005D01*
X182887916Y-89019005D01*
X182983154Y-88971386D01*
X183030773Y-88923767D01*
X182078392Y-88019005D02*
X181411726Y-88019005D01*
X181840297Y-89019005D01*
%TO.C,K23*%
X203620535Y-69969005D02*
X203620535Y-68969005D01*
X203049107Y-69969005D02*
X203477678Y-69397577D01*
X203049107Y-68969005D02*
X203620535Y-69540434D01*
X202668154Y-69064244D02*
X202620535Y-69016625D01*
X202525297Y-68969005D01*
X202287202Y-68969005D01*
X202191964Y-69016625D01*
X202144345Y-69064244D01*
X202096726Y-69159482D01*
X202096726Y-69254720D01*
X202144345Y-69397577D01*
X202715773Y-69969005D01*
X202096726Y-69969005D01*
X201763392Y-68969005D02*
X201144345Y-68969005D01*
X201477678Y-69349958D01*
X201334821Y-69349958D01*
X201239583Y-69397577D01*
X201191964Y-69445196D01*
X201144345Y-69540434D01*
X201144345Y-69778529D01*
X201191964Y-69873767D01*
X201239583Y-69921386D01*
X201334821Y-69969005D01*
X201620535Y-69969005D01*
X201715773Y-69921386D01*
X201763392Y-69873767D01*
%TO.C,K32*%
X94083035Y-89019005D02*
X94083035Y-88019005D01*
X93511607Y-89019005D02*
X93940178Y-88447577D01*
X93511607Y-88019005D02*
X94083035Y-88590434D01*
X93178273Y-88019005D02*
X92559226Y-88019005D01*
X92892559Y-88399958D01*
X92749702Y-88399958D01*
X92654464Y-88447577D01*
X92606845Y-88495196D01*
X92559226Y-88590434D01*
X92559226Y-88828529D01*
X92606845Y-88923767D01*
X92654464Y-88971386D01*
X92749702Y-89019005D01*
X93035416Y-89019005D01*
X93130654Y-88971386D01*
X93178273Y-88923767D01*
X92178273Y-88114244D02*
X92130654Y-88066625D01*
X92035416Y-88019005D01*
X91797321Y-88019005D01*
X91702083Y-88066625D01*
X91654464Y-88114244D01*
X91606845Y-88209482D01*
X91606845Y-88304720D01*
X91654464Y-88447577D01*
X92225892Y-89019005D01*
X91606845Y-89019005D01*
%TO.C,K26*%
X260770535Y-81653005D02*
X260770535Y-80653005D01*
X260199107Y-81653005D02*
X260627678Y-81081577D01*
X260199107Y-80653005D02*
X260770535Y-81224434D01*
X259818154Y-80748244D02*
X259770535Y-80700625D01*
X259675297Y-80653005D01*
X259437202Y-80653005D01*
X259341964Y-80700625D01*
X259294345Y-80748244D01*
X259246726Y-80843482D01*
X259246726Y-80938720D01*
X259294345Y-81081577D01*
X259865773Y-81653005D01*
X259246726Y-81653005D01*
X258389583Y-80653005D02*
X258580059Y-80653005D01*
X258675297Y-80700625D01*
X258722916Y-80748244D01*
X258818154Y-80891101D01*
X258865773Y-81081577D01*
X258865773Y-81462529D01*
X258818154Y-81557767D01*
X258770535Y-81605386D01*
X258675297Y-81653005D01*
X258484821Y-81653005D01*
X258389583Y-81605386D01*
X258341964Y-81557767D01*
X258294345Y-81462529D01*
X258294345Y-81224434D01*
X258341964Y-81129196D01*
X258389583Y-81081577D01*
X258484821Y-81033958D01*
X258675297Y-81033958D01*
X258770535Y-81081577D01*
X258818154Y-81129196D01*
X258865773Y-81224434D01*
%TO.C,K18*%
X108370535Y-69969005D02*
X108370535Y-68969005D01*
X107799107Y-69969005D02*
X108227678Y-69397577D01*
X107799107Y-68969005D02*
X108370535Y-69540434D01*
X106846726Y-69969005D02*
X107418154Y-69969005D01*
X107132440Y-69969005D02*
X107132440Y-68969005D01*
X107227678Y-69111863D01*
X107322916Y-69207101D01*
X107418154Y-69254720D01*
X106275297Y-69397577D02*
X106370535Y-69349958D01*
X106418154Y-69302339D01*
X106465773Y-69207101D01*
X106465773Y-69159482D01*
X106418154Y-69064244D01*
X106370535Y-69016625D01*
X106275297Y-68969005D01*
X106084821Y-68969005D01*
X105989583Y-69016625D01*
X105941964Y-69064244D01*
X105894345Y-69159482D01*
X105894345Y-69207101D01*
X105941964Y-69302339D01*
X105989583Y-69349958D01*
X106084821Y-69397577D01*
X106275297Y-69397577D01*
X106370535Y-69445196D01*
X106418154Y-69492815D01*
X106465773Y-69588053D01*
X106465773Y-69778529D01*
X106418154Y-69873767D01*
X106370535Y-69921386D01*
X106275297Y-69969005D01*
X106084821Y-69969005D01*
X105989583Y-69921386D01*
X105941964Y-69873767D01*
X105894345Y-69778529D01*
X105894345Y-69588053D01*
X105941964Y-69492815D01*
X105989583Y-69445196D01*
X106084821Y-69397577D01*
%TO.C,K22*%
X184570535Y-69969005D02*
X184570535Y-68969005D01*
X183999107Y-69969005D02*
X184427678Y-69397577D01*
X183999107Y-68969005D02*
X184570535Y-69540434D01*
X183618154Y-69064244D02*
X183570535Y-69016625D01*
X183475297Y-68969005D01*
X183237202Y-68969005D01*
X183141964Y-69016625D01*
X183094345Y-69064244D01*
X183046726Y-69159482D01*
X183046726Y-69254720D01*
X183094345Y-69397577D01*
X183665773Y-69969005D01*
X183046726Y-69969005D01*
X182665773Y-69064244D02*
X182618154Y-69016625D01*
X182522916Y-68969005D01*
X182284821Y-68969005D01*
X182189583Y-69016625D01*
X182141964Y-69064244D01*
X182094345Y-69159482D01*
X182094345Y-69254720D01*
X182141964Y-69397577D01*
X182713392Y-69969005D01*
X182094345Y-69969005D01*
%TO.C,K6*%
X155519345Y-50919005D02*
X155519345Y-49919005D01*
X154947916Y-50919005D02*
X155376488Y-50347577D01*
X154947916Y-49919005D02*
X155519345Y-50490434D01*
X154090773Y-49919005D02*
X154281250Y-49919005D01*
X154376488Y-49966625D01*
X154424107Y-50014244D01*
X154519345Y-50157101D01*
X154566964Y-50347577D01*
X154566964Y-50728529D01*
X154519345Y-50823767D01*
X154471726Y-50871386D01*
X154376488Y-50919005D01*
X154186011Y-50919005D01*
X154090773Y-50871386D01*
X154043154Y-50823767D01*
X153995535Y-50728529D01*
X153995535Y-50490434D01*
X154043154Y-50395196D01*
X154090773Y-50347577D01*
X154186011Y-50299958D01*
X154376488Y-50299958D01*
X154471726Y-50347577D01*
X154519345Y-50395196D01*
X154566964Y-50490434D01*
%TO.C,K42*%
X284583035Y-89019005D02*
X284583035Y-88019005D01*
X284011607Y-89019005D02*
X284440178Y-88447577D01*
X284011607Y-88019005D02*
X284583035Y-88590434D01*
X283154464Y-88352339D02*
X283154464Y-89019005D01*
X283392559Y-87971386D02*
X283630654Y-88685672D01*
X283011607Y-88685672D01*
X282678273Y-88114244D02*
X282630654Y-88066625D01*
X282535416Y-88019005D01*
X282297321Y-88019005D01*
X282202083Y-88066625D01*
X282154464Y-88114244D01*
X282106845Y-88209482D01*
X282106845Y-88304720D01*
X282154464Y-88447577D01*
X282725892Y-89019005D01*
X282106845Y-89019005D01*
%TO.C,K65*%
X215526785Y-127119005D02*
X215526785Y-126119005D01*
X214955357Y-127119005D02*
X215383928Y-126547577D01*
X214955357Y-126119005D02*
X215526785Y-126690434D01*
X214098214Y-126119005D02*
X214288690Y-126119005D01*
X214383928Y-126166625D01*
X214431547Y-126214244D01*
X214526785Y-126357101D01*
X214574404Y-126547577D01*
X214574404Y-126928529D01*
X214526785Y-127023767D01*
X214479166Y-127071386D01*
X214383928Y-127119005D01*
X214193452Y-127119005D01*
X214098214Y-127071386D01*
X214050595Y-127023767D01*
X214002976Y-126928529D01*
X214002976Y-126690434D01*
X214050595Y-126595196D01*
X214098214Y-126547577D01*
X214193452Y-126499958D01*
X214383928Y-126499958D01*
X214479166Y-126547577D01*
X214526785Y-126595196D01*
X214574404Y-126690434D01*
X213098214Y-126119005D02*
X213574404Y-126119005D01*
X213622023Y-126595196D01*
X213574404Y-126547577D01*
X213479166Y-126499958D01*
X213241071Y-126499958D01*
X213145833Y-126547577D01*
X213098214Y-126595196D01*
X213050595Y-126690434D01*
X213050595Y-126928529D01*
X213098214Y-127023767D01*
X213145833Y-127071386D01*
X213241071Y-127119005D01*
X213479166Y-127119005D01*
X213574404Y-127071386D01*
X213622023Y-127023767D01*
%TO.C,K30*%
X346495535Y-69969005D02*
X346495535Y-68969005D01*
X345924107Y-69969005D02*
X346352678Y-69397577D01*
X345924107Y-68969005D02*
X346495535Y-69540434D01*
X345590773Y-68969005D02*
X344971726Y-68969005D01*
X345305059Y-69349958D01*
X345162202Y-69349958D01*
X345066964Y-69397577D01*
X345019345Y-69445196D01*
X344971726Y-69540434D01*
X344971726Y-69778529D01*
X345019345Y-69873767D01*
X345066964Y-69921386D01*
X345162202Y-69969005D01*
X345447916Y-69969005D01*
X345543154Y-69921386D01*
X345590773Y-69873767D01*
X344352678Y-68969005D02*
X344257440Y-68969005D01*
X344162202Y-69016625D01*
X344114583Y-69064244D01*
X344066964Y-69159482D01*
X344019345Y-69349958D01*
X344019345Y-69588053D01*
X344066964Y-69778529D01*
X344114583Y-69873767D01*
X344162202Y-69921386D01*
X344257440Y-69969005D01*
X344352678Y-69969005D01*
X344447916Y-69921386D01*
X344495535Y-69873767D01*
X344543154Y-69778529D01*
X344590773Y-69588053D01*
X344590773Y-69349958D01*
X344543154Y-69159482D01*
X344495535Y-69064244D01*
X344447916Y-69016625D01*
X344352678Y-68969005D01*
%TO.C,K12*%
X270295535Y-50919005D02*
X270295535Y-49919005D01*
X269724107Y-50919005D02*
X270152678Y-50347577D01*
X269724107Y-49919005D02*
X270295535Y-50490434D01*
X268771726Y-50919005D02*
X269343154Y-50919005D01*
X269057440Y-50919005D02*
X269057440Y-49919005D01*
X269152678Y-50061863D01*
X269247916Y-50157101D01*
X269343154Y-50204720D01*
X268390773Y-50014244D02*
X268343154Y-49966625D01*
X268247916Y-49919005D01*
X268009821Y-49919005D01*
X267914583Y-49966625D01*
X267866964Y-50014244D01*
X267819345Y-50109482D01*
X267819345Y-50204720D01*
X267866964Y-50347577D01*
X268438392Y-50919005D01*
X267819345Y-50919005D01*
%TO.C,K20*%
X146470535Y-69969005D02*
X146470535Y-68969005D01*
X145899107Y-69969005D02*
X146327678Y-69397577D01*
X145899107Y-68969005D02*
X146470535Y-69540434D01*
X145518154Y-69064244D02*
X145470535Y-69016625D01*
X145375297Y-68969005D01*
X145137202Y-68969005D01*
X145041964Y-69016625D01*
X144994345Y-69064244D01*
X144946726Y-69159482D01*
X144946726Y-69254720D01*
X144994345Y-69397577D01*
X145565773Y-69969005D01*
X144946726Y-69969005D01*
X144327678Y-68969005D02*
X144232440Y-68969005D01*
X144137202Y-69016625D01*
X144089583Y-69064244D01*
X144041964Y-69159482D01*
X143994345Y-69349958D01*
X143994345Y-69588053D01*
X144041964Y-69778529D01*
X144089583Y-69873767D01*
X144137202Y-69921386D01*
X144232440Y-69969005D01*
X144327678Y-69969005D01*
X144422916Y-69921386D01*
X144470535Y-69873767D01*
X144518154Y-69778529D01*
X144565773Y-69588053D01*
X144565773Y-69349958D01*
X144518154Y-69159482D01*
X144470535Y-69064244D01*
X144422916Y-69016625D01*
X144327678Y-68969005D01*
%TO.C,K48*%
X122658035Y-108069005D02*
X122658035Y-107069005D01*
X122086607Y-108069005D02*
X122515178Y-107497577D01*
X122086607Y-107069005D02*
X122658035Y-107640434D01*
X121229464Y-107402339D02*
X121229464Y-108069005D01*
X121467559Y-107021386D02*
X121705654Y-107735672D01*
X121086607Y-107735672D01*
X120562797Y-107497577D02*
X120658035Y-107449958D01*
X120705654Y-107402339D01*
X120753273Y-107307101D01*
X120753273Y-107259482D01*
X120705654Y-107164244D01*
X120658035Y-107116625D01*
X120562797Y-107069005D01*
X120372321Y-107069005D01*
X120277083Y-107116625D01*
X120229464Y-107164244D01*
X120181845Y-107259482D01*
X120181845Y-107307101D01*
X120229464Y-107402339D01*
X120277083Y-107449958D01*
X120372321Y-107497577D01*
X120562797Y-107497577D01*
X120658035Y-107545196D01*
X120705654Y-107592815D01*
X120753273Y-107688053D01*
X120753273Y-107878529D01*
X120705654Y-107973767D01*
X120658035Y-108021386D01*
X120562797Y-108069005D01*
X120372321Y-108069005D01*
X120277083Y-108021386D01*
X120229464Y-107973767D01*
X120181845Y-107878529D01*
X120181845Y-107688053D01*
X120229464Y-107592815D01*
X120277083Y-107545196D01*
X120372321Y-107497577D01*
%TO.C,K69*%
X327445535Y-127119005D02*
X327445535Y-126119005D01*
X326874107Y-127119005D02*
X327302678Y-126547577D01*
X326874107Y-126119005D02*
X327445535Y-126690434D01*
X326016964Y-126119005D02*
X326207440Y-126119005D01*
X326302678Y-126166625D01*
X326350297Y-126214244D01*
X326445535Y-126357101D01*
X326493154Y-126547577D01*
X326493154Y-126928529D01*
X326445535Y-127023767D01*
X326397916Y-127071386D01*
X326302678Y-127119005D01*
X326112202Y-127119005D01*
X326016964Y-127071386D01*
X325969345Y-127023767D01*
X325921726Y-126928529D01*
X325921726Y-126690434D01*
X325969345Y-126595196D01*
X326016964Y-126547577D01*
X326112202Y-126499958D01*
X326302678Y-126499958D01*
X326397916Y-126547577D01*
X326445535Y-126595196D01*
X326493154Y-126690434D01*
X325445535Y-127119005D02*
X325255059Y-127119005D01*
X325159821Y-127071386D01*
X325112202Y-127023767D01*
X325016964Y-126880910D01*
X324969345Y-126690434D01*
X324969345Y-126309482D01*
X325016964Y-126214244D01*
X325064583Y-126166625D01*
X325159821Y-126119005D01*
X325350297Y-126119005D01*
X325445535Y-126166625D01*
X325493154Y-126214244D01*
X325540773Y-126309482D01*
X325540773Y-126547577D01*
X325493154Y-126642815D01*
X325445535Y-126690434D01*
X325350297Y-126738053D01*
X325159821Y-126738053D01*
X325064583Y-126690434D01*
X325016964Y-126642815D01*
X324969345Y-126547577D01*
%TO.C,K45*%
X63126785Y-108069005D02*
X63126785Y-107069005D01*
X62555357Y-108069005D02*
X62983928Y-107497577D01*
X62555357Y-107069005D02*
X63126785Y-107640434D01*
X61698214Y-107402339D02*
X61698214Y-108069005D01*
X61936309Y-107021386D02*
X62174404Y-107735672D01*
X61555357Y-107735672D01*
X60698214Y-107069005D02*
X61174404Y-107069005D01*
X61222023Y-107545196D01*
X61174404Y-107497577D01*
X61079166Y-107449958D01*
X60841071Y-107449958D01*
X60745833Y-107497577D01*
X60698214Y-107545196D01*
X60650595Y-107640434D01*
X60650595Y-107878529D01*
X60698214Y-107973767D01*
X60745833Y-108021386D01*
X60841071Y-108069005D01*
X61079166Y-108069005D01*
X61174404Y-108021386D01*
X61222023Y-107973767D01*
%TO.C,K13*%
X289345535Y-50919005D02*
X289345535Y-49919005D01*
X288774107Y-50919005D02*
X289202678Y-50347577D01*
X288774107Y-49919005D02*
X289345535Y-50490434D01*
X287821726Y-50919005D02*
X288393154Y-50919005D01*
X288107440Y-50919005D02*
X288107440Y-49919005D01*
X288202678Y-50061863D01*
X288297916Y-50157101D01*
X288393154Y-50204720D01*
X287488392Y-49919005D02*
X286869345Y-49919005D01*
X287202678Y-50299958D01*
X287059821Y-50299958D01*
X286964583Y-50347577D01*
X286916964Y-50395196D01*
X286869345Y-50490434D01*
X286869345Y-50728529D01*
X286916964Y-50823767D01*
X286964583Y-50871386D01*
X287059821Y-50919005D01*
X287345535Y-50919005D01*
X287440773Y-50871386D01*
X287488392Y-50823767D01*
%TO.C,K61*%
X89320535Y-127119005D02*
X89320535Y-126119005D01*
X88749107Y-127119005D02*
X89177678Y-126547577D01*
X88749107Y-126119005D02*
X89320535Y-126690434D01*
X87891964Y-126119005D02*
X88082440Y-126119005D01*
X88177678Y-126166625D01*
X88225297Y-126214244D01*
X88320535Y-126357101D01*
X88368154Y-126547577D01*
X88368154Y-126928529D01*
X88320535Y-127023767D01*
X88272916Y-127071386D01*
X88177678Y-127119005D01*
X87987202Y-127119005D01*
X87891964Y-127071386D01*
X87844345Y-127023767D01*
X87796726Y-126928529D01*
X87796726Y-126690434D01*
X87844345Y-126595196D01*
X87891964Y-126547577D01*
X87987202Y-126499958D01*
X88177678Y-126499958D01*
X88272916Y-126547577D01*
X88320535Y-126595196D01*
X88368154Y-126690434D01*
X86844345Y-127119005D02*
X87415773Y-127119005D01*
X87130059Y-127119005D02*
X87130059Y-126119005D01*
X87225297Y-126261863D01*
X87320535Y-126357101D01*
X87415773Y-126404720D01*
%TO.C,K43*%
X315539285Y-89019005D02*
X315539285Y-88019005D01*
X314967857Y-89019005D02*
X315396428Y-88447577D01*
X314967857Y-88019005D02*
X315539285Y-88590434D01*
X314110714Y-88352339D02*
X314110714Y-89019005D01*
X314348809Y-87971386D02*
X314586904Y-88685672D01*
X313967857Y-88685672D01*
X313682142Y-88019005D02*
X313063095Y-88019005D01*
X313396428Y-88399958D01*
X313253571Y-88399958D01*
X313158333Y-88447577D01*
X313110714Y-88495196D01*
X313063095Y-88590434D01*
X313063095Y-88828529D01*
X313110714Y-88923767D01*
X313158333Y-88971386D01*
X313253571Y-89019005D01*
X313539285Y-89019005D01*
X313634523Y-88971386D01*
X313682142Y-88923767D01*
%TO.C,K47*%
X103608035Y-108069005D02*
X103608035Y-107069005D01*
X103036607Y-108069005D02*
X103465178Y-107497577D01*
X103036607Y-107069005D02*
X103608035Y-107640434D01*
X102179464Y-107402339D02*
X102179464Y-108069005D01*
X102417559Y-107021386D02*
X102655654Y-107735672D01*
X102036607Y-107735672D01*
X101750892Y-107069005D02*
X101084226Y-107069005D01*
X101512797Y-108069005D01*
%TO.C,K28*%
X298870535Y-81653005D02*
X298870535Y-80653005D01*
X298299107Y-81653005D02*
X298727678Y-81081577D01*
X298299107Y-80653005D02*
X298870535Y-81224434D01*
X297918154Y-80748244D02*
X297870535Y-80700625D01*
X297775297Y-80653005D01*
X297537202Y-80653005D01*
X297441964Y-80700625D01*
X297394345Y-80748244D01*
X297346726Y-80843482D01*
X297346726Y-80938720D01*
X297394345Y-81081577D01*
X297965773Y-81653005D01*
X297346726Y-81653005D01*
X296775297Y-81081577D02*
X296870535Y-81033958D01*
X296918154Y-80986339D01*
X296965773Y-80891101D01*
X296965773Y-80843482D01*
X296918154Y-80748244D01*
X296870535Y-80700625D01*
X296775297Y-80653005D01*
X296584821Y-80653005D01*
X296489583Y-80700625D01*
X296441964Y-80748244D01*
X296394345Y-80843482D01*
X296394345Y-80891101D01*
X296441964Y-80986339D01*
X296489583Y-81033958D01*
X296584821Y-81081577D01*
X296775297Y-81081577D01*
X296870535Y-81129196D01*
X296918154Y-81176815D01*
X296965773Y-81272053D01*
X296965773Y-81462529D01*
X296918154Y-81557767D01*
X296870535Y-81605386D01*
X296775297Y-81653005D01*
X296584821Y-81653005D01*
X296489583Y-81605386D01*
X296441964Y-81557767D01*
X296394345Y-81462529D01*
X296394345Y-81272053D01*
X296441964Y-81176815D01*
X296489583Y-81129196D01*
X296584821Y-81081577D01*
%TO.C,K36*%
X170283035Y-89019005D02*
X170283035Y-88019005D01*
X169711607Y-89019005D02*
X170140178Y-88447577D01*
X169711607Y-88019005D02*
X170283035Y-88590434D01*
X169378273Y-88019005D02*
X168759226Y-88019005D01*
X169092559Y-88399958D01*
X168949702Y-88399958D01*
X168854464Y-88447577D01*
X168806845Y-88495196D01*
X168759226Y-88590434D01*
X168759226Y-88828529D01*
X168806845Y-88923767D01*
X168854464Y-88971386D01*
X168949702Y-89019005D01*
X169235416Y-89019005D01*
X169330654Y-88971386D01*
X169378273Y-88923767D01*
X167902083Y-88019005D02*
X168092559Y-88019005D01*
X168187797Y-88066625D01*
X168235416Y-88114244D01*
X168330654Y-88257101D01*
X168378273Y-88447577D01*
X168378273Y-88828529D01*
X168330654Y-88923767D01*
X168283035Y-88971386D01*
X168187797Y-89019005D01*
X167997321Y-89019005D01*
X167902083Y-88971386D01*
X167854464Y-88923767D01*
X167806845Y-88828529D01*
X167806845Y-88590434D01*
X167854464Y-88495196D01*
X167902083Y-88447577D01*
X167997321Y-88399958D01*
X168187797Y-88399958D01*
X168283035Y-88447577D01*
X168330654Y-88495196D01*
X168378273Y-88590434D01*
%TO.C,K39*%
X227433035Y-89019005D02*
X227433035Y-88019005D01*
X226861607Y-89019005D02*
X227290178Y-88447577D01*
X226861607Y-88019005D02*
X227433035Y-88590434D01*
X226528273Y-88019005D02*
X225909226Y-88019005D01*
X226242559Y-88399958D01*
X226099702Y-88399958D01*
X226004464Y-88447577D01*
X225956845Y-88495196D01*
X225909226Y-88590434D01*
X225909226Y-88828529D01*
X225956845Y-88923767D01*
X226004464Y-88971386D01*
X226099702Y-89019005D01*
X226385416Y-89019005D01*
X226480654Y-88971386D01*
X226528273Y-88923767D01*
X225433035Y-89019005D02*
X225242559Y-89019005D01*
X225147321Y-88971386D01*
X225099702Y-88923767D01*
X225004464Y-88780910D01*
X224956845Y-88590434D01*
X224956845Y-88209482D01*
X225004464Y-88114244D01*
X225052083Y-88066625D01*
X225147321Y-88019005D01*
X225337797Y-88019005D01*
X225433035Y-88066625D01*
X225480654Y-88114244D01*
X225528273Y-88209482D01*
X225528273Y-88447577D01*
X225480654Y-88542815D01*
X225433035Y-88590434D01*
X225337797Y-88638053D01*
X225147321Y-88638053D01*
X225052083Y-88590434D01*
X225004464Y-88542815D01*
X224956845Y-88447577D01*
%TO.C,K62*%
X113133035Y-127119005D02*
X113133035Y-126119005D01*
X112561607Y-127119005D02*
X112990178Y-126547577D01*
X112561607Y-126119005D02*
X113133035Y-126690434D01*
X111704464Y-126119005D02*
X111894940Y-126119005D01*
X111990178Y-126166625D01*
X112037797Y-126214244D01*
X112133035Y-126357101D01*
X112180654Y-126547577D01*
X112180654Y-126928529D01*
X112133035Y-127023767D01*
X112085416Y-127071386D01*
X111990178Y-127119005D01*
X111799702Y-127119005D01*
X111704464Y-127071386D01*
X111656845Y-127023767D01*
X111609226Y-126928529D01*
X111609226Y-126690434D01*
X111656845Y-126595196D01*
X111704464Y-126547577D01*
X111799702Y-126499958D01*
X111990178Y-126499958D01*
X112085416Y-126547577D01*
X112133035Y-126595196D01*
X112180654Y-126690434D01*
X111228273Y-126214244D02*
X111180654Y-126166625D01*
X111085416Y-126119005D01*
X110847321Y-126119005D01*
X110752083Y-126166625D01*
X110704464Y-126214244D01*
X110656845Y-126309482D01*
X110656845Y-126404720D01*
X110704464Y-126547577D01*
X111275892Y-127119005D01*
X110656845Y-127119005D01*
%TO.C,K59*%
X346495535Y-108069005D02*
X346495535Y-107069005D01*
X345924107Y-108069005D02*
X346352678Y-107497577D01*
X345924107Y-107069005D02*
X346495535Y-107640434D01*
X345019345Y-107069005D02*
X345495535Y-107069005D01*
X345543154Y-107545196D01*
X345495535Y-107497577D01*
X345400297Y-107449958D01*
X345162202Y-107449958D01*
X345066964Y-107497577D01*
X345019345Y-107545196D01*
X344971726Y-107640434D01*
X344971726Y-107878529D01*
X345019345Y-107973767D01*
X345066964Y-108021386D01*
X345162202Y-108069005D01*
X345400297Y-108069005D01*
X345495535Y-108021386D01*
X345543154Y-107973767D01*
X344495535Y-108069005D02*
X344305059Y-108069005D01*
X344209821Y-108021386D01*
X344162202Y-107973767D01*
X344066964Y-107830910D01*
X344019345Y-107640434D01*
X344019345Y-107259482D01*
X344066964Y-107164244D01*
X344114583Y-107116625D01*
X344209821Y-107069005D01*
X344400297Y-107069005D01*
X344495535Y-107116625D01*
X344543154Y-107164244D01*
X344590773Y-107259482D01*
X344590773Y-107497577D01*
X344543154Y-107592815D01*
X344495535Y-107640434D01*
X344400297Y-107688053D01*
X344209821Y-107688053D01*
X344114583Y-107640434D01*
X344066964Y-107592815D01*
X344019345Y-107497577D01*
%TO.C,K60*%
X65508035Y-127119005D02*
X65508035Y-126119005D01*
X64936607Y-127119005D02*
X65365178Y-126547577D01*
X64936607Y-126119005D02*
X65508035Y-126690434D01*
X64079464Y-126119005D02*
X64269940Y-126119005D01*
X64365178Y-126166625D01*
X64412797Y-126214244D01*
X64508035Y-126357101D01*
X64555654Y-126547577D01*
X64555654Y-126928529D01*
X64508035Y-127023767D01*
X64460416Y-127071386D01*
X64365178Y-127119005D01*
X64174702Y-127119005D01*
X64079464Y-127071386D01*
X64031845Y-127023767D01*
X63984226Y-126928529D01*
X63984226Y-126690434D01*
X64031845Y-126595196D01*
X64079464Y-126547577D01*
X64174702Y-126499958D01*
X64365178Y-126499958D01*
X64460416Y-126547577D01*
X64508035Y-126595196D01*
X64555654Y-126690434D01*
X63365178Y-126119005D02*
X63269940Y-126119005D01*
X63174702Y-126166625D01*
X63127083Y-126214244D01*
X63079464Y-126309482D01*
X63031845Y-126499958D01*
X63031845Y-126738053D01*
X63079464Y-126928529D01*
X63127083Y-127023767D01*
X63174702Y-127071386D01*
X63269940Y-127119005D01*
X63365178Y-127119005D01*
X63460416Y-127071386D01*
X63508035Y-127023767D01*
X63555654Y-126928529D01*
X63603273Y-126738053D01*
X63603273Y-126499958D01*
X63555654Y-126309482D01*
X63508035Y-126214244D01*
X63460416Y-126166625D01*
X63365178Y-126119005D01*
%TO.C,K67*%
X275058035Y-127119005D02*
X275058035Y-126119005D01*
X274486607Y-127119005D02*
X274915178Y-126547577D01*
X274486607Y-126119005D02*
X275058035Y-126690434D01*
X273629464Y-126119005D02*
X273819940Y-126119005D01*
X273915178Y-126166625D01*
X273962797Y-126214244D01*
X274058035Y-126357101D01*
X274105654Y-126547577D01*
X274105654Y-126928529D01*
X274058035Y-127023767D01*
X274010416Y-127071386D01*
X273915178Y-127119005D01*
X273724702Y-127119005D01*
X273629464Y-127071386D01*
X273581845Y-127023767D01*
X273534226Y-126928529D01*
X273534226Y-126690434D01*
X273581845Y-126595196D01*
X273629464Y-126547577D01*
X273724702Y-126499958D01*
X273915178Y-126499958D01*
X274010416Y-126547577D01*
X274058035Y-126595196D01*
X274105654Y-126690434D01*
X273200892Y-126119005D02*
X272534226Y-126119005D01*
X272962797Y-127119005D01*
%TO.C,K44*%
X346495535Y-89019005D02*
X346495535Y-88019005D01*
X345924107Y-89019005D02*
X346352678Y-88447577D01*
X345924107Y-88019005D02*
X346495535Y-88590434D01*
X345066964Y-88352339D02*
X345066964Y-89019005D01*
X345305059Y-87971386D02*
X345543154Y-88685672D01*
X344924107Y-88685672D01*
X344114583Y-88352339D02*
X344114583Y-89019005D01*
X344352678Y-87971386D02*
X344590773Y-88685672D01*
X343971726Y-88685672D01*
%TO.C,K1*%
X60269345Y-50919005D02*
X60269345Y-49919005D01*
X59697916Y-50919005D02*
X60126488Y-50347577D01*
X59697916Y-49919005D02*
X60269345Y-50490434D01*
X58745535Y-50919005D02*
X59316964Y-50919005D01*
X59031250Y-50919005D02*
X59031250Y-49919005D01*
X59126488Y-50061863D01*
X59221726Y-50157101D01*
X59316964Y-50204720D01*
%TO.C,K46*%
X84558035Y-108069005D02*
X84558035Y-107069005D01*
X83986607Y-108069005D02*
X84415178Y-107497577D01*
X83986607Y-107069005D02*
X84558035Y-107640434D01*
X83129464Y-107402339D02*
X83129464Y-108069005D01*
X83367559Y-107021386D02*
X83605654Y-107735672D01*
X82986607Y-107735672D01*
X82177083Y-107069005D02*
X82367559Y-107069005D01*
X82462797Y-107116625D01*
X82510416Y-107164244D01*
X82605654Y-107307101D01*
X82653273Y-107497577D01*
X82653273Y-107878529D01*
X82605654Y-107973767D01*
X82558035Y-108021386D01*
X82462797Y-108069005D01*
X82272321Y-108069005D01*
X82177083Y-108021386D01*
X82129464Y-107973767D01*
X82081845Y-107878529D01*
X82081845Y-107640434D01*
X82129464Y-107545196D01*
X82177083Y-107497577D01*
X82272321Y-107449958D01*
X82462797Y-107449958D01*
X82558035Y-107497577D01*
X82605654Y-107545196D01*
X82653273Y-107640434D01*
%TO.C,K55*%
X256008035Y-108069005D02*
X256008035Y-107069005D01*
X255436607Y-108069005D02*
X255865178Y-107497577D01*
X255436607Y-107069005D02*
X256008035Y-107640434D01*
X254531845Y-107069005D02*
X255008035Y-107069005D01*
X255055654Y-107545196D01*
X255008035Y-107497577D01*
X254912797Y-107449958D01*
X254674702Y-107449958D01*
X254579464Y-107497577D01*
X254531845Y-107545196D01*
X254484226Y-107640434D01*
X254484226Y-107878529D01*
X254531845Y-107973767D01*
X254579464Y-108021386D01*
X254674702Y-108069005D01*
X254912797Y-108069005D01*
X255008035Y-108021386D01*
X255055654Y-107973767D01*
X253579464Y-107069005D02*
X254055654Y-107069005D01*
X254103273Y-107545196D01*
X254055654Y-107497577D01*
X253960416Y-107449958D01*
X253722321Y-107449958D01*
X253627083Y-107497577D01*
X253579464Y-107545196D01*
X253531845Y-107640434D01*
X253531845Y-107878529D01*
X253579464Y-107973767D01*
X253627083Y-108021386D01*
X253722321Y-108069005D01*
X253960416Y-108069005D01*
X254055654Y-108021386D01*
X254103273Y-107973767D01*
%TO.C,K21*%
X165520535Y-69969005D02*
X165520535Y-68969005D01*
X164949107Y-69969005D02*
X165377678Y-69397577D01*
X164949107Y-68969005D02*
X165520535Y-69540434D01*
X164568154Y-69064244D02*
X164520535Y-69016625D01*
X164425297Y-68969005D01*
X164187202Y-68969005D01*
X164091964Y-69016625D01*
X164044345Y-69064244D01*
X163996726Y-69159482D01*
X163996726Y-69254720D01*
X164044345Y-69397577D01*
X164615773Y-69969005D01*
X163996726Y-69969005D01*
X163044345Y-69969005D02*
X163615773Y-69969005D01*
X163330059Y-69969005D02*
X163330059Y-68969005D01*
X163425297Y-69111863D01*
X163520535Y-69207101D01*
X163615773Y-69254720D01*
%TO.C,K68*%
X308395535Y-127119005D02*
X308395535Y-126119005D01*
X307824107Y-127119005D02*
X308252678Y-126547577D01*
X307824107Y-126119005D02*
X308395535Y-126690434D01*
X306966964Y-126119005D02*
X307157440Y-126119005D01*
X307252678Y-126166625D01*
X307300297Y-126214244D01*
X307395535Y-126357101D01*
X307443154Y-126547577D01*
X307443154Y-126928529D01*
X307395535Y-127023767D01*
X307347916Y-127071386D01*
X307252678Y-127119005D01*
X307062202Y-127119005D01*
X306966964Y-127071386D01*
X306919345Y-127023767D01*
X306871726Y-126928529D01*
X306871726Y-126690434D01*
X306919345Y-126595196D01*
X306966964Y-126547577D01*
X307062202Y-126499958D01*
X307252678Y-126499958D01*
X307347916Y-126547577D01*
X307395535Y-126595196D01*
X307443154Y-126690434D01*
X306300297Y-126547577D02*
X306395535Y-126499958D01*
X306443154Y-126452339D01*
X306490773Y-126357101D01*
X306490773Y-126309482D01*
X306443154Y-126214244D01*
X306395535Y-126166625D01*
X306300297Y-126119005D01*
X306109821Y-126119005D01*
X306014583Y-126166625D01*
X305966964Y-126214244D01*
X305919345Y-126309482D01*
X305919345Y-126357101D01*
X305966964Y-126452339D01*
X306014583Y-126499958D01*
X306109821Y-126547577D01*
X306300297Y-126547577D01*
X306395535Y-126595196D01*
X306443154Y-126642815D01*
X306490773Y-126738053D01*
X306490773Y-126928529D01*
X306443154Y-127023767D01*
X306395535Y-127071386D01*
X306300297Y-127119005D01*
X306109821Y-127119005D01*
X306014583Y-127071386D01*
X305966964Y-127023767D01*
X305919345Y-126928529D01*
X305919345Y-126738053D01*
X305966964Y-126642815D01*
X306014583Y-126595196D01*
X306109821Y-126547577D01*
%TO.C,K16*%
X65508035Y-69969005D02*
X65508035Y-68969005D01*
X64936607Y-69969005D02*
X65365178Y-69397577D01*
X64936607Y-68969005D02*
X65508035Y-69540434D01*
X63984226Y-69969005D02*
X64555654Y-69969005D01*
X64269940Y-69969005D02*
X64269940Y-68969005D01*
X64365178Y-69111863D01*
X64460416Y-69207101D01*
X64555654Y-69254720D01*
X63127083Y-68969005D02*
X63317559Y-68969005D01*
X63412797Y-69016625D01*
X63460416Y-69064244D01*
X63555654Y-69207101D01*
X63603273Y-69397577D01*
X63603273Y-69778529D01*
X63555654Y-69873767D01*
X63508035Y-69921386D01*
X63412797Y-69969005D01*
X63222321Y-69969005D01*
X63127083Y-69921386D01*
X63079464Y-69873767D01*
X63031845Y-69778529D01*
X63031845Y-69540434D01*
X63079464Y-69445196D01*
X63127083Y-69397577D01*
X63222321Y-69349958D01*
X63412797Y-69349958D01*
X63508035Y-69397577D01*
X63555654Y-69445196D01*
X63603273Y-69540434D01*
%TO.C,K2*%
X79319345Y-50919005D02*
X79319345Y-49919005D01*
X78747916Y-50919005D02*
X79176488Y-50347577D01*
X78747916Y-49919005D02*
X79319345Y-50490434D01*
X78366964Y-50014244D02*
X78319345Y-49966625D01*
X78224107Y-49919005D01*
X77986011Y-49919005D01*
X77890773Y-49966625D01*
X77843154Y-50014244D01*
X77795535Y-50109482D01*
X77795535Y-50204720D01*
X77843154Y-50347577D01*
X78414583Y-50919005D01*
X77795535Y-50919005D01*
%TO.C,K35*%
X151233035Y-89019005D02*
X151233035Y-88019005D01*
X150661607Y-89019005D02*
X151090178Y-88447577D01*
X150661607Y-88019005D02*
X151233035Y-88590434D01*
X150328273Y-88019005D02*
X149709226Y-88019005D01*
X150042559Y-88399958D01*
X149899702Y-88399958D01*
X149804464Y-88447577D01*
X149756845Y-88495196D01*
X149709226Y-88590434D01*
X149709226Y-88828529D01*
X149756845Y-88923767D01*
X149804464Y-88971386D01*
X149899702Y-89019005D01*
X150185416Y-89019005D01*
X150280654Y-88971386D01*
X150328273Y-88923767D01*
X148804464Y-88019005D02*
X149280654Y-88019005D01*
X149328273Y-88495196D01*
X149280654Y-88447577D01*
X149185416Y-88399958D01*
X148947321Y-88399958D01*
X148852083Y-88447577D01*
X148804464Y-88495196D01*
X148756845Y-88590434D01*
X148756845Y-88828529D01*
X148804464Y-88923767D01*
X148852083Y-88971386D01*
X148947321Y-89019005D01*
X149185416Y-89019005D01*
X149280654Y-88971386D01*
X149328273Y-88923767D01*
%TO.C,K14*%
X309284535Y-50919005D02*
X309284535Y-49919005D01*
X308713107Y-50919005D02*
X309141678Y-50347577D01*
X308713107Y-49919005D02*
X309284535Y-50490434D01*
X307760726Y-50919005D02*
X308332154Y-50919005D01*
X308046440Y-50919005D02*
X308046440Y-49919005D01*
X308141678Y-50061863D01*
X308236916Y-50157101D01*
X308332154Y-50204720D01*
X306903583Y-50252339D02*
X306903583Y-50919005D01*
X307141678Y-49871386D02*
X307379773Y-50585672D01*
X306760726Y-50585672D01*
%TO.C,K14a1*%
X318849107Y-50919005D02*
X318849107Y-49919005D01*
X318277678Y-50919005D02*
X318706250Y-50347577D01*
X318277678Y-49919005D02*
X318849107Y-50490434D01*
X317325297Y-50919005D02*
X317896726Y-50919005D01*
X317611011Y-50919005D02*
X317611011Y-49919005D01*
X317706250Y-50061863D01*
X317801488Y-50157101D01*
X317896726Y-50204720D01*
X316468154Y-50252339D02*
X316468154Y-50919005D01*
X316706250Y-49871386D02*
X316944345Y-50585672D01*
X316325297Y-50585672D01*
X315515773Y-50919005D02*
X315515773Y-50395196D01*
X315563392Y-50299958D01*
X315658630Y-50252339D01*
X315849107Y-50252339D01*
X315944345Y-50299958D01*
X315515773Y-50871386D02*
X315611011Y-50919005D01*
X315849107Y-50919005D01*
X315944345Y-50871386D01*
X315991964Y-50776148D01*
X315991964Y-50680910D01*
X315944345Y-50585672D01*
X315849107Y-50538053D01*
X315611011Y-50538053D01*
X315515773Y-50490434D01*
X314515773Y-50919005D02*
X315087202Y-50919005D01*
X314801488Y-50919005D02*
X314801488Y-49919005D01*
X314896726Y-50061863D01*
X314991964Y-50157101D01*
X315087202Y-50204720D01*
%TO.C,K25*%
X241720535Y-69969005D02*
X241720535Y-68969005D01*
X241149107Y-69969005D02*
X241577678Y-69397577D01*
X241149107Y-68969005D02*
X241720535Y-69540434D01*
X240768154Y-69064244D02*
X240720535Y-69016625D01*
X240625297Y-68969005D01*
X240387202Y-68969005D01*
X240291964Y-69016625D01*
X240244345Y-69064244D01*
X240196726Y-69159482D01*
X240196726Y-69254720D01*
X240244345Y-69397577D01*
X240815773Y-69969005D01*
X240196726Y-69969005D01*
X239291964Y-68969005D02*
X239768154Y-68969005D01*
X239815773Y-69445196D01*
X239768154Y-69397577D01*
X239672916Y-69349958D01*
X239434821Y-69349958D01*
X239339583Y-69397577D01*
X239291964Y-69445196D01*
X239244345Y-69540434D01*
X239244345Y-69778529D01*
X239291964Y-69873767D01*
X239339583Y-69921386D01*
X239434821Y-69969005D01*
X239672916Y-69969005D01*
X239768154Y-69921386D01*
X239815773Y-69873767D01*
%TO.C,Y1*%
X296325440Y-121364434D02*
X296801630Y-121364434D01*
X295801630Y-121031101D02*
X296325440Y-121364434D01*
X295801630Y-121697767D01*
X296801630Y-122554910D02*
X296801630Y-121983482D01*
X296801630Y-122269196D02*
X295801630Y-122269196D01*
X295944488Y-122173958D01*
X296039726Y-122078720D01*
X296087345Y-121983482D01*
%TO.C,J1*%
X202739583Y-48268005D02*
X202739583Y-48982291D01*
X202787202Y-49125148D01*
X202882440Y-49220386D01*
X203025297Y-49268005D01*
X203120535Y-49268005D01*
X201739583Y-49268005D02*
X202311011Y-49268005D01*
X202025297Y-49268005D02*
X202025297Y-48268005D01*
X202120535Y-48410863D01*
X202215773Y-48506101D01*
X202311011Y-48553720D01*
%TO.C,KD25*%
X109971130Y-116157589D02*
X108971130Y-116157589D01*
X109971130Y-116729017D02*
X109399702Y-116300446D01*
X108971130Y-116729017D02*
X109542559Y-116157589D01*
X109971130Y-117157589D02*
X108971130Y-117157589D01*
X108971130Y-117395684D01*
X109018750Y-117538541D01*
X109113988Y-117633779D01*
X109209226Y-117681398D01*
X109399702Y-117729017D01*
X109542559Y-117729017D01*
X109733035Y-117681398D01*
X109828273Y-117633779D01*
X109923511Y-117538541D01*
X109971130Y-117395684D01*
X109971130Y-117157589D01*
X109066369Y-118109970D02*
X109018750Y-118157589D01*
X108971130Y-118252827D01*
X108971130Y-118490922D01*
X109018750Y-118586160D01*
X109066369Y-118633779D01*
X109161607Y-118681398D01*
X109256845Y-118681398D01*
X109399702Y-118633779D01*
X109971130Y-118062351D01*
X109971130Y-118681398D01*
X108971130Y-119586160D02*
X108971130Y-119109970D01*
X109447321Y-119062351D01*
X109399702Y-119109970D01*
X109352083Y-119205208D01*
X109352083Y-119443303D01*
X109399702Y-119538541D01*
X109447321Y-119586160D01*
X109542559Y-119633779D01*
X109780654Y-119633779D01*
X109875892Y-119586160D01*
X109923511Y-119538541D01*
X109971130Y-119443303D01*
X109971130Y-119205208D01*
X109923511Y-119109970D01*
X109875892Y-119062351D01*
%TO.C,KD1*%
X67108630Y-59483779D02*
X66108630Y-59483779D01*
X67108630Y-60055208D02*
X66537202Y-59626636D01*
X66108630Y-60055208D02*
X66680059Y-59483779D01*
X67108630Y-60483779D02*
X66108630Y-60483779D01*
X66108630Y-60721875D01*
X66156250Y-60864732D01*
X66251488Y-60959970D01*
X66346726Y-61007589D01*
X66537202Y-61055208D01*
X66680059Y-61055208D01*
X66870535Y-61007589D01*
X66965773Y-60959970D01*
X67061011Y-60864732D01*
X67108630Y-60721875D01*
X67108630Y-60483779D01*
X67108630Y-62007589D02*
X67108630Y-61436160D01*
X67108630Y-61721875D02*
X66108630Y-61721875D01*
X66251488Y-61626636D01*
X66346726Y-61531398D01*
X66394345Y-61436160D01*
%TO.C,SW1*%
X291021011Y-104647291D02*
X291068630Y-104790148D01*
X291068630Y-105028244D01*
X291021011Y-105123482D01*
X290973392Y-105171101D01*
X290878154Y-105218720D01*
X290782916Y-105218720D01*
X290687678Y-105171101D01*
X290640059Y-105123482D01*
X290592440Y-105028244D01*
X290544821Y-104837767D01*
X290497202Y-104742529D01*
X290449583Y-104694910D01*
X290354345Y-104647291D01*
X290259107Y-104647291D01*
X290163869Y-104694910D01*
X290116250Y-104742529D01*
X290068630Y-104837767D01*
X290068630Y-105075863D01*
X290116250Y-105218720D01*
X290068630Y-105552053D02*
X291068630Y-105790148D01*
X290354345Y-105980625D01*
X291068630Y-106171101D01*
X290068630Y-106409196D01*
X291068630Y-107313958D02*
X291068630Y-106742529D01*
X291068630Y-107028244D02*
X290068630Y-107028244D01*
X290211488Y-106933005D01*
X290306726Y-106837767D01*
X290354345Y-106742529D01*
%TO.C,KD31*%
X333808630Y-116157589D02*
X332808630Y-116157589D01*
X333808630Y-116729017D02*
X333237202Y-116300446D01*
X332808630Y-116729017D02*
X333380059Y-116157589D01*
X333808630Y-117157589D02*
X332808630Y-117157589D01*
X332808630Y-117395684D01*
X332856250Y-117538541D01*
X332951488Y-117633779D01*
X333046726Y-117681398D01*
X333237202Y-117729017D01*
X333380059Y-117729017D01*
X333570535Y-117681398D01*
X333665773Y-117633779D01*
X333761011Y-117538541D01*
X333808630Y-117395684D01*
X333808630Y-117157589D01*
X332808630Y-118062351D02*
X332808630Y-118681398D01*
X333189583Y-118348065D01*
X333189583Y-118490922D01*
X333237202Y-118586160D01*
X333284821Y-118633779D01*
X333380059Y-118681398D01*
X333618154Y-118681398D01*
X333713392Y-118633779D01*
X333761011Y-118586160D01*
X333808630Y-118490922D01*
X333808630Y-118205208D01*
X333761011Y-118109970D01*
X333713392Y-118062351D01*
X333808630Y-119633779D02*
X333808630Y-119062351D01*
X333808630Y-119348065D02*
X332808630Y-119348065D01*
X332951488Y-119252827D01*
X333046726Y-119157589D01*
X333094345Y-119062351D01*
%TO.C,KD27*%
X186171130Y-116157589D02*
X185171130Y-116157589D01*
X186171130Y-116729017D02*
X185599702Y-116300446D01*
X185171130Y-116729017D02*
X185742559Y-116157589D01*
X186171130Y-117157589D02*
X185171130Y-117157589D01*
X185171130Y-117395684D01*
X185218750Y-117538541D01*
X185313988Y-117633779D01*
X185409226Y-117681398D01*
X185599702Y-117729017D01*
X185742559Y-117729017D01*
X185933035Y-117681398D01*
X186028273Y-117633779D01*
X186123511Y-117538541D01*
X186171130Y-117395684D01*
X186171130Y-117157589D01*
X185266369Y-118109970D02*
X185218750Y-118157589D01*
X185171130Y-118252827D01*
X185171130Y-118490922D01*
X185218750Y-118586160D01*
X185266369Y-118633779D01*
X185361607Y-118681398D01*
X185456845Y-118681398D01*
X185599702Y-118633779D01*
X186171130Y-118062351D01*
X186171130Y-118681398D01*
X185171130Y-119014732D02*
X185171130Y-119681398D01*
X186171130Y-119252827D01*
%TO.C,KD4*%
X181408630Y-59483779D02*
X180408630Y-59483779D01*
X181408630Y-60055208D02*
X180837202Y-59626636D01*
X180408630Y-60055208D02*
X180980059Y-59483779D01*
X181408630Y-60483779D02*
X180408630Y-60483779D01*
X180408630Y-60721875D01*
X180456250Y-60864732D01*
X180551488Y-60959970D01*
X180646726Y-61007589D01*
X180837202Y-61055208D01*
X180980059Y-61055208D01*
X181170535Y-61007589D01*
X181265773Y-60959970D01*
X181361011Y-60864732D01*
X181408630Y-60721875D01*
X181408630Y-60483779D01*
X180741964Y-61912351D02*
X181408630Y-61912351D01*
X180361011Y-61674255D02*
X181075297Y-61436160D01*
X181075297Y-62055208D01*
%TO.C,R4*%
X267374666Y-123251855D02*
X267708000Y-122775665D01*
X267946095Y-123251855D02*
X267946095Y-122251855D01*
X267565142Y-122251855D01*
X267469904Y-122299475D01*
X267422285Y-122347094D01*
X267374666Y-122442332D01*
X267374666Y-122585189D01*
X267422285Y-122680427D01*
X267469904Y-122728046D01*
X267565142Y-122775665D01*
X267946095Y-122775665D01*
X266517523Y-122585189D02*
X266517523Y-123251855D01*
X266755619Y-122204236D02*
X266993714Y-122918522D01*
X266374666Y-122918522D01*
%TO.C,C2*%
X298140392Y-134881958D02*
X298188011Y-134834339D01*
X298235630Y-134691482D01*
X298235630Y-134596244D01*
X298188011Y-134453386D01*
X298092773Y-134358148D01*
X297997535Y-134310529D01*
X297807059Y-134262910D01*
X297664202Y-134262910D01*
X297473726Y-134310529D01*
X297378488Y-134358148D01*
X297283250Y-134453386D01*
X297235630Y-134596244D01*
X297235630Y-134691482D01*
X297283250Y-134834339D01*
X297330869Y-134881958D01*
X297330869Y-135262910D02*
X297283250Y-135310529D01*
X297235630Y-135405767D01*
X297235630Y-135643863D01*
X297283250Y-135739101D01*
X297330869Y-135786720D01*
X297426107Y-135834339D01*
X297521345Y-135834339D01*
X297664202Y-135786720D01*
X298235630Y-135215291D01*
X298235630Y-135834339D01*
%TO.C,KD19*%
X157596130Y-97107589D02*
X156596130Y-97107589D01*
X157596130Y-97679017D02*
X157024702Y-97250446D01*
X156596130Y-97679017D02*
X157167559Y-97107589D01*
X157596130Y-98107589D02*
X156596130Y-98107589D01*
X156596130Y-98345684D01*
X156643750Y-98488541D01*
X156738988Y-98583779D01*
X156834226Y-98631398D01*
X157024702Y-98679017D01*
X157167559Y-98679017D01*
X157358035Y-98631398D01*
X157453273Y-98583779D01*
X157548511Y-98488541D01*
X157596130Y-98345684D01*
X157596130Y-98107589D01*
X157596130Y-99631398D02*
X157596130Y-99059970D01*
X157596130Y-99345684D02*
X156596130Y-99345684D01*
X156738988Y-99250446D01*
X156834226Y-99155208D01*
X156881845Y-99059970D01*
X157596130Y-100107589D02*
X157596130Y-100298065D01*
X157548511Y-100393303D01*
X157500892Y-100440922D01*
X157358035Y-100536160D01*
X157167559Y-100583779D01*
X156786607Y-100583779D01*
X156691369Y-100536160D01*
X156643750Y-100488541D01*
X156596130Y-100393303D01*
X156596130Y-100202827D01*
X156643750Y-100107589D01*
X156691369Y-100059970D01*
X156786607Y-100012351D01*
X157024702Y-100012351D01*
X157119940Y-100059970D01*
X157167559Y-100107589D01*
X157215178Y-100202827D01*
X157215178Y-100393303D01*
X157167559Y-100488541D01*
X157119940Y-100536160D01*
X157024702Y-100583779D01*
%TO.C,KD23*%
X323331130Y-97107589D02*
X322331130Y-97107589D01*
X323331130Y-97679017D02*
X322759702Y-97250446D01*
X322331130Y-97679017D02*
X322902559Y-97107589D01*
X323331130Y-98107589D02*
X322331130Y-98107589D01*
X322331130Y-98345684D01*
X322378750Y-98488541D01*
X322473988Y-98583779D01*
X322569226Y-98631398D01*
X322759702Y-98679017D01*
X322902559Y-98679017D01*
X323093035Y-98631398D01*
X323188273Y-98583779D01*
X323283511Y-98488541D01*
X323331130Y-98345684D01*
X323331130Y-98107589D01*
X322426369Y-99059970D02*
X322378750Y-99107589D01*
X322331130Y-99202827D01*
X322331130Y-99440922D01*
X322378750Y-99536160D01*
X322426369Y-99583779D01*
X322521607Y-99631398D01*
X322616845Y-99631398D01*
X322759702Y-99583779D01*
X323331130Y-99012351D01*
X323331130Y-99631398D01*
X322331130Y-99964732D02*
X322331130Y-100583779D01*
X322712083Y-100250446D01*
X322712083Y-100393303D01*
X322759702Y-100488541D01*
X322807321Y-100536160D01*
X322902559Y-100583779D01*
X323140654Y-100583779D01*
X323235892Y-100536160D01*
X323283511Y-100488541D01*
X323331130Y-100393303D01*
X323331130Y-100107589D01*
X323283511Y-100012351D01*
X323235892Y-99964732D01*
%TO.C,KD12*%
X190933630Y-78057589D02*
X189933630Y-78057589D01*
X190933630Y-78629017D02*
X190362202Y-78200446D01*
X189933630Y-78629017D02*
X190505059Y-78057589D01*
X190933630Y-79057589D02*
X189933630Y-79057589D01*
X189933630Y-79295684D01*
X189981250Y-79438541D01*
X190076488Y-79533779D01*
X190171726Y-79581398D01*
X190362202Y-79629017D01*
X190505059Y-79629017D01*
X190695535Y-79581398D01*
X190790773Y-79533779D01*
X190886011Y-79438541D01*
X190933630Y-79295684D01*
X190933630Y-79057589D01*
X190933630Y-80581398D02*
X190933630Y-80009970D01*
X190933630Y-80295684D02*
X189933630Y-80295684D01*
X190076488Y-80200446D01*
X190171726Y-80105208D01*
X190219345Y-80009970D01*
X190028869Y-80962351D02*
X189981250Y-81009970D01*
X189933630Y-81105208D01*
X189933630Y-81343303D01*
X189981250Y-81438541D01*
X190028869Y-81486160D01*
X190124107Y-81533779D01*
X190219345Y-81533779D01*
X190362202Y-81486160D01*
X190933630Y-80914732D01*
X190933630Y-81533779D01*
%TO.C,U2*%
X284223330Y-133434048D02*
X284795750Y-132861628D01*
X284896765Y-132827956D01*
X284964109Y-132827956D01*
X285065124Y-132861628D01*
X285199811Y-132996315D01*
X285233483Y-133097330D01*
X285233483Y-133164674D01*
X285199811Y-133265689D01*
X284627391Y-133838109D01*
X284997781Y-134073811D02*
X284997781Y-134141154D01*
X285031452Y-134242170D01*
X285199811Y-134410528D01*
X285300826Y-134444200D01*
X285368170Y-134444200D01*
X285469185Y-134410528D01*
X285536529Y-134343185D01*
X285603872Y-134208498D01*
X285603872Y-133400376D01*
X286041605Y-133838109D01*
%TO.C,KD36*%
X314758630Y-135207589D02*
X313758630Y-135207589D01*
X314758630Y-135779017D02*
X314187202Y-135350446D01*
X313758630Y-135779017D02*
X314330059Y-135207589D01*
X314758630Y-136207589D02*
X313758630Y-136207589D01*
X313758630Y-136445684D01*
X313806250Y-136588541D01*
X313901488Y-136683779D01*
X313996726Y-136731398D01*
X314187202Y-136779017D01*
X314330059Y-136779017D01*
X314520535Y-136731398D01*
X314615773Y-136683779D01*
X314711011Y-136588541D01*
X314758630Y-136445684D01*
X314758630Y-136207589D01*
X313758630Y-137112351D02*
X313758630Y-137731398D01*
X314139583Y-137398065D01*
X314139583Y-137540922D01*
X314187202Y-137636160D01*
X314234821Y-137683779D01*
X314330059Y-137731398D01*
X314568154Y-137731398D01*
X314663392Y-137683779D01*
X314711011Y-137636160D01*
X314758630Y-137540922D01*
X314758630Y-137255208D01*
X314711011Y-137159970D01*
X314663392Y-137112351D01*
X313758630Y-138588541D02*
X313758630Y-138398065D01*
X313806250Y-138302827D01*
X313853869Y-138255208D01*
X313996726Y-138159970D01*
X314187202Y-138112351D01*
X314568154Y-138112351D01*
X314663392Y-138159970D01*
X314711011Y-138207589D01*
X314758630Y-138302827D01*
X314758630Y-138493303D01*
X314711011Y-138588541D01*
X314663392Y-138636160D01*
X314568154Y-138683779D01*
X314330059Y-138683779D01*
X314234821Y-138636160D01*
X314187202Y-138588541D01*
X314139583Y-138493303D01*
X314139583Y-138302827D01*
X314187202Y-138207589D01*
X314234821Y-138159970D01*
X314330059Y-138112351D01*
%TO.C,KD11*%
X152833630Y-78057589D02*
X151833630Y-78057589D01*
X152833630Y-78629017D02*
X152262202Y-78200446D01*
X151833630Y-78629017D02*
X152405059Y-78057589D01*
X152833630Y-79057589D02*
X151833630Y-79057589D01*
X151833630Y-79295684D01*
X151881250Y-79438541D01*
X151976488Y-79533779D01*
X152071726Y-79581398D01*
X152262202Y-79629017D01*
X152405059Y-79629017D01*
X152595535Y-79581398D01*
X152690773Y-79533779D01*
X152786011Y-79438541D01*
X152833630Y-79295684D01*
X152833630Y-79057589D01*
X152833630Y-80581398D02*
X152833630Y-80009970D01*
X152833630Y-80295684D02*
X151833630Y-80295684D01*
X151976488Y-80200446D01*
X152071726Y-80105208D01*
X152119345Y-80009970D01*
X152833630Y-81533779D02*
X152833630Y-80962351D01*
X152833630Y-81248065D02*
X151833630Y-81248065D01*
X151976488Y-81152827D01*
X152071726Y-81057589D01*
X152119345Y-80962351D01*
%TO.C,FB1*%
X210351583Y-49683996D02*
X210684916Y-49683996D01*
X210684916Y-50207805D02*
X210684916Y-49207805D01*
X210208726Y-49207805D01*
X209494440Y-49683996D02*
X209351583Y-49731615D01*
X209303964Y-49779234D01*
X209256345Y-49874472D01*
X209256345Y-50017329D01*
X209303964Y-50112567D01*
X209351583Y-50160186D01*
X209446821Y-50207805D01*
X209827773Y-50207805D01*
X209827773Y-49207805D01*
X209494440Y-49207805D01*
X209399202Y-49255425D01*
X209351583Y-49303044D01*
X209303964Y-49398282D01*
X209303964Y-49493520D01*
X209351583Y-49588758D01*
X209399202Y-49636377D01*
X209494440Y-49683996D01*
X209827773Y-49683996D01*
X208303964Y-50207805D02*
X208875392Y-50207805D01*
X208589678Y-50207805D02*
X208589678Y-49207805D01*
X208684916Y-49350663D01*
X208780154Y-49445901D01*
X208875392Y-49493520D01*
%TO.C,KD32*%
X76633630Y-135207589D02*
X75633630Y-135207589D01*
X76633630Y-135779017D02*
X76062202Y-135350446D01*
X75633630Y-135779017D02*
X76205059Y-135207589D01*
X76633630Y-136207589D02*
X75633630Y-136207589D01*
X75633630Y-136445684D01*
X75681250Y-136588541D01*
X75776488Y-136683779D01*
X75871726Y-136731398D01*
X76062202Y-136779017D01*
X76205059Y-136779017D01*
X76395535Y-136731398D01*
X76490773Y-136683779D01*
X76586011Y-136588541D01*
X76633630Y-136445684D01*
X76633630Y-136207589D01*
X75633630Y-137112351D02*
X75633630Y-137731398D01*
X76014583Y-137398065D01*
X76014583Y-137540922D01*
X76062202Y-137636160D01*
X76109821Y-137683779D01*
X76205059Y-137731398D01*
X76443154Y-137731398D01*
X76538392Y-137683779D01*
X76586011Y-137636160D01*
X76633630Y-137540922D01*
X76633630Y-137255208D01*
X76586011Y-137159970D01*
X76538392Y-137112351D01*
X75728869Y-138112351D02*
X75681250Y-138159970D01*
X75633630Y-138255208D01*
X75633630Y-138493303D01*
X75681250Y-138588541D01*
X75728869Y-138636160D01*
X75824107Y-138683779D01*
X75919345Y-138683779D01*
X76062202Y-138636160D01*
X76633630Y-138064732D01*
X76633630Y-138683779D01*
%TO.C,R2*%
X204719180Y-58775668D02*
X204242990Y-58442335D01*
X204719180Y-58204239D02*
X203719180Y-58204239D01*
X203719180Y-58585192D01*
X203766800Y-58680430D01*
X203814419Y-58728049D01*
X203909657Y-58775668D01*
X204052514Y-58775668D01*
X204147752Y-58728049D01*
X204195371Y-58680430D01*
X204242990Y-58585192D01*
X204242990Y-58204239D01*
X203814419Y-59156620D02*
X203766800Y-59204239D01*
X203719180Y-59299477D01*
X203719180Y-59537573D01*
X203766800Y-59632811D01*
X203814419Y-59680430D01*
X203909657Y-59728049D01*
X204004895Y-59728049D01*
X204147752Y-59680430D01*
X204719180Y-59109001D01*
X204719180Y-59728049D01*
%TO.C,KD24*%
X90921130Y-116157589D02*
X89921130Y-116157589D01*
X90921130Y-116729017D02*
X90349702Y-116300446D01*
X89921130Y-116729017D02*
X90492559Y-116157589D01*
X90921130Y-117157589D02*
X89921130Y-117157589D01*
X89921130Y-117395684D01*
X89968750Y-117538541D01*
X90063988Y-117633779D01*
X90159226Y-117681398D01*
X90349702Y-117729017D01*
X90492559Y-117729017D01*
X90683035Y-117681398D01*
X90778273Y-117633779D01*
X90873511Y-117538541D01*
X90921130Y-117395684D01*
X90921130Y-117157589D01*
X90016369Y-118109970D02*
X89968750Y-118157589D01*
X89921130Y-118252827D01*
X89921130Y-118490922D01*
X89968750Y-118586160D01*
X90016369Y-118633779D01*
X90111607Y-118681398D01*
X90206845Y-118681398D01*
X90349702Y-118633779D01*
X90921130Y-118062351D01*
X90921130Y-118681398D01*
X90254464Y-119538541D02*
X90921130Y-119538541D01*
X89873511Y-119300446D02*
X90587797Y-119062351D01*
X90587797Y-119681398D01*
%TO.C,KD28*%
X224271130Y-116157589D02*
X223271130Y-116157589D01*
X224271130Y-116729017D02*
X223699702Y-116300446D01*
X223271130Y-116729017D02*
X223842559Y-116157589D01*
X224271130Y-117157589D02*
X223271130Y-117157589D01*
X223271130Y-117395684D01*
X223318750Y-117538541D01*
X223413988Y-117633779D01*
X223509226Y-117681398D01*
X223699702Y-117729017D01*
X223842559Y-117729017D01*
X224033035Y-117681398D01*
X224128273Y-117633779D01*
X224223511Y-117538541D01*
X224271130Y-117395684D01*
X224271130Y-117157589D01*
X223366369Y-118109970D02*
X223318750Y-118157589D01*
X223271130Y-118252827D01*
X223271130Y-118490922D01*
X223318750Y-118586160D01*
X223366369Y-118633779D01*
X223461607Y-118681398D01*
X223556845Y-118681398D01*
X223699702Y-118633779D01*
X224271130Y-118062351D01*
X224271130Y-118681398D01*
X223699702Y-119252827D02*
X223652083Y-119157589D01*
X223604464Y-119109970D01*
X223509226Y-119062351D01*
X223461607Y-119062351D01*
X223366369Y-119109970D01*
X223318750Y-119157589D01*
X223271130Y-119252827D01*
X223271130Y-119443303D01*
X223318750Y-119538541D01*
X223366369Y-119586160D01*
X223461607Y-119633779D01*
X223509226Y-119633779D01*
X223604464Y-119586160D01*
X223652083Y-119538541D01*
X223699702Y-119443303D01*
X223699702Y-119252827D01*
X223747321Y-119157589D01*
X223794940Y-119109970D01*
X223890178Y-119062351D01*
X224080654Y-119062351D01*
X224175892Y-119109970D01*
X224223511Y-119157589D01*
X224271130Y-119252827D01*
X224271130Y-119443303D01*
X224223511Y-119538541D01*
X224175892Y-119586160D01*
X224080654Y-119633779D01*
X223890178Y-119633779D01*
X223794940Y-119586160D01*
X223747321Y-119538541D01*
X223699702Y-119443303D01*
%TO.C,KD3*%
X143308630Y-59483779D02*
X142308630Y-59483779D01*
X143308630Y-60055208D02*
X142737202Y-59626636D01*
X142308630Y-60055208D02*
X142880059Y-59483779D01*
X143308630Y-60483779D02*
X142308630Y-60483779D01*
X142308630Y-60721875D01*
X142356250Y-60864732D01*
X142451488Y-60959970D01*
X142546726Y-61007589D01*
X142737202Y-61055208D01*
X142880059Y-61055208D01*
X143070535Y-61007589D01*
X143165773Y-60959970D01*
X143261011Y-60864732D01*
X143308630Y-60721875D01*
X143308630Y-60483779D01*
X142308630Y-61388541D02*
X142308630Y-62007589D01*
X142689583Y-61674255D01*
X142689583Y-61817113D01*
X142737202Y-61912351D01*
X142784821Y-61959970D01*
X142880059Y-62007589D01*
X143118154Y-62007589D01*
X143213392Y-61959970D01*
X143261011Y-61912351D01*
X143308630Y-61817113D01*
X143308630Y-61531398D01*
X143261011Y-61436160D01*
X143213392Y-61388541D01*
%TO.C,KD26*%
X148071130Y-116157589D02*
X147071130Y-116157589D01*
X148071130Y-116729017D02*
X147499702Y-116300446D01*
X147071130Y-116729017D02*
X147642559Y-116157589D01*
X148071130Y-117157589D02*
X147071130Y-117157589D01*
X147071130Y-117395684D01*
X147118750Y-117538541D01*
X147213988Y-117633779D01*
X147309226Y-117681398D01*
X147499702Y-117729017D01*
X147642559Y-117729017D01*
X147833035Y-117681398D01*
X147928273Y-117633779D01*
X148023511Y-117538541D01*
X148071130Y-117395684D01*
X148071130Y-117157589D01*
X147166369Y-118109970D02*
X147118750Y-118157589D01*
X147071130Y-118252827D01*
X147071130Y-118490922D01*
X147118750Y-118586160D01*
X147166369Y-118633779D01*
X147261607Y-118681398D01*
X147356845Y-118681398D01*
X147499702Y-118633779D01*
X148071130Y-118062351D01*
X148071130Y-118681398D01*
X147071130Y-119538541D02*
X147071130Y-119348065D01*
X147118750Y-119252827D01*
X147166369Y-119205208D01*
X147309226Y-119109970D01*
X147499702Y-119062351D01*
X147880654Y-119062351D01*
X147975892Y-119109970D01*
X148023511Y-119157589D01*
X148071130Y-119252827D01*
X148071130Y-119443303D01*
X148023511Y-119538541D01*
X147975892Y-119586160D01*
X147880654Y-119633779D01*
X147642559Y-119633779D01*
X147547321Y-119586160D01*
X147499702Y-119538541D01*
X147452083Y-119443303D01*
X147452083Y-119252827D01*
X147499702Y-119157589D01*
X147547321Y-119109970D01*
X147642559Y-119062351D01*
%TO.C,R5*%
X267374666Y-127628255D02*
X267708000Y-127152065D01*
X267946095Y-127628255D02*
X267946095Y-126628255D01*
X267565142Y-126628255D01*
X267469904Y-126675875D01*
X267422285Y-126723494D01*
X267374666Y-126818732D01*
X267374666Y-126961589D01*
X267422285Y-127056827D01*
X267469904Y-127104446D01*
X267565142Y-127152065D01*
X267946095Y-127152065D01*
X266469904Y-126628255D02*
X266946095Y-126628255D01*
X266993714Y-127104446D01*
X266946095Y-127056827D01*
X266850857Y-127009208D01*
X266612761Y-127009208D01*
X266517523Y-127056827D01*
X266469904Y-127104446D01*
X266422285Y-127199684D01*
X266422285Y-127437779D01*
X266469904Y-127533017D01*
X266517523Y-127580636D01*
X266612761Y-127628255D01*
X266850857Y-127628255D01*
X266946095Y-127580636D01*
X266993714Y-127533017D01*
%TO.C,KD37*%
X333808630Y-135207589D02*
X332808630Y-135207589D01*
X333808630Y-135779017D02*
X333237202Y-135350446D01*
X332808630Y-135779017D02*
X333380059Y-135207589D01*
X333808630Y-136207589D02*
X332808630Y-136207589D01*
X332808630Y-136445684D01*
X332856250Y-136588541D01*
X332951488Y-136683779D01*
X333046726Y-136731398D01*
X333237202Y-136779017D01*
X333380059Y-136779017D01*
X333570535Y-136731398D01*
X333665773Y-136683779D01*
X333761011Y-136588541D01*
X333808630Y-136445684D01*
X333808630Y-136207589D01*
X332808630Y-137112351D02*
X332808630Y-137731398D01*
X333189583Y-137398065D01*
X333189583Y-137540922D01*
X333237202Y-137636160D01*
X333284821Y-137683779D01*
X333380059Y-137731398D01*
X333618154Y-137731398D01*
X333713392Y-137683779D01*
X333761011Y-137636160D01*
X333808630Y-137540922D01*
X333808630Y-137255208D01*
X333761011Y-137159970D01*
X333713392Y-137112351D01*
X332808630Y-138064732D02*
X332808630Y-138731398D01*
X333808630Y-138302827D01*
%TO.C,F1*%
X197286571Y-54987866D02*
X197286571Y-54654533D01*
X197810380Y-54654533D02*
X196810380Y-54654533D01*
X196810380Y-55130723D01*
X197810380Y-56035485D02*
X197810380Y-55464057D01*
X197810380Y-55749771D02*
X196810380Y-55749771D01*
X196953238Y-55654533D01*
X197048476Y-55559295D01*
X197096095Y-55464057D01*
%TO.C,KD5*%
X219508630Y-59483779D02*
X218508630Y-59483779D01*
X219508630Y-60055208D02*
X218937202Y-59626636D01*
X218508630Y-60055208D02*
X219080059Y-59483779D01*
X219508630Y-60483779D02*
X218508630Y-60483779D01*
X218508630Y-60721875D01*
X218556250Y-60864732D01*
X218651488Y-60959970D01*
X218746726Y-61007589D01*
X218937202Y-61055208D01*
X219080059Y-61055208D01*
X219270535Y-61007589D01*
X219365773Y-60959970D01*
X219461011Y-60864732D01*
X219508630Y-60721875D01*
X219508630Y-60483779D01*
X218508630Y-61959970D02*
X218508630Y-61483779D01*
X218984821Y-61436160D01*
X218937202Y-61483779D01*
X218889583Y-61579017D01*
X218889583Y-61817113D01*
X218937202Y-61912351D01*
X218984821Y-61959970D01*
X219080059Y-62007589D01*
X219318154Y-62007589D01*
X219413392Y-61959970D01*
X219461011Y-61912351D01*
X219508630Y-61817113D01*
X219508630Y-61579017D01*
X219461011Y-61483779D01*
X219413392Y-61436160D01*
%TO.C,C1*%
X294089640Y-120070312D02*
X294156983Y-120070312D01*
X294291670Y-120002968D01*
X294359014Y-119935625D01*
X294426357Y-119800937D01*
X294426357Y-119666250D01*
X294392686Y-119565235D01*
X294291670Y-119396876D01*
X294190655Y-119295861D01*
X294022296Y-119194846D01*
X293921281Y-119161174D01*
X293786594Y-119161174D01*
X293651907Y-119228518D01*
X293584563Y-119295861D01*
X293517220Y-119430548D01*
X293517220Y-119497892D01*
X293483548Y-120811090D02*
X293887609Y-120407029D01*
X293685579Y-120609060D02*
X292978472Y-119901953D01*
X293146831Y-119935624D01*
X293281518Y-119935624D01*
X293382533Y-119901953D01*
%TO.C,KD2*%
X105208630Y-59483779D02*
X104208630Y-59483779D01*
X105208630Y-60055208D02*
X104637202Y-59626636D01*
X104208630Y-60055208D02*
X104780059Y-59483779D01*
X105208630Y-60483779D02*
X104208630Y-60483779D01*
X104208630Y-60721875D01*
X104256250Y-60864732D01*
X104351488Y-60959970D01*
X104446726Y-61007589D01*
X104637202Y-61055208D01*
X104780059Y-61055208D01*
X104970535Y-61007589D01*
X105065773Y-60959970D01*
X105161011Y-60864732D01*
X105208630Y-60721875D01*
X105208630Y-60483779D01*
X104303869Y-61436160D02*
X104256250Y-61483779D01*
X104208630Y-61579017D01*
X104208630Y-61817113D01*
X104256250Y-61912351D01*
X104303869Y-61959970D01*
X104399107Y-62007589D01*
X104494345Y-62007589D01*
X104637202Y-61959970D01*
X105208630Y-61388541D01*
X105208630Y-62007589D01*
%TO.C,R7*%
X292529117Y-137654055D02*
X291956697Y-137755070D01*
X292125056Y-137249994D02*
X291417949Y-137957100D01*
X291687323Y-138226475D01*
X291788338Y-138260146D01*
X291855682Y-138260146D01*
X291956697Y-138226475D01*
X292057712Y-138125459D01*
X292091384Y-138024444D01*
X292091384Y-137957100D01*
X292057712Y-137856085D01*
X291788338Y-137586711D01*
X292057712Y-138596864D02*
X292529117Y-139068268D01*
X292933178Y-138058116D01*
%TO.C,R1*%
X201010780Y-58775668D02*
X200534590Y-58442335D01*
X201010780Y-58204239D02*
X200010780Y-58204239D01*
X200010780Y-58585192D01*
X200058400Y-58680430D01*
X200106019Y-58728049D01*
X200201257Y-58775668D01*
X200344114Y-58775668D01*
X200439352Y-58728049D01*
X200486971Y-58680430D01*
X200534590Y-58585192D01*
X200534590Y-58204239D01*
X201010780Y-59728049D02*
X201010780Y-59156620D01*
X201010780Y-59442335D02*
X200010780Y-59442335D01*
X200153638Y-59347096D01*
X200248876Y-59251858D01*
X200296495Y-59156620D01*
%TO.C,ISP1*%
X290869630Y-113276244D02*
X289869630Y-113276244D01*
X290822011Y-113704815D02*
X290869630Y-113847672D01*
X290869630Y-114085767D01*
X290822011Y-114181005D01*
X290774392Y-114228625D01*
X290679154Y-114276244D01*
X290583916Y-114276244D01*
X290488678Y-114228625D01*
X290441059Y-114181005D01*
X290393440Y-114085767D01*
X290345821Y-113895291D01*
X290298202Y-113800053D01*
X290250583Y-113752434D01*
X290155345Y-113704815D01*
X290060107Y-113704815D01*
X289964869Y-113752434D01*
X289917250Y-113800053D01*
X289869630Y-113895291D01*
X289869630Y-114133386D01*
X289917250Y-114276244D01*
X290869630Y-114704815D02*
X289869630Y-114704815D01*
X289869630Y-115085767D01*
X289917250Y-115181005D01*
X289964869Y-115228625D01*
X290060107Y-115276244D01*
X290202964Y-115276244D01*
X290298202Y-115228625D01*
X290345821Y-115181005D01*
X290393440Y-115085767D01*
X290393440Y-114704815D01*
X290869630Y-116228625D02*
X290869630Y-115657196D01*
X290869630Y-115942910D02*
X289869630Y-115942910D01*
X290012488Y-115847672D01*
X290107726Y-115752434D01*
X290155345Y-115657196D01*
%TO.C,KD10*%
X114733630Y-78057589D02*
X113733630Y-78057589D01*
X114733630Y-78629017D02*
X114162202Y-78200446D01*
X113733630Y-78629017D02*
X114305059Y-78057589D01*
X114733630Y-79057589D02*
X113733630Y-79057589D01*
X113733630Y-79295684D01*
X113781250Y-79438541D01*
X113876488Y-79533779D01*
X113971726Y-79581398D01*
X114162202Y-79629017D01*
X114305059Y-79629017D01*
X114495535Y-79581398D01*
X114590773Y-79533779D01*
X114686011Y-79438541D01*
X114733630Y-79295684D01*
X114733630Y-79057589D01*
X114733630Y-80581398D02*
X114733630Y-80009970D01*
X114733630Y-80295684D02*
X113733630Y-80295684D01*
X113876488Y-80200446D01*
X113971726Y-80105208D01*
X114019345Y-80009970D01*
X113733630Y-81200446D02*
X113733630Y-81295684D01*
X113781250Y-81390922D01*
X113828869Y-81438541D01*
X113924107Y-81486160D01*
X114114583Y-81533779D01*
X114352678Y-81533779D01*
X114543154Y-81486160D01*
X114638392Y-81438541D01*
X114686011Y-81390922D01*
X114733630Y-81295684D01*
X114733630Y-81200446D01*
X114686011Y-81105208D01*
X114638392Y-81057589D01*
X114543154Y-81009970D01*
X114352678Y-80962351D01*
X114114583Y-80962351D01*
X113924107Y-81009970D01*
X113828869Y-81057589D01*
X113781250Y-81105208D01*
X113733630Y-81200446D01*
%TO.C,C6*%
X301505916Y-125118767D02*
X301553535Y-125166386D01*
X301696392Y-125214005D01*
X301791630Y-125214005D01*
X301934488Y-125166386D01*
X302029726Y-125071148D01*
X302077345Y-124975910D01*
X302124964Y-124785434D01*
X302124964Y-124642577D01*
X302077345Y-124452101D01*
X302029726Y-124356863D01*
X301934488Y-124261625D01*
X301791630Y-124214005D01*
X301696392Y-124214005D01*
X301553535Y-124261625D01*
X301505916Y-124309244D01*
X300648773Y-124214005D02*
X300839250Y-124214005D01*
X300934488Y-124261625D01*
X300982107Y-124309244D01*
X301077345Y-124452101D01*
X301124964Y-124642577D01*
X301124964Y-125023529D01*
X301077345Y-125118767D01*
X301029726Y-125166386D01*
X300934488Y-125214005D01*
X300744011Y-125214005D01*
X300648773Y-125166386D01*
X300601154Y-125118767D01*
X300553535Y-125023529D01*
X300553535Y-124785434D01*
X300601154Y-124690196D01*
X300648773Y-124642577D01*
X300744011Y-124594958D01*
X300934488Y-124594958D01*
X301029726Y-124642577D01*
X301077345Y-124690196D01*
X301124964Y-124785434D01*
%TO.C,C5*%
X283916416Y-120736017D02*
X283964035Y-120783636D01*
X284106892Y-120831255D01*
X284202130Y-120831255D01*
X284344988Y-120783636D01*
X284440226Y-120688398D01*
X284487845Y-120593160D01*
X284535464Y-120402684D01*
X284535464Y-120259827D01*
X284487845Y-120069351D01*
X284440226Y-119974113D01*
X284344988Y-119878875D01*
X284202130Y-119831255D01*
X284106892Y-119831255D01*
X283964035Y-119878875D01*
X283916416Y-119926494D01*
X283011654Y-119831255D02*
X283487845Y-119831255D01*
X283535464Y-120307446D01*
X283487845Y-120259827D01*
X283392607Y-120212208D01*
X283154511Y-120212208D01*
X283059273Y-120259827D01*
X283011654Y-120307446D01*
X282964035Y-120402684D01*
X282964035Y-120640779D01*
X283011654Y-120736017D01*
X283059273Y-120783636D01*
X283154511Y-120831255D01*
X283392607Y-120831255D01*
X283487845Y-120783636D01*
X283535464Y-120736017D01*
%TO.C,KD17*%
X81396130Y-97107589D02*
X80396130Y-97107589D01*
X81396130Y-97679017D02*
X80824702Y-97250446D01*
X80396130Y-97679017D02*
X80967559Y-97107589D01*
X81396130Y-98107589D02*
X80396130Y-98107589D01*
X80396130Y-98345684D01*
X80443750Y-98488541D01*
X80538988Y-98583779D01*
X80634226Y-98631398D01*
X80824702Y-98679017D01*
X80967559Y-98679017D01*
X81158035Y-98631398D01*
X81253273Y-98583779D01*
X81348511Y-98488541D01*
X81396130Y-98345684D01*
X81396130Y-98107589D01*
X81396130Y-99631398D02*
X81396130Y-99059970D01*
X81396130Y-99345684D02*
X80396130Y-99345684D01*
X80538988Y-99250446D01*
X80634226Y-99155208D01*
X80681845Y-99059970D01*
X80396130Y-99964732D02*
X80396130Y-100631398D01*
X81396130Y-100202827D01*
%TO.C,C7*%
X301378916Y-119149767D02*
X301426535Y-119197386D01*
X301569392Y-119245005D01*
X301664630Y-119245005D01*
X301807488Y-119197386D01*
X301902726Y-119102148D01*
X301950345Y-119006910D01*
X301997964Y-118816434D01*
X301997964Y-118673577D01*
X301950345Y-118483101D01*
X301902726Y-118387863D01*
X301807488Y-118292625D01*
X301664630Y-118245005D01*
X301569392Y-118245005D01*
X301426535Y-118292625D01*
X301378916Y-118340244D01*
X301045583Y-118245005D02*
X300378916Y-118245005D01*
X300807488Y-119245005D01*
%TO.C,KD21*%
X233796130Y-97107589D02*
X232796130Y-97107589D01*
X233796130Y-97679017D02*
X233224702Y-97250446D01*
X232796130Y-97679017D02*
X233367559Y-97107589D01*
X233796130Y-98107589D02*
X232796130Y-98107589D01*
X232796130Y-98345684D01*
X232843750Y-98488541D01*
X232938988Y-98583779D01*
X233034226Y-98631398D01*
X233224702Y-98679017D01*
X233367559Y-98679017D01*
X233558035Y-98631398D01*
X233653273Y-98583779D01*
X233748511Y-98488541D01*
X233796130Y-98345684D01*
X233796130Y-98107589D01*
X232891369Y-99059970D02*
X232843750Y-99107589D01*
X232796130Y-99202827D01*
X232796130Y-99440922D01*
X232843750Y-99536160D01*
X232891369Y-99583779D01*
X232986607Y-99631398D01*
X233081845Y-99631398D01*
X233224702Y-99583779D01*
X233796130Y-99012351D01*
X233796130Y-99631398D01*
X233796130Y-100583779D02*
X233796130Y-100012351D01*
X233796130Y-100298065D02*
X232796130Y-100298065D01*
X232938988Y-100202827D01*
X233034226Y-100107589D01*
X233081845Y-100012351D01*
%TO.C,KD33*%
X124258630Y-135207589D02*
X123258630Y-135207589D01*
X124258630Y-135779017D02*
X123687202Y-135350446D01*
X123258630Y-135779017D02*
X123830059Y-135207589D01*
X124258630Y-136207589D02*
X123258630Y-136207589D01*
X123258630Y-136445684D01*
X123306250Y-136588541D01*
X123401488Y-136683779D01*
X123496726Y-136731398D01*
X123687202Y-136779017D01*
X123830059Y-136779017D01*
X124020535Y-136731398D01*
X124115773Y-136683779D01*
X124211011Y-136588541D01*
X124258630Y-136445684D01*
X124258630Y-136207589D01*
X123258630Y-137112351D02*
X123258630Y-137731398D01*
X123639583Y-137398065D01*
X123639583Y-137540922D01*
X123687202Y-137636160D01*
X123734821Y-137683779D01*
X123830059Y-137731398D01*
X124068154Y-137731398D01*
X124163392Y-137683779D01*
X124211011Y-137636160D01*
X124258630Y-137540922D01*
X124258630Y-137255208D01*
X124211011Y-137159970D01*
X124163392Y-137112351D01*
X123258630Y-138064732D02*
X123258630Y-138683779D01*
X123639583Y-138350446D01*
X123639583Y-138493303D01*
X123687202Y-138588541D01*
X123734821Y-138636160D01*
X123830059Y-138683779D01*
X124068154Y-138683779D01*
X124163392Y-138636160D01*
X124211011Y-138588541D01*
X124258630Y-138493303D01*
X124258630Y-138207589D01*
X124211011Y-138112351D01*
X124163392Y-138064732D01*
%TO.C,KD14*%
X267133630Y-78057589D02*
X266133630Y-78057589D01*
X267133630Y-78629017D02*
X266562202Y-78200446D01*
X266133630Y-78629017D02*
X266705059Y-78057589D01*
X267133630Y-79057589D02*
X266133630Y-79057589D01*
X266133630Y-79295684D01*
X266181250Y-79438541D01*
X266276488Y-79533779D01*
X266371726Y-79581398D01*
X266562202Y-79629017D01*
X266705059Y-79629017D01*
X266895535Y-79581398D01*
X266990773Y-79533779D01*
X267086011Y-79438541D01*
X267133630Y-79295684D01*
X267133630Y-79057589D01*
X267133630Y-80581398D02*
X267133630Y-80009970D01*
X267133630Y-80295684D02*
X266133630Y-80295684D01*
X266276488Y-80200446D01*
X266371726Y-80105208D01*
X266419345Y-80009970D01*
X266466964Y-81438541D02*
X267133630Y-81438541D01*
X266086011Y-81200446D02*
X266800297Y-80962351D01*
X266800297Y-81581398D01*
%TO.C,KD6*%
X257608630Y-59483779D02*
X256608630Y-59483779D01*
X257608630Y-60055208D02*
X257037202Y-59626636D01*
X256608630Y-60055208D02*
X257180059Y-59483779D01*
X257608630Y-60483779D02*
X256608630Y-60483779D01*
X256608630Y-60721875D01*
X256656250Y-60864732D01*
X256751488Y-60959970D01*
X256846726Y-61007589D01*
X257037202Y-61055208D01*
X257180059Y-61055208D01*
X257370535Y-61007589D01*
X257465773Y-60959970D01*
X257561011Y-60864732D01*
X257608630Y-60721875D01*
X257608630Y-60483779D01*
X256608630Y-61912351D02*
X256608630Y-61721875D01*
X256656250Y-61626636D01*
X256703869Y-61579017D01*
X256846726Y-61483779D01*
X257037202Y-61436160D01*
X257418154Y-61436160D01*
X257513392Y-61483779D01*
X257561011Y-61531398D01*
X257608630Y-61626636D01*
X257608630Y-61817113D01*
X257561011Y-61912351D01*
X257513392Y-61959970D01*
X257418154Y-62007589D01*
X257180059Y-62007589D01*
X257084821Y-61959970D01*
X257037202Y-61912351D01*
X256989583Y-61817113D01*
X256989583Y-61626636D01*
X257037202Y-61531398D01*
X257084821Y-61483779D01*
X257180059Y-61436160D01*
%TO.C,KD16*%
X333808630Y-78057589D02*
X332808630Y-78057589D01*
X333808630Y-78629017D02*
X333237202Y-78200446D01*
X332808630Y-78629017D02*
X333380059Y-78057589D01*
X333808630Y-79057589D02*
X332808630Y-79057589D01*
X332808630Y-79295684D01*
X332856250Y-79438541D01*
X332951488Y-79533779D01*
X333046726Y-79581398D01*
X333237202Y-79629017D01*
X333380059Y-79629017D01*
X333570535Y-79581398D01*
X333665773Y-79533779D01*
X333761011Y-79438541D01*
X333808630Y-79295684D01*
X333808630Y-79057589D01*
X333808630Y-80581398D02*
X333808630Y-80009970D01*
X333808630Y-80295684D02*
X332808630Y-80295684D01*
X332951488Y-80200446D01*
X333046726Y-80105208D01*
X333094345Y-80009970D01*
X332808630Y-81438541D02*
X332808630Y-81248065D01*
X332856250Y-81152827D01*
X332903869Y-81105208D01*
X333046726Y-81009970D01*
X333237202Y-80962351D01*
X333618154Y-80962351D01*
X333713392Y-81009970D01*
X333761011Y-81057589D01*
X333808630Y-81152827D01*
X333808630Y-81343303D01*
X333761011Y-81438541D01*
X333713392Y-81486160D01*
X333618154Y-81533779D01*
X333380059Y-81533779D01*
X333284821Y-81486160D01*
X333237202Y-81438541D01*
X333189583Y-81343303D01*
X333189583Y-81152827D01*
X333237202Y-81057589D01*
X333284821Y-81009970D01*
X333380059Y-80962351D01*
%TO.C,KD18*%
X119496130Y-97107589D02*
X118496130Y-97107589D01*
X119496130Y-97679017D02*
X118924702Y-97250446D01*
X118496130Y-97679017D02*
X119067559Y-97107589D01*
X119496130Y-98107589D02*
X118496130Y-98107589D01*
X118496130Y-98345684D01*
X118543750Y-98488541D01*
X118638988Y-98583779D01*
X118734226Y-98631398D01*
X118924702Y-98679017D01*
X119067559Y-98679017D01*
X119258035Y-98631398D01*
X119353273Y-98583779D01*
X119448511Y-98488541D01*
X119496130Y-98345684D01*
X119496130Y-98107589D01*
X119496130Y-99631398D02*
X119496130Y-99059970D01*
X119496130Y-99345684D02*
X118496130Y-99345684D01*
X118638988Y-99250446D01*
X118734226Y-99155208D01*
X118781845Y-99059970D01*
X118924702Y-100202827D02*
X118877083Y-100107589D01*
X118829464Y-100059970D01*
X118734226Y-100012351D01*
X118686607Y-100012351D01*
X118591369Y-100059970D01*
X118543750Y-100107589D01*
X118496130Y-100202827D01*
X118496130Y-100393303D01*
X118543750Y-100488541D01*
X118591369Y-100536160D01*
X118686607Y-100583779D01*
X118734226Y-100583779D01*
X118829464Y-100536160D01*
X118877083Y-100488541D01*
X118924702Y-100393303D01*
X118924702Y-100202827D01*
X118972321Y-100107589D01*
X119019940Y-100059970D01*
X119115178Y-100012351D01*
X119305654Y-100012351D01*
X119400892Y-100059970D01*
X119448511Y-100107589D01*
X119496130Y-100202827D01*
X119496130Y-100393303D01*
X119448511Y-100488541D01*
X119400892Y-100536160D01*
X119305654Y-100583779D01*
X119115178Y-100583779D01*
X119019940Y-100536160D01*
X118972321Y-100488541D01*
X118924702Y-100393303D01*
%TO.C,KD35*%
X257608630Y-135207589D02*
X256608630Y-135207589D01*
X257608630Y-135779017D02*
X257037202Y-135350446D01*
X256608630Y-135779017D02*
X257180059Y-135207589D01*
X257608630Y-136207589D02*
X256608630Y-136207589D01*
X256608630Y-136445684D01*
X256656250Y-136588541D01*
X256751488Y-136683779D01*
X256846726Y-136731398D01*
X257037202Y-136779017D01*
X257180059Y-136779017D01*
X257370535Y-136731398D01*
X257465773Y-136683779D01*
X257561011Y-136588541D01*
X257608630Y-136445684D01*
X257608630Y-136207589D01*
X256608630Y-137112351D02*
X256608630Y-137731398D01*
X256989583Y-137398065D01*
X256989583Y-137540922D01*
X257037202Y-137636160D01*
X257084821Y-137683779D01*
X257180059Y-137731398D01*
X257418154Y-137731398D01*
X257513392Y-137683779D01*
X257561011Y-137636160D01*
X257608630Y-137540922D01*
X257608630Y-137255208D01*
X257561011Y-137159970D01*
X257513392Y-137112351D01*
X256608630Y-138636160D02*
X256608630Y-138159970D01*
X257084821Y-138112351D01*
X257037202Y-138159970D01*
X256989583Y-138255208D01*
X256989583Y-138493303D01*
X257037202Y-138588541D01*
X257084821Y-138636160D01*
X257180059Y-138683779D01*
X257418154Y-138683779D01*
X257513392Y-138636160D01*
X257561011Y-138588541D01*
X257608630Y-138493303D01*
X257608630Y-138255208D01*
X257561011Y-138159970D01*
X257513392Y-138112351D01*
%TO.C,KD8*%
X333808630Y-59483779D02*
X332808630Y-59483779D01*
X333808630Y-60055208D02*
X333237202Y-59626636D01*
X332808630Y-60055208D02*
X333380059Y-59483779D01*
X333808630Y-60483779D02*
X332808630Y-60483779D01*
X332808630Y-60721875D01*
X332856250Y-60864732D01*
X332951488Y-60959970D01*
X333046726Y-61007589D01*
X333237202Y-61055208D01*
X333380059Y-61055208D01*
X333570535Y-61007589D01*
X333665773Y-60959970D01*
X333761011Y-60864732D01*
X333808630Y-60721875D01*
X333808630Y-60483779D01*
X333237202Y-61626636D02*
X333189583Y-61531398D01*
X333141964Y-61483779D01*
X333046726Y-61436160D01*
X332999107Y-61436160D01*
X332903869Y-61483779D01*
X332856250Y-61531398D01*
X332808630Y-61626636D01*
X332808630Y-61817113D01*
X332856250Y-61912351D01*
X332903869Y-61959970D01*
X332999107Y-62007589D01*
X333046726Y-62007589D01*
X333141964Y-61959970D01*
X333189583Y-61912351D01*
X333237202Y-61817113D01*
X333237202Y-61626636D01*
X333284821Y-61531398D01*
X333332440Y-61483779D01*
X333427678Y-61436160D01*
X333618154Y-61436160D01*
X333713392Y-61483779D01*
X333761011Y-61531398D01*
X333808630Y-61626636D01*
X333808630Y-61817113D01*
X333761011Y-61912351D01*
X333713392Y-61959970D01*
X333618154Y-62007589D01*
X333427678Y-62007589D01*
X333332440Y-61959970D01*
X333284821Y-61912351D01*
X333237202Y-61817113D01*
%TO.C,KD30*%
X314758630Y-116157589D02*
X313758630Y-116157589D01*
X314758630Y-116729017D02*
X314187202Y-116300446D01*
X313758630Y-116729017D02*
X314330059Y-116157589D01*
X314758630Y-117157589D02*
X313758630Y-117157589D01*
X313758630Y-117395684D01*
X313806250Y-117538541D01*
X313901488Y-117633779D01*
X313996726Y-117681398D01*
X314187202Y-117729017D01*
X314330059Y-117729017D01*
X314520535Y-117681398D01*
X314615773Y-117633779D01*
X314711011Y-117538541D01*
X314758630Y-117395684D01*
X314758630Y-117157589D01*
X313758630Y-118062351D02*
X313758630Y-118681398D01*
X314139583Y-118348065D01*
X314139583Y-118490922D01*
X314187202Y-118586160D01*
X314234821Y-118633779D01*
X314330059Y-118681398D01*
X314568154Y-118681398D01*
X314663392Y-118633779D01*
X314711011Y-118586160D01*
X314758630Y-118490922D01*
X314758630Y-118205208D01*
X314711011Y-118109970D01*
X314663392Y-118062351D01*
X313758630Y-119300446D02*
X313758630Y-119395684D01*
X313806250Y-119490922D01*
X313853869Y-119538541D01*
X313949107Y-119586160D01*
X314139583Y-119633779D01*
X314377678Y-119633779D01*
X314568154Y-119586160D01*
X314663392Y-119538541D01*
X314711011Y-119490922D01*
X314758630Y-119395684D01*
X314758630Y-119300446D01*
X314711011Y-119205208D01*
X314663392Y-119157589D01*
X314568154Y-119109970D01*
X314377678Y-119062351D01*
X314139583Y-119062351D01*
X313949107Y-119109970D01*
X313853869Y-119157589D01*
X313806250Y-119205208D01*
X313758630Y-119300446D01*
%TO.C,C3*%
X286855476Y-136204149D02*
X286922819Y-136204149D01*
X287057506Y-136136805D01*
X287124850Y-136069462D01*
X287192193Y-135934774D01*
X287192193Y-135800087D01*
X287158522Y-135699072D01*
X287057506Y-135530713D01*
X286956491Y-135429698D01*
X286788132Y-135328683D01*
X286687117Y-135295011D01*
X286552430Y-135295011D01*
X286417743Y-135362355D01*
X286350399Y-135429698D01*
X286283056Y-135564385D01*
X286283056Y-135631729D01*
X285980010Y-135800087D02*
X285542277Y-136237820D01*
X286047354Y-136271492D01*
X285946338Y-136372507D01*
X285912667Y-136473523D01*
X285912667Y-136540866D01*
X285946338Y-136641881D01*
X286114697Y-136810240D01*
X286215712Y-136843912D01*
X286283056Y-136843912D01*
X286384071Y-136810240D01*
X286586102Y-136608210D01*
X286619774Y-136507194D01*
X286619774Y-136439851D01*
%TO.C,KD13*%
X229033630Y-78057589D02*
X228033630Y-78057589D01*
X229033630Y-78629017D02*
X228462202Y-78200446D01*
X228033630Y-78629017D02*
X228605059Y-78057589D01*
X229033630Y-79057589D02*
X228033630Y-79057589D01*
X228033630Y-79295684D01*
X228081250Y-79438541D01*
X228176488Y-79533779D01*
X228271726Y-79581398D01*
X228462202Y-79629017D01*
X228605059Y-79629017D01*
X228795535Y-79581398D01*
X228890773Y-79533779D01*
X228986011Y-79438541D01*
X229033630Y-79295684D01*
X229033630Y-79057589D01*
X229033630Y-80581398D02*
X229033630Y-80009970D01*
X229033630Y-80295684D02*
X228033630Y-80295684D01*
X228176488Y-80200446D01*
X228271726Y-80105208D01*
X228319345Y-80009970D01*
X228033630Y-80914732D02*
X228033630Y-81533779D01*
X228414583Y-81200446D01*
X228414583Y-81343303D01*
X228462202Y-81438541D01*
X228509821Y-81486160D01*
X228605059Y-81533779D01*
X228843154Y-81533779D01*
X228938392Y-81486160D01*
X228986011Y-81438541D01*
X229033630Y-81343303D01*
X229033630Y-81057589D01*
X228986011Y-80962351D01*
X228938392Y-80914732D01*
%TO.C,R6*%
X69807380Y-104528958D02*
X69331190Y-104195625D01*
X69807380Y-103957529D02*
X68807380Y-103957529D01*
X68807380Y-104338482D01*
X68855000Y-104433720D01*
X68902619Y-104481339D01*
X68997857Y-104528958D01*
X69140714Y-104528958D01*
X69235952Y-104481339D01*
X69283571Y-104433720D01*
X69331190Y-104338482D01*
X69331190Y-103957529D01*
X68807380Y-105386101D02*
X68807380Y-105195625D01*
X68855000Y-105100386D01*
X68902619Y-105052767D01*
X69045476Y-104957529D01*
X69235952Y-104909910D01*
X69616904Y-104909910D01*
X69712142Y-104957529D01*
X69759761Y-105005148D01*
X69807380Y-105100386D01*
X69807380Y-105290863D01*
X69759761Y-105386101D01*
X69712142Y-105433720D01*
X69616904Y-105481339D01*
X69378809Y-105481339D01*
X69283571Y-105433720D01*
X69235952Y-105386101D01*
X69188333Y-105290863D01*
X69188333Y-105100386D01*
X69235952Y-105005148D01*
X69283571Y-104957529D01*
X69378809Y-104909910D01*
%TO.C,KD9*%
X76633630Y-78533779D02*
X75633630Y-78533779D01*
X76633630Y-79105208D02*
X76062202Y-78676636D01*
X75633630Y-79105208D02*
X76205059Y-78533779D01*
X76633630Y-79533779D02*
X75633630Y-79533779D01*
X75633630Y-79771875D01*
X75681250Y-79914732D01*
X75776488Y-80009970D01*
X75871726Y-80057589D01*
X76062202Y-80105208D01*
X76205059Y-80105208D01*
X76395535Y-80057589D01*
X76490773Y-80009970D01*
X76586011Y-79914732D01*
X76633630Y-79771875D01*
X76633630Y-79533779D01*
X76633630Y-80581398D02*
X76633630Y-80771875D01*
X76586011Y-80867113D01*
X76538392Y-80914732D01*
X76395535Y-81009970D01*
X76205059Y-81057589D01*
X75824107Y-81057589D01*
X75728869Y-81009970D01*
X75681250Y-80962351D01*
X75633630Y-80867113D01*
X75633630Y-80676636D01*
X75681250Y-80581398D01*
X75728869Y-80533779D01*
X75824107Y-80486160D01*
X76062202Y-80486160D01*
X76157440Y-80533779D01*
X76205059Y-80581398D01*
X76252678Y-80676636D01*
X76252678Y-80867113D01*
X76205059Y-80962351D01*
X76157440Y-81009970D01*
X76062202Y-81057589D01*
%TO.C,R3*%
X281598630Y-115323958D02*
X281122440Y-114990625D01*
X281598630Y-114752529D02*
X280598630Y-114752529D01*
X280598630Y-115133482D01*
X280646250Y-115228720D01*
X280693869Y-115276339D01*
X280789107Y-115323958D01*
X280931964Y-115323958D01*
X281027202Y-115276339D01*
X281074821Y-115228720D01*
X281122440Y-115133482D01*
X281122440Y-114752529D01*
X280598630Y-115657291D02*
X280598630Y-116276339D01*
X280979583Y-115943005D01*
X280979583Y-116085863D01*
X281027202Y-116181101D01*
X281074821Y-116228720D01*
X281170059Y-116276339D01*
X281408154Y-116276339D01*
X281503392Y-116228720D01*
X281551011Y-116181101D01*
X281598630Y-116085863D01*
X281598630Y-115800148D01*
X281551011Y-115704910D01*
X281503392Y-115657291D01*
%TO.C,KD34*%
X200458630Y-135207589D02*
X199458630Y-135207589D01*
X200458630Y-135779017D02*
X199887202Y-135350446D01*
X199458630Y-135779017D02*
X200030059Y-135207589D01*
X200458630Y-136207589D02*
X199458630Y-136207589D01*
X199458630Y-136445684D01*
X199506250Y-136588541D01*
X199601488Y-136683779D01*
X199696726Y-136731398D01*
X199887202Y-136779017D01*
X200030059Y-136779017D01*
X200220535Y-136731398D01*
X200315773Y-136683779D01*
X200411011Y-136588541D01*
X200458630Y-136445684D01*
X200458630Y-136207589D01*
X199458630Y-137112351D02*
X199458630Y-137731398D01*
X199839583Y-137398065D01*
X199839583Y-137540922D01*
X199887202Y-137636160D01*
X199934821Y-137683779D01*
X200030059Y-137731398D01*
X200268154Y-137731398D01*
X200363392Y-137683779D01*
X200411011Y-137636160D01*
X200458630Y-137540922D01*
X200458630Y-137255208D01*
X200411011Y-137159970D01*
X200363392Y-137112351D01*
X199791964Y-138588541D02*
X200458630Y-138588541D01*
X199411011Y-138350446D02*
X200125297Y-138112351D01*
X200125297Y-138731398D01*
%TO.C,KD22*%
X271896130Y-97107589D02*
X270896130Y-97107589D01*
X271896130Y-97679017D02*
X271324702Y-97250446D01*
X270896130Y-97679017D02*
X271467559Y-97107589D01*
X271896130Y-98107589D02*
X270896130Y-98107589D01*
X270896130Y-98345684D01*
X270943750Y-98488541D01*
X271038988Y-98583779D01*
X271134226Y-98631398D01*
X271324702Y-98679017D01*
X271467559Y-98679017D01*
X271658035Y-98631398D01*
X271753273Y-98583779D01*
X271848511Y-98488541D01*
X271896130Y-98345684D01*
X271896130Y-98107589D01*
X270991369Y-99059970D02*
X270943750Y-99107589D01*
X270896130Y-99202827D01*
X270896130Y-99440922D01*
X270943750Y-99536160D01*
X270991369Y-99583779D01*
X271086607Y-99631398D01*
X271181845Y-99631398D01*
X271324702Y-99583779D01*
X271896130Y-99012351D01*
X271896130Y-99631398D01*
X270991369Y-100012351D02*
X270943750Y-100059970D01*
X270896130Y-100155208D01*
X270896130Y-100393303D01*
X270943750Y-100488541D01*
X270991369Y-100536160D01*
X271086607Y-100583779D01*
X271181845Y-100583779D01*
X271324702Y-100536160D01*
X271896130Y-99964732D01*
X271896130Y-100583779D01*
%TO.C,KD20*%
X195696130Y-97107589D02*
X194696130Y-97107589D01*
X195696130Y-97679017D02*
X195124702Y-97250446D01*
X194696130Y-97679017D02*
X195267559Y-97107589D01*
X195696130Y-98107589D02*
X194696130Y-98107589D01*
X194696130Y-98345684D01*
X194743750Y-98488541D01*
X194838988Y-98583779D01*
X194934226Y-98631398D01*
X195124702Y-98679017D01*
X195267559Y-98679017D01*
X195458035Y-98631398D01*
X195553273Y-98583779D01*
X195648511Y-98488541D01*
X195696130Y-98345684D01*
X195696130Y-98107589D01*
X194791369Y-99059970D02*
X194743750Y-99107589D01*
X194696130Y-99202827D01*
X194696130Y-99440922D01*
X194743750Y-99536160D01*
X194791369Y-99583779D01*
X194886607Y-99631398D01*
X194981845Y-99631398D01*
X195124702Y-99583779D01*
X195696130Y-99012351D01*
X195696130Y-99631398D01*
X194696130Y-100250446D02*
X194696130Y-100345684D01*
X194743750Y-100440922D01*
X194791369Y-100488541D01*
X194886607Y-100536160D01*
X195077083Y-100583779D01*
X195315178Y-100583779D01*
X195505654Y-100536160D01*
X195600892Y-100488541D01*
X195648511Y-100440922D01*
X195696130Y-100345684D01*
X195696130Y-100250446D01*
X195648511Y-100155208D01*
X195600892Y-100107589D01*
X195505654Y-100059970D01*
X195315178Y-100012351D01*
X195077083Y-100012351D01*
X194886607Y-100059970D01*
X194791369Y-100107589D01*
X194743750Y-100155208D01*
X194696130Y-100250446D01*
%TO.C,C8*%
X283217916Y-125104142D02*
X283265535Y-125151761D01*
X283408392Y-125199380D01*
X283503630Y-125199380D01*
X283646488Y-125151761D01*
X283741726Y-125056523D01*
X283789345Y-124961285D01*
X283836964Y-124770809D01*
X283836964Y-124627952D01*
X283789345Y-124437476D01*
X283741726Y-124342238D01*
X283646488Y-124247000D01*
X283503630Y-124199380D01*
X283408392Y-124199380D01*
X283265535Y-124247000D01*
X283217916Y-124294619D01*
X282646488Y-124627952D02*
X282741726Y-124580333D01*
X282789345Y-124532714D01*
X282836964Y-124437476D01*
X282836964Y-124389857D01*
X282789345Y-124294619D01*
X282741726Y-124247000D01*
X282646488Y-124199380D01*
X282456011Y-124199380D01*
X282360773Y-124247000D01*
X282313154Y-124294619D01*
X282265535Y-124389857D01*
X282265535Y-124437476D01*
X282313154Y-124532714D01*
X282360773Y-124580333D01*
X282456011Y-124627952D01*
X282646488Y-124627952D01*
X282741726Y-124675571D01*
X282789345Y-124723190D01*
X282836964Y-124818428D01*
X282836964Y-125008904D01*
X282789345Y-125104142D01*
X282741726Y-125151761D01*
X282646488Y-125199380D01*
X282456011Y-125199380D01*
X282360773Y-125151761D01*
X282313154Y-125104142D01*
X282265535Y-125008904D01*
X282265535Y-124818428D01*
X282313154Y-124723190D01*
X282360773Y-124675571D01*
X282456011Y-124627952D01*
%TO.C,KD7*%
X295708630Y-59483779D02*
X294708630Y-59483779D01*
X295708630Y-60055208D02*
X295137202Y-59626636D01*
X294708630Y-60055208D02*
X295280059Y-59483779D01*
X295708630Y-60483779D02*
X294708630Y-60483779D01*
X294708630Y-60721875D01*
X294756250Y-60864732D01*
X294851488Y-60959970D01*
X294946726Y-61007589D01*
X295137202Y-61055208D01*
X295280059Y-61055208D01*
X295470535Y-61007589D01*
X295565773Y-60959970D01*
X295661011Y-60864732D01*
X295708630Y-60721875D01*
X295708630Y-60483779D01*
X294708630Y-61388541D02*
X294708630Y-62055208D01*
X295708630Y-61626636D01*
%TO.C,KD15*%
X305233630Y-78057589D02*
X304233630Y-78057589D01*
X305233630Y-78629017D02*
X304662202Y-78200446D01*
X304233630Y-78629017D02*
X304805059Y-78057589D01*
X305233630Y-79057589D02*
X304233630Y-79057589D01*
X304233630Y-79295684D01*
X304281250Y-79438541D01*
X304376488Y-79533779D01*
X304471726Y-79581398D01*
X304662202Y-79629017D01*
X304805059Y-79629017D01*
X304995535Y-79581398D01*
X305090773Y-79533779D01*
X305186011Y-79438541D01*
X305233630Y-79295684D01*
X305233630Y-79057589D01*
X305233630Y-80581398D02*
X305233630Y-80009970D01*
X305233630Y-80295684D02*
X304233630Y-80295684D01*
X304376488Y-80200446D01*
X304471726Y-80105208D01*
X304519345Y-80009970D01*
X304233630Y-81486160D02*
X304233630Y-81009970D01*
X304709821Y-80962351D01*
X304662202Y-81009970D01*
X304614583Y-81105208D01*
X304614583Y-81343303D01*
X304662202Y-81438541D01*
X304709821Y-81486160D01*
X304805059Y-81533779D01*
X305043154Y-81533779D01*
X305138392Y-81486160D01*
X305186011Y-81438541D01*
X305233630Y-81343303D01*
X305233630Y-81105208D01*
X305186011Y-81009970D01*
X305138392Y-80962351D01*
%TO.C,U1*%
X203168324Y-58388365D02*
X203168324Y-59197889D01*
X203120705Y-59293127D01*
X203073086Y-59340746D01*
X202977848Y-59388365D01*
X202787372Y-59388365D01*
X202692134Y-59340746D01*
X202644515Y-59293127D01*
X202596896Y-59197889D01*
X202596896Y-58388365D01*
X201596896Y-59388365D02*
X202168324Y-59388365D01*
X201882610Y-59388365D02*
X201882610Y-58388365D01*
X201977848Y-58531223D01*
X202073086Y-58626461D01*
X202168324Y-58674080D01*
%TO.C,KD29*%
X262371130Y-116157589D02*
X261371130Y-116157589D01*
X262371130Y-116729017D02*
X261799702Y-116300446D01*
X261371130Y-116729017D02*
X261942559Y-116157589D01*
X262371130Y-117157589D02*
X261371130Y-117157589D01*
X261371130Y-117395684D01*
X261418750Y-117538541D01*
X261513988Y-117633779D01*
X261609226Y-117681398D01*
X261799702Y-117729017D01*
X261942559Y-117729017D01*
X262133035Y-117681398D01*
X262228273Y-117633779D01*
X262323511Y-117538541D01*
X262371130Y-117395684D01*
X262371130Y-117157589D01*
X261466369Y-118109970D02*
X261418750Y-118157589D01*
X261371130Y-118252827D01*
X261371130Y-118490922D01*
X261418750Y-118586160D01*
X261466369Y-118633779D01*
X261561607Y-118681398D01*
X261656845Y-118681398D01*
X261799702Y-118633779D01*
X262371130Y-118062351D01*
X262371130Y-118681398D01*
X262371130Y-119157589D02*
X262371130Y-119348065D01*
X262323511Y-119443303D01*
X262275892Y-119490922D01*
X262133035Y-119586160D01*
X261942559Y-119633779D01*
X261561607Y-119633779D01*
X261466369Y-119586160D01*
X261418750Y-119538541D01*
X261371130Y-119443303D01*
X261371130Y-119252827D01*
X261418750Y-119157589D01*
X261466369Y-119109970D01*
X261561607Y-119062351D01*
X261799702Y-119062351D01*
X261894940Y-119109970D01*
X261942559Y-119157589D01*
X261990178Y-119252827D01*
X261990178Y-119443303D01*
X261942559Y-119538541D01*
X261894940Y-119586160D01*
X261799702Y-119633779D01*
%TO.C,C4*%
X282929514Y-132500437D02*
X282996857Y-132500437D01*
X283131544Y-132433093D01*
X283198888Y-132365750D01*
X283266231Y-132231062D01*
X283266231Y-132096375D01*
X283232560Y-131995360D01*
X283131544Y-131827001D01*
X283030529Y-131725986D01*
X282862170Y-131624971D01*
X282761155Y-131591299D01*
X282626468Y-131591299D01*
X282491781Y-131658643D01*
X282424437Y-131725986D01*
X282357094Y-131860673D01*
X282357094Y-131928017D01*
X281919361Y-132702467D02*
X282390766Y-133173872D01*
X281818346Y-132264734D02*
X282491781Y-132601452D01*
X282054048Y-133039185D01*
D11*
%TO.C,Y1*%
X297149250Y-119840625D02*
X300449250Y-119840625D01*
X300449250Y-119840625D02*
X300449250Y-123840625D01*
%TO.C,J1*%
X197706250Y-44240000D02*
X207106250Y-44240000D01*
X207106250Y-50040000D02*
X207106250Y-48040000D01*
X197706250Y-46140000D02*
X197706250Y-44240000D01*
X197706250Y-50040000D02*
X197706250Y-48040000D01*
X207106250Y-46140000D02*
X207106250Y-44240000D01*
%TO.C,KD25*%
X113478750Y-117871875D02*
X113478750Y-117221875D01*
X113478750Y-117871875D02*
X113478750Y-118521875D01*
X110358750Y-117871875D02*
X110358750Y-118521875D01*
X110358750Y-117871875D02*
X110358750Y-116196875D01*
%TO.C,KD1*%
X70616250Y-60721875D02*
X70616250Y-60071875D01*
X70616250Y-60721875D02*
X70616250Y-61371875D01*
X67496250Y-60721875D02*
X67496250Y-59046875D01*
X67496250Y-60721875D02*
X67496250Y-61371875D01*
%TO.C,SW1*%
X287866250Y-103230625D02*
X285866250Y-103230625D01*
X289616250Y-107230625D02*
X289616250Y-104730625D01*
X289166250Y-107680625D02*
X289616250Y-107230625D01*
X284566250Y-104280625D02*
X284116250Y-104730625D01*
X289166250Y-104280625D02*
X289616250Y-104730625D01*
X287866250Y-108730625D02*
X285866250Y-108730625D01*
X284566250Y-107680625D02*
X284116250Y-107230625D01*
X284116250Y-107230625D02*
X284116250Y-104730625D01*
%TO.C,KD31*%
X337316250Y-117871875D02*
X337316250Y-118521875D01*
X334196250Y-117871875D02*
X334196250Y-118521875D01*
X334196250Y-117871875D02*
X334196250Y-116196875D01*
X337316250Y-117871875D02*
X337316250Y-117221875D01*
%TO.C,KD27*%
X189678750Y-117871875D02*
X189678750Y-117221875D01*
X189678750Y-117871875D02*
X189678750Y-118521875D01*
X186558750Y-117871875D02*
X186558750Y-118521875D01*
X186558750Y-117871875D02*
X186558750Y-116196875D01*
%TO.C,KD4*%
X184916250Y-60721875D02*
X184916250Y-60071875D01*
X181796250Y-60721875D02*
X181796250Y-61371875D01*
X181796250Y-60721875D02*
X181796250Y-59046875D01*
X184916250Y-60721875D02*
X184916250Y-61371875D01*
%TO.C,R4*%
X266970742Y-124744375D02*
X267445258Y-124744375D01*
X266970742Y-123699375D02*
X267445258Y-123699375D01*
%TO.C,C2*%
X298293250Y-132495045D02*
X298293250Y-132776205D01*
X297273250Y-132495045D02*
X297273250Y-132776205D01*
%TO.C,KD19*%
X161103750Y-98821875D02*
X161103750Y-98171875D01*
X157983750Y-98821875D02*
X157983750Y-99471875D01*
X157983750Y-98821875D02*
X157983750Y-97146875D01*
X161103750Y-98821875D02*
X161103750Y-99471875D01*
%TO.C,KD23*%
X326838750Y-98821875D02*
X326838750Y-99471875D01*
X323718750Y-98821875D02*
X323718750Y-99471875D01*
X323718750Y-98821875D02*
X323718750Y-97146875D01*
X326838750Y-98821875D02*
X326838750Y-98171875D01*
%TO.C,KD12*%
X191321250Y-79771875D02*
X191321250Y-78096875D01*
X194441250Y-79771875D02*
X194441250Y-79121875D01*
X194441250Y-79771875D02*
X194441250Y-80421875D01*
X191321250Y-79771875D02*
X191321250Y-80421875D01*
D10*
%TO.C,U2*%
X297735805Y-128317625D02*
X297258508Y-127840328D01*
X297735805Y-128317625D02*
X297258508Y-128794922D01*
X290417250Y-135636180D02*
X290894547Y-135158883D01*
X283098695Y-128317625D02*
X283575992Y-128794922D01*
X290417250Y-120999070D02*
X290894547Y-121476367D01*
X290417250Y-135636180D02*
X289939953Y-135158883D01*
X290417250Y-120999070D02*
X289939953Y-121476367D01*
X283505281Y-127911039D02*
X282603720Y-127009477D01*
X283098695Y-128317625D02*
X283505281Y-127911039D01*
D11*
%TO.C,KD36*%
X315146250Y-136921875D02*
X315146250Y-135246875D01*
X318266250Y-136921875D02*
X318266250Y-137571875D01*
X315146250Y-136921875D02*
X315146250Y-137571875D01*
X318266250Y-136921875D02*
X318266250Y-136271875D01*
%TO.C,KD11*%
X153221250Y-79771875D02*
X153221250Y-78096875D01*
X156341250Y-79771875D02*
X156341250Y-79121875D01*
X156341250Y-79771875D02*
X156341250Y-80421875D01*
X153221250Y-79771875D02*
X153221250Y-80421875D01*
%TO.C,FB1*%
X209118628Y-51788625D02*
X209917872Y-51788625D01*
X209118628Y-50668625D02*
X209917872Y-50668625D01*
%TO.C,KD32*%
X80141250Y-136921875D02*
X80141250Y-137571875D01*
X80141250Y-136921875D02*
X80141250Y-136271875D01*
X77021250Y-136921875D02*
X77021250Y-135246875D01*
X77021250Y-136921875D02*
X77021250Y-137571875D01*
%TO.C,R2*%
X203744300Y-56317477D02*
X203744300Y-56791993D01*
X204789300Y-56317477D02*
X204789300Y-56791993D01*
%TO.C,KD24*%
X91308750Y-117871875D02*
X91308750Y-116196875D01*
X94428750Y-117871875D02*
X94428750Y-117221875D01*
X94428750Y-117871875D02*
X94428750Y-118521875D01*
X91308750Y-117871875D02*
X91308750Y-118521875D01*
%TO.C,KD28*%
X224658750Y-117871875D02*
X224658750Y-116196875D01*
X227778750Y-117871875D02*
X227778750Y-118521875D01*
X227778750Y-117871875D02*
X227778750Y-117221875D01*
X224658750Y-117871875D02*
X224658750Y-118521875D01*
%TO.C,KD3*%
X146816250Y-60721875D02*
X146816250Y-60071875D01*
X143696250Y-60721875D02*
X143696250Y-59046875D01*
X143696250Y-60721875D02*
X143696250Y-61371875D01*
X146816250Y-60721875D02*
X146816250Y-61371875D01*
%TO.C,KD26*%
X148458750Y-117871875D02*
X148458750Y-118521875D01*
X151578750Y-117871875D02*
X151578750Y-118521875D01*
X148458750Y-117871875D02*
X148458750Y-116196875D01*
X151578750Y-117871875D02*
X151578750Y-117221875D01*
%TO.C,R5*%
X266970742Y-125223375D02*
X267445258Y-125223375D01*
X266970742Y-126268375D02*
X267445258Y-126268375D01*
%TO.C,KD37*%
X334196250Y-136921875D02*
X334196250Y-137571875D01*
X337316250Y-136921875D02*
X337316250Y-137571875D01*
X334196250Y-136921875D02*
X334196250Y-135246875D01*
X337316250Y-136921875D02*
X337316250Y-136271875D01*
%TO.C,F1*%
X198121200Y-55062622D02*
X198121200Y-55579778D01*
X199541200Y-55062622D02*
X199541200Y-55579778D01*
%TO.C,LED1*%
X61892500Y-102790625D02*
X59292500Y-102790625D01*
X59292500Y-102790625D02*
X59292500Y-102850625D01*
%TO.C,KD5*%
X219896250Y-60721875D02*
X219896250Y-59046875D01*
X219896250Y-60721875D02*
X219896250Y-61371875D01*
X223016250Y-60721875D02*
X223016250Y-61371875D01*
X223016250Y-60721875D02*
X223016250Y-60071875D01*
%TO.C,C1*%
X294188228Y-120650398D02*
X294387039Y-120451587D01*
X294909477Y-121371647D02*
X295108288Y-121172836D01*
%TO.C,KD2*%
X108716250Y-60721875D02*
X108716250Y-61371875D01*
X105596250Y-60721875D02*
X105596250Y-61371875D01*
X108716250Y-60721875D02*
X108716250Y-60071875D01*
X105596250Y-60721875D02*
X105596250Y-59046875D01*
%TO.C,R7*%
X293539947Y-136543395D02*
X293875480Y-136878928D01*
X292801020Y-137282322D02*
X293136553Y-137617855D01*
%TO.C,R1*%
X201080900Y-56317477D02*
X201080900Y-56791993D01*
X200035900Y-56317477D02*
X200035900Y-56791993D01*
%TO.C,ISP1*%
X284261250Y-115998625D02*
X286861250Y-115998625D01*
X289461250Y-118598625D02*
X289461250Y-110858625D01*
X284261250Y-110858625D02*
X289461250Y-110858625D01*
X284261250Y-117268625D02*
X284261250Y-118598625D01*
X284261250Y-115998625D02*
X284261250Y-110858625D01*
X284261250Y-118598625D02*
X285591250Y-118598625D01*
X286861250Y-118598625D02*
X289461250Y-118598625D01*
X286861250Y-115998625D02*
X286861250Y-118598625D01*
%TO.C,KD10*%
X118241250Y-79771875D02*
X118241250Y-80421875D01*
X115121250Y-79771875D02*
X115121250Y-78096875D01*
X118241250Y-79771875D02*
X118241250Y-79121875D01*
X115121250Y-79771875D02*
X115121250Y-80421875D01*
%TO.C,C6*%
X298939830Y-125271625D02*
X298658670Y-125271625D01*
X298939830Y-124251625D02*
X298658670Y-124251625D01*
%TO.C,C5*%
X283890330Y-122318875D02*
X283609170Y-122318875D01*
X283890330Y-121298875D02*
X283609170Y-121298875D01*
%TO.C,KD17*%
X81783750Y-98821875D02*
X81783750Y-99471875D01*
X84903750Y-98821875D02*
X84903750Y-99471875D01*
X84903750Y-98821875D02*
X84903750Y-98171875D01*
X81783750Y-98821875D02*
X81783750Y-97146875D01*
%TO.C,C7*%
X298939830Y-119429625D02*
X298658670Y-119429625D01*
X298939830Y-118409625D02*
X298658670Y-118409625D01*
%TO.C,KD21*%
X234183750Y-98821875D02*
X234183750Y-99471875D01*
X234183750Y-98821875D02*
X234183750Y-97146875D01*
X237303750Y-98821875D02*
X237303750Y-98171875D01*
X237303750Y-98821875D02*
X237303750Y-99471875D01*
%TO.C,KD33*%
X127766250Y-136921875D02*
X127766250Y-137571875D01*
X124646250Y-136921875D02*
X124646250Y-135246875D01*
X127766250Y-136921875D02*
X127766250Y-136271875D01*
X124646250Y-136921875D02*
X124646250Y-137571875D01*
%TO.C,KD14*%
X267521250Y-79771875D02*
X267521250Y-80421875D01*
X267521250Y-79771875D02*
X267521250Y-78096875D01*
X270641250Y-79771875D02*
X270641250Y-79121875D01*
X270641250Y-79771875D02*
X270641250Y-80421875D01*
%TO.C,KD6*%
X257996250Y-60721875D02*
X257996250Y-59046875D01*
X261116250Y-60721875D02*
X261116250Y-60071875D01*
X261116250Y-60721875D02*
X261116250Y-61371875D01*
X257996250Y-60721875D02*
X257996250Y-61371875D01*
%TO.C,KD16*%
X337316250Y-79771875D02*
X337316250Y-80421875D01*
X334196250Y-79771875D02*
X334196250Y-80421875D01*
X337316250Y-79771875D02*
X337316250Y-79121875D01*
X334196250Y-79771875D02*
X334196250Y-78096875D01*
%TO.C,KD18*%
X123003750Y-98821875D02*
X123003750Y-99471875D01*
X119883750Y-98821875D02*
X119883750Y-99471875D01*
X123003750Y-98821875D02*
X123003750Y-98171875D01*
X119883750Y-98821875D02*
X119883750Y-97146875D01*
%TO.C,KD35*%
X257996250Y-136921875D02*
X257996250Y-137571875D01*
X261116250Y-136921875D02*
X261116250Y-137571875D01*
X261116250Y-136921875D02*
X261116250Y-136271875D01*
X257996250Y-136921875D02*
X257996250Y-135246875D01*
%TO.C,KD8*%
X337316250Y-60721875D02*
X337316250Y-61371875D01*
X337316250Y-60721875D02*
X337316250Y-60071875D01*
X334196250Y-60721875D02*
X334196250Y-59046875D01*
X334196250Y-60721875D02*
X334196250Y-61371875D01*
%TO.C,KD30*%
X318266250Y-117871875D02*
X318266250Y-117221875D01*
X315146250Y-117871875D02*
X315146250Y-118521875D01*
X315146250Y-117871875D02*
X315146250Y-116196875D01*
X318266250Y-117871875D02*
X318266250Y-118521875D01*
%TO.C,C3*%
X287956280Y-137341844D02*
X287757469Y-137540655D01*
X287235031Y-136620595D02*
X287036220Y-136819406D01*
%TO.C,KD13*%
X229421250Y-79771875D02*
X229421250Y-78096875D01*
X232541250Y-79771875D02*
X232541250Y-79121875D01*
X229421250Y-79771875D02*
X229421250Y-80421875D01*
X232541250Y-79771875D02*
X232541250Y-80421875D01*
%TO.C,R6*%
X68447500Y-104932883D02*
X68447500Y-104458367D01*
X67402500Y-104932883D02*
X67402500Y-104458367D01*
%TO.C,KD9*%
X77021250Y-79771875D02*
X77021250Y-80421875D01*
X77021250Y-79771875D02*
X77021250Y-78096875D01*
X80141250Y-79771875D02*
X80141250Y-80421875D01*
X80141250Y-79771875D02*
X80141250Y-79121875D01*
%TO.C,R3*%
X282020750Y-115727883D02*
X282020750Y-115253367D01*
X283065750Y-115727883D02*
X283065750Y-115253367D01*
%TO.C,KD34*%
X200846250Y-136921875D02*
X200846250Y-137571875D01*
X203966250Y-136921875D02*
X203966250Y-136271875D01*
X200846250Y-136921875D02*
X200846250Y-135246875D01*
X203966250Y-136921875D02*
X203966250Y-137571875D01*
%TO.C,KD22*%
X272283750Y-98821875D02*
X272283750Y-99471875D01*
X275403750Y-98821875D02*
X275403750Y-99471875D01*
X272283750Y-98821875D02*
X272283750Y-97146875D01*
X275403750Y-98821875D02*
X275403750Y-98171875D01*
%TO.C,KD20*%
X196083750Y-98821875D02*
X196083750Y-99471875D01*
X196083750Y-98821875D02*
X196083750Y-97146875D01*
X199203750Y-98821875D02*
X199203750Y-98171875D01*
X199203750Y-98821875D02*
X199203750Y-99471875D01*
%TO.C,C8*%
X283609170Y-123827000D02*
X283890330Y-123827000D01*
X283609170Y-122807000D02*
X283890330Y-122807000D01*
%TO.C,LED1a1*%
X64055000Y-102790625D02*
X64055000Y-102850625D01*
X66655000Y-102790625D02*
X64055000Y-102790625D01*
%TO.C,KD7*%
X299216250Y-60721875D02*
X299216250Y-60071875D01*
X299216250Y-60721875D02*
X299216250Y-61371875D01*
X296096250Y-60721875D02*
X296096250Y-61371875D01*
X296096250Y-60721875D02*
X296096250Y-59046875D01*
%TO.C,KD15*%
X305621250Y-79771875D02*
X305621250Y-78096875D01*
X308741250Y-79771875D02*
X308741250Y-80421875D01*
X305621250Y-79771875D02*
X305621250Y-80421875D01*
X308741250Y-79771875D02*
X308741250Y-79121875D01*
%TO.C,U1*%
X201506420Y-57354735D02*
X201506420Y-55454735D01*
X203306420Y-55754735D02*
X203306420Y-57354735D01*
%TO.C,KD29*%
X262758750Y-117871875D02*
X262758750Y-118521875D01*
X265878750Y-117871875D02*
X265878750Y-118521875D01*
X265878750Y-117871875D02*
X265878750Y-117221875D01*
X262758750Y-117871875D02*
X262758750Y-116196875D01*
%TO.C,C4*%
X281345406Y-130715095D02*
X281146595Y-130913906D01*
X282066655Y-131436344D02*
X281867844Y-131635155D01*
%TD*%
M02*
