%TF.GenerationSoftware,KiCad,Pcbnew,(5.99.0-11177-g6c67dfa032)*%
%TF.CreationDate,2021-09-16T00:40:47+03:00*%
%TF.ProjectId,Charon_32U4_Hotswap,43686172-6f6e-45f3-9332-55345f486f74,rev?*%
%TF.SameCoordinates,Original*%
%TF.FileFunction,Paste,Bot*%
%TF.FilePolarity,Positive*%
%FSLAX46Y46*%
G04 Gerber Fmt 4.6, Leading zero omitted, Abs format (unit mm)*
G04 Created by KiCad (PCBNEW (5.99.0-11177-g6c67dfa032)) date 2021-09-16 00:40:47*
%MOMM*%
%LPD*%
G01*
G04 APERTURE LIST*
G04 Aperture macros list*
%AMRoundRect*
0 Rectangle with rounded corners*
0 $1 Rounding radius*
0 $2 $3 $4 $5 $6 $7 $8 $9 X,Y pos of 4 corners*
0 Add a 4 corners polygon primitive as box body*
4,1,4,$2,$3,$4,$5,$6,$7,$8,$9,$2,$3,0*
0 Add four circle primitives for the rounded corners*
1,1,$1+$1,$2,$3*
1,1,$1+$1,$4,$5*
1,1,$1+$1,$6,$7*
1,1,$1+$1,$8,$9*
0 Add four rect primitives between the rounded corners*
20,1,$1+$1,$2,$3,$4,$5,0*
20,1,$1+$1,$4,$5,$6,$7,0*
20,1,$1+$1,$6,$7,$8,$9,0*
20,1,$1+$1,$8,$9,$2,$3,0*%
%AMRotRect*
0 Rectangle, with rotation*
0 The origin of the aperture is its center*
0 $1 length*
0 $2 width*
0 $3 Rotation angle, in degrees counterclockwise*
0 Add horizontal line*
21,1,$1,$2,0,0,$3*%
G04 Aperture macros list end*
%ADD10R,2.550000X2.500000*%
%ADD11R,0.600000X1.450000*%
%ADD12R,0.300000X1.450000*%
%ADD13RoundRect,0.150000X-0.150000X0.587500X-0.150000X-0.587500X0.150000X-0.587500X0.150000X0.587500X0*%
%ADD14R,2.500000X2.550000*%
%ADD15R,1.000000X1.700000*%
%ADD16RoundRect,0.200000X-0.200000X-0.275000X0.200000X-0.275000X0.200000X0.275000X-0.200000X0.275000X0*%
%ADD17RoundRect,0.225000X-0.250000X0.225000X-0.250000X-0.225000X0.250000X-0.225000X0.250000X0.225000X0*%
%ADD18RotRect,1.500000X0.550000X315.000000*%
%ADD19RotRect,1.500000X0.550000X225.000000*%
%ADD20RoundRect,0.218750X-0.381250X0.218750X-0.381250X-0.218750X0.381250X-0.218750X0.381250X0.218750X0*%
%ADD21RoundRect,0.200000X-0.275000X0.200000X-0.275000X-0.200000X0.275000X-0.200000X0.275000X0.200000X0*%
%ADD22RoundRect,0.225000X0.225000X0.250000X-0.225000X0.250000X-0.225000X-0.250000X0.225000X-0.250000X0*%
%ADD23RoundRect,0.243750X-0.456250X0.243750X-0.456250X-0.243750X0.456250X-0.243750X0.456250X0.243750X0*%
%ADD24R,1.200000X1.400000*%
%ADD25RoundRect,0.225000X0.017678X-0.335876X0.335876X-0.017678X-0.017678X0.335876X-0.335876X0.017678X0*%
%ADD26RoundRect,0.200000X-0.335876X-0.053033X-0.053033X-0.335876X0.335876X0.053033X0.053033X0.335876X0*%
%ADD27RoundRect,0.225000X-0.017678X0.335876X-0.335876X0.017678X0.017678X-0.335876X0.335876X-0.017678X0*%
%ADD28RoundRect,0.200000X0.275000X-0.200000X0.275000X0.200000X-0.275000X0.200000X-0.275000X-0.200000X0*%
%ADD29RoundRect,0.225000X-0.225000X-0.250000X0.225000X-0.250000X0.225000X0.250000X-0.225000X0.250000X0*%
%ADD30R,0.375000X0.500000*%
%ADD31R,0.300000X0.650000*%
G04 APERTURE END LIST*
D10*
%TO.C,K70*%
X337921250Y-132000625D03*
X351371250Y-129460625D03*
%TD*%
D11*
%TO.C,J1*%
X199156250Y-52185000D03*
X199956250Y-52185000D03*
D12*
X201156250Y-52185000D03*
X202156250Y-52185000D03*
X202656250Y-52185000D03*
X203656250Y-52185000D03*
D11*
X204856250Y-52185000D03*
X205656250Y-52185000D03*
X205656250Y-52185000D03*
X204856250Y-52185000D03*
D12*
X204156250Y-52185000D03*
X203156250Y-52185000D03*
X201656250Y-52185000D03*
X200656250Y-52185000D03*
D11*
X199956250Y-52185000D03*
X199156250Y-52185000D03*
%TD*%
D10*
%TO.C,K57*%
X292677500Y-112950625D03*
X306127500Y-110410625D03*
%TD*%
D13*
%TO.C,KD25*%
X110968750Y-116934375D03*
X112868750Y-116934375D03*
X111918750Y-118809375D03*
%TD*%
D10*
%TO.C,K58*%
X318871250Y-112950625D03*
X332321250Y-110410625D03*
%TD*%
%TO.C,K31*%
X74035000Y-98980625D03*
X60585000Y-101520625D03*
%TD*%
D14*
%TO.C,K43a1*%
X299878750Y-103800625D03*
X297338750Y-90350625D03*
%TD*%
D13*
%TO.C,KD1*%
X68106250Y-59784375D03*
X70006250Y-59784375D03*
X69056250Y-61659375D03*
%TD*%
D15*
%TO.C,SW1*%
X288766250Y-109130625D03*
X288766250Y-102830625D03*
X284966250Y-109130625D03*
X284966250Y-102830625D03*
%TD*%
D10*
%TO.C,K7*%
X166471250Y-55800625D03*
X179921250Y-53260625D03*
%TD*%
D13*
%TO.C,KD31*%
X334806250Y-116934375D03*
X336706250Y-116934375D03*
X335756250Y-118809375D03*
%TD*%
D10*
%TO.C,K49*%
X133133750Y-112950625D03*
X146583750Y-110410625D03*
%TD*%
%TO.C,K64a1*%
X185521250Y-132000625D03*
X198971250Y-129460625D03*
%TD*%
%TO.C,K34*%
X123608750Y-93900625D03*
X137058750Y-91360625D03*
%TD*%
%TO.C,K9*%
X219291250Y-60880625D03*
X205841250Y-63420625D03*
%TD*%
%TO.C,K33*%
X104558750Y-93900625D03*
X118008750Y-91360625D03*
%TD*%
D13*
%TO.C,KD27*%
X187168750Y-116934375D03*
X189068750Y-116934375D03*
X188118750Y-118809375D03*
%TD*%
%TO.C,KD4*%
X182406250Y-59784375D03*
X184306250Y-59784375D03*
X183356250Y-61659375D03*
%TD*%
D16*
%TO.C,R4*%
X266383000Y-124221875D03*
X268033000Y-124221875D03*
%TD*%
D17*
%TO.C,C2*%
X297656250Y-131860625D03*
X297656250Y-133410625D03*
%TD*%
D10*
%TO.C,K56*%
X266483750Y-112950625D03*
X279933750Y-110410625D03*
%TD*%
%TO.C,K54*%
X228383750Y-112950625D03*
X241833750Y-110410625D03*
%TD*%
%TO.C,K8*%
X200241250Y-60880625D03*
X186791250Y-63420625D03*
%TD*%
D13*
%TO.C,KD19*%
X158593750Y-97884375D03*
X160493750Y-97884375D03*
X159543750Y-99759375D03*
%TD*%
D10*
%TO.C,K24*%
X214096250Y-74850625D03*
X227546250Y-72310625D03*
%TD*%
D13*
%TO.C,KD23*%
X324328750Y-97884375D03*
X326228750Y-97884375D03*
X325278750Y-99759375D03*
%TD*%
%TO.C,KD12*%
X191931250Y-78834375D03*
X193831250Y-78834375D03*
X192881250Y-80709375D03*
%TD*%
D18*
%TO.C,U2*%
X283558314Y-127115543D03*
X284124000Y-126549858D03*
X284689685Y-125984173D03*
X285255370Y-125418487D03*
X285821056Y-124852802D03*
X286386741Y-124287116D03*
X286952427Y-123721431D03*
X287518112Y-123155745D03*
X288083798Y-122590060D03*
X288649483Y-122024375D03*
X289215168Y-121458689D03*
D19*
X291619332Y-121458689D03*
X292185017Y-122024375D03*
X292750702Y-122590060D03*
X293316388Y-123155745D03*
X293882073Y-123721431D03*
X294447759Y-124287116D03*
X295013444Y-124852802D03*
X295579130Y-125418487D03*
X296144815Y-125984173D03*
X296710500Y-126549858D03*
X297276186Y-127115543D03*
D18*
X297276186Y-129519707D03*
X296710500Y-130085392D03*
X296144815Y-130651077D03*
X295579130Y-131216763D03*
X295013444Y-131782448D03*
X294447759Y-132348134D03*
X293882073Y-132913819D03*
X293316388Y-133479505D03*
X292750702Y-134045190D03*
X292185017Y-134610875D03*
X291619332Y-135176561D03*
D19*
X289215168Y-135176561D03*
X288649483Y-134610875D03*
X288083798Y-134045190D03*
X287518112Y-133479505D03*
X286952427Y-132913819D03*
X286386741Y-132348134D03*
X285821056Y-131782448D03*
X285255370Y-131216763D03*
X284689685Y-130651077D03*
X284124000Y-130085392D03*
X283558314Y-129519707D03*
%TD*%
D13*
%TO.C,KD36*%
X315756250Y-135984375D03*
X317656250Y-135984375D03*
X316706250Y-137859375D03*
%TD*%
D10*
%TO.C,K40*%
X237908750Y-93900625D03*
X251358750Y-91360625D03*
%TD*%
%TO.C,K11*%
X242671250Y-55800625D03*
X256121250Y-53260625D03*
%TD*%
%TO.C,K15*%
X333591250Y-60880625D03*
X320141250Y-63420625D03*
%TD*%
D13*
%TO.C,KD11*%
X153831250Y-78834375D03*
X155731250Y-78834375D03*
X154781250Y-80709375D03*
%TD*%
D10*
%TO.C,K52*%
X190283750Y-112950625D03*
X203733750Y-110410625D03*
%TD*%
%TO.C,K53*%
X209333750Y-112950625D03*
X222783750Y-110410625D03*
%TD*%
%TO.C,K10*%
X223621250Y-55800625D03*
X237071250Y-53260625D03*
%TD*%
%TO.C,K63*%
X128371250Y-132000625D03*
X141821250Y-129460625D03*
%TD*%
D20*
%TO.C,FB1*%
X206881250Y-54178125D03*
X206881250Y-56303125D03*
%TD*%
D13*
%TO.C,KD32*%
X77631250Y-135984375D03*
X79531250Y-135984375D03*
X78581250Y-137859375D03*
%TD*%
D10*
%TO.C,K27*%
X271246250Y-74850625D03*
X284696250Y-72310625D03*
%TD*%
%TO.C,K51*%
X171233750Y-112950625D03*
X184683750Y-110410625D03*
%TD*%
D21*
%TO.C,R2*%
X204266800Y-55729735D03*
X204266800Y-57379735D03*
%TD*%
D10*
%TO.C,K5*%
X128371250Y-55800625D03*
X141821250Y-53260625D03*
%TD*%
%TO.C,K50*%
X152183750Y-112950625D03*
X165633750Y-110410625D03*
%TD*%
%TO.C,K41*%
X256958750Y-93900625D03*
X270408750Y-91360625D03*
%TD*%
D13*
%TO.C,KD24*%
X91918750Y-120744375D03*
X93818750Y-120744375D03*
X92868750Y-122619375D03*
%TD*%
%TO.C,KD28*%
X225268750Y-116934375D03*
X227168750Y-116934375D03*
X226218750Y-118809375D03*
%TD*%
%TO.C,KD3*%
X144306250Y-59784375D03*
X146206250Y-59784375D03*
X145256250Y-61659375D03*
%TD*%
D22*
%TO.C,C6*%
X299574250Y-124761625D03*
X298024250Y-124761625D03*
%TD*%
D13*
%TO.C,KD26*%
X149068750Y-116934375D03*
X150968750Y-116934375D03*
X150018750Y-118809375D03*
%TD*%
D10*
%TO.C,K17*%
X80746250Y-74850625D03*
X94196250Y-72310625D03*
%TD*%
%TO.C,K38*%
X199808750Y-93900625D03*
X213258750Y-91360625D03*
%TD*%
%TO.C,K64*%
X159327500Y-132000625D03*
X172777500Y-129460625D03*
%TD*%
%TO.C,K19*%
X118846250Y-74850625D03*
X132296250Y-72310625D03*
%TD*%
D16*
%TO.C,R5*%
X266383000Y-125745875D03*
X268033000Y-125745875D03*
%TD*%
D14*
%TO.C,K29a1*%
X321310000Y-94275625D03*
X318770000Y-80825625D03*
%TD*%
D13*
%TO.C,KD37*%
X334806250Y-135984375D03*
X336706250Y-135984375D03*
X335756250Y-137859375D03*
%TD*%
D10*
%TO.C,K3*%
X90271250Y-55800625D03*
X103721250Y-53260625D03*
%TD*%
D14*
%TO.C,K29*%
X324008750Y-70030625D03*
X326548750Y-83480625D03*
%TD*%
D10*
%TO.C,K4*%
X109321250Y-55800625D03*
X122771250Y-53260625D03*
%TD*%
D23*
%TO.C,F1*%
X198831200Y-54383700D03*
X198831200Y-56258700D03*
%TD*%
D10*
%TO.C,K37*%
X180758750Y-93900625D03*
X194208750Y-91360625D03*
%TD*%
D24*
%TO.C,Y1*%
X299649250Y-120740625D03*
X299649250Y-122940625D03*
X297949250Y-122940625D03*
X297949250Y-120740625D03*
%TD*%
D13*
%TO.C,KD5*%
X220506250Y-63594375D03*
X222406250Y-63594375D03*
X221456250Y-65469375D03*
%TD*%
D25*
%TO.C,C1*%
X294100250Y-121459625D03*
X295196266Y-120363609D03*
%TD*%
D13*
%TO.C,KD2*%
X106206250Y-59784375D03*
X108106250Y-59784375D03*
X107156250Y-61659375D03*
%TD*%
D26*
%TO.C,R7*%
X292754887Y-136497262D03*
X293921613Y-137663988D03*
%TD*%
D21*
%TO.C,R1*%
X200558400Y-55729735D03*
X200558400Y-57379735D03*
%TD*%
D13*
%TO.C,KD10*%
X115731250Y-78834375D03*
X117631250Y-78834375D03*
X116681250Y-80709375D03*
%TD*%
D10*
%TO.C,K23*%
X195046250Y-74850625D03*
X208496250Y-72310625D03*
%TD*%
%TO.C,K32*%
X85508750Y-93900625D03*
X98958750Y-91360625D03*
%TD*%
%TO.C,K26*%
X252196250Y-74850625D03*
X265646250Y-72310625D03*
%TD*%
D22*
%TO.C,C5*%
X284524750Y-121808875D03*
X282974750Y-121808875D03*
%TD*%
D10*
%TO.C,K18*%
X99796250Y-74850625D03*
X113246250Y-72310625D03*
%TD*%
%TO.C,K22*%
X175996250Y-74850625D03*
X189446250Y-72310625D03*
%TD*%
%TO.C,K6*%
X147421250Y-55800625D03*
X160871250Y-53260625D03*
%TD*%
D13*
%TO.C,KD17*%
X82393750Y-97884375D03*
X84293750Y-97884375D03*
X83343750Y-99759375D03*
%TD*%
D10*
%TO.C,K42*%
X276008750Y-93900625D03*
X289458750Y-91360625D03*
%TD*%
%TO.C,K65*%
X206952500Y-132000625D03*
X220402500Y-129460625D03*
%TD*%
D13*
%TO.C,KD21*%
X234793750Y-97884375D03*
X236693750Y-97884375D03*
X235743750Y-99759375D03*
%TD*%
D10*
%TO.C,K30*%
X337921250Y-74850625D03*
X351371250Y-72310625D03*
%TD*%
%TO.C,K12*%
X261721250Y-55800625D03*
X275171250Y-53260625D03*
%TD*%
%TO.C,K20*%
X137896250Y-74850625D03*
X151346250Y-72310625D03*
%TD*%
%TO.C,K48*%
X114083750Y-112950625D03*
X127533750Y-110410625D03*
%TD*%
D22*
%TO.C,C7*%
X299574250Y-118919625D03*
X298024250Y-118919625D03*
%TD*%
D13*
%TO.C,KD33*%
X125256250Y-135984375D03*
X127156250Y-135984375D03*
X126206250Y-137859375D03*
%TD*%
D10*
%TO.C,K69*%
X318871250Y-132000625D03*
X332321250Y-129460625D03*
%TD*%
%TO.C,K45*%
X69272500Y-118030625D03*
X55822500Y-120570625D03*
%TD*%
%TO.C,K13*%
X280771250Y-55800625D03*
X294221250Y-53260625D03*
%TD*%
D13*
%TO.C,KD14*%
X268131250Y-78834375D03*
X270031250Y-78834375D03*
X269081250Y-80709375D03*
%TD*%
%TO.C,KD6*%
X258606250Y-59784375D03*
X260506250Y-59784375D03*
X259556250Y-61659375D03*
%TD*%
%TO.C,KD16*%
X334806250Y-78834375D03*
X336706250Y-78834375D03*
X335756250Y-80709375D03*
%TD*%
D10*
%TO.C,K61*%
X80746250Y-132000625D03*
X94196250Y-129460625D03*
%TD*%
D13*
%TO.C,KD18*%
X120493750Y-97884375D03*
X122393750Y-97884375D03*
X121443750Y-99759375D03*
%TD*%
D14*
%TO.C,K43*%
X311785000Y-103800625D03*
X309245000Y-90350625D03*
%TD*%
D10*
%TO.C,K47*%
X95033750Y-112950625D03*
X108483750Y-110410625D03*
%TD*%
%TO.C,K28*%
X290296250Y-74850625D03*
X303746250Y-72310625D03*
%TD*%
%TO.C,K36*%
X161708750Y-93900625D03*
X175158750Y-91360625D03*
%TD*%
%TO.C,K39*%
X218858750Y-93900625D03*
X232308750Y-91360625D03*
%TD*%
D13*
%TO.C,KD35*%
X258606250Y-135984375D03*
X260506250Y-135984375D03*
X259556250Y-137859375D03*
%TD*%
%TO.C,KD8*%
X334806250Y-63594375D03*
X336706250Y-63594375D03*
X335756250Y-65469375D03*
%TD*%
D10*
%TO.C,K62*%
X104558750Y-132000625D03*
X118008750Y-129460625D03*
%TD*%
%TO.C,K59*%
X337921250Y-112950625D03*
X351371250Y-110410625D03*
%TD*%
D13*
%TO.C,KD30*%
X315756250Y-116934375D03*
X317656250Y-116934375D03*
X316706250Y-118809375D03*
%TD*%
D10*
%TO.C,K60*%
X56933750Y-132000625D03*
X70383750Y-129460625D03*
%TD*%
%TO.C,K67*%
X266483750Y-132000625D03*
X279933750Y-129460625D03*
%TD*%
D27*
%TO.C,C3*%
X288044258Y-136532617D03*
X286948242Y-137628633D03*
%TD*%
D10*
%TO.C,K44*%
X337921250Y-93900625D03*
X351371250Y-91360625D03*
%TD*%
%TO.C,K1*%
X52171250Y-55800625D03*
X65621250Y-53260625D03*
%TD*%
%TO.C,K46*%
X90703750Y-118030625D03*
X77253750Y-120570625D03*
%TD*%
D13*
%TO.C,KD13*%
X230031250Y-78834375D03*
X231931250Y-78834375D03*
X230981250Y-80709375D03*
%TD*%
D28*
%TO.C,R6*%
X69945250Y-105520625D03*
X69945250Y-103870625D03*
%TD*%
D10*
%TO.C,K55*%
X247433750Y-112950625D03*
X260883750Y-110410625D03*
%TD*%
%TO.C,K21*%
X156946250Y-74850625D03*
X170396250Y-72310625D03*
%TD*%
%TO.C,K68*%
X299821250Y-132000625D03*
X313271250Y-129460625D03*
%TD*%
D13*
%TO.C,KD9*%
X77631250Y-78834375D03*
X79531250Y-78834375D03*
X78581250Y-80709375D03*
%TD*%
D28*
%TO.C,R3*%
X282543250Y-116315625D03*
X282543250Y-114665625D03*
%TD*%
D10*
%TO.C,K66*%
X242671250Y-132000625D03*
X256121250Y-129460625D03*
%TD*%
%TO.C,K16*%
X56933750Y-74850625D03*
X70383750Y-72310625D03*
%TD*%
D13*
%TO.C,KD34*%
X201456250Y-135984375D03*
X203356250Y-135984375D03*
X202406250Y-137859375D03*
%TD*%
%TO.C,KD22*%
X272893750Y-97884375D03*
X274793750Y-97884375D03*
X273843750Y-99759375D03*
%TD*%
%TO.C,KD20*%
X196693750Y-97884375D03*
X198593750Y-97884375D03*
X197643750Y-99759375D03*
%TD*%
D29*
%TO.C,C8*%
X282974750Y-123317000D03*
X284524750Y-123317000D03*
%TD*%
D10*
%TO.C,K2*%
X71221250Y-55800625D03*
X84671250Y-53260625D03*
%TD*%
D13*
%TO.C,KD7*%
X296706250Y-59784375D03*
X298606250Y-59784375D03*
X297656250Y-61659375D03*
%TD*%
D10*
%TO.C,K45a1*%
X64077500Y-112950625D03*
X77527500Y-110410625D03*
%TD*%
%TO.C,K35*%
X142658750Y-93900625D03*
X156108750Y-91360625D03*
%TD*%
D13*
%TO.C,KD15*%
X306231250Y-78834375D03*
X308131250Y-78834375D03*
X307181250Y-80709375D03*
%TD*%
D30*
%TO.C,U1*%
X201868920Y-55704735D03*
D31*
X202406420Y-55629735D03*
D30*
X202943920Y-55704735D03*
X202943920Y-57404735D03*
D31*
X202406420Y-57479735D03*
D30*
X201868920Y-57404735D03*
%TD*%
D13*
%TO.C,KD29*%
X263368750Y-116934375D03*
X265268750Y-116934375D03*
X264318750Y-118809375D03*
%TD*%
D10*
%TO.C,K31a1*%
X54552500Y-93900625D03*
X68002500Y-91360625D03*
%TD*%
D27*
%TO.C,C4*%
X282154633Y-130627117D03*
X281058617Y-131723133D03*
%TD*%
D10*
%TO.C,K14*%
X314541250Y-60880625D03*
X301091250Y-63420625D03*
%TD*%
%TO.C,K14a1*%
X309346250Y-55800625D03*
X322796250Y-53260625D03*
%TD*%
%TO.C,K25*%
X233146250Y-74850625D03*
X246596250Y-72310625D03*
%TD*%
M02*
