%TF.GenerationSoftware,KiCad,Pcbnew,(5.99.0-11177-g6c67dfa032)*%
%TF.CreationDate,2021-09-16T00:40:46+03:00*%
%TF.ProjectId,Charon_32U4_Hotswap,43686172-6f6e-45f3-9332-55345f486f74,rev?*%
%TF.SameCoordinates,Original*%
%TF.FileFunction,Copper,L1,Top*%
%TF.FilePolarity,Positive*%
%FSLAX46Y46*%
G04 Gerber Fmt 4.6, Leading zero omitted, Abs format (unit mm)*
G04 Created by KiCad (PCBNEW (5.99.0-11177-g6c67dfa032)) date 2021-09-16 00:40:46*
%MOMM*%
%LPD*%
G01*
G04 APERTURE LIST*
%TA.AperFunction,ComponentPad*%
%ADD10C,1.200000*%
%TD*%
%TA.AperFunction,ComponentPad*%
%ADD11O,1.000000X2.100000*%
%TD*%
%TA.AperFunction,ComponentPad*%
%ADD12O,1.000000X1.600000*%
%TD*%
%TA.AperFunction,ComponentPad*%
%ADD13R,1.700000X1.700000*%
%TD*%
%TA.AperFunction,ComponentPad*%
%ADD14O,1.700000X1.700000*%
%TD*%
%TA.AperFunction,ViaPad*%
%ADD15C,0.800000*%
%TD*%
%TA.AperFunction,Conductor*%
%ADD16C,0.350000*%
%TD*%
%TA.AperFunction,Conductor*%
%ADD17C,0.300000*%
%TD*%
G04 APERTURE END LIST*
D10*
%TO.P,K70,1,1*%
%TO.N,Net-(K70-Pad1)*%
X337921250Y-132000625D03*
%TO.P,K70,2,2*%
%TO.N,/col14*%
X351371250Y-129460625D03*
%TD*%
D11*
%TO.P,J1,S1,SHIELD*%
%TO.N,Net-(FB1-Pad1)*%
X198086250Y-51270000D03*
D12*
X198086250Y-47090000D03*
D11*
X206726250Y-51270000D03*
D12*
X206726250Y-47090000D03*
%TD*%
D10*
%TO.P,K57,1,1*%
%TO.N,/col12*%
X292677500Y-112950625D03*
%TO.P,K57,2,2*%
%TO.N,Net-(K57-Pad2)*%
X306127500Y-110410625D03*
%TD*%
%TO.P,K58,1,1*%
%TO.N,Net-(K58-Pad1)*%
X318871250Y-112950625D03*
%TO.P,K58,2,2*%
%TO.N,/col13*%
X332321250Y-110410625D03*
%TD*%
%TO.P,K31,1,1*%
%TO.N,Net-(K31-Pad1)*%
X74035000Y-98980625D03*
%TO.P,K31,2,2*%
%TO.N,/col0*%
X60585000Y-101520625D03*
%TD*%
%TO.P,K43a1,1,1*%
%TO.N,Net-(K43-Pad2)*%
X299878750Y-103800625D03*
%TO.P,K43a1,2,2*%
%TO.N,/col12*%
X297338750Y-90350625D03*
%TD*%
%TO.P,K7,1,1*%
%TO.N,/col6*%
X166471250Y-55800625D03*
%TO.P,K7,2,2*%
%TO.N,Net-(K7-Pad2)*%
X179921250Y-53260625D03*
%TD*%
%TO.P,K49,1,1*%
%TO.N,/col4*%
X133133750Y-112950625D03*
%TO.P,K49,2,2*%
%TO.N,Net-(K49-Pad2)*%
X146583750Y-110410625D03*
%TD*%
%TO.P,K64a1,1,1*%
%TO.N,/col5*%
X185521250Y-132000625D03*
%TO.P,K64a1,2,2*%
%TO.N,Net-(K64-Pad2)*%
X198971250Y-129460625D03*
%TD*%
%TO.P,K34,1,1*%
%TO.N,Net-(K34-Pad1)*%
X123608750Y-93900625D03*
%TO.P,K34,2,2*%
%TO.N,/col3*%
X137058750Y-91360625D03*
%TD*%
%TO.P,K9,1,1*%
%TO.N,Net-(K9-Pad1)*%
X219291250Y-60880625D03*
%TO.P,K9,2,2*%
%TO.N,/col8*%
X205841250Y-63420625D03*
%TD*%
%TO.P,K33,1,1*%
%TO.N,/col2*%
X104558750Y-93900625D03*
%TO.P,K33,2,2*%
%TO.N,Net-(K33-Pad2)*%
X118008750Y-91360625D03*
%TD*%
%TO.P,K56,1,1*%
%TO.N,Net-(K56-Pad1)*%
X266483750Y-112950625D03*
%TO.P,K56,2,2*%
%TO.N,/col11*%
X279933750Y-110410625D03*
%TD*%
%TO.P,K54,1,1*%
%TO.N,Net-(K54-Pad1)*%
X228383750Y-112950625D03*
%TO.P,K54,2,2*%
%TO.N,/col9*%
X241833750Y-110410625D03*
%TD*%
%TO.P,K8,1,1*%
%TO.N,/col7*%
X200241250Y-60880625D03*
%TO.P,K8,2,2*%
%TO.N,Net-(K8-Pad2)*%
X186791250Y-63420625D03*
%TD*%
%TO.P,K24,1,1*%
%TO.N,/col8*%
X214096250Y-74850625D03*
%TO.P,K24,2,2*%
%TO.N,Net-(K24-Pad2)*%
X227546250Y-72310625D03*
%TD*%
%TO.P,K40,1,1*%
%TO.N,Net-(K40-Pad1)*%
X237908750Y-93900625D03*
%TO.P,K40,2,2*%
%TO.N,/col9*%
X251358750Y-91360625D03*
%TD*%
%TO.P,K11,1,1*%
%TO.N,/col10*%
X242671250Y-55800625D03*
%TO.P,K11,2,2*%
%TO.N,Net-(K11-Pad2)*%
X256121250Y-53260625D03*
%TD*%
%TO.P,K15,1,1*%
%TO.N,Net-(K15-Pad1)*%
X333591250Y-60880625D03*
%TO.P,K15,2,2*%
%TO.N,/col14*%
X320141250Y-63420625D03*
%TD*%
%TO.P,K52,1,1*%
%TO.N,Net-(K52-Pad1)*%
X190283750Y-112950625D03*
%TO.P,K52,2,2*%
%TO.N,/col7*%
X203733750Y-110410625D03*
%TD*%
%TO.P,K53,1,1*%
%TO.N,/col8*%
X209333750Y-112950625D03*
%TO.P,K53,2,2*%
%TO.N,Net-(K53-Pad2)*%
X222783750Y-110410625D03*
%TD*%
%TO.P,K10,1,1*%
%TO.N,Net-(K10-Pad1)*%
X223621250Y-55800625D03*
%TO.P,K10,2,2*%
%TO.N,/col9*%
X237071250Y-53260625D03*
%TD*%
%TO.P,K63,1,1*%
%TO.N,Net-(K63-Pad1)*%
X128371250Y-132000625D03*
%TO.P,K63,2,2*%
%TO.N,/col3*%
X141821250Y-129460625D03*
%TD*%
%TO.P,K27,1,1*%
%TO.N,Net-(K27-Pad1)*%
X271246250Y-74850625D03*
%TO.P,K27,2,2*%
%TO.N,/col11*%
X284696250Y-72310625D03*
%TD*%
%TO.P,K51,1,1*%
%TO.N,/col6*%
X171233750Y-112950625D03*
%TO.P,K51,2,2*%
%TO.N,Net-(K51-Pad2)*%
X184683750Y-110410625D03*
%TD*%
%TO.P,K5,1,1*%
%TO.N,/col4*%
X128371250Y-55800625D03*
%TO.P,K5,2,2*%
%TO.N,Net-(K5-Pad2)*%
X141821250Y-53260625D03*
%TD*%
%TO.P,K50,1,1*%
%TO.N,Net-(K50-Pad1)*%
X152183750Y-112950625D03*
%TO.P,K50,2,2*%
%TO.N,/col5*%
X165633750Y-110410625D03*
%TD*%
%TO.P,K41,1,1*%
%TO.N,/col10*%
X256958750Y-93900625D03*
%TO.P,K41,2,2*%
%TO.N,Net-(K41-Pad2)*%
X270408750Y-91360625D03*
%TD*%
%TO.P,K17,1,1*%
%TO.N,Net-(K17-Pad1)*%
X80746250Y-74850625D03*
%TO.P,K17,2,2*%
%TO.N,/col1*%
X94196250Y-72310625D03*
%TD*%
%TO.P,K38,1,1*%
%TO.N,Net-(K38-Pad1)*%
X199808750Y-93900625D03*
%TO.P,K38,2,2*%
%TO.N,/col7*%
X213258750Y-91360625D03*
%TD*%
%TO.P,K64,1,1*%
%TO.N,/col5*%
X159327500Y-132000625D03*
%TO.P,K64,2,2*%
%TO.N,Net-(K64-Pad2)*%
X172777500Y-129460625D03*
%TD*%
%TO.P,K19,1,1*%
%TO.N,Net-(K19-Pad1)*%
X118846250Y-74850625D03*
%TO.P,K19,2,2*%
%TO.N,/col3*%
X132296250Y-72310625D03*
%TD*%
%TO.P,K29a1,1,1*%
%TO.N,Net-(K29-Pad1)*%
X321310000Y-94275625D03*
%TO.P,K29a1,2,2*%
%TO.N,/col13*%
X318770000Y-80825625D03*
%TD*%
%TO.P,K3,1,1*%
%TO.N,/col2*%
X90271250Y-55800625D03*
%TO.P,K3,2,2*%
%TO.N,Net-(K3-Pad2)*%
X103721250Y-53260625D03*
%TD*%
%TO.P,K29,1,1*%
%TO.N,Net-(K29-Pad1)*%
X324008750Y-70030625D03*
%TO.P,K29,2,2*%
%TO.N,/col13*%
X326548750Y-83480625D03*
%TD*%
%TO.P,K4,1,1*%
%TO.N,Net-(K4-Pad1)*%
X109321250Y-55800625D03*
%TO.P,K4,2,2*%
%TO.N,/col3*%
X122771250Y-53260625D03*
%TD*%
%TO.P,K37,1,1*%
%TO.N,/col6*%
X180758750Y-93900625D03*
%TO.P,K37,2,2*%
%TO.N,Net-(K37-Pad2)*%
X194208750Y-91360625D03*
%TD*%
D13*
%TO.P,ISP1,1,Pin_1*%
%TO.N,/MISO*%
X285591250Y-117268625D03*
D14*
%TO.P,ISP1,2,Pin_2*%
%TO.N,+5V*%
X288131250Y-117268625D03*
%TO.P,ISP1,3,Pin_3*%
%TO.N,/SCL*%
X285591250Y-114728625D03*
%TO.P,ISP1,4,Pin_4*%
%TO.N,/MOSI*%
X288131250Y-114728625D03*
%TO.P,ISP1,5,Pin_5*%
%TO.N,/RES*%
X285591250Y-112188625D03*
%TO.P,ISP1,6,Pin_6*%
%TO.N,Earth*%
X288131250Y-112188625D03*
%TD*%
D10*
%TO.P,K23,1,1*%
%TO.N,Net-(K23-Pad1)*%
X195046250Y-74850625D03*
%TO.P,K23,2,2*%
%TO.N,/col7*%
X208496250Y-72310625D03*
%TD*%
%TO.P,K32,1,1*%
%TO.N,Net-(K32-Pad1)*%
X85508750Y-93900625D03*
%TO.P,K32,2,2*%
%TO.N,/col1*%
X98958750Y-91360625D03*
%TD*%
%TO.P,K26,1,1*%
%TO.N,/col10*%
X252196250Y-74850625D03*
%TO.P,K26,2,2*%
%TO.N,Net-(K26-Pad2)*%
X265646250Y-72310625D03*
%TD*%
%TO.P,K18,1,1*%
%TO.N,/col2*%
X99796250Y-74850625D03*
%TO.P,K18,2,2*%
%TO.N,Net-(K18-Pad2)*%
X113246250Y-72310625D03*
%TD*%
%TO.P,K22,1,1*%
%TO.N,/col6*%
X175996250Y-74850625D03*
%TO.P,K22,2,2*%
%TO.N,Net-(K22-Pad2)*%
X189446250Y-72310625D03*
%TD*%
%TO.P,K6,1,1*%
%TO.N,Net-(K6-Pad1)*%
X147421250Y-55800625D03*
%TO.P,K6,2,2*%
%TO.N,/col5*%
X160871250Y-53260625D03*
%TD*%
%TO.P,K42,1,1*%
%TO.N,Net-(K42-Pad1)*%
X276008750Y-93900625D03*
%TO.P,K42,2,2*%
%TO.N,/col11*%
X289458750Y-91360625D03*
%TD*%
%TO.P,K65,1,1*%
%TO.N,Net-(K65-Pad1)*%
X206952500Y-132000625D03*
%TO.P,K65,2,2*%
%TO.N,/col8*%
X220402500Y-129460625D03*
%TD*%
D13*
%TO.P,LED1,1,K*%
%TO.N,Earth*%
X60637500Y-104060625D03*
D14*
%TO.P,LED1,2,A*%
%TO.N,Net-(LED1-Pad2)*%
X63177500Y-104060625D03*
%TD*%
D10*
%TO.P,K30,1,1*%
%TO.N,Net-(K30-Pad1)*%
X337921250Y-74850625D03*
%TO.P,K30,2,2*%
%TO.N,/col14*%
X351371250Y-72310625D03*
%TD*%
%TO.P,K12,1,1*%
%TO.N,Net-(K12-Pad1)*%
X261721250Y-55800625D03*
%TO.P,K12,2,2*%
%TO.N,/col11*%
X275171250Y-53260625D03*
%TD*%
%TO.P,K20,1,1*%
%TO.N,/col4*%
X137896250Y-74850625D03*
%TO.P,K20,2,2*%
%TO.N,Net-(K20-Pad2)*%
X151346250Y-72310625D03*
%TD*%
%TO.P,K48,1,1*%
%TO.N,Net-(K48-Pad1)*%
X114083750Y-112950625D03*
%TO.P,K48,2,2*%
%TO.N,/col3*%
X127533750Y-110410625D03*
%TD*%
%TO.P,K69,1,1*%
%TO.N,Net-(K69-Pad1)*%
X318871250Y-132000625D03*
%TO.P,K69,2,2*%
%TO.N,/col13*%
X332321250Y-129460625D03*
%TD*%
%TO.P,K45,1,1*%
%TO.N,Net-(K45-Pad1)*%
X69272500Y-118030625D03*
%TO.P,K45,2,2*%
%TO.N,/col0*%
X55822500Y-120570625D03*
%TD*%
%TO.P,K13,1,1*%
%TO.N,/col12*%
X280771250Y-55800625D03*
%TO.P,K13,2,2*%
%TO.N,Net-(K13-Pad2)*%
X294221250Y-53260625D03*
%TD*%
%TO.P,K61,1,1*%
%TO.N,Net-(K61-Pad1)*%
X80746250Y-132000625D03*
%TO.P,K61,2,2*%
%TO.N,/col1*%
X94196250Y-129460625D03*
%TD*%
%TO.P,K43,1,1*%
%TO.N,/col12*%
X311785000Y-103800625D03*
%TO.P,K43,2,2*%
%TO.N,Net-(K43-Pad2)*%
X309245000Y-90350625D03*
%TD*%
%TO.P,K47,1,1*%
%TO.N,/col2*%
X95033750Y-112950625D03*
%TO.P,K47,2,2*%
%TO.N,Net-(K47-Pad2)*%
X108483750Y-110410625D03*
%TD*%
%TO.P,K28,1,1*%
%TO.N,/col12*%
X290296250Y-74850625D03*
%TO.P,K28,2,2*%
%TO.N,Net-(K28-Pad2)*%
X303746250Y-72310625D03*
%TD*%
%TO.P,K36,1,1*%
%TO.N,Net-(K36-Pad1)*%
X161708750Y-93900625D03*
%TO.P,K36,2,2*%
%TO.N,/col5*%
X175158750Y-91360625D03*
%TD*%
%TO.P,K39,1,1*%
%TO.N,/col8*%
X218858750Y-93900625D03*
%TO.P,K39,2,2*%
%TO.N,Net-(K39-Pad2)*%
X232308750Y-91360625D03*
%TD*%
%TO.P,K62,1,1*%
%TO.N,/col2*%
X104558750Y-132000625D03*
%TO.P,K62,2,2*%
%TO.N,Net-(K62-Pad2)*%
X118008750Y-129460625D03*
%TD*%
%TO.P,K59,1,1*%
%TO.N,Net-(K59-Pad1)*%
X337921250Y-112950625D03*
%TO.P,K59,2,2*%
%TO.N,/col14*%
X351371250Y-110410625D03*
%TD*%
%TO.P,K60,1,1*%
%TO.N,/col0*%
X56933750Y-132000625D03*
%TO.P,K60,2,2*%
%TO.N,Net-(K60-Pad2)*%
X70383750Y-129460625D03*
%TD*%
%TO.P,K67,1,1*%
%TO.N,Net-(K67-Pad1)*%
X266483750Y-132000625D03*
%TO.P,K67,2,2*%
%TO.N,/col11*%
X279933750Y-129460625D03*
%TD*%
%TO.P,K44,1,1*%
%TO.N,Net-(K44-Pad1)*%
X337921250Y-93900625D03*
%TO.P,K44,2,2*%
%TO.N,/col13*%
X351371250Y-91360625D03*
%TD*%
%TO.P,K1,1,1*%
%TO.N,/col0*%
X52171250Y-55800625D03*
%TO.P,K1,2,2*%
%TO.N,Net-(K1-Pad2)*%
X65621250Y-53260625D03*
%TD*%
%TO.P,K46,1,1*%
%TO.N,Net-(K46-Pad1)*%
X90703750Y-118030625D03*
%TO.P,K46,2,2*%
%TO.N,/col1*%
X77253750Y-120570625D03*
%TD*%
%TO.P,K55,1,1*%
%TO.N,/col10*%
X247433750Y-112950625D03*
%TO.P,K55,2,2*%
%TO.N,Net-(K55-Pad2)*%
X260883750Y-110410625D03*
%TD*%
%TO.P,K21,1,1*%
%TO.N,Net-(K21-Pad1)*%
X156946250Y-74850625D03*
%TO.P,K21,2,2*%
%TO.N,/col5*%
X170396250Y-72310625D03*
%TD*%
%TO.P,K68,1,1*%
%TO.N,/col12*%
X299821250Y-132000625D03*
%TO.P,K68,2,2*%
%TO.N,Net-(K68-Pad2)*%
X313271250Y-129460625D03*
%TD*%
%TO.P,K66,1,1*%
%TO.N,/col10*%
X242671250Y-132000625D03*
%TO.P,K66,2,2*%
%TO.N,Net-(K66-Pad2)*%
X256121250Y-129460625D03*
%TD*%
%TO.P,K16,1,1*%
%TO.N,/col0*%
X56933750Y-74850625D03*
%TO.P,K16,2,2*%
%TO.N,Net-(K16-Pad2)*%
X70383750Y-72310625D03*
%TD*%
D13*
%TO.P,LED1a1,1,K*%
%TO.N,Earth*%
X65400000Y-88820625D03*
D14*
%TO.P,LED1a1,2,A*%
%TO.N,Net-(LED1-Pad2)*%
X67940000Y-88820625D03*
%TD*%
D10*
%TO.P,K2,1,1*%
%TO.N,Net-(K2-Pad1)*%
X71221250Y-55800625D03*
%TO.P,K2,2,2*%
%TO.N,/col1*%
X84671250Y-53260625D03*
%TD*%
%TO.P,K45a1,1,1*%
%TO.N,/col0*%
X64077500Y-112950625D03*
%TO.P,K45a1,2,2*%
%TO.N,Net-(K45-Pad1)*%
X77527500Y-110410625D03*
%TD*%
%TO.P,K35,1,1*%
%TO.N,/col4*%
X142658750Y-93900625D03*
%TO.P,K35,2,2*%
%TO.N,Net-(K35-Pad2)*%
X156108750Y-91360625D03*
%TD*%
%TO.P,K31a1,1,1*%
%TO.N,/col0*%
X54552500Y-93900625D03*
%TO.P,K31a1,2,2*%
%TO.N,Net-(K31-Pad1)*%
X68002500Y-91360625D03*
%TD*%
%TO.P,K14,1,1*%
%TO.N,/col13*%
X314541250Y-60880625D03*
%TO.P,K14,2,2*%
%TO.N,Net-(K14-Pad2)*%
X301091250Y-63420625D03*
%TD*%
%TO.P,K14a1,1,1*%
%TO.N,Net-(K14-Pad2)*%
X309346250Y-55800625D03*
%TO.P,K14a1,2,2*%
%TO.N,/col13*%
X322796250Y-53260625D03*
%TD*%
%TO.P,K25,1,1*%
%TO.N,Net-(K25-Pad1)*%
X233146250Y-74850625D03*
%TO.P,K25,2,2*%
%TO.N,/col9*%
X246596250Y-72310625D03*
%TD*%
D15*
%TO.N,+5V*%
X282543250Y-119827375D03*
X202406250Y-60245625D03*
X199483900Y-57324625D03*
%TO.N,Earth*%
X296386250Y-120697625D03*
X290417250Y-136318625D03*
X301593250Y-119935625D03*
X290417250Y-123110625D03*
X285845250Y-129460625D03*
X219569972Y-104676903D03*
X197510400Y-55219600D03*
X296513250Y-123999625D03*
X278733250Y-123872625D03*
X298206250Y-128315625D03*
X292449250Y-124692771D03*
X289147250Y-132762625D03*
X301593250Y-121459625D03*
X282289250Y-128444625D03*
X289655250Y-126412625D03*
X290417250Y-119554625D03*
X301593250Y-118284625D03*
X205656250Y-55219600D03*
X213836250Y-104695625D03*
X301593250Y-122983625D03*
X298799250Y-134159625D03*
X292703250Y-129460625D03*
X301593250Y-124634625D03*
X282162250Y-132508625D03*
X201481750Y-58816875D03*
X296386250Y-118919625D03*
X280638250Y-127301625D03*
%TO.N,/MISO*%
X250031250Y-117395625D03*
X306228750Y-103584375D03*
X290290250Y-117141625D03*
X293109650Y-101203125D03*
X246221250Y-121205625D03*
%TO.N,/SCL*%
X208121250Y-81200625D03*
X291484050Y-81200625D03*
X215741250Y-81200625D03*
%TO.N,/MOSI*%
X212883750Y-100250625D03*
X220503750Y-100250625D03*
X286861250Y-119808625D03*
X292296850Y-100250625D03*
X308133750Y-103584375D03*
%TO.N,/col0*%
X56933750Y-82971925D03*
X208121250Y-82978625D03*
X215741250Y-82978625D03*
%TO.N,/col1*%
X214788750Y-82089625D03*
X98952050Y-82089625D03*
X209073750Y-82089625D03*
%TO.N,/col2*%
X273907250Y-121459625D03*
X220440250Y-103806625D03*
X262985250Y-105965625D03*
X97885250Y-103806625D03*
X299299504Y-137874375D03*
X278606250Y-121459625D03*
X212947250Y-103806625D03*
%TO.N,/col3*%
X134302500Y-102898575D03*
X274669250Y-120570625D03*
X219551250Y-102917625D03*
X263861750Y-105330625D03*
X213836250Y-102917625D03*
X277844250Y-120570625D03*
X300037500Y-136921875D03*
%TO.N,/col4*%
X220440250Y-102028625D03*
X273907250Y-119681625D03*
X264623750Y-104568625D03*
X142640050Y-102028625D03*
X278606250Y-119681625D03*
X212947250Y-102028625D03*
X299300802Y-135969375D03*
%TO.N,/col5*%
X299942250Y-135016875D03*
X274669250Y-118792625D03*
X213836250Y-101139625D03*
X172408850Y-101139625D03*
X265398250Y-103933625D03*
X277844250Y-118792625D03*
X219551250Y-101139625D03*
%TO.N,/col6*%
X281146250Y-139468225D03*
%TO.N,/col7*%
X281146250Y-138350625D03*
%TO.N,/col8*%
X281146250Y-137207625D03*
%TO.N,/col9*%
X281146250Y-136064625D03*
%TO.N,/col10*%
X281146250Y-134921625D03*
%TO.N,/col11*%
X281146250Y-133778625D03*
%TO.N,/col12*%
X300037500Y-138826875D03*
%TO.N,/col13*%
X299402818Y-139672707D03*
%TO.N,/col14*%
X300037500Y-140731875D03*
%TO.N,/row0*%
X203358750Y-68341875D03*
X278606250Y-62150625D03*
X206692500Y-65960625D03*
X283432250Y-117776625D03*
%TO.N,Net-(LED1-Pad2)*%
X76200000Y-101203125D03*
%TO.N,Net-(K57-Pad2)*%
X310673750Y-110410625D03*
%TD*%
D16*
%TO.N,+5V*%
X282543250Y-119827375D02*
X283794500Y-121078625D01*
X288131250Y-119808625D02*
X288131250Y-117268625D01*
X201453750Y-60245625D02*
X202406250Y-60245625D01*
X286861250Y-121078625D02*
X288131250Y-119808625D01*
X199483900Y-58275775D02*
X201453750Y-60245625D01*
X283794500Y-121078625D02*
X286861250Y-121078625D01*
X199483900Y-57324625D02*
X199483900Y-58275775D01*
%TO.N,Earth*%
X298799250Y-134159625D02*
X298206250Y-133566625D01*
X219569972Y-104676903D02*
X219551250Y-104695625D01*
X205079025Y-55219600D02*
X205656250Y-55219600D01*
X219551250Y-104695625D02*
X213836250Y-104695625D01*
X201481750Y-58816875D02*
X205079025Y-55219600D01*
X298206250Y-133566625D02*
X298206250Y-128315625D01*
X197510400Y-55219600D02*
X205656250Y-55219600D01*
D17*
%TO.N,/MISO*%
X293109650Y-104162225D02*
X290290250Y-106981625D01*
X304141730Y-93900625D02*
X304898271Y-94657166D01*
X301148750Y-93900625D02*
X304141730Y-93900625D01*
X293846250Y-101203125D02*
X301148750Y-93900625D01*
X304898271Y-102253896D02*
X306228750Y-103584375D01*
X304898271Y-94657166D02*
X304898271Y-102253896D01*
X290290250Y-106981625D02*
X290290250Y-117141625D01*
D16*
X250031250Y-117395625D02*
X246221250Y-121205625D01*
D17*
X293109650Y-101203125D02*
X293109650Y-104162225D01*
X293109650Y-101203125D02*
X293846250Y-101203125D01*
%TO.N,/SCL*%
X284067250Y-111045625D02*
X284067250Y-113204625D01*
X291484050Y-81200625D02*
X291484050Y-103628825D01*
X284067250Y-113204625D02*
X285591250Y-114728625D01*
X291484050Y-103628825D02*
X284067250Y-111045625D01*
D16*
X208121250Y-81200625D02*
X215741250Y-81200625D01*
D17*
%TO.N,/MOSI*%
X293846250Y-100250625D02*
X292296850Y-100250625D01*
X305752500Y-101203125D02*
X305752500Y-94059375D01*
X289528250Y-106727625D02*
X289528250Y-113331625D01*
X301212250Y-92884625D02*
X293846250Y-100250625D01*
X292296850Y-100250625D02*
X292296850Y-103959025D01*
X289528250Y-113331625D02*
X288131250Y-114728625D01*
X286861250Y-115998625D02*
X288131250Y-114728625D01*
X308133750Y-103584375D02*
X305752500Y-101203125D01*
D16*
X220503750Y-100250625D02*
X212883750Y-100250625D01*
D17*
X305752500Y-94059375D02*
X304577750Y-92884625D01*
X304577750Y-92884625D02*
X301212250Y-92884625D01*
X286861250Y-119808625D02*
X286861250Y-115998625D01*
X292296850Y-103959025D02*
X289528250Y-106727625D01*
%TO.N,/col0*%
X56933750Y-82971925D02*
X56933750Y-91519375D01*
X64077500Y-112950625D02*
X54610000Y-112950625D01*
X54552500Y-93900625D02*
X54552500Y-100510625D01*
X52171250Y-55800625D02*
X52171250Y-70088125D01*
X56933750Y-91519375D02*
X54552500Y-93900625D01*
X56933750Y-74850625D02*
X56933750Y-82971925D01*
X54552500Y-119300625D02*
X55822500Y-120570625D01*
X54552500Y-101520625D02*
X60585000Y-101520625D01*
X54610000Y-112950625D02*
X54552500Y-112893125D01*
X55822500Y-120570625D02*
X55822500Y-130889375D01*
D16*
X208121250Y-82978625D02*
X215741250Y-82978625D01*
D17*
X54552500Y-112893125D02*
X54552500Y-119300625D01*
X52171250Y-70088125D02*
X56933750Y-74850625D01*
X54552500Y-100510625D02*
X54552500Y-112893125D01*
X55822500Y-130889375D02*
X56933750Y-132000625D01*
X54552500Y-100510625D02*
X54552500Y-101520625D01*
%TO.N,/col1*%
X79476250Y-118348125D02*
X77253750Y-120570625D01*
X96202500Y-94116875D02*
X96202500Y-97869375D01*
X93136729Y-119508896D02*
X93136729Y-128401104D01*
X84671250Y-53260625D02*
X84671250Y-56810625D01*
D16*
X209073750Y-82089625D02*
X214788750Y-82089625D01*
D17*
X94196250Y-66335625D02*
X94196250Y-72310625D01*
X93136729Y-128401104D02*
X94196250Y-129460625D01*
X98958750Y-80623125D02*
X98958750Y-91360625D01*
X84743483Y-121205625D02*
X81885983Y-118348125D01*
X93136729Y-119508896D02*
X91440000Y-121205625D01*
X84671250Y-56810625D02*
X94196250Y-66335625D01*
X91440000Y-121205625D02*
X84743483Y-121205625D01*
X93136729Y-100935146D02*
X93136729Y-119508896D01*
X81885983Y-118348125D02*
X79476250Y-118348125D01*
X98958750Y-91360625D02*
X96202500Y-94116875D01*
X94196250Y-75860625D02*
X98958750Y-80623125D01*
X94196250Y-72310625D02*
X94196250Y-75860625D01*
X96202500Y-97869375D02*
X93136729Y-100935146D01*
%TO.N,/col2*%
X99796250Y-74850625D02*
X99796250Y-69554375D01*
X99796250Y-69554375D02*
X90271250Y-60029375D01*
X90271250Y-60029375D02*
X90271250Y-55800625D01*
D16*
X212947250Y-103806625D02*
X220440250Y-103806625D01*
X279749250Y-121459625D02*
X278606250Y-121459625D01*
X262985250Y-105965625D02*
X262985250Y-115490625D01*
D17*
X95033750Y-112950625D02*
X95033750Y-122475625D01*
X104558750Y-97133125D02*
X104558750Y-93900625D01*
X104558750Y-83841875D02*
X104558750Y-93900625D01*
X95033750Y-112950625D02*
X95033750Y-106658125D01*
X99796250Y-79079375D02*
X104558750Y-83841875D01*
D16*
X296164000Y-137874375D02*
X279749250Y-121459625D01*
X262985250Y-115490625D02*
X268954250Y-121459625D01*
D17*
X97885250Y-103806625D02*
X104558750Y-97133125D01*
D16*
X299299504Y-137874375D02*
X296164000Y-137874375D01*
D17*
X95033750Y-122475625D02*
X104558750Y-132000625D01*
X95033750Y-106658125D02*
X97885250Y-103806625D01*
D16*
X268954250Y-121459625D02*
X273907250Y-121459625D01*
D17*
X99796250Y-74850625D02*
X99796250Y-79079375D01*
%TO.N,/col3*%
X132296250Y-72310625D02*
X132296250Y-65859375D01*
D16*
X296100500Y-136921875D02*
X279749250Y-120570625D01*
D17*
X137058750Y-91360625D02*
X137058750Y-79670625D01*
X132296250Y-74908125D02*
X132296250Y-72310625D01*
X132296250Y-65859375D02*
X122771250Y-56334375D01*
X134302500Y-103641875D02*
X134302500Y-102898575D01*
D16*
X213836250Y-102917625D02*
X219551250Y-102917625D01*
X263874250Y-105343125D02*
X263874250Y-115236625D01*
X263861750Y-105330625D02*
X263874250Y-105343125D01*
X141821250Y-127041625D02*
X127533750Y-112754125D01*
D17*
X122771250Y-56334375D02*
X122771250Y-53260625D01*
D16*
X300037500Y-136921875D02*
X296100500Y-136921875D01*
D17*
X127533750Y-110410625D02*
X134302500Y-103641875D01*
D16*
X269208250Y-120570625D02*
X274669250Y-120570625D01*
D17*
X137058750Y-79670625D02*
X132296250Y-74908125D01*
X134302500Y-94116875D02*
X137058750Y-91360625D01*
X134302500Y-102898575D02*
X134302500Y-94116875D01*
D16*
X141821250Y-129460625D02*
X141821250Y-127041625D01*
X279749250Y-120570625D02*
X277844250Y-120570625D01*
X127533750Y-112754125D02*
X127533750Y-110410625D01*
X263874250Y-115236625D02*
X269208250Y-120570625D01*
D17*
%TO.N,/col4*%
X137896250Y-78393750D02*
X142658750Y-83156250D01*
D16*
X269462250Y-119681625D02*
X273907250Y-119681625D01*
D17*
X133133750Y-112950625D02*
X142658750Y-103425625D01*
D16*
X264636250Y-114855625D02*
X269462250Y-119681625D01*
X299300802Y-135969375D02*
X296164000Y-135969375D01*
X279876250Y-119681625D02*
X278606250Y-119681625D01*
D17*
X128371250Y-59076875D02*
X137896250Y-68601875D01*
D16*
X296164000Y-135969375D02*
X279876250Y-119681625D01*
D17*
X137896250Y-74850625D02*
X137896250Y-78393750D01*
X142658750Y-83156250D02*
X142658750Y-93900625D01*
X128371250Y-55800625D02*
X128371250Y-59076875D01*
D16*
X212947250Y-102028625D02*
X220440250Y-102028625D01*
X264636250Y-104581125D02*
X264636250Y-114855625D01*
D17*
X142658750Y-103425625D02*
X142658750Y-93900625D01*
D16*
X264623750Y-104568625D02*
X264636250Y-104581125D01*
D17*
X137896250Y-68601875D02*
X137896250Y-74850625D01*
D16*
%TO.N,/col5*%
X269716250Y-118792625D02*
X274669250Y-118792625D01*
X279876250Y-118792625D02*
X277844250Y-118792625D01*
X159327500Y-132000625D02*
X166687500Y-124640625D01*
X165633750Y-113484375D02*
X165633750Y-110410625D01*
D17*
X170396250Y-72310625D02*
X170396250Y-65859375D01*
D16*
X166687500Y-114538125D02*
X165633750Y-113484375D01*
X213836250Y-101139625D02*
X219551250Y-101139625D01*
D17*
X160871250Y-56334375D02*
X160871250Y-53260625D01*
X170396250Y-65859375D02*
X160871250Y-56334375D01*
D16*
X265398250Y-103933625D02*
X265398250Y-114474625D01*
X265398250Y-114474625D02*
X269716250Y-118792625D01*
D17*
X175158750Y-91360625D02*
X175158750Y-79670625D01*
X172402500Y-94116875D02*
X175158750Y-91360625D01*
X175158750Y-79670625D02*
X170396250Y-74908125D01*
D16*
X166687500Y-124640625D02*
X166687500Y-114538125D01*
X296100500Y-135016875D02*
X279876250Y-118792625D01*
D17*
X165633750Y-110410625D02*
X172402500Y-103641875D01*
X172402500Y-103641875D02*
X172402500Y-94116875D01*
D16*
X299942250Y-135016875D02*
X296100500Y-135016875D01*
D17*
X170396250Y-74908125D02*
X170396250Y-72310625D01*
D16*
%TO.N,/col6*%
X281146250Y-139468225D02*
X187331350Y-139468225D01*
D17*
X175996250Y-78393750D02*
X180758750Y-83156250D01*
X166471250Y-55800625D02*
X166471250Y-59076875D01*
D16*
X171233750Y-123370625D02*
X171233750Y-112950625D01*
D17*
X171233750Y-112950625D02*
X180758750Y-103425625D01*
X180758750Y-83156250D02*
X180758750Y-93900625D01*
X166471250Y-59076875D02*
X175996250Y-68601875D01*
X175996250Y-68601875D02*
X175996250Y-74850625D01*
X180758750Y-103425625D02*
X180758750Y-93900625D01*
X175996250Y-74850625D02*
X175996250Y-78393750D01*
D16*
X187331350Y-139468225D02*
X171233750Y-123370625D01*
D17*
%TO.N,/col7*%
X203733750Y-107394375D02*
X210502500Y-100625625D01*
X205740000Y-83841875D02*
X213258750Y-91360625D01*
X206724250Y-69643625D02*
X202406250Y-69643625D01*
X208496250Y-72310625D02*
X208496250Y-71415625D01*
X203733750Y-107394375D02*
X203733750Y-110410625D01*
X208496250Y-73681875D02*
X205740000Y-76438125D01*
X213258750Y-92731875D02*
X213258750Y-91360625D01*
X210502500Y-95488125D02*
X213258750Y-92731875D01*
X210502500Y-100625625D02*
X210502500Y-95488125D01*
D16*
X281146250Y-138350625D02*
X280587450Y-138909425D01*
X205263750Y-133842125D02*
X205263750Y-111940625D01*
D17*
X202406250Y-69643625D02*
X200241250Y-67478625D01*
D16*
X280587450Y-138909425D02*
X210331050Y-138909425D01*
X205263750Y-111940625D02*
X203733750Y-110410625D01*
D17*
X200241250Y-67478625D02*
X200241250Y-60880625D01*
X208496250Y-71415625D02*
X206724250Y-69643625D01*
D16*
X210331050Y-138909425D02*
X205263750Y-133842125D01*
D17*
X208496250Y-72310625D02*
X208496250Y-73681875D01*
X205740000Y-76438125D02*
X205740000Y-83841875D01*
D16*
%TO.N,/col8*%
X229292500Y-138350625D02*
X220402500Y-129460625D01*
D17*
X209333750Y-112950625D02*
X209333750Y-118391875D01*
X218858750Y-82413125D02*
X218858750Y-93900625D01*
X211455000Y-110829375D02*
X211455000Y-99774375D01*
X214096250Y-77650625D02*
X218858750Y-82413125D01*
X209333750Y-112950625D02*
X211455000Y-110829375D01*
X218122500Y-98821875D02*
X218858750Y-98085625D01*
X205841250Y-63420625D02*
X214096250Y-71675625D01*
X214096250Y-71675625D02*
X214096250Y-74850625D01*
X212407500Y-98821875D02*
X218122500Y-98821875D01*
X209333750Y-118391875D02*
X220402500Y-129460625D01*
D16*
X281146250Y-137207625D02*
X280003250Y-138350625D01*
D17*
X211455000Y-99774375D02*
X212407500Y-98821875D01*
D16*
X280003250Y-138350625D02*
X229292500Y-138350625D01*
D17*
X218858750Y-98085625D02*
X218858750Y-93900625D01*
X214096250Y-74850625D02*
X214096250Y-77650625D01*
D16*
%TO.N,/col9*%
X248126250Y-73840625D02*
X246596250Y-72310625D01*
X279419050Y-137791825D02*
X281146250Y-136064625D01*
X244418831Y-137782544D02*
X258962770Y-137782545D01*
X237071250Y-53260625D02*
X239553750Y-55743125D01*
X248602500Y-94116875D02*
X251358750Y-91360625D01*
X241833750Y-110410625D02*
X238804450Y-113439925D01*
X258972050Y-137791825D02*
X279419050Y-137791825D01*
X251358750Y-91360625D02*
X251358750Y-83480625D01*
X248126250Y-80248125D02*
X248126250Y-73840625D01*
X258962770Y-137782545D02*
X258972050Y-137791825D01*
X251358750Y-83480625D02*
X248126250Y-80248125D01*
X239553750Y-55743125D02*
X239553750Y-65268125D01*
X248602500Y-107870625D02*
X248602500Y-94116875D01*
X239553750Y-65268125D02*
X246596250Y-72310625D01*
X238804450Y-132168163D02*
X244418831Y-137782544D01*
X238804450Y-113439925D02*
X238804450Y-132168163D01*
X246062500Y-110410625D02*
X248602500Y-107870625D01*
X241833750Y-110410625D02*
X246062500Y-110410625D01*
%TO.N,/col10*%
X252196250Y-71459375D02*
X242671250Y-61934375D01*
X242671250Y-135257825D02*
X242671250Y-132000625D01*
X252196250Y-74850625D02*
X252196250Y-71459375D01*
X247433750Y-112950625D02*
X247433750Y-110944375D01*
X242671250Y-61934375D02*
X242671250Y-55800625D01*
X281146250Y-134921625D02*
X278834850Y-137233025D01*
X247433750Y-110944375D02*
X256958750Y-101419375D01*
X256958750Y-93900625D02*
X256958750Y-84318125D01*
X252196250Y-79555625D02*
X252196250Y-74850625D01*
X256958750Y-84318125D02*
X252196250Y-79555625D01*
X244646450Y-137233025D02*
X242671250Y-135257825D01*
X256958750Y-101419375D02*
X256958750Y-93900625D01*
X278834850Y-137233025D02*
X244646450Y-137233025D01*
X242671250Y-132000625D02*
X242671250Y-117713125D01*
X242671250Y-117713125D02*
X247433750Y-112950625D01*
%TO.N,/col11*%
X276225000Y-54314375D02*
X275171250Y-53260625D01*
X279082500Y-130311875D02*
X279933750Y-129460625D01*
X284696250Y-72310625D02*
X276225000Y-63839375D01*
X279933750Y-110410625D02*
X286702500Y-103641875D01*
X285750000Y-73364375D02*
X284696250Y-72310625D01*
X286702500Y-94116875D02*
X289458750Y-91360625D01*
X276225000Y-117871875D02*
X277177500Y-116919375D01*
X279082500Y-132159375D02*
X279082500Y-130311875D01*
X277177500Y-116919375D02*
X277177500Y-113109375D01*
X276225000Y-63839375D02*
X276225000Y-54314375D01*
X289458750Y-83004375D02*
X285750000Y-79295625D01*
X277177500Y-113109375D02*
X279876250Y-110410625D01*
X276225000Y-125751875D02*
X276225000Y-117871875D01*
X279933750Y-129460625D02*
X276225000Y-125751875D01*
X286702500Y-103641875D02*
X286702500Y-94116875D01*
X281146250Y-133778625D02*
X280701750Y-133778625D01*
X289458750Y-91360625D02*
X289458750Y-83004375D01*
X279876250Y-110410625D02*
X279933750Y-110410625D01*
X285750000Y-79295625D02*
X285750000Y-73364375D01*
X280701750Y-133778625D02*
X279082500Y-132159375D01*
%TO.N,/col12*%
X306705000Y-86915625D02*
X300513750Y-80724375D01*
X311785000Y-103800625D02*
X311785000Y-120036875D01*
X308133750Y-138826875D02*
X310515000Y-136445625D01*
X292677500Y-112950625D02*
X297757500Y-107870625D01*
X306705000Y-98720625D02*
X306705000Y-86915625D01*
X292893750Y-80724375D02*
X290296250Y-78126875D01*
X307715000Y-107870625D02*
X311785000Y-103800625D01*
X303371250Y-128450625D02*
X299821250Y-132000625D01*
X311785000Y-120036875D02*
X303371250Y-128450625D01*
X290296250Y-70506875D02*
X290296250Y-74850625D01*
X280771250Y-60981875D02*
X290296250Y-70506875D01*
X300513750Y-80724375D02*
X300513750Y-85258125D01*
X297757500Y-107870625D02*
X307715000Y-107870625D01*
X300037500Y-138826875D02*
X308133750Y-138826875D01*
X297338750Y-88433125D02*
X297338750Y-90350625D01*
X300513750Y-80724375D02*
X292893750Y-80724375D01*
X300513750Y-85258125D02*
X297338750Y-88433125D01*
X280771250Y-55800625D02*
X280771250Y-60981875D01*
X311785000Y-103800625D02*
X306705000Y-98720625D01*
X310515000Y-133588125D02*
X304374375Y-127447500D01*
X310515000Y-136445625D02*
X310515000Y-133588125D01*
X304374375Y-127447500D02*
X303371250Y-128450625D01*
X290296250Y-78126875D02*
X290296250Y-74850625D01*
%TO.N,/col13*%
X322034250Y-80825625D02*
X325723250Y-77136625D01*
X314541250Y-60880625D02*
X322262500Y-60880625D01*
X333375000Y-132635625D02*
X332321250Y-131581875D01*
X314541250Y-60880625D02*
X311943750Y-63478125D01*
X332321250Y-113008125D02*
X332321250Y-110410625D01*
X323373750Y-59769375D02*
X323373750Y-56911875D01*
X348615000Y-94116875D02*
X351371250Y-91360625D01*
X335655000Y-83480625D02*
X326548750Y-83480625D01*
X335756250Y-83581875D02*
X335655000Y-83480625D01*
X311943750Y-63478125D02*
X311943750Y-77390625D01*
X322262500Y-60880625D02*
X323373750Y-59769375D01*
X332321250Y-131581875D02*
X332321250Y-129460625D01*
X315378750Y-80825625D02*
X318770000Y-80825625D01*
X325723250Y-77136625D02*
X329311000Y-77136625D01*
X299402818Y-139672707D02*
X329195418Y-139672707D01*
X318770000Y-80825625D02*
X322034250Y-80825625D01*
X332321250Y-129460625D02*
X332321250Y-118449375D01*
X329195418Y-139672707D02*
X333375000Y-135493125D01*
X333375000Y-117395625D02*
X333375000Y-114061875D01*
X332321250Y-110410625D02*
X332321250Y-104638125D01*
X311943750Y-77390625D02*
X315378750Y-80825625D01*
X335756250Y-101203125D02*
X335756250Y-83581875D01*
X323373750Y-56911875D02*
X322796250Y-56334375D01*
X335756250Y-101203125D02*
X346233750Y-101203125D01*
X348615000Y-98821875D02*
X348615000Y-94116875D01*
X333375000Y-114061875D02*
X332321250Y-113008125D01*
X333375000Y-135493125D02*
X333375000Y-132635625D01*
X329311000Y-77136625D02*
X335655000Y-83480625D01*
X346233750Y-101203125D02*
X348615000Y-98821875D01*
X322796250Y-56334375D02*
X322796250Y-53260625D01*
X332321250Y-118449375D02*
X333375000Y-117395625D01*
X332321250Y-104638125D02*
X335756250Y-101203125D01*
%TO.N,/col14*%
X352901250Y-99298125D02*
X352901250Y-73840625D01*
X348355000Y-69294375D02*
X351371250Y-72310625D01*
X352425000Y-116919375D02*
X352425000Y-113585625D01*
X352901250Y-73840625D02*
X351371250Y-72310625D01*
X300037500Y-140731875D02*
X347662500Y-140731875D01*
X351371250Y-112531875D02*
X351371250Y-110410625D01*
X351371250Y-129460625D02*
X351371250Y-117973125D01*
X351371250Y-117973125D02*
X352425000Y-116919375D01*
X352425000Y-135969375D02*
X352425000Y-133111875D01*
X347662500Y-140731875D02*
X352425000Y-135969375D01*
X352425000Y-133111875D02*
X351371250Y-132058125D01*
X326015000Y-69294375D02*
X348355000Y-69294375D01*
X351371250Y-110410625D02*
X351371250Y-100828125D01*
X351371250Y-132058125D02*
X351371250Y-129460625D01*
X320141250Y-63420625D02*
X326015000Y-69294375D01*
X351371250Y-100828125D02*
X352901250Y-99298125D01*
X352425000Y-113585625D02*
X351371250Y-112531875D01*
%TO.N,/row0*%
X288131250Y-71675625D02*
X278606250Y-62150625D01*
X206692500Y-65960625D02*
X205740000Y-65960625D01*
X290671250Y-81708625D02*
X288131250Y-79168625D01*
X205740000Y-65960625D02*
X203358750Y-68341875D01*
X283432250Y-110664625D02*
X290671250Y-103425625D01*
X288131250Y-79168625D02*
X288131250Y-71675625D01*
X283432250Y-117776625D02*
X283432250Y-110664625D01*
X290671250Y-103425625D02*
X290671250Y-81708625D01*
D17*
%TO.N,Net-(LED1-Pad2)*%
X76200000Y-101203125D02*
X76200000Y-91201875D01*
X76200000Y-91201875D02*
X73818750Y-88820625D01*
X73818750Y-88820625D02*
X67940000Y-88820625D01*
D16*
%TO.N,Net-(K57-Pad2)*%
X306127500Y-110410625D02*
X310673750Y-110410625D01*
%TD*%
%TA.AperFunction,Conductor*%
%TO.N,Earth*%
G36*
X197242842Y-52391627D02*
G01*
X197272364Y-52417989D01*
X197363205Y-52529372D01*
X197363208Y-52529375D01*
X197367100Y-52534147D01*
X197371847Y-52538074D01*
X197371849Y-52538076D01*
X197514759Y-52656302D01*
X197514764Y-52656305D01*
X197519508Y-52660230D01*
X197524927Y-52663160D01*
X197524930Y-52663162D01*
X197688085Y-52751379D01*
X197688089Y-52751381D01*
X197693503Y-52754308D01*
X197699383Y-52756128D01*
X197699385Y-52756129D01*
X197748933Y-52771467D01*
X197882458Y-52812800D01*
X197888576Y-52813443D01*
X197888581Y-52813444D01*
X198073045Y-52832831D01*
X198073047Y-52832831D01*
X198079174Y-52833475D01*
X198162024Y-52825935D01*
X198270022Y-52816107D01*
X198270025Y-52816106D01*
X198276161Y-52815548D01*
X198282067Y-52813810D01*
X198282071Y-52813809D01*
X198460005Y-52761440D01*
X198460004Y-52761440D01*
X198465914Y-52759701D01*
X198641205Y-52668061D01*
X198795359Y-52544118D01*
X198807733Y-52529372D01*
X198902331Y-52416634D01*
X198961441Y-52377307D01*
X198998853Y-52371625D01*
X205814721Y-52371625D01*
X205882842Y-52391627D01*
X205912364Y-52417989D01*
X206003205Y-52529372D01*
X206003208Y-52529375D01*
X206007100Y-52534147D01*
X206011847Y-52538074D01*
X206011849Y-52538076D01*
X206154759Y-52656302D01*
X206154764Y-52656305D01*
X206159508Y-52660230D01*
X206164927Y-52663160D01*
X206164930Y-52663162D01*
X206328085Y-52751379D01*
X206328089Y-52751381D01*
X206333503Y-52754308D01*
X206339383Y-52756128D01*
X206339385Y-52756129D01*
X206388933Y-52771467D01*
X206522458Y-52812800D01*
X206528576Y-52813443D01*
X206528581Y-52813444D01*
X206713045Y-52832831D01*
X206713047Y-52832831D01*
X206719174Y-52833475D01*
X206802024Y-52825935D01*
X206910022Y-52816107D01*
X206910025Y-52816106D01*
X206916161Y-52815548D01*
X206922067Y-52813810D01*
X206922071Y-52813809D01*
X207100005Y-52761440D01*
X207100004Y-52761440D01*
X207105914Y-52759701D01*
X207281205Y-52668061D01*
X207435359Y-52544118D01*
X207447733Y-52529372D01*
X207542331Y-52416634D01*
X207601441Y-52377307D01*
X207638853Y-52371625D01*
X207705250Y-52371625D01*
X207773371Y-52391627D01*
X207819864Y-52445283D01*
X207831250Y-52497625D01*
X207831250Y-57085716D01*
X207811248Y-57153837D01*
X207757592Y-57200330D01*
X207728075Y-57209631D01*
X207686528Y-57217284D01*
X207615911Y-57209953D01*
X207602810Y-57203678D01*
X207596745Y-57200330D01*
X207410039Y-57097263D01*
X207405170Y-57095539D01*
X207405166Y-57095537D01*
X207204337Y-57024420D01*
X207204333Y-57024419D01*
X207199462Y-57022694D01*
X207194369Y-57021787D01*
X207194366Y-57021786D01*
X206984623Y-56984425D01*
X206984617Y-56984424D01*
X206979534Y-56983519D01*
X206905702Y-56982617D01*
X206761331Y-56980853D01*
X206761329Y-56980853D01*
X206756161Y-56980790D01*
X206535341Y-57014580D01*
X206323006Y-57083982D01*
X206124857Y-57187132D01*
X206120724Y-57190235D01*
X206120721Y-57190237D01*
X206094891Y-57209631D01*
X205946215Y-57321260D01*
X205942643Y-57324998D01*
X205802397Y-57471757D01*
X205791879Y-57482763D01*
X205665993Y-57667305D01*
X205571938Y-57869930D01*
X205512239Y-58085195D01*
X205488501Y-58307320D01*
X205501360Y-58530340D01*
X205502497Y-58535386D01*
X205502498Y-58535392D01*
X205523525Y-58628694D01*
X205550472Y-58748264D01*
X205634516Y-58955241D01*
X205637215Y-58959645D01*
X205722483Y-59098790D01*
X205741021Y-59167324D01*
X205719565Y-59235000D01*
X205664925Y-59280333D01*
X205615050Y-59290625D01*
X201517555Y-59290625D01*
X201449434Y-59270623D01*
X201428460Y-59253720D01*
X200418155Y-58243415D01*
X200384129Y-58181103D01*
X200381250Y-58154320D01*
X200381250Y-57484927D01*
X200381940Y-57471757D01*
X200396714Y-57331190D01*
X200397404Y-57324625D01*
X200385318Y-57209631D01*
X200378132Y-57141260D01*
X200378132Y-57141258D01*
X200377442Y-57134697D01*
X200318427Y-56953069D01*
X200222940Y-56787681D01*
X200095153Y-56645759D01*
X199940652Y-56533507D01*
X199934624Y-56530823D01*
X199934622Y-56530822D01*
X199772219Y-56458516D01*
X199772218Y-56458516D01*
X199766188Y-56455831D01*
X199672788Y-56435978D01*
X199585844Y-56417497D01*
X199585839Y-56417497D01*
X199579387Y-56416125D01*
X199388413Y-56416125D01*
X199381961Y-56417497D01*
X199381956Y-56417497D01*
X199295012Y-56435978D01*
X199201612Y-56455831D01*
X199195582Y-56458516D01*
X199195581Y-56458516D01*
X199033178Y-56530822D01*
X199033176Y-56530823D01*
X199027148Y-56533507D01*
X198872647Y-56645759D01*
X198744860Y-56787681D01*
X198649373Y-56953069D01*
X198639500Y-56983456D01*
X198633979Y-57000447D01*
X198593904Y-57059052D01*
X198528507Y-57086688D01*
X198472086Y-57080282D01*
X198314337Y-57024420D01*
X198314333Y-57024419D01*
X198309462Y-57022694D01*
X198304369Y-57021787D01*
X198304366Y-57021786D01*
X198094623Y-56984425D01*
X198094617Y-56984424D01*
X198089534Y-56983519D01*
X198015702Y-56982617D01*
X197871331Y-56980853D01*
X197871329Y-56980853D01*
X197866161Y-56980790D01*
X197645341Y-57014580D01*
X197433006Y-57083982D01*
X197335584Y-57134697D01*
X197255496Y-57176388D01*
X197197316Y-57190625D01*
X197107250Y-57190625D01*
X197039129Y-57170623D01*
X196992636Y-57116967D01*
X196981250Y-57064625D01*
X196981250Y-52497625D01*
X197001252Y-52429504D01*
X197054908Y-52383011D01*
X197107250Y-52371625D01*
X197174721Y-52371625D01*
X197242842Y-52391627D01*
G37*
%TD.AperFunction*%
%TD*%
%TA.AperFunction,Conductor*%
%TO.N,Net-(FB1-Pad1)*%
G36*
X205664372Y-46743627D02*
G01*
X205710865Y-46797283D01*
X205717147Y-46814128D01*
X205722725Y-46833124D01*
X205724115Y-46834329D01*
X205731798Y-46836000D01*
X206672250Y-46836000D01*
X206740371Y-46856002D01*
X206786864Y-46909658D01*
X206798250Y-46962000D01*
X206798250Y-47762417D01*
X206796504Y-47783322D01*
X206793179Y-47803085D01*
X206793026Y-47815624D01*
X206792217Y-47815614D01*
X206791807Y-47817444D01*
X206793283Y-47817417D01*
X206795422Y-47934529D01*
X206832623Y-48169411D01*
X206906110Y-48395582D01*
X206908356Y-48399989D01*
X206908358Y-48399995D01*
X206948303Y-48478391D01*
X207014073Y-48607472D01*
X207153855Y-48799864D01*
X207322011Y-48968020D01*
X207514403Y-49107802D01*
X207518820Y-49110052D01*
X207518819Y-49110052D01*
X207721880Y-49213517D01*
X207721886Y-49213519D01*
X207726293Y-49215765D01*
X207731002Y-49217295D01*
X207744187Y-49221579D01*
X207802793Y-49261653D01*
X207830429Y-49327050D01*
X207831250Y-49341412D01*
X207831250Y-50145399D01*
X207811248Y-50213520D01*
X207757592Y-50260013D01*
X207687318Y-50270117D01*
X207622738Y-50240623D01*
X207593998Y-50204552D01*
X207572888Y-50164849D01*
X207566106Y-50154640D01*
X207448940Y-50010981D01*
X207440296Y-50002277D01*
X207297462Y-49884114D01*
X207287291Y-49877254D01*
X207124219Y-49789082D01*
X207112920Y-49784332D01*
X206997557Y-49748620D01*
X206983455Y-49748414D01*
X206980250Y-49755170D01*
X206980250Y-51398000D01*
X206960248Y-51466121D01*
X206906592Y-51512614D01*
X206854250Y-51524000D01*
X206598250Y-51524000D01*
X206530129Y-51503998D01*
X206483636Y-51450342D01*
X206472250Y-51398000D01*
X206472250Y-49761948D01*
X206468277Y-49748417D01*
X206460482Y-49747297D01*
X206352693Y-49779021D01*
X206341309Y-49783620D01*
X206177028Y-49869504D01*
X206166767Y-49876218D01*
X206022291Y-49992380D01*
X206013530Y-50000959D01*
X205969202Y-50053787D01*
X205910093Y-50093113D01*
X205839105Y-50094239D01*
X205798620Y-50074731D01*
X205798263Y-50074471D01*
X205715296Y-50014192D01*
X205709268Y-50011508D01*
X205709266Y-50011507D01*
X205561265Y-49945613D01*
X205561264Y-49945613D01*
X205555234Y-49942928D01*
X205469544Y-49924714D01*
X205390311Y-49907872D01*
X205390307Y-49907872D01*
X205383854Y-49906500D01*
X205208646Y-49906500D01*
X205202193Y-49907872D01*
X205202189Y-49907872D01*
X205122956Y-49924714D01*
X205037266Y-49942928D01*
X205031237Y-49945613D01*
X205031235Y-49945613D01*
X204883235Y-50011507D01*
X204883233Y-50011508D01*
X204877205Y-50014192D01*
X204871864Y-50018072D01*
X204871863Y-50018073D01*
X204761399Y-50098330D01*
X204735458Y-50117177D01*
X204731045Y-50122079D01*
X204731043Y-50122080D01*
X204627118Y-50237500D01*
X204618220Y-50247382D01*
X204614920Y-50253098D01*
X204614917Y-50253102D01*
X204605094Y-50270117D01*
X204530616Y-50399118D01*
X204476473Y-50565751D01*
X204458159Y-50740000D01*
X204476473Y-50914249D01*
X204530616Y-51080882D01*
X204533919Y-51086603D01*
X204614917Y-51226898D01*
X204614920Y-51226902D01*
X204618220Y-51232618D01*
X204735458Y-51362823D01*
X204877204Y-51465808D01*
X204883232Y-51468492D01*
X204883234Y-51468493D01*
X205026067Y-51532086D01*
X205037266Y-51537072D01*
X205122956Y-51555286D01*
X205202189Y-51572128D01*
X205202193Y-51572128D01*
X205208646Y-51573500D01*
X205383854Y-51573500D01*
X205390307Y-51572128D01*
X205390311Y-51572128D01*
X205475093Y-51554107D01*
X205555234Y-51537072D01*
X205555610Y-51536905D01*
X205624285Y-51534944D01*
X205685082Y-51571608D01*
X205716405Y-51635321D01*
X205718250Y-51656804D01*
X205718250Y-51764625D01*
X205698248Y-51832746D01*
X205644592Y-51879239D01*
X205592250Y-51890625D01*
X199220250Y-51890625D01*
X199152129Y-51870623D01*
X199105636Y-51816967D01*
X199094250Y-51764625D01*
X199094250Y-51656804D01*
X199114252Y-51588683D01*
X199167908Y-51542190D01*
X199238182Y-51532086D01*
X199254690Y-51535925D01*
X199257266Y-51537072D01*
X199337407Y-51554107D01*
X199422189Y-51572128D01*
X199422193Y-51572128D01*
X199428646Y-51573500D01*
X199603854Y-51573500D01*
X199610307Y-51572128D01*
X199610311Y-51572128D01*
X199689544Y-51555286D01*
X199775234Y-51537072D01*
X199786433Y-51532086D01*
X199929266Y-51468493D01*
X199929268Y-51468492D01*
X199935296Y-51465808D01*
X200077042Y-51362823D01*
X200194280Y-51232618D01*
X200197580Y-51226902D01*
X200197583Y-51226898D01*
X200278581Y-51086603D01*
X200281884Y-51080882D01*
X200336027Y-50914249D01*
X200354341Y-50740000D01*
X200336027Y-50565751D01*
X200281884Y-50399118D01*
X200207406Y-50270117D01*
X200197583Y-50253102D01*
X200197580Y-50253098D01*
X200194280Y-50247382D01*
X200185382Y-50237500D01*
X200081457Y-50122080D01*
X200081455Y-50122079D01*
X200077042Y-50117177D01*
X199935296Y-50014192D01*
X199929268Y-50011508D01*
X199929266Y-50011507D01*
X199781265Y-49945613D01*
X199781264Y-49945613D01*
X199775234Y-49942928D01*
X199689544Y-49924714D01*
X199610311Y-49907872D01*
X199610307Y-49907872D01*
X199603854Y-49906500D01*
X199428646Y-49906500D01*
X199422193Y-49907872D01*
X199422189Y-49907872D01*
X199342956Y-49924714D01*
X199257266Y-49942928D01*
X199251237Y-49945613D01*
X199251235Y-49945613D01*
X199103235Y-50011507D01*
X199103233Y-50011508D01*
X199097205Y-50014192D01*
X199091864Y-50018072D01*
X199091863Y-50018073D01*
X199014238Y-50074471D01*
X198947370Y-50098330D01*
X198878219Y-50082249D01*
X198842535Y-50052172D01*
X198808941Y-50010983D01*
X198800296Y-50002277D01*
X198657462Y-49884114D01*
X198647291Y-49877254D01*
X198484219Y-49789082D01*
X198472920Y-49784332D01*
X198357557Y-49748620D01*
X198343455Y-49748414D01*
X198340250Y-49755170D01*
X198340250Y-51398000D01*
X198320248Y-51466121D01*
X198266592Y-51512614D01*
X198214250Y-51524000D01*
X197958250Y-51524000D01*
X197890129Y-51503998D01*
X197843636Y-51450342D01*
X197832250Y-51398000D01*
X197832250Y-49761948D01*
X197828277Y-49748417D01*
X197820482Y-49747297D01*
X197712693Y-49779021D01*
X197701309Y-49783620D01*
X197537028Y-49869504D01*
X197526767Y-49876218D01*
X197382291Y-49992380D01*
X197373531Y-50000958D01*
X197254369Y-50142970D01*
X197247443Y-50153084D01*
X197167665Y-50298201D01*
X197117319Y-50348259D01*
X197047903Y-50363153D01*
X196981453Y-50338152D01*
X196939069Y-50281195D01*
X196931250Y-50237500D01*
X196931250Y-49357658D01*
X196951252Y-49289537D01*
X197004908Y-49243044D01*
X197018313Y-49237825D01*
X197081498Y-49217295D01*
X197086207Y-49215765D01*
X197090614Y-49213519D01*
X197090620Y-49213517D01*
X197293681Y-49110052D01*
X197293680Y-49110052D01*
X197298097Y-49107802D01*
X197490489Y-48968020D01*
X197658645Y-48799864D01*
X197798427Y-48607472D01*
X197864197Y-48478391D01*
X197904142Y-48399995D01*
X197904144Y-48399989D01*
X197906390Y-48395582D01*
X197979877Y-48169411D01*
X198017078Y-47934529D01*
X198018958Y-47831566D01*
X198019058Y-47829726D01*
X198019321Y-47828163D01*
X198019387Y-47822720D01*
X198019415Y-47820483D01*
X198019415Y-47820479D01*
X198019474Y-47815624D01*
X198015523Y-47788036D01*
X198014250Y-47770173D01*
X198014250Y-47357548D01*
X198340250Y-47357548D01*
X198340250Y-48348052D01*
X198344223Y-48361583D01*
X198352018Y-48362703D01*
X198459807Y-48330979D01*
X198471191Y-48326380D01*
X198635472Y-48240496D01*
X198645733Y-48233782D01*
X198790209Y-48117620D01*
X198798969Y-48109042D01*
X198918131Y-47967030D01*
X198925057Y-47956916D01*
X199014368Y-47794458D01*
X199019196Y-47783194D01*
X199075252Y-47606484D01*
X199077800Y-47594497D01*
X199093857Y-47451339D01*
X199094250Y-47444315D01*
X199094250Y-47362115D01*
X199092909Y-47357548D01*
X205718250Y-47357548D01*
X205718250Y-47437912D01*
X205718551Y-47444060D01*
X205731941Y-47580626D01*
X205734324Y-47592661D01*
X205787904Y-47770124D01*
X205792579Y-47781466D01*
X205879607Y-47945144D01*
X205886394Y-47955360D01*
X206003560Y-48099019D01*
X206012204Y-48107723D01*
X206155038Y-48225886D01*
X206165209Y-48232746D01*
X206328281Y-48320918D01*
X206339580Y-48325668D01*
X206454943Y-48361380D01*
X206469045Y-48361586D01*
X206472250Y-48354830D01*
X206472250Y-47362115D01*
X206467775Y-47346876D01*
X206466385Y-47345671D01*
X206458702Y-47344000D01*
X205736365Y-47344000D01*
X205721126Y-47348475D01*
X205719921Y-47349865D01*
X205718250Y-47357548D01*
X199092909Y-47357548D01*
X199089775Y-47346876D01*
X199088385Y-47345671D01*
X199080702Y-47344000D01*
X198358365Y-47344000D01*
X198343126Y-47348475D01*
X198341921Y-47349865D01*
X198340250Y-47357548D01*
X198014250Y-47357548D01*
X198014250Y-46962000D01*
X198034252Y-46893879D01*
X198087908Y-46847386D01*
X198140250Y-46836000D01*
X199076135Y-46836000D01*
X199091374Y-46831525D01*
X199092579Y-46830135D01*
X199094165Y-46822843D01*
X199128190Y-46760530D01*
X199190502Y-46726505D01*
X199217286Y-46723625D01*
X205596251Y-46723625D01*
X205664372Y-46743627D01*
G37*
%TD.AperFunction*%
%TD*%
%TA.AperFunction,Conductor*%
%TO.N,Earth*%
G36*
X280449566Y-123130627D02*
G01*
X280470540Y-123147530D01*
X295330803Y-138007793D01*
X295364829Y-138070105D01*
X295359764Y-138140920D01*
X295329797Y-138186978D01*
X293165855Y-140302833D01*
X293146896Y-140318083D01*
X293098748Y-140349671D01*
X293097358Y-140350583D01*
X293052476Y-140368879D01*
X293017572Y-140375719D01*
X292994338Y-140380273D01*
X292970105Y-140382625D01*
X288755213Y-140382625D01*
X288730632Y-140380204D01*
X288725504Y-140379184D01*
X288671714Y-140368484D01*
X288626294Y-140349671D01*
X288576343Y-140316295D01*
X288557250Y-140300625D01*
X282094183Y-133837558D01*
X282060157Y-133775246D01*
X282057968Y-133761633D01*
X282040482Y-133595260D01*
X282040482Y-133595258D01*
X282039792Y-133588697D01*
X281980777Y-133407069D01*
X281885290Y-133241681D01*
X281850093Y-133202590D01*
X281761925Y-133104670D01*
X281761924Y-133104669D01*
X281757503Y-133099759D01*
X281603002Y-132987507D01*
X281596974Y-132984823D01*
X281596972Y-132984822D01*
X281434569Y-132912516D01*
X281434568Y-132912516D01*
X281428538Y-132909831D01*
X281335137Y-132889978D01*
X281248194Y-132871497D01*
X281248189Y-132871497D01*
X281241737Y-132870125D01*
X281178940Y-132870125D01*
X281110819Y-132850123D01*
X281089845Y-132833220D01*
X280188804Y-131932179D01*
X280173134Y-131913086D01*
X280139758Y-131863135D01*
X280120944Y-131817714D01*
X280111693Y-131771206D01*
X280111693Y-131722044D01*
X280120944Y-131675536D01*
X280139758Y-131630115D01*
X280173134Y-131580164D01*
X280188804Y-131561071D01*
X282289250Y-129460625D01*
X279577250Y-126748625D01*
X279561580Y-126729532D01*
X279528204Y-126679581D01*
X279509390Y-126634160D01*
X279497671Y-126575243D01*
X279495250Y-126550662D01*
X279495250Y-124888625D01*
X277034500Y-124888625D01*
X276966379Y-124868623D01*
X276919886Y-124814967D01*
X276908500Y-124762625D01*
X276908500Y-123236625D01*
X276928502Y-123168504D01*
X276982158Y-123122011D01*
X277034500Y-123110625D01*
X280381445Y-123110625D01*
X280449566Y-123130627D01*
G37*
%TD.AperFunction*%
%TA.AperFunction,Conductor*%
G36*
X294496692Y-116768915D02*
G01*
X294577192Y-116799655D01*
X294582260Y-116800686D01*
X294582263Y-116800687D01*
X294689517Y-116822508D01*
X294796097Y-116844192D01*
X294801272Y-116844382D01*
X294801274Y-116844382D01*
X295014173Y-116852189D01*
X295014177Y-116852189D01*
X295019337Y-116852378D01*
X295024457Y-116851722D01*
X295024459Y-116851722D01*
X295235788Y-116824650D01*
X295235789Y-116824650D01*
X295240916Y-116823993D01*
X295245866Y-116822508D01*
X295434419Y-116765939D01*
X295470627Y-116760625D01*
X297803195Y-116760625D01*
X297871316Y-116780627D01*
X297909580Y-116819111D01*
X298000645Y-116962606D01*
X298004068Y-116968000D01*
X298205267Y-117211207D01*
X298208157Y-117213921D01*
X298208158Y-117213922D01*
X298230473Y-117234877D01*
X298435360Y-117427279D01*
X298690721Y-117612809D01*
X298694190Y-117614716D01*
X298694193Y-117614718D01*
X298850506Y-117700652D01*
X298967321Y-117764872D01*
X298970990Y-117766325D01*
X298970995Y-117766327D01*
X299128390Y-117828644D01*
X299260798Y-117881068D01*
X299566525Y-117959565D01*
X299879679Y-117999125D01*
X300195321Y-117999125D01*
X300508475Y-117959565D01*
X300814202Y-117881068D01*
X300946610Y-117828644D01*
X301104005Y-117766327D01*
X301104010Y-117766325D01*
X301107679Y-117764872D01*
X301224494Y-117700652D01*
X301380807Y-117614718D01*
X301380810Y-117614716D01*
X301384279Y-117612809D01*
X301639640Y-117427279D01*
X301844527Y-117234877D01*
X301866842Y-117213922D01*
X301866843Y-117213921D01*
X301869733Y-117211207D01*
X302070932Y-116968000D01*
X302074356Y-116962606D01*
X302165420Y-116819111D01*
X302218809Y-116772312D01*
X302271805Y-116760625D01*
X302600840Y-116760625D01*
X302625420Y-116763046D01*
X302639965Y-116765939D01*
X302684341Y-116774766D01*
X302729760Y-116793579D01*
X302736092Y-116797810D01*
X302769189Y-116819925D01*
X302803950Y-116854686D01*
X302830295Y-116894113D01*
X302849110Y-116939536D01*
X302860829Y-116998455D01*
X302863250Y-117023035D01*
X302863250Y-127420215D01*
X302860829Y-127444795D01*
X302849110Y-127503714D01*
X302830295Y-127549137D01*
X302803950Y-127588564D01*
X302769189Y-127623325D01*
X302749579Y-127636429D01*
X302729760Y-127649671D01*
X302684341Y-127668484D01*
X302649323Y-127675450D01*
X302625420Y-127680204D01*
X302600840Y-127682625D01*
X298799250Y-127682625D01*
X298799250Y-131535209D01*
X298791490Y-131574214D01*
X298792742Y-131574603D01*
X298732328Y-131769168D01*
X298708382Y-131971484D01*
X298721707Y-132174776D01*
X298771855Y-132372235D01*
X298787677Y-132406554D01*
X298799250Y-132459304D01*
X298799250Y-134207375D01*
X298779248Y-134275496D01*
X298725592Y-134321989D01*
X298673250Y-134333375D01*
X296435805Y-134333375D01*
X296367684Y-134313373D01*
X296346710Y-134296470D01*
X285325513Y-123275273D01*
X285291487Y-123212961D01*
X285296552Y-123142146D01*
X285321492Y-123110625D01*
X285337250Y-123110625D01*
X286648845Y-121799030D01*
X286711157Y-121765004D01*
X286737940Y-121762125D01*
X286833498Y-121762125D01*
X286842067Y-121762417D01*
X286889707Y-121765665D01*
X286889711Y-121765665D01*
X286897283Y-121766181D01*
X286904760Y-121764876D01*
X286904762Y-121764876D01*
X286942380Y-121758310D01*
X286957890Y-121755603D01*
X286964408Y-121754642D01*
X287025480Y-121747251D01*
X287032584Y-121744567D01*
X287037477Y-121743365D01*
X287047944Y-121740501D01*
X287052769Y-121739044D01*
X287060248Y-121737739D01*
X287067201Y-121734687D01*
X287067204Y-121734686D01*
X287116580Y-121713013D01*
X287122683Y-121710522D01*
X287173119Y-121691463D01*
X287173121Y-121691462D01*
X287180229Y-121688776D01*
X287186494Y-121684470D01*
X287190987Y-121682121D01*
X287200420Y-121676871D01*
X287204766Y-121674301D01*
X287211725Y-121671246D01*
X287218817Y-121665804D01*
X287260535Y-121633794D01*
X287265870Y-121629918D01*
X287310298Y-121599383D01*
X287310304Y-121599378D01*
X287316563Y-121595076D01*
X287356229Y-121550556D01*
X287361209Y-121545281D01*
X288594929Y-120311561D01*
X288601195Y-120305707D01*
X288637180Y-120274315D01*
X288642905Y-120269321D01*
X288678277Y-120218992D01*
X288682210Y-120213697D01*
X288715483Y-120171262D01*
X288720168Y-120165287D01*
X288723292Y-120158368D01*
X288725882Y-120154092D01*
X288731293Y-120144605D01*
X288733661Y-120140188D01*
X288738027Y-120133976D01*
X288760372Y-120076664D01*
X288762928Y-120070583D01*
X288779590Y-120033681D01*
X288788244Y-120014515D01*
X288789628Y-120007047D01*
X288791146Y-120002203D01*
X288794105Y-119991817D01*
X288795362Y-119986921D01*
X288798120Y-119979848D01*
X288806150Y-119918850D01*
X288807182Y-119912333D01*
X288817007Y-119859323D01*
X288818391Y-119851856D01*
X288814959Y-119792335D01*
X288814750Y-119785083D01*
X288814750Y-119685315D01*
X288834752Y-119617194D01*
X288851655Y-119596220D01*
X290374600Y-118073275D01*
X290437498Y-118039123D01*
X290475235Y-118031101D01*
X290572538Y-118010419D01*
X290597905Y-117999125D01*
X290740972Y-117935428D01*
X290740974Y-117935427D01*
X290747002Y-117932743D01*
X290759269Y-117923831D01*
X290890281Y-117828644D01*
X290901503Y-117820491D01*
X290946573Y-117770436D01*
X291024871Y-117683477D01*
X291024872Y-117683476D01*
X291029290Y-117678569D01*
X291105526Y-117546524D01*
X291121473Y-117518904D01*
X291121474Y-117518903D01*
X291124777Y-117513181D01*
X291183792Y-117331553D01*
X291187052Y-117300533D01*
X291214064Y-117234877D01*
X291223267Y-117224608D01*
X291605250Y-116842625D01*
X291624343Y-116826955D01*
X291630999Y-116822508D01*
X291674294Y-116793579D01*
X291719714Y-116774766D01*
X291778632Y-116763046D01*
X291803213Y-116760625D01*
X294451743Y-116760625D01*
X294496692Y-116768915D01*
G37*
%TD.AperFunction*%
%TD*%
M02*
