%TF.GenerationSoftware,KiCad,Pcbnew,(5.99.0-11177-g6c67dfa032)*%
%TF.CreationDate,2021-09-16T00:40:47+03:00*%
%TF.ProjectId,Charon_32U4_Hotswap,43686172-6f6e-45f3-9332-55345f486f74,rev?*%
%TF.SameCoordinates,Original*%
%TF.FileFunction,Soldermask,Top*%
%TF.FilePolarity,Negative*%
%FSLAX46Y46*%
G04 Gerber Fmt 4.6, Leading zero omitted, Abs format (unit mm)*
G04 Created by KiCad (PCBNEW (5.99.0-11177-g6c67dfa032)) date 2021-09-16 00:40:47*
%MOMM*%
%LPD*%
G01*
G04 APERTURE LIST*
%ADD10C,3.048000*%
%ADD11C,3.987800*%
%ADD12C,4.000000*%
%ADD13C,3.050000*%
%ADD14C,3.000000*%
%ADD15C,1.700000*%
%ADD16C,0.650000*%
%ADD17O,1.000000X2.100000*%
%ADD18O,1.000000X1.600000*%
%ADD19C,2.950000*%
%ADD20R,1.700000X1.700000*%
%ADD21O,1.700000X1.700000*%
G04 APERTURE END LIST*
D10*
%TO.C,>NAME*%
X326263000Y-103425625D03*
X302387000Y-103425625D03*
D11*
X326263000Y-88185625D03*
X302387000Y-88185625D03*
%TD*%
D10*
%TO.C,>NAME*%
X202374500Y-141525625D03*
D11*
X226250500Y-126285625D03*
D10*
X226250500Y-141525625D03*
D11*
X202374500Y-126285625D03*
%TD*%
D12*
%TO.C,REF\u002A\u002A*%
X315610000Y-75015625D03*
D13*
X330850000Y-98815625D03*
D12*
X315610000Y-98815625D03*
D13*
X330850000Y-75015625D03*
%TD*%
D12*
%TO.C,REF\u002A\u002A*%
X250031250Y-126300625D03*
D13*
X135731250Y-141540625D03*
D12*
X135731250Y-126300625D03*
D13*
X250031250Y-141540625D03*
%TD*%
D10*
%TO.C,>NAME*%
X178625500Y-141525625D03*
D11*
X178625500Y-126285625D03*
D10*
X154749500Y-141525625D03*
D11*
X154749500Y-126285625D03*
%TD*%
D14*
%TO.C,K70*%
X341471250Y-132000625D03*
X347821250Y-129460625D03*
D15*
X340201250Y-134540625D03*
X350361250Y-134540625D03*
D12*
X345281250Y-134540625D03*
%TD*%
D16*
%TO.C,J1*%
X205296250Y-50740000D03*
X199516250Y-50740000D03*
D17*
X198086250Y-51270000D03*
D18*
X198086250Y-47090000D03*
D17*
X206726250Y-51270000D03*
D18*
X206726250Y-47090000D03*
%TD*%
D15*
%TO.C,K57*%
X305117500Y-115490625D03*
D19*
X302577500Y-110410625D03*
X296227500Y-112950625D03*
D12*
X300037500Y-115490625D03*
D15*
X294957500Y-115490625D03*
%TD*%
D12*
%TO.C,K58*%
X326231250Y-115490625D03*
D15*
X321151250Y-115490625D03*
X331311250Y-115490625D03*
D14*
X322421250Y-112950625D03*
X328771250Y-110410625D03*
%TD*%
D19*
%TO.C,K31*%
X70485000Y-98980625D03*
D15*
X71755000Y-96440625D03*
X61595000Y-96440625D03*
D12*
X66675000Y-96440625D03*
D19*
X64135000Y-101520625D03*
%TD*%
D12*
%TO.C,K43a1*%
X302418750Y-96440625D03*
D14*
X299878750Y-100250625D03*
X297338750Y-93900625D03*
D15*
X302418750Y-101520625D03*
X302418750Y-91360625D03*
%TD*%
D12*
%TO.C,K7*%
X173831250Y-58340625D03*
D15*
X178911250Y-58340625D03*
D14*
X176371250Y-53260625D03*
X170021250Y-55800625D03*
D15*
X168751250Y-58340625D03*
%TD*%
D14*
%TO.C,K49*%
X143033750Y-110410625D03*
D15*
X135413750Y-115490625D03*
X145573750Y-115490625D03*
D12*
X140493750Y-115490625D03*
D14*
X136683750Y-112950625D03*
%TD*%
D15*
%TO.C,K64a1*%
X187801250Y-134540625D03*
D12*
X192881250Y-134540625D03*
D14*
X189071250Y-132000625D03*
X195421250Y-129460625D03*
D15*
X197961250Y-134540625D03*
%TD*%
%TO.C,K34*%
X125888750Y-96440625D03*
D14*
X127158750Y-93900625D03*
D12*
X130968750Y-96440625D03*
D14*
X133508750Y-91360625D03*
D15*
X136048750Y-96440625D03*
%TD*%
D14*
%TO.C,K9*%
X209391250Y-63420625D03*
X215741250Y-60880625D03*
D12*
X211931250Y-58340625D03*
D15*
X217011250Y-58340625D03*
X206851250Y-58340625D03*
%TD*%
%TO.C,K33*%
X106838750Y-96440625D03*
D14*
X108108750Y-93900625D03*
D15*
X116998750Y-96440625D03*
D12*
X111918750Y-96440625D03*
D14*
X114458750Y-91360625D03*
%TD*%
D15*
%TO.C,K56*%
X268763750Y-115490625D03*
D14*
X276383750Y-110410625D03*
D12*
X273843750Y-115490625D03*
D14*
X270033750Y-112950625D03*
D15*
X278923750Y-115490625D03*
%TD*%
%TO.C,K54*%
X240823750Y-115490625D03*
D14*
X231933750Y-112950625D03*
D15*
X230663750Y-115490625D03*
D14*
X238283750Y-110410625D03*
D12*
X235743750Y-115490625D03*
%TD*%
D15*
%TO.C,K8*%
X187801250Y-58340625D03*
X197961250Y-58340625D03*
D12*
X192881250Y-58340625D03*
D14*
X196691250Y-60880625D03*
X190341250Y-63420625D03*
%TD*%
%TO.C,K24*%
X217646250Y-74850625D03*
D15*
X216376250Y-77390625D03*
D14*
X223996250Y-72310625D03*
D15*
X226536250Y-77390625D03*
D12*
X221456250Y-77390625D03*
%TD*%
D15*
%TO.C,K40*%
X240188750Y-96440625D03*
D14*
X241458750Y-93900625D03*
D12*
X245268750Y-96440625D03*
D14*
X247808750Y-91360625D03*
D15*
X250348750Y-96440625D03*
%TD*%
D14*
%TO.C,K11*%
X252571250Y-53260625D03*
D15*
X255111250Y-58340625D03*
D12*
X250031250Y-58340625D03*
D14*
X246221250Y-55800625D03*
D15*
X244951250Y-58340625D03*
%TD*%
%TO.C,K15*%
X331311250Y-58340625D03*
X321151250Y-58340625D03*
D14*
X330041250Y-60880625D03*
D12*
X326231250Y-58340625D03*
D14*
X323691250Y-63420625D03*
%TD*%
%TO.C,K52*%
X200183750Y-110410625D03*
D15*
X192563750Y-115490625D03*
D12*
X197643750Y-115490625D03*
D15*
X202723750Y-115490625D03*
D14*
X193833750Y-112950625D03*
%TD*%
D12*
%TO.C,K53*%
X216693750Y-115490625D03*
D14*
X219233750Y-110410625D03*
D15*
X211613750Y-115490625D03*
D14*
X212883750Y-112950625D03*
D15*
X221773750Y-115490625D03*
%TD*%
%TO.C,K10*%
X236061250Y-58340625D03*
D14*
X227171250Y-55800625D03*
D15*
X225901250Y-58340625D03*
D14*
X233521250Y-53260625D03*
D12*
X230981250Y-58340625D03*
%TD*%
D14*
%TO.C,K63*%
X131921250Y-132000625D03*
X138271250Y-129460625D03*
D12*
X135731250Y-134540625D03*
D15*
X130651250Y-134540625D03*
X140811250Y-134540625D03*
%TD*%
D14*
%TO.C,K27*%
X281146250Y-72310625D03*
D15*
X283686250Y-77390625D03*
D12*
X278606250Y-77390625D03*
D15*
X273526250Y-77390625D03*
D14*
X274796250Y-74850625D03*
%TD*%
D15*
%TO.C,K51*%
X173513750Y-115490625D03*
D14*
X181133750Y-110410625D03*
D12*
X178593750Y-115490625D03*
D14*
X174783750Y-112950625D03*
D15*
X183673750Y-115490625D03*
%TD*%
%TO.C,K5*%
X130651250Y-58340625D03*
D14*
X131921250Y-55800625D03*
D15*
X140811250Y-58340625D03*
D12*
X135731250Y-58340625D03*
D14*
X138271250Y-53260625D03*
%TD*%
%TO.C,K50*%
X155733750Y-112950625D03*
D15*
X164623750Y-115490625D03*
D14*
X162083750Y-110410625D03*
D15*
X154463750Y-115490625D03*
D12*
X159543750Y-115490625D03*
%TD*%
%TO.C,K41*%
X264318750Y-96440625D03*
D14*
X266858750Y-91360625D03*
X260508750Y-93900625D03*
D15*
X269398750Y-96440625D03*
X259238750Y-96440625D03*
%TD*%
%TO.C,K17*%
X93186250Y-77390625D03*
X83026250Y-77390625D03*
D14*
X84296250Y-74850625D03*
D12*
X88106250Y-77390625D03*
D14*
X90646250Y-72310625D03*
%TD*%
D12*
%TO.C,K38*%
X207168750Y-96440625D03*
D15*
X202088750Y-96440625D03*
D14*
X209708750Y-91360625D03*
X203358750Y-93900625D03*
D15*
X212248750Y-96440625D03*
%TD*%
D19*
%TO.C,K64*%
X162877500Y-132000625D03*
X169227500Y-129460625D03*
D15*
X171767500Y-134540625D03*
D12*
X166687500Y-134540625D03*
D15*
X161607500Y-134540625D03*
%TD*%
D12*
%TO.C,K19*%
X126206250Y-77390625D03*
D15*
X121126250Y-77390625D03*
D14*
X128746250Y-72310625D03*
D15*
X131286250Y-77390625D03*
D14*
X122396250Y-74850625D03*
%TD*%
D12*
%TO.C,K29a1*%
X323850000Y-86915625D03*
D14*
X318770000Y-84375625D03*
X321310000Y-90725625D03*
D15*
X323850000Y-81835625D03*
X323850000Y-91995625D03*
%TD*%
%TO.C,K3*%
X92551250Y-58340625D03*
D14*
X100171250Y-53260625D03*
D15*
X102711250Y-58340625D03*
D14*
X93821250Y-55800625D03*
D12*
X97631250Y-58340625D03*
%TD*%
D15*
%TO.C,K29*%
X321468750Y-82470625D03*
D12*
X321468750Y-77390625D03*
D15*
X321468750Y-72310625D03*
D19*
X324008750Y-73580625D03*
X326548750Y-79930625D03*
%TD*%
D14*
%TO.C,K4*%
X119221250Y-53260625D03*
D15*
X121761250Y-58340625D03*
X111601250Y-58340625D03*
D12*
X116681250Y-58340625D03*
D14*
X112871250Y-55800625D03*
%TD*%
D12*
%TO.C,K37*%
X188118750Y-96440625D03*
D14*
X184308750Y-93900625D03*
D15*
X193198750Y-96440625D03*
D14*
X190658750Y-91360625D03*
D15*
X183038750Y-96440625D03*
%TD*%
D20*
%TO.C,ISP1*%
X285591250Y-117268625D03*
D21*
X288131250Y-117268625D03*
X285591250Y-114728625D03*
X288131250Y-114728625D03*
X285591250Y-112188625D03*
X288131250Y-112188625D03*
%TD*%
D15*
%TO.C,K23*%
X207486250Y-77390625D03*
D12*
X202406250Y-77390625D03*
D15*
X197326250Y-77390625D03*
D14*
X198596250Y-74850625D03*
X204946250Y-72310625D03*
%TD*%
D12*
%TO.C,K32*%
X92868750Y-96440625D03*
D14*
X95408750Y-91360625D03*
D15*
X87788750Y-96440625D03*
D14*
X89058750Y-93900625D03*
D15*
X97948750Y-96440625D03*
%TD*%
D12*
%TO.C,K26*%
X259556250Y-77390625D03*
D15*
X254476250Y-77390625D03*
X264636250Y-77390625D03*
D14*
X262096250Y-72310625D03*
X255746250Y-74850625D03*
%TD*%
D12*
%TO.C,K18*%
X107156250Y-77390625D03*
D15*
X102076250Y-77390625D03*
D14*
X103346250Y-74850625D03*
D15*
X112236250Y-77390625D03*
D14*
X109696250Y-72310625D03*
%TD*%
%TO.C,K22*%
X185896250Y-72310625D03*
D15*
X188436250Y-77390625D03*
D14*
X179546250Y-74850625D03*
D15*
X178276250Y-77390625D03*
D12*
X183356250Y-77390625D03*
%TD*%
D15*
%TO.C,K6*%
X159861250Y-58340625D03*
D12*
X154781250Y-58340625D03*
D15*
X149701250Y-58340625D03*
D14*
X157321250Y-53260625D03*
X150971250Y-55800625D03*
%TD*%
D15*
%TO.C,K42*%
X288448750Y-96440625D03*
X278288750Y-96440625D03*
D12*
X283368750Y-96440625D03*
D14*
X279558750Y-93900625D03*
X285908750Y-91360625D03*
%TD*%
D15*
%TO.C,K65*%
X209232500Y-134540625D03*
D19*
X216852500Y-129460625D03*
X210502500Y-132000625D03*
D12*
X214312500Y-134540625D03*
D15*
X219392500Y-134540625D03*
%TD*%
D20*
%TO.C,LED1*%
X60637500Y-104060625D03*
D21*
X63177500Y-104060625D03*
%TD*%
D15*
%TO.C,K30*%
X340201250Y-77390625D03*
X350361250Y-77390625D03*
D14*
X347821250Y-72310625D03*
X341471250Y-74850625D03*
D12*
X345281250Y-77390625D03*
%TD*%
D14*
%TO.C,K12*%
X265271250Y-55800625D03*
D15*
X264001250Y-58340625D03*
X274161250Y-58340625D03*
D12*
X269081250Y-58340625D03*
D14*
X271621250Y-53260625D03*
%TD*%
D15*
%TO.C,K20*%
X150336250Y-77390625D03*
D12*
X145256250Y-77390625D03*
D14*
X147796250Y-72310625D03*
D15*
X140176250Y-77390625D03*
D14*
X141446250Y-74850625D03*
%TD*%
D15*
%TO.C,K48*%
X116363750Y-115490625D03*
D14*
X117633750Y-112950625D03*
X123983750Y-110410625D03*
D12*
X121443750Y-115490625D03*
D15*
X126523750Y-115490625D03*
%TD*%
D12*
%TO.C,K69*%
X326231250Y-134540625D03*
D15*
X321151250Y-134540625D03*
X331311250Y-134540625D03*
D14*
X322421250Y-132000625D03*
X328771250Y-129460625D03*
%TD*%
D15*
%TO.C,K45*%
X66992500Y-115490625D03*
X56832500Y-115490625D03*
D19*
X65722500Y-118030625D03*
X59372500Y-120570625D03*
D12*
X61912500Y-115490625D03*
%TD*%
D15*
%TO.C,K13*%
X293211250Y-58340625D03*
D12*
X288131250Y-58340625D03*
D14*
X290671250Y-53260625D03*
D15*
X283051250Y-58340625D03*
D14*
X284321250Y-55800625D03*
%TD*%
D15*
%TO.C,K61*%
X83026250Y-134540625D03*
D14*
X84296250Y-132000625D03*
X90646250Y-129460625D03*
D15*
X93186250Y-134540625D03*
D12*
X88106250Y-134540625D03*
%TD*%
D14*
%TO.C,K43*%
X311785000Y-100250625D03*
D12*
X314325000Y-96440625D03*
D14*
X309245000Y-93900625D03*
D15*
X314325000Y-91360625D03*
X314325000Y-101520625D03*
%TD*%
D14*
%TO.C,K47*%
X104933750Y-110410625D03*
D12*
X102393750Y-115490625D03*
D15*
X97313750Y-115490625D03*
D14*
X98583750Y-112950625D03*
D15*
X107473750Y-115490625D03*
%TD*%
D12*
%TO.C,K28*%
X297656250Y-77390625D03*
D15*
X302736250Y-77390625D03*
X292576250Y-77390625D03*
D14*
X300196250Y-72310625D03*
X293846250Y-74850625D03*
%TD*%
%TO.C,K36*%
X165258750Y-93900625D03*
D15*
X174148750Y-96440625D03*
X163988750Y-96440625D03*
D14*
X171608750Y-91360625D03*
D12*
X169068750Y-96440625D03*
%TD*%
D14*
%TO.C,K39*%
X228758750Y-91360625D03*
D12*
X226218750Y-96440625D03*
D15*
X231298750Y-96440625D03*
D14*
X222408750Y-93900625D03*
D15*
X221138750Y-96440625D03*
%TD*%
D19*
%TO.C,K62*%
X114458750Y-129460625D03*
D12*
X111918750Y-134540625D03*
D15*
X116998750Y-134540625D03*
X106838750Y-134540625D03*
D19*
X108108750Y-132000625D03*
%TD*%
D14*
%TO.C,K59*%
X341471250Y-112950625D03*
D12*
X345281250Y-115490625D03*
D15*
X350361250Y-115490625D03*
X340201250Y-115490625D03*
D14*
X347821250Y-110410625D03*
%TD*%
D19*
%TO.C,K60*%
X66833750Y-129460625D03*
D15*
X69373750Y-134540625D03*
D19*
X60483750Y-132000625D03*
D12*
X64293750Y-134540625D03*
D15*
X59213750Y-134540625D03*
%TD*%
D12*
%TO.C,K67*%
X273843750Y-134540625D03*
D15*
X278923750Y-134540625D03*
X268763750Y-134540625D03*
D19*
X276383750Y-129460625D03*
X270033750Y-132000625D03*
%TD*%
D12*
%TO.C,K44*%
X345281250Y-96440625D03*
D15*
X340201250Y-96440625D03*
D14*
X347821250Y-91360625D03*
D15*
X350361250Y-96440625D03*
D14*
X341471250Y-93900625D03*
%TD*%
%TO.C,K1*%
X62071250Y-53260625D03*
D15*
X64611250Y-58340625D03*
D12*
X59531250Y-58340625D03*
D14*
X55721250Y-55800625D03*
D15*
X54451250Y-58340625D03*
%TD*%
%TO.C,K46*%
X78263750Y-115490625D03*
D14*
X80803750Y-120570625D03*
X87153750Y-118030625D03*
D12*
X83343750Y-115490625D03*
D15*
X88423750Y-115490625D03*
%TD*%
D12*
%TO.C,K55*%
X254793750Y-115490625D03*
D15*
X259873750Y-115490625D03*
X249713750Y-115490625D03*
D14*
X257333750Y-110410625D03*
X250983750Y-112950625D03*
%TD*%
%TO.C,K21*%
X160496250Y-74850625D03*
D15*
X169386250Y-77390625D03*
D14*
X166846250Y-72310625D03*
D15*
X159226250Y-77390625D03*
D12*
X164306250Y-77390625D03*
%TD*%
D15*
%TO.C,K68*%
X312261250Y-134540625D03*
D14*
X303371250Y-132000625D03*
D15*
X302101250Y-134540625D03*
D14*
X309721250Y-129460625D03*
D12*
X307181250Y-134540625D03*
%TD*%
D14*
%TO.C,K66*%
X252571250Y-129460625D03*
D15*
X255111250Y-134540625D03*
D12*
X250031250Y-134540625D03*
D15*
X244951250Y-134540625D03*
D14*
X246221250Y-132000625D03*
%TD*%
D19*
%TO.C,K16*%
X60483750Y-74850625D03*
D12*
X64293750Y-77390625D03*
D15*
X59213750Y-77390625D03*
D19*
X66833750Y-72310625D03*
D15*
X69373750Y-77390625D03*
%TD*%
D20*
%TO.C,LED1a1*%
X65400000Y-88820625D03*
D21*
X67940000Y-88820625D03*
%TD*%
D14*
%TO.C,K2*%
X81121250Y-53260625D03*
D12*
X78581250Y-58340625D03*
D15*
X83661250Y-58340625D03*
D14*
X74771250Y-55800625D03*
D15*
X73501250Y-58340625D03*
%TD*%
%TO.C,K45a1*%
X66357500Y-115490625D03*
D13*
X59537500Y-108490625D03*
D19*
X67627500Y-112950625D03*
D15*
X76517500Y-115490625D03*
D12*
X71437500Y-115490625D03*
D13*
X83337500Y-108490625D03*
D12*
X83337500Y-123730625D03*
X59537500Y-123730625D03*
D19*
X73977500Y-110410625D03*
%TD*%
D14*
%TO.C,K35*%
X152558750Y-91360625D03*
D15*
X155098750Y-96440625D03*
X144938750Y-96440625D03*
D14*
X146208750Y-93900625D03*
D12*
X150018750Y-96440625D03*
%TD*%
D15*
%TO.C,K31a1*%
X56832500Y-96440625D03*
X66992500Y-96440625D03*
D12*
X61912500Y-96440625D03*
D19*
X58102500Y-93900625D03*
X64452500Y-91360625D03*
%TD*%
D12*
%TO.C,K14*%
X307181250Y-58340625D03*
D14*
X310991250Y-60880625D03*
X304641250Y-63420625D03*
D15*
X312261250Y-58340625D03*
X302101250Y-58340625D03*
%TD*%
D12*
%TO.C,K14a1*%
X304806250Y-66580625D03*
D15*
X311626250Y-58340625D03*
D12*
X328606250Y-66580625D03*
D15*
X321786250Y-58340625D03*
D13*
X328606250Y-51340625D03*
D19*
X319246250Y-53260625D03*
D13*
X304806250Y-51340625D03*
D19*
X312896250Y-55800625D03*
D12*
X316706250Y-58340625D03*
%TD*%
D15*
%TO.C,K25*%
X245586250Y-77390625D03*
D14*
X243046250Y-72310625D03*
X236696250Y-74850625D03*
D12*
X240506250Y-77390625D03*
D15*
X235426250Y-77390625D03*
%TD*%
M02*
