M48
; DRILL file {KiCad (5.99.0-11177-g6c67dfa032)} date Thursday, September 16, 2021 at 12:40:43 AM
; FORMAT={-:-/ absolute / inch / decimal}
; #@! TF.CreationDate,2021-09-16T00:40:43+03:00
; #@! TF.GenerationSoftware,Kicad,Pcbnew,(5.99.0-11177-g6c67dfa032)
; #@! TF.FileFunction,Plated,1,2,PTH
FMAT,2
INCH
; #@! TA.AperFunction,Plated,PTH,ViaDrill
T1C0.0157
; #@! TA.AperFunction,Plated,PTH,ComponentDrill
T2C0.0236
; #@! TA.AperFunction,Plated,PTH,ComponentDrill
T3C0.0394
%
G90
G05
T1
X2.2415Y-3.2666
X3.0Y-3.9844
X3.8537Y-4.0869
X3.8958Y-3.2319
X5.2875Y-4.0511
X5.6158Y-4.0169
X6.7877Y-3.9819
X7.776Y-2.174
X7.8537Y-2.2569
X7.9324Y-2.3156
X7.9688Y-2.3719
X8.0062Y-2.6906
X8.0967Y-2.174
X8.1375Y-2.5969
X8.1937Y-3.1969
X8.1937Y-3.2669
X8.2312Y-3.2319
X8.3812Y-3.9469
X8.3837Y-4.0169
X8.3837Y-4.0869
X8.4187Y-3.9819
X8.4187Y-4.0519
X8.4187Y-4.1219
X8.4562Y-3.2319
X8.4938Y-3.1969
X8.4938Y-3.2669
X8.6437Y-3.9819
X8.6437Y-4.0519
X8.6445Y-4.1211
X8.6787Y-4.0169
X8.6787Y-4.0869
X8.6813Y-3.9469
X9.6937Y-4.7719
X9.8438Y-4.6219
X10.3537Y-4.1719
X10.3883Y-4.1469
X10.4183Y-4.1169
X10.4488Y-4.0919
X10.7837Y-4.7119
X10.7837Y-4.7819
X10.8138Y-4.6769
X10.8138Y-4.7469
X10.9387Y-4.6769
X10.9387Y-4.7469
X10.9688Y-2.4469
X10.9688Y-4.7119
X10.9688Y-4.7819
X10.9737Y-4.8769
X11.0488Y-5.0119
X11.0687Y-5.2669
X11.0687Y-5.3119
X11.0687Y-5.3569
X11.0687Y-5.4019
X11.0687Y-5.4469
X11.0687Y-5.4909
X11.1088Y-5.2169
X11.1137Y-5.0569
X11.1237Y-4.7176
X11.1587Y-4.6369
X11.2538Y-5.0969
X11.2937Y-4.7169
X11.3837Y-5.2269
X11.4038Y-4.9769
X11.4287Y-4.6119
X11.4337Y-4.7069
X11.4337Y-4.8469
X11.4337Y-5.3669
X11.4757Y-3.1969
X11.5077Y-3.9469
X11.5137Y-4.9092
X11.5237Y-5.0969
X11.5397Y-3.9844
X11.6687Y-4.6819
X11.6687Y-4.7519
X11.6738Y-4.8819
X11.7404Y-5.0518
X11.7637Y-5.2819
X11.7834Y-5.4281
X11.7835Y-5.3531
X11.7875Y-5.4989
X11.8087Y-5.3156
X11.8125Y-5.3906
X11.8125Y-5.4656
X11.8125Y-5.5406
X11.8737Y-4.6569
X11.8737Y-4.7219
X11.8737Y-4.7819
X11.8737Y-4.8419
X11.8737Y-4.9069
X12.0563Y-4.0781
X12.1312Y-4.0781
X12.2312Y-4.3469
T2
X2.054Y-2.1969
X2.1477Y-3.6969
X2.1977Y-4.7469
X2.2415Y-2.9469
X2.2415Y-5.1969
X2.3852Y-3.9969
X2.5227Y-4.4469
X2.5835Y-2.0969
X2.6773Y-3.5969
X2.7273Y-4.6469
X2.771Y-2.8469
X2.771Y-5.0969
X2.804Y-2.1969
X2.9148Y-3.8969
X3.0415Y-4.7469
X3.0523Y-4.3469
X3.179Y-2.9469
X3.179Y-5.1969
X3.3335Y-2.0969
X3.3665Y-3.6969
X3.554Y-2.1969
X3.571Y-4.6469
X3.7085Y-2.8469
X3.7085Y-5.0969
X3.7415Y-4.4469
X3.896Y-3.5969
X3.929Y-2.9469
X4.0835Y-2.0969
X4.1165Y-3.6969
X4.1165Y-5.1969
X4.271Y-4.3469
X4.304Y-2.1969
X4.4585Y-2.8469
X4.4915Y-4.4469
X4.646Y-3.5969
X4.646Y-5.0969
X4.679Y-2.9469
X4.8335Y-2.0969
X4.8665Y-3.6969
X5.021Y-4.3469
X5.054Y-2.1969
X5.054Y-5.1969
X5.2085Y-2.8469
X5.2415Y-4.4469
X5.396Y-3.5969
X5.429Y-2.9469
X5.5835Y-2.0969
X5.5835Y-5.0969
X5.6165Y-3.6969
X5.771Y-4.3469
X5.804Y-2.1969
X5.9585Y-2.8469
X5.9915Y-4.4469
X6.146Y-3.5969
X6.179Y-2.9469
X6.2727Y-5.1969
X6.3335Y-2.0969
X6.3665Y-3.6969
X6.521Y-4.3469
X6.554Y-2.1969
X6.7085Y-2.8469
X6.7415Y-4.4469
X6.8023Y-5.0969
X6.896Y-3.5969
X6.929Y-2.9469
X7.0835Y-2.0969
X7.1165Y-3.6969
X7.271Y-4.3469
X7.304Y-5.1969
X7.354Y-2.4969
X7.4585Y-2.8469
X7.4915Y-4.4469
X7.646Y-3.5969
X7.679Y-2.9469
X7.8335Y-5.0969
X7.8665Y-3.6969
X7.8835Y-2.3969
X8.021Y-4.3469
X8.104Y-2.4969
X8.1477Y-5.1969
X8.2085Y-2.8469
X8.2415Y-4.4469
X8.396Y-3.5969
X8.429Y-2.9469
X8.6165Y-3.6969
X8.6335Y-2.3969
X8.6773Y-5.0969
X8.771Y-4.3469
X8.804Y-2.1969
X8.9585Y-2.8469
X8.9915Y-4.4469
X9.146Y-3.5969
X9.179Y-2.9469
X9.3335Y-2.0969
X9.3665Y-3.6969
X9.521Y-4.3469
X9.554Y-2.1969
X9.554Y-5.1969
X9.7085Y-2.8469
X9.7415Y-4.4469
X9.896Y-3.5969
X9.929Y-2.9469
X10.0835Y-2.0969
X10.0835Y-5.0969
X10.1165Y-3.6969
X10.271Y-4.3469
X10.304Y-2.1969
X10.4585Y-2.8469
X10.4915Y-4.4469
X10.4915Y-5.1969
X10.646Y-3.5969
X10.679Y-2.9469
X10.8335Y-2.0969
X10.8665Y-3.6969
X11.021Y-4.3469
X11.021Y-5.0969
X11.054Y-2.1969
X11.2085Y-2.8469
X11.396Y-3.5969
X11.429Y-2.9469
X11.5227Y-4.4469
X11.5835Y-2.0969
X11.7062Y-3.5571
X11.804Y-5.1969
X11.8063Y-4.0866
X11.854Y-2.4969
X11.9585Y-2.8469
X12.0523Y-4.3469
X12.175Y-3.5571
X12.179Y-2.1969
X12.275Y-4.0866
X12.3335Y-5.0969
X12.3835Y-2.3969
X12.55Y-3.1821
X12.554Y-4.4469
X12.554Y-5.1969
X12.604Y-2.4969
X12.65Y-3.7116
X12.7085Y-2.0969
X12.7562Y-2.7571
X12.8562Y-3.2866
X13.0835Y-4.3469
X13.0835Y-5.0969
X13.1335Y-2.3969
X13.304Y-2.9469
X13.304Y-3.6969
X13.304Y-4.4469
X13.304Y-5.1969
X13.8335Y-2.8469
X13.8335Y-3.5969
X13.8335Y-4.3469
X13.8335Y-5.0969
T3
X2.3873Y-4.0969
X2.4873Y-4.0969
X2.5748Y-3.4969
X2.6748Y-3.4969
X11.2438Y-4.4169
X11.2438Y-4.5169
X11.2438Y-4.6169
X11.3438Y-4.4169
X11.3438Y-4.5169
X11.3438Y-4.6169
T2
G00X7.7987Y-1.8421
M15
G01X7.7987Y-1.8657
M16
G05
G00X7.7987Y-1.9969
M15
G01X7.7987Y-2.0402
M16
G05
G00X8.1388Y-1.8421
M15
G01X8.1388Y-1.8657
M16
G05
G00X8.1388Y-1.9969
M15
G01X8.1388Y-2.0402
M16
G05
T0
M30
