%TF.GenerationSoftware,KiCad,Pcbnew,(5.99.0-11177-g6c67dfa032)*%
%TF.CreationDate,2021-09-16T00:40:47+03:00*%
%TF.ProjectId,Charon_32U4_Hotswap,43686172-6f6e-45f3-9332-55345f486f74,rev?*%
%TF.SameCoordinates,Original*%
%TF.FileFunction,Legend,Bot*%
%TF.FilePolarity,Positive*%
%FSLAX46Y46*%
G04 Gerber Fmt 4.6, Leading zero omitted, Abs format (unit mm)*
G04 Created by KiCad (PCBNEW (5.99.0-11177-g6c67dfa032)) date 2021-09-16 00:40:47*
%MOMM*%
%LPD*%
G01*
G04 APERTURE LIST*
%ADD10C,0.150000*%
%ADD11C,0.120000*%
G04 APERTURE END LIST*
D10*
%TO.C,K70*%
X346495535Y-127119005D02*
X346495535Y-126119005D01*
X345924107Y-127119005D02*
X346352678Y-126547577D01*
X345924107Y-126119005D02*
X346495535Y-126690434D01*
X345590773Y-126119005D02*
X344924107Y-126119005D01*
X345352678Y-127119005D01*
X344352678Y-126119005D02*
X344257440Y-126119005D01*
X344162202Y-126166625D01*
X344114583Y-126214244D01*
X344066964Y-126309482D01*
X344019345Y-126499958D01*
X344019345Y-126738053D01*
X344066964Y-126928529D01*
X344114583Y-127023767D01*
X344162202Y-127071386D01*
X344257440Y-127119005D01*
X344352678Y-127119005D01*
X344447916Y-127071386D01*
X344495535Y-127023767D01*
X344543154Y-126928529D01*
X344590773Y-126738053D01*
X344590773Y-126499958D01*
X344543154Y-126309482D01*
X344495535Y-126214244D01*
X344447916Y-126166625D01*
X344352678Y-126119005D01*
%TO.C,J1*%
X202739583Y-48268005D02*
X202739583Y-48982291D01*
X202787202Y-49125148D01*
X202882440Y-49220386D01*
X203025297Y-49268005D01*
X203120535Y-49268005D01*
X201739583Y-49268005D02*
X202311011Y-49268005D01*
X202025297Y-49268005D02*
X202025297Y-48268005D01*
X202120535Y-48410863D01*
X202215773Y-48506101D01*
X202311011Y-48553720D01*
%TO.C,K57*%
X301251785Y-108069005D02*
X301251785Y-107069005D01*
X300680357Y-108069005D02*
X301108928Y-107497577D01*
X300680357Y-107069005D02*
X301251785Y-107640434D01*
X299775595Y-107069005D02*
X300251785Y-107069005D01*
X300299404Y-107545196D01*
X300251785Y-107497577D01*
X300156547Y-107449958D01*
X299918452Y-107449958D01*
X299823214Y-107497577D01*
X299775595Y-107545196D01*
X299727976Y-107640434D01*
X299727976Y-107878529D01*
X299775595Y-107973767D01*
X299823214Y-108021386D01*
X299918452Y-108069005D01*
X300156547Y-108069005D01*
X300251785Y-108021386D01*
X300299404Y-107973767D01*
X299394642Y-107069005D02*
X298727976Y-107069005D01*
X299156547Y-108069005D01*
%TO.C,KD25*%
X109971130Y-116157589D02*
X108971130Y-116157589D01*
X109971130Y-116729017D02*
X109399702Y-116300446D01*
X108971130Y-116729017D02*
X109542559Y-116157589D01*
X109971130Y-117157589D02*
X108971130Y-117157589D01*
X108971130Y-117395684D01*
X109018750Y-117538541D01*
X109113988Y-117633779D01*
X109209226Y-117681398D01*
X109399702Y-117729017D01*
X109542559Y-117729017D01*
X109733035Y-117681398D01*
X109828273Y-117633779D01*
X109923511Y-117538541D01*
X109971130Y-117395684D01*
X109971130Y-117157589D01*
X109066369Y-118109970D02*
X109018750Y-118157589D01*
X108971130Y-118252827D01*
X108971130Y-118490922D01*
X109018750Y-118586160D01*
X109066369Y-118633779D01*
X109161607Y-118681398D01*
X109256845Y-118681398D01*
X109399702Y-118633779D01*
X109971130Y-118062351D01*
X109971130Y-118681398D01*
X108971130Y-119586160D02*
X108971130Y-119109970D01*
X109447321Y-119062351D01*
X109399702Y-119109970D01*
X109352083Y-119205208D01*
X109352083Y-119443303D01*
X109399702Y-119538541D01*
X109447321Y-119586160D01*
X109542559Y-119633779D01*
X109780654Y-119633779D01*
X109875892Y-119586160D01*
X109923511Y-119538541D01*
X109971130Y-119443303D01*
X109971130Y-119205208D01*
X109923511Y-119109970D01*
X109875892Y-119062351D01*
%TO.C,K58*%
X327445535Y-108069005D02*
X327445535Y-107069005D01*
X326874107Y-108069005D02*
X327302678Y-107497577D01*
X326874107Y-107069005D02*
X327445535Y-107640434D01*
X325969345Y-107069005D02*
X326445535Y-107069005D01*
X326493154Y-107545196D01*
X326445535Y-107497577D01*
X326350297Y-107449958D01*
X326112202Y-107449958D01*
X326016964Y-107497577D01*
X325969345Y-107545196D01*
X325921726Y-107640434D01*
X325921726Y-107878529D01*
X325969345Y-107973767D01*
X326016964Y-108021386D01*
X326112202Y-108069005D01*
X326350297Y-108069005D01*
X326445535Y-108021386D01*
X326493154Y-107973767D01*
X325350297Y-107497577D02*
X325445535Y-107449958D01*
X325493154Y-107402339D01*
X325540773Y-107307101D01*
X325540773Y-107259482D01*
X325493154Y-107164244D01*
X325445535Y-107116625D01*
X325350297Y-107069005D01*
X325159821Y-107069005D01*
X325064583Y-107116625D01*
X325016964Y-107164244D01*
X324969345Y-107259482D01*
X324969345Y-107307101D01*
X325016964Y-107402339D01*
X325064583Y-107449958D01*
X325159821Y-107497577D01*
X325350297Y-107497577D01*
X325445535Y-107545196D01*
X325493154Y-107592815D01*
X325540773Y-107688053D01*
X325540773Y-107878529D01*
X325493154Y-107973767D01*
X325445535Y-108021386D01*
X325350297Y-108069005D01*
X325159821Y-108069005D01*
X325064583Y-108021386D01*
X325016964Y-107973767D01*
X324969345Y-107878529D01*
X324969345Y-107688053D01*
X325016964Y-107592815D01*
X325064583Y-107545196D01*
X325159821Y-107497577D01*
%TO.C,K31*%
X67889285Y-104767005D02*
X67889285Y-103767005D01*
X67317857Y-104767005D02*
X67746428Y-104195577D01*
X67317857Y-103767005D02*
X67889285Y-104338434D01*
X66984523Y-103767005D02*
X66365476Y-103767005D01*
X66698809Y-104147958D01*
X66555952Y-104147958D01*
X66460714Y-104195577D01*
X66413095Y-104243196D01*
X66365476Y-104338434D01*
X66365476Y-104576529D01*
X66413095Y-104671767D01*
X66460714Y-104719386D01*
X66555952Y-104767005D01*
X66841666Y-104767005D01*
X66936904Y-104719386D01*
X66984523Y-104671767D01*
X65413095Y-104767005D02*
X65984523Y-104767005D01*
X65698809Y-104767005D02*
X65698809Y-103767005D01*
X65794047Y-103909863D01*
X65889285Y-104005101D01*
X65984523Y-104052720D01*
%TO.C,K43a1*%
X295060630Y-94297767D02*
X294060630Y-94297767D01*
X295060630Y-94869196D02*
X294489202Y-94440625D01*
X294060630Y-94869196D02*
X294632059Y-94297767D01*
X294393964Y-95726339D02*
X295060630Y-95726339D01*
X294013011Y-95488244D02*
X294727297Y-95250148D01*
X294727297Y-95869196D01*
X294060630Y-96154910D02*
X294060630Y-96773958D01*
X294441583Y-96440625D01*
X294441583Y-96583482D01*
X294489202Y-96678720D01*
X294536821Y-96726339D01*
X294632059Y-96773958D01*
X294870154Y-96773958D01*
X294965392Y-96726339D01*
X295013011Y-96678720D01*
X295060630Y-96583482D01*
X295060630Y-96297767D01*
X295013011Y-96202529D01*
X294965392Y-96154910D01*
X295060630Y-97631101D02*
X294536821Y-97631101D01*
X294441583Y-97583482D01*
X294393964Y-97488244D01*
X294393964Y-97297767D01*
X294441583Y-97202529D01*
X295013011Y-97631101D02*
X295060630Y-97535863D01*
X295060630Y-97297767D01*
X295013011Y-97202529D01*
X294917773Y-97154910D01*
X294822535Y-97154910D01*
X294727297Y-97202529D01*
X294679678Y-97297767D01*
X294679678Y-97535863D01*
X294632059Y-97631101D01*
X295060630Y-98631101D02*
X295060630Y-98059672D01*
X295060630Y-98345386D02*
X294060630Y-98345386D01*
X294203488Y-98250148D01*
X294298726Y-98154910D01*
X294346345Y-98059672D01*
%TO.C,KD1*%
X67108630Y-59483779D02*
X66108630Y-59483779D01*
X67108630Y-60055208D02*
X66537202Y-59626636D01*
X66108630Y-60055208D02*
X66680059Y-59483779D01*
X67108630Y-60483779D02*
X66108630Y-60483779D01*
X66108630Y-60721875D01*
X66156250Y-60864732D01*
X66251488Y-60959970D01*
X66346726Y-61007589D01*
X66537202Y-61055208D01*
X66680059Y-61055208D01*
X66870535Y-61007589D01*
X66965773Y-60959970D01*
X67061011Y-60864732D01*
X67108630Y-60721875D01*
X67108630Y-60483779D01*
X67108630Y-62007589D02*
X67108630Y-61436160D01*
X67108630Y-61721875D02*
X66108630Y-61721875D01*
X66251488Y-61626636D01*
X66346726Y-61531398D01*
X66394345Y-61436160D01*
%TO.C,SW1*%
X291021011Y-104647291D02*
X291068630Y-104790148D01*
X291068630Y-105028244D01*
X291021011Y-105123482D01*
X290973392Y-105171101D01*
X290878154Y-105218720D01*
X290782916Y-105218720D01*
X290687678Y-105171101D01*
X290640059Y-105123482D01*
X290592440Y-105028244D01*
X290544821Y-104837767D01*
X290497202Y-104742529D01*
X290449583Y-104694910D01*
X290354345Y-104647291D01*
X290259107Y-104647291D01*
X290163869Y-104694910D01*
X290116250Y-104742529D01*
X290068630Y-104837767D01*
X290068630Y-105075863D01*
X290116250Y-105218720D01*
X290068630Y-105552053D02*
X291068630Y-105790148D01*
X290354345Y-105980625D01*
X291068630Y-106171101D01*
X290068630Y-106409196D01*
X291068630Y-107313958D02*
X291068630Y-106742529D01*
X291068630Y-107028244D02*
X290068630Y-107028244D01*
X290211488Y-106933005D01*
X290306726Y-106837767D01*
X290354345Y-106742529D01*
%TO.C,K7*%
X174569345Y-50919005D02*
X174569345Y-49919005D01*
X173997916Y-50919005D02*
X174426488Y-50347577D01*
X173997916Y-49919005D02*
X174569345Y-50490434D01*
X173664583Y-49919005D02*
X172997916Y-49919005D01*
X173426488Y-50919005D01*
%TO.C,KD31*%
X333808630Y-116157589D02*
X332808630Y-116157589D01*
X333808630Y-116729017D02*
X333237202Y-116300446D01*
X332808630Y-116729017D02*
X333380059Y-116157589D01*
X333808630Y-117157589D02*
X332808630Y-117157589D01*
X332808630Y-117395684D01*
X332856250Y-117538541D01*
X332951488Y-117633779D01*
X333046726Y-117681398D01*
X333237202Y-117729017D01*
X333380059Y-117729017D01*
X333570535Y-117681398D01*
X333665773Y-117633779D01*
X333761011Y-117538541D01*
X333808630Y-117395684D01*
X333808630Y-117157589D01*
X332808630Y-118062351D02*
X332808630Y-118681398D01*
X333189583Y-118348065D01*
X333189583Y-118490922D01*
X333237202Y-118586160D01*
X333284821Y-118633779D01*
X333380059Y-118681398D01*
X333618154Y-118681398D01*
X333713392Y-118633779D01*
X333761011Y-118586160D01*
X333808630Y-118490922D01*
X333808630Y-118205208D01*
X333761011Y-118109970D01*
X333713392Y-118062351D01*
X333808630Y-119633779D02*
X333808630Y-119062351D01*
X333808630Y-119348065D02*
X332808630Y-119348065D01*
X332951488Y-119252827D01*
X333046726Y-119157589D01*
X333094345Y-119062351D01*
%TO.C,K49*%
X141708035Y-108069005D02*
X141708035Y-107069005D01*
X141136607Y-108069005D02*
X141565178Y-107497577D01*
X141136607Y-107069005D02*
X141708035Y-107640434D01*
X140279464Y-107402339D02*
X140279464Y-108069005D01*
X140517559Y-107021386D02*
X140755654Y-107735672D01*
X140136607Y-107735672D01*
X139708035Y-108069005D02*
X139517559Y-108069005D01*
X139422321Y-108021386D01*
X139374702Y-107973767D01*
X139279464Y-107830910D01*
X139231845Y-107640434D01*
X139231845Y-107259482D01*
X139279464Y-107164244D01*
X139327083Y-107116625D01*
X139422321Y-107069005D01*
X139612797Y-107069005D01*
X139708035Y-107116625D01*
X139755654Y-107164244D01*
X139803273Y-107259482D01*
X139803273Y-107497577D01*
X139755654Y-107592815D01*
X139708035Y-107640434D01*
X139612797Y-107688053D01*
X139422321Y-107688053D01*
X139327083Y-107640434D01*
X139279464Y-107592815D01*
X139231845Y-107497577D01*
%TO.C,K64a1*%
X195024107Y-127119005D02*
X195024107Y-126119005D01*
X194452678Y-127119005D02*
X194881250Y-126547577D01*
X194452678Y-126119005D02*
X195024107Y-126690434D01*
X193595535Y-126119005D02*
X193786011Y-126119005D01*
X193881250Y-126166625D01*
X193928869Y-126214244D01*
X194024107Y-126357101D01*
X194071726Y-126547577D01*
X194071726Y-126928529D01*
X194024107Y-127023767D01*
X193976488Y-127071386D01*
X193881250Y-127119005D01*
X193690773Y-127119005D01*
X193595535Y-127071386D01*
X193547916Y-127023767D01*
X193500297Y-126928529D01*
X193500297Y-126690434D01*
X193547916Y-126595196D01*
X193595535Y-126547577D01*
X193690773Y-126499958D01*
X193881250Y-126499958D01*
X193976488Y-126547577D01*
X194024107Y-126595196D01*
X194071726Y-126690434D01*
X192643154Y-126452339D02*
X192643154Y-127119005D01*
X192881250Y-126071386D02*
X193119345Y-126785672D01*
X192500297Y-126785672D01*
X191690773Y-127119005D02*
X191690773Y-126595196D01*
X191738392Y-126499958D01*
X191833630Y-126452339D01*
X192024107Y-126452339D01*
X192119345Y-126499958D01*
X191690773Y-127071386D02*
X191786011Y-127119005D01*
X192024107Y-127119005D01*
X192119345Y-127071386D01*
X192166964Y-126976148D01*
X192166964Y-126880910D01*
X192119345Y-126785672D01*
X192024107Y-126738053D01*
X191786011Y-126738053D01*
X191690773Y-126690434D01*
X190690773Y-127119005D02*
X191262202Y-127119005D01*
X190976488Y-127119005D02*
X190976488Y-126119005D01*
X191071726Y-126261863D01*
X191166964Y-126357101D01*
X191262202Y-126404720D01*
%TO.C,K34*%
X132183035Y-89019005D02*
X132183035Y-88019005D01*
X131611607Y-89019005D02*
X132040178Y-88447577D01*
X131611607Y-88019005D02*
X132183035Y-88590434D01*
X131278273Y-88019005D02*
X130659226Y-88019005D01*
X130992559Y-88399958D01*
X130849702Y-88399958D01*
X130754464Y-88447577D01*
X130706845Y-88495196D01*
X130659226Y-88590434D01*
X130659226Y-88828529D01*
X130706845Y-88923767D01*
X130754464Y-88971386D01*
X130849702Y-89019005D01*
X131135416Y-89019005D01*
X131230654Y-88971386D01*
X131278273Y-88923767D01*
X129802083Y-88352339D02*
X129802083Y-89019005D01*
X130040178Y-87971386D02*
X130278273Y-88685672D01*
X129659226Y-88685672D01*
%TO.C,K9*%
X212669345Y-66667005D02*
X212669345Y-65667005D01*
X212097916Y-66667005D02*
X212526488Y-66095577D01*
X212097916Y-65667005D02*
X212669345Y-66238434D01*
X211621726Y-66667005D02*
X211431250Y-66667005D01*
X211336011Y-66619386D01*
X211288392Y-66571767D01*
X211193154Y-66428910D01*
X211145535Y-66238434D01*
X211145535Y-65857482D01*
X211193154Y-65762244D01*
X211240773Y-65714625D01*
X211336011Y-65667005D01*
X211526488Y-65667005D01*
X211621726Y-65714625D01*
X211669345Y-65762244D01*
X211716964Y-65857482D01*
X211716964Y-66095577D01*
X211669345Y-66190815D01*
X211621726Y-66238434D01*
X211526488Y-66286053D01*
X211336011Y-66286053D01*
X211240773Y-66238434D01*
X211193154Y-66190815D01*
X211145535Y-66095577D01*
%TO.C,K33*%
X113133035Y-89019005D02*
X113133035Y-88019005D01*
X112561607Y-89019005D02*
X112990178Y-88447577D01*
X112561607Y-88019005D02*
X113133035Y-88590434D01*
X112228273Y-88019005D02*
X111609226Y-88019005D01*
X111942559Y-88399958D01*
X111799702Y-88399958D01*
X111704464Y-88447577D01*
X111656845Y-88495196D01*
X111609226Y-88590434D01*
X111609226Y-88828529D01*
X111656845Y-88923767D01*
X111704464Y-88971386D01*
X111799702Y-89019005D01*
X112085416Y-89019005D01*
X112180654Y-88971386D01*
X112228273Y-88923767D01*
X111275892Y-88019005D02*
X110656845Y-88019005D01*
X110990178Y-88399958D01*
X110847321Y-88399958D01*
X110752083Y-88447577D01*
X110704464Y-88495196D01*
X110656845Y-88590434D01*
X110656845Y-88828529D01*
X110704464Y-88923767D01*
X110752083Y-88971386D01*
X110847321Y-89019005D01*
X111133035Y-89019005D01*
X111228273Y-88971386D01*
X111275892Y-88923767D01*
%TO.C,KD27*%
X186171130Y-116157589D02*
X185171130Y-116157589D01*
X186171130Y-116729017D02*
X185599702Y-116300446D01*
X185171130Y-116729017D02*
X185742559Y-116157589D01*
X186171130Y-117157589D02*
X185171130Y-117157589D01*
X185171130Y-117395684D01*
X185218750Y-117538541D01*
X185313988Y-117633779D01*
X185409226Y-117681398D01*
X185599702Y-117729017D01*
X185742559Y-117729017D01*
X185933035Y-117681398D01*
X186028273Y-117633779D01*
X186123511Y-117538541D01*
X186171130Y-117395684D01*
X186171130Y-117157589D01*
X185266369Y-118109970D02*
X185218750Y-118157589D01*
X185171130Y-118252827D01*
X185171130Y-118490922D01*
X185218750Y-118586160D01*
X185266369Y-118633779D01*
X185361607Y-118681398D01*
X185456845Y-118681398D01*
X185599702Y-118633779D01*
X186171130Y-118062351D01*
X186171130Y-118681398D01*
X185171130Y-119014732D02*
X185171130Y-119681398D01*
X186171130Y-119252827D01*
%TO.C,KD4*%
X181408630Y-59483779D02*
X180408630Y-59483779D01*
X181408630Y-60055208D02*
X180837202Y-59626636D01*
X180408630Y-60055208D02*
X180980059Y-59483779D01*
X181408630Y-60483779D02*
X180408630Y-60483779D01*
X180408630Y-60721875D01*
X180456250Y-60864732D01*
X180551488Y-60959970D01*
X180646726Y-61007589D01*
X180837202Y-61055208D01*
X180980059Y-61055208D01*
X181170535Y-61007589D01*
X181265773Y-60959970D01*
X181361011Y-60864732D01*
X181408630Y-60721875D01*
X181408630Y-60483779D01*
X180741964Y-61912351D02*
X181408630Y-61912351D01*
X180361011Y-61674255D02*
X181075297Y-61436160D01*
X181075297Y-62055208D01*
%TO.C,R4*%
X267374666Y-123251855D02*
X267708000Y-122775665D01*
X267946095Y-123251855D02*
X267946095Y-122251855D01*
X267565142Y-122251855D01*
X267469904Y-122299475D01*
X267422285Y-122347094D01*
X267374666Y-122442332D01*
X267374666Y-122585189D01*
X267422285Y-122680427D01*
X267469904Y-122728046D01*
X267565142Y-122775665D01*
X267946095Y-122775665D01*
X266517523Y-122585189D02*
X266517523Y-123251855D01*
X266755619Y-122204236D02*
X266993714Y-122918522D01*
X266374666Y-122918522D01*
%TO.C,C2*%
X298013392Y-134881958D02*
X298061011Y-134834339D01*
X298108630Y-134691482D01*
X298108630Y-134596244D01*
X298061011Y-134453386D01*
X297965773Y-134358148D01*
X297870535Y-134310529D01*
X297680059Y-134262910D01*
X297537202Y-134262910D01*
X297346726Y-134310529D01*
X297251488Y-134358148D01*
X297156250Y-134453386D01*
X297108630Y-134596244D01*
X297108630Y-134691482D01*
X297156250Y-134834339D01*
X297203869Y-134881958D01*
X297203869Y-135262910D02*
X297156250Y-135310529D01*
X297108630Y-135405767D01*
X297108630Y-135643863D01*
X297156250Y-135739101D01*
X297203869Y-135786720D01*
X297299107Y-135834339D01*
X297394345Y-135834339D01*
X297537202Y-135786720D01*
X298108630Y-135215291D01*
X298108630Y-135834339D01*
%TO.C,K56*%
X275058035Y-108069005D02*
X275058035Y-107069005D01*
X274486607Y-108069005D02*
X274915178Y-107497577D01*
X274486607Y-107069005D02*
X275058035Y-107640434D01*
X273581845Y-107069005D02*
X274058035Y-107069005D01*
X274105654Y-107545196D01*
X274058035Y-107497577D01*
X273962797Y-107449958D01*
X273724702Y-107449958D01*
X273629464Y-107497577D01*
X273581845Y-107545196D01*
X273534226Y-107640434D01*
X273534226Y-107878529D01*
X273581845Y-107973767D01*
X273629464Y-108021386D01*
X273724702Y-108069005D01*
X273962797Y-108069005D01*
X274058035Y-108021386D01*
X274105654Y-107973767D01*
X272677083Y-107069005D02*
X272867559Y-107069005D01*
X272962797Y-107116625D01*
X273010416Y-107164244D01*
X273105654Y-107307101D01*
X273153273Y-107497577D01*
X273153273Y-107878529D01*
X273105654Y-107973767D01*
X273058035Y-108021386D01*
X272962797Y-108069005D01*
X272772321Y-108069005D01*
X272677083Y-108021386D01*
X272629464Y-107973767D01*
X272581845Y-107878529D01*
X272581845Y-107640434D01*
X272629464Y-107545196D01*
X272677083Y-107497577D01*
X272772321Y-107449958D01*
X272962797Y-107449958D01*
X273058035Y-107497577D01*
X273105654Y-107545196D01*
X273153273Y-107640434D01*
%TO.C,K54*%
X236958035Y-108069005D02*
X236958035Y-107069005D01*
X236386607Y-108069005D02*
X236815178Y-107497577D01*
X236386607Y-107069005D02*
X236958035Y-107640434D01*
X235481845Y-107069005D02*
X235958035Y-107069005D01*
X236005654Y-107545196D01*
X235958035Y-107497577D01*
X235862797Y-107449958D01*
X235624702Y-107449958D01*
X235529464Y-107497577D01*
X235481845Y-107545196D01*
X235434226Y-107640434D01*
X235434226Y-107878529D01*
X235481845Y-107973767D01*
X235529464Y-108021386D01*
X235624702Y-108069005D01*
X235862797Y-108069005D01*
X235958035Y-108021386D01*
X236005654Y-107973767D01*
X234577083Y-107402339D02*
X234577083Y-108069005D01*
X234815178Y-107021386D02*
X235053273Y-107735672D01*
X234434226Y-107735672D01*
%TO.C,K8*%
X193619345Y-66667005D02*
X193619345Y-65667005D01*
X193047916Y-66667005D02*
X193476488Y-66095577D01*
X193047916Y-65667005D02*
X193619345Y-66238434D01*
X192476488Y-66095577D02*
X192571726Y-66047958D01*
X192619345Y-66000339D01*
X192666964Y-65905101D01*
X192666964Y-65857482D01*
X192619345Y-65762244D01*
X192571726Y-65714625D01*
X192476488Y-65667005D01*
X192286011Y-65667005D01*
X192190773Y-65714625D01*
X192143154Y-65762244D01*
X192095535Y-65857482D01*
X192095535Y-65905101D01*
X192143154Y-66000339D01*
X192190773Y-66047958D01*
X192286011Y-66095577D01*
X192476488Y-66095577D01*
X192571726Y-66143196D01*
X192619345Y-66190815D01*
X192666964Y-66286053D01*
X192666964Y-66476529D01*
X192619345Y-66571767D01*
X192571726Y-66619386D01*
X192476488Y-66667005D01*
X192286011Y-66667005D01*
X192190773Y-66619386D01*
X192143154Y-66571767D01*
X192095535Y-66476529D01*
X192095535Y-66286053D01*
X192143154Y-66190815D01*
X192190773Y-66143196D01*
X192286011Y-66095577D01*
%TO.C,KD19*%
X157596130Y-97107589D02*
X156596130Y-97107589D01*
X157596130Y-97679017D02*
X157024702Y-97250446D01*
X156596130Y-97679017D02*
X157167559Y-97107589D01*
X157596130Y-98107589D02*
X156596130Y-98107589D01*
X156596130Y-98345684D01*
X156643750Y-98488541D01*
X156738988Y-98583779D01*
X156834226Y-98631398D01*
X157024702Y-98679017D01*
X157167559Y-98679017D01*
X157358035Y-98631398D01*
X157453273Y-98583779D01*
X157548511Y-98488541D01*
X157596130Y-98345684D01*
X157596130Y-98107589D01*
X157596130Y-99631398D02*
X157596130Y-99059970D01*
X157596130Y-99345684D02*
X156596130Y-99345684D01*
X156738988Y-99250446D01*
X156834226Y-99155208D01*
X156881845Y-99059970D01*
X157596130Y-100107589D02*
X157596130Y-100298065D01*
X157548511Y-100393303D01*
X157500892Y-100440922D01*
X157358035Y-100536160D01*
X157167559Y-100583779D01*
X156786607Y-100583779D01*
X156691369Y-100536160D01*
X156643750Y-100488541D01*
X156596130Y-100393303D01*
X156596130Y-100202827D01*
X156643750Y-100107589D01*
X156691369Y-100059970D01*
X156786607Y-100012351D01*
X157024702Y-100012351D01*
X157119940Y-100059970D01*
X157167559Y-100107589D01*
X157215178Y-100202827D01*
X157215178Y-100393303D01*
X157167559Y-100488541D01*
X157119940Y-100536160D01*
X157024702Y-100583779D01*
%TO.C,K24*%
X222670535Y-69969005D02*
X222670535Y-68969005D01*
X222099107Y-69969005D02*
X222527678Y-69397577D01*
X222099107Y-68969005D02*
X222670535Y-69540434D01*
X221718154Y-69064244D02*
X221670535Y-69016625D01*
X221575297Y-68969005D01*
X221337202Y-68969005D01*
X221241964Y-69016625D01*
X221194345Y-69064244D01*
X221146726Y-69159482D01*
X221146726Y-69254720D01*
X221194345Y-69397577D01*
X221765773Y-69969005D01*
X221146726Y-69969005D01*
X220289583Y-69302339D02*
X220289583Y-69969005D01*
X220527678Y-68921386D02*
X220765773Y-69635672D01*
X220146726Y-69635672D01*
%TO.C,KD23*%
X323331130Y-97107589D02*
X322331130Y-97107589D01*
X323331130Y-97679017D02*
X322759702Y-97250446D01*
X322331130Y-97679017D02*
X322902559Y-97107589D01*
X323331130Y-98107589D02*
X322331130Y-98107589D01*
X322331130Y-98345684D01*
X322378750Y-98488541D01*
X322473988Y-98583779D01*
X322569226Y-98631398D01*
X322759702Y-98679017D01*
X322902559Y-98679017D01*
X323093035Y-98631398D01*
X323188273Y-98583779D01*
X323283511Y-98488541D01*
X323331130Y-98345684D01*
X323331130Y-98107589D01*
X322426369Y-99059970D02*
X322378750Y-99107589D01*
X322331130Y-99202827D01*
X322331130Y-99440922D01*
X322378750Y-99536160D01*
X322426369Y-99583779D01*
X322521607Y-99631398D01*
X322616845Y-99631398D01*
X322759702Y-99583779D01*
X323331130Y-99012351D01*
X323331130Y-99631398D01*
X322331130Y-99964732D02*
X322331130Y-100583779D01*
X322712083Y-100250446D01*
X322712083Y-100393303D01*
X322759702Y-100488541D01*
X322807321Y-100536160D01*
X322902559Y-100583779D01*
X323140654Y-100583779D01*
X323235892Y-100536160D01*
X323283511Y-100488541D01*
X323331130Y-100393303D01*
X323331130Y-100107589D01*
X323283511Y-100012351D01*
X323235892Y-99964732D01*
%TO.C,KD12*%
X190933630Y-78057589D02*
X189933630Y-78057589D01*
X190933630Y-78629017D02*
X190362202Y-78200446D01*
X189933630Y-78629017D02*
X190505059Y-78057589D01*
X190933630Y-79057589D02*
X189933630Y-79057589D01*
X189933630Y-79295684D01*
X189981250Y-79438541D01*
X190076488Y-79533779D01*
X190171726Y-79581398D01*
X190362202Y-79629017D01*
X190505059Y-79629017D01*
X190695535Y-79581398D01*
X190790773Y-79533779D01*
X190886011Y-79438541D01*
X190933630Y-79295684D01*
X190933630Y-79057589D01*
X190933630Y-80581398D02*
X190933630Y-80009970D01*
X190933630Y-80295684D02*
X189933630Y-80295684D01*
X190076488Y-80200446D01*
X190171726Y-80105208D01*
X190219345Y-80009970D01*
X190028869Y-80962351D02*
X189981250Y-81009970D01*
X189933630Y-81105208D01*
X189933630Y-81343303D01*
X189981250Y-81438541D01*
X190028869Y-81486160D01*
X190124107Y-81533779D01*
X190219345Y-81533779D01*
X190362202Y-81486160D01*
X190933630Y-80914732D01*
X190933630Y-81533779D01*
%TO.C,U2*%
X284223330Y-133434048D02*
X284795750Y-132861628D01*
X284896765Y-132827956D01*
X284964109Y-132827956D01*
X285065124Y-132861628D01*
X285199811Y-132996315D01*
X285233483Y-133097330D01*
X285233483Y-133164674D01*
X285199811Y-133265689D01*
X284627391Y-133838109D01*
X284997781Y-134073811D02*
X284997781Y-134141154D01*
X285031452Y-134242170D01*
X285199811Y-134410528D01*
X285300826Y-134444200D01*
X285368170Y-134444200D01*
X285469185Y-134410528D01*
X285536529Y-134343185D01*
X285603872Y-134208498D01*
X285603872Y-133400376D01*
X286041605Y-133838109D01*
%TO.C,KD36*%
X314758630Y-135207589D02*
X313758630Y-135207589D01*
X314758630Y-135779017D02*
X314187202Y-135350446D01*
X313758630Y-135779017D02*
X314330059Y-135207589D01*
X314758630Y-136207589D02*
X313758630Y-136207589D01*
X313758630Y-136445684D01*
X313806250Y-136588541D01*
X313901488Y-136683779D01*
X313996726Y-136731398D01*
X314187202Y-136779017D01*
X314330059Y-136779017D01*
X314520535Y-136731398D01*
X314615773Y-136683779D01*
X314711011Y-136588541D01*
X314758630Y-136445684D01*
X314758630Y-136207589D01*
X313758630Y-137112351D02*
X313758630Y-137731398D01*
X314139583Y-137398065D01*
X314139583Y-137540922D01*
X314187202Y-137636160D01*
X314234821Y-137683779D01*
X314330059Y-137731398D01*
X314568154Y-137731398D01*
X314663392Y-137683779D01*
X314711011Y-137636160D01*
X314758630Y-137540922D01*
X314758630Y-137255208D01*
X314711011Y-137159970D01*
X314663392Y-137112351D01*
X313758630Y-138588541D02*
X313758630Y-138398065D01*
X313806250Y-138302827D01*
X313853869Y-138255208D01*
X313996726Y-138159970D01*
X314187202Y-138112351D01*
X314568154Y-138112351D01*
X314663392Y-138159970D01*
X314711011Y-138207589D01*
X314758630Y-138302827D01*
X314758630Y-138493303D01*
X314711011Y-138588541D01*
X314663392Y-138636160D01*
X314568154Y-138683779D01*
X314330059Y-138683779D01*
X314234821Y-138636160D01*
X314187202Y-138588541D01*
X314139583Y-138493303D01*
X314139583Y-138302827D01*
X314187202Y-138207589D01*
X314234821Y-138159970D01*
X314330059Y-138112351D01*
%TO.C,K40*%
X246483035Y-89019005D02*
X246483035Y-88019005D01*
X245911607Y-89019005D02*
X246340178Y-88447577D01*
X245911607Y-88019005D02*
X246483035Y-88590434D01*
X245054464Y-88352339D02*
X245054464Y-89019005D01*
X245292559Y-87971386D02*
X245530654Y-88685672D01*
X244911607Y-88685672D01*
X244340178Y-88019005D02*
X244244940Y-88019005D01*
X244149702Y-88066625D01*
X244102083Y-88114244D01*
X244054464Y-88209482D01*
X244006845Y-88399958D01*
X244006845Y-88638053D01*
X244054464Y-88828529D01*
X244102083Y-88923767D01*
X244149702Y-88971386D01*
X244244940Y-89019005D01*
X244340178Y-89019005D01*
X244435416Y-88971386D01*
X244483035Y-88923767D01*
X244530654Y-88828529D01*
X244578273Y-88638053D01*
X244578273Y-88399958D01*
X244530654Y-88209482D01*
X244483035Y-88114244D01*
X244435416Y-88066625D01*
X244340178Y-88019005D01*
%TO.C,K11*%
X251245535Y-50919005D02*
X251245535Y-49919005D01*
X250674107Y-50919005D02*
X251102678Y-50347577D01*
X250674107Y-49919005D02*
X251245535Y-50490434D01*
X249721726Y-50919005D02*
X250293154Y-50919005D01*
X250007440Y-50919005D02*
X250007440Y-49919005D01*
X250102678Y-50061863D01*
X250197916Y-50157101D01*
X250293154Y-50204720D01*
X248769345Y-50919005D02*
X249340773Y-50919005D01*
X249055059Y-50919005D02*
X249055059Y-49919005D01*
X249150297Y-50061863D01*
X249245535Y-50157101D01*
X249340773Y-50204720D01*
%TO.C,K15*%
X323889535Y-60571005D02*
X323889535Y-59571005D01*
X323318107Y-60571005D02*
X323746678Y-59999577D01*
X323318107Y-59571005D02*
X323889535Y-60142434D01*
X322365726Y-60571005D02*
X322937154Y-60571005D01*
X322651440Y-60571005D02*
X322651440Y-59571005D01*
X322746678Y-59713863D01*
X322841916Y-59809101D01*
X322937154Y-59856720D01*
X321460964Y-59571005D02*
X321937154Y-59571005D01*
X321984773Y-60047196D01*
X321937154Y-59999577D01*
X321841916Y-59951958D01*
X321603821Y-59951958D01*
X321508583Y-59999577D01*
X321460964Y-60047196D01*
X321413345Y-60142434D01*
X321413345Y-60380529D01*
X321460964Y-60475767D01*
X321508583Y-60523386D01*
X321603821Y-60571005D01*
X321841916Y-60571005D01*
X321937154Y-60523386D01*
X321984773Y-60475767D01*
%TO.C,KD11*%
X152833630Y-78057589D02*
X151833630Y-78057589D01*
X152833630Y-78629017D02*
X152262202Y-78200446D01*
X151833630Y-78629017D02*
X152405059Y-78057589D01*
X152833630Y-79057589D02*
X151833630Y-79057589D01*
X151833630Y-79295684D01*
X151881250Y-79438541D01*
X151976488Y-79533779D01*
X152071726Y-79581398D01*
X152262202Y-79629017D01*
X152405059Y-79629017D01*
X152595535Y-79581398D01*
X152690773Y-79533779D01*
X152786011Y-79438541D01*
X152833630Y-79295684D01*
X152833630Y-79057589D01*
X152833630Y-80581398D02*
X152833630Y-80009970D01*
X152833630Y-80295684D02*
X151833630Y-80295684D01*
X151976488Y-80200446D01*
X152071726Y-80105208D01*
X152119345Y-80009970D01*
X152833630Y-81533779D02*
X152833630Y-80962351D01*
X152833630Y-81248065D02*
X151833630Y-81248065D01*
X151976488Y-81152827D01*
X152071726Y-81057589D01*
X152119345Y-80962351D01*
%TO.C,K52*%
X198858035Y-108069005D02*
X198858035Y-107069005D01*
X198286607Y-108069005D02*
X198715178Y-107497577D01*
X198286607Y-107069005D02*
X198858035Y-107640434D01*
X197381845Y-107069005D02*
X197858035Y-107069005D01*
X197905654Y-107545196D01*
X197858035Y-107497577D01*
X197762797Y-107449958D01*
X197524702Y-107449958D01*
X197429464Y-107497577D01*
X197381845Y-107545196D01*
X197334226Y-107640434D01*
X197334226Y-107878529D01*
X197381845Y-107973767D01*
X197429464Y-108021386D01*
X197524702Y-108069005D01*
X197762797Y-108069005D01*
X197858035Y-108021386D01*
X197905654Y-107973767D01*
X196953273Y-107164244D02*
X196905654Y-107116625D01*
X196810416Y-107069005D01*
X196572321Y-107069005D01*
X196477083Y-107116625D01*
X196429464Y-107164244D01*
X196381845Y-107259482D01*
X196381845Y-107354720D01*
X196429464Y-107497577D01*
X197000892Y-108069005D01*
X196381845Y-108069005D01*
%TO.C,K53*%
X217908035Y-108069005D02*
X217908035Y-107069005D01*
X217336607Y-108069005D02*
X217765178Y-107497577D01*
X217336607Y-107069005D02*
X217908035Y-107640434D01*
X216431845Y-107069005D02*
X216908035Y-107069005D01*
X216955654Y-107545196D01*
X216908035Y-107497577D01*
X216812797Y-107449958D01*
X216574702Y-107449958D01*
X216479464Y-107497577D01*
X216431845Y-107545196D01*
X216384226Y-107640434D01*
X216384226Y-107878529D01*
X216431845Y-107973767D01*
X216479464Y-108021386D01*
X216574702Y-108069005D01*
X216812797Y-108069005D01*
X216908035Y-108021386D01*
X216955654Y-107973767D01*
X216050892Y-107069005D02*
X215431845Y-107069005D01*
X215765178Y-107449958D01*
X215622321Y-107449958D01*
X215527083Y-107497577D01*
X215479464Y-107545196D01*
X215431845Y-107640434D01*
X215431845Y-107878529D01*
X215479464Y-107973767D01*
X215527083Y-108021386D01*
X215622321Y-108069005D01*
X215908035Y-108069005D01*
X216003273Y-108021386D01*
X216050892Y-107973767D01*
%TO.C,K10*%
X232195535Y-50919005D02*
X232195535Y-49919005D01*
X231624107Y-50919005D02*
X232052678Y-50347577D01*
X231624107Y-49919005D02*
X232195535Y-50490434D01*
X230671726Y-50919005D02*
X231243154Y-50919005D01*
X230957440Y-50919005D02*
X230957440Y-49919005D01*
X231052678Y-50061863D01*
X231147916Y-50157101D01*
X231243154Y-50204720D01*
X230052678Y-49919005D02*
X229957440Y-49919005D01*
X229862202Y-49966625D01*
X229814583Y-50014244D01*
X229766964Y-50109482D01*
X229719345Y-50299958D01*
X229719345Y-50538053D01*
X229766964Y-50728529D01*
X229814583Y-50823767D01*
X229862202Y-50871386D01*
X229957440Y-50919005D01*
X230052678Y-50919005D01*
X230147916Y-50871386D01*
X230195535Y-50823767D01*
X230243154Y-50728529D01*
X230290773Y-50538053D01*
X230290773Y-50299958D01*
X230243154Y-50109482D01*
X230195535Y-50014244D01*
X230147916Y-49966625D01*
X230052678Y-49919005D01*
%TO.C,K63*%
X136945535Y-127119005D02*
X136945535Y-126119005D01*
X136374107Y-127119005D02*
X136802678Y-126547577D01*
X136374107Y-126119005D02*
X136945535Y-126690434D01*
X135516964Y-126119005D02*
X135707440Y-126119005D01*
X135802678Y-126166625D01*
X135850297Y-126214244D01*
X135945535Y-126357101D01*
X135993154Y-126547577D01*
X135993154Y-126928529D01*
X135945535Y-127023767D01*
X135897916Y-127071386D01*
X135802678Y-127119005D01*
X135612202Y-127119005D01*
X135516964Y-127071386D01*
X135469345Y-127023767D01*
X135421726Y-126928529D01*
X135421726Y-126690434D01*
X135469345Y-126595196D01*
X135516964Y-126547577D01*
X135612202Y-126499958D01*
X135802678Y-126499958D01*
X135897916Y-126547577D01*
X135945535Y-126595196D01*
X135993154Y-126690434D01*
X135088392Y-126119005D02*
X134469345Y-126119005D01*
X134802678Y-126499958D01*
X134659821Y-126499958D01*
X134564583Y-126547577D01*
X134516964Y-126595196D01*
X134469345Y-126690434D01*
X134469345Y-126928529D01*
X134516964Y-127023767D01*
X134564583Y-127071386D01*
X134659821Y-127119005D01*
X134945535Y-127119005D01*
X135040773Y-127071386D01*
X135088392Y-127023767D01*
%TO.C,FB1*%
X205285821Y-54407291D02*
X205285821Y-54073958D01*
X205809630Y-54073958D02*
X204809630Y-54073958D01*
X204809630Y-54550148D01*
X205285821Y-55264434D02*
X205333440Y-55407291D01*
X205381059Y-55454910D01*
X205476297Y-55502529D01*
X205619154Y-55502529D01*
X205714392Y-55454910D01*
X205762011Y-55407291D01*
X205809630Y-55312053D01*
X205809630Y-54931101D01*
X204809630Y-54931101D01*
X204809630Y-55264434D01*
X204857250Y-55359672D01*
X204904869Y-55407291D01*
X205000107Y-55454910D01*
X205095345Y-55454910D01*
X205190583Y-55407291D01*
X205238202Y-55359672D01*
X205285821Y-55264434D01*
X205285821Y-54931101D01*
X205809630Y-56454910D02*
X205809630Y-55883482D01*
X205809630Y-56169196D02*
X204809630Y-56169196D01*
X204952488Y-56073958D01*
X205047726Y-55978720D01*
X205095345Y-55883482D01*
%TO.C,KD32*%
X76633630Y-135207589D02*
X75633630Y-135207589D01*
X76633630Y-135779017D02*
X76062202Y-135350446D01*
X75633630Y-135779017D02*
X76205059Y-135207589D01*
X76633630Y-136207589D02*
X75633630Y-136207589D01*
X75633630Y-136445684D01*
X75681250Y-136588541D01*
X75776488Y-136683779D01*
X75871726Y-136731398D01*
X76062202Y-136779017D01*
X76205059Y-136779017D01*
X76395535Y-136731398D01*
X76490773Y-136683779D01*
X76586011Y-136588541D01*
X76633630Y-136445684D01*
X76633630Y-136207589D01*
X75633630Y-137112351D02*
X75633630Y-137731398D01*
X76014583Y-137398065D01*
X76014583Y-137540922D01*
X76062202Y-137636160D01*
X76109821Y-137683779D01*
X76205059Y-137731398D01*
X76443154Y-137731398D01*
X76538392Y-137683779D01*
X76586011Y-137636160D01*
X76633630Y-137540922D01*
X76633630Y-137255208D01*
X76586011Y-137159970D01*
X76538392Y-137112351D01*
X75728869Y-138112351D02*
X75681250Y-138159970D01*
X75633630Y-138255208D01*
X75633630Y-138493303D01*
X75681250Y-138588541D01*
X75728869Y-138636160D01*
X75824107Y-138683779D01*
X75919345Y-138683779D01*
X76062202Y-138636160D01*
X76633630Y-138064732D01*
X76633630Y-138683779D01*
%TO.C,K27*%
X283154285Y-76414255D02*
X283154285Y-75414255D01*
X282582857Y-76414255D02*
X283011428Y-75842827D01*
X282582857Y-75414255D02*
X283154285Y-75985684D01*
X282201904Y-75509494D02*
X282154285Y-75461875D01*
X282059047Y-75414255D01*
X281820952Y-75414255D01*
X281725714Y-75461875D01*
X281678095Y-75509494D01*
X281630476Y-75604732D01*
X281630476Y-75699970D01*
X281678095Y-75842827D01*
X282249523Y-76414255D01*
X281630476Y-76414255D01*
X281297142Y-75414255D02*
X280630476Y-75414255D01*
X281059047Y-76414255D01*
%TO.C,K51*%
X179808035Y-108069005D02*
X179808035Y-107069005D01*
X179236607Y-108069005D02*
X179665178Y-107497577D01*
X179236607Y-107069005D02*
X179808035Y-107640434D01*
X178331845Y-107069005D02*
X178808035Y-107069005D01*
X178855654Y-107545196D01*
X178808035Y-107497577D01*
X178712797Y-107449958D01*
X178474702Y-107449958D01*
X178379464Y-107497577D01*
X178331845Y-107545196D01*
X178284226Y-107640434D01*
X178284226Y-107878529D01*
X178331845Y-107973767D01*
X178379464Y-108021386D01*
X178474702Y-108069005D01*
X178712797Y-108069005D01*
X178808035Y-108021386D01*
X178855654Y-107973767D01*
X177331845Y-108069005D02*
X177903273Y-108069005D01*
X177617559Y-108069005D02*
X177617559Y-107069005D01*
X177712797Y-107211863D01*
X177808035Y-107307101D01*
X177903273Y-107354720D01*
%TO.C,R2*%
X204697916Y-59293005D02*
X205031250Y-58816815D01*
X205269345Y-59293005D02*
X205269345Y-58293005D01*
X204888392Y-58293005D01*
X204793154Y-58340625D01*
X204745535Y-58388244D01*
X204697916Y-58483482D01*
X204697916Y-58626339D01*
X204745535Y-58721577D01*
X204793154Y-58769196D01*
X204888392Y-58816815D01*
X205269345Y-58816815D01*
X204316964Y-58388244D02*
X204269345Y-58340625D01*
X204174107Y-58293005D01*
X203936011Y-58293005D01*
X203840773Y-58340625D01*
X203793154Y-58388244D01*
X203745535Y-58483482D01*
X203745535Y-58578720D01*
X203793154Y-58721577D01*
X204364583Y-59293005D01*
X203745535Y-59293005D01*
%TO.C,K5*%
X136469345Y-50919005D02*
X136469345Y-49919005D01*
X135897916Y-50919005D02*
X136326488Y-50347577D01*
X135897916Y-49919005D02*
X136469345Y-50490434D01*
X134993154Y-49919005D02*
X135469345Y-49919005D01*
X135516964Y-50395196D01*
X135469345Y-50347577D01*
X135374107Y-50299958D01*
X135136011Y-50299958D01*
X135040773Y-50347577D01*
X134993154Y-50395196D01*
X134945535Y-50490434D01*
X134945535Y-50728529D01*
X134993154Y-50823767D01*
X135040773Y-50871386D01*
X135136011Y-50919005D01*
X135374107Y-50919005D01*
X135469345Y-50871386D01*
X135516964Y-50823767D01*
%TO.C,K50*%
X160758035Y-108069005D02*
X160758035Y-107069005D01*
X160186607Y-108069005D02*
X160615178Y-107497577D01*
X160186607Y-107069005D02*
X160758035Y-107640434D01*
X159281845Y-107069005D02*
X159758035Y-107069005D01*
X159805654Y-107545196D01*
X159758035Y-107497577D01*
X159662797Y-107449958D01*
X159424702Y-107449958D01*
X159329464Y-107497577D01*
X159281845Y-107545196D01*
X159234226Y-107640434D01*
X159234226Y-107878529D01*
X159281845Y-107973767D01*
X159329464Y-108021386D01*
X159424702Y-108069005D01*
X159662797Y-108069005D01*
X159758035Y-108021386D01*
X159805654Y-107973767D01*
X158615178Y-107069005D02*
X158519940Y-107069005D01*
X158424702Y-107116625D01*
X158377083Y-107164244D01*
X158329464Y-107259482D01*
X158281845Y-107449958D01*
X158281845Y-107688053D01*
X158329464Y-107878529D01*
X158377083Y-107973767D01*
X158424702Y-108021386D01*
X158519940Y-108069005D01*
X158615178Y-108069005D01*
X158710416Y-108021386D01*
X158758035Y-107973767D01*
X158805654Y-107878529D01*
X158853273Y-107688053D01*
X158853273Y-107449958D01*
X158805654Y-107259482D01*
X158758035Y-107164244D01*
X158710416Y-107116625D01*
X158615178Y-107069005D01*
%TO.C,K41*%
X265533035Y-89019005D02*
X265533035Y-88019005D01*
X264961607Y-89019005D02*
X265390178Y-88447577D01*
X264961607Y-88019005D02*
X265533035Y-88590434D01*
X264104464Y-88352339D02*
X264104464Y-89019005D01*
X264342559Y-87971386D02*
X264580654Y-88685672D01*
X263961607Y-88685672D01*
X263056845Y-89019005D02*
X263628273Y-89019005D01*
X263342559Y-89019005D02*
X263342559Y-88019005D01*
X263437797Y-88161863D01*
X263533035Y-88257101D01*
X263628273Y-88304720D01*
%TO.C,KD24*%
X90921130Y-119967589D02*
X89921130Y-119967589D01*
X90921130Y-120539017D02*
X90349702Y-120110446D01*
X89921130Y-120539017D02*
X90492559Y-119967589D01*
X90921130Y-120967589D02*
X89921130Y-120967589D01*
X89921130Y-121205684D01*
X89968750Y-121348541D01*
X90063988Y-121443779D01*
X90159226Y-121491398D01*
X90349702Y-121539017D01*
X90492559Y-121539017D01*
X90683035Y-121491398D01*
X90778273Y-121443779D01*
X90873511Y-121348541D01*
X90921130Y-121205684D01*
X90921130Y-120967589D01*
X90016369Y-121919970D02*
X89968750Y-121967589D01*
X89921130Y-122062827D01*
X89921130Y-122300922D01*
X89968750Y-122396160D01*
X90016369Y-122443779D01*
X90111607Y-122491398D01*
X90206845Y-122491398D01*
X90349702Y-122443779D01*
X90921130Y-121872351D01*
X90921130Y-122491398D01*
X90254464Y-123348541D02*
X90921130Y-123348541D01*
X89873511Y-123110446D02*
X90587797Y-122872351D01*
X90587797Y-123491398D01*
%TO.C,KD28*%
X224271130Y-116157589D02*
X223271130Y-116157589D01*
X224271130Y-116729017D02*
X223699702Y-116300446D01*
X223271130Y-116729017D02*
X223842559Y-116157589D01*
X224271130Y-117157589D02*
X223271130Y-117157589D01*
X223271130Y-117395684D01*
X223318750Y-117538541D01*
X223413988Y-117633779D01*
X223509226Y-117681398D01*
X223699702Y-117729017D01*
X223842559Y-117729017D01*
X224033035Y-117681398D01*
X224128273Y-117633779D01*
X224223511Y-117538541D01*
X224271130Y-117395684D01*
X224271130Y-117157589D01*
X223366369Y-118109970D02*
X223318750Y-118157589D01*
X223271130Y-118252827D01*
X223271130Y-118490922D01*
X223318750Y-118586160D01*
X223366369Y-118633779D01*
X223461607Y-118681398D01*
X223556845Y-118681398D01*
X223699702Y-118633779D01*
X224271130Y-118062351D01*
X224271130Y-118681398D01*
X223699702Y-119252827D02*
X223652083Y-119157589D01*
X223604464Y-119109970D01*
X223509226Y-119062351D01*
X223461607Y-119062351D01*
X223366369Y-119109970D01*
X223318750Y-119157589D01*
X223271130Y-119252827D01*
X223271130Y-119443303D01*
X223318750Y-119538541D01*
X223366369Y-119586160D01*
X223461607Y-119633779D01*
X223509226Y-119633779D01*
X223604464Y-119586160D01*
X223652083Y-119538541D01*
X223699702Y-119443303D01*
X223699702Y-119252827D01*
X223747321Y-119157589D01*
X223794940Y-119109970D01*
X223890178Y-119062351D01*
X224080654Y-119062351D01*
X224175892Y-119109970D01*
X224223511Y-119157589D01*
X224271130Y-119252827D01*
X224271130Y-119443303D01*
X224223511Y-119538541D01*
X224175892Y-119586160D01*
X224080654Y-119633779D01*
X223890178Y-119633779D01*
X223794940Y-119586160D01*
X223747321Y-119538541D01*
X223699702Y-119443303D01*
%TO.C,KD3*%
X143308630Y-59483779D02*
X142308630Y-59483779D01*
X143308630Y-60055208D02*
X142737202Y-59626636D01*
X142308630Y-60055208D02*
X142880059Y-59483779D01*
X143308630Y-60483779D02*
X142308630Y-60483779D01*
X142308630Y-60721875D01*
X142356250Y-60864732D01*
X142451488Y-60959970D01*
X142546726Y-61007589D01*
X142737202Y-61055208D01*
X142880059Y-61055208D01*
X143070535Y-61007589D01*
X143165773Y-60959970D01*
X143261011Y-60864732D01*
X143308630Y-60721875D01*
X143308630Y-60483779D01*
X142308630Y-61388541D02*
X142308630Y-62007589D01*
X142689583Y-61674255D01*
X142689583Y-61817113D01*
X142737202Y-61912351D01*
X142784821Y-61959970D01*
X142880059Y-62007589D01*
X143118154Y-62007589D01*
X143213392Y-61959970D01*
X143261011Y-61912351D01*
X143308630Y-61817113D01*
X143308630Y-61531398D01*
X143261011Y-61436160D01*
X143213392Y-61388541D01*
%TO.C,C6*%
X301378916Y-125118767D02*
X301426535Y-125166386D01*
X301569392Y-125214005D01*
X301664630Y-125214005D01*
X301807488Y-125166386D01*
X301902726Y-125071148D01*
X301950345Y-124975910D01*
X301997964Y-124785434D01*
X301997964Y-124642577D01*
X301950345Y-124452101D01*
X301902726Y-124356863D01*
X301807488Y-124261625D01*
X301664630Y-124214005D01*
X301569392Y-124214005D01*
X301426535Y-124261625D01*
X301378916Y-124309244D01*
X300521773Y-124214005D02*
X300712250Y-124214005D01*
X300807488Y-124261625D01*
X300855107Y-124309244D01*
X300950345Y-124452101D01*
X300997964Y-124642577D01*
X300997964Y-125023529D01*
X300950345Y-125118767D01*
X300902726Y-125166386D01*
X300807488Y-125214005D01*
X300617011Y-125214005D01*
X300521773Y-125166386D01*
X300474154Y-125118767D01*
X300426535Y-125023529D01*
X300426535Y-124785434D01*
X300474154Y-124690196D01*
X300521773Y-124642577D01*
X300617011Y-124594958D01*
X300807488Y-124594958D01*
X300902726Y-124642577D01*
X300950345Y-124690196D01*
X300997964Y-124785434D01*
%TO.C,KD26*%
X148071130Y-116157589D02*
X147071130Y-116157589D01*
X148071130Y-116729017D02*
X147499702Y-116300446D01*
X147071130Y-116729017D02*
X147642559Y-116157589D01*
X148071130Y-117157589D02*
X147071130Y-117157589D01*
X147071130Y-117395684D01*
X147118750Y-117538541D01*
X147213988Y-117633779D01*
X147309226Y-117681398D01*
X147499702Y-117729017D01*
X147642559Y-117729017D01*
X147833035Y-117681398D01*
X147928273Y-117633779D01*
X148023511Y-117538541D01*
X148071130Y-117395684D01*
X148071130Y-117157589D01*
X147166369Y-118109970D02*
X147118750Y-118157589D01*
X147071130Y-118252827D01*
X147071130Y-118490922D01*
X147118750Y-118586160D01*
X147166369Y-118633779D01*
X147261607Y-118681398D01*
X147356845Y-118681398D01*
X147499702Y-118633779D01*
X148071130Y-118062351D01*
X148071130Y-118681398D01*
X147071130Y-119538541D02*
X147071130Y-119348065D01*
X147118750Y-119252827D01*
X147166369Y-119205208D01*
X147309226Y-119109970D01*
X147499702Y-119062351D01*
X147880654Y-119062351D01*
X147975892Y-119109970D01*
X148023511Y-119157589D01*
X148071130Y-119252827D01*
X148071130Y-119443303D01*
X148023511Y-119538541D01*
X147975892Y-119586160D01*
X147880654Y-119633779D01*
X147642559Y-119633779D01*
X147547321Y-119586160D01*
X147499702Y-119538541D01*
X147452083Y-119443303D01*
X147452083Y-119252827D01*
X147499702Y-119157589D01*
X147547321Y-119109970D01*
X147642559Y-119062351D01*
%TO.C,K17*%
X89320535Y-69969005D02*
X89320535Y-68969005D01*
X88749107Y-69969005D02*
X89177678Y-69397577D01*
X88749107Y-68969005D02*
X89320535Y-69540434D01*
X87796726Y-69969005D02*
X88368154Y-69969005D01*
X88082440Y-69969005D02*
X88082440Y-68969005D01*
X88177678Y-69111863D01*
X88272916Y-69207101D01*
X88368154Y-69254720D01*
X87463392Y-68969005D02*
X86796726Y-68969005D01*
X87225297Y-69969005D01*
%TO.C,K38*%
X208383035Y-89019005D02*
X208383035Y-88019005D01*
X207811607Y-89019005D02*
X208240178Y-88447577D01*
X207811607Y-88019005D02*
X208383035Y-88590434D01*
X207478273Y-88019005D02*
X206859226Y-88019005D01*
X207192559Y-88399958D01*
X207049702Y-88399958D01*
X206954464Y-88447577D01*
X206906845Y-88495196D01*
X206859226Y-88590434D01*
X206859226Y-88828529D01*
X206906845Y-88923767D01*
X206954464Y-88971386D01*
X207049702Y-89019005D01*
X207335416Y-89019005D01*
X207430654Y-88971386D01*
X207478273Y-88923767D01*
X206287797Y-88447577D02*
X206383035Y-88399958D01*
X206430654Y-88352339D01*
X206478273Y-88257101D01*
X206478273Y-88209482D01*
X206430654Y-88114244D01*
X206383035Y-88066625D01*
X206287797Y-88019005D01*
X206097321Y-88019005D01*
X206002083Y-88066625D01*
X205954464Y-88114244D01*
X205906845Y-88209482D01*
X205906845Y-88257101D01*
X205954464Y-88352339D01*
X206002083Y-88399958D01*
X206097321Y-88447577D01*
X206287797Y-88447577D01*
X206383035Y-88495196D01*
X206430654Y-88542815D01*
X206478273Y-88638053D01*
X206478273Y-88828529D01*
X206430654Y-88923767D01*
X206383035Y-88971386D01*
X206287797Y-89019005D01*
X206097321Y-89019005D01*
X206002083Y-88971386D01*
X205954464Y-88923767D01*
X205906845Y-88828529D01*
X205906845Y-88638053D01*
X205954464Y-88542815D01*
X206002083Y-88495196D01*
X206097321Y-88447577D01*
%TO.C,K64*%
X167901785Y-127119005D02*
X167901785Y-126119005D01*
X167330357Y-127119005D02*
X167758928Y-126547577D01*
X167330357Y-126119005D02*
X167901785Y-126690434D01*
X166473214Y-126119005D02*
X166663690Y-126119005D01*
X166758928Y-126166625D01*
X166806547Y-126214244D01*
X166901785Y-126357101D01*
X166949404Y-126547577D01*
X166949404Y-126928529D01*
X166901785Y-127023767D01*
X166854166Y-127071386D01*
X166758928Y-127119005D01*
X166568452Y-127119005D01*
X166473214Y-127071386D01*
X166425595Y-127023767D01*
X166377976Y-126928529D01*
X166377976Y-126690434D01*
X166425595Y-126595196D01*
X166473214Y-126547577D01*
X166568452Y-126499958D01*
X166758928Y-126499958D01*
X166854166Y-126547577D01*
X166901785Y-126595196D01*
X166949404Y-126690434D01*
X165520833Y-126452339D02*
X165520833Y-127119005D01*
X165758928Y-126071386D02*
X165997023Y-126785672D01*
X165377976Y-126785672D01*
%TO.C,K19*%
X127420535Y-69969005D02*
X127420535Y-68969005D01*
X126849107Y-69969005D02*
X127277678Y-69397577D01*
X126849107Y-68969005D02*
X127420535Y-69540434D01*
X125896726Y-69969005D02*
X126468154Y-69969005D01*
X126182440Y-69969005D02*
X126182440Y-68969005D01*
X126277678Y-69111863D01*
X126372916Y-69207101D01*
X126468154Y-69254720D01*
X125420535Y-69969005D02*
X125230059Y-69969005D01*
X125134821Y-69921386D01*
X125087202Y-69873767D01*
X124991964Y-69730910D01*
X124944345Y-69540434D01*
X124944345Y-69159482D01*
X124991964Y-69064244D01*
X125039583Y-69016625D01*
X125134821Y-68969005D01*
X125325297Y-68969005D01*
X125420535Y-69016625D01*
X125468154Y-69064244D01*
X125515773Y-69159482D01*
X125515773Y-69397577D01*
X125468154Y-69492815D01*
X125420535Y-69540434D01*
X125325297Y-69588053D01*
X125134821Y-69588053D01*
X125039583Y-69540434D01*
X124991964Y-69492815D01*
X124944345Y-69397577D01*
%TO.C,R5*%
X267374666Y-127628255D02*
X267708000Y-127152065D01*
X267946095Y-127628255D02*
X267946095Y-126628255D01*
X267565142Y-126628255D01*
X267469904Y-126675875D01*
X267422285Y-126723494D01*
X267374666Y-126818732D01*
X267374666Y-126961589D01*
X267422285Y-127056827D01*
X267469904Y-127104446D01*
X267565142Y-127152065D01*
X267946095Y-127152065D01*
X266469904Y-126628255D02*
X266946095Y-126628255D01*
X266993714Y-127104446D01*
X266946095Y-127056827D01*
X266850857Y-127009208D01*
X266612761Y-127009208D01*
X266517523Y-127056827D01*
X266469904Y-127104446D01*
X266422285Y-127199684D01*
X266422285Y-127437779D01*
X266469904Y-127533017D01*
X266517523Y-127580636D01*
X266612761Y-127628255D01*
X266850857Y-127628255D01*
X266946095Y-127580636D01*
X266993714Y-127533017D01*
%TO.C,K29a1*%
X316428380Y-82391517D02*
X315428380Y-82391517D01*
X316428380Y-82962946D02*
X315856952Y-82534375D01*
X315428380Y-82962946D02*
X315999809Y-82391517D01*
X315523619Y-83343898D02*
X315476000Y-83391517D01*
X315428380Y-83486755D01*
X315428380Y-83724851D01*
X315476000Y-83820089D01*
X315523619Y-83867708D01*
X315618857Y-83915327D01*
X315714095Y-83915327D01*
X315856952Y-83867708D01*
X316428380Y-83296279D01*
X316428380Y-83915327D01*
X316428380Y-84391517D02*
X316428380Y-84581994D01*
X316380761Y-84677232D01*
X316333142Y-84724851D01*
X316190285Y-84820089D01*
X315999809Y-84867708D01*
X315618857Y-84867708D01*
X315523619Y-84820089D01*
X315476000Y-84772470D01*
X315428380Y-84677232D01*
X315428380Y-84486755D01*
X315476000Y-84391517D01*
X315523619Y-84343898D01*
X315618857Y-84296279D01*
X315856952Y-84296279D01*
X315952190Y-84343898D01*
X315999809Y-84391517D01*
X316047428Y-84486755D01*
X316047428Y-84677232D01*
X315999809Y-84772470D01*
X315952190Y-84820089D01*
X315856952Y-84867708D01*
X316428380Y-85724851D02*
X315904571Y-85724851D01*
X315809333Y-85677232D01*
X315761714Y-85581994D01*
X315761714Y-85391517D01*
X315809333Y-85296279D01*
X316380761Y-85724851D02*
X316428380Y-85629613D01*
X316428380Y-85391517D01*
X316380761Y-85296279D01*
X316285523Y-85248660D01*
X316190285Y-85248660D01*
X316095047Y-85296279D01*
X316047428Y-85391517D01*
X316047428Y-85629613D01*
X315999809Y-85724851D01*
X316428380Y-86724851D02*
X316428380Y-86153422D01*
X316428380Y-86439136D02*
X315428380Y-86439136D01*
X315571238Y-86343898D01*
X315666476Y-86248660D01*
X315714095Y-86153422D01*
%TO.C,KD37*%
X333808630Y-135207589D02*
X332808630Y-135207589D01*
X333808630Y-135779017D02*
X333237202Y-135350446D01*
X332808630Y-135779017D02*
X333380059Y-135207589D01*
X333808630Y-136207589D02*
X332808630Y-136207589D01*
X332808630Y-136445684D01*
X332856250Y-136588541D01*
X332951488Y-136683779D01*
X333046726Y-136731398D01*
X333237202Y-136779017D01*
X333380059Y-136779017D01*
X333570535Y-136731398D01*
X333665773Y-136683779D01*
X333761011Y-136588541D01*
X333808630Y-136445684D01*
X333808630Y-136207589D01*
X332808630Y-137112351D02*
X332808630Y-137731398D01*
X333189583Y-137398065D01*
X333189583Y-137540922D01*
X333237202Y-137636160D01*
X333284821Y-137683779D01*
X333380059Y-137731398D01*
X333618154Y-137731398D01*
X333713392Y-137683779D01*
X333761011Y-137636160D01*
X333808630Y-137540922D01*
X333808630Y-137255208D01*
X333761011Y-137159970D01*
X333713392Y-137112351D01*
X332808630Y-138064732D02*
X332808630Y-138731398D01*
X333808630Y-138302827D01*
%TO.C,K3*%
X98369345Y-50919005D02*
X98369345Y-49919005D01*
X97797916Y-50919005D02*
X98226488Y-50347577D01*
X97797916Y-49919005D02*
X98369345Y-50490434D01*
X97464583Y-49919005D02*
X96845535Y-49919005D01*
X97178869Y-50299958D01*
X97036011Y-50299958D01*
X96940773Y-50347577D01*
X96893154Y-50395196D01*
X96845535Y-50490434D01*
X96845535Y-50728529D01*
X96893154Y-50823767D01*
X96940773Y-50871386D01*
X97036011Y-50919005D01*
X97321726Y-50919005D01*
X97416964Y-50871386D01*
X97464583Y-50823767D01*
%TO.C,K29*%
X329795130Y-76176339D02*
X328795130Y-76176339D01*
X329795130Y-76747767D02*
X329223702Y-76319196D01*
X328795130Y-76747767D02*
X329366559Y-76176339D01*
X328890369Y-77128720D02*
X328842750Y-77176339D01*
X328795130Y-77271577D01*
X328795130Y-77509672D01*
X328842750Y-77604910D01*
X328890369Y-77652529D01*
X328985607Y-77700148D01*
X329080845Y-77700148D01*
X329223702Y-77652529D01*
X329795130Y-77081101D01*
X329795130Y-77700148D01*
X329795130Y-78176339D02*
X329795130Y-78366815D01*
X329747511Y-78462053D01*
X329699892Y-78509672D01*
X329557035Y-78604910D01*
X329366559Y-78652529D01*
X328985607Y-78652529D01*
X328890369Y-78604910D01*
X328842750Y-78557291D01*
X328795130Y-78462053D01*
X328795130Y-78271577D01*
X328842750Y-78176339D01*
X328890369Y-78128720D01*
X328985607Y-78081101D01*
X329223702Y-78081101D01*
X329318940Y-78128720D01*
X329366559Y-78176339D01*
X329414178Y-78271577D01*
X329414178Y-78462053D01*
X329366559Y-78557291D01*
X329318940Y-78604910D01*
X329223702Y-78652529D01*
%TO.C,K4*%
X117419345Y-50919005D02*
X117419345Y-49919005D01*
X116847916Y-50919005D02*
X117276488Y-50347577D01*
X116847916Y-49919005D02*
X117419345Y-50490434D01*
X115990773Y-50252339D02*
X115990773Y-50919005D01*
X116228869Y-49871386D02*
X116466964Y-50585672D01*
X115847916Y-50585672D01*
%TO.C,F1*%
X197286571Y-54987866D02*
X197286571Y-54654533D01*
X197810380Y-54654533D02*
X196810380Y-54654533D01*
X196810380Y-55130723D01*
X197810380Y-56035485D02*
X197810380Y-55464057D01*
X197810380Y-55749771D02*
X196810380Y-55749771D01*
X196953238Y-55654533D01*
X197048476Y-55559295D01*
X197096095Y-55464057D01*
%TO.C,K37*%
X189333035Y-89019005D02*
X189333035Y-88019005D01*
X188761607Y-89019005D02*
X189190178Y-88447577D01*
X188761607Y-88019005D02*
X189333035Y-88590434D01*
X188428273Y-88019005D02*
X187809226Y-88019005D01*
X188142559Y-88399958D01*
X187999702Y-88399958D01*
X187904464Y-88447577D01*
X187856845Y-88495196D01*
X187809226Y-88590434D01*
X187809226Y-88828529D01*
X187856845Y-88923767D01*
X187904464Y-88971386D01*
X187999702Y-89019005D01*
X188285416Y-89019005D01*
X188380654Y-88971386D01*
X188428273Y-88923767D01*
X187475892Y-88019005D02*
X186809226Y-88019005D01*
X187237797Y-89019005D01*
%TO.C,Y1*%
X296325440Y-121364434D02*
X296801630Y-121364434D01*
X295801630Y-121031101D02*
X296325440Y-121364434D01*
X295801630Y-121697767D01*
X296801630Y-122554910D02*
X296801630Y-121983482D01*
X296801630Y-122269196D02*
X295801630Y-122269196D01*
X295944488Y-122173958D01*
X296039726Y-122078720D01*
X296087345Y-121983482D01*
%TO.C,KD5*%
X219508630Y-63293779D02*
X218508630Y-63293779D01*
X219508630Y-63865208D02*
X218937202Y-63436636D01*
X218508630Y-63865208D02*
X219080059Y-63293779D01*
X219508630Y-64293779D02*
X218508630Y-64293779D01*
X218508630Y-64531875D01*
X218556250Y-64674732D01*
X218651488Y-64769970D01*
X218746726Y-64817589D01*
X218937202Y-64865208D01*
X219080059Y-64865208D01*
X219270535Y-64817589D01*
X219365773Y-64769970D01*
X219461011Y-64674732D01*
X219508630Y-64531875D01*
X219508630Y-64293779D01*
X218508630Y-65769970D02*
X218508630Y-65293779D01*
X218984821Y-65246160D01*
X218937202Y-65293779D01*
X218889583Y-65389017D01*
X218889583Y-65627113D01*
X218937202Y-65722351D01*
X218984821Y-65769970D01*
X219080059Y-65817589D01*
X219318154Y-65817589D01*
X219413392Y-65769970D01*
X219461011Y-65722351D01*
X219508630Y-65627113D01*
X219508630Y-65389017D01*
X219461011Y-65293779D01*
X219413392Y-65246160D01*
%TO.C,C1*%
X294089640Y-120070312D02*
X294156983Y-120070312D01*
X294291670Y-120002968D01*
X294359014Y-119935625D01*
X294426357Y-119800937D01*
X294426357Y-119666250D01*
X294392686Y-119565235D01*
X294291670Y-119396876D01*
X294190655Y-119295861D01*
X294022296Y-119194846D01*
X293921281Y-119161174D01*
X293786594Y-119161174D01*
X293651907Y-119228518D01*
X293584563Y-119295861D01*
X293517220Y-119430548D01*
X293517220Y-119497892D01*
X293483548Y-120811090D02*
X293887609Y-120407029D01*
X293685579Y-120609060D02*
X292978472Y-119901953D01*
X293146831Y-119935624D01*
X293281518Y-119935624D01*
X293382533Y-119901953D01*
%TO.C,KD2*%
X105208630Y-59483779D02*
X104208630Y-59483779D01*
X105208630Y-60055208D02*
X104637202Y-59626636D01*
X104208630Y-60055208D02*
X104780059Y-59483779D01*
X105208630Y-60483779D02*
X104208630Y-60483779D01*
X104208630Y-60721875D01*
X104256250Y-60864732D01*
X104351488Y-60959970D01*
X104446726Y-61007589D01*
X104637202Y-61055208D01*
X104780059Y-61055208D01*
X104970535Y-61007589D01*
X105065773Y-60959970D01*
X105161011Y-60864732D01*
X105208630Y-60721875D01*
X105208630Y-60483779D01*
X104303869Y-61436160D02*
X104256250Y-61483779D01*
X104208630Y-61579017D01*
X104208630Y-61817113D01*
X104256250Y-61912351D01*
X104303869Y-61959970D01*
X104399107Y-62007589D01*
X104494345Y-62007589D01*
X104637202Y-61959970D01*
X105208630Y-61388541D01*
X105208630Y-62007589D01*
%TO.C,R7*%
X292529117Y-137654055D02*
X291956697Y-137755070D01*
X292125056Y-137249994D02*
X291417949Y-137957100D01*
X291687323Y-138226475D01*
X291788338Y-138260146D01*
X291855682Y-138260146D01*
X291956697Y-138226475D01*
X292057712Y-138125459D01*
X292091384Y-138024444D01*
X292091384Y-137957100D01*
X292057712Y-137856085D01*
X291788338Y-137586711D01*
X292057712Y-138596864D02*
X292529117Y-139068268D01*
X292933178Y-138058116D01*
%TO.C,R1*%
X200497916Y-59269255D02*
X200831250Y-58793065D01*
X201069345Y-59269255D02*
X201069345Y-58269255D01*
X200688392Y-58269255D01*
X200593154Y-58316875D01*
X200545535Y-58364494D01*
X200497916Y-58459732D01*
X200497916Y-58602589D01*
X200545535Y-58697827D01*
X200593154Y-58745446D01*
X200688392Y-58793065D01*
X201069345Y-58793065D01*
X199545535Y-59269255D02*
X200116964Y-59269255D01*
X199831250Y-59269255D02*
X199831250Y-58269255D01*
X199926488Y-58412113D01*
X200021726Y-58507351D01*
X200116964Y-58554970D01*
%TO.C,ISP1*%
X290869630Y-113276244D02*
X289869630Y-113276244D01*
X290822011Y-113704815D02*
X290869630Y-113847672D01*
X290869630Y-114085767D01*
X290822011Y-114181005D01*
X290774392Y-114228625D01*
X290679154Y-114276244D01*
X290583916Y-114276244D01*
X290488678Y-114228625D01*
X290441059Y-114181005D01*
X290393440Y-114085767D01*
X290345821Y-113895291D01*
X290298202Y-113800053D01*
X290250583Y-113752434D01*
X290155345Y-113704815D01*
X290060107Y-113704815D01*
X289964869Y-113752434D01*
X289917250Y-113800053D01*
X289869630Y-113895291D01*
X289869630Y-114133386D01*
X289917250Y-114276244D01*
X290869630Y-114704815D02*
X289869630Y-114704815D01*
X289869630Y-115085767D01*
X289917250Y-115181005D01*
X289964869Y-115228625D01*
X290060107Y-115276244D01*
X290202964Y-115276244D01*
X290298202Y-115228625D01*
X290345821Y-115181005D01*
X290393440Y-115085767D01*
X290393440Y-114704815D01*
X290869630Y-116228625D02*
X290869630Y-115657196D01*
X290869630Y-115942910D02*
X289869630Y-115942910D01*
X290012488Y-115847672D01*
X290107726Y-115752434D01*
X290155345Y-115657196D01*
%TO.C,KD10*%
X114733630Y-78057589D02*
X113733630Y-78057589D01*
X114733630Y-78629017D02*
X114162202Y-78200446D01*
X113733630Y-78629017D02*
X114305059Y-78057589D01*
X114733630Y-79057589D02*
X113733630Y-79057589D01*
X113733630Y-79295684D01*
X113781250Y-79438541D01*
X113876488Y-79533779D01*
X113971726Y-79581398D01*
X114162202Y-79629017D01*
X114305059Y-79629017D01*
X114495535Y-79581398D01*
X114590773Y-79533779D01*
X114686011Y-79438541D01*
X114733630Y-79295684D01*
X114733630Y-79057589D01*
X114733630Y-80581398D02*
X114733630Y-80009970D01*
X114733630Y-80295684D02*
X113733630Y-80295684D01*
X113876488Y-80200446D01*
X113971726Y-80105208D01*
X114019345Y-80009970D01*
X113733630Y-81200446D02*
X113733630Y-81295684D01*
X113781250Y-81390922D01*
X113828869Y-81438541D01*
X113924107Y-81486160D01*
X114114583Y-81533779D01*
X114352678Y-81533779D01*
X114543154Y-81486160D01*
X114638392Y-81438541D01*
X114686011Y-81390922D01*
X114733630Y-81295684D01*
X114733630Y-81200446D01*
X114686011Y-81105208D01*
X114638392Y-81057589D01*
X114543154Y-81009970D01*
X114352678Y-80962351D01*
X114114583Y-80962351D01*
X113924107Y-81009970D01*
X113828869Y-81057589D01*
X113781250Y-81105208D01*
X113733630Y-81200446D01*
%TO.C,K23*%
X203620535Y-69969005D02*
X203620535Y-68969005D01*
X203049107Y-69969005D02*
X203477678Y-69397577D01*
X203049107Y-68969005D02*
X203620535Y-69540434D01*
X202668154Y-69064244D02*
X202620535Y-69016625D01*
X202525297Y-68969005D01*
X202287202Y-68969005D01*
X202191964Y-69016625D01*
X202144345Y-69064244D01*
X202096726Y-69159482D01*
X202096726Y-69254720D01*
X202144345Y-69397577D01*
X202715773Y-69969005D01*
X202096726Y-69969005D01*
X201763392Y-68969005D02*
X201144345Y-68969005D01*
X201477678Y-69349958D01*
X201334821Y-69349958D01*
X201239583Y-69397577D01*
X201191964Y-69445196D01*
X201144345Y-69540434D01*
X201144345Y-69778529D01*
X201191964Y-69873767D01*
X201239583Y-69921386D01*
X201334821Y-69969005D01*
X201620535Y-69969005D01*
X201715773Y-69921386D01*
X201763392Y-69873767D01*
%TO.C,K32*%
X94083035Y-89019005D02*
X94083035Y-88019005D01*
X93511607Y-89019005D02*
X93940178Y-88447577D01*
X93511607Y-88019005D02*
X94083035Y-88590434D01*
X93178273Y-88019005D02*
X92559226Y-88019005D01*
X92892559Y-88399958D01*
X92749702Y-88399958D01*
X92654464Y-88447577D01*
X92606845Y-88495196D01*
X92559226Y-88590434D01*
X92559226Y-88828529D01*
X92606845Y-88923767D01*
X92654464Y-88971386D01*
X92749702Y-89019005D01*
X93035416Y-89019005D01*
X93130654Y-88971386D01*
X93178273Y-88923767D01*
X92178273Y-88114244D02*
X92130654Y-88066625D01*
X92035416Y-88019005D01*
X91797321Y-88019005D01*
X91702083Y-88066625D01*
X91654464Y-88114244D01*
X91606845Y-88209482D01*
X91606845Y-88304720D01*
X91654464Y-88447577D01*
X92225892Y-89019005D01*
X91606845Y-89019005D01*
%TO.C,K26*%
X264104285Y-76414255D02*
X264104285Y-75414255D01*
X263532857Y-76414255D02*
X263961428Y-75842827D01*
X263532857Y-75414255D02*
X264104285Y-75985684D01*
X263151904Y-75509494D02*
X263104285Y-75461875D01*
X263009047Y-75414255D01*
X262770952Y-75414255D01*
X262675714Y-75461875D01*
X262628095Y-75509494D01*
X262580476Y-75604732D01*
X262580476Y-75699970D01*
X262628095Y-75842827D01*
X263199523Y-76414255D01*
X262580476Y-76414255D01*
X261723333Y-75414255D02*
X261913809Y-75414255D01*
X262009047Y-75461875D01*
X262056666Y-75509494D01*
X262151904Y-75652351D01*
X262199523Y-75842827D01*
X262199523Y-76223779D01*
X262151904Y-76319017D01*
X262104285Y-76366636D01*
X262009047Y-76414255D01*
X261818571Y-76414255D01*
X261723333Y-76366636D01*
X261675714Y-76319017D01*
X261628095Y-76223779D01*
X261628095Y-75985684D01*
X261675714Y-75890446D01*
X261723333Y-75842827D01*
X261818571Y-75795208D01*
X262009047Y-75795208D01*
X262104285Y-75842827D01*
X262151904Y-75890446D01*
X262199523Y-75985684D01*
%TO.C,C5*%
X283916416Y-120736017D02*
X283964035Y-120783636D01*
X284106892Y-120831255D01*
X284202130Y-120831255D01*
X284344988Y-120783636D01*
X284440226Y-120688398D01*
X284487845Y-120593160D01*
X284535464Y-120402684D01*
X284535464Y-120259827D01*
X284487845Y-120069351D01*
X284440226Y-119974113D01*
X284344988Y-119878875D01*
X284202130Y-119831255D01*
X284106892Y-119831255D01*
X283964035Y-119878875D01*
X283916416Y-119926494D01*
X283011654Y-119831255D02*
X283487845Y-119831255D01*
X283535464Y-120307446D01*
X283487845Y-120259827D01*
X283392607Y-120212208D01*
X283154511Y-120212208D01*
X283059273Y-120259827D01*
X283011654Y-120307446D01*
X282964035Y-120402684D01*
X282964035Y-120640779D01*
X283011654Y-120736017D01*
X283059273Y-120783636D01*
X283154511Y-120831255D01*
X283392607Y-120831255D01*
X283487845Y-120783636D01*
X283535464Y-120736017D01*
%TO.C,K18*%
X108370535Y-69969005D02*
X108370535Y-68969005D01*
X107799107Y-69969005D02*
X108227678Y-69397577D01*
X107799107Y-68969005D02*
X108370535Y-69540434D01*
X106846726Y-69969005D02*
X107418154Y-69969005D01*
X107132440Y-69969005D02*
X107132440Y-68969005D01*
X107227678Y-69111863D01*
X107322916Y-69207101D01*
X107418154Y-69254720D01*
X106275297Y-69397577D02*
X106370535Y-69349958D01*
X106418154Y-69302339D01*
X106465773Y-69207101D01*
X106465773Y-69159482D01*
X106418154Y-69064244D01*
X106370535Y-69016625D01*
X106275297Y-68969005D01*
X106084821Y-68969005D01*
X105989583Y-69016625D01*
X105941964Y-69064244D01*
X105894345Y-69159482D01*
X105894345Y-69207101D01*
X105941964Y-69302339D01*
X105989583Y-69349958D01*
X106084821Y-69397577D01*
X106275297Y-69397577D01*
X106370535Y-69445196D01*
X106418154Y-69492815D01*
X106465773Y-69588053D01*
X106465773Y-69778529D01*
X106418154Y-69873767D01*
X106370535Y-69921386D01*
X106275297Y-69969005D01*
X106084821Y-69969005D01*
X105989583Y-69921386D01*
X105941964Y-69873767D01*
X105894345Y-69778529D01*
X105894345Y-69588053D01*
X105941964Y-69492815D01*
X105989583Y-69445196D01*
X106084821Y-69397577D01*
%TO.C,K22*%
X184570535Y-69969005D02*
X184570535Y-68969005D01*
X183999107Y-69969005D02*
X184427678Y-69397577D01*
X183999107Y-68969005D02*
X184570535Y-69540434D01*
X183618154Y-69064244D02*
X183570535Y-69016625D01*
X183475297Y-68969005D01*
X183237202Y-68969005D01*
X183141964Y-69016625D01*
X183094345Y-69064244D01*
X183046726Y-69159482D01*
X183046726Y-69254720D01*
X183094345Y-69397577D01*
X183665773Y-69969005D01*
X183046726Y-69969005D01*
X182665773Y-69064244D02*
X182618154Y-69016625D01*
X182522916Y-68969005D01*
X182284821Y-68969005D01*
X182189583Y-69016625D01*
X182141964Y-69064244D01*
X182094345Y-69159482D01*
X182094345Y-69254720D01*
X182141964Y-69397577D01*
X182713392Y-69969005D01*
X182094345Y-69969005D01*
%TO.C,K6*%
X155519345Y-50919005D02*
X155519345Y-49919005D01*
X154947916Y-50919005D02*
X155376488Y-50347577D01*
X154947916Y-49919005D02*
X155519345Y-50490434D01*
X154090773Y-49919005D02*
X154281250Y-49919005D01*
X154376488Y-49966625D01*
X154424107Y-50014244D01*
X154519345Y-50157101D01*
X154566964Y-50347577D01*
X154566964Y-50728529D01*
X154519345Y-50823767D01*
X154471726Y-50871386D01*
X154376488Y-50919005D01*
X154186011Y-50919005D01*
X154090773Y-50871386D01*
X154043154Y-50823767D01*
X153995535Y-50728529D01*
X153995535Y-50490434D01*
X154043154Y-50395196D01*
X154090773Y-50347577D01*
X154186011Y-50299958D01*
X154376488Y-50299958D01*
X154471726Y-50347577D01*
X154519345Y-50395196D01*
X154566964Y-50490434D01*
%TO.C,KD17*%
X81396130Y-97107589D02*
X80396130Y-97107589D01*
X81396130Y-97679017D02*
X80824702Y-97250446D01*
X80396130Y-97679017D02*
X80967559Y-97107589D01*
X81396130Y-98107589D02*
X80396130Y-98107589D01*
X80396130Y-98345684D01*
X80443750Y-98488541D01*
X80538988Y-98583779D01*
X80634226Y-98631398D01*
X80824702Y-98679017D01*
X80967559Y-98679017D01*
X81158035Y-98631398D01*
X81253273Y-98583779D01*
X81348511Y-98488541D01*
X81396130Y-98345684D01*
X81396130Y-98107589D01*
X81396130Y-99631398D02*
X81396130Y-99059970D01*
X81396130Y-99345684D02*
X80396130Y-99345684D01*
X80538988Y-99250446D01*
X80634226Y-99155208D01*
X80681845Y-99059970D01*
X80396130Y-99964732D02*
X80396130Y-100631398D01*
X81396130Y-100202827D01*
%TO.C,K42*%
X284583035Y-89019005D02*
X284583035Y-88019005D01*
X284011607Y-89019005D02*
X284440178Y-88447577D01*
X284011607Y-88019005D02*
X284583035Y-88590434D01*
X283154464Y-88352339D02*
X283154464Y-89019005D01*
X283392559Y-87971386D02*
X283630654Y-88685672D01*
X283011607Y-88685672D01*
X282678273Y-88114244D02*
X282630654Y-88066625D01*
X282535416Y-88019005D01*
X282297321Y-88019005D01*
X282202083Y-88066625D01*
X282154464Y-88114244D01*
X282106845Y-88209482D01*
X282106845Y-88304720D01*
X282154464Y-88447577D01*
X282725892Y-89019005D01*
X282106845Y-89019005D01*
%TO.C,K65*%
X215526785Y-127119005D02*
X215526785Y-126119005D01*
X214955357Y-127119005D02*
X215383928Y-126547577D01*
X214955357Y-126119005D02*
X215526785Y-126690434D01*
X214098214Y-126119005D02*
X214288690Y-126119005D01*
X214383928Y-126166625D01*
X214431547Y-126214244D01*
X214526785Y-126357101D01*
X214574404Y-126547577D01*
X214574404Y-126928529D01*
X214526785Y-127023767D01*
X214479166Y-127071386D01*
X214383928Y-127119005D01*
X214193452Y-127119005D01*
X214098214Y-127071386D01*
X214050595Y-127023767D01*
X214002976Y-126928529D01*
X214002976Y-126690434D01*
X214050595Y-126595196D01*
X214098214Y-126547577D01*
X214193452Y-126499958D01*
X214383928Y-126499958D01*
X214479166Y-126547577D01*
X214526785Y-126595196D01*
X214574404Y-126690434D01*
X213098214Y-126119005D02*
X213574404Y-126119005D01*
X213622023Y-126595196D01*
X213574404Y-126547577D01*
X213479166Y-126499958D01*
X213241071Y-126499958D01*
X213145833Y-126547577D01*
X213098214Y-126595196D01*
X213050595Y-126690434D01*
X213050595Y-126928529D01*
X213098214Y-127023767D01*
X213145833Y-127071386D01*
X213241071Y-127119005D01*
X213479166Y-127119005D01*
X213574404Y-127071386D01*
X213622023Y-127023767D01*
%TO.C,KD21*%
X233796130Y-97107589D02*
X232796130Y-97107589D01*
X233796130Y-97679017D02*
X233224702Y-97250446D01*
X232796130Y-97679017D02*
X233367559Y-97107589D01*
X233796130Y-98107589D02*
X232796130Y-98107589D01*
X232796130Y-98345684D01*
X232843750Y-98488541D01*
X232938988Y-98583779D01*
X233034226Y-98631398D01*
X233224702Y-98679017D01*
X233367559Y-98679017D01*
X233558035Y-98631398D01*
X233653273Y-98583779D01*
X233748511Y-98488541D01*
X233796130Y-98345684D01*
X233796130Y-98107589D01*
X232891369Y-99059970D02*
X232843750Y-99107589D01*
X232796130Y-99202827D01*
X232796130Y-99440922D01*
X232843750Y-99536160D01*
X232891369Y-99583779D01*
X232986607Y-99631398D01*
X233081845Y-99631398D01*
X233224702Y-99583779D01*
X233796130Y-99012351D01*
X233796130Y-99631398D01*
X233796130Y-100583779D02*
X233796130Y-100012351D01*
X233796130Y-100298065D02*
X232796130Y-100298065D01*
X232938988Y-100202827D01*
X233034226Y-100107589D01*
X233081845Y-100012351D01*
%TO.C,K30*%
X346495535Y-69969005D02*
X346495535Y-68969005D01*
X345924107Y-69969005D02*
X346352678Y-69397577D01*
X345924107Y-68969005D02*
X346495535Y-69540434D01*
X345590773Y-68969005D02*
X344971726Y-68969005D01*
X345305059Y-69349958D01*
X345162202Y-69349958D01*
X345066964Y-69397577D01*
X345019345Y-69445196D01*
X344971726Y-69540434D01*
X344971726Y-69778529D01*
X345019345Y-69873767D01*
X345066964Y-69921386D01*
X345162202Y-69969005D01*
X345447916Y-69969005D01*
X345543154Y-69921386D01*
X345590773Y-69873767D01*
X344352678Y-68969005D02*
X344257440Y-68969005D01*
X344162202Y-69016625D01*
X344114583Y-69064244D01*
X344066964Y-69159482D01*
X344019345Y-69349958D01*
X344019345Y-69588053D01*
X344066964Y-69778529D01*
X344114583Y-69873767D01*
X344162202Y-69921386D01*
X344257440Y-69969005D01*
X344352678Y-69969005D01*
X344447916Y-69921386D01*
X344495535Y-69873767D01*
X344543154Y-69778529D01*
X344590773Y-69588053D01*
X344590773Y-69349958D01*
X344543154Y-69159482D01*
X344495535Y-69064244D01*
X344447916Y-69016625D01*
X344352678Y-68969005D01*
%TO.C,K12*%
X270295535Y-50919005D02*
X270295535Y-49919005D01*
X269724107Y-50919005D02*
X270152678Y-50347577D01*
X269724107Y-49919005D02*
X270295535Y-50490434D01*
X268771726Y-50919005D02*
X269343154Y-50919005D01*
X269057440Y-50919005D02*
X269057440Y-49919005D01*
X269152678Y-50061863D01*
X269247916Y-50157101D01*
X269343154Y-50204720D01*
X268390773Y-50014244D02*
X268343154Y-49966625D01*
X268247916Y-49919005D01*
X268009821Y-49919005D01*
X267914583Y-49966625D01*
X267866964Y-50014244D01*
X267819345Y-50109482D01*
X267819345Y-50204720D01*
X267866964Y-50347577D01*
X268438392Y-50919005D01*
X267819345Y-50919005D01*
%TO.C,K20*%
X146470535Y-69969005D02*
X146470535Y-68969005D01*
X145899107Y-69969005D02*
X146327678Y-69397577D01*
X145899107Y-68969005D02*
X146470535Y-69540434D01*
X145518154Y-69064244D02*
X145470535Y-69016625D01*
X145375297Y-68969005D01*
X145137202Y-68969005D01*
X145041964Y-69016625D01*
X144994345Y-69064244D01*
X144946726Y-69159482D01*
X144946726Y-69254720D01*
X144994345Y-69397577D01*
X145565773Y-69969005D01*
X144946726Y-69969005D01*
X144327678Y-68969005D02*
X144232440Y-68969005D01*
X144137202Y-69016625D01*
X144089583Y-69064244D01*
X144041964Y-69159482D01*
X143994345Y-69349958D01*
X143994345Y-69588053D01*
X144041964Y-69778529D01*
X144089583Y-69873767D01*
X144137202Y-69921386D01*
X144232440Y-69969005D01*
X144327678Y-69969005D01*
X144422916Y-69921386D01*
X144470535Y-69873767D01*
X144518154Y-69778529D01*
X144565773Y-69588053D01*
X144565773Y-69349958D01*
X144518154Y-69159482D01*
X144470535Y-69064244D01*
X144422916Y-69016625D01*
X144327678Y-68969005D01*
%TO.C,K48*%
X122658035Y-108069005D02*
X122658035Y-107069005D01*
X122086607Y-108069005D02*
X122515178Y-107497577D01*
X122086607Y-107069005D02*
X122658035Y-107640434D01*
X121229464Y-107402339D02*
X121229464Y-108069005D01*
X121467559Y-107021386D02*
X121705654Y-107735672D01*
X121086607Y-107735672D01*
X120562797Y-107497577D02*
X120658035Y-107449958D01*
X120705654Y-107402339D01*
X120753273Y-107307101D01*
X120753273Y-107259482D01*
X120705654Y-107164244D01*
X120658035Y-107116625D01*
X120562797Y-107069005D01*
X120372321Y-107069005D01*
X120277083Y-107116625D01*
X120229464Y-107164244D01*
X120181845Y-107259482D01*
X120181845Y-107307101D01*
X120229464Y-107402339D01*
X120277083Y-107449958D01*
X120372321Y-107497577D01*
X120562797Y-107497577D01*
X120658035Y-107545196D01*
X120705654Y-107592815D01*
X120753273Y-107688053D01*
X120753273Y-107878529D01*
X120705654Y-107973767D01*
X120658035Y-108021386D01*
X120562797Y-108069005D01*
X120372321Y-108069005D01*
X120277083Y-108021386D01*
X120229464Y-107973767D01*
X120181845Y-107878529D01*
X120181845Y-107688053D01*
X120229464Y-107592815D01*
X120277083Y-107545196D01*
X120372321Y-107497577D01*
%TO.C,C7*%
X301505916Y-119276767D02*
X301553535Y-119324386D01*
X301696392Y-119372005D01*
X301791630Y-119372005D01*
X301934488Y-119324386D01*
X302029726Y-119229148D01*
X302077345Y-119133910D01*
X302124964Y-118943434D01*
X302124964Y-118800577D01*
X302077345Y-118610101D01*
X302029726Y-118514863D01*
X301934488Y-118419625D01*
X301791630Y-118372005D01*
X301696392Y-118372005D01*
X301553535Y-118419625D01*
X301505916Y-118467244D01*
X301172583Y-118372005D02*
X300505916Y-118372005D01*
X300934488Y-119372005D01*
%TO.C,KD33*%
X124258630Y-135207589D02*
X123258630Y-135207589D01*
X124258630Y-135779017D02*
X123687202Y-135350446D01*
X123258630Y-135779017D02*
X123830059Y-135207589D01*
X124258630Y-136207589D02*
X123258630Y-136207589D01*
X123258630Y-136445684D01*
X123306250Y-136588541D01*
X123401488Y-136683779D01*
X123496726Y-136731398D01*
X123687202Y-136779017D01*
X123830059Y-136779017D01*
X124020535Y-136731398D01*
X124115773Y-136683779D01*
X124211011Y-136588541D01*
X124258630Y-136445684D01*
X124258630Y-136207589D01*
X123258630Y-137112351D02*
X123258630Y-137731398D01*
X123639583Y-137398065D01*
X123639583Y-137540922D01*
X123687202Y-137636160D01*
X123734821Y-137683779D01*
X123830059Y-137731398D01*
X124068154Y-137731398D01*
X124163392Y-137683779D01*
X124211011Y-137636160D01*
X124258630Y-137540922D01*
X124258630Y-137255208D01*
X124211011Y-137159970D01*
X124163392Y-137112351D01*
X123258630Y-138064732D02*
X123258630Y-138683779D01*
X123639583Y-138350446D01*
X123639583Y-138493303D01*
X123687202Y-138588541D01*
X123734821Y-138636160D01*
X123830059Y-138683779D01*
X124068154Y-138683779D01*
X124163392Y-138636160D01*
X124211011Y-138588541D01*
X124258630Y-138493303D01*
X124258630Y-138207589D01*
X124211011Y-138112351D01*
X124163392Y-138064732D01*
%TO.C,K69*%
X327445535Y-127119005D02*
X327445535Y-126119005D01*
X326874107Y-127119005D02*
X327302678Y-126547577D01*
X326874107Y-126119005D02*
X327445535Y-126690434D01*
X326016964Y-126119005D02*
X326207440Y-126119005D01*
X326302678Y-126166625D01*
X326350297Y-126214244D01*
X326445535Y-126357101D01*
X326493154Y-126547577D01*
X326493154Y-126928529D01*
X326445535Y-127023767D01*
X326397916Y-127071386D01*
X326302678Y-127119005D01*
X326112202Y-127119005D01*
X326016964Y-127071386D01*
X325969345Y-127023767D01*
X325921726Y-126928529D01*
X325921726Y-126690434D01*
X325969345Y-126595196D01*
X326016964Y-126547577D01*
X326112202Y-126499958D01*
X326302678Y-126499958D01*
X326397916Y-126547577D01*
X326445535Y-126595196D01*
X326493154Y-126690434D01*
X325445535Y-127119005D02*
X325255059Y-127119005D01*
X325159821Y-127071386D01*
X325112202Y-127023767D01*
X325016964Y-126880910D01*
X324969345Y-126690434D01*
X324969345Y-126309482D01*
X325016964Y-126214244D01*
X325064583Y-126166625D01*
X325159821Y-126119005D01*
X325350297Y-126119005D01*
X325445535Y-126166625D01*
X325493154Y-126214244D01*
X325540773Y-126309482D01*
X325540773Y-126547577D01*
X325493154Y-126642815D01*
X325445535Y-126690434D01*
X325350297Y-126738053D01*
X325159821Y-126738053D01*
X325064583Y-126690434D01*
X325016964Y-126642815D01*
X324969345Y-126547577D01*
%TO.C,K45*%
X59729535Y-117594005D02*
X59729535Y-116594005D01*
X59158107Y-117594005D02*
X59586678Y-117022577D01*
X59158107Y-116594005D02*
X59729535Y-117165434D01*
X58300964Y-116927339D02*
X58300964Y-117594005D01*
X58539059Y-116546386D02*
X58777154Y-117260672D01*
X58158107Y-117260672D01*
X57300964Y-116594005D02*
X57777154Y-116594005D01*
X57824773Y-117070196D01*
X57777154Y-117022577D01*
X57681916Y-116974958D01*
X57443821Y-116974958D01*
X57348583Y-117022577D01*
X57300964Y-117070196D01*
X57253345Y-117165434D01*
X57253345Y-117403529D01*
X57300964Y-117498767D01*
X57348583Y-117546386D01*
X57443821Y-117594005D01*
X57681916Y-117594005D01*
X57777154Y-117546386D01*
X57824773Y-117498767D01*
%TO.C,K13*%
X289345535Y-50919005D02*
X289345535Y-49919005D01*
X288774107Y-50919005D02*
X289202678Y-50347577D01*
X288774107Y-49919005D02*
X289345535Y-50490434D01*
X287821726Y-50919005D02*
X288393154Y-50919005D01*
X288107440Y-50919005D02*
X288107440Y-49919005D01*
X288202678Y-50061863D01*
X288297916Y-50157101D01*
X288393154Y-50204720D01*
X287488392Y-49919005D02*
X286869345Y-49919005D01*
X287202678Y-50299958D01*
X287059821Y-50299958D01*
X286964583Y-50347577D01*
X286916964Y-50395196D01*
X286869345Y-50490434D01*
X286869345Y-50728529D01*
X286916964Y-50823767D01*
X286964583Y-50871386D01*
X287059821Y-50919005D01*
X287345535Y-50919005D01*
X287440773Y-50871386D01*
X287488392Y-50823767D01*
%TO.C,KD14*%
X267133630Y-78057589D02*
X266133630Y-78057589D01*
X267133630Y-78629017D02*
X266562202Y-78200446D01*
X266133630Y-78629017D02*
X266705059Y-78057589D01*
X267133630Y-79057589D02*
X266133630Y-79057589D01*
X266133630Y-79295684D01*
X266181250Y-79438541D01*
X266276488Y-79533779D01*
X266371726Y-79581398D01*
X266562202Y-79629017D01*
X266705059Y-79629017D01*
X266895535Y-79581398D01*
X266990773Y-79533779D01*
X267086011Y-79438541D01*
X267133630Y-79295684D01*
X267133630Y-79057589D01*
X267133630Y-80581398D02*
X267133630Y-80009970D01*
X267133630Y-80295684D02*
X266133630Y-80295684D01*
X266276488Y-80200446D01*
X266371726Y-80105208D01*
X266419345Y-80009970D01*
X266466964Y-81438541D02*
X267133630Y-81438541D01*
X266086011Y-81200446D02*
X266800297Y-80962351D01*
X266800297Y-81581398D01*
%TO.C,KD6*%
X257608630Y-59483779D02*
X256608630Y-59483779D01*
X257608630Y-60055208D02*
X257037202Y-59626636D01*
X256608630Y-60055208D02*
X257180059Y-59483779D01*
X257608630Y-60483779D02*
X256608630Y-60483779D01*
X256608630Y-60721875D01*
X256656250Y-60864732D01*
X256751488Y-60959970D01*
X256846726Y-61007589D01*
X257037202Y-61055208D01*
X257180059Y-61055208D01*
X257370535Y-61007589D01*
X257465773Y-60959970D01*
X257561011Y-60864732D01*
X257608630Y-60721875D01*
X257608630Y-60483779D01*
X256608630Y-61912351D02*
X256608630Y-61721875D01*
X256656250Y-61626636D01*
X256703869Y-61579017D01*
X256846726Y-61483779D01*
X257037202Y-61436160D01*
X257418154Y-61436160D01*
X257513392Y-61483779D01*
X257561011Y-61531398D01*
X257608630Y-61626636D01*
X257608630Y-61817113D01*
X257561011Y-61912351D01*
X257513392Y-61959970D01*
X257418154Y-62007589D01*
X257180059Y-62007589D01*
X257084821Y-61959970D01*
X257037202Y-61912351D01*
X256989583Y-61817113D01*
X256989583Y-61626636D01*
X257037202Y-61531398D01*
X257084821Y-61483779D01*
X257180059Y-61436160D01*
%TO.C,KD16*%
X333808630Y-78057589D02*
X332808630Y-78057589D01*
X333808630Y-78629017D02*
X333237202Y-78200446D01*
X332808630Y-78629017D02*
X333380059Y-78057589D01*
X333808630Y-79057589D02*
X332808630Y-79057589D01*
X332808630Y-79295684D01*
X332856250Y-79438541D01*
X332951488Y-79533779D01*
X333046726Y-79581398D01*
X333237202Y-79629017D01*
X333380059Y-79629017D01*
X333570535Y-79581398D01*
X333665773Y-79533779D01*
X333761011Y-79438541D01*
X333808630Y-79295684D01*
X333808630Y-79057589D01*
X333808630Y-80581398D02*
X333808630Y-80009970D01*
X333808630Y-80295684D02*
X332808630Y-80295684D01*
X332951488Y-80200446D01*
X333046726Y-80105208D01*
X333094345Y-80009970D01*
X332808630Y-81438541D02*
X332808630Y-81248065D01*
X332856250Y-81152827D01*
X332903869Y-81105208D01*
X333046726Y-81009970D01*
X333237202Y-80962351D01*
X333618154Y-80962351D01*
X333713392Y-81009970D01*
X333761011Y-81057589D01*
X333808630Y-81152827D01*
X333808630Y-81343303D01*
X333761011Y-81438541D01*
X333713392Y-81486160D01*
X333618154Y-81533779D01*
X333380059Y-81533779D01*
X333284821Y-81486160D01*
X333237202Y-81438541D01*
X333189583Y-81343303D01*
X333189583Y-81152827D01*
X333237202Y-81057589D01*
X333284821Y-81009970D01*
X333380059Y-80962351D01*
%TO.C,K61*%
X89320535Y-127119005D02*
X89320535Y-126119005D01*
X88749107Y-127119005D02*
X89177678Y-126547577D01*
X88749107Y-126119005D02*
X89320535Y-126690434D01*
X87891964Y-126119005D02*
X88082440Y-126119005D01*
X88177678Y-126166625D01*
X88225297Y-126214244D01*
X88320535Y-126357101D01*
X88368154Y-126547577D01*
X88368154Y-126928529D01*
X88320535Y-127023767D01*
X88272916Y-127071386D01*
X88177678Y-127119005D01*
X87987202Y-127119005D01*
X87891964Y-127071386D01*
X87844345Y-127023767D01*
X87796726Y-126928529D01*
X87796726Y-126690434D01*
X87844345Y-126595196D01*
X87891964Y-126547577D01*
X87987202Y-126499958D01*
X88177678Y-126499958D01*
X88272916Y-126547577D01*
X88320535Y-126595196D01*
X88368154Y-126690434D01*
X86844345Y-127119005D02*
X87415773Y-127119005D01*
X87130059Y-127119005D02*
X87130059Y-126119005D01*
X87225297Y-126261863D01*
X87320535Y-126357101D01*
X87415773Y-126404720D01*
%TO.C,KD18*%
X119496130Y-97107589D02*
X118496130Y-97107589D01*
X119496130Y-97679017D02*
X118924702Y-97250446D01*
X118496130Y-97679017D02*
X119067559Y-97107589D01*
X119496130Y-98107589D02*
X118496130Y-98107589D01*
X118496130Y-98345684D01*
X118543750Y-98488541D01*
X118638988Y-98583779D01*
X118734226Y-98631398D01*
X118924702Y-98679017D01*
X119067559Y-98679017D01*
X119258035Y-98631398D01*
X119353273Y-98583779D01*
X119448511Y-98488541D01*
X119496130Y-98345684D01*
X119496130Y-98107589D01*
X119496130Y-99631398D02*
X119496130Y-99059970D01*
X119496130Y-99345684D02*
X118496130Y-99345684D01*
X118638988Y-99250446D01*
X118734226Y-99155208D01*
X118781845Y-99059970D01*
X118924702Y-100202827D02*
X118877083Y-100107589D01*
X118829464Y-100059970D01*
X118734226Y-100012351D01*
X118686607Y-100012351D01*
X118591369Y-100059970D01*
X118543750Y-100107589D01*
X118496130Y-100202827D01*
X118496130Y-100393303D01*
X118543750Y-100488541D01*
X118591369Y-100536160D01*
X118686607Y-100583779D01*
X118734226Y-100583779D01*
X118829464Y-100536160D01*
X118877083Y-100488541D01*
X118924702Y-100393303D01*
X118924702Y-100202827D01*
X118972321Y-100107589D01*
X119019940Y-100059970D01*
X119115178Y-100012351D01*
X119305654Y-100012351D01*
X119400892Y-100059970D01*
X119448511Y-100107589D01*
X119496130Y-100202827D01*
X119496130Y-100393303D01*
X119448511Y-100488541D01*
X119400892Y-100536160D01*
X119305654Y-100583779D01*
X119115178Y-100583779D01*
X119019940Y-100536160D01*
X118972321Y-100488541D01*
X118924702Y-100393303D01*
%TO.C,K43*%
X306903380Y-95226339D02*
X305903380Y-95226339D01*
X306903380Y-95797767D02*
X306331952Y-95369196D01*
X305903380Y-95797767D02*
X306474809Y-95226339D01*
X306236714Y-96654910D02*
X306903380Y-96654910D01*
X305855761Y-96416815D02*
X306570047Y-96178720D01*
X306570047Y-96797767D01*
X305903380Y-97083482D02*
X305903380Y-97702529D01*
X306284333Y-97369196D01*
X306284333Y-97512053D01*
X306331952Y-97607291D01*
X306379571Y-97654910D01*
X306474809Y-97702529D01*
X306712904Y-97702529D01*
X306808142Y-97654910D01*
X306855761Y-97607291D01*
X306903380Y-97512053D01*
X306903380Y-97226339D01*
X306855761Y-97131101D01*
X306808142Y-97083482D01*
%TO.C,K47*%
X103608035Y-108069005D02*
X103608035Y-107069005D01*
X103036607Y-108069005D02*
X103465178Y-107497577D01*
X103036607Y-107069005D02*
X103608035Y-107640434D01*
X102179464Y-107402339D02*
X102179464Y-108069005D01*
X102417559Y-107021386D02*
X102655654Y-107735672D01*
X102036607Y-107735672D01*
X101750892Y-107069005D02*
X101084226Y-107069005D01*
X101512797Y-108069005D01*
%TO.C,K28*%
X302204285Y-76414255D02*
X302204285Y-75414255D01*
X301632857Y-76414255D02*
X302061428Y-75842827D01*
X301632857Y-75414255D02*
X302204285Y-75985684D01*
X301251904Y-75509494D02*
X301204285Y-75461875D01*
X301109047Y-75414255D01*
X300870952Y-75414255D01*
X300775714Y-75461875D01*
X300728095Y-75509494D01*
X300680476Y-75604732D01*
X300680476Y-75699970D01*
X300728095Y-75842827D01*
X301299523Y-76414255D01*
X300680476Y-76414255D01*
X300109047Y-75842827D02*
X300204285Y-75795208D01*
X300251904Y-75747589D01*
X300299523Y-75652351D01*
X300299523Y-75604732D01*
X300251904Y-75509494D01*
X300204285Y-75461875D01*
X300109047Y-75414255D01*
X299918571Y-75414255D01*
X299823333Y-75461875D01*
X299775714Y-75509494D01*
X299728095Y-75604732D01*
X299728095Y-75652351D01*
X299775714Y-75747589D01*
X299823333Y-75795208D01*
X299918571Y-75842827D01*
X300109047Y-75842827D01*
X300204285Y-75890446D01*
X300251904Y-75938065D01*
X300299523Y-76033303D01*
X300299523Y-76223779D01*
X300251904Y-76319017D01*
X300204285Y-76366636D01*
X300109047Y-76414255D01*
X299918571Y-76414255D01*
X299823333Y-76366636D01*
X299775714Y-76319017D01*
X299728095Y-76223779D01*
X299728095Y-76033303D01*
X299775714Y-75938065D01*
X299823333Y-75890446D01*
X299918571Y-75842827D01*
%TO.C,K36*%
X170283035Y-89019005D02*
X170283035Y-88019005D01*
X169711607Y-89019005D02*
X170140178Y-88447577D01*
X169711607Y-88019005D02*
X170283035Y-88590434D01*
X169378273Y-88019005D02*
X168759226Y-88019005D01*
X169092559Y-88399958D01*
X168949702Y-88399958D01*
X168854464Y-88447577D01*
X168806845Y-88495196D01*
X168759226Y-88590434D01*
X168759226Y-88828529D01*
X168806845Y-88923767D01*
X168854464Y-88971386D01*
X168949702Y-89019005D01*
X169235416Y-89019005D01*
X169330654Y-88971386D01*
X169378273Y-88923767D01*
X167902083Y-88019005D02*
X168092559Y-88019005D01*
X168187797Y-88066625D01*
X168235416Y-88114244D01*
X168330654Y-88257101D01*
X168378273Y-88447577D01*
X168378273Y-88828529D01*
X168330654Y-88923767D01*
X168283035Y-88971386D01*
X168187797Y-89019005D01*
X167997321Y-89019005D01*
X167902083Y-88971386D01*
X167854464Y-88923767D01*
X167806845Y-88828529D01*
X167806845Y-88590434D01*
X167854464Y-88495196D01*
X167902083Y-88447577D01*
X167997321Y-88399958D01*
X168187797Y-88399958D01*
X168283035Y-88447577D01*
X168330654Y-88495196D01*
X168378273Y-88590434D01*
%TO.C,K39*%
X227433035Y-89019005D02*
X227433035Y-88019005D01*
X226861607Y-89019005D02*
X227290178Y-88447577D01*
X226861607Y-88019005D02*
X227433035Y-88590434D01*
X226528273Y-88019005D02*
X225909226Y-88019005D01*
X226242559Y-88399958D01*
X226099702Y-88399958D01*
X226004464Y-88447577D01*
X225956845Y-88495196D01*
X225909226Y-88590434D01*
X225909226Y-88828529D01*
X225956845Y-88923767D01*
X226004464Y-88971386D01*
X226099702Y-89019005D01*
X226385416Y-89019005D01*
X226480654Y-88971386D01*
X226528273Y-88923767D01*
X225433035Y-89019005D02*
X225242559Y-89019005D01*
X225147321Y-88971386D01*
X225099702Y-88923767D01*
X225004464Y-88780910D01*
X224956845Y-88590434D01*
X224956845Y-88209482D01*
X225004464Y-88114244D01*
X225052083Y-88066625D01*
X225147321Y-88019005D01*
X225337797Y-88019005D01*
X225433035Y-88066625D01*
X225480654Y-88114244D01*
X225528273Y-88209482D01*
X225528273Y-88447577D01*
X225480654Y-88542815D01*
X225433035Y-88590434D01*
X225337797Y-88638053D01*
X225147321Y-88638053D01*
X225052083Y-88590434D01*
X225004464Y-88542815D01*
X224956845Y-88447577D01*
%TO.C,KD35*%
X257608630Y-135207589D02*
X256608630Y-135207589D01*
X257608630Y-135779017D02*
X257037202Y-135350446D01*
X256608630Y-135779017D02*
X257180059Y-135207589D01*
X257608630Y-136207589D02*
X256608630Y-136207589D01*
X256608630Y-136445684D01*
X256656250Y-136588541D01*
X256751488Y-136683779D01*
X256846726Y-136731398D01*
X257037202Y-136779017D01*
X257180059Y-136779017D01*
X257370535Y-136731398D01*
X257465773Y-136683779D01*
X257561011Y-136588541D01*
X257608630Y-136445684D01*
X257608630Y-136207589D01*
X256608630Y-137112351D02*
X256608630Y-137731398D01*
X256989583Y-137398065D01*
X256989583Y-137540922D01*
X257037202Y-137636160D01*
X257084821Y-137683779D01*
X257180059Y-137731398D01*
X257418154Y-137731398D01*
X257513392Y-137683779D01*
X257561011Y-137636160D01*
X257608630Y-137540922D01*
X257608630Y-137255208D01*
X257561011Y-137159970D01*
X257513392Y-137112351D01*
X256608630Y-138636160D02*
X256608630Y-138159970D01*
X257084821Y-138112351D01*
X257037202Y-138159970D01*
X256989583Y-138255208D01*
X256989583Y-138493303D01*
X257037202Y-138588541D01*
X257084821Y-138636160D01*
X257180059Y-138683779D01*
X257418154Y-138683779D01*
X257513392Y-138636160D01*
X257561011Y-138588541D01*
X257608630Y-138493303D01*
X257608630Y-138255208D01*
X257561011Y-138159970D01*
X257513392Y-138112351D01*
%TO.C,KD8*%
X333808630Y-63293779D02*
X332808630Y-63293779D01*
X333808630Y-63865208D02*
X333237202Y-63436636D01*
X332808630Y-63865208D02*
X333380059Y-63293779D01*
X333808630Y-64293779D02*
X332808630Y-64293779D01*
X332808630Y-64531875D01*
X332856250Y-64674732D01*
X332951488Y-64769970D01*
X333046726Y-64817589D01*
X333237202Y-64865208D01*
X333380059Y-64865208D01*
X333570535Y-64817589D01*
X333665773Y-64769970D01*
X333761011Y-64674732D01*
X333808630Y-64531875D01*
X333808630Y-64293779D01*
X333237202Y-65436636D02*
X333189583Y-65341398D01*
X333141964Y-65293779D01*
X333046726Y-65246160D01*
X332999107Y-65246160D01*
X332903869Y-65293779D01*
X332856250Y-65341398D01*
X332808630Y-65436636D01*
X332808630Y-65627113D01*
X332856250Y-65722351D01*
X332903869Y-65769970D01*
X332999107Y-65817589D01*
X333046726Y-65817589D01*
X333141964Y-65769970D01*
X333189583Y-65722351D01*
X333237202Y-65627113D01*
X333237202Y-65436636D01*
X333284821Y-65341398D01*
X333332440Y-65293779D01*
X333427678Y-65246160D01*
X333618154Y-65246160D01*
X333713392Y-65293779D01*
X333761011Y-65341398D01*
X333808630Y-65436636D01*
X333808630Y-65627113D01*
X333761011Y-65722351D01*
X333713392Y-65769970D01*
X333618154Y-65817589D01*
X333427678Y-65817589D01*
X333332440Y-65769970D01*
X333284821Y-65722351D01*
X333237202Y-65627113D01*
%TO.C,K62*%
X113133035Y-127119005D02*
X113133035Y-126119005D01*
X112561607Y-127119005D02*
X112990178Y-126547577D01*
X112561607Y-126119005D02*
X113133035Y-126690434D01*
X111704464Y-126119005D02*
X111894940Y-126119005D01*
X111990178Y-126166625D01*
X112037797Y-126214244D01*
X112133035Y-126357101D01*
X112180654Y-126547577D01*
X112180654Y-126928529D01*
X112133035Y-127023767D01*
X112085416Y-127071386D01*
X111990178Y-127119005D01*
X111799702Y-127119005D01*
X111704464Y-127071386D01*
X111656845Y-127023767D01*
X111609226Y-126928529D01*
X111609226Y-126690434D01*
X111656845Y-126595196D01*
X111704464Y-126547577D01*
X111799702Y-126499958D01*
X111990178Y-126499958D01*
X112085416Y-126547577D01*
X112133035Y-126595196D01*
X112180654Y-126690434D01*
X111228273Y-126214244D02*
X111180654Y-126166625D01*
X111085416Y-126119005D01*
X110847321Y-126119005D01*
X110752083Y-126166625D01*
X110704464Y-126214244D01*
X110656845Y-126309482D01*
X110656845Y-126404720D01*
X110704464Y-126547577D01*
X111275892Y-127119005D01*
X110656845Y-127119005D01*
%TO.C,K59*%
X346495535Y-108069005D02*
X346495535Y-107069005D01*
X345924107Y-108069005D02*
X346352678Y-107497577D01*
X345924107Y-107069005D02*
X346495535Y-107640434D01*
X345019345Y-107069005D02*
X345495535Y-107069005D01*
X345543154Y-107545196D01*
X345495535Y-107497577D01*
X345400297Y-107449958D01*
X345162202Y-107449958D01*
X345066964Y-107497577D01*
X345019345Y-107545196D01*
X344971726Y-107640434D01*
X344971726Y-107878529D01*
X345019345Y-107973767D01*
X345066964Y-108021386D01*
X345162202Y-108069005D01*
X345400297Y-108069005D01*
X345495535Y-108021386D01*
X345543154Y-107973767D01*
X344495535Y-108069005D02*
X344305059Y-108069005D01*
X344209821Y-108021386D01*
X344162202Y-107973767D01*
X344066964Y-107830910D01*
X344019345Y-107640434D01*
X344019345Y-107259482D01*
X344066964Y-107164244D01*
X344114583Y-107116625D01*
X344209821Y-107069005D01*
X344400297Y-107069005D01*
X344495535Y-107116625D01*
X344543154Y-107164244D01*
X344590773Y-107259482D01*
X344590773Y-107497577D01*
X344543154Y-107592815D01*
X344495535Y-107640434D01*
X344400297Y-107688053D01*
X344209821Y-107688053D01*
X344114583Y-107640434D01*
X344066964Y-107592815D01*
X344019345Y-107497577D01*
%TO.C,KD30*%
X314758630Y-116157589D02*
X313758630Y-116157589D01*
X314758630Y-116729017D02*
X314187202Y-116300446D01*
X313758630Y-116729017D02*
X314330059Y-116157589D01*
X314758630Y-117157589D02*
X313758630Y-117157589D01*
X313758630Y-117395684D01*
X313806250Y-117538541D01*
X313901488Y-117633779D01*
X313996726Y-117681398D01*
X314187202Y-117729017D01*
X314330059Y-117729017D01*
X314520535Y-117681398D01*
X314615773Y-117633779D01*
X314711011Y-117538541D01*
X314758630Y-117395684D01*
X314758630Y-117157589D01*
X313758630Y-118062351D02*
X313758630Y-118681398D01*
X314139583Y-118348065D01*
X314139583Y-118490922D01*
X314187202Y-118586160D01*
X314234821Y-118633779D01*
X314330059Y-118681398D01*
X314568154Y-118681398D01*
X314663392Y-118633779D01*
X314711011Y-118586160D01*
X314758630Y-118490922D01*
X314758630Y-118205208D01*
X314711011Y-118109970D01*
X314663392Y-118062351D01*
X313758630Y-119300446D02*
X313758630Y-119395684D01*
X313806250Y-119490922D01*
X313853869Y-119538541D01*
X313949107Y-119586160D01*
X314139583Y-119633779D01*
X314377678Y-119633779D01*
X314568154Y-119586160D01*
X314663392Y-119538541D01*
X314711011Y-119490922D01*
X314758630Y-119395684D01*
X314758630Y-119300446D01*
X314711011Y-119205208D01*
X314663392Y-119157589D01*
X314568154Y-119109970D01*
X314377678Y-119062351D01*
X314139583Y-119062351D01*
X313949107Y-119109970D01*
X313853869Y-119157589D01*
X313806250Y-119205208D01*
X313758630Y-119300446D01*
%TO.C,K60*%
X65508035Y-127119005D02*
X65508035Y-126119005D01*
X64936607Y-127119005D02*
X65365178Y-126547577D01*
X64936607Y-126119005D02*
X65508035Y-126690434D01*
X64079464Y-126119005D02*
X64269940Y-126119005D01*
X64365178Y-126166625D01*
X64412797Y-126214244D01*
X64508035Y-126357101D01*
X64555654Y-126547577D01*
X64555654Y-126928529D01*
X64508035Y-127023767D01*
X64460416Y-127071386D01*
X64365178Y-127119005D01*
X64174702Y-127119005D01*
X64079464Y-127071386D01*
X64031845Y-127023767D01*
X63984226Y-126928529D01*
X63984226Y-126690434D01*
X64031845Y-126595196D01*
X64079464Y-126547577D01*
X64174702Y-126499958D01*
X64365178Y-126499958D01*
X64460416Y-126547577D01*
X64508035Y-126595196D01*
X64555654Y-126690434D01*
X63365178Y-126119005D02*
X63269940Y-126119005D01*
X63174702Y-126166625D01*
X63127083Y-126214244D01*
X63079464Y-126309482D01*
X63031845Y-126499958D01*
X63031845Y-126738053D01*
X63079464Y-126928529D01*
X63127083Y-127023767D01*
X63174702Y-127071386D01*
X63269940Y-127119005D01*
X63365178Y-127119005D01*
X63460416Y-127071386D01*
X63508035Y-127023767D01*
X63555654Y-126928529D01*
X63603273Y-126738053D01*
X63603273Y-126499958D01*
X63555654Y-126309482D01*
X63508035Y-126214244D01*
X63460416Y-126166625D01*
X63365178Y-126119005D01*
%TO.C,K67*%
X275058035Y-127119005D02*
X275058035Y-126119005D01*
X274486607Y-127119005D02*
X274915178Y-126547577D01*
X274486607Y-126119005D02*
X275058035Y-126690434D01*
X273629464Y-126119005D02*
X273819940Y-126119005D01*
X273915178Y-126166625D01*
X273962797Y-126214244D01*
X274058035Y-126357101D01*
X274105654Y-126547577D01*
X274105654Y-126928529D01*
X274058035Y-127023767D01*
X274010416Y-127071386D01*
X273915178Y-127119005D01*
X273724702Y-127119005D01*
X273629464Y-127071386D01*
X273581845Y-127023767D01*
X273534226Y-126928529D01*
X273534226Y-126690434D01*
X273581845Y-126595196D01*
X273629464Y-126547577D01*
X273724702Y-126499958D01*
X273915178Y-126499958D01*
X274010416Y-126547577D01*
X274058035Y-126595196D01*
X274105654Y-126690434D01*
X273200892Y-126119005D02*
X272534226Y-126119005D01*
X272962797Y-127119005D01*
%TO.C,C3*%
X286855476Y-136204149D02*
X286922819Y-136204149D01*
X287057506Y-136136805D01*
X287124850Y-136069462D01*
X287192193Y-135934774D01*
X287192193Y-135800087D01*
X287158522Y-135699072D01*
X287057506Y-135530713D01*
X286956491Y-135429698D01*
X286788132Y-135328683D01*
X286687117Y-135295011D01*
X286552430Y-135295011D01*
X286417743Y-135362355D01*
X286350399Y-135429698D01*
X286283056Y-135564385D01*
X286283056Y-135631729D01*
X285980010Y-135800087D02*
X285542277Y-136237820D01*
X286047354Y-136271492D01*
X285946338Y-136372507D01*
X285912667Y-136473523D01*
X285912667Y-136540866D01*
X285946338Y-136641881D01*
X286114697Y-136810240D01*
X286215712Y-136843912D01*
X286283056Y-136843912D01*
X286384071Y-136810240D01*
X286586102Y-136608210D01*
X286619774Y-136507194D01*
X286619774Y-136439851D01*
%TO.C,K44*%
X346495535Y-89019005D02*
X346495535Y-88019005D01*
X345924107Y-89019005D02*
X346352678Y-88447577D01*
X345924107Y-88019005D02*
X346495535Y-88590434D01*
X345066964Y-88352339D02*
X345066964Y-89019005D01*
X345305059Y-87971386D02*
X345543154Y-88685672D01*
X344924107Y-88685672D01*
X344114583Y-88352339D02*
X344114583Y-89019005D01*
X344352678Y-87971386D02*
X344590773Y-88685672D01*
X343971726Y-88685672D01*
%TO.C,K1*%
X60269345Y-50919005D02*
X60269345Y-49919005D01*
X59697916Y-50919005D02*
X60126488Y-50347577D01*
X59697916Y-49919005D02*
X60269345Y-50490434D01*
X58745535Y-50919005D02*
X59316964Y-50919005D01*
X59031250Y-50919005D02*
X59031250Y-49919005D01*
X59126488Y-50061863D01*
X59221726Y-50157101D01*
X59316964Y-50204720D01*
%TO.C,K46*%
X81192535Y-117594005D02*
X81192535Y-116594005D01*
X80621107Y-117594005D02*
X81049678Y-117022577D01*
X80621107Y-116594005D02*
X81192535Y-117165434D01*
X79763964Y-116927339D02*
X79763964Y-117594005D01*
X80002059Y-116546386D02*
X80240154Y-117260672D01*
X79621107Y-117260672D01*
X78811583Y-116594005D02*
X79002059Y-116594005D01*
X79097297Y-116641625D01*
X79144916Y-116689244D01*
X79240154Y-116832101D01*
X79287773Y-117022577D01*
X79287773Y-117403529D01*
X79240154Y-117498767D01*
X79192535Y-117546386D01*
X79097297Y-117594005D01*
X78906821Y-117594005D01*
X78811583Y-117546386D01*
X78763964Y-117498767D01*
X78716345Y-117403529D01*
X78716345Y-117165434D01*
X78763964Y-117070196D01*
X78811583Y-117022577D01*
X78906821Y-116974958D01*
X79097297Y-116974958D01*
X79192535Y-117022577D01*
X79240154Y-117070196D01*
X79287773Y-117165434D01*
%TO.C,KD13*%
X229033630Y-78057589D02*
X228033630Y-78057589D01*
X229033630Y-78629017D02*
X228462202Y-78200446D01*
X228033630Y-78629017D02*
X228605059Y-78057589D01*
X229033630Y-79057589D02*
X228033630Y-79057589D01*
X228033630Y-79295684D01*
X228081250Y-79438541D01*
X228176488Y-79533779D01*
X228271726Y-79581398D01*
X228462202Y-79629017D01*
X228605059Y-79629017D01*
X228795535Y-79581398D01*
X228890773Y-79533779D01*
X228986011Y-79438541D01*
X229033630Y-79295684D01*
X229033630Y-79057589D01*
X229033630Y-80581398D02*
X229033630Y-80009970D01*
X229033630Y-80295684D02*
X228033630Y-80295684D01*
X228176488Y-80200446D01*
X228271726Y-80105208D01*
X228319345Y-80009970D01*
X228033630Y-80914732D02*
X228033630Y-81533779D01*
X228414583Y-81200446D01*
X228414583Y-81343303D01*
X228462202Y-81438541D01*
X228509821Y-81486160D01*
X228605059Y-81533779D01*
X228843154Y-81533779D01*
X228938392Y-81486160D01*
X228986011Y-81438541D01*
X229033630Y-81343303D01*
X229033630Y-81057589D01*
X228986011Y-80962351D01*
X228938392Y-80914732D01*
%TO.C,R6*%
X71921630Y-104528958D02*
X71445440Y-104195625D01*
X71921630Y-103957529D02*
X70921630Y-103957529D01*
X70921630Y-104338482D01*
X70969250Y-104433720D01*
X71016869Y-104481339D01*
X71112107Y-104528958D01*
X71254964Y-104528958D01*
X71350202Y-104481339D01*
X71397821Y-104433720D01*
X71445440Y-104338482D01*
X71445440Y-103957529D01*
X70921630Y-105386101D02*
X70921630Y-105195625D01*
X70969250Y-105100386D01*
X71016869Y-105052767D01*
X71159726Y-104957529D01*
X71350202Y-104909910D01*
X71731154Y-104909910D01*
X71826392Y-104957529D01*
X71874011Y-105005148D01*
X71921630Y-105100386D01*
X71921630Y-105290863D01*
X71874011Y-105386101D01*
X71826392Y-105433720D01*
X71731154Y-105481339D01*
X71493059Y-105481339D01*
X71397821Y-105433720D01*
X71350202Y-105386101D01*
X71302583Y-105290863D01*
X71302583Y-105100386D01*
X71350202Y-105005148D01*
X71397821Y-104957529D01*
X71493059Y-104909910D01*
%TO.C,K55*%
X256008035Y-108069005D02*
X256008035Y-107069005D01*
X255436607Y-108069005D02*
X255865178Y-107497577D01*
X255436607Y-107069005D02*
X256008035Y-107640434D01*
X254531845Y-107069005D02*
X255008035Y-107069005D01*
X255055654Y-107545196D01*
X255008035Y-107497577D01*
X254912797Y-107449958D01*
X254674702Y-107449958D01*
X254579464Y-107497577D01*
X254531845Y-107545196D01*
X254484226Y-107640434D01*
X254484226Y-107878529D01*
X254531845Y-107973767D01*
X254579464Y-108021386D01*
X254674702Y-108069005D01*
X254912797Y-108069005D01*
X255008035Y-108021386D01*
X255055654Y-107973767D01*
X253579464Y-107069005D02*
X254055654Y-107069005D01*
X254103273Y-107545196D01*
X254055654Y-107497577D01*
X253960416Y-107449958D01*
X253722321Y-107449958D01*
X253627083Y-107497577D01*
X253579464Y-107545196D01*
X253531845Y-107640434D01*
X253531845Y-107878529D01*
X253579464Y-107973767D01*
X253627083Y-108021386D01*
X253722321Y-108069005D01*
X253960416Y-108069005D01*
X254055654Y-108021386D01*
X254103273Y-107973767D01*
%TO.C,K21*%
X165520535Y-69969005D02*
X165520535Y-68969005D01*
X164949107Y-69969005D02*
X165377678Y-69397577D01*
X164949107Y-68969005D02*
X165520535Y-69540434D01*
X164568154Y-69064244D02*
X164520535Y-69016625D01*
X164425297Y-68969005D01*
X164187202Y-68969005D01*
X164091964Y-69016625D01*
X164044345Y-69064244D01*
X163996726Y-69159482D01*
X163996726Y-69254720D01*
X164044345Y-69397577D01*
X164615773Y-69969005D01*
X163996726Y-69969005D01*
X163044345Y-69969005D02*
X163615773Y-69969005D01*
X163330059Y-69969005D02*
X163330059Y-68969005D01*
X163425297Y-69111863D01*
X163520535Y-69207101D01*
X163615773Y-69254720D01*
%TO.C,K68*%
X308395535Y-127119005D02*
X308395535Y-126119005D01*
X307824107Y-127119005D02*
X308252678Y-126547577D01*
X307824107Y-126119005D02*
X308395535Y-126690434D01*
X306966964Y-126119005D02*
X307157440Y-126119005D01*
X307252678Y-126166625D01*
X307300297Y-126214244D01*
X307395535Y-126357101D01*
X307443154Y-126547577D01*
X307443154Y-126928529D01*
X307395535Y-127023767D01*
X307347916Y-127071386D01*
X307252678Y-127119005D01*
X307062202Y-127119005D01*
X306966964Y-127071386D01*
X306919345Y-127023767D01*
X306871726Y-126928529D01*
X306871726Y-126690434D01*
X306919345Y-126595196D01*
X306966964Y-126547577D01*
X307062202Y-126499958D01*
X307252678Y-126499958D01*
X307347916Y-126547577D01*
X307395535Y-126595196D01*
X307443154Y-126690434D01*
X306300297Y-126547577D02*
X306395535Y-126499958D01*
X306443154Y-126452339D01*
X306490773Y-126357101D01*
X306490773Y-126309482D01*
X306443154Y-126214244D01*
X306395535Y-126166625D01*
X306300297Y-126119005D01*
X306109821Y-126119005D01*
X306014583Y-126166625D01*
X305966964Y-126214244D01*
X305919345Y-126309482D01*
X305919345Y-126357101D01*
X305966964Y-126452339D01*
X306014583Y-126499958D01*
X306109821Y-126547577D01*
X306300297Y-126547577D01*
X306395535Y-126595196D01*
X306443154Y-126642815D01*
X306490773Y-126738053D01*
X306490773Y-126928529D01*
X306443154Y-127023767D01*
X306395535Y-127071386D01*
X306300297Y-127119005D01*
X306109821Y-127119005D01*
X306014583Y-127071386D01*
X305966964Y-127023767D01*
X305919345Y-126928529D01*
X305919345Y-126738053D01*
X305966964Y-126642815D01*
X306014583Y-126595196D01*
X306109821Y-126547577D01*
%TO.C,KD9*%
X76633630Y-78533779D02*
X75633630Y-78533779D01*
X76633630Y-79105208D02*
X76062202Y-78676636D01*
X75633630Y-79105208D02*
X76205059Y-78533779D01*
X76633630Y-79533779D02*
X75633630Y-79533779D01*
X75633630Y-79771875D01*
X75681250Y-79914732D01*
X75776488Y-80009970D01*
X75871726Y-80057589D01*
X76062202Y-80105208D01*
X76205059Y-80105208D01*
X76395535Y-80057589D01*
X76490773Y-80009970D01*
X76586011Y-79914732D01*
X76633630Y-79771875D01*
X76633630Y-79533779D01*
X76633630Y-80581398D02*
X76633630Y-80771875D01*
X76586011Y-80867113D01*
X76538392Y-80914732D01*
X76395535Y-81009970D01*
X76205059Y-81057589D01*
X75824107Y-81057589D01*
X75728869Y-81009970D01*
X75681250Y-80962351D01*
X75633630Y-80867113D01*
X75633630Y-80676636D01*
X75681250Y-80581398D01*
X75728869Y-80533779D01*
X75824107Y-80486160D01*
X76062202Y-80486160D01*
X76157440Y-80533779D01*
X76205059Y-80581398D01*
X76252678Y-80676636D01*
X76252678Y-80867113D01*
X76205059Y-80962351D01*
X76157440Y-81009970D01*
X76062202Y-81057589D01*
%TO.C,R3*%
X281598630Y-115323958D02*
X281122440Y-114990625D01*
X281598630Y-114752529D02*
X280598630Y-114752529D01*
X280598630Y-115133482D01*
X280646250Y-115228720D01*
X280693869Y-115276339D01*
X280789107Y-115323958D01*
X280931964Y-115323958D01*
X281027202Y-115276339D01*
X281074821Y-115228720D01*
X281122440Y-115133482D01*
X281122440Y-114752529D01*
X280598630Y-115657291D02*
X280598630Y-116276339D01*
X280979583Y-115943005D01*
X280979583Y-116085863D01*
X281027202Y-116181101D01*
X281074821Y-116228720D01*
X281170059Y-116276339D01*
X281408154Y-116276339D01*
X281503392Y-116228720D01*
X281551011Y-116181101D01*
X281598630Y-116085863D01*
X281598630Y-115800148D01*
X281551011Y-115704910D01*
X281503392Y-115657291D01*
%TO.C,K66*%
X254801535Y-133342005D02*
X254801535Y-132342005D01*
X254230107Y-133342005D02*
X254658678Y-132770577D01*
X254230107Y-132342005D02*
X254801535Y-132913434D01*
X253372964Y-132342005D02*
X253563440Y-132342005D01*
X253658678Y-132389625D01*
X253706297Y-132437244D01*
X253801535Y-132580101D01*
X253849154Y-132770577D01*
X253849154Y-133151529D01*
X253801535Y-133246767D01*
X253753916Y-133294386D01*
X253658678Y-133342005D01*
X253468202Y-133342005D01*
X253372964Y-133294386D01*
X253325345Y-133246767D01*
X253277726Y-133151529D01*
X253277726Y-132913434D01*
X253325345Y-132818196D01*
X253372964Y-132770577D01*
X253468202Y-132722958D01*
X253658678Y-132722958D01*
X253753916Y-132770577D01*
X253801535Y-132818196D01*
X253849154Y-132913434D01*
X252420583Y-132342005D02*
X252611059Y-132342005D01*
X252706297Y-132389625D01*
X252753916Y-132437244D01*
X252849154Y-132580101D01*
X252896773Y-132770577D01*
X252896773Y-133151529D01*
X252849154Y-133246767D01*
X252801535Y-133294386D01*
X252706297Y-133342005D01*
X252515821Y-133342005D01*
X252420583Y-133294386D01*
X252372964Y-133246767D01*
X252325345Y-133151529D01*
X252325345Y-132913434D01*
X252372964Y-132818196D01*
X252420583Y-132770577D01*
X252515821Y-132722958D01*
X252706297Y-132722958D01*
X252801535Y-132770577D01*
X252849154Y-132818196D01*
X252896773Y-132913434D01*
%TO.C,K16*%
X65508035Y-69969005D02*
X65508035Y-68969005D01*
X64936607Y-69969005D02*
X65365178Y-69397577D01*
X64936607Y-68969005D02*
X65508035Y-69540434D01*
X63984226Y-69969005D02*
X64555654Y-69969005D01*
X64269940Y-69969005D02*
X64269940Y-68969005D01*
X64365178Y-69111863D01*
X64460416Y-69207101D01*
X64555654Y-69254720D01*
X63127083Y-68969005D02*
X63317559Y-68969005D01*
X63412797Y-69016625D01*
X63460416Y-69064244D01*
X63555654Y-69207101D01*
X63603273Y-69397577D01*
X63603273Y-69778529D01*
X63555654Y-69873767D01*
X63508035Y-69921386D01*
X63412797Y-69969005D01*
X63222321Y-69969005D01*
X63127083Y-69921386D01*
X63079464Y-69873767D01*
X63031845Y-69778529D01*
X63031845Y-69540434D01*
X63079464Y-69445196D01*
X63127083Y-69397577D01*
X63222321Y-69349958D01*
X63412797Y-69349958D01*
X63508035Y-69397577D01*
X63555654Y-69445196D01*
X63603273Y-69540434D01*
%TO.C,KD34*%
X200458630Y-135207589D02*
X199458630Y-135207589D01*
X200458630Y-135779017D02*
X199887202Y-135350446D01*
X199458630Y-135779017D02*
X200030059Y-135207589D01*
X200458630Y-136207589D02*
X199458630Y-136207589D01*
X199458630Y-136445684D01*
X199506250Y-136588541D01*
X199601488Y-136683779D01*
X199696726Y-136731398D01*
X199887202Y-136779017D01*
X200030059Y-136779017D01*
X200220535Y-136731398D01*
X200315773Y-136683779D01*
X200411011Y-136588541D01*
X200458630Y-136445684D01*
X200458630Y-136207589D01*
X199458630Y-137112351D02*
X199458630Y-137731398D01*
X199839583Y-137398065D01*
X199839583Y-137540922D01*
X199887202Y-137636160D01*
X199934821Y-137683779D01*
X200030059Y-137731398D01*
X200268154Y-137731398D01*
X200363392Y-137683779D01*
X200411011Y-137636160D01*
X200458630Y-137540922D01*
X200458630Y-137255208D01*
X200411011Y-137159970D01*
X200363392Y-137112351D01*
X199791964Y-138588541D02*
X200458630Y-138588541D01*
X199411011Y-138350446D02*
X200125297Y-138112351D01*
X200125297Y-138731398D01*
%TO.C,KD22*%
X271896130Y-97107589D02*
X270896130Y-97107589D01*
X271896130Y-97679017D02*
X271324702Y-97250446D01*
X270896130Y-97679017D02*
X271467559Y-97107589D01*
X271896130Y-98107589D02*
X270896130Y-98107589D01*
X270896130Y-98345684D01*
X270943750Y-98488541D01*
X271038988Y-98583779D01*
X271134226Y-98631398D01*
X271324702Y-98679017D01*
X271467559Y-98679017D01*
X271658035Y-98631398D01*
X271753273Y-98583779D01*
X271848511Y-98488541D01*
X271896130Y-98345684D01*
X271896130Y-98107589D01*
X270991369Y-99059970D02*
X270943750Y-99107589D01*
X270896130Y-99202827D01*
X270896130Y-99440922D01*
X270943750Y-99536160D01*
X270991369Y-99583779D01*
X271086607Y-99631398D01*
X271181845Y-99631398D01*
X271324702Y-99583779D01*
X271896130Y-99012351D01*
X271896130Y-99631398D01*
X270991369Y-100012351D02*
X270943750Y-100059970D01*
X270896130Y-100155208D01*
X270896130Y-100393303D01*
X270943750Y-100488541D01*
X270991369Y-100536160D01*
X271086607Y-100583779D01*
X271181845Y-100583779D01*
X271324702Y-100536160D01*
X271896130Y-99964732D01*
X271896130Y-100583779D01*
%TO.C,KD20*%
X195696130Y-97107589D02*
X194696130Y-97107589D01*
X195696130Y-97679017D02*
X195124702Y-97250446D01*
X194696130Y-97679017D02*
X195267559Y-97107589D01*
X195696130Y-98107589D02*
X194696130Y-98107589D01*
X194696130Y-98345684D01*
X194743750Y-98488541D01*
X194838988Y-98583779D01*
X194934226Y-98631398D01*
X195124702Y-98679017D01*
X195267559Y-98679017D01*
X195458035Y-98631398D01*
X195553273Y-98583779D01*
X195648511Y-98488541D01*
X195696130Y-98345684D01*
X195696130Y-98107589D01*
X194791369Y-99059970D02*
X194743750Y-99107589D01*
X194696130Y-99202827D01*
X194696130Y-99440922D01*
X194743750Y-99536160D01*
X194791369Y-99583779D01*
X194886607Y-99631398D01*
X194981845Y-99631398D01*
X195124702Y-99583779D01*
X195696130Y-99012351D01*
X195696130Y-99631398D01*
X194696130Y-100250446D02*
X194696130Y-100345684D01*
X194743750Y-100440922D01*
X194791369Y-100488541D01*
X194886607Y-100536160D01*
X195077083Y-100583779D01*
X195315178Y-100583779D01*
X195505654Y-100536160D01*
X195600892Y-100488541D01*
X195648511Y-100440922D01*
X195696130Y-100345684D01*
X195696130Y-100250446D01*
X195648511Y-100155208D01*
X195600892Y-100107589D01*
X195505654Y-100059970D01*
X195315178Y-100012351D01*
X195077083Y-100012351D01*
X194886607Y-100059970D01*
X194791369Y-100107589D01*
X194743750Y-100155208D01*
X194696130Y-100250446D01*
%TO.C,C8*%
X283217916Y-125104142D02*
X283265535Y-125151761D01*
X283408392Y-125199380D01*
X283503630Y-125199380D01*
X283646488Y-125151761D01*
X283741726Y-125056523D01*
X283789345Y-124961285D01*
X283836964Y-124770809D01*
X283836964Y-124627952D01*
X283789345Y-124437476D01*
X283741726Y-124342238D01*
X283646488Y-124247000D01*
X283503630Y-124199380D01*
X283408392Y-124199380D01*
X283265535Y-124247000D01*
X283217916Y-124294619D01*
X282646488Y-124627952D02*
X282741726Y-124580333D01*
X282789345Y-124532714D01*
X282836964Y-124437476D01*
X282836964Y-124389857D01*
X282789345Y-124294619D01*
X282741726Y-124247000D01*
X282646488Y-124199380D01*
X282456011Y-124199380D01*
X282360773Y-124247000D01*
X282313154Y-124294619D01*
X282265535Y-124389857D01*
X282265535Y-124437476D01*
X282313154Y-124532714D01*
X282360773Y-124580333D01*
X282456011Y-124627952D01*
X282646488Y-124627952D01*
X282741726Y-124675571D01*
X282789345Y-124723190D01*
X282836964Y-124818428D01*
X282836964Y-125008904D01*
X282789345Y-125104142D01*
X282741726Y-125151761D01*
X282646488Y-125199380D01*
X282456011Y-125199380D01*
X282360773Y-125151761D01*
X282313154Y-125104142D01*
X282265535Y-125008904D01*
X282265535Y-124818428D01*
X282313154Y-124723190D01*
X282360773Y-124675571D01*
X282456011Y-124627952D01*
%TO.C,K2*%
X79319345Y-50919005D02*
X79319345Y-49919005D01*
X78747916Y-50919005D02*
X79176488Y-50347577D01*
X78747916Y-49919005D02*
X79319345Y-50490434D01*
X78366964Y-50014244D02*
X78319345Y-49966625D01*
X78224107Y-49919005D01*
X77986011Y-49919005D01*
X77890773Y-49966625D01*
X77843154Y-50014244D01*
X77795535Y-50109482D01*
X77795535Y-50204720D01*
X77843154Y-50347577D01*
X78414583Y-50919005D01*
X77795535Y-50919005D01*
%TO.C,KD7*%
X295708630Y-59483779D02*
X294708630Y-59483779D01*
X295708630Y-60055208D02*
X295137202Y-59626636D01*
X294708630Y-60055208D02*
X295280059Y-59483779D01*
X295708630Y-60483779D02*
X294708630Y-60483779D01*
X294708630Y-60721875D01*
X294756250Y-60864732D01*
X294851488Y-60959970D01*
X294946726Y-61007589D01*
X295137202Y-61055208D01*
X295280059Y-61055208D01*
X295470535Y-61007589D01*
X295565773Y-60959970D01*
X295661011Y-60864732D01*
X295708630Y-60721875D01*
X295708630Y-60483779D01*
X294708630Y-61388541D02*
X294708630Y-62055208D01*
X295708630Y-61626636D01*
%TO.C,K45a1*%
X73580357Y-108069005D02*
X73580357Y-107069005D01*
X73008928Y-108069005D02*
X73437500Y-107497577D01*
X73008928Y-107069005D02*
X73580357Y-107640434D01*
X72151785Y-107402339D02*
X72151785Y-108069005D01*
X72389880Y-107021386D02*
X72627976Y-107735672D01*
X72008928Y-107735672D01*
X71151785Y-107069005D02*
X71627976Y-107069005D01*
X71675595Y-107545196D01*
X71627976Y-107497577D01*
X71532738Y-107449958D01*
X71294642Y-107449958D01*
X71199404Y-107497577D01*
X71151785Y-107545196D01*
X71104166Y-107640434D01*
X71104166Y-107878529D01*
X71151785Y-107973767D01*
X71199404Y-108021386D01*
X71294642Y-108069005D01*
X71532738Y-108069005D01*
X71627976Y-108021386D01*
X71675595Y-107973767D01*
X70247023Y-108069005D02*
X70247023Y-107545196D01*
X70294642Y-107449958D01*
X70389880Y-107402339D01*
X70580357Y-107402339D01*
X70675595Y-107449958D01*
X70247023Y-108021386D02*
X70342261Y-108069005D01*
X70580357Y-108069005D01*
X70675595Y-108021386D01*
X70723214Y-107926148D01*
X70723214Y-107830910D01*
X70675595Y-107735672D01*
X70580357Y-107688053D01*
X70342261Y-107688053D01*
X70247023Y-107640434D01*
X69247023Y-108069005D02*
X69818452Y-108069005D01*
X69532738Y-108069005D02*
X69532738Y-107069005D01*
X69627976Y-107211863D01*
X69723214Y-107307101D01*
X69818452Y-107354720D01*
%TO.C,K35*%
X151233035Y-89019005D02*
X151233035Y-88019005D01*
X150661607Y-89019005D02*
X151090178Y-88447577D01*
X150661607Y-88019005D02*
X151233035Y-88590434D01*
X150328273Y-88019005D02*
X149709226Y-88019005D01*
X150042559Y-88399958D01*
X149899702Y-88399958D01*
X149804464Y-88447577D01*
X149756845Y-88495196D01*
X149709226Y-88590434D01*
X149709226Y-88828529D01*
X149756845Y-88923767D01*
X149804464Y-88971386D01*
X149899702Y-89019005D01*
X150185416Y-89019005D01*
X150280654Y-88971386D01*
X150328273Y-88923767D01*
X148804464Y-88019005D02*
X149280654Y-88019005D01*
X149328273Y-88495196D01*
X149280654Y-88447577D01*
X149185416Y-88399958D01*
X148947321Y-88399958D01*
X148852083Y-88447577D01*
X148804464Y-88495196D01*
X148756845Y-88590434D01*
X148756845Y-88828529D01*
X148804464Y-88923767D01*
X148852083Y-88971386D01*
X148947321Y-89019005D01*
X149185416Y-89019005D01*
X149280654Y-88971386D01*
X149328273Y-88923767D01*
%TO.C,KD15*%
X305233630Y-78057589D02*
X304233630Y-78057589D01*
X305233630Y-78629017D02*
X304662202Y-78200446D01*
X304233630Y-78629017D02*
X304805059Y-78057589D01*
X305233630Y-79057589D02*
X304233630Y-79057589D01*
X304233630Y-79295684D01*
X304281250Y-79438541D01*
X304376488Y-79533779D01*
X304471726Y-79581398D01*
X304662202Y-79629017D01*
X304805059Y-79629017D01*
X304995535Y-79581398D01*
X305090773Y-79533779D01*
X305186011Y-79438541D01*
X305233630Y-79295684D01*
X305233630Y-79057589D01*
X305233630Y-80581398D02*
X305233630Y-80009970D01*
X305233630Y-80295684D02*
X304233630Y-80295684D01*
X304376488Y-80200446D01*
X304471726Y-80105208D01*
X304519345Y-80009970D01*
X304233630Y-81486160D02*
X304233630Y-81009970D01*
X304709821Y-80962351D01*
X304662202Y-81009970D01*
X304614583Y-81105208D01*
X304614583Y-81343303D01*
X304662202Y-81438541D01*
X304709821Y-81486160D01*
X304805059Y-81533779D01*
X305043154Y-81533779D01*
X305138392Y-81486160D01*
X305186011Y-81438541D01*
X305233630Y-81343303D01*
X305233630Y-81105208D01*
X305186011Y-81009970D01*
X305138392Y-80962351D01*
%TO.C,U1*%
X203168324Y-58388365D02*
X203168324Y-59197889D01*
X203120705Y-59293127D01*
X203073086Y-59340746D01*
X202977848Y-59388365D01*
X202787372Y-59388365D01*
X202692134Y-59340746D01*
X202644515Y-59293127D01*
X202596896Y-59197889D01*
X202596896Y-58388365D01*
X201596896Y-59388365D02*
X202168324Y-59388365D01*
X201882610Y-59388365D02*
X201882610Y-58388365D01*
X201977848Y-58531223D01*
X202073086Y-58626461D01*
X202168324Y-58674080D01*
%TO.C,KD29*%
X262371130Y-116157589D02*
X261371130Y-116157589D01*
X262371130Y-116729017D02*
X261799702Y-116300446D01*
X261371130Y-116729017D02*
X261942559Y-116157589D01*
X262371130Y-117157589D02*
X261371130Y-117157589D01*
X261371130Y-117395684D01*
X261418750Y-117538541D01*
X261513988Y-117633779D01*
X261609226Y-117681398D01*
X261799702Y-117729017D01*
X261942559Y-117729017D01*
X262133035Y-117681398D01*
X262228273Y-117633779D01*
X262323511Y-117538541D01*
X262371130Y-117395684D01*
X262371130Y-117157589D01*
X261466369Y-118109970D02*
X261418750Y-118157589D01*
X261371130Y-118252827D01*
X261371130Y-118490922D01*
X261418750Y-118586160D01*
X261466369Y-118633779D01*
X261561607Y-118681398D01*
X261656845Y-118681398D01*
X261799702Y-118633779D01*
X262371130Y-118062351D01*
X262371130Y-118681398D01*
X262371130Y-119157589D02*
X262371130Y-119348065D01*
X262323511Y-119443303D01*
X262275892Y-119490922D01*
X262133035Y-119586160D01*
X261942559Y-119633779D01*
X261561607Y-119633779D01*
X261466369Y-119586160D01*
X261418750Y-119538541D01*
X261371130Y-119443303D01*
X261371130Y-119252827D01*
X261418750Y-119157589D01*
X261466369Y-119109970D01*
X261561607Y-119062351D01*
X261799702Y-119062351D01*
X261894940Y-119109970D01*
X261942559Y-119157589D01*
X261990178Y-119252827D01*
X261990178Y-119443303D01*
X261942559Y-119538541D01*
X261894940Y-119586160D01*
X261799702Y-119633779D01*
%TO.C,K31a1*%
X62150357Y-89019005D02*
X62150357Y-88019005D01*
X61578928Y-89019005D02*
X62007500Y-88447577D01*
X61578928Y-88019005D02*
X62150357Y-88590434D01*
X61245595Y-88019005D02*
X60626547Y-88019005D01*
X60959880Y-88399958D01*
X60817023Y-88399958D01*
X60721785Y-88447577D01*
X60674166Y-88495196D01*
X60626547Y-88590434D01*
X60626547Y-88828529D01*
X60674166Y-88923767D01*
X60721785Y-88971386D01*
X60817023Y-89019005D01*
X61102738Y-89019005D01*
X61197976Y-88971386D01*
X61245595Y-88923767D01*
X59674166Y-89019005D02*
X60245595Y-89019005D01*
X59959880Y-89019005D02*
X59959880Y-88019005D01*
X60055119Y-88161863D01*
X60150357Y-88257101D01*
X60245595Y-88304720D01*
X58817023Y-89019005D02*
X58817023Y-88495196D01*
X58864642Y-88399958D01*
X58959880Y-88352339D01*
X59150357Y-88352339D01*
X59245595Y-88399958D01*
X58817023Y-88971386D02*
X58912261Y-89019005D01*
X59150357Y-89019005D01*
X59245595Y-88971386D01*
X59293214Y-88876148D01*
X59293214Y-88780910D01*
X59245595Y-88685672D01*
X59150357Y-88638053D01*
X58912261Y-88638053D01*
X58817023Y-88590434D01*
X57817023Y-89019005D02*
X58388452Y-89019005D01*
X58102738Y-89019005D02*
X58102738Y-88019005D01*
X58197976Y-88161863D01*
X58293214Y-88257101D01*
X58388452Y-88304720D01*
%TO.C,C4*%
X282929514Y-132500437D02*
X282996857Y-132500437D01*
X283131544Y-132433093D01*
X283198888Y-132365750D01*
X283266231Y-132231062D01*
X283266231Y-132096375D01*
X283232560Y-131995360D01*
X283131544Y-131827001D01*
X283030529Y-131725986D01*
X282862170Y-131624971D01*
X282761155Y-131591299D01*
X282626468Y-131591299D01*
X282491781Y-131658643D01*
X282424437Y-131725986D01*
X282357094Y-131860673D01*
X282357094Y-131928017D01*
X281919361Y-132702467D02*
X282390766Y-133173872D01*
X281818346Y-132264734D02*
X282491781Y-132601452D01*
X282054048Y-133039185D01*
%TO.C,K14*%
X304839535Y-60571005D02*
X304839535Y-59571005D01*
X304268107Y-60571005D02*
X304696678Y-59999577D01*
X304268107Y-59571005D02*
X304839535Y-60142434D01*
X303315726Y-60571005D02*
X303887154Y-60571005D01*
X303601440Y-60571005D02*
X303601440Y-59571005D01*
X303696678Y-59713863D01*
X303791916Y-59809101D01*
X303887154Y-59856720D01*
X302458583Y-59904339D02*
X302458583Y-60571005D01*
X302696678Y-59523386D02*
X302934773Y-60237672D01*
X302315726Y-60237672D01*
%TO.C,K14a1*%
X318849107Y-50919005D02*
X318849107Y-49919005D01*
X318277678Y-50919005D02*
X318706250Y-50347577D01*
X318277678Y-49919005D02*
X318849107Y-50490434D01*
X317325297Y-50919005D02*
X317896726Y-50919005D01*
X317611011Y-50919005D02*
X317611011Y-49919005D01*
X317706250Y-50061863D01*
X317801488Y-50157101D01*
X317896726Y-50204720D01*
X316468154Y-50252339D02*
X316468154Y-50919005D01*
X316706250Y-49871386D02*
X316944345Y-50585672D01*
X316325297Y-50585672D01*
X315515773Y-50919005D02*
X315515773Y-50395196D01*
X315563392Y-50299958D01*
X315658630Y-50252339D01*
X315849107Y-50252339D01*
X315944345Y-50299958D01*
X315515773Y-50871386D02*
X315611011Y-50919005D01*
X315849107Y-50919005D01*
X315944345Y-50871386D01*
X315991964Y-50776148D01*
X315991964Y-50680910D01*
X315944345Y-50585672D01*
X315849107Y-50538053D01*
X315611011Y-50538053D01*
X315515773Y-50490434D01*
X314515773Y-50919005D02*
X315087202Y-50919005D01*
X314801488Y-50919005D02*
X314801488Y-49919005D01*
X314896726Y-50061863D01*
X314991964Y-50157101D01*
X315087202Y-50204720D01*
%TO.C,K25*%
X241720535Y-69969005D02*
X241720535Y-68969005D01*
X241149107Y-69969005D02*
X241577678Y-69397577D01*
X241149107Y-68969005D02*
X241720535Y-69540434D01*
X240768154Y-69064244D02*
X240720535Y-69016625D01*
X240625297Y-68969005D01*
X240387202Y-68969005D01*
X240291964Y-69016625D01*
X240244345Y-69064244D01*
X240196726Y-69159482D01*
X240196726Y-69254720D01*
X240244345Y-69397577D01*
X240815773Y-69969005D01*
X240196726Y-69969005D01*
X239291964Y-68969005D02*
X239768154Y-68969005D01*
X239815773Y-69445196D01*
X239768154Y-69397577D01*
X239672916Y-69349958D01*
X239434821Y-69349958D01*
X239339583Y-69397577D01*
X239291964Y-69445196D01*
X239244345Y-69540434D01*
X239244345Y-69778529D01*
X239291964Y-69873767D01*
X239339583Y-69921386D01*
X239434821Y-69969005D01*
X239672916Y-69969005D01*
X239768154Y-69921386D01*
X239815773Y-69873767D01*
%TO.C,K70*%
X339146250Y-129460625D02*
X339146250Y-133675625D01*
X350146250Y-127790625D02*
X350146250Y-132000625D01*
X340821250Y-127785625D02*
X350146250Y-127785625D01*
X344416250Y-132000625D02*
X350146250Y-132000625D01*
X339146250Y-133675625D02*
X342741250Y-133675625D01*
X339146250Y-129460625D02*
G75*
G02*
X340821250Y-127785625I1675000J0D01*
G01*
X342741250Y-133675625D02*
G75*
G02*
X344416250Y-132000625I1675000J0D01*
G01*
D11*
%TO.C,J1*%
X197706250Y-44240000D02*
X207106250Y-44240000D01*
X207106250Y-50040000D02*
X207106250Y-48040000D01*
X197706250Y-46140000D02*
X197706250Y-44240000D01*
X197706250Y-50040000D02*
X197706250Y-48040000D01*
X207106250Y-46140000D02*
X207106250Y-44240000D01*
D10*
%TO.C,K57*%
X304902500Y-108740625D02*
X304902500Y-112950625D01*
X299172500Y-112950625D02*
X304902500Y-112950625D01*
X295577500Y-108735625D02*
X304902500Y-108735625D01*
X293902500Y-114625625D02*
X297497500Y-114625625D01*
X293902500Y-110410625D02*
X293902500Y-114625625D01*
X293902500Y-110410625D02*
G75*
G02*
X295577500Y-108735625I1675000J0D01*
G01*
X297497500Y-114625625D02*
G75*
G02*
X299172500Y-112950625I1675000J0D01*
G01*
D11*
%TO.C,KD25*%
X113478750Y-117871875D02*
X113478750Y-117221875D01*
X113478750Y-117871875D02*
X113478750Y-118521875D01*
X110358750Y-117871875D02*
X110358750Y-118521875D01*
X110358750Y-117871875D02*
X110358750Y-116196875D01*
D10*
%TO.C,K58*%
X331096250Y-108740625D02*
X331096250Y-112950625D01*
X325366250Y-112950625D02*
X331096250Y-112950625D01*
X320096250Y-114625625D02*
X323691250Y-114625625D01*
X320096250Y-110410625D02*
X320096250Y-114625625D01*
X321771250Y-108735625D02*
X331096250Y-108735625D01*
X320096250Y-110410625D02*
G75*
G02*
X321771250Y-108735625I1675000J0D01*
G01*
X323691250Y-114625625D02*
G75*
G02*
X325366250Y-112950625I1675000J0D01*
G01*
%TO.C,K31*%
X72810000Y-101520625D02*
X72810000Y-97305625D01*
X61810000Y-103190625D02*
X61810000Y-98980625D01*
X72810000Y-97305625D02*
X69215000Y-97305625D01*
X71135000Y-103195625D02*
X61810000Y-103195625D01*
X67540000Y-98980625D02*
X61810000Y-98980625D01*
X72810000Y-101520625D02*
G75*
G02*
X71135000Y-103195625I-1675000J0D01*
G01*
X69215000Y-97305625D02*
G75*
G02*
X67540000Y-98980625I-1675000J0D01*
G01*
%TO.C,K43a1*%
X295663750Y-100900625D02*
X295663750Y-91575625D01*
X297338750Y-102575625D02*
X301553750Y-102575625D01*
X299878750Y-97305625D02*
X299878750Y-91575625D01*
X301553750Y-102575625D02*
X301553750Y-98980625D01*
X295668750Y-91575625D02*
X299878750Y-91575625D01*
X297338750Y-102575625D02*
G75*
G02*
X295663750Y-100900625I0J1675000D01*
G01*
X301553750Y-98980625D02*
G75*
G02*
X299878750Y-97305625I0J1675000D01*
G01*
D11*
%TO.C,KD1*%
X70616250Y-60721875D02*
X70616250Y-60071875D01*
X70616250Y-60721875D02*
X70616250Y-61371875D01*
X67496250Y-60721875D02*
X67496250Y-59046875D01*
X67496250Y-60721875D02*
X67496250Y-61371875D01*
%TO.C,SW1*%
X287866250Y-103230625D02*
X285866250Y-103230625D01*
X289616250Y-107230625D02*
X289616250Y-104730625D01*
X289166250Y-107680625D02*
X289616250Y-107230625D01*
X284566250Y-104280625D02*
X284116250Y-104730625D01*
X289166250Y-104280625D02*
X289616250Y-104730625D01*
X287866250Y-108730625D02*
X285866250Y-108730625D01*
X284566250Y-107680625D02*
X284116250Y-107230625D01*
X284116250Y-107230625D02*
X284116250Y-104730625D01*
D10*
%TO.C,K7*%
X178696250Y-51590625D02*
X178696250Y-55800625D01*
X169371250Y-51585625D02*
X178696250Y-51585625D01*
X172966250Y-55800625D02*
X178696250Y-55800625D01*
X167696250Y-53260625D02*
X167696250Y-57475625D01*
X167696250Y-57475625D02*
X171291250Y-57475625D01*
X167696250Y-53260625D02*
G75*
G02*
X169371250Y-51585625I1675000J0D01*
G01*
X171291250Y-57475625D02*
G75*
G02*
X172966250Y-55800625I1675000J0D01*
G01*
D11*
%TO.C,KD31*%
X337316250Y-117871875D02*
X337316250Y-118521875D01*
X334196250Y-117871875D02*
X334196250Y-118521875D01*
X334196250Y-117871875D02*
X334196250Y-116196875D01*
X337316250Y-117871875D02*
X337316250Y-117221875D01*
D10*
%TO.C,K49*%
X134358750Y-110410625D02*
X134358750Y-114625625D01*
X134358750Y-114625625D02*
X137953750Y-114625625D01*
X136033750Y-108735625D02*
X145358750Y-108735625D01*
X145358750Y-108740625D02*
X145358750Y-112950625D01*
X139628750Y-112950625D02*
X145358750Y-112950625D01*
X137953750Y-114625625D02*
G75*
G02*
X139628750Y-112950625I1675000J0D01*
G01*
X134358750Y-110410625D02*
G75*
G02*
X136033750Y-108735625I1675000J0D01*
G01*
%TO.C,K64a1*%
X192016250Y-132000625D02*
X197746250Y-132000625D01*
X188421250Y-127785625D02*
X197746250Y-127785625D01*
X186746250Y-133675625D02*
X190341250Y-133675625D01*
X186746250Y-129460625D02*
X186746250Y-133675625D01*
X197746250Y-127790625D02*
X197746250Y-132000625D01*
X190341250Y-133675625D02*
G75*
G02*
X192016250Y-132000625I1675000J0D01*
G01*
X186746250Y-129460625D02*
G75*
G02*
X188421250Y-127785625I1675000J0D01*
G01*
%TO.C,K34*%
X126508750Y-89685625D02*
X135833750Y-89685625D01*
X135833750Y-89690625D02*
X135833750Y-93900625D01*
X130103750Y-93900625D02*
X135833750Y-93900625D01*
X124833750Y-95575625D02*
X128428750Y-95575625D01*
X124833750Y-91360625D02*
X124833750Y-95575625D01*
X124833750Y-91360625D02*
G75*
G02*
X126508750Y-89685625I1675000J0D01*
G01*
X128428750Y-95575625D02*
G75*
G02*
X130103750Y-93900625I1675000J0D01*
G01*
%TO.C,K9*%
X218066250Y-59205625D02*
X214471250Y-59205625D01*
X216391250Y-65095625D02*
X207066250Y-65095625D01*
X207066250Y-65090625D02*
X207066250Y-60880625D01*
X212796250Y-60880625D02*
X207066250Y-60880625D01*
X218066250Y-63420625D02*
X218066250Y-59205625D01*
X218066250Y-63420625D02*
G75*
G02*
X216391250Y-65095625I-1675000J0D01*
G01*
X214471250Y-59205625D02*
G75*
G02*
X212796250Y-60880625I-1675000J0D01*
G01*
%TO.C,K33*%
X116783750Y-89690625D02*
X116783750Y-93900625D01*
X111053750Y-93900625D02*
X116783750Y-93900625D01*
X105783750Y-95575625D02*
X109378750Y-95575625D01*
X105783750Y-91360625D02*
X105783750Y-95575625D01*
X107458750Y-89685625D02*
X116783750Y-89685625D01*
X105783750Y-91360625D02*
G75*
G02*
X107458750Y-89685625I1675000J0D01*
G01*
X109378750Y-95575625D02*
G75*
G02*
X111053750Y-93900625I1675000J0D01*
G01*
D11*
%TO.C,KD27*%
X189678750Y-117871875D02*
X189678750Y-117221875D01*
X189678750Y-117871875D02*
X189678750Y-118521875D01*
X186558750Y-117871875D02*
X186558750Y-118521875D01*
X186558750Y-117871875D02*
X186558750Y-116196875D01*
%TO.C,KD4*%
X184916250Y-60721875D02*
X184916250Y-60071875D01*
X181796250Y-60721875D02*
X181796250Y-61371875D01*
X181796250Y-60721875D02*
X181796250Y-59046875D01*
X184916250Y-60721875D02*
X184916250Y-61371875D01*
%TO.C,R4*%
X266970742Y-124744375D02*
X267445258Y-124744375D01*
X266970742Y-123699375D02*
X267445258Y-123699375D01*
%TO.C,C2*%
X298166250Y-132495045D02*
X298166250Y-132776205D01*
X297146250Y-132495045D02*
X297146250Y-132776205D01*
D10*
%TO.C,K56*%
X278708750Y-108740625D02*
X278708750Y-112950625D01*
X272978750Y-112950625D02*
X278708750Y-112950625D01*
X269383750Y-108735625D02*
X278708750Y-108735625D01*
X267708750Y-110410625D02*
X267708750Y-114625625D01*
X267708750Y-114625625D02*
X271303750Y-114625625D01*
X267708750Y-110410625D02*
G75*
G02*
X269383750Y-108735625I1675000J0D01*
G01*
X271303750Y-114625625D02*
G75*
G02*
X272978750Y-112950625I1675000J0D01*
G01*
%TO.C,K54*%
X234878750Y-112950625D02*
X240608750Y-112950625D01*
X240608750Y-108740625D02*
X240608750Y-112950625D01*
X229608750Y-114625625D02*
X233203750Y-114625625D01*
X229608750Y-110410625D02*
X229608750Y-114625625D01*
X231283750Y-108735625D02*
X240608750Y-108735625D01*
X229608750Y-110410625D02*
G75*
G02*
X231283750Y-108735625I1675000J0D01*
G01*
X233203750Y-114625625D02*
G75*
G02*
X234878750Y-112950625I1675000J0D01*
G01*
%TO.C,K8*%
X197341250Y-65095625D02*
X188016250Y-65095625D01*
X199016250Y-59205625D02*
X195421250Y-59205625D01*
X199016250Y-63420625D02*
X199016250Y-59205625D01*
X193746250Y-60880625D02*
X188016250Y-60880625D01*
X188016250Y-65090625D02*
X188016250Y-60880625D01*
X195421250Y-59205625D02*
G75*
G02*
X193746250Y-60880625I-1675000J0D01*
G01*
X199016250Y-63420625D02*
G75*
G02*
X197341250Y-65095625I-1675000J0D01*
G01*
D11*
%TO.C,KD19*%
X161103750Y-98821875D02*
X161103750Y-98171875D01*
X157983750Y-98821875D02*
X157983750Y-99471875D01*
X157983750Y-98821875D02*
X157983750Y-97146875D01*
X161103750Y-98821875D02*
X161103750Y-99471875D01*
D10*
%TO.C,K24*%
X226321250Y-70640625D02*
X226321250Y-74850625D01*
X215321250Y-76525625D02*
X218916250Y-76525625D01*
X216996250Y-70635625D02*
X226321250Y-70635625D01*
X220591250Y-74850625D02*
X226321250Y-74850625D01*
X215321250Y-72310625D02*
X215321250Y-76525625D01*
X218916250Y-76525625D02*
G75*
G02*
X220591250Y-74850625I1675000J0D01*
G01*
X215321250Y-72310625D02*
G75*
G02*
X216996250Y-70635625I1675000J0D01*
G01*
D11*
%TO.C,KD23*%
X326838750Y-98821875D02*
X326838750Y-99471875D01*
X323718750Y-98821875D02*
X323718750Y-99471875D01*
X323718750Y-98821875D02*
X323718750Y-97146875D01*
X326838750Y-98821875D02*
X326838750Y-98171875D01*
%TO.C,KD12*%
X191321250Y-79771875D02*
X191321250Y-78096875D01*
X194441250Y-79771875D02*
X194441250Y-79121875D01*
X194441250Y-79771875D02*
X194441250Y-80421875D01*
X191321250Y-79771875D02*
X191321250Y-80421875D01*
D10*
%TO.C,U2*%
X297735805Y-128317625D02*
X297258508Y-127840328D01*
X297735805Y-128317625D02*
X297258508Y-128794922D01*
X290417250Y-135636180D02*
X290894547Y-135158883D01*
X283098695Y-128317625D02*
X283575992Y-128794922D01*
X290417250Y-120999070D02*
X290894547Y-121476367D01*
X290417250Y-135636180D02*
X289939953Y-135158883D01*
X290417250Y-120999070D02*
X289939953Y-121476367D01*
X283505281Y-127911039D02*
X282603720Y-127009477D01*
X283098695Y-128317625D02*
X283505281Y-127911039D01*
D11*
%TO.C,KD36*%
X315146250Y-136921875D02*
X315146250Y-135246875D01*
X318266250Y-136921875D02*
X318266250Y-137571875D01*
X315146250Y-136921875D02*
X315146250Y-137571875D01*
X318266250Y-136921875D02*
X318266250Y-136271875D01*
D10*
%TO.C,K40*%
X244403750Y-93900625D02*
X250133750Y-93900625D01*
X250133750Y-89690625D02*
X250133750Y-93900625D01*
X239133750Y-95575625D02*
X242728750Y-95575625D01*
X239133750Y-91360625D02*
X239133750Y-95575625D01*
X240808750Y-89685625D02*
X250133750Y-89685625D01*
X239133750Y-91360625D02*
G75*
G02*
X240808750Y-89685625I1675000J0D01*
G01*
X242728750Y-95575625D02*
G75*
G02*
X244403750Y-93900625I1675000J0D01*
G01*
%TO.C,K11*%
X243896250Y-53260625D02*
X243896250Y-57475625D01*
X243896250Y-57475625D02*
X247491250Y-57475625D01*
X249166250Y-55800625D02*
X254896250Y-55800625D01*
X245571250Y-51585625D02*
X254896250Y-51585625D01*
X254896250Y-51590625D02*
X254896250Y-55800625D01*
X243896250Y-53260625D02*
G75*
G02*
X245571250Y-51585625I1675000J0D01*
G01*
X247491250Y-57475625D02*
G75*
G02*
X249166250Y-55800625I1675000J0D01*
G01*
%TO.C,K15*%
X332366250Y-59205625D02*
X328771250Y-59205625D01*
X332366250Y-63420625D02*
X332366250Y-59205625D01*
X330691250Y-65095625D02*
X321366250Y-65095625D01*
X321366250Y-65090625D02*
X321366250Y-60880625D01*
X327096250Y-60880625D02*
X321366250Y-60880625D01*
X328771250Y-59205625D02*
G75*
G02*
X327096250Y-60880625I-1675000J0D01*
G01*
X332366250Y-63420625D02*
G75*
G02*
X330691250Y-65095625I-1675000J0D01*
G01*
D11*
%TO.C,KD11*%
X153221250Y-79771875D02*
X153221250Y-78096875D01*
X156341250Y-79771875D02*
X156341250Y-79121875D01*
X156341250Y-79771875D02*
X156341250Y-80421875D01*
X153221250Y-79771875D02*
X153221250Y-80421875D01*
D10*
%TO.C,K52*%
X202508750Y-108740625D02*
X202508750Y-112950625D01*
X196778750Y-112950625D02*
X202508750Y-112950625D01*
X191508750Y-110410625D02*
X191508750Y-114625625D01*
X193183750Y-108735625D02*
X202508750Y-108735625D01*
X191508750Y-114625625D02*
X195103750Y-114625625D01*
X195103750Y-114625625D02*
G75*
G02*
X196778750Y-112950625I1675000J0D01*
G01*
X191508750Y-110410625D02*
G75*
G02*
X193183750Y-108735625I1675000J0D01*
G01*
%TO.C,K53*%
X221558750Y-108740625D02*
X221558750Y-112950625D01*
X210558750Y-110410625D02*
X210558750Y-114625625D01*
X215828750Y-112950625D02*
X221558750Y-112950625D01*
X212233750Y-108735625D02*
X221558750Y-108735625D01*
X210558750Y-114625625D02*
X214153750Y-114625625D01*
X214153750Y-114625625D02*
G75*
G02*
X215828750Y-112950625I1675000J0D01*
G01*
X210558750Y-110410625D02*
G75*
G02*
X212233750Y-108735625I1675000J0D01*
G01*
%TO.C,K10*%
X224846250Y-53260625D02*
X224846250Y-57475625D01*
X235846250Y-51590625D02*
X235846250Y-55800625D01*
X226521250Y-51585625D02*
X235846250Y-51585625D01*
X230116250Y-55800625D02*
X235846250Y-55800625D01*
X224846250Y-57475625D02*
X228441250Y-57475625D01*
X224846250Y-53260625D02*
G75*
G02*
X226521250Y-51585625I1675000J0D01*
G01*
X228441250Y-57475625D02*
G75*
G02*
X230116250Y-55800625I1675000J0D01*
G01*
%TO.C,K63*%
X131271250Y-127785625D02*
X140596250Y-127785625D01*
X129596250Y-133675625D02*
X133191250Y-133675625D01*
X129596250Y-129460625D02*
X129596250Y-133675625D01*
X140596250Y-127790625D02*
X140596250Y-132000625D01*
X134866250Y-132000625D02*
X140596250Y-132000625D01*
X129596250Y-129460625D02*
G75*
G02*
X131271250Y-127785625I1675000J0D01*
G01*
X133191250Y-133675625D02*
G75*
G02*
X134866250Y-132000625I1675000J0D01*
G01*
D11*
%TO.C,FB1*%
X206321250Y-54841003D02*
X206321250Y-55640247D01*
X207441250Y-54841003D02*
X207441250Y-55640247D01*
%TO.C,KD32*%
X80141250Y-136921875D02*
X80141250Y-137571875D01*
X80141250Y-136921875D02*
X80141250Y-136271875D01*
X77021250Y-136921875D02*
X77021250Y-135246875D01*
X77021250Y-136921875D02*
X77021250Y-137571875D01*
D10*
%TO.C,K27*%
X272471250Y-72310625D02*
X272471250Y-76525625D01*
X272471250Y-76525625D02*
X276066250Y-76525625D01*
X283471250Y-70640625D02*
X283471250Y-74850625D01*
X274146250Y-70635625D02*
X283471250Y-70635625D01*
X277741250Y-74850625D02*
X283471250Y-74850625D01*
X276066250Y-76525625D02*
G75*
G02*
X277741250Y-74850625I1675000J0D01*
G01*
X272471250Y-72310625D02*
G75*
G02*
X274146250Y-70635625I1675000J0D01*
G01*
%TO.C,K51*%
X172458750Y-114625625D02*
X176053750Y-114625625D01*
X174133750Y-108735625D02*
X183458750Y-108735625D01*
X177728750Y-112950625D02*
X183458750Y-112950625D01*
X183458750Y-108740625D02*
X183458750Y-112950625D01*
X172458750Y-110410625D02*
X172458750Y-114625625D01*
X176053750Y-114625625D02*
G75*
G02*
X177728750Y-112950625I1675000J0D01*
G01*
X172458750Y-110410625D02*
G75*
G02*
X174133750Y-108735625I1675000J0D01*
G01*
D11*
%TO.C,R2*%
X203744300Y-56317477D02*
X203744300Y-56791993D01*
X204789300Y-56317477D02*
X204789300Y-56791993D01*
D10*
%TO.C,K5*%
X129596250Y-57475625D02*
X133191250Y-57475625D01*
X134866250Y-55800625D02*
X140596250Y-55800625D01*
X140596250Y-51590625D02*
X140596250Y-55800625D01*
X131271250Y-51585625D02*
X140596250Y-51585625D01*
X129596250Y-53260625D02*
X129596250Y-57475625D01*
X133191250Y-57475625D02*
G75*
G02*
X134866250Y-55800625I1675000J0D01*
G01*
X129596250Y-53260625D02*
G75*
G02*
X131271250Y-51585625I1675000J0D01*
G01*
%TO.C,K50*%
X153408750Y-114625625D02*
X157003750Y-114625625D01*
X158678750Y-112950625D02*
X164408750Y-112950625D01*
X153408750Y-110410625D02*
X153408750Y-114625625D01*
X155083750Y-108735625D02*
X164408750Y-108735625D01*
X164408750Y-108740625D02*
X164408750Y-112950625D01*
X157003750Y-114625625D02*
G75*
G02*
X158678750Y-112950625I1675000J0D01*
G01*
X153408750Y-110410625D02*
G75*
G02*
X155083750Y-108735625I1675000J0D01*
G01*
%TO.C,K41*%
X258183750Y-91360625D02*
X258183750Y-95575625D01*
X259858750Y-89685625D02*
X269183750Y-89685625D01*
X263453750Y-93900625D02*
X269183750Y-93900625D01*
X269183750Y-89690625D02*
X269183750Y-93900625D01*
X258183750Y-95575625D02*
X261778750Y-95575625D01*
X261778750Y-95575625D02*
G75*
G02*
X263453750Y-93900625I1675000J0D01*
G01*
X258183750Y-91360625D02*
G75*
G02*
X259858750Y-89685625I1675000J0D01*
G01*
D11*
%TO.C,KD24*%
X91308750Y-121681875D02*
X91308750Y-120006875D01*
X94428750Y-121681875D02*
X94428750Y-121031875D01*
X94428750Y-121681875D02*
X94428750Y-122331875D01*
X91308750Y-121681875D02*
X91308750Y-122331875D01*
%TO.C,KD28*%
X224658750Y-117871875D02*
X224658750Y-116196875D01*
X227778750Y-117871875D02*
X227778750Y-118521875D01*
X227778750Y-117871875D02*
X227778750Y-117221875D01*
X224658750Y-117871875D02*
X224658750Y-118521875D01*
%TO.C,KD3*%
X146816250Y-60721875D02*
X146816250Y-60071875D01*
X143696250Y-60721875D02*
X143696250Y-59046875D01*
X143696250Y-60721875D02*
X143696250Y-61371875D01*
X146816250Y-60721875D02*
X146816250Y-61371875D01*
%TO.C,C6*%
X298939830Y-125271625D02*
X298658670Y-125271625D01*
X298939830Y-124251625D02*
X298658670Y-124251625D01*
%TO.C,KD26*%
X148458750Y-117871875D02*
X148458750Y-118521875D01*
X151578750Y-117871875D02*
X151578750Y-118521875D01*
X148458750Y-117871875D02*
X148458750Y-116196875D01*
X151578750Y-117871875D02*
X151578750Y-117221875D01*
D10*
%TO.C,K17*%
X83646250Y-70635625D02*
X92971250Y-70635625D01*
X81971250Y-76525625D02*
X85566250Y-76525625D01*
X92971250Y-70640625D02*
X92971250Y-74850625D01*
X81971250Y-72310625D02*
X81971250Y-76525625D01*
X87241250Y-74850625D02*
X92971250Y-74850625D01*
X85566250Y-76525625D02*
G75*
G02*
X87241250Y-74850625I1675000J0D01*
G01*
X81971250Y-72310625D02*
G75*
G02*
X83646250Y-70635625I1675000J0D01*
G01*
%TO.C,K38*%
X206303750Y-93900625D02*
X212033750Y-93900625D01*
X201033750Y-91360625D02*
X201033750Y-95575625D01*
X202708750Y-89685625D02*
X212033750Y-89685625D01*
X212033750Y-89690625D02*
X212033750Y-93900625D01*
X201033750Y-95575625D02*
X204628750Y-95575625D01*
X204628750Y-95575625D02*
G75*
G02*
X206303750Y-93900625I1675000J0D01*
G01*
X201033750Y-91360625D02*
G75*
G02*
X202708750Y-89685625I1675000J0D01*
G01*
%TO.C,K64*%
X160552500Y-133675625D02*
X164147500Y-133675625D01*
X160552500Y-129460625D02*
X160552500Y-133675625D01*
X171552500Y-127790625D02*
X171552500Y-132000625D01*
X165822500Y-132000625D02*
X171552500Y-132000625D01*
X162227500Y-127785625D02*
X171552500Y-127785625D01*
X160552500Y-129460625D02*
G75*
G02*
X162227500Y-127785625I1675000J0D01*
G01*
X164147500Y-133675625D02*
G75*
G02*
X165822500Y-132000625I1675000J0D01*
G01*
%TO.C,K19*%
X120071250Y-72310625D02*
X120071250Y-76525625D01*
X121746250Y-70635625D02*
X131071250Y-70635625D01*
X120071250Y-76525625D02*
X123666250Y-76525625D01*
X131071250Y-70640625D02*
X131071250Y-74850625D01*
X125341250Y-74850625D02*
X131071250Y-74850625D01*
X123666250Y-76525625D02*
G75*
G02*
X125341250Y-74850625I1675000J0D01*
G01*
X120071250Y-72310625D02*
G75*
G02*
X121746250Y-70635625I1675000J0D01*
G01*
D11*
%TO.C,R5*%
X266970742Y-125223375D02*
X267445258Y-125223375D01*
X266970742Y-126268375D02*
X267445258Y-126268375D01*
D10*
%TO.C,K29a1*%
X317100000Y-82050625D02*
X321310000Y-82050625D01*
X317095000Y-91375625D02*
X317095000Y-82050625D01*
X322985000Y-93050625D02*
X322985000Y-89455625D01*
X321310000Y-87780625D02*
X321310000Y-82050625D01*
X318770000Y-93050625D02*
X322985000Y-93050625D01*
X322985000Y-89455625D02*
G75*
G02*
X321310000Y-87780625I0J1675000D01*
G01*
X318770000Y-93050625D02*
G75*
G02*
X317095000Y-91375625I0J1675000D01*
G01*
D11*
%TO.C,KD37*%
X334196250Y-136921875D02*
X334196250Y-137571875D01*
X337316250Y-136921875D02*
X337316250Y-137571875D01*
X334196250Y-136921875D02*
X334196250Y-135246875D01*
X337316250Y-136921875D02*
X337316250Y-136271875D01*
D10*
%TO.C,K3*%
X93171250Y-51585625D02*
X102496250Y-51585625D01*
X102496250Y-51590625D02*
X102496250Y-55800625D01*
X91496250Y-57475625D02*
X95091250Y-57475625D01*
X91496250Y-53260625D02*
X91496250Y-57475625D01*
X96766250Y-55800625D02*
X102496250Y-55800625D01*
X95091250Y-57475625D02*
G75*
G02*
X96766250Y-55800625I1675000J0D01*
G01*
X91496250Y-53260625D02*
G75*
G02*
X93171250Y-51585625I1675000J0D01*
G01*
%TO.C,K29*%
X322333750Y-71255625D02*
X322333750Y-74850625D01*
X326548750Y-71255625D02*
X322333750Y-71255625D01*
X328223750Y-72930625D02*
X328223750Y-82255625D01*
X328218750Y-82255625D02*
X324008750Y-82255625D01*
X324008750Y-76525625D02*
X324008750Y-82255625D01*
X322333750Y-74850625D02*
G75*
G02*
X324008750Y-76525625I0J-1675000D01*
G01*
X326548750Y-71255625D02*
G75*
G02*
X328223750Y-72930625I0J-1675000D01*
G01*
%TO.C,K4*%
X115816250Y-55800625D02*
X121546250Y-55800625D01*
X121546250Y-51590625D02*
X121546250Y-55800625D01*
X110546250Y-57475625D02*
X114141250Y-57475625D01*
X112221250Y-51585625D02*
X121546250Y-51585625D01*
X110546250Y-53260625D02*
X110546250Y-57475625D01*
X114141250Y-57475625D02*
G75*
G02*
X115816250Y-55800625I1675000J0D01*
G01*
X110546250Y-53260625D02*
G75*
G02*
X112221250Y-51585625I1675000J0D01*
G01*
D11*
%TO.C,F1*%
X198121200Y-55062622D02*
X198121200Y-55579778D01*
X199541200Y-55062622D02*
X199541200Y-55579778D01*
D10*
%TO.C,K37*%
X187253750Y-93900625D02*
X192983750Y-93900625D01*
X183658750Y-89685625D02*
X192983750Y-89685625D01*
X181983750Y-95575625D02*
X185578750Y-95575625D01*
X192983750Y-89690625D02*
X192983750Y-93900625D01*
X181983750Y-91360625D02*
X181983750Y-95575625D01*
X185578750Y-95575625D02*
G75*
G02*
X187253750Y-93900625I1675000J0D01*
G01*
X181983750Y-91360625D02*
G75*
G02*
X183658750Y-89685625I1675000J0D01*
G01*
D11*
%TO.C,Y1*%
X297149250Y-119840625D02*
X300449250Y-119840625D01*
X300449250Y-119840625D02*
X300449250Y-123840625D01*
%TO.C,KD5*%
X219896250Y-64531875D02*
X219896250Y-62856875D01*
X219896250Y-64531875D02*
X219896250Y-65181875D01*
X223016250Y-64531875D02*
X223016250Y-65181875D01*
X223016250Y-64531875D02*
X223016250Y-63881875D01*
%TO.C,C1*%
X294188228Y-120650398D02*
X294387039Y-120451587D01*
X294909477Y-121371647D02*
X295108288Y-121172836D01*
%TO.C,KD2*%
X108716250Y-60721875D02*
X108716250Y-61371875D01*
X105596250Y-60721875D02*
X105596250Y-61371875D01*
X108716250Y-60721875D02*
X108716250Y-60071875D01*
X105596250Y-60721875D02*
X105596250Y-59046875D01*
%TO.C,R7*%
X293539947Y-136543395D02*
X293875480Y-136878928D01*
X292801020Y-137282322D02*
X293136553Y-137617855D01*
%TO.C,R1*%
X201080900Y-56317477D02*
X201080900Y-56791993D01*
X200035900Y-56317477D02*
X200035900Y-56791993D01*
%TO.C,ISP1*%
X284261250Y-115998625D02*
X286861250Y-115998625D01*
X289461250Y-118598625D02*
X289461250Y-110858625D01*
X284261250Y-110858625D02*
X289461250Y-110858625D01*
X284261250Y-117268625D02*
X284261250Y-118598625D01*
X284261250Y-115998625D02*
X284261250Y-110858625D01*
X284261250Y-118598625D02*
X285591250Y-118598625D01*
X286861250Y-118598625D02*
X289461250Y-118598625D01*
X286861250Y-115998625D02*
X286861250Y-118598625D01*
%TO.C,KD10*%
X118241250Y-79771875D02*
X118241250Y-80421875D01*
X115121250Y-79771875D02*
X115121250Y-78096875D01*
X118241250Y-79771875D02*
X118241250Y-79121875D01*
X115121250Y-79771875D02*
X115121250Y-80421875D01*
D10*
%TO.C,K23*%
X197946250Y-70635625D02*
X207271250Y-70635625D01*
X196271250Y-72310625D02*
X196271250Y-76525625D01*
X201541250Y-74850625D02*
X207271250Y-74850625D01*
X207271250Y-70640625D02*
X207271250Y-74850625D01*
X196271250Y-76525625D02*
X199866250Y-76525625D01*
X196271250Y-72310625D02*
G75*
G02*
X197946250Y-70635625I1675000J0D01*
G01*
X199866250Y-76525625D02*
G75*
G02*
X201541250Y-74850625I1675000J0D01*
G01*
%TO.C,K32*%
X86733750Y-91360625D02*
X86733750Y-95575625D01*
X88408750Y-89685625D02*
X97733750Y-89685625D01*
X97733750Y-89690625D02*
X97733750Y-93900625D01*
X92003750Y-93900625D02*
X97733750Y-93900625D01*
X86733750Y-95575625D02*
X90328750Y-95575625D01*
X90328750Y-95575625D02*
G75*
G02*
X92003750Y-93900625I1675000J0D01*
G01*
X86733750Y-91360625D02*
G75*
G02*
X88408750Y-89685625I1675000J0D01*
G01*
%TO.C,K26*%
X264421250Y-70640625D02*
X264421250Y-74850625D01*
X253421250Y-76525625D02*
X257016250Y-76525625D01*
X255096250Y-70635625D02*
X264421250Y-70635625D01*
X258691250Y-74850625D02*
X264421250Y-74850625D01*
X253421250Y-72310625D02*
X253421250Y-76525625D01*
X253421250Y-72310625D02*
G75*
G02*
X255096250Y-70635625I1675000J0D01*
G01*
X257016250Y-76525625D02*
G75*
G02*
X258691250Y-74850625I1675000J0D01*
G01*
D11*
%TO.C,C5*%
X283890330Y-122318875D02*
X283609170Y-122318875D01*
X283890330Y-121298875D02*
X283609170Y-121298875D01*
D10*
%TO.C,K18*%
X112021250Y-70640625D02*
X112021250Y-74850625D01*
X101021250Y-72310625D02*
X101021250Y-76525625D01*
X106291250Y-74850625D02*
X112021250Y-74850625D01*
X102696250Y-70635625D02*
X112021250Y-70635625D01*
X101021250Y-76525625D02*
X104616250Y-76525625D01*
X104616250Y-76525625D02*
G75*
G02*
X106291250Y-74850625I1675000J0D01*
G01*
X101021250Y-72310625D02*
G75*
G02*
X102696250Y-70635625I1675000J0D01*
G01*
%TO.C,K22*%
X177221250Y-76525625D02*
X180816250Y-76525625D01*
X188221250Y-70640625D02*
X188221250Y-74850625D01*
X177221250Y-72310625D02*
X177221250Y-76525625D01*
X178896250Y-70635625D02*
X188221250Y-70635625D01*
X182491250Y-74850625D02*
X188221250Y-74850625D01*
X180816250Y-76525625D02*
G75*
G02*
X182491250Y-74850625I1675000J0D01*
G01*
X177221250Y-72310625D02*
G75*
G02*
X178896250Y-70635625I1675000J0D01*
G01*
%TO.C,K6*%
X159646250Y-51590625D02*
X159646250Y-55800625D01*
X150321250Y-51585625D02*
X159646250Y-51585625D01*
X148646250Y-57475625D02*
X152241250Y-57475625D01*
X148646250Y-53260625D02*
X148646250Y-57475625D01*
X153916250Y-55800625D02*
X159646250Y-55800625D01*
X152241250Y-57475625D02*
G75*
G02*
X153916250Y-55800625I1675000J0D01*
G01*
X148646250Y-53260625D02*
G75*
G02*
X150321250Y-51585625I1675000J0D01*
G01*
D11*
%TO.C,KD17*%
X81783750Y-98821875D02*
X81783750Y-99471875D01*
X84903750Y-98821875D02*
X84903750Y-99471875D01*
X84903750Y-98821875D02*
X84903750Y-98171875D01*
X81783750Y-98821875D02*
X81783750Y-97146875D01*
D10*
%TO.C,K42*%
X277233750Y-95575625D02*
X280828750Y-95575625D01*
X288233750Y-89690625D02*
X288233750Y-93900625D01*
X277233750Y-91360625D02*
X277233750Y-95575625D01*
X282503750Y-93900625D02*
X288233750Y-93900625D01*
X278908750Y-89685625D02*
X288233750Y-89685625D01*
X277233750Y-91360625D02*
G75*
G02*
X278908750Y-89685625I1675000J0D01*
G01*
X280828750Y-95575625D02*
G75*
G02*
X282503750Y-93900625I1675000J0D01*
G01*
%TO.C,K65*%
X213447500Y-132000625D02*
X219177500Y-132000625D01*
X219177500Y-127790625D02*
X219177500Y-132000625D01*
X208177500Y-129460625D02*
X208177500Y-133675625D01*
X208177500Y-133675625D02*
X211772500Y-133675625D01*
X209852500Y-127785625D02*
X219177500Y-127785625D01*
X208177500Y-129460625D02*
G75*
G02*
X209852500Y-127785625I1675000J0D01*
G01*
X211772500Y-133675625D02*
G75*
G02*
X213447500Y-132000625I1675000J0D01*
G01*
D11*
%TO.C,KD21*%
X234183750Y-98821875D02*
X234183750Y-99471875D01*
X234183750Y-98821875D02*
X234183750Y-97146875D01*
X237303750Y-98821875D02*
X237303750Y-98171875D01*
X237303750Y-98821875D02*
X237303750Y-99471875D01*
%TO.C,LED1*%
X59307500Y-102730625D02*
X59307500Y-105330625D01*
D10*
%TO.C,K30*%
X344416250Y-74850625D02*
X350146250Y-74850625D01*
X340821250Y-70635625D02*
X350146250Y-70635625D01*
X339146250Y-72310625D02*
X339146250Y-76525625D01*
X350146250Y-70640625D02*
X350146250Y-74850625D01*
X339146250Y-76525625D02*
X342741250Y-76525625D01*
X342741250Y-76525625D02*
G75*
G02*
X344416250Y-74850625I1675000J0D01*
G01*
X339146250Y-72310625D02*
G75*
G02*
X340821250Y-70635625I1675000J0D01*
G01*
%TO.C,K12*%
X268216250Y-55800625D02*
X273946250Y-55800625D01*
X264621250Y-51585625D02*
X273946250Y-51585625D01*
X262946250Y-57475625D02*
X266541250Y-57475625D01*
X262946250Y-53260625D02*
X262946250Y-57475625D01*
X273946250Y-51590625D02*
X273946250Y-55800625D01*
X266541250Y-57475625D02*
G75*
G02*
X268216250Y-55800625I1675000J0D01*
G01*
X262946250Y-53260625D02*
G75*
G02*
X264621250Y-51585625I1675000J0D01*
G01*
%TO.C,K20*%
X139121250Y-76525625D02*
X142716250Y-76525625D01*
X140796250Y-70635625D02*
X150121250Y-70635625D01*
X150121250Y-70640625D02*
X150121250Y-74850625D01*
X144391250Y-74850625D02*
X150121250Y-74850625D01*
X139121250Y-72310625D02*
X139121250Y-76525625D01*
X142716250Y-76525625D02*
G75*
G02*
X144391250Y-74850625I1675000J0D01*
G01*
X139121250Y-72310625D02*
G75*
G02*
X140796250Y-70635625I1675000J0D01*
G01*
%TO.C,K48*%
X126308750Y-108740625D02*
X126308750Y-112950625D01*
X115308750Y-114625625D02*
X118903750Y-114625625D01*
X116983750Y-108735625D02*
X126308750Y-108735625D01*
X115308750Y-110410625D02*
X115308750Y-114625625D01*
X120578750Y-112950625D02*
X126308750Y-112950625D01*
X115308750Y-110410625D02*
G75*
G02*
X116983750Y-108735625I1675000J0D01*
G01*
X118903750Y-114625625D02*
G75*
G02*
X120578750Y-112950625I1675000J0D01*
G01*
D11*
%TO.C,C7*%
X298939830Y-119429625D02*
X298658670Y-119429625D01*
X298939830Y-118409625D02*
X298658670Y-118409625D01*
%TO.C,KD33*%
X127766250Y-136921875D02*
X127766250Y-137571875D01*
X124646250Y-136921875D02*
X124646250Y-135246875D01*
X127766250Y-136921875D02*
X127766250Y-136271875D01*
X124646250Y-136921875D02*
X124646250Y-137571875D01*
D10*
%TO.C,K69*%
X320096250Y-133675625D02*
X323691250Y-133675625D01*
X320096250Y-129460625D02*
X320096250Y-133675625D01*
X321771250Y-127785625D02*
X331096250Y-127785625D01*
X331096250Y-127790625D02*
X331096250Y-132000625D01*
X325366250Y-132000625D02*
X331096250Y-132000625D01*
X323691250Y-133675625D02*
G75*
G02*
X325366250Y-132000625I1675000J0D01*
G01*
X320096250Y-129460625D02*
G75*
G02*
X321771250Y-127785625I1675000J0D01*
G01*
%TO.C,K45*%
X66372500Y-122245625D02*
X57047500Y-122245625D01*
X62777500Y-118030625D02*
X57047500Y-118030625D01*
X57047500Y-122240625D02*
X57047500Y-118030625D01*
X68047500Y-120570625D02*
X68047500Y-116355625D01*
X68047500Y-116355625D02*
X64452500Y-116355625D01*
X64452500Y-116355625D02*
G75*
G02*
X62777500Y-118030625I-1675000J0D01*
G01*
X68047500Y-120570625D02*
G75*
G02*
X66372500Y-122245625I-1675000J0D01*
G01*
%TO.C,K13*%
X287266250Y-55800625D02*
X292996250Y-55800625D01*
X283671250Y-51585625D02*
X292996250Y-51585625D01*
X281996250Y-57475625D02*
X285591250Y-57475625D01*
X292996250Y-51590625D02*
X292996250Y-55800625D01*
X281996250Y-53260625D02*
X281996250Y-57475625D01*
X285591250Y-57475625D02*
G75*
G02*
X287266250Y-55800625I1675000J0D01*
G01*
X281996250Y-53260625D02*
G75*
G02*
X283671250Y-51585625I1675000J0D01*
G01*
D11*
%TO.C,KD14*%
X267521250Y-79771875D02*
X267521250Y-80421875D01*
X267521250Y-79771875D02*
X267521250Y-78096875D01*
X270641250Y-79771875D02*
X270641250Y-79121875D01*
X270641250Y-79771875D02*
X270641250Y-80421875D01*
%TO.C,KD6*%
X257996250Y-60721875D02*
X257996250Y-59046875D01*
X261116250Y-60721875D02*
X261116250Y-60071875D01*
X261116250Y-60721875D02*
X261116250Y-61371875D01*
X257996250Y-60721875D02*
X257996250Y-61371875D01*
%TO.C,KD16*%
X337316250Y-79771875D02*
X337316250Y-80421875D01*
X334196250Y-79771875D02*
X334196250Y-80421875D01*
X337316250Y-79771875D02*
X337316250Y-79121875D01*
X334196250Y-79771875D02*
X334196250Y-78096875D01*
D10*
%TO.C,K61*%
X81971250Y-133675625D02*
X85566250Y-133675625D01*
X83646250Y-127785625D02*
X92971250Y-127785625D01*
X87241250Y-132000625D02*
X92971250Y-132000625D01*
X81971250Y-129460625D02*
X81971250Y-133675625D01*
X92971250Y-127790625D02*
X92971250Y-132000625D01*
X81971250Y-129460625D02*
G75*
G02*
X83646250Y-127785625I1675000J0D01*
G01*
X85566250Y-133675625D02*
G75*
G02*
X87241250Y-132000625I1675000J0D01*
G01*
D11*
%TO.C,KD18*%
X123003750Y-98821875D02*
X123003750Y-99471875D01*
X119883750Y-98821875D02*
X119883750Y-99471875D01*
X123003750Y-98821875D02*
X123003750Y-98171875D01*
X119883750Y-98821875D02*
X119883750Y-97146875D01*
D10*
%TO.C,K43*%
X307575000Y-91575625D02*
X311785000Y-91575625D01*
X309245000Y-102575625D02*
X313460000Y-102575625D01*
X311785000Y-97305625D02*
X311785000Y-91575625D01*
X307570000Y-100900625D02*
X307570000Y-91575625D01*
X313460000Y-102575625D02*
X313460000Y-98980625D01*
X313460000Y-98980625D02*
G75*
G02*
X311785000Y-97305625I0J1675000D01*
G01*
X309245000Y-102575625D02*
G75*
G02*
X307570000Y-100900625I0J1675000D01*
G01*
%TO.C,K47*%
X101528750Y-112950625D02*
X107258750Y-112950625D01*
X96258750Y-110410625D02*
X96258750Y-114625625D01*
X107258750Y-108740625D02*
X107258750Y-112950625D01*
X96258750Y-114625625D02*
X99853750Y-114625625D01*
X97933750Y-108735625D02*
X107258750Y-108735625D01*
X96258750Y-110410625D02*
G75*
G02*
X97933750Y-108735625I1675000J0D01*
G01*
X99853750Y-114625625D02*
G75*
G02*
X101528750Y-112950625I1675000J0D01*
G01*
%TO.C,K28*%
X296791250Y-74850625D02*
X302521250Y-74850625D01*
X291521250Y-76525625D02*
X295116250Y-76525625D01*
X302521250Y-70640625D02*
X302521250Y-74850625D01*
X291521250Y-72310625D02*
X291521250Y-76525625D01*
X293196250Y-70635625D02*
X302521250Y-70635625D01*
X291521250Y-72310625D02*
G75*
G02*
X293196250Y-70635625I1675000J0D01*
G01*
X295116250Y-76525625D02*
G75*
G02*
X296791250Y-74850625I1675000J0D01*
G01*
%TO.C,K36*%
X162933750Y-91360625D02*
X162933750Y-95575625D01*
X164608750Y-89685625D02*
X173933750Y-89685625D01*
X162933750Y-95575625D02*
X166528750Y-95575625D01*
X173933750Y-89690625D02*
X173933750Y-93900625D01*
X168203750Y-93900625D02*
X173933750Y-93900625D01*
X162933750Y-91360625D02*
G75*
G02*
X164608750Y-89685625I1675000J0D01*
G01*
X166528750Y-95575625D02*
G75*
G02*
X168203750Y-93900625I1675000J0D01*
G01*
%TO.C,K39*%
X231083750Y-89690625D02*
X231083750Y-93900625D01*
X225353750Y-93900625D02*
X231083750Y-93900625D01*
X221758750Y-89685625D02*
X231083750Y-89685625D01*
X220083750Y-91360625D02*
X220083750Y-95575625D01*
X220083750Y-95575625D02*
X223678750Y-95575625D01*
X220083750Y-91360625D02*
G75*
G02*
X221758750Y-89685625I1675000J0D01*
G01*
X223678750Y-95575625D02*
G75*
G02*
X225353750Y-93900625I1675000J0D01*
G01*
D11*
%TO.C,KD35*%
X257996250Y-136921875D02*
X257996250Y-137571875D01*
X261116250Y-136921875D02*
X261116250Y-137571875D01*
X261116250Y-136921875D02*
X261116250Y-136271875D01*
X257996250Y-136921875D02*
X257996250Y-135246875D01*
%TO.C,KD8*%
X337316250Y-64531875D02*
X337316250Y-65181875D01*
X337316250Y-64531875D02*
X337316250Y-63881875D01*
X334196250Y-64531875D02*
X334196250Y-62856875D01*
X334196250Y-64531875D02*
X334196250Y-65181875D01*
D10*
%TO.C,K62*%
X111053750Y-132000625D02*
X116783750Y-132000625D01*
X105783750Y-133675625D02*
X109378750Y-133675625D01*
X116783750Y-127790625D02*
X116783750Y-132000625D01*
X105783750Y-129460625D02*
X105783750Y-133675625D01*
X107458750Y-127785625D02*
X116783750Y-127785625D01*
X109378750Y-133675625D02*
G75*
G02*
X111053750Y-132000625I1675000J0D01*
G01*
X105783750Y-129460625D02*
G75*
G02*
X107458750Y-127785625I1675000J0D01*
G01*
%TO.C,K59*%
X339146250Y-110410625D02*
X339146250Y-114625625D01*
X340821250Y-108735625D02*
X350146250Y-108735625D01*
X350146250Y-108740625D02*
X350146250Y-112950625D01*
X344416250Y-112950625D02*
X350146250Y-112950625D01*
X339146250Y-114625625D02*
X342741250Y-114625625D01*
X339146250Y-110410625D02*
G75*
G02*
X340821250Y-108735625I1675000J0D01*
G01*
X342741250Y-114625625D02*
G75*
G02*
X344416250Y-112950625I1675000J0D01*
G01*
D11*
%TO.C,KD30*%
X318266250Y-117871875D02*
X318266250Y-117221875D01*
X315146250Y-117871875D02*
X315146250Y-118521875D01*
X315146250Y-117871875D02*
X315146250Y-116196875D01*
X318266250Y-117871875D02*
X318266250Y-118521875D01*
D10*
%TO.C,K60*%
X59833750Y-127785625D02*
X69158750Y-127785625D01*
X63428750Y-132000625D02*
X69158750Y-132000625D01*
X58158750Y-129460625D02*
X58158750Y-133675625D01*
X69158750Y-127790625D02*
X69158750Y-132000625D01*
X58158750Y-133675625D02*
X61753750Y-133675625D01*
X58158750Y-129460625D02*
G75*
G02*
X59833750Y-127785625I1675000J0D01*
G01*
X61753750Y-133675625D02*
G75*
G02*
X63428750Y-132000625I1675000J0D01*
G01*
%TO.C,K67*%
X278708750Y-127790625D02*
X278708750Y-132000625D01*
X267708750Y-129460625D02*
X267708750Y-133675625D01*
X267708750Y-133675625D02*
X271303750Y-133675625D01*
X272978750Y-132000625D02*
X278708750Y-132000625D01*
X269383750Y-127785625D02*
X278708750Y-127785625D01*
X267708750Y-129460625D02*
G75*
G02*
X269383750Y-127785625I1675000J0D01*
G01*
X271303750Y-133675625D02*
G75*
G02*
X272978750Y-132000625I1675000J0D01*
G01*
D11*
%TO.C,C3*%
X287956280Y-137341844D02*
X287757469Y-137540655D01*
X287235031Y-136620595D02*
X287036220Y-136819406D01*
D10*
%TO.C,K44*%
X339146250Y-91360625D02*
X339146250Y-95575625D01*
X339146250Y-95575625D02*
X342741250Y-95575625D01*
X350146250Y-89690625D02*
X350146250Y-93900625D01*
X344416250Y-93900625D02*
X350146250Y-93900625D01*
X340821250Y-89685625D02*
X350146250Y-89685625D01*
X342741250Y-95575625D02*
G75*
G02*
X344416250Y-93900625I1675000J0D01*
G01*
X339146250Y-91360625D02*
G75*
G02*
X340821250Y-89685625I1675000J0D01*
G01*
%TO.C,K1*%
X55071250Y-51585625D02*
X64396250Y-51585625D01*
X53396250Y-53260625D02*
X53396250Y-57475625D01*
X64396250Y-51590625D02*
X64396250Y-55800625D01*
X58666250Y-55800625D02*
X64396250Y-55800625D01*
X53396250Y-57475625D02*
X56991250Y-57475625D01*
X53396250Y-53260625D02*
G75*
G02*
X55071250Y-51585625I1675000J0D01*
G01*
X56991250Y-57475625D02*
G75*
G02*
X58666250Y-55800625I1675000J0D01*
G01*
%TO.C,K46*%
X78478750Y-122240625D02*
X78478750Y-118030625D01*
X87803750Y-122245625D02*
X78478750Y-122245625D01*
X84208750Y-118030625D02*
X78478750Y-118030625D01*
X89478750Y-120570625D02*
X89478750Y-116355625D01*
X89478750Y-116355625D02*
X85883750Y-116355625D01*
X89478750Y-120570625D02*
G75*
G02*
X87803750Y-122245625I-1675000J0D01*
G01*
X85883750Y-116355625D02*
G75*
G02*
X84208750Y-118030625I-1675000J0D01*
G01*
D11*
%TO.C,KD13*%
X229421250Y-79771875D02*
X229421250Y-78096875D01*
X232541250Y-79771875D02*
X232541250Y-79121875D01*
X229421250Y-79771875D02*
X229421250Y-80421875D01*
X232541250Y-79771875D02*
X232541250Y-80421875D01*
%TO.C,R6*%
X70467750Y-104932883D02*
X70467750Y-104458367D01*
X69422750Y-104932883D02*
X69422750Y-104458367D01*
D10*
%TO.C,K55*%
X253928750Y-112950625D02*
X259658750Y-112950625D01*
X250333750Y-108735625D02*
X259658750Y-108735625D01*
X259658750Y-108740625D02*
X259658750Y-112950625D01*
X248658750Y-114625625D02*
X252253750Y-114625625D01*
X248658750Y-110410625D02*
X248658750Y-114625625D01*
X248658750Y-110410625D02*
G75*
G02*
X250333750Y-108735625I1675000J0D01*
G01*
X252253750Y-114625625D02*
G75*
G02*
X253928750Y-112950625I1675000J0D01*
G01*
%TO.C,K21*%
X163441250Y-74850625D02*
X169171250Y-74850625D01*
X169171250Y-70640625D02*
X169171250Y-74850625D01*
X159846250Y-70635625D02*
X169171250Y-70635625D01*
X158171250Y-72310625D02*
X158171250Y-76525625D01*
X158171250Y-76525625D02*
X161766250Y-76525625D01*
X161766250Y-76525625D02*
G75*
G02*
X163441250Y-74850625I1675000J0D01*
G01*
X158171250Y-72310625D02*
G75*
G02*
X159846250Y-70635625I1675000J0D01*
G01*
%TO.C,K68*%
X301046250Y-129460625D02*
X301046250Y-133675625D01*
X312046250Y-127790625D02*
X312046250Y-132000625D01*
X302721250Y-127785625D02*
X312046250Y-127785625D01*
X301046250Y-133675625D02*
X304641250Y-133675625D01*
X306316250Y-132000625D02*
X312046250Y-132000625D01*
X304641250Y-133675625D02*
G75*
G02*
X306316250Y-132000625I1675000J0D01*
G01*
X301046250Y-129460625D02*
G75*
G02*
X302721250Y-127785625I1675000J0D01*
G01*
D11*
%TO.C,KD9*%
X77021250Y-79771875D02*
X77021250Y-80421875D01*
X77021250Y-79771875D02*
X77021250Y-78096875D01*
X80141250Y-79771875D02*
X80141250Y-80421875D01*
X80141250Y-79771875D02*
X80141250Y-79121875D01*
%TO.C,R3*%
X282020750Y-115727883D02*
X282020750Y-115253367D01*
X283065750Y-115727883D02*
X283065750Y-115253367D01*
D10*
%TO.C,K66*%
X249166250Y-132000625D02*
X254896250Y-132000625D01*
X254896250Y-127790625D02*
X254896250Y-132000625D01*
X245571250Y-127785625D02*
X254896250Y-127785625D01*
X243896250Y-133675625D02*
X247491250Y-133675625D01*
X243896250Y-129460625D02*
X243896250Y-133675625D01*
X243896250Y-129460625D02*
G75*
G02*
X245571250Y-127785625I1675000J0D01*
G01*
X247491250Y-133675625D02*
G75*
G02*
X249166250Y-132000625I1675000J0D01*
G01*
%TO.C,K16*%
X63428750Y-74850625D02*
X69158750Y-74850625D01*
X58158750Y-76525625D02*
X61753750Y-76525625D01*
X59833750Y-70635625D02*
X69158750Y-70635625D01*
X69158750Y-70640625D02*
X69158750Y-74850625D01*
X58158750Y-72310625D02*
X58158750Y-76525625D01*
X58158750Y-72310625D02*
G75*
G02*
X59833750Y-70635625I1675000J0D01*
G01*
X61753750Y-76525625D02*
G75*
G02*
X63428750Y-74850625I1675000J0D01*
G01*
D11*
%TO.C,KD34*%
X200846250Y-136921875D02*
X200846250Y-137571875D01*
X203966250Y-136921875D02*
X203966250Y-136271875D01*
X200846250Y-136921875D02*
X200846250Y-135246875D01*
X203966250Y-136921875D02*
X203966250Y-137571875D01*
%TO.C,KD22*%
X272283750Y-98821875D02*
X272283750Y-99471875D01*
X275403750Y-98821875D02*
X275403750Y-99471875D01*
X272283750Y-98821875D02*
X272283750Y-97146875D01*
X275403750Y-98821875D02*
X275403750Y-98171875D01*
%TO.C,KD20*%
X196083750Y-98821875D02*
X196083750Y-99471875D01*
X196083750Y-98821875D02*
X196083750Y-97146875D01*
X199203750Y-98821875D02*
X199203750Y-98171875D01*
X199203750Y-98821875D02*
X199203750Y-99471875D01*
%TO.C,C8*%
X283609170Y-123827000D02*
X283890330Y-123827000D01*
X283609170Y-122807000D02*
X283890330Y-122807000D01*
%TO.C,LED1a1*%
X64070000Y-87490625D02*
X64070000Y-90090625D01*
D10*
%TO.C,K2*%
X72446250Y-53260625D02*
X72446250Y-57475625D01*
X77716250Y-55800625D02*
X83446250Y-55800625D01*
X83446250Y-51590625D02*
X83446250Y-55800625D01*
X74121250Y-51585625D02*
X83446250Y-51585625D01*
X72446250Y-57475625D02*
X76041250Y-57475625D01*
X72446250Y-53260625D02*
G75*
G02*
X74121250Y-51585625I1675000J0D01*
G01*
X76041250Y-57475625D02*
G75*
G02*
X77716250Y-55800625I1675000J0D01*
G01*
D11*
%TO.C,KD7*%
X299216250Y-60721875D02*
X299216250Y-60071875D01*
X299216250Y-60721875D02*
X299216250Y-61371875D01*
X296096250Y-60721875D02*
X296096250Y-61371875D01*
X296096250Y-60721875D02*
X296096250Y-59046875D01*
D10*
%TO.C,K45a1*%
X76302500Y-108740625D02*
X76302500Y-112950625D01*
X66977500Y-108735625D02*
X76302500Y-108735625D01*
X70572500Y-112950625D02*
X76302500Y-112950625D01*
X65302500Y-110410625D02*
X65302500Y-114625625D01*
X65302500Y-114625625D02*
X68897500Y-114625625D01*
X65302500Y-110410625D02*
G75*
G02*
X66977500Y-108735625I1675000J0D01*
G01*
X68897500Y-114625625D02*
G75*
G02*
X70572500Y-112950625I1675000J0D01*
G01*
%TO.C,K35*%
X143883750Y-95575625D02*
X147478750Y-95575625D01*
X145558750Y-89685625D02*
X154883750Y-89685625D01*
X143883750Y-91360625D02*
X143883750Y-95575625D01*
X149153750Y-93900625D02*
X154883750Y-93900625D01*
X154883750Y-89690625D02*
X154883750Y-93900625D01*
X147478750Y-95575625D02*
G75*
G02*
X149153750Y-93900625I1675000J0D01*
G01*
X143883750Y-91360625D02*
G75*
G02*
X145558750Y-89685625I1675000J0D01*
G01*
D11*
%TO.C,KD15*%
X305621250Y-79771875D02*
X305621250Y-78096875D01*
X308741250Y-79771875D02*
X308741250Y-80421875D01*
X305621250Y-79771875D02*
X305621250Y-80421875D01*
X308741250Y-79771875D02*
X308741250Y-79121875D01*
%TO.C,U1*%
X201506420Y-57354735D02*
X201506420Y-55454735D01*
X203306420Y-55754735D02*
X203306420Y-57354735D01*
%TO.C,KD29*%
X262758750Y-117871875D02*
X262758750Y-118521875D01*
X265878750Y-117871875D02*
X265878750Y-118521875D01*
X265878750Y-117871875D02*
X265878750Y-117221875D01*
X262758750Y-117871875D02*
X262758750Y-116196875D01*
D10*
%TO.C,K31a1*%
X66777500Y-89690625D02*
X66777500Y-93900625D01*
X57452500Y-89685625D02*
X66777500Y-89685625D01*
X55777500Y-91360625D02*
X55777500Y-95575625D01*
X61047500Y-93900625D02*
X66777500Y-93900625D01*
X55777500Y-95575625D02*
X59372500Y-95575625D01*
X59372500Y-95575625D02*
G75*
G02*
X61047500Y-93900625I1675000J0D01*
G01*
X55777500Y-91360625D02*
G75*
G02*
X57452500Y-89685625I1675000J0D01*
G01*
D11*
%TO.C,C4*%
X281345406Y-130715095D02*
X281146595Y-130913906D01*
X282066655Y-131436344D02*
X281867844Y-131635155D01*
D10*
%TO.C,K14*%
X311641250Y-65095625D02*
X302316250Y-65095625D01*
X313316250Y-63420625D02*
X313316250Y-59205625D01*
X302316250Y-65090625D02*
X302316250Y-60880625D01*
X313316250Y-59205625D02*
X309721250Y-59205625D01*
X308046250Y-60880625D02*
X302316250Y-60880625D01*
X309721250Y-59205625D02*
G75*
G02*
X308046250Y-60880625I-1675000J0D01*
G01*
X313316250Y-63420625D02*
G75*
G02*
X311641250Y-65095625I-1675000J0D01*
G01*
%TO.C,K14a1*%
X310571250Y-53260625D02*
X310571250Y-57475625D01*
X312246250Y-51585625D02*
X321571250Y-51585625D01*
X315841250Y-55800625D02*
X321571250Y-55800625D01*
X321571250Y-51590625D02*
X321571250Y-55800625D01*
X310571250Y-57475625D02*
X314166250Y-57475625D01*
X310571250Y-53260625D02*
G75*
G02*
X312246250Y-51585625I1675000J0D01*
G01*
X314166250Y-57475625D02*
G75*
G02*
X315841250Y-55800625I1675000J0D01*
G01*
%TO.C,K25*%
X234371250Y-72310625D02*
X234371250Y-76525625D01*
X245371250Y-70640625D02*
X245371250Y-74850625D01*
X239641250Y-74850625D02*
X245371250Y-74850625D01*
X234371250Y-76525625D02*
X237966250Y-76525625D01*
X236046250Y-70635625D02*
X245371250Y-70635625D01*
X237966250Y-76525625D02*
G75*
G02*
X239641250Y-74850625I1675000J0D01*
G01*
X234371250Y-72310625D02*
G75*
G02*
X236046250Y-70635625I1675000J0D01*
G01*
%TD*%
M02*
